<?xml version="1.0" encoding="UTF-8" standalone="no"?>
<!DOCTYPE svg PUBLIC "-//W3C//DTD SVG 1.1//EN"
 "http://www.w3.org/Graphics/SVG/1.1/DTD/svg11.dtd">
<!-- Generated by graphviz version 2.43.0 (0)
 -->
<!-- Title: BlockGraphCRTP.h Pages: 1 -->
<!--zoomable 644 -->
<svg id="main" version="1.1" xmlns="http://www.w3.org/2000/svg" xmlns:xlink="http://www.w3.org/1999/xlink" xml:space="preserve" onload="init(evt)">
<style type="text/css"><![CDATA[
.edge:hover path { stroke: red; }
.edge:hover polygon { stroke: red; fill: red; }
]]></style>
<script type="text/javascript"><![CDATA[
var edges = document.getElementsByTagName('g');
if (edges && edges.length) {
  for (var i=0;i<edges.length;i++) {
    if (edges[i].id.substr(0,4)=='edge') {
      edges[i].setAttribute('class','edge');
    }
  }
}
]]></script>
        <defs>
                <circle id="rim" cx="0" cy="0" r="7"/>
                <circle id="rim2" cx="0" cy="0" r="3.5"/>
                <g id="zoomPlus">
                        <use xlink:href="#rim" fill="#404040">
                                <set attributeName="fill" to="#808080" begin="zoomplus.mouseover" end="zoomplus.mouseout"/>
                        </use>
                        <path d="M-4,0h8M0,-4v8" fill="none" stroke="white" stroke-width="1.5" pointer-events="none"/>
                </g>
                <g id="zoomMin">
                        <use xlink:href="#rim" fill="#404040">
                                <set attributeName="fill" to="#808080" begin="zoomminus.mouseover" end="zoomminus.mouseout"/>
                        </use>
                        <path d="M-4,0h8" fill="none" stroke="white" stroke-width="1.5" pointer-events="none"/>
                </g>
                <g id="dirArrow">
                        <path fill="none" stroke="white" stroke-width="1.5" d="M0,-3.0v7 M-2.5,-0.5L0,-3.0L2.5,-0.5"/>
                </g>
               <g id="resetDef">
                       <use xlink:href="#rim2" fill="#404040">
                               <set attributeName="fill" to="#808080" begin="reset.mouseover" end="reset.mouseout"/>
                       </use>
               </g>
        </defs>

<script type="text/javascript">
var viewWidth = 867;
var viewHeight = 644;
var sectionId = 'dynsection-1';
</script>
<script xlink:href="svgpan.js"/>
<svg id="graph" class="graph">
<g id="viewport">
<title>BlockGraphCRTP.h</title>
<polygon fill="white" stroke="transparent" points="-4,4 -4,-640 862.5,-640 862.5,4 -4,4"/>
<!-- Node1 -->
<g id="node1" class="node">
<title>Node1</title>
<g id="a_node1"><a xlink:title=" ">
<polygon fill="#bfbfbf" stroke="black" points="409.5,-616.5 409.5,-635.5 514.5,-635.5 514.5,-616.5 409.5,-616.5"/>
<text text-anchor="middle" x="462" y="-623.5" font-family="Helvetica,sans-Serif" font-size="10.00">BlockGraphCRTP.h</text>
</a>
</g>
</g>
<!-- Node2 -->
<g id="node2" class="node">
<title>Node2</title>
<g id="a_node2"><a xlink:href="include__graphs_8h.html" target="_top" xlink:title=" ">
<polygon fill="white" stroke="black" points="412.5,-560.5 412.5,-579.5 511.5,-579.5 511.5,-560.5 412.5,-560.5"/>
<text text-anchor="middle" x="462" y="-567.5" font-family="Helvetica,sans-Serif" font-size="10.00">include_graphs.h</text>
</a>
</g>
</g>
<!-- Node1&#45;&gt;Node2 -->
<g id="edge1" class="edge">
<title>Node1&#45;&gt;Node2</title>
<path fill="none" stroke="midnightblue" d="M455.53,-606.1C454.9,-597.14 455.34,-586.86 456.87,-579.75"/>
<polygon fill="midnightblue" stroke="midnightblue" points="452.07,-606.62 456.83,-616.08 459.01,-605.71 452.07,-606.62"/>
</g>
<!-- Node2&#45;&gt;Node1 -->
<g id="edge20" class="edge">
<title>Node2&#45;&gt;Node1</title>
<path fill="none" stroke="midnightblue" d="M468.46,-589.69C469.11,-598.64 468.68,-608.93 467.17,-616.08"/>
<polygon fill="midnightblue" stroke="midnightblue" points="471.92,-589.2 467.13,-579.75 464.98,-590.13 471.92,-589.2"/>
</g>
<!-- Node3 -->
<g id="node3" class="node">
<title>Node3</title>
<g id="a_node3"><a xlink:href="GGM_8h.html" target="_top" xlink:title=" ">
<polygon fill="white" stroke="black" points="248,-280.5 248,-299.5 298,-299.5 298,-280.5 248,-280.5"/>
<text text-anchor="middle" x="273" y="-287.5" font-family="Helvetica,sans-Serif" font-size="10.00">GGM.h</text>
</a>
</g>
</g>
<!-- Node2&#45;&gt;Node3 -->
<g id="edge2" class="edge">
<title>Node2&#45;&gt;Node3</title>
<path fill="none" stroke="midnightblue" d="M402.41,-561.34C344.1,-550.11 264,-523.03 264,-459 264,-459 264,-459 264,-401 264,-363.06 269.38,-318.01 271.82,-299.54"/>
<polygon fill="midnightblue" stroke="midnightblue" points="401.83,-564.79 412.29,-563.13 403.08,-557.9 401.83,-564.79"/>
</g>
<!-- Node6 -->
<g id="node6" class="node">
<title>Node6</title>
<g id="a_node6"><a xlink:href="SamplerOptions_8h.html" target="_top" xlink:title=" ">
<polygon fill="white" stroke="black" points="348,-112.5 348,-131.5 452,-131.5 452,-112.5 348,-112.5"/>
<text text-anchor="middle" x="400" y="-119.5" font-family="Helvetica,sans-Serif" font-size="10.00">SamplerOptions.h</text>
</a>
</g>
</g>
<!-- Node2&#45;&gt;Node6 -->
<g id="edge42" class="edge">
<title>Node2&#45;&gt;Node6</title>
<path fill="none" stroke="midnightblue" d="M445.5,-553.12C427.59,-534.64 400.08,-502.25 389,-468 383.67,-451.54 396.92,-183.88 399.55,-131.76"/>
<polygon fill="midnightblue" stroke="midnightblue" points="443.19,-555.77 452.73,-560.38 448.15,-550.82 443.19,-555.77"/>
</g>
<!-- Node8 -->
<g id="node8" class="node">
<title>Node8</title>
<g id="a_node8"><a xlink:href="BGSL__export_8cpp.html" target="_top" xlink:title=" ">
<polygon fill="white" stroke="black" points="231.5,-0.5 231.5,-19.5 330.5,-19.5 330.5,-0.5 231.5,-0.5"/>
<text text-anchor="middle" x="281" y="-7.5" font-family="Helvetica,sans-Serif" font-size="10.00">BGSL_export.cpp</text>
</a>
</g>
</g>
<!-- Node2&#45;&gt;Node8 -->
<g id="edge41" class="edge">
<title>Node2&#45;&gt;Node8</title>
<path fill="none" stroke="midnightblue" d="M401.94,-567.2C276.87,-561.83 0,-540.7 0,-459 0,-459 0,-459 0,-121 0,-84.28 19.68,-75.17 51,-56 106.35,-22.11 182.01,-12.99 231.19,-10.92"/>
<polygon fill="midnightblue" stroke="midnightblue" points="401.98,-570.71 412.12,-567.62 402.27,-563.71 401.98,-570.71"/>
</g>
<!-- Node14 -->
<g id="node14" class="node">
<title>Node14</title>
<g id="a_node14"><a xlink:href="utils_8h.html" target="_top" xlink:title=" ">
<polygon fill="white" stroke="black" points="470.5,-504.5 470.5,-523.5 517.5,-523.5 517.5,-504.5 470.5,-504.5"/>
<text text-anchor="middle" x="494" y="-511.5" font-family="Helvetica,sans-Serif" font-size="10.00">utils.h</text>
</a>
</g>
</g>
<!-- Node2&#45;&gt;Node14 -->
<g id="edge21" class="edge">
<title>Node2&#45;&gt;Node14</title>
<path fill="none" stroke="midnightblue" d="M472.5,-551.27C477.97,-542.05 484.42,-531.17 488.81,-523.75"/>
<polygon fill="midnightblue" stroke="midnightblue" points="469.37,-549.7 467.28,-560.08 475.39,-553.26 469.37,-549.7"/>
</g>
<!-- Node16 -->
<g id="node16" class="node">
<title>Node16</title>
<g id="a_node16"><a xlink:href="GraphPrior_8h.html" target="_top" xlink:title=" ">
<polygon fill="white" stroke="black" points="292.5,-336.5 292.5,-355.5 369.5,-355.5 369.5,-336.5 292.5,-336.5"/>
<text text-anchor="middle" x="331" y="-343.5" font-family="Helvetica,sans-Serif" font-size="10.00">GraphPrior.h</text>
</a>
</g>
</g>
<!-- Node2&#45;&gt;Node16 -->
<g id="edge40" class="edge">
<title>Node2&#45;&gt;Node16</title>
<path fill="none" stroke="midnightblue" d="M405.62,-557.32C386.77,-550.64 367.42,-540.21 355,-524 314.83,-471.57 324.89,-383.85 329.4,-355.87"/>
<polygon fill="midnightblue" stroke="midnightblue" points="404.81,-560.74 415.4,-560.49 406.96,-554.08 404.81,-560.74"/>
</g>
<!-- Node17 -->
<g id="node17" class="node">
<title>Node17</title>
<g id="a_node17"><a xlink:href="FLMSamplerOptions_8h.html" target="_top" xlink:title=" ">
<polygon fill="white" stroke="black" points="550,-336.5 550,-355.5 674,-355.5 674,-336.5 550,-336.5"/>
<text text-anchor="middle" x="612" y="-343.5" font-family="Helvetica,sans-Serif" font-size="10.00">FLMSamplerOptions.h</text>
</a>
</g>
</g>
<!-- Node2&#45;&gt;Node17 -->
<g id="edge43" class="edge">
<title>Node2&#45;&gt;Node17</title>
<path fill="none" stroke="midnightblue" d="M496.07,-556.61C531.1,-541.73 583.36,-512.99 604,-468 621.73,-429.35 616.46,-376.36 613.45,-355.72"/>
<polygon fill="midnightblue" stroke="midnightblue" points="494.62,-553.42 486.68,-560.44 497.26,-559.9 494.62,-553.42"/>
</g>
<!-- Node19 -->
<g id="node19" class="node">
<title>Node19</title>
<g id="a_node19"><a xlink:href="GWishart_8h.html" target="_top" xlink:title=" ">
<polygon fill="white" stroke="black" points="397.5,-448.5 397.5,-467.5 468.5,-467.5 468.5,-448.5 397.5,-448.5"/>
<text text-anchor="middle" x="433" y="-455.5" font-family="Helvetica,sans-Serif" font-size="10.00">GWishart.h</text>
</a>
</g>
</g>
<!-- Node2&#45;&gt;Node19 -->
<g id="edge38" class="edge">
<title>Node2&#45;&gt;Node19</title>
<path fill="none" stroke="midnightblue" d="M457.17,-550.67C450.83,-526.62 439.96,-485.39 435.27,-467.59"/>
<polygon fill="midnightblue" stroke="midnightblue" points="453.79,-551.59 459.72,-560.37 460.56,-549.81 453.79,-551.59"/>
</g>
<!-- Node20 -->
<g id="node20" class="node">
<title>Node20</title>
<g id="a_node20"><a xlink:href="Precision_8h.html" target="_top" xlink:title=" ">
<polygon fill="white" stroke="black" points="525,-448.5 525,-467.5 595,-467.5 595,-448.5 525,-448.5"/>
<text text-anchor="middle" x="560" y="-455.5" font-family="Helvetica,sans-Serif" font-size="10.00">Precision.h</text>
</a>
</g>
</g>
<!-- Node2&#45;&gt;Node20 -->
<g id="edge39" class="edge">
<title>Node2&#45;&gt;Node20</title>
<path fill="none" stroke="midnightblue" d="M487.89,-555.19C500.83,-547.34 516.03,-536.57 527,-524 542.14,-506.65 552.43,-481.11 557.12,-467.8"/>
<polygon fill="midnightblue" stroke="midnightblue" points="485.85,-552.33 478.96,-560.38 489.36,-558.39 485.85,-552.33"/>
</g>
<!-- Node21 -->
<g id="node21" class="node">
<title>Node21</title>
<g id="a_node21"><a xlink:href="Test__Graphs_8cpp.html" target="_top" xlink:title=" ">
<polygon fill="white" stroke="black" points="651,-504.5 651,-523.5 747,-523.5 747,-504.5 651,-504.5"/>
<text text-anchor="middle" x="699" y="-511.5" font-family="Helvetica,sans-Serif" font-size="10.00">Test_Graphs.cpp</text>
</a>
</g>
</g>
<!-- Node2&#45;&gt;Node21 -->
<g id="edge44" class="edge">
<title>Node2&#45;&gt;Node21</title>
<path fill="none" stroke="midnightblue" d="M509.32,-558.22C554.11,-548.01 620.44,-532.9 661.62,-523.52"/>
<polygon fill="midnightblue" stroke="midnightblue" points="508.53,-554.81 499.55,-560.44 510.08,-561.63 508.53,-554.81"/>
</g>
<!-- Node22 -->
<g id="node22" class="node">
<title>Node22</title>
<g id="a_node22"><a xlink:href="Test__GWish_8cpp.html" target="_top" xlink:title=" ">
<polygon fill="white" stroke="black" points="765.5,-504.5 765.5,-523.5 858.5,-523.5 858.5,-504.5 765.5,-504.5"/>
<text text-anchor="middle" x="812" y="-511.5" font-family="Helvetica,sans-Serif" font-size="10.00">Test_GWish.cpp</text>
</a>
</g>
</g>
<!-- Node2&#45;&gt;Node22 -->
<g id="edge45" class="edge">
<title>Node2&#45;&gt;Node22</title>
<path fill="none" stroke="midnightblue" d="M521.65,-560C581.06,-551.01 674.87,-536.73 756,-524 759.02,-523.53 762.12,-523.04 765.25,-522.54"/>
<polygon fill="midnightblue" stroke="midnightblue" points="521.06,-556.55 511.7,-561.51 522.11,-563.47 521.06,-556.55"/>
</g>
<!-- Node4 -->
<g id="node4" class="node">
<title>Node4</title>
<g id="a_node4"><a xlink:href="AddRemoveMH_8h.html" target="_top" xlink:title=" ">
<polygon fill="white" stroke="black" points="143.5,-224.5 143.5,-243.5 244.5,-243.5 244.5,-224.5 143.5,-224.5"/>
<text text-anchor="middle" x="194" y="-231.5" font-family="Helvetica,sans-Serif" font-size="10.00">AddRemoveMH.h</text>
</a>
</g>
</g>
<!-- Node3&#45;&gt;Node4 -->
<g id="edge3" class="edge">
<title>Node3&#45;&gt;Node4</title>
<path fill="none" stroke="midnightblue" d="M251.97,-274.62C237.53,-264.76 218.86,-251.99 206.66,-243.65"/>
<polygon fill="midnightblue" stroke="midnightblue" points="250.08,-277.57 260.31,-280.32 254.03,-271.79 250.08,-277.57"/>
</g>
<!-- Node5 -->
<g id="node5" class="node">
<title>Node5</title>
<g id="a_node5"><a xlink:href="GGMFactory_8h.html" target="_top" xlink:title=" ">
<polygon fill="white" stroke="black" points="191.5,-168.5 191.5,-187.5 274.5,-187.5 274.5,-168.5 191.5,-168.5"/>
<text text-anchor="middle" x="233" y="-175.5" font-family="Helvetica,sans-Serif" font-size="10.00">GGMFactory.h</text>
</a>
</g>
</g>
<!-- Node3&#45;&gt;Node5 -->
<g id="edge15" class="edge">
<title>Node3&#45;&gt;Node5</title>
<path fill="none" stroke="midnightblue" d="M268.45,-270.72C264.99,-257.56 259.83,-239.47 254,-224 249.13,-211.09 242.15,-196.74 237.59,-187.79"/>
<polygon fill="midnightblue" stroke="midnightblue" points="265.07,-271.63 270.94,-280.45 271.86,-269.9 265.07,-271.63"/>
</g>
<!-- Node12 -->
<g id="node12" class="node">
<title>Node12</title>
<g id="a_node12"><a xlink:href="RJMH_8h.html" target="_top" xlink:title=" ">
<polygon fill="white" stroke="black" points="301,-224.5 301,-243.5 353,-243.5 353,-224.5 301,-224.5"/>
<text text-anchor="middle" x="327" y="-231.5" font-family="Helvetica,sans-Serif" font-size="10.00">RJMH.h</text>
</a>
</g>
</g>
<!-- Node3&#45;&gt;Node12 -->
<g id="edge16" class="edge">
<title>Node3&#45;&gt;Node12</title>
<path fill="none" stroke="midnightblue" d="M289,-273C298.57,-263.43 310.36,-251.64 318.25,-243.75"/>
<polygon fill="midnightblue" stroke="midnightblue" points="286.51,-270.54 281.92,-280.08 291.46,-275.49 286.51,-270.54"/>
</g>
<!-- Node13 -->
<g id="node13" class="node">
<title>Node13</title>
<g id="a_node13"><a xlink:href="DRJMH_8h.html" target="_top" xlink:title=" ">
<polygon fill="white" stroke="black" points="66.5,-224.5 66.5,-243.5 125.5,-243.5 125.5,-224.5 66.5,-224.5"/>
<text text-anchor="middle" x="96" y="-231.5" font-family="Helvetica,sans-Serif" font-size="10.00">DRJMH.h</text>
</a>
</g>
</g>
<!-- Node3&#45;&gt;Node13 -->
<g id="edge18" class="edge">
<title>Node3&#45;&gt;Node13</title>
<path fill="none" stroke="midnightblue" d="M237.82,-278.27C204.38,-268.07 154.75,-252.92 123.94,-243.52"/>
<polygon fill="midnightblue" stroke="midnightblue" points="237.05,-281.69 247.64,-281.26 239.1,-275 237.05,-281.69"/>
</g>
<!-- Node4&#45;&gt;Node5 -->
<g id="edge4" class="edge">
<title>Node4&#45;&gt;Node5</title>
<path fill="none" stroke="midnightblue" d="M206.38,-215.86C213.14,-206.5 221.21,-195.33 226.68,-187.75"/>
<polygon fill="midnightblue" stroke="midnightblue" points="203.46,-213.93 200.44,-224.08 209.13,-218.03 203.46,-213.93"/>
</g>
<!-- Node5&#45;&gt;Node6 -->
<g id="edge5" class="edge">
<title>Node5&#45;&gt;Node6</title>
<path fill="none" stroke="midnightblue" d="M269.17,-165.3C300.64,-155.13 345.49,-140.62 373.66,-131.52"/>
<polygon fill="midnightblue" stroke="midnightblue" points="267.9,-162.04 259.46,-168.44 270.05,-168.7 267.9,-162.04"/>
</g>
<!-- Node5&#45;&gt;Node8 -->
<g id="edge14" class="edge">
<title>Node5&#45;&gt;Node8</title>
<path fill="none" stroke="midnightblue" d="M200.97,-164.44C152.97,-143.78 71.52,-100.47 106,-56 121.28,-36.29 185.09,-23.71 231.25,-17"/>
<polygon fill="midnightblue" stroke="midnightblue" points="199.79,-167.74 210.36,-168.38 202.49,-161.28 199.79,-167.74"/>
</g>
<!-- Node7 -->
<g id="node7" class="node">
<title>Node7</title>
<g id="a_node7"><a xlink:href="GibbsSamplerBase_8h.html" target="_top" xlink:title=" ">
<polygon fill="white" stroke="black" points="222,-56.5 222,-75.5 340,-75.5 340,-56.5 222,-56.5"/>
<text text-anchor="middle" x="281" y="-63.5" font-family="Helvetica,sans-Serif" font-size="10.00">GibbsSamplerBase.h</text>
</a>
</g>
</g>
<!-- Node6&#45;&gt;Node7 -->
<g id="edge6" class="edge">
<title>Node6&#45;&gt;Node7</title>
<path fill="none" stroke="midnightblue" d="M371.86,-108.23C349.6,-98.13 319.14,-84.31 299.77,-75.52"/>
<polygon fill="midnightblue" stroke="midnightblue" points="370.59,-111.5 381.14,-112.44 373.48,-105.12 370.59,-111.5"/>
</g>
<!-- Node9 -->
<g id="node9" class="node">
<title>Node9</title>
<g id="a_node9"><a xlink:href="PosteriorAnalysis_8h.html" target="_top" xlink:title=" ">
<polygon fill="white" stroke="black" points="540,-56.5 540,-75.5 650,-75.5 650,-56.5 540,-56.5"/>
<text text-anchor="middle" x="595" y="-63.5" font-family="Helvetica,sans-Serif" font-size="10.00">PosteriorAnalysis.h</text>
</a>
</g>
</g>
<!-- Node6&#45;&gt;Node9 -->
<g id="edge8" class="edge">
<title>Node6&#45;&gt;Node9</title>
<path fill="none" stroke="midnightblue" d="M440.81,-109.7C477.61,-99.51 530.93,-84.74 564.25,-75.52"/>
<polygon fill="midnightblue" stroke="midnightblue" points="439.6,-106.4 430.9,-112.44 441.47,-113.15 439.6,-106.4"/>
</g>
<!-- Node10 -->
<g id="node10" class="node">
<title>Node10</title>
<g id="a_node10"><a xlink:href="GibbsSamplerDebug_8h.html" target="_top" xlink:title=" ">
<polygon fill="white" stroke="black" points="358.5,-56.5 358.5,-75.5 483.5,-75.5 483.5,-56.5 358.5,-56.5"/>
<text text-anchor="middle" x="421" y="-63.5" font-family="Helvetica,sans-Serif" font-size="10.00">GibbsSamplerDebug.h</text>
</a>
</g>
</g>
<!-- Node6&#45;&gt;Node10 -->
<g id="edge10" class="edge">
<title>Node6&#45;&gt;Node10</title>
<path fill="none" stroke="midnightblue" d="M407.12,-102.69C410.66,-93.59 414.77,-83.01 417.6,-75.75"/>
<polygon fill="midnightblue" stroke="midnightblue" points="403.83,-101.49 403.47,-112.08 410.35,-104.03 403.83,-101.49"/>
</g>
<!-- Node11 -->
<g id="node11" class="node">
<title>Node11</title>
<g id="a_node11"><a xlink:href="GGMsampler_8h.html" target="_top" xlink:title=" ">
<polygon fill="white" stroke="black" points="114.5,-56.5 114.5,-75.5 203.5,-75.5 203.5,-56.5 114.5,-56.5"/>
<text text-anchor="middle" x="159" y="-63.5" font-family="Helvetica,sans-Serif" font-size="10.00">GGMsampler.h</text>
</a>
</g>
</g>
<!-- Node6&#45;&gt;Node11 -->
<g id="edge12" class="edge">
<title>Node6&#45;&gt;Node11</title>
<path fill="none" stroke="midnightblue" d="M351.88,-110.22C306.34,-100.01 238.89,-84.9 197.01,-75.52"/>
<polygon fill="midnightblue" stroke="midnightblue" points="351.29,-113.67 361.81,-112.44 352.82,-106.84 351.29,-113.67"/>
</g>
<!-- Node7&#45;&gt;Node8 -->
<g id="edge7" class="edge">
<title>Node7&#45;&gt;Node8</title>
<path fill="none" stroke="midnightblue" d="M281,-45.8C281,-36.91 281,-26.78 281,-19.75"/>
<polygon fill="midnightblue" stroke="midnightblue" points="277.5,-46.08 281,-56.08 284.5,-46.08 277.5,-46.08"/>
</g>
<!-- Node9&#45;&gt;Node8 -->
<g id="edge9" class="edge">
<title>Node9&#45;&gt;Node8</title>
<path fill="none" stroke="midnightblue" d="M535.27,-54.73C475.93,-44.52 386.01,-29.06 330.52,-19.52"/>
<polygon fill="midnightblue" stroke="midnightblue" points="534.8,-58.2 545.25,-56.44 535.98,-51.3 534.8,-58.2"/>
</g>
<!-- Node10&#45;&gt;Node8 -->
<g id="edge11" class="edge">
<title>Node10&#45;&gt;Node8</title>
<path fill="none" stroke="midnightblue" d="M389.3,-52.77C363,-42.63 326.28,-28.47 303.08,-19.52"/>
<polygon fill="midnightblue" stroke="midnightblue" points="388.23,-56.11 398.82,-56.44 390.75,-49.58 388.23,-56.11"/>
</g>
<!-- Node11&#45;&gt;Node8 -->
<g id="edge13" class="edge">
<title>Node11&#45;&gt;Node8</title>
<path fill="none" stroke="midnightblue" d="M187.54,-52.37C210.39,-42.26 241.81,-28.35 261.76,-19.52"/>
<polygon fill="midnightblue" stroke="midnightblue" points="186.06,-49.2 178.33,-56.44 188.89,-55.6 186.06,-49.2"/>
</g>
<!-- Node12&#45;&gt;Node5 -->
<g id="edge17" class="edge">
<title>Node12&#45;&gt;Node5</title>
<path fill="none" stroke="midnightblue" d="M302.94,-219.18C285.64,-209.24 262.85,-196.15 248.07,-187.65"/>
<polygon fill="midnightblue" stroke="midnightblue" points="301.48,-222.38 311.9,-224.32 304.97,-216.31 301.48,-222.38"/>
</g>
<!-- Node13&#45;&gt;Node5 -->
<g id="edge19" class="edge">
<title>Node13&#45;&gt;Node5</title>
<path fill="none" stroke="midnightblue" d="M127.02,-220.77C152.76,-210.63 188.69,-196.47 211.39,-187.52"/>
<polygon fill="midnightblue" stroke="midnightblue" points="125.73,-217.52 117.71,-224.44 128.29,-224.03 125.73,-217.52"/>
</g>
<!-- Node15 -->
<g id="node15" class="node">
<title>Node15</title>
<g id="a_node15"><a xlink:href="include__helpers_8h.html" target="_top" xlink:title=" ">
<polygon fill="white" stroke="black" points="431,-392.5 431,-411.5 533,-411.5 533,-392.5 431,-392.5"/>
<text text-anchor="middle" x="482" y="-399.5" font-family="Helvetica,sans-Serif" font-size="10.00">include_helpers.h</text>
</a>
</g>
</g>
<!-- Node14&#45;&gt;Node15 -->
<g id="edge22" class="edge">
<title>Node14&#45;&gt;Node15</title>
<path fill="none" stroke="midnightblue" d="M491.97,-494.35C489.34,-470.25 484.87,-429.31 482.94,-411.59"/>
<polygon fill="midnightblue" stroke="midnightblue" points="488.49,-494.81 493.06,-504.37 495.45,-494.05 488.49,-494.81"/>
</g>
<!-- Node14&#45;&gt;Node19 -->
<g id="edge34" class="edge">
<title>Node14&#45;&gt;Node19</title>
<path fill="none" stroke="midnightblue" d="M476.53,-497.54C465.66,-487.91 452.06,-475.87 442.98,-467.83"/>
<polygon fill="midnightblue" stroke="midnightblue" points="474.39,-500.32 484.2,-504.32 479.03,-495.07 474.39,-500.32"/>
</g>
<!-- Node14&#45;&gt;Node20 -->
<g id="edge36" class="edge">
<title>Node14&#45;&gt;Node20</title>
<path fill="none" stroke="midnightblue" d="M512.55,-497.82C524.38,-488.15 539.29,-475.95 549.2,-467.83"/>
<polygon fill="midnightblue" stroke="midnightblue" points="510.13,-495.28 504.6,-504.32 514.56,-500.7 510.13,-495.28"/>
</g>
<!-- Node15&#45;&gt;Node3 -->
<g id="edge23" class="edge">
<title>Node15&#45;&gt;Node3</title>
<path fill="none" stroke="midnightblue" d="M461.22,-386.48C440.83,-372.58 408.57,-351.48 379,-336 351.37,-321.54 318.05,-307.99 296.24,-299.61"/>
<polygon fill="midnightblue" stroke="midnightblue" points="459.48,-389.53 469.7,-392.32 463.45,-383.77 459.48,-389.53"/>
</g>
<!-- Node15&#45;&gt;Node6 -->
<g id="edge29" class="edge">
<title>Node15&#45;&gt;Node6</title>
<path fill="none" stroke="midnightblue" d="M479.81,-382.28C477.44,-360.42 474,-323.14 474,-291 474,-291 474,-291 474,-233 474,-188.58 431.94,-148.62 411.24,-131.64"/>
<polygon fill="midnightblue" stroke="midnightblue" points="476.36,-382.91 480.95,-392.46 483.31,-382.13 476.36,-382.91"/>
</g>
<!-- Node15&#45;&gt;Node8 -->
<g id="edge28" class="edge">
<title>Node15&#45;&gt;Node8</title>
<path fill="none" stroke="midnightblue" d="M490.11,-382.93C499,-361.47 512,-324.36 512,-291 512,-291 512,-291 512,-121 512,-90.9 515.07,-76.47 493,-56 469.83,-34.51 385.77,-21.84 330.72,-15.68"/>
<polygon fill="midnightblue" stroke="midnightblue" points="486.79,-381.81 486.05,-392.38 493.22,-384.58 486.79,-381.81"/>
</g>
<!-- Node15&#45;&gt;Node16 -->
<g id="edge24" class="edge">
<title>Node15&#45;&gt;Node16</title>
<path fill="none" stroke="midnightblue" d="M448.55,-389.04C420.14,-378.88 380.06,-364.55 354.81,-355.52"/>
<polygon fill="midnightblue" stroke="midnightblue" points="447.48,-392.37 458.07,-392.44 449.84,-385.78 447.48,-392.37"/>
</g>
<!-- Node15&#45;&gt;Node17 -->
<g id="edge30" class="edge">
<title>Node15&#45;&gt;Node17</title>
<path fill="none" stroke="midnightblue" d="M512.09,-388.5C536.46,-378.38 570.14,-364.39 591.5,-355.52"/>
<polygon fill="midnightblue" stroke="midnightblue" points="510.49,-385.38 502.6,-392.44 513.18,-391.84 510.49,-385.38"/>
</g>
<!-- Node16&#45;&gt;Node3 -->
<g id="edge25" class="edge">
<title>Node16&#45;&gt;Node3</title>
<path fill="none" stroke="midnightblue" d="M314.09,-329.25C303.8,-319.67 291.03,-307.79 282.49,-299.83"/>
<polygon fill="midnightblue" stroke="midnightblue" points="311.98,-332.07 321.68,-336.32 316.75,-326.95 311.98,-332.07"/>
</g>
<!-- Node16&#45;&gt;Node6 -->
<g id="edge27" class="edge">
<title>Node16&#45;&gt;Node6</title>
<path fill="none" stroke="midnightblue" d="M336.72,-326.58C350.85,-281.14 386.97,-164.92 397.24,-131.88"/>
<polygon fill="midnightblue" stroke="midnightblue" points="333.33,-325.71 333.7,-336.3 340.02,-327.79 333.33,-325.71"/>
</g>
<!-- Node16&#45;&gt;Node8 -->
<g id="edge26" class="edge">
<title>Node16&#45;&gt;Node8</title>
<path fill="none" stroke="midnightblue" d="M282.4,-337.09C199.11,-322.15 38,-286.57 38,-235 38,-235 38,-235 38,-121 38,-36.95 160.15,-16.79 231.24,-12.17"/>
<polygon fill="midnightblue" stroke="midnightblue" points="281.94,-340.56 292.39,-338.85 283.15,-333.67 281.94,-340.56"/>
</g>
<!-- Node17&#45;&gt;Node9 -->
<g id="edge31" class="edge">
<title>Node17&#45;&gt;Node9</title>
<path fill="none" stroke="midnightblue" d="M608.98,-326.31C605.73,-304.47 601,-267.21 601,-235 601,-235 601,-235 601,-177 601,-139.13 597.41,-94.04 595.78,-75.55"/>
<polygon fill="midnightblue" stroke="midnightblue" points="605.57,-327.13 610.56,-336.47 612.49,-326.05 605.57,-327.13"/>
</g>
<!-- Node18 -->
<g id="node18" class="node">
<title>Node18</title>
<g id="a_node18"><a xlink:href="FLMsampler_8h.html" target="_top" xlink:title=" ">
<polygon fill="white" stroke="black" points="632.5,-168.5 632.5,-187.5 717.5,-187.5 717.5,-168.5 632.5,-168.5"/>
<text text-anchor="middle" x="675" y="-175.5" font-family="Helvetica,sans-Serif" font-size="10.00">FLMsampler.h</text>
</a>
</g>
</g>
<!-- Node17&#45;&gt;Node18 -->
<g id="edge32" class="edge">
<title>Node17&#45;&gt;Node18</title>
<path fill="none" stroke="midnightblue" d="M619.06,-326.39C632.65,-290.59 661.97,-213.34 671.75,-187.57"/>
<polygon fill="midnightblue" stroke="midnightblue" points="615.66,-325.48 615.39,-336.08 622.21,-327.97 615.66,-325.48"/>
</g>
<!-- Node18&#45;&gt;Node8 -->
<g id="edge33" class="edge">
<title>Node18&#45;&gt;Node8</title>
<path fill="none" stroke="midnightblue" d="M678.77,-158.53C683.02,-131.87 686.18,-82.83 659,-56 636.01,-33.31 427.69,-19.03 330.5,-13.55"/>
<polygon fill="midnightblue" stroke="midnightblue" points="675.31,-158 676.96,-168.47 682.19,-159.25 675.31,-158"/>
</g>
<!-- Node19&#45;&gt;Node15 -->
<g id="edge35" class="edge">
<title>Node19&#45;&gt;Node15</title>
<path fill="none" stroke="midnightblue" d="M448.03,-440.43C456.62,-430.97 467.04,-419.48 474.06,-411.75"/>
<polygon fill="midnightblue" stroke="midnightblue" points="445.22,-438.33 441.09,-448.08 450.4,-443.03 445.22,-438.33"/>
</g>
<!-- Node20&#45;&gt;Node15 -->
<g id="edge37" class="edge">
<title>Node20&#45;&gt;Node15</title>
<path fill="none" stroke="midnightblue" d="M539.23,-442.62C524.98,-432.76 506.54,-419.99 494.5,-411.65"/>
<polygon fill="midnightblue" stroke="midnightblue" points="537.25,-445.51 547.47,-448.32 541.24,-439.75 537.25,-445.51"/>
</g>
</g>
</svg>
        <g id="navigator" transform="translate(0 0)" fill="#404254">
                <rect fill="#f2f5e9" fill-opacity="0.5" stroke="#606060" stroke-width=".5" x="0" y="0" width="60" height="60"/>
                <use id="zoomplus" xlink:href="#zoomPlus" x="17" y="9" onmousedown="handleZoom(evt,'in')"/>
                <use id="zoomminus" xlink:href="#zoomMin" x="42" y="9" onmousedown="handleZoom(evt,'out')"/>
                <use id="reset" xlink:href="#resetDef" x="30" y="36" onmousedown="handleReset()"/>
                <g id="arrowUp" xlink:href="#dirArrow" transform="translate(30 24)" onmousedown="handlePan(0,-1)">
                  <use xlink:href="#rim" fill="#404040">
                        <set attributeName="fill" to="#808080" begin="arrowUp.mouseover" end="arrowUp.mouseout"/>
                  </use>
                  <path fill="none" stroke="white" stroke-width="1.5" d="M0,-3.0v7 M-2.5,-0.5L0,-3.0L2.5,-0.5"/>
                </g>
                <g id="arrowRight" xlink:href="#dirArrow" transform="rotate(90) translate(36 -43)" onmousedown="handlePan(1,0)">
                  <use xlink:href="#rim" fill="#404040">
                        <set attributeName="fill" to="#808080" begin="arrowRight.mouseover" end="arrowRight.mouseout"/>
                  </use>
                  <path fill="none" stroke="white" stroke-width="1.5" d="M0,-3.0v7 M-2.5,-0.5L0,-3.0L2.5,-0.5"/>
                </g>
                <g id="arrowDown" xlink:href="#dirArrow" transform="rotate(180) translate(-30 -48)" onmousedown="handlePan(0,1)">
                  <use xlink:href="#rim" fill="#404040">
                        <set attributeName="fill" to="#808080" begin="arrowDown.mouseover" end="arrowDown.mouseout"/>
                  </use>
                  <path fill="none" stroke="white" stroke-width="1.5" d="M0,-3.0v7 M-2.5,-0.5L0,-3.0L2.5,-0.5"/>
                </g>
                <g id="arrowLeft" xlink:href="#dirArrow" transform="rotate(270) translate(-36 17)" onmousedown="handlePan(-1,0)">
                  <use xlink:href="#rim" fill="#404040">
                        <set attributeName="fill" to="#808080" begin="arrowLeft.mouseover" end="arrowLeft.mouseout"/>
                  </use>
                  <path fill="none" stroke="white" stroke-width="1.5" d="M0,-3.0v7 M-2.5,-0.5L0,-3.0L2.5,-0.5"/>
                </g>
        </g>
        <svg viewBox="0 0 15 15" width="100%" height="30px" preserveAspectRatio="xMaxYMin meet">
         <g id="arrow_out" transform="scale(0.3 0.3)">
          <a xlink:href="BlockGraphCRTP_8h__dep__incl_org.svg" target="_base">
           <rect id="button" ry="5" rx="5" y="6" x="6" height="38" width="38"
                fill="#f2f5e9" fill-opacity="0.5" stroke="#606060" stroke-width="1.0"/>
           <path id="arrow"
             d="M 11.500037,31.436501 C 11.940474,20.09759 22.043105,11.32322 32.158766,21.979434 L 37.068811,17.246167 C 37.068811,17.246167 37.088388,32 37.088388,32 L 22.160133,31.978069 C 22.160133,31.978069 26.997745,27.140456 26.997745,27.140456 C 18.528582,18.264221 13.291696,25.230495 11.500037,31.436501 z"
             style="fill:#404040;"/>
          </a>
         </g>
        </svg>
</svg>
