<?xml version="1.0" encoding="UTF-8" standalone="no"?>
<!DOCTYPE svg PUBLIC "-//W3C//DTD SVG 1.1//EN"
 "http://www.w3.org/Graphics/SVG/1.1/DTD/svg11.dtd">
<!-- Generated by graphviz version 2.43.0 (0)
 -->
<!-- Title: pBar Pages: 1 -->
<svg width="123pt" height="226pt"
 viewBox="0.00 0.00 122.50 226.00" xmlns="http://www.w3.org/2000/svg" xmlns:xlink="http://www.w3.org/1999/xlink">
<g id="graph0" class="graph" transform="scale(1 1) rotate(0) translate(4 222)">
<title>pBar</title>
<polygon fill="white" stroke="transparent" points="-4,4 -4,-222 118.5,-222 118.5,4 -4,4"/>
<!-- Node1 -->
<g id="node1" class="node">
<title>Node1</title>
<g id="a_node1"><a xlink:title=" ">
<polygon fill="#bfbfbf" stroke="black" points="0,-0.5 0,-79.5 69,-79.5 69,-0.5 0,-0.5"/>
<text text-anchor="middle" x="34.5" y="-67.5" font-family="Helvetica,sans-Serif" font-size="10.00">pBar</text>
<polyline fill="none" stroke="black" points="0,-60.5 69,-60.5 "/>
<text text-anchor="middle" x="34.5" y="-48.5" font-family="Helvetica,sans-Serif" font-size="10.00"> </text>
<polyline fill="none" stroke="black" points="0,-41.5 69,-41.5 "/>
<text text-anchor="start" x="8" y="-29.5" font-family="Helvetica,sans-Serif" font-size="10.00">+ pBar()</text>
<text text-anchor="start" x="8" y="-18.5" font-family="Helvetica,sans-Serif" font-size="10.00">+ update()</text>
<text text-anchor="start" x="8" y="-7.5" font-family="Helvetica,sans-Serif" font-size="10.00">+ print()</text>
</a>
</g>
</g>
<!-- Node2 -->
<g id="node2" class="node">
<title>Node2</title>
<g id="a_node2"><a xlink:title=" ">
<polygon fill="white" stroke="#bfbfbf" points="12.5,-160.5 12.5,-217.5 56.5,-217.5 56.5,-160.5 12.5,-160.5"/>
<text text-anchor="middle" x="34.5" y="-205.5" font-family="Helvetica,sans-Serif" font-size="10.00">string</text>
<polyline fill="none" stroke="#bfbfbf" points="12.5,-198.5 56.5,-198.5 "/>
<text text-anchor="middle" x="34.5" y="-186.5" font-family="Helvetica,sans-Serif" font-size="10.00"> </text>
<polyline fill="none" stroke="#bfbfbf" points="12.5,-179.5 56.5,-179.5 "/>
<text text-anchor="middle" x="34.5" y="-167.5" font-family="Helvetica,sans-Serif" font-size="10.00"> </text>
</a>
</g>
</g>
<!-- Node2&#45;&gt;Node1 -->
<g id="edge1" class="edge">
<title>Node2&#45;&gt;Node1</title>
<path fill="none" stroke="#404040" d="M34.5,-160.35C34.5,-141.03 34.5,-114.68 34.5,-91.65"/>
<polygon fill="none" stroke="#404040" points="34.5,-91.62 30.5,-85.62 34.5,-79.62 38.5,-85.62 34.5,-91.62"/>
<text text-anchor="middle" x="74.5" y="-134" font-family="Helvetica,sans-Serif" font-size="10.00"> +pBarUpdater</text>
<text text-anchor="middle" x="74.5" y="-123" font-family="Helvetica,sans-Serif" font-size="10.00">+firstPartOfpBar</text>
<text text-anchor="middle" x="74.5" y="-112" font-family="Helvetica,sans-Serif" font-size="10.00">+pBarFiller</text>
<text text-anchor="middle" x="74.5" y="-101" font-family="Helvetica,sans-Serif" font-size="10.00">+lastPartOfpBar</text>
</g>
</g>
</svg>
