<?xml version="1.0" encoding="UTF-8" standalone="no"?>
<!DOCTYPE svg PUBLIC "-//W3C//DTD SVG 1.1//EN"
 "http://www.w3.org/Graphics/SVG/1.1/DTD/svg11.dtd">
<!-- Generated by graphviz version 2.43.0 (0)
 -->
<!-- Title: Groups Pages: 1 -->
<svg width="234pt" height="336pt"
 viewBox="0.00 0.00 234.00 336.00" xmlns="http://www.w3.org/2000/svg" xmlns:xlink="http://www.w3.org/1999/xlink">
<g id="graph0" class="graph" transform="scale(1 1) rotate(0) translate(4 332)">
<title>Groups</title>
<polygon fill="white" stroke="transparent" points="-4,4 -4,-332 230,-332 230,4 -4,4"/>
<!-- Node1 -->
<g id="node1" class="node">
<title>Node1</title>
<g id="a_node1"><a xlink:title=" ">
<polygon fill="#bfbfbf" stroke="black" points="37.5,-0.5 37.5,-222.5 161.5,-222.5 161.5,-0.5 37.5,-0.5"/>
<text text-anchor="middle" x="99.5" y="-210.5" font-family="Helvetica,sans-Serif" font-size="10.00">Groups</text>
<polyline fill="none" stroke="black" points="37.5,-203.5 161.5,-203.5 "/>
<text text-anchor="start" x="45.5" y="-191.5" font-family="Helvetica,sans-Serif" font-size="10.00">+ map_of_indeces</text>
<polyline fill="none" stroke="black" points="37.5,-184.5 161.5,-184.5 "/>
<text text-anchor="start" x="45.5" y="-172.5" font-family="Helvetica,sans-Serif" font-size="10.00">+ Groups()</text>
<text text-anchor="start" x="45.5" y="-161.5" font-family="Helvetica,sans-Serif" font-size="10.00">+ Groups()</text>
<text text-anchor="start" x="45.5" y="-150.5" font-family="Helvetica,sans-Serif" font-size="10.00">+ Groups()</text>
<text text-anchor="start" x="45.5" y="-139.5" font-family="Helvetica,sans-Serif" font-size="10.00">+ Groups()</text>
<text text-anchor="start" x="45.5" y="-128.5" font-family="Helvetica,sans-Serif" font-size="10.00">+ Groups()</text>
<text text-anchor="start" x="45.5" y="-117.5" font-family="Helvetica,sans-Serif" font-size="10.00">+ get_n_groups()</text>
<text text-anchor="start" x="45.5" y="-106.5" font-family="Helvetica,sans-Serif" font-size="10.00">+ get_n_singleton()</text>
<text text-anchor="start" x="45.5" y="-95.5" font-family="Helvetica,sans-Serif" font-size="10.00">+ get_n_elements()</text>
<text text-anchor="start" x="45.5" y="-84.5" font-family="Helvetica,sans-Serif" font-size="10.00">+ get_group_size()</text>
<text text-anchor="start" x="45.5" y="-73.5" font-family="Helvetica,sans-Serif" font-size="10.00">+ get_pos_singleton()</text>
<text text-anchor="start" x="45.5" y="-62.5" font-family="Helvetica,sans-Serif" font-size="10.00">+ get_group()</text>
<text text-anchor="start" x="45.5" y="-51.5" font-family="Helvetica,sans-Serif" font-size="10.00">+ get_possible_block</text>
<text text-anchor="start" x="45.5" y="-40.5" font-family="Helvetica,sans-Serif" font-size="10.00">_links()</text>
<text text-anchor="start" x="45.5" y="-29.5" font-family="Helvetica,sans-Serif" font-size="10.00">+ find()</text>
<text text-anchor="start" x="45.5" y="-18.5" font-family="Helvetica,sans-Serif" font-size="10.00">+ find_and_get()</text>
<text text-anchor="start" x="45.5" y="-7.5" font-family="Helvetica,sans-Serif" font-size="10.00">+ createMapIdx()</text>
</a>
</g>
</g>
<!-- Node2 -->
<g id="node2" class="node">
<title>Node2</title>
<g id="a_node2"><a xlink:href="structGroupsTraits.html" target="_top" xlink:title=" ">
<polygon fill="white" stroke="black" points="0,-265 0,-322 77,-322 77,-265 0,-265"/>
<text text-anchor="middle" x="38.5" y="-310" font-family="Helvetica,sans-Serif" font-size="10.00">GroupsTraits</text>
<polyline fill="none" stroke="black" points="0,-303 77,-303 "/>
<text text-anchor="middle" x="38.5" y="-291" font-family="Helvetica,sans-Serif" font-size="10.00"> </text>
<polyline fill="none" stroke="black" points="0,-284 77,-284 "/>
<text text-anchor="middle" x="38.5" y="-272" font-family="Helvetica,sans-Serif" font-size="10.00"> </text>
</a>
</g>
</g>
<!-- Node2&#45;&gt;Node1 -->
<g id="edge1" class="edge">
<title>Node2&#45;&gt;Node1</title>
<path fill="none" stroke="midnightblue" d="M51.18,-255.09C54.49,-245.32 58.23,-234.29 62.13,-222.79"/>
<polygon fill="none" stroke="midnightblue" points="47.79,-254.18 47.9,-264.77 54.42,-256.42 47.79,-254.18"/>
</g>
<!-- Node3 -->
<g id="node3" class="node">
<title>Node3</title>
<g id="a_node3"><a xlink:title=" ">
<polygon fill="white" stroke="#bfbfbf" points="95,-259.5 95,-327.5 226,-327.5 226,-259.5 95,-259.5"/>
<text text-anchor="start" x="103" y="-315.5" font-family="Helvetica,sans-Serif" font-size="10.00">std::vector&lt; std::vector</text>
<text text-anchor="middle" x="160.5" y="-304.5" font-family="Helvetica,sans-Serif" font-size="10.00">&lt; unsigned int &gt; &gt;</text>
<polyline fill="none" stroke="#bfbfbf" points="95,-297.5 226,-297.5 "/>
<text text-anchor="middle" x="160.5" y="-285.5" font-family="Helvetica,sans-Serif" font-size="10.00"> </text>
<polyline fill="none" stroke="#bfbfbf" points="95,-278.5 226,-278.5 "/>
<text text-anchor="middle" x="160.5" y="-266.5" font-family="Helvetica,sans-Serif" font-size="10.00"> </text>
</a>
</g>
</g>
<!-- Node3&#45;&gt;Node1 -->
<g id="edge2" class="edge">
<title>Node3&#45;&gt;Node1</title>
<path fill="none" stroke="#8b1a1a" d="M146.06,-249.9C143.19,-241.41 140.04,-232.13 136.79,-222.52"/>
<polygon fill="none" stroke="#8b1a1a" points="142.79,-251.14 149.31,-259.49 149.42,-248.89 142.79,-251.14"/>
</g>
</g>
</svg>
