<?xml version="1.0" encoding="UTF-8" standalone="no"?>
<!DOCTYPE svg PUBLIC "-//W3C//DTD SVG 1.1//EN"
 "http://www.w3.org/Graphics/SVG/1.1/DTD/svg11.dtd">
<!-- Generated by graphviz version 2.43.0 (0)
 -->
<!-- Title: BlockGraphDyn&lt; T &gt; Pages: 1 -->
<svg width="404pt" height="822pt"
 viewBox="0.00 0.00 404.00 822.00" xmlns="http://www.w3.org/2000/svg" xmlns:xlink="http://www.w3.org/1999/xlink">
<g id="graph0" class="graph" transform="scale(1 1) rotate(0) translate(4 818)">
<title>BlockGraphDyn&lt; T &gt;</title>
<polygon fill="white" stroke="transparent" points="-4,4 -4,-818 400,-818 400,4 -4,4"/>
<!-- Node1 -->
<g id="node1" class="node">
<title>Node1</title>
<g id="a_node1"><a xlink:title=" ">
<polygon fill="#bfbfbf" stroke="black" points="153,-0.5 153,-167.5 278,-167.5 278,-0.5 153,-0.5"/>
<text text-anchor="middle" x="215.5" y="-155.5" font-family="Helvetica,sans-Serif" font-size="10.00">BlockGraphDyn&lt; T &gt;</text>
<polyline fill="none" stroke="black" points="153,-148.5 278,-148.5 "/>
<text text-anchor="middle" x="215.5" y="-136.5" font-family="Helvetica,sans-Serif" font-size="10.00"> </text>
<polyline fill="none" stroke="black" points="153,-129.5 278,-129.5 "/>
<text text-anchor="start" x="161" y="-117.5" font-family="Helvetica,sans-Serif" font-size="10.00">+ BlockGraphDyn()</text>
<text text-anchor="start" x="161" y="-106.5" font-family="Helvetica,sans-Serif" font-size="10.00">+ BlockGraphDyn()</text>
<text text-anchor="start" x="161" y="-95.5" font-family="Helvetica,sans-Serif" font-size="10.00">+ BlockGraphDyn()</text>
<text text-anchor="start" x="161" y="-84.5" font-family="Helvetica,sans-Serif" font-size="10.00">+ BlockGraphDyn()</text>
<text text-anchor="start" x="161" y="-73.5" font-family="Helvetica,sans-Serif" font-size="10.00">+ get_graph()</text>
<text text-anchor="start" x="161" y="-62.5" font-family="Helvetica,sans-Serif" font-size="10.00">+ get_adj_list()</text>
<text text-anchor="start" x="161" y="-51.5" font-family="Helvetica,sans-Serif" font-size="10.00">+ get_neighbours()</text>
<text text-anchor="start" x="161" y="-40.5" font-family="Helvetica,sans-Serif" font-size="10.00">+ get_n_links()</text>
<text text-anchor="start" x="161" y="-29.5" font-family="Helvetica,sans-Serif" font-size="10.00">+ get_n_block_links()</text>
<text text-anchor="start" x="161" y="-18.5" font-family="Helvetica,sans-Serif" font-size="10.00">+ get_possible_links()</text>
<text text-anchor="start" x="161" y="-7.5" font-family="Helvetica,sans-Serif" font-size="10.00">and 12 more...</text>
</a>
</g>
</g>
<!-- Node2 -->
<g id="node2" class="node">
<title>Node2</title>
<g id="a_node2"><a xlink:href="classBlockGraphBase.html" target="_top" xlink:title=" ">
<polygon fill="white" stroke="black" points="130.5,-205.5 130.5,-416.5 300.5,-416.5 300.5,-205.5 130.5,-205.5"/>
<text text-anchor="start" x="138.5" y="-404.5" font-family="Helvetica,sans-Serif" font-size="10.00">BlockGraphBase&lt; unsigned</text>
<text text-anchor="middle" x="215.5" y="-393.5" font-family="Helvetica,sans-Serif" font-size="10.00"> int &gt;</text>
<polyline fill="none" stroke="black" points="130.5,-386.5 300.5,-386.5 "/>
<text text-anchor="middle" x="215.5" y="-374.5" font-family="Helvetica,sans-Serif" font-size="10.00"> </text>
<polyline fill="none" stroke="black" points="130.5,-367.5 300.5,-367.5 "/>
<text text-anchor="start" x="138.5" y="-355.5" font-family="Helvetica,sans-Serif" font-size="10.00">+ BlockGraphBase()</text>
<text text-anchor="start" x="138.5" y="-344.5" font-family="Helvetica,sans-Serif" font-size="10.00">+ get_groups()</text>
<text text-anchor="start" x="138.5" y="-333.5" font-family="Helvetica,sans-Serif" font-size="10.00">+ get_ptr_groups()</text>
<text text-anchor="start" x="138.5" y="-322.5" font-family="Helvetica,sans-Serif" font-size="10.00">+ get_size()</text>
<text text-anchor="start" x="138.5" y="-311.5" font-family="Helvetica,sans-Serif" font-size="10.00">+ get_number_singleton()</text>
<text text-anchor="start" x="138.5" y="-300.5" font-family="Helvetica,sans-Serif" font-size="10.00">+ get_pos_singleton()</text>
<text text-anchor="start" x="138.5" y="-289.5" font-family="Helvetica,sans-Serif" font-size="10.00">+ get_row_with_singleton()</text>
<text text-anchor="start" x="138.5" y="-278.5" font-family="Helvetica,sans-Serif" font-size="10.00">+ get_complete_size()</text>
<text text-anchor="start" x="138.5" y="-267.5" font-family="Helvetica,sans-Serif" font-size="10.00">+ get_group_size()</text>
<text text-anchor="start" x="138.5" y="-256.5" font-family="Helvetica,sans-Serif" font-size="10.00">+ get_n_links()</text>
<text text-anchor="start" x="138.5" y="-245.5" font-family="Helvetica,sans-Serif" font-size="10.00">and 16 more...</text>
<text text-anchor="start" x="138.5" y="-234.5" font-family="Helvetica,sans-Serif" font-size="10.00"># find_neighbours()</text>
<text text-anchor="start" x="138.5" y="-223.5" font-family="Helvetica,sans-Serif" font-size="10.00"># compute_nlinks_nblocks()</text>
<text text-anchor="start" x="138.5" y="-212.5" font-family="Helvetica,sans-Serif" font-size="10.00"># compute_diagonal_position()</text>
</a>
</g>
</g>
<!-- Node2&#45;&gt;Node1 -->
<g id="edge1" class="edge">
<title>Node2&#45;&gt;Node1</title>
<path fill="none" stroke="midnightblue" d="M215.5,-195.33C215.5,-186.04 215.5,-176.77 215.5,-167.77"/>
<polygon fill="none" stroke="midnightblue" points="212,-195.4 215.5,-205.4 219,-195.4 212,-195.4"/>
</g>
<!-- Node3 -->
<g id="node3" class="node">
<title>Node3</title>
<g id="a_node3"><a xlink:title=" ">
<polygon fill="white" stroke="#bfbfbf" points="0,-756.5 0,-813.5 155,-813.5 155,-756.5 0,-756.5"/>
<text text-anchor="middle" x="77.5" y="-801.5" font-family="Helvetica,sans-Serif" font-size="10.00">shared_ptr&lt; const Groups &gt;</text>
<polyline fill="none" stroke="#bfbfbf" points="0,-794.5 155,-794.5 "/>
<text text-anchor="middle" x="77.5" y="-782.5" font-family="Helvetica,sans-Serif" font-size="10.00"> </text>
<polyline fill="none" stroke="#bfbfbf" points="0,-775.5 155,-775.5 "/>
<text text-anchor="middle" x="77.5" y="-763.5" font-family="Helvetica,sans-Serif" font-size="10.00"> </text>
</a>
</g>
</g>
<!-- Node3&#45;&gt;Node2 -->
<g id="edge2" class="edge">
<title>Node3&#45;&gt;Node2</title>
<path fill="none" stroke="#404040" d="M68.04,-756.12C51.27,-701.95 21.35,-579.59 57.5,-486 71.23,-450.45 95.97,-417.68 121.86,-390.4"/>
<polygon fill="none" stroke="#404040" points="121.93,-390.33 123.24,-383.24 130.3,-381.73 128.98,-388.82 121.93,-390.33"/>
<text text-anchor="middle" x="89.5" y="-584" font-family="Helvetica,sans-Serif" font-size="10.00"> #ptr_groups</text>
</g>
<!-- Node5 -->
<g id="node5" class="node">
<title>Node5</title>
<g id="a_node5"><a xlink:href="classBlockGraphBase.html" target="_top" xlink:title=" ">
<polygon fill="white" stroke="black" points="130.5,-486.5 130.5,-686.5 300.5,-686.5 300.5,-486.5 130.5,-486.5"/>
<text text-anchor="middle" x="215.5" y="-674.5" font-family="Helvetica,sans-Serif" font-size="10.00">BlockGraphBase&lt; T &gt;</text>
<polyline fill="none" stroke="black" points="130.5,-667.5 300.5,-667.5 "/>
<text text-anchor="middle" x="215.5" y="-655.5" font-family="Helvetica,sans-Serif" font-size="10.00"> </text>
<polyline fill="none" stroke="black" points="130.5,-648.5 300.5,-648.5 "/>
<text text-anchor="start" x="138.5" y="-636.5" font-family="Helvetica,sans-Serif" font-size="10.00">+ BlockGraphBase()</text>
<text text-anchor="start" x="138.5" y="-625.5" font-family="Helvetica,sans-Serif" font-size="10.00">+ get_groups()</text>
<text text-anchor="start" x="138.5" y="-614.5" font-family="Helvetica,sans-Serif" font-size="10.00">+ get_ptr_groups()</text>
<text text-anchor="start" x="138.5" y="-603.5" font-family="Helvetica,sans-Serif" font-size="10.00">+ get_size()</text>
<text text-anchor="start" x="138.5" y="-592.5" font-family="Helvetica,sans-Serif" font-size="10.00">+ get_number_singleton()</text>
<text text-anchor="start" x="138.5" y="-581.5" font-family="Helvetica,sans-Serif" font-size="10.00">+ get_pos_singleton()</text>
<text text-anchor="start" x="138.5" y="-570.5" font-family="Helvetica,sans-Serif" font-size="10.00">+ get_row_with_singleton()</text>
<text text-anchor="start" x="138.5" y="-559.5" font-family="Helvetica,sans-Serif" font-size="10.00">+ get_complete_size()</text>
<text text-anchor="start" x="138.5" y="-548.5" font-family="Helvetica,sans-Serif" font-size="10.00">+ get_group_size()</text>
<text text-anchor="start" x="138.5" y="-537.5" font-family="Helvetica,sans-Serif" font-size="10.00">+ get_n_links()</text>
<text text-anchor="start" x="138.5" y="-526.5" font-family="Helvetica,sans-Serif" font-size="10.00">and 16 more...</text>
<text text-anchor="start" x="138.5" y="-515.5" font-family="Helvetica,sans-Serif" font-size="10.00"># find_neighbours()</text>
<text text-anchor="start" x="138.5" y="-504.5" font-family="Helvetica,sans-Serif" font-size="10.00"># compute_nlinks_nblocks()</text>
<text text-anchor="start" x="138.5" y="-493.5" font-family="Helvetica,sans-Serif" font-size="10.00"># compute_diagonal_position()</text>
</a>
</g>
</g>
<!-- Node3&#45;&gt;Node5 -->
<g id="edge5" class="edge">
<title>Node3&#45;&gt;Node5</title>
<path fill="none" stroke="#404040" d="M96.98,-756.26C108.31,-740.14 123.39,-718.65 139,-696.43"/>
<polygon fill="none" stroke="#404040" points="139.05,-696.35 139.23,-689.14 145.95,-686.53 145.78,-693.74 139.05,-696.35"/>
<text text-anchor="middle" x="162.5" y="-719" font-family="Helvetica,sans-Serif" font-size="10.00"> #ptr_groups</text>
</g>
<!-- Node4 -->
<g id="node4" class="node">
<title>Node4</title>
<g id="a_node4"><a xlink:href="classunsigned_01int.html" target="_top" xlink:title=" ">
<polygon fill="white" stroke="black" points="319,-558 319,-615 396,-615 396,-558 319,-558"/>
<text text-anchor="middle" x="357.5" y="-603" font-family="Helvetica,sans-Serif" font-size="10.00">unsigned int</text>
<polyline fill="none" stroke="black" points="319,-596 396,-596 "/>
<text text-anchor="middle" x="357.5" y="-584" font-family="Helvetica,sans-Serif" font-size="10.00"> </text>
<polyline fill="none" stroke="black" points="319,-577 396,-577 "/>
<text text-anchor="middle" x="357.5" y="-565" font-family="Helvetica,sans-Serif" font-size="10.00"> </text>
</a>
</g>
</g>
<!-- Node4&#45;&gt;Node2 -->
<g id="edge3" class="edge">
<title>Node4&#45;&gt;Node2</title>
<path fill="none" stroke="#404040" d="M350.63,-557.85C342.33,-526.87 326.78,-475.66 305.5,-435 304.15,-432.43 302.76,-429.85 301.32,-427.27"/>
<polygon fill="none" stroke="#404040" points="301.2,-427.07 294.73,-423.89 295.18,-416.69 301.65,-419.87 301.2,-427.07"/>
<text text-anchor="middle" x="352" y="-460" font-family="Helvetica,sans-Serif" font-size="10.00"> #n_links</text>
<text text-anchor="middle" x="352" y="-449" font-family="Helvetica,sans-Serif" font-size="10.00">#n_singleton</text>
<text text-anchor="middle" x="352" y="-438" font-family="Helvetica,sans-Serif" font-size="10.00">#n_blocks</text>
</g>
<!-- Node5&#45;&gt;Node2 -->
<g id="edge4" class="edge">
<title>Node5&#45;&gt;Node2</title>
<path fill="none" stroke="orange" d="M215.5,-476.21C215.5,-456.62 215.5,-436.24 215.5,-416.78"/>
<polygon fill="orange" stroke="orange" points="212,-476.37 215.5,-486.37 219,-476.37 212,-476.37"/>
<text text-anchor="middle" x="258.5" y="-449" font-family="Helvetica,sans-Serif" font-size="10.00"> &lt; unsigned int &gt;</text>
</g>
<!-- Node6 -->
<g id="node6" class="node">
<title>Node6</title>
<g id="a_node6"><a xlink:title=" ">
<polygon fill="white" stroke="#bfbfbf" points="201,-756.5 201,-813.5 230,-813.5 230,-756.5 201,-756.5"/>
<text text-anchor="middle" x="215.5" y="-801.5" font-family="Helvetica,sans-Serif" font-size="10.00">int</text>
<polyline fill="none" stroke="#bfbfbf" points="201,-794.5 230,-794.5 "/>
<text text-anchor="middle" x="215.5" y="-782.5" font-family="Helvetica,sans-Serif" font-size="10.00"> </text>
<polyline fill="none" stroke="#bfbfbf" points="201,-775.5 230,-775.5 "/>
<text text-anchor="middle" x="215.5" y="-763.5" font-family="Helvetica,sans-Serif" font-size="10.00"> </text>
</a>
</g>
</g>
<!-- Node6&#45;&gt;Node5 -->
<g id="edge6" class="edge">
<title>Node6&#45;&gt;Node5</title>
<path fill="none" stroke="#404040" d="M215.5,-756.26C215.5,-740.71 215.5,-720.19 215.5,-698.82"/>
<polygon fill="none" stroke="#404040" points="215.5,-698.53 211.5,-692.53 215.5,-686.53 219.5,-692.53 215.5,-698.53"/>
<text text-anchor="middle" x="248" y="-730" font-family="Helvetica,sans-Serif" font-size="10.00"> #n_links</text>
<text text-anchor="middle" x="248" y="-719" font-family="Helvetica,sans-Serif" font-size="10.00">#n_singleton</text>
<text text-anchor="middle" x="248" y="-708" font-family="Helvetica,sans-Serif" font-size="10.00">#n_blocks</text>
</g>
</g>
</svg>
