<?xml version="1.0" encoding="UTF-8" standalone="no"?>
<!DOCTYPE svg PUBLIC "-//W3C//DTD SVG 1.1//EN"
 "http://www.w3.org/Graphics/SVG/1.1/DTD/svg11.dtd">
<!-- Generated by graphviz version 2.43.0 (0)
 -->
<!-- Title: GraphType&lt; T &gt; Pages: 1 -->
<svg width="169pt" height="613pt"
 viewBox="0.00 0.00 169.00 613.00" xmlns="http://www.w3.org/2000/svg" xmlns:xlink="http://www.w3.org/1999/xlink">
<g id="graph0" class="graph" transform="scale(1 1) rotate(0) translate(4 609)">
<title>GraphType&lt; T &gt;</title>
<polygon fill="white" stroke="transparent" points="-4,4 -4,-609 165,-609 165,4 -4,4"/>
<!-- Node1 -->
<g id="node1" class="node">
<title>Node1</title>
<g id="a_node1"><a xlink:title=" ">
<polygon fill="#bfbfbf" stroke="black" points="11.5,-226.5 11.5,-393.5 138.5,-393.5 138.5,-226.5 11.5,-226.5"/>
<text text-anchor="middle" x="75" y="-381.5" font-family="Helvetica,sans-Serif" font-size="10.00">GraphType&lt; T &gt;</text>
<polyline fill="none" stroke="black" points="11.5,-374.5 138.5,-374.5 "/>
<text text-anchor="middle" x="75" y="-362.5" font-family="Helvetica,sans-Serif" font-size="10.00"> </text>
<polyline fill="none" stroke="black" points="11.5,-355.5 138.5,-355.5 "/>
<text text-anchor="start" x="19.5" y="-343.5" font-family="Helvetica,sans-Serif" font-size="10.00">+ GraphType()</text>
<text text-anchor="start" x="19.5" y="-332.5" font-family="Helvetica,sans-Serif" font-size="10.00">+ GraphType()</text>
<text text-anchor="start" x="19.5" y="-321.5" font-family="Helvetica,sans-Serif" font-size="10.00">+ GraphType()</text>
<text text-anchor="start" x="19.5" y="-310.5" font-family="Helvetica,sans-Serif" font-size="10.00">+ GraphType()</text>
<text text-anchor="start" x="19.5" y="-299.5" font-family="Helvetica,sans-Serif" font-size="10.00">+ get_graph()</text>
<text text-anchor="start" x="19.5" y="-288.5" font-family="Helvetica,sans-Serif" font-size="10.00">+ get_adj_list()</text>
<text text-anchor="start" x="19.5" y="-277.5" font-family="Helvetica,sans-Serif" font-size="10.00">+ get_size()</text>
<text text-anchor="start" x="19.5" y="-266.5" font-family="Helvetica,sans-Serif" font-size="10.00">+ get_complete_size()</text>
<text text-anchor="start" x="19.5" y="-255.5" font-family="Helvetica,sans-Serif" font-size="10.00">+ get_nbd()</text>
<text text-anchor="start" x="19.5" y="-244.5" font-family="Helvetica,sans-Serif" font-size="10.00">+ get_nbd()</text>
<text text-anchor="start" x="19.5" y="-233.5" font-family="Helvetica,sans-Serif" font-size="10.00">and 13 more...</text>
</a>
</g>
</g>
<!-- Node4 -->
<g id="node4" class="node">
<title>Node4</title>
<g id="a_node4"><a xlink:href="classGraphType.html" target="_top" xlink:title=" ">
<polygon fill="white" stroke="black" points="11.5,-0.5 11.5,-178.5 138.5,-178.5 138.5,-0.5 11.5,-0.5"/>
<text text-anchor="start" x="19.5" y="-166.5" font-family="Helvetica,sans-Serif" font-size="10.00">GraphType&lt; unsigned</text>
<text text-anchor="middle" x="75" y="-155.5" font-family="Helvetica,sans-Serif" font-size="10.00"> int &gt;</text>
<polyline fill="none" stroke="black" points="11.5,-148.5 138.5,-148.5 "/>
<text text-anchor="middle" x="75" y="-136.5" font-family="Helvetica,sans-Serif" font-size="10.00"> </text>
<polyline fill="none" stroke="black" points="11.5,-129.5 138.5,-129.5 "/>
<text text-anchor="start" x="19.5" y="-117.5" font-family="Helvetica,sans-Serif" font-size="10.00">+ GraphType()</text>
<text text-anchor="start" x="19.5" y="-106.5" font-family="Helvetica,sans-Serif" font-size="10.00">+ GraphType()</text>
<text text-anchor="start" x="19.5" y="-95.5" font-family="Helvetica,sans-Serif" font-size="10.00">+ GraphType()</text>
<text text-anchor="start" x="19.5" y="-84.5" font-family="Helvetica,sans-Serif" font-size="10.00">+ GraphType()</text>
<text text-anchor="start" x="19.5" y="-73.5" font-family="Helvetica,sans-Serif" font-size="10.00">+ get_graph()</text>
<text text-anchor="start" x="19.5" y="-62.5" font-family="Helvetica,sans-Serif" font-size="10.00">+ get_adj_list()</text>
<text text-anchor="start" x="19.5" y="-51.5" font-family="Helvetica,sans-Serif" font-size="10.00">+ get_size()</text>
<text text-anchor="start" x="19.5" y="-40.5" font-family="Helvetica,sans-Serif" font-size="10.00">+ get_complete_size()</text>
<text text-anchor="start" x="19.5" y="-29.5" font-family="Helvetica,sans-Serif" font-size="10.00">+ get_nbd()</text>
<text text-anchor="start" x="19.5" y="-18.5" font-family="Helvetica,sans-Serif" font-size="10.00">+ get_nbd()</text>
<text text-anchor="start" x="19.5" y="-7.5" font-family="Helvetica,sans-Serif" font-size="10.00">and 13 more...</text>
</a>
</g>
</g>
<!-- Node1&#45;&gt;Node4 -->
<g id="edge3" class="edge">
<title>Node1&#45;&gt;Node4</title>
<path fill="none" stroke="orange" d="M75,-216.07C75,-203.68 75,-191 75,-178.69"/>
<polygon fill="orange" stroke="orange" points="71.5,-216.39 75,-226.39 78.5,-216.39 71.5,-216.39"/>
<text text-anchor="middle" x="118" y="-200" font-family="Helvetica,sans-Serif" font-size="10.00"> &lt; unsigned int &gt;</text>
</g>
<!-- Node2 -->
<g id="node2" class="node">
<title>Node2</title>
<g id="a_node2"><a xlink:href="structGraphTypeTraits.html" target="_top" xlink:title=" ">
<polygon fill="white" stroke="black" points="0,-431.5 0,-499.5 150,-499.5 150,-431.5 0,-431.5"/>
<text text-anchor="start" x="8" y="-487.5" font-family="Helvetica,sans-Serif" font-size="10.00">GraphTypeTraits&lt; unsigned</text>
<text text-anchor="middle" x="75" y="-476.5" font-family="Helvetica,sans-Serif" font-size="10.00"> int &gt;</text>
<polyline fill="none" stroke="black" points="0,-469.5 150,-469.5 "/>
<text text-anchor="middle" x="75" y="-457.5" font-family="Helvetica,sans-Serif" font-size="10.00"> </text>
<polyline fill="none" stroke="black" points="0,-450.5 150,-450.5 "/>
<text text-anchor="middle" x="75" y="-438.5" font-family="Helvetica,sans-Serif" font-size="10.00"> </text>
</a>
</g>
</g>
<!-- Node2&#45;&gt;Node1 -->
<g id="edge1" class="edge">
<title>Node2&#45;&gt;Node1</title>
<path fill="none" stroke="midnightblue" d="M75,-421.06C75,-412.44 75,-403.12 75,-393.68"/>
<polygon fill="none" stroke="midnightblue" points="71.5,-421.19 75,-431.19 78.5,-421.19 71.5,-421.19"/>
</g>
<!-- Node3 -->
<g id="node3" class="node">
<title>Node3</title>
<g id="a_node3"><a xlink:href="structGraphTypeTraits.html" target="_top" xlink:title=" ">
<polygon fill="white" stroke="black" points="13.5,-547.5 13.5,-604.5 136.5,-604.5 136.5,-547.5 13.5,-547.5"/>
<text text-anchor="middle" x="75" y="-592.5" font-family="Helvetica,sans-Serif" font-size="10.00">GraphTypeTraits&lt; T &gt;</text>
<polyline fill="none" stroke="black" points="13.5,-585.5 136.5,-585.5 "/>
<text text-anchor="middle" x="75" y="-573.5" font-family="Helvetica,sans-Serif" font-size="10.00"> </text>
<polyline fill="none" stroke="black" points="13.5,-566.5 136.5,-566.5 "/>
<text text-anchor="middle" x="75" y="-554.5" font-family="Helvetica,sans-Serif" font-size="10.00"> </text>
</a>
</g>
</g>
<!-- Node3&#45;&gt;Node2 -->
<g id="edge2" class="edge">
<title>Node3&#45;&gt;Node2</title>
<path fill="none" stroke="orange" d="M75,-536.99C75,-524.77 75,-511.35 75,-499.52"/>
<polygon fill="orange" stroke="orange" points="71.5,-537.34 75,-547.34 78.5,-537.34 71.5,-537.34"/>
<text text-anchor="middle" x="118" y="-521" font-family="Helvetica,sans-Serif" font-size="10.00"> &lt; unsigned int &gt;</text>
</g>
</g>
</svg>
