<?xml version="1.0" encoding="UTF-8" standalone="no"?>
<!DOCTYPE svg PUBLIC "-//W3C//DTD SVG 1.1//EN"
 "http://www.w3.org/Graphics/SVG/1.1/DTD/svg11.dtd">
<!-- Generated by graphviz version 2.43.0 (0)
 -->
<!-- Title: BlockGraph&lt; T &gt; Pages: 1 -->
<svg width="425pt" height="844pt"
 viewBox="0.00 0.00 424.50 844.00" xmlns="http://www.w3.org/2000/svg" xmlns:xlink="http://www.w3.org/1999/xlink">
<g id="graph0" class="graph" transform="scale(1 1) rotate(0) translate(4 840)">
<title>BlockGraph&lt; T &gt;</title>
<polygon fill="white" stroke="transparent" points="-4,4 -4,-840 420.5,-840 420.5,4 -4,4"/>
<!-- Node1 -->
<g id="node1" class="node">
<title>Node1</title>
<g id="a_node1"><a xlink:title=" ">
<polygon fill="#bfbfbf" stroke="black" points="150.5,-0.5 150.5,-167.5 272.5,-167.5 272.5,-0.5 150.5,-0.5"/>
<text text-anchor="middle" x="211.5" y="-155.5" font-family="Helvetica,sans-Serif" font-size="10.00">BlockGraph&lt; T &gt;</text>
<polyline fill="none" stroke="black" points="150.5,-148.5 272.5,-148.5 "/>
<text text-anchor="middle" x="211.5" y="-136.5" font-family="Helvetica,sans-Serif" font-size="10.00"> </text>
<polyline fill="none" stroke="black" points="150.5,-129.5 272.5,-129.5 "/>
<text text-anchor="start" x="158.5" y="-117.5" font-family="Helvetica,sans-Serif" font-size="10.00">+ BlockGraph()</text>
<text text-anchor="start" x="158.5" y="-106.5" font-family="Helvetica,sans-Serif" font-size="10.00">+ BlockGraph()</text>
<text text-anchor="start" x="158.5" y="-95.5" font-family="Helvetica,sans-Serif" font-size="10.00">+ BlockGraph()</text>
<text text-anchor="start" x="158.5" y="-84.5" font-family="Helvetica,sans-Serif" font-size="10.00">+ BlockGraph()</text>
<text text-anchor="start" x="158.5" y="-73.5" font-family="Helvetica,sans-Serif" font-size="10.00">+ get_graph()</text>
<text text-anchor="start" x="158.5" y="-62.5" font-family="Helvetica,sans-Serif" font-size="10.00">+ get_adj_list()</text>
<text text-anchor="start" x="158.5" y="-51.5" font-family="Helvetica,sans-Serif" font-size="10.00">+ get_neighbours()</text>
<text text-anchor="start" x="158.5" y="-40.5" font-family="Helvetica,sans-Serif" font-size="10.00">+ get_n_links()</text>
<text text-anchor="start" x="158.5" y="-29.5" font-family="Helvetica,sans-Serif" font-size="10.00">+ get_n_block_links()</text>
<text text-anchor="start" x="158.5" y="-18.5" font-family="Helvetica,sans-Serif" font-size="10.00">+ set_graph()</text>
<text text-anchor="start" x="158.5" y="-7.5" font-family="Helvetica,sans-Serif" font-size="10.00">and 9 more...</text>
</a>
</g>
</g>
<!-- Node2 -->
<g id="node2" class="node">
<title>Node2</title>
<g id="a_node2"><a xlink:href="classBlockGraphBaseCRTP.html" target="_top" xlink:title=" ">
<polygon fill="white" stroke="black" points="126.5,-205.5 126.5,-427.5 296.5,-427.5 296.5,-205.5 126.5,-205.5"/>
<text text-anchor="start" x="134.5" y="-415.5" font-family="Helvetica,sans-Serif" font-size="10.00">BlockGraphBaseCRTP</text>
<text text-anchor="start" x="134.5" y="-404.5" font-family="Helvetica,sans-Serif" font-size="10.00">&lt; BlockGraph&lt; unsigned</text>
<text text-anchor="middle" x="211.5" y="-393.5" font-family="Helvetica,sans-Serif" font-size="10.00"> int &gt;, unsigned int &gt;</text>
<polyline fill="none" stroke="black" points="126.5,-386.5 296.5,-386.5 "/>
<text text-anchor="middle" x="211.5" y="-374.5" font-family="Helvetica,sans-Serif" font-size="10.00"> </text>
<polyline fill="none" stroke="black" points="126.5,-367.5 296.5,-367.5 "/>
<text text-anchor="start" x="134.5" y="-355.5" font-family="Helvetica,sans-Serif" font-size="10.00">+ BlockGraphBaseCRTP()</text>
<text text-anchor="start" x="134.5" y="-344.5" font-family="Helvetica,sans-Serif" font-size="10.00">+ get_groups()</text>
<text text-anchor="start" x="134.5" y="-333.5" font-family="Helvetica,sans-Serif" font-size="10.00">+ get_ptr_groups()</text>
<text text-anchor="start" x="134.5" y="-322.5" font-family="Helvetica,sans-Serif" font-size="10.00">+ get_size()</text>
<text text-anchor="start" x="134.5" y="-311.5" font-family="Helvetica,sans-Serif" font-size="10.00">+ get_number_singleton()</text>
<text text-anchor="start" x="134.5" y="-300.5" font-family="Helvetica,sans-Serif" font-size="10.00">+ get_pos_singleton()</text>
<text text-anchor="start" x="134.5" y="-289.5" font-family="Helvetica,sans-Serif" font-size="10.00">+ get_row_with_singleton()</text>
<text text-anchor="start" x="134.5" y="-278.5" font-family="Helvetica,sans-Serif" font-size="10.00">+ get_complete_size()</text>
<text text-anchor="start" x="134.5" y="-267.5" font-family="Helvetica,sans-Serif" font-size="10.00">+ get_group_size()</text>
<text text-anchor="start" x="134.5" y="-256.5" font-family="Helvetica,sans-Serif" font-size="10.00">+ get_n_links()</text>
<text text-anchor="start" x="134.5" y="-245.5" font-family="Helvetica,sans-Serif" font-size="10.00">and 14 more...</text>
<text text-anchor="start" x="134.5" y="-234.5" font-family="Helvetica,sans-Serif" font-size="10.00"># find_neighbours()</text>
<text text-anchor="start" x="134.5" y="-223.5" font-family="Helvetica,sans-Serif" font-size="10.00"># compute_nlinks_nblocks()</text>
<text text-anchor="start" x="134.5" y="-212.5" font-family="Helvetica,sans-Serif" font-size="10.00"># compute_diagonal_position()</text>
</a>
</g>
</g>
<!-- Node2&#45;&gt;Node1 -->
<g id="edge1" class="edge">
<title>Node2&#45;&gt;Node1</title>
<path fill="none" stroke="midnightblue" d="M211.5,-195.25C211.5,-185.99 211.5,-176.77 211.5,-167.83"/>
<polygon fill="none" stroke="midnightblue" points="208,-195.31 211.5,-205.31 215,-195.31 208,-195.31"/>
</g>
<!-- Node3 -->
<g id="node3" class="node">
<title>Node3</title>
<g id="a_node3"><a xlink:title=" ">
<polygon fill="white" stroke="#bfbfbf" points="0,-778.5 0,-835.5 155,-835.5 155,-778.5 0,-778.5"/>
<text text-anchor="middle" x="77.5" y="-823.5" font-family="Helvetica,sans-Serif" font-size="10.00">shared_ptr&lt; const Groups &gt;</text>
<polyline fill="none" stroke="#bfbfbf" points="0,-816.5 155,-816.5 "/>
<text text-anchor="middle" x="77.5" y="-804.5" font-family="Helvetica,sans-Serif" font-size="10.00"> </text>
<polyline fill="none" stroke="#bfbfbf" points="0,-797.5 155,-797.5 "/>
<text text-anchor="middle" x="77.5" y="-785.5" font-family="Helvetica,sans-Serif" font-size="10.00"> </text>
</a>
</g>
</g>
<!-- Node3&#45;&gt;Node2 -->
<g id="edge2" class="edge">
<title>Node3&#45;&gt;Node2</title>
<path fill="none" stroke="#404040" d="M68.44,-778.47C51.76,-723.14 21.11,-595.31 57.5,-497 70.43,-462.06 93.55,-429.33 118,-401.65"/>
<polygon fill="none" stroke="#404040" points="118.27,-401.35 119.34,-394.21 126.33,-392.45 125.27,-399.59 118.27,-401.35"/>
<text text-anchor="middle" x="89.5" y="-600.5" font-family="Helvetica,sans-Serif" font-size="10.00"> #ptr_groups</text>
</g>
<!-- Node5 -->
<g id="node5" class="node">
<title>Node5</title>
<g id="a_node5"><a xlink:href="classBlockGraphBaseCRTP.html" target="_top" xlink:title=" ">
<polygon fill="white" stroke="black" points="130.5,-497.5 130.5,-708.5 300.5,-708.5 300.5,-497.5 130.5,-497.5"/>
<text text-anchor="start" x="138.5" y="-696.5" font-family="Helvetica,sans-Serif" font-size="10.00">BlockGraphBaseCRTP</text>
<text text-anchor="middle" x="215.5" y="-685.5" font-family="Helvetica,sans-Serif" font-size="10.00">&lt; D, T &gt;</text>
<polyline fill="none" stroke="black" points="130.5,-678.5 300.5,-678.5 "/>
<text text-anchor="middle" x="215.5" y="-666.5" font-family="Helvetica,sans-Serif" font-size="10.00"> </text>
<polyline fill="none" stroke="black" points="130.5,-659.5 300.5,-659.5 "/>
<text text-anchor="start" x="138.5" y="-647.5" font-family="Helvetica,sans-Serif" font-size="10.00">+ BlockGraphBaseCRTP()</text>
<text text-anchor="start" x="138.5" y="-636.5" font-family="Helvetica,sans-Serif" font-size="10.00">+ get_groups()</text>
<text text-anchor="start" x="138.5" y="-625.5" font-family="Helvetica,sans-Serif" font-size="10.00">+ get_ptr_groups()</text>
<text text-anchor="start" x="138.5" y="-614.5" font-family="Helvetica,sans-Serif" font-size="10.00">+ get_size()</text>
<text text-anchor="start" x="138.5" y="-603.5" font-family="Helvetica,sans-Serif" font-size="10.00">+ get_number_singleton()</text>
<text text-anchor="start" x="138.5" y="-592.5" font-family="Helvetica,sans-Serif" font-size="10.00">+ get_pos_singleton()</text>
<text text-anchor="start" x="138.5" y="-581.5" font-family="Helvetica,sans-Serif" font-size="10.00">+ get_row_with_singleton()</text>
<text text-anchor="start" x="138.5" y="-570.5" font-family="Helvetica,sans-Serif" font-size="10.00">+ get_complete_size()</text>
<text text-anchor="start" x="138.5" y="-559.5" font-family="Helvetica,sans-Serif" font-size="10.00">+ get_group_size()</text>
<text text-anchor="start" x="138.5" y="-548.5" font-family="Helvetica,sans-Serif" font-size="10.00">+ get_n_links()</text>
<text text-anchor="start" x="138.5" y="-537.5" font-family="Helvetica,sans-Serif" font-size="10.00">and 14 more...</text>
<text text-anchor="start" x="138.5" y="-526.5" font-family="Helvetica,sans-Serif" font-size="10.00"># find_neighbours()</text>
<text text-anchor="start" x="138.5" y="-515.5" font-family="Helvetica,sans-Serif" font-size="10.00"># compute_nlinks_nblocks()</text>
<text text-anchor="start" x="138.5" y="-504.5" font-family="Helvetica,sans-Serif" font-size="10.00"># compute_diagonal_position()</text>
</a>
</g>
</g>
<!-- Node3&#45;&gt;Node5 -->
<g id="edge5" class="edge">
<title>Node3&#45;&gt;Node5</title>
<path fill="none" stroke="#404040" d="M96.4,-778.34C107.33,-762.34 121.9,-741.01 137.09,-718.77"/>
<polygon fill="none" stroke="#404040" points="137.1,-718.76 137.18,-711.55 143.87,-708.85 143.79,-716.06 137.1,-718.76"/>
<text text-anchor="middle" x="162.5" y="-741" font-family="Helvetica,sans-Serif" font-size="10.00"> #ptr_groups</text>
</g>
<!-- Node4 -->
<g id="node4" class="node">
<title>Node4</title>
<g id="a_node4"><a xlink:href="classunsigned_01int.html" target="_top" xlink:title=" ">
<polygon fill="white" stroke="black" points="323,-574.5 323,-631.5 400,-631.5 400,-574.5 323,-574.5"/>
<text text-anchor="middle" x="361.5" y="-619.5" font-family="Helvetica,sans-Serif" font-size="10.00">unsigned int</text>
<polyline fill="none" stroke="black" points="323,-612.5 400,-612.5 "/>
<text text-anchor="middle" x="361.5" y="-600.5" font-family="Helvetica,sans-Serif" font-size="10.00"> </text>
<polyline fill="none" stroke="black" points="323,-593.5 400,-593.5 "/>
<text text-anchor="middle" x="361.5" y="-581.5" font-family="Helvetica,sans-Serif" font-size="10.00"> </text>
</a>
</g>
</g>
<!-- Node4&#45;&gt;Node2 -->
<g id="edge3" class="edge">
<title>Node4&#45;&gt;Node2</title>
<path fill="none" stroke="#404040" d="M362.74,-574.24C363.07,-541.79 360.03,-487.26 339.5,-446 330.67,-428.26 318.45,-411.47 305.03,-396.25"/>
<polygon fill="none" stroke="#404040" points="304.64,-395.82 297.64,-394.1 296.54,-386.97 303.54,-388.7 304.64,-395.82"/>
<text text-anchor="middle" x="384" y="-471" font-family="Helvetica,sans-Serif" font-size="10.00"> #n_links</text>
<text text-anchor="middle" x="384" y="-460" font-family="Helvetica,sans-Serif" font-size="10.00">#n_singleton</text>
<text text-anchor="middle" x="384" y="-449" font-family="Helvetica,sans-Serif" font-size="10.00">#n_blocks</text>
</g>
<!-- Node5&#45;&gt;Node2 -->
<g id="edge4" class="edge">
<title>Node5&#45;&gt;Node2</title>
<path fill="none" stroke="orange" d="M212.63,-487.22C212.59,-484.45 212.54,-481.71 212.5,-479 212.25,-462.46 212.06,-444.96 211.92,-427.83"/>
<polygon fill="orange" stroke="orange" points="209.14,-487.39 212.82,-497.32 216.13,-487.26 209.14,-487.39"/>
<text text-anchor="start" x="212.5" y="-465.5" font-family="Helvetica,sans-Serif" font-size="10.00"> &lt; BlockGraph&lt; unsigned</text>
<text text-anchor="middle" x="276" y="-454.5" font-family="Helvetica,sans-Serif" font-size="10.00"> int &gt;, unsigned int &gt;</text>
</g>
<!-- Node6 -->
<g id="node6" class="node">
<title>Node6</title>
<g id="a_node6"><a xlink:title=" ">
<polygon fill="white" stroke="#bfbfbf" points="201,-778.5 201,-835.5 230,-835.5 230,-778.5 201,-778.5"/>
<text text-anchor="middle" x="215.5" y="-823.5" font-family="Helvetica,sans-Serif" font-size="10.00">int</text>
<polyline fill="none" stroke="#bfbfbf" points="201,-816.5 230,-816.5 "/>
<text text-anchor="middle" x="215.5" y="-804.5" font-family="Helvetica,sans-Serif" font-size="10.00"> </text>
<polyline fill="none" stroke="#bfbfbf" points="201,-797.5 230,-797.5 "/>
<text text-anchor="middle" x="215.5" y="-785.5" font-family="Helvetica,sans-Serif" font-size="10.00"> </text>
</a>
</g>
</g>
<!-- Node6&#45;&gt;Node5 -->
<g id="edge6" class="edge">
<title>Node6&#45;&gt;Node5</title>
<path fill="none" stroke="#404040" d="M215.5,-778.34C215.5,-762.84 215.5,-742.34 215.5,-720.86"/>
<polygon fill="none" stroke="#404040" points="215.5,-720.85 211.5,-714.85 215.5,-708.85 219.5,-714.85 215.5,-720.85"/>
<text text-anchor="middle" x="248" y="-752" font-family="Helvetica,sans-Serif" font-size="10.00"> #n_links</text>
<text text-anchor="middle" x="248" y="-741" font-family="Helvetica,sans-Serif" font-size="10.00">#n_singleton</text>
<text text-anchor="middle" x="248" y="-730" font-family="Helvetica,sans-Serif" font-size="10.00">#n_blocks</text>
</g>
</g>
</svg>
