<?xml version="1.0" encoding="UTF-8" standalone="no"?>
<!DOCTYPE svg PUBLIC "-//W3C//DTD SVG 1.1//EN"
 "http://www.w3.org/Graphics/SVG/1.1/DTD/svg11.dtd">
<!-- Generated by graphviz version 2.43.0 (0)
 -->
<!-- Title: BlockGraphAdj&lt; T &gt; Pages: 1 -->
<!--zoomable 844 -->
<svg id="main" version="1.1" xmlns="http://www.w3.org/2000/svg" xmlns:xlink="http://www.w3.org/1999/xlink" xml:space="preserve" onload="init(evt)">
<style type="text/css"><![CDATA[
.edge:hover path { stroke: red; }
.edge:hover polygon { stroke: red; fill: red; }
]]></style>
<script type="text/javascript"><![CDATA[
var edges = document.getElementsByTagName('g');
if (edges && edges.length) {
  for (var i=0;i<edges.length;i++) {
    if (edges[i].id.substr(0,4)=='edge') {
      edges[i].setAttribute('class','edge');
    }
  }
}
]]></script>
        <defs>
                <circle id="rim" cx="0" cy="0" r="7"/>
                <circle id="rim2" cx="0" cy="0" r="3.5"/>
                <g id="zoomPlus">
                        <use xlink:href="#rim" fill="#404040">
                                <set attributeName="fill" to="#808080" begin="zoomplus.mouseover" end="zoomplus.mouseout"/>
                        </use>
                        <path d="M-4,0h8M0,-4v8" fill="none" stroke="white" stroke-width="1.5" pointer-events="none"/>
                </g>
                <g id="zoomMin">
                        <use xlink:href="#rim" fill="#404040">
                                <set attributeName="fill" to="#808080" begin="zoomminus.mouseover" end="zoomminus.mouseout"/>
                        </use>
                        <path d="M-4,0h8" fill="none" stroke="white" stroke-width="1.5" pointer-events="none"/>
                </g>
                <g id="dirArrow">
                        <path fill="none" stroke="white" stroke-width="1.5" d="M0,-3.0v7 M-2.5,-0.5L0,-3.0L2.5,-0.5"/>
                </g>
               <g id="resetDef">
                       <use xlink:href="#rim2" fill="#404040">
                               <set attributeName="fill" to="#808080" begin="reset.mouseover" end="reset.mouseout"/>
                       </use>
               </g>
        </defs>

<script type="text/javascript">
var viewWidth = 432;
var viewHeight = 844;
var sectionId = 'dynsection-1';
</script>
<script xlink:href="svgpan.js"/>
<svg id="graph" class="graph">
<g id="viewport">
<title>BlockGraphAdj&lt; T &gt;</title>
<polygon fill="white" stroke="transparent" points="-4,4 -4,-840 427.5,-840 427.5,4 -4,4"/>
<!-- Node1 -->
<g id="node1" class="node">
<title>Node1</title>
<g id="a_node1"><a xlink:title=" ">
<polygon fill="#bfbfbf" stroke="black" points="142.5,-0.5 142.5,-167.5 264.5,-167.5 264.5,-0.5 142.5,-0.5"/>
<text text-anchor="middle" x="203.5" y="-155.5" font-family="Helvetica,sans-Serif" font-size="10.00">BlockGraphAdj&lt; T &gt;</text>
<polyline fill="none" stroke="black" points="142.5,-148.5 264.5,-148.5 "/>
<text text-anchor="middle" x="203.5" y="-136.5" font-family="Helvetica,sans-Serif" font-size="10.00"> </text>
<polyline fill="none" stroke="black" points="142.5,-129.5 264.5,-129.5 "/>
<text text-anchor="start" x="150.5" y="-117.5" font-family="Helvetica,sans-Serif" font-size="10.00">+ BlockGraphAdj()</text>
<text text-anchor="start" x="150.5" y="-106.5" font-family="Helvetica,sans-Serif" font-size="10.00">+ BlockGraphAdj()</text>
<text text-anchor="start" x="150.5" y="-95.5" font-family="Helvetica,sans-Serif" font-size="10.00">+ get_graph()</text>
<text text-anchor="start" x="150.5" y="-84.5" font-family="Helvetica,sans-Serif" font-size="10.00">+ get_adj_list()</text>
<text text-anchor="start" x="150.5" y="-73.5" font-family="Helvetica,sans-Serif" font-size="10.00">+ get_neighbours()</text>
<text text-anchor="start" x="150.5" y="-62.5" font-family="Helvetica,sans-Serif" font-size="10.00">+ get_n_links()</text>
<text text-anchor="start" x="150.5" y="-51.5" font-family="Helvetica,sans-Serif" font-size="10.00">+ get_n_block_links()</text>
<text text-anchor="start" x="150.5" y="-40.5" font-family="Helvetica,sans-Serif" font-size="10.00">+ set_graph()</text>
<text text-anchor="start" x="150.5" y="-29.5" font-family="Helvetica,sans-Serif" font-size="10.00">+ set_graph()</text>
<text text-anchor="start" x="150.5" y="-18.5" font-family="Helvetica,sans-Serif" font-size="10.00">+ set_empty_graph()</text>
<text text-anchor="start" x="150.5" y="-7.5" font-family="Helvetica,sans-Serif" font-size="10.00">and 7 more...</text>
</a>
</g>
</g>
<!-- Node2 -->
<g id="node2" class="node">
<title>Node2</title>
<g id="a_node2"><a xlink:href="classBlockGraphBaseCRTP.html" target="_top" xlink:title=" ">
<polygon fill="white" stroke="black" points="118.5,-205.5 118.5,-427.5 288.5,-427.5 288.5,-205.5 118.5,-205.5"/>
<text text-anchor="start" x="126.5" y="-415.5" font-family="Helvetica,sans-Serif" font-size="10.00">BlockGraphBaseCRTP</text>
<text text-anchor="start" x="126.5" y="-404.5" font-family="Helvetica,sans-Serif" font-size="10.00">&lt; BlockGraphAdj&lt; unsigned</text>
<text text-anchor="middle" x="203.5" y="-393.5" font-family="Helvetica,sans-Serif" font-size="10.00"> int &gt;, unsigned int &gt;</text>
<polyline fill="none" stroke="black" points="118.5,-386.5 288.5,-386.5 "/>
<text text-anchor="middle" x="203.5" y="-374.5" font-family="Helvetica,sans-Serif" font-size="10.00"> </text>
<polyline fill="none" stroke="black" points="118.5,-367.5 288.5,-367.5 "/>
<text text-anchor="start" x="126.5" y="-355.5" font-family="Helvetica,sans-Serif" font-size="10.00">+ BlockGraphBaseCRTP()</text>
<text text-anchor="start" x="126.5" y="-344.5" font-family="Helvetica,sans-Serif" font-size="10.00">+ get_groups()</text>
<text text-anchor="start" x="126.5" y="-333.5" font-family="Helvetica,sans-Serif" font-size="10.00">+ get_ptr_groups()</text>
<text text-anchor="start" x="126.5" y="-322.5" font-family="Helvetica,sans-Serif" font-size="10.00">+ get_size()</text>
<text text-anchor="start" x="126.5" y="-311.5" font-family="Helvetica,sans-Serif" font-size="10.00">+ get_number_singleton()</text>
<text text-anchor="start" x="126.5" y="-300.5" font-family="Helvetica,sans-Serif" font-size="10.00">+ get_pos_singleton()</text>
<text text-anchor="start" x="126.5" y="-289.5" font-family="Helvetica,sans-Serif" font-size="10.00">+ get_row_with_singleton()</text>
<text text-anchor="start" x="126.5" y="-278.5" font-family="Helvetica,sans-Serif" font-size="10.00">+ get_complete_size()</text>
<text text-anchor="start" x="126.5" y="-267.5" font-family="Helvetica,sans-Serif" font-size="10.00">+ get_group_size()</text>
<text text-anchor="start" x="126.5" y="-256.5" font-family="Helvetica,sans-Serif" font-size="10.00">+ get_n_links()</text>
<text text-anchor="start" x="126.5" y="-245.5" font-family="Helvetica,sans-Serif" font-size="10.00">and 14 more...</text>
<text text-anchor="start" x="126.5" y="-234.5" font-family="Helvetica,sans-Serif" font-size="10.00"># find_neighbours()</text>
<text text-anchor="start" x="126.5" y="-223.5" font-family="Helvetica,sans-Serif" font-size="10.00"># compute_nlinks_nblocks()</text>
<text text-anchor="start" x="126.5" y="-212.5" font-family="Helvetica,sans-Serif" font-size="10.00"># compute_diagonal_position()</text>
</a>
</g>
</g>
<!-- Node2&#45;&gt;Node1 -->
<g id="edge1" class="edge">
<title>Node2&#45;&gt;Node1</title>
<path fill="none" stroke="midnightblue" d="M203.5,-195.25C203.5,-185.99 203.5,-176.77 203.5,-167.83"/>
<polygon fill="none" stroke="midnightblue" points="200,-195.31 203.5,-205.31 207,-195.31 200,-195.31"/>
</g>
<!-- Node3 -->
<g id="node3" class="node">
<title>Node3</title>
<g id="a_node3"><a xlink:title=" ">
<polygon fill="white" stroke="#bfbfbf" points="0,-778.5 0,-835.5 155,-835.5 155,-778.5 0,-778.5"/>
<text text-anchor="middle" x="77.5" y="-823.5" font-family="Helvetica,sans-Serif" font-size="10.00">shared_ptr&lt; const Groups &gt;</text>
<polyline fill="none" stroke="#bfbfbf" points="0,-816.5 155,-816.5 "/>
<text text-anchor="middle" x="77.5" y="-804.5" font-family="Helvetica,sans-Serif" font-size="10.00"> </text>
<polyline fill="none" stroke="#bfbfbf" points="0,-797.5 155,-797.5 "/>
<text text-anchor="middle" x="77.5" y="-785.5" font-family="Helvetica,sans-Serif" font-size="10.00"> </text>
</a>
</g>
</g>
<!-- Node3&#45;&gt;Node2 -->
<g id="edge2" class="edge">
<title>Node3&#45;&gt;Node2</title>
<path fill="none" stroke="#404040" d="M68.53,-778.13C52.22,-722.71 22.49,-595.52 57.5,-497 68.99,-464.66 89.07,-433.92 110.73,-407.31"/>
<polygon fill="none" stroke="#404040" points="110.75,-407.28 111.53,-400.11 118.44,-398.07 117.67,-405.24 110.75,-407.28"/>
<text text-anchor="middle" x="89.5" y="-600.5" font-family="Helvetica,sans-Serif" font-size="10.00"> #ptr_groups</text>
</g>
<!-- Node5 -->
<g id="node5" class="node">
<title>Node5</title>
<g id="a_node5"><a xlink:href="classBlockGraphBaseCRTP.html" target="_top" xlink:title=" ">
<polygon fill="white" stroke="black" points="130.5,-497.5 130.5,-708.5 300.5,-708.5 300.5,-497.5 130.5,-497.5"/>
<text text-anchor="start" x="138.5" y="-696.5" font-family="Helvetica,sans-Serif" font-size="10.00">BlockGraphBaseCRTP</text>
<text text-anchor="middle" x="215.5" y="-685.5" font-family="Helvetica,sans-Serif" font-size="10.00">&lt; D, T &gt;</text>
<polyline fill="none" stroke="black" points="130.5,-678.5 300.5,-678.5 "/>
<text text-anchor="middle" x="215.5" y="-666.5" font-family="Helvetica,sans-Serif" font-size="10.00"> </text>
<polyline fill="none" stroke="black" points="130.5,-659.5 300.5,-659.5 "/>
<text text-anchor="start" x="138.5" y="-647.5" font-family="Helvetica,sans-Serif" font-size="10.00">+ BlockGraphBaseCRTP()</text>
<text text-anchor="start" x="138.5" y="-636.5" font-family="Helvetica,sans-Serif" font-size="10.00">+ get_groups()</text>
<text text-anchor="start" x="138.5" y="-625.5" font-family="Helvetica,sans-Serif" font-size="10.00">+ get_ptr_groups()</text>
<text text-anchor="start" x="138.5" y="-614.5" font-family="Helvetica,sans-Serif" font-size="10.00">+ get_size()</text>
<text text-anchor="start" x="138.5" y="-603.5" font-family="Helvetica,sans-Serif" font-size="10.00">+ get_number_singleton()</text>
<text text-anchor="start" x="138.5" y="-592.5" font-family="Helvetica,sans-Serif" font-size="10.00">+ get_pos_singleton()</text>
<text text-anchor="start" x="138.5" y="-581.5" font-family="Helvetica,sans-Serif" font-size="10.00">+ get_row_with_singleton()</text>
<text text-anchor="start" x="138.5" y="-570.5" font-family="Helvetica,sans-Serif" font-size="10.00">+ get_complete_size()</text>
<text text-anchor="start" x="138.5" y="-559.5" font-family="Helvetica,sans-Serif" font-size="10.00">+ get_group_size()</text>
<text text-anchor="start" x="138.5" y="-548.5" font-family="Helvetica,sans-Serif" font-size="10.00">+ get_n_links()</text>
<text text-anchor="start" x="138.5" y="-537.5" font-family="Helvetica,sans-Serif" font-size="10.00">and 14 more...</text>
<text text-anchor="start" x="138.5" y="-526.5" font-family="Helvetica,sans-Serif" font-size="10.00"># find_neighbours()</text>
<text text-anchor="start" x="138.5" y="-515.5" font-family="Helvetica,sans-Serif" font-size="10.00"># compute_nlinks_nblocks()</text>
<text text-anchor="start" x="138.5" y="-504.5" font-family="Helvetica,sans-Serif" font-size="10.00"># compute_diagonal_position()</text>
</a>
</g>
</g>
<!-- Node3&#45;&gt;Node5 -->
<g id="edge5" class="edge">
<title>Node3&#45;&gt;Node5</title>
<path fill="none" stroke="#404040" d="M96.4,-778.34C107.33,-762.34 121.9,-741.01 137.09,-718.77"/>
<polygon fill="none" stroke="#404040" points="137.1,-718.76 137.18,-711.55 143.87,-708.85 143.79,-716.06 137.1,-718.76"/>
<text text-anchor="middle" x="162.5" y="-741" font-family="Helvetica,sans-Serif" font-size="10.00"> #ptr_groups</text>
</g>
<!-- Node4 -->
<g id="node4" class="node">
<title>Node4</title>
<g id="a_node4"><a xlink:href="classunsigned_01int.html" target="_top" xlink:title=" ">
<polygon fill="white" stroke="black" points="330,-574.5 330,-631.5 407,-631.5 407,-574.5 330,-574.5"/>
<text text-anchor="middle" x="368.5" y="-619.5" font-family="Helvetica,sans-Serif" font-size="10.00">unsigned int</text>
<polyline fill="none" stroke="black" points="330,-612.5 407,-612.5 "/>
<text text-anchor="middle" x="368.5" y="-600.5" font-family="Helvetica,sans-Serif" font-size="10.00"> </text>
<polyline fill="none" stroke="black" points="330,-593.5 407,-593.5 "/>
<text text-anchor="middle" x="368.5" y="-581.5" font-family="Helvetica,sans-Serif" font-size="10.00"> </text>
</a>
</g>
</g>
<!-- Node4&#45;&gt;Node2 -->
<g id="edge3" class="edge">
<title>Node4&#45;&gt;Node2</title>
<path fill="none" stroke="#404040" d="M370.13,-574.33C370.86,-541.72 368.23,-486.8 346.5,-446 334.44,-423.37 316.74,-402.74 297.87,-384.96"/>
<polygon fill="none" stroke="#404040" points="297.71,-384.81 290.58,-383.73 288.84,-376.73 295.97,-377.82 297.71,-384.81"/>
<text text-anchor="middle" x="391" y="-471" font-family="Helvetica,sans-Serif" font-size="10.00"> #n_links</text>
<text text-anchor="middle" x="391" y="-460" font-family="Helvetica,sans-Serif" font-size="10.00">#n_singleton</text>
<text text-anchor="middle" x="391" y="-449" font-family="Helvetica,sans-Serif" font-size="10.00">#n_blocks</text>
</g>
<!-- Node5&#45;&gt;Node2 -->
<g id="edge4" class="edge">
<title>Node5&#45;&gt;Node2</title>
<path fill="none" stroke="orange" d="M204.93,-487.24C204.77,-484.47 204.63,-481.72 204.5,-479 203.71,-462.48 203.23,-444.99 202.96,-427.86"/>
<polygon fill="orange" stroke="orange" points="201.44,-487.59 205.55,-497.36 208.43,-487.17 201.44,-487.59"/>
<text text-anchor="start" x="204.5" y="-465.5" font-family="Helvetica,sans-Serif" font-size="10.00"> &lt; BlockGraphAdj&lt; unsigned</text>
<text text-anchor="middle" x="275.5" y="-454.5" font-family="Helvetica,sans-Serif" font-size="10.00"> int &gt;, unsigned int &gt;</text>
</g>
<!-- Node6 -->
<g id="node6" class="node">
<title>Node6</title>
<g id="a_node6"><a xlink:title=" ">
<polygon fill="white" stroke="#bfbfbf" points="201,-778.5 201,-835.5 230,-835.5 230,-778.5 201,-778.5"/>
<text text-anchor="middle" x="215.5" y="-823.5" font-family="Helvetica,sans-Serif" font-size="10.00">int</text>
<polyline fill="none" stroke="#bfbfbf" points="201,-816.5 230,-816.5 "/>
<text text-anchor="middle" x="215.5" y="-804.5" font-family="Helvetica,sans-Serif" font-size="10.00"> </text>
<polyline fill="none" stroke="#bfbfbf" points="201,-797.5 230,-797.5 "/>
<text text-anchor="middle" x="215.5" y="-785.5" font-family="Helvetica,sans-Serif" font-size="10.00"> </text>
</a>
</g>
</g>
<!-- Node6&#45;&gt;Node5 -->
<g id="edge6" class="edge">
<title>Node6&#45;&gt;Node5</title>
<path fill="none" stroke="#404040" d="M215.5,-778.34C215.5,-762.84 215.5,-742.34 215.5,-720.86"/>
<polygon fill="none" stroke="#404040" points="215.5,-720.85 211.5,-714.85 215.5,-708.85 219.5,-714.85 215.5,-720.85"/>
<text text-anchor="middle" x="248" y="-752" font-family="Helvetica,sans-Serif" font-size="10.00"> #n_links</text>
<text text-anchor="middle" x="248" y="-741" font-family="Helvetica,sans-Serif" font-size="10.00">#n_singleton</text>
<text text-anchor="middle" x="248" y="-730" font-family="Helvetica,sans-Serif" font-size="10.00">#n_blocks</text>
</g>
</g>
</svg>
        <g id="navigator" transform="translate(0 0)" fill="#404254">
                <rect fill="#f2f5e9" fill-opacity="0.5" stroke="#606060" stroke-width=".5" x="0" y="0" width="60" height="60"/>
                <use id="zoomplus" xlink:href="#zoomPlus" x="17" y="9" onmousedown="handleZoom(evt,'in')"/>
                <use id="zoomminus" xlink:href="#zoomMin" x="42" y="9" onmousedown="handleZoom(evt,'out')"/>
                <use id="reset" xlink:href="#resetDef" x="30" y="36" onmousedown="handleReset()"/>
                <g id="arrowUp" xlink:href="#dirArrow" transform="translate(30 24)" onmousedown="handlePan(0,-1)">
                  <use xlink:href="#rim" fill="#404040">
                        <set attributeName="fill" to="#808080" begin="arrowUp.mouseover" end="arrowUp.mouseout"/>
                  </use>
                  <path fill="none" stroke="white" stroke-width="1.5" d="M0,-3.0v7 M-2.5,-0.5L0,-3.0L2.5,-0.5"/>
                </g>
                <g id="arrowRight" xlink:href="#dirArrow" transform="rotate(90) translate(36 -43)" onmousedown="handlePan(1,0)">
                  <use xlink:href="#rim" fill="#404040">
                        <set attributeName="fill" to="#808080" begin="arrowRight.mouseover" end="arrowRight.mouseout"/>
                  </use>
                  <path fill="none" stroke="white" stroke-width="1.5" d="M0,-3.0v7 M-2.5,-0.5L0,-3.0L2.5,-0.5"/>
                </g>
                <g id="arrowDown" xlink:href="#dirArrow" transform="rotate(180) translate(-30 -48)" onmousedown="handlePan(0,1)">
                  <use xlink:href="#rim" fill="#404040">
                        <set attributeName="fill" to="#808080" begin="arrowDown.mouseover" end="arrowDown.mouseout"/>
                  </use>
                  <path fill="none" stroke="white" stroke-width="1.5" d="M0,-3.0v7 M-2.5,-0.5L0,-3.0L2.5,-0.5"/>
                </g>
                <g id="arrowLeft" xlink:href="#dirArrow" transform="rotate(270) translate(-36 17)" onmousedown="handlePan(-1,0)">
                  <use xlink:href="#rim" fill="#404040">
                        <set attributeName="fill" to="#808080" begin="arrowLeft.mouseover" end="arrowLeft.mouseout"/>
                  </use>
                  <path fill="none" stroke="white" stroke-width="1.5" d="M0,-3.0v7 M-2.5,-0.5L0,-3.0L2.5,-0.5"/>
                </g>
        </g>
        <svg viewBox="0 0 15 15" width="100%" height="30px" preserveAspectRatio="xMaxYMin meet">
         <g id="arrow_out" transform="scale(0.3 0.3)">
          <a xlink:href="classBlockGraphAdj__coll__graph_org.svg" target="_base">
           <rect id="button" ry="5" rx="5" y="6" x="6" height="38" width="38"
                fill="#f2f5e9" fill-opacity="0.5" stroke="#606060" stroke-width="1.0"/>
           <path id="arrow"
             d="M 11.500037,31.436501 C 11.940474,20.09759 22.043105,11.32322 32.158766,21.979434 L 37.068811,17.246167 C 37.068811,17.246167 37.088388,32 37.088388,32 L 22.160133,31.978069 C 22.160133,31.978069 26.997745,27.140456 26.997745,27.140456 C 18.528582,18.264221 13.291696,25.230495 11.500037,31.436501 z"
             style="fill:#404040;"/>
          </a>
         </g>
        </svg>
</svg>
