<?xml version="1.0" encoding="UTF-8" standalone="no"?>
<!DOCTYPE svg PUBLIC "-//W3C//DTD SVG 1.1//EN"
 "http://www.w3.org/Graphics/SVG/1.1/DTD/svg11.dtd">
<!-- Generated by graphviz version 2.43.0 (0)
 -->
<!-- Title: AddRemoveMH&lt; GraphStructure, T &gt; Pages: 1 -->
<svg width="270pt" height="873pt"
 viewBox="0.00 0.00 270.00 873.00" xmlns="http://www.w3.org/2000/svg" xmlns:xlink="http://www.w3.org/1999/xlink">
<g id="graph0" class="graph" transform="scale(1 1) rotate(0) translate(4 869)">
<title>AddRemoveMH&lt; GraphStructure, T &gt;</title>
<polygon fill="white" stroke="transparent" points="-4,4 -4,-869 266,-869 266,4 -4,4"/>
<!-- Node1 -->
<g id="node1" class="node">
<title>Node1</title>
<g id="a_node1"><a xlink:title=" ">
<polygon fill="#bfbfbf" stroke="black" points="0,-0.5 0,-112.5 200,-112.5 200,-0.5 0,-0.5"/>
<text text-anchor="middle" x="100" y="-100.5" font-family="Helvetica,sans-Serif" font-size="10.00">AddRemoveMH&lt; GraphStructure, T &gt;</text>
<polyline fill="none" stroke="black" points="0,-93.5 200,-93.5 "/>
<text text-anchor="start" x="8" y="-81.5" font-family="Helvetica,sans-Serif" font-size="10.00"># MCiterPrior</text>
<text text-anchor="start" x="8" y="-70.5" font-family="Helvetica,sans-Serif" font-size="10.00"># MCiterPost</text>
<text text-anchor="start" x="8" y="-59.5" font-family="Helvetica,sans-Serif" font-size="10.00"># negative_infinity</text>
<text text-anchor="start" x="8" y="-48.5" font-family="Helvetica,sans-Serif" font-size="10.00"># infinity</text>
<polyline fill="none" stroke="black" points="0,-41.5 200,-41.5 "/>
<text text-anchor="start" x="8" y="-29.5" font-family="Helvetica,sans-Serif" font-size="10.00">+ AddRemoveMH()</text>
<text text-anchor="start" x="8" y="-18.5" font-family="Helvetica,sans-Serif" font-size="10.00">+ AddRemoveMH()</text>
<text text-anchor="start" x="8" y="-7.5" font-family="Helvetica,sans-Serif" font-size="10.00">+ operator()()</text>
</a>
</g>
</g>
<!-- Node2 -->
<g id="node2" class="node">
<title>Node2</title>
<g id="a_node2"><a xlink:href="classGGM.html" target="_top" xlink:title=" ">
<polygon fill="white" stroke="black" points="23,-150.5 23,-372.5 177,-372.5 177,-150.5 23,-150.5"/>
<text text-anchor="start" x="31" y="-360.5" font-family="Helvetica,sans-Serif" font-size="10.00">GGM&lt; GraphType, unsigned</text>
<text text-anchor="middle" x="100" y="-349.5" font-family="Helvetica,sans-Serif" font-size="10.00"> int &gt;</text>
<polyline fill="none" stroke="black" points="23,-342.5 177,-342.5 "/>
<text text-anchor="start" x="31" y="-330.5" font-family="Helvetica,sans-Serif" font-size="10.00"># ptr_prior</text>
<text text-anchor="start" x="31" y="-319.5" font-family="Helvetica,sans-Serif" font-size="10.00"># Kprior</text>
<text text-anchor="start" x="31" y="-308.5" font-family="Helvetica,sans-Serif" font-size="10.00"># trGwishSampler</text>
<text text-anchor="start" x="31" y="-297.5" font-family="Helvetica,sans-Serif" font-size="10.00"># selected_link</text>
<polyline fill="none" stroke="black" points="23,-290.5 177,-290.5 "/>
<text text-anchor="start" x="31" y="-278.5" font-family="Helvetica,sans-Serif" font-size="10.00">+ GGM()</text>
<text text-anchor="start" x="31" y="-267.5" font-family="Helvetica,sans-Serif" font-size="10.00">+ GGM()</text>
<text text-anchor="start" x="31" y="-256.5" font-family="Helvetica,sans-Serif" font-size="10.00">+ GGM()</text>
<text text-anchor="start" x="31" y="-245.5" font-family="Helvetica,sans-Serif" font-size="10.00">+ GGM()</text>
<text text-anchor="start" x="31" y="-234.5" font-family="Helvetica,sans-Serif" font-size="10.00">+ operator=()</text>
<text text-anchor="start" x="31" y="-223.5" font-family="Helvetica,sans-Serif" font-size="10.00">+ operator=()</text>
<text text-anchor="start" x="31" y="-212.5" font-family="Helvetica,sans-Serif" font-size="10.00">+ get_shape()</text>
<text text-anchor="start" x="31" y="-201.5" font-family="Helvetica,sans-Serif" font-size="10.00">+ get_inv_scale()</text>
<text text-anchor="start" x="31" y="-190.5" font-family="Helvetica,sans-Serif" font-size="10.00">+ init_precision()</text>
<text text-anchor="start" x="31" y="-179.5" font-family="Helvetica,sans-Serif" font-size="10.00">+ propose_new_graph()</text>
<text text-anchor="start" x="31" y="-168.5" font-family="Helvetica,sans-Serif" font-size="10.00">+ operator()()</text>
<text text-anchor="start" x="31" y="-157.5" font-family="Helvetica,sans-Serif" font-size="10.00">+ ~GGM()</text>
</a>
</g>
</g>
<!-- Node2&#45;&gt;Node1 -->
<g id="edge1" class="edge">
<title>Node2&#45;&gt;Node1</title>
<path fill="none" stroke="midnightblue" d="M100,-140.35C100,-130.78 100,-121.44 100,-112.68"/>
<polygon fill="none" stroke="midnightblue" points="96.5,-140.39 100,-150.39 103.5,-140.39 96.5,-140.39"/>
</g>
<!-- Node3 -->
<g id="node3" class="node">
<title>Node3</title>
<g id="a_node3"><a xlink:href="structGGMTraits.html" target="_top" xlink:title=" ">
<polygon fill="white" stroke="black" points="29.5,-680.5 29.5,-748.5 162.5,-748.5 162.5,-680.5 29.5,-680.5"/>
<text text-anchor="start" x="37.5" y="-736.5" font-family="Helvetica,sans-Serif" font-size="10.00">GGMTraits&lt; GraphType,</text>
<text text-anchor="middle" x="96" y="-725.5" font-family="Helvetica,sans-Serif" font-size="10.00"> unsigned int &gt;</text>
<polyline fill="none" stroke="black" points="29.5,-718.5 162.5,-718.5 "/>
<text text-anchor="middle" x="96" y="-706.5" font-family="Helvetica,sans-Serif" font-size="10.00"> </text>
<polyline fill="none" stroke="black" points="29.5,-699.5 162.5,-699.5 "/>
<text text-anchor="middle" x="96" y="-687.5" font-family="Helvetica,sans-Serif" font-size="10.00"> </text>
</a>
</g>
</g>
<!-- Node3&#45;&gt;Node2 -->
<g id="edge2" class="edge">
<title>Node3&#45;&gt;Node2</title>
<path fill="none" stroke="midnightblue" d="M96.39,-670.01C96.99,-602.08 98.17,-468.66 99.02,-372.98"/>
<polygon fill="none" stroke="midnightblue" points="92.88,-670.31 96.29,-680.34 99.88,-670.37 92.88,-670.31"/>
</g>
<!-- Node5 -->
<g id="node5" class="node">
<title>Node5</title>
<g id="a_node5"><a xlink:href="classGGM.html" target="_top" xlink:title=" ">
<polygon fill="white" stroke="black" points="111.5,-431.5 111.5,-642.5 260.5,-642.5 260.5,-431.5 111.5,-431.5"/>
<text text-anchor="middle" x="186" y="-630.5" font-family="Helvetica,sans-Serif" font-size="10.00">GGM&lt; GraphStructure, T &gt;</text>
<polyline fill="none" stroke="black" points="111.5,-623.5 260.5,-623.5 "/>
<text text-anchor="start" x="119.5" y="-611.5" font-family="Helvetica,sans-Serif" font-size="10.00"># ptr_prior</text>
<text text-anchor="start" x="119.5" y="-600.5" font-family="Helvetica,sans-Serif" font-size="10.00"># Kprior</text>
<text text-anchor="start" x="119.5" y="-589.5" font-family="Helvetica,sans-Serif" font-size="10.00"># trGwishSampler</text>
<text text-anchor="start" x="119.5" y="-578.5" font-family="Helvetica,sans-Serif" font-size="10.00"># selected_link</text>
<polyline fill="none" stroke="black" points="111.5,-571.5 260.5,-571.5 "/>
<text text-anchor="start" x="119.5" y="-559.5" font-family="Helvetica,sans-Serif" font-size="10.00">+ GGM()</text>
<text text-anchor="start" x="119.5" y="-548.5" font-family="Helvetica,sans-Serif" font-size="10.00">+ GGM()</text>
<text text-anchor="start" x="119.5" y="-537.5" font-family="Helvetica,sans-Serif" font-size="10.00">+ GGM()</text>
<text text-anchor="start" x="119.5" y="-526.5" font-family="Helvetica,sans-Serif" font-size="10.00">+ GGM()</text>
<text text-anchor="start" x="119.5" y="-515.5" font-family="Helvetica,sans-Serif" font-size="10.00">+ operator=()</text>
<text text-anchor="start" x="119.5" y="-504.5" font-family="Helvetica,sans-Serif" font-size="10.00">+ operator=()</text>
<text text-anchor="start" x="119.5" y="-493.5" font-family="Helvetica,sans-Serif" font-size="10.00">+ get_shape()</text>
<text text-anchor="start" x="119.5" y="-482.5" font-family="Helvetica,sans-Serif" font-size="10.00">+ get_inv_scale()</text>
<text text-anchor="start" x="119.5" y="-471.5" font-family="Helvetica,sans-Serif" font-size="10.00">+ init_precision()</text>
<text text-anchor="start" x="119.5" y="-460.5" font-family="Helvetica,sans-Serif" font-size="10.00">+ propose_new_graph()</text>
<text text-anchor="start" x="119.5" y="-449.5" font-family="Helvetica,sans-Serif" font-size="10.00">+ operator()()</text>
<text text-anchor="start" x="119.5" y="-438.5" font-family="Helvetica,sans-Serif" font-size="10.00">+ ~GGM()</text>
</a>
</g>
</g>
<!-- Node3&#45;&gt;Node5 -->
<g id="edge5" class="edge">
<title>Node3&#45;&gt;Node5</title>
<path fill="none" stroke="midnightblue" d="M117.53,-671.52C122.11,-662.59 127.14,-652.78 132.33,-642.65"/>
<polygon fill="none" stroke="midnightblue" points="114.38,-669.99 112.93,-680.49 120.61,-673.19 114.38,-669.99"/>
</g>
<!-- Node4 -->
<g id="node4" class="node">
<title>Node4</title>
<g id="a_node4"><a xlink:href="structGGMTraits.html" target="_top" xlink:title=" ">
<polygon fill="white" stroke="black" points="8.5,-807.5 8.5,-864.5 183.5,-864.5 183.5,-807.5 8.5,-807.5"/>
<text text-anchor="middle" x="96" y="-852.5" font-family="Helvetica,sans-Serif" font-size="10.00">GGMTraits&lt; GraphStructure, T &gt;</text>
<polyline fill="none" stroke="black" points="8.5,-845.5 183.5,-845.5 "/>
<text text-anchor="middle" x="96" y="-833.5" font-family="Helvetica,sans-Serif" font-size="10.00"> </text>
<polyline fill="none" stroke="black" points="8.5,-826.5 183.5,-826.5 "/>
<text text-anchor="middle" x="96" y="-814.5" font-family="Helvetica,sans-Serif" font-size="10.00"> </text>
</a>
</g>
</g>
<!-- Node4&#45;&gt;Node3 -->
<g id="edge3" class="edge">
<title>Node4&#45;&gt;Node3</title>
<path fill="none" stroke="orange" d="M96,-796.95C96,-781.4 96,-763.58 96,-748.59"/>
<polygon fill="orange" stroke="orange" points="92.5,-797.28 96,-807.28 99.5,-797.28 92.5,-797.28"/>
<text text-anchor="start" x="96" y="-781" font-family="Helvetica,sans-Serif" font-size="10.00"> &lt; GraphType, unsigned</text>
<text text-anchor="middle" x="154.5" y="-770" font-family="Helvetica,sans-Serif" font-size="10.00"> int &gt;</text>
</g>
<!-- Node5&#45;&gt;Node2 -->
<g id="edge4" class="edge">
<title>Node5&#45;&gt;Node2</title>
<path fill="none" stroke="orange" d="M149.99,-421.48C144.94,-405.41 139.75,-388.91 134.72,-372.92"/>
<polygon fill="orange" stroke="orange" points="146.78,-422.94 153.12,-431.43 153.46,-420.84 146.78,-422.94"/>
<text text-anchor="start" x="145" y="-405" font-family="Helvetica,sans-Serif" font-size="10.00"> &lt; GraphType, unsigned</text>
<text text-anchor="middle" x="203.5" y="-394" font-family="Helvetica,sans-Serif" font-size="10.00"> int &gt;</text>
</g>
</g>
</svg>
