<?xml version="1.0" encoding="UTF-8" standalone="no"?>
<!DOCTYPE svg PUBLIC "-//W3C//DTD SVG 1.1//EN"
 "http://www.w3.org/Graphics/SVG/1.1/DTD/svg11.dtd">
<!-- Generated by graphviz version 2.43.0 (0)
 -->
<!-- Title: Init&lt; GraphStructure, T &gt; Pages: 1 -->
<svg width="198pt" height="420pt"
 viewBox="0.00 0.00 198.00 420.00" xmlns="http://www.w3.org/2000/svg" xmlns:xlink="http://www.w3.org/1999/xlink">
<g id="graph0" class="graph" transform="scale(1 1) rotate(0) translate(4 416)">
<title>Init&lt; GraphStructure, T &gt;</title>
<polygon fill="white" stroke="transparent" points="-4,4 -4,-416 194,-416 194,4 -4,4"/>
<!-- Node1 -->
<g id="node1" class="node">
<title>Node1</title>
<g id="a_node1"><a xlink:title=" ">
<polygon fill="#bfbfbf" stroke="black" points="3,-193.5 3,-316.5 143,-316.5 143,-193.5 3,-193.5"/>
<text text-anchor="middle" x="73" y="-304.5" font-family="Helvetica,sans-Serif" font-size="10.00">Init&lt; GraphStructure, T &gt;</text>
<polyline fill="none" stroke="black" points="3,-297.5 143,-297.5 "/>
<text text-anchor="start" x="11" y="-285.5" font-family="Helvetica,sans-Serif" font-size="10.00">+ Beta0</text>
<text text-anchor="start" x="11" y="-274.5" font-family="Helvetica,sans-Serif" font-size="10.00">+ mu0</text>
<text text-anchor="start" x="11" y="-263.5" font-family="Helvetica,sans-Serif" font-size="10.00">+ tau_eps0</text>
<text text-anchor="start" x="11" y="-252.5" font-family="Helvetica,sans-Serif" font-size="10.00">+ K0</text>
<text text-anchor="start" x="11" y="-241.5" font-family="Helvetica,sans-Serif" font-size="10.00">+ G0</text>
<polyline fill="none" stroke="black" points="3,-234.5 143,-234.5 "/>
<text text-anchor="start" x="11" y="-222.5" font-family="Helvetica,sans-Serif" font-size="10.00">+ Init()</text>
<text text-anchor="start" x="11" y="-211.5" font-family="Helvetica,sans-Serif" font-size="10.00">+ Init()</text>
<text text-anchor="start" x="11" y="-200.5" font-family="Helvetica,sans-Serif" font-size="10.00">+ set_init()</text>
</a>
</g>
</g>
<!-- Node3 -->
<g id="node3" class="node">
<title>Node3</title>
<g id="a_node3"><a xlink:href="classInit.html" target="_top" xlink:title=" ">
<polygon fill="white" stroke="black" points="0,-0.5 0,-134.5 146,-134.5 146,-0.5 0,-0.5"/>
<text text-anchor="start" x="8" y="-122.5" font-family="Helvetica,sans-Serif" font-size="10.00">Init&lt; GraphType, unsigned</text>
<text text-anchor="middle" x="73" y="-111.5" font-family="Helvetica,sans-Serif" font-size="10.00"> int &gt;</text>
<polyline fill="none" stroke="black" points="0,-104.5 146,-104.5 "/>
<text text-anchor="start" x="8" y="-92.5" font-family="Helvetica,sans-Serif" font-size="10.00">+ Beta0</text>
<text text-anchor="start" x="8" y="-81.5" font-family="Helvetica,sans-Serif" font-size="10.00">+ mu0</text>
<text text-anchor="start" x="8" y="-70.5" font-family="Helvetica,sans-Serif" font-size="10.00">+ tau_eps0</text>
<text text-anchor="start" x="8" y="-59.5" font-family="Helvetica,sans-Serif" font-size="10.00">+ K0</text>
<text text-anchor="start" x="8" y="-48.5" font-family="Helvetica,sans-Serif" font-size="10.00">+ G0</text>
<polyline fill="none" stroke="black" points="0,-41.5 146,-41.5 "/>
<text text-anchor="start" x="8" y="-29.5" font-family="Helvetica,sans-Serif" font-size="10.00">+ Init()</text>
<text text-anchor="start" x="8" y="-18.5" font-family="Helvetica,sans-Serif" font-size="10.00">+ Init()</text>
<text text-anchor="start" x="8" y="-7.5" font-family="Helvetica,sans-Serif" font-size="10.00">+ set_init()</text>
</a>
</g>
</g>
<!-- Node1&#45;&gt;Node3 -->
<g id="edge2" class="edge">
<title>Node1&#45;&gt;Node3</title>
<path fill="none" stroke="orange" d="M73,-183.01C73,-167.18 73,-150.45 73,-134.82"/>
<polygon fill="orange" stroke="orange" points="69.5,-183.26 73,-193.26 76.5,-183.26 69.5,-183.26"/>
<text text-anchor="start" x="73" y="-167" font-family="Helvetica,sans-Serif" font-size="10.00"> &lt; GraphType, unsigned</text>
<text text-anchor="middle" x="131.5" y="-156" font-family="Helvetica,sans-Serif" font-size="10.00"> int &gt;</text>
</g>
<!-- Node2 -->
<g id="node2" class="node">
<title>Node2</title>
<g id="a_node2"><a xlink:href="structSamplerTraits.html" target="_top" xlink:title=" ">
<polygon fill="white" stroke="black" points="31.5,-354.5 31.5,-411.5 114.5,-411.5 114.5,-354.5 31.5,-354.5"/>
<text text-anchor="middle" x="73" y="-399.5" font-family="Helvetica,sans-Serif" font-size="10.00">SamplerTraits</text>
<polyline fill="none" stroke="black" points="31.5,-392.5 114.5,-392.5 "/>
<text text-anchor="middle" x="73" y="-380.5" font-family="Helvetica,sans-Serif" font-size="10.00"> </text>
<polyline fill="none" stroke="black" points="31.5,-373.5 114.5,-373.5 "/>
<text text-anchor="middle" x="73" y="-361.5" font-family="Helvetica,sans-Serif" font-size="10.00"> </text>
</a>
</g>
</g>
<!-- Node2&#45;&gt;Node1 -->
<g id="edge1" class="edge">
<title>Node2&#45;&gt;Node1</title>
<path fill="none" stroke="midnightblue" d="M73,-344.18C73,-335.49 73,-326.03 73,-316.65"/>
<polygon fill="none" stroke="midnightblue" points="69.5,-344.35 73,-354.35 76.5,-344.35 69.5,-344.35"/>
</g>
</g>
</svg>
