<?xml version="1.0" encoding="UTF-8" standalone="no"?>
<!DOCTYPE svg PUBLIC "-//W3C//DTD SVG 1.1//EN"
 "http://www.w3.org/Graphics/SVG/1.1/DTD/svg11.dtd">
<!-- Generated by graphviz version 2.43.0 (0)
 -->
<!-- Title: InitFLM Pages: 1 -->
<!--zoomable 773 -->
<svg id="main" version="1.1" xmlns="http://www.w3.org/2000/svg" xmlns:xlink="http://www.w3.org/1999/xlink" xml:space="preserve" onload="init(evt)">
<style type="text/css"><![CDATA[
.edge:hover path { stroke: red; }
.edge:hover polygon { stroke: red; fill: red; }
]]></style>
<script type="text/javascript"><![CDATA[
var edges = document.getElementsByTagName('g');
if (edges && edges.length) {
  for (var i=0;i<edges.length;i++) {
    if (edges[i].id.substr(0,4)=='edge') {
      edges[i].setAttribute('class','edge');
    }
  }
}
]]></script>
        <defs>
                <circle id="rim" cx="0" cy="0" r="7"/>
                <circle id="rim2" cx="0" cy="0" r="3.5"/>
                <g id="zoomPlus">
                        <use xlink:href="#rim" fill="#404040">
                                <set attributeName="fill" to="#808080" begin="zoomplus.mouseover" end="zoomplus.mouseout"/>
                        </use>
                        <path d="M-4,0h8M0,-4v8" fill="none" stroke="white" stroke-width="1.5" pointer-events="none"/>
                </g>
                <g id="zoomMin">
                        <use xlink:href="#rim" fill="#404040">
                                <set attributeName="fill" to="#808080" begin="zoomminus.mouseover" end="zoomminus.mouseout"/>
                        </use>
                        <path d="M-4,0h8" fill="none" stroke="white" stroke-width="1.5" pointer-events="none"/>
                </g>
                <g id="dirArrow">
                        <path fill="none" stroke="white" stroke-width="1.5" d="M0,-3.0v7 M-2.5,-0.5L0,-3.0L2.5,-0.5"/>
                </g>
               <g id="resetDef">
                       <use xlink:href="#rim2" fill="#404040">
                               <set attributeName="fill" to="#808080" begin="reset.mouseover" end="reset.mouseout"/>
                       </use>
               </g>
        </defs>

<script type="text/javascript">
var viewWidth = 546;
var viewHeight = 773;
var sectionId = 'dynsection-1';
</script>
<script xlink:href="svgpan.js"/>
<svg id="graph" class="graph">
<g id="viewport">
<title>InitFLM</title>
<polygon fill="white" stroke="transparent" points="-4,4 -4,-769 542,-769 542,4 -4,4"/>
<!-- Node1 -->
<g id="node1" class="node">
<title>Node1</title>
<g id="a_node1"><a xlink:title=" ">
<polygon fill="#bfbfbf" stroke="black" points="190,-0.5 190,-101.5 261,-101.5 261,-0.5 190,-0.5"/>
<text text-anchor="middle" x="225.5" y="-89.5" font-family="Helvetica,sans-Serif" font-size="10.00">InitFLM</text>
<polyline fill="none" stroke="black" points="190,-82.5 261,-82.5 "/>
<text text-anchor="middle" x="225.5" y="-70.5" font-family="Helvetica,sans-Serif" font-size="10.00"> </text>
<polyline fill="none" stroke="black" points="190,-63.5 261,-63.5 "/>
<text text-anchor="start" x="198" y="-51.5" font-family="Helvetica,sans-Serif" font-size="10.00">+ InitFLM()</text>
<text text-anchor="start" x="198" y="-40.5" font-family="Helvetica,sans-Serif" font-size="10.00">+ InitFLM()</text>
<text text-anchor="start" x="198" y="-29.5" font-family="Helvetica,sans-Serif" font-size="10.00">+ InitFLM()</text>
<text text-anchor="start" x="198" y="-18.5" font-family="Helvetica,sans-Serif" font-size="10.00">+ set_init()</text>
<text text-anchor="start" x="198" y="-7.5" font-family="Helvetica,sans-Serif" font-size="10.00">+ set_init()</text>
</a>
</g>
</g>
<!-- Node2 -->
<g id="node2" class="node">
<title>Node2</title>
<g id="a_node2"><a xlink:href="structFLMsamplerTraits.html" target="_top" xlink:title=" ">
<polygon fill="white" stroke="black" points="0,-221 0,-278 103,-278 103,-221 0,-221"/>
<text text-anchor="middle" x="51.5" y="-266" font-family="Helvetica,sans-Serif" font-size="10.00">FLMsamplerTraits</text>
<polyline fill="none" stroke="black" points="0,-259 103,-259 "/>
<text text-anchor="middle" x="51.5" y="-247" font-family="Helvetica,sans-Serif" font-size="10.00"> </text>
<polyline fill="none" stroke="black" points="0,-240 103,-240 "/>
<text text-anchor="middle" x="51.5" y="-228" font-family="Helvetica,sans-Serif" font-size="10.00"> </text>
</a>
</g>
</g>
<!-- Node2&#45;&gt;Node1 -->
<g id="edge1" class="edge">
<title>Node2&#45;&gt;Node1</title>
<path fill="none" stroke="midnightblue" d="M74.35,-211.99C85.21,-195.56 98.8,-176.25 112.5,-160 128.91,-140.54 135.13,-137.63 153.5,-120 165.28,-108.69 178.24,-96.41 189.87,-85.44"/>
<polygon fill="none" stroke="midnightblue" points="71.15,-210.5 68.62,-220.78 77.01,-214.32 71.15,-210.5"/>
</g>
<!-- Node3 -->
<g id="node3" class="node">
<title>Node3</title>
<g id="a_node3"><a xlink:href="classdouble.html" target="_top" xlink:title=" ">
<polygon fill="white" stroke="black" points="121.5,-221 121.5,-278 171.5,-278 171.5,-221 121.5,-221"/>
<text text-anchor="middle" x="146.5" y="-266" font-family="Helvetica,sans-Serif" font-size="10.00">double</text>
<polyline fill="none" stroke="black" points="121.5,-259 171.5,-259 "/>
<text text-anchor="middle" x="146.5" y="-247" font-family="Helvetica,sans-Serif" font-size="10.00"> </text>
<polyline fill="none" stroke="black" points="121.5,-240 171.5,-240 "/>
<text text-anchor="middle" x="146.5" y="-228" font-family="Helvetica,sans-Serif" font-size="10.00"> </text>
</a>
</g>
</g>
<!-- Node3&#45;&gt;Node1 -->
<g id="edge2" class="edge">
<title>Node3&#45;&gt;Node1</title>
<path fill="none" stroke="#404040" d="M145.79,-220.87C146.13,-193.92 149.45,-152.38 164.5,-120 168.87,-110.59 174.99,-101.56 181.68,-93.31"/>
<polygon fill="none" stroke="#404040" points="181.87,-93.09 182.77,-85.94 189.73,-84.02 188.82,-91.18 181.87,-93.09"/>
<text text-anchor="middle" x="192.5" y="-128.5" font-family="Helvetica,sans-Serif" font-size="10.00"> +tau_eps0</text>
</g>
<!-- Node4 -->
<g id="node4" class="node">
<title>Node4</title>
<g id="a_node4"><a xlink:title=" ">
<polygon fill="white" stroke="#bfbfbf" points="192.5,-221 192.5,-278 252.5,-278 252.5,-221 192.5,-221"/>
<text text-anchor="middle" x="222.5" y="-266" font-family="Helvetica,sans-Serif" font-size="10.00">VectorXd</text>
<polyline fill="none" stroke="#bfbfbf" points="192.5,-259 252.5,-259 "/>
<text text-anchor="middle" x="222.5" y="-247" font-family="Helvetica,sans-Serif" font-size="10.00"> </text>
<polyline fill="none" stroke="#bfbfbf" points="192.5,-240 252.5,-240 "/>
<text text-anchor="middle" x="222.5" y="-228" font-family="Helvetica,sans-Serif" font-size="10.00"> </text>
</a>
</g>
</g>
<!-- Node4&#45;&gt;Node1 -->
<g id="edge3" class="edge">
<title>Node4&#45;&gt;Node1</title>
<path fill="none" stroke="#404040" d="M222.92,-220.76C223.35,-193.13 224.01,-149.77 224.55,-113.92"/>
<polygon fill="none" stroke="#404040" points="224.56,-113.59 220.65,-107.53 224.74,-101.59 228.65,-107.65 224.56,-113.59"/>
<text text-anchor="middle" x="243" y="-134" font-family="Helvetica,sans-Serif" font-size="10.00"> +mu0</text>
<text text-anchor="middle" x="243" y="-123" font-family="Helvetica,sans-Serif" font-size="10.00">+tauK0</text>
</g>
<!-- Node5 -->
<g id="node5" class="node">
<title>Node5</title>
<g id="a_node5"><a xlink:title=" ">
<polygon fill="white" stroke="#bfbfbf" points="271,-221 271,-278 332,-278 332,-221 271,-221"/>
<text text-anchor="middle" x="301.5" y="-266" font-family="Helvetica,sans-Serif" font-size="10.00">MatrixXd</text>
<polyline fill="none" stroke="#bfbfbf" points="271,-259 332,-259 "/>
<text text-anchor="middle" x="301.5" y="-247" font-family="Helvetica,sans-Serif" font-size="10.00"> </text>
<polyline fill="none" stroke="#bfbfbf" points="271,-240 332,-240 "/>
<text text-anchor="middle" x="301.5" y="-228" font-family="Helvetica,sans-Serif" font-size="10.00"> </text>
</a>
</g>
</g>
<!-- Node5&#45;&gt;Node1 -->
<g id="edge4" class="edge">
<title>Node5&#45;&gt;Node1</title>
<path fill="none" stroke="#404040" d="M295.96,-220.98C290.12,-194.48 279.79,-153.57 265.5,-120 264.45,-117.54 263.34,-115.06 262.16,-112.58"/>
<polygon fill="none" stroke="#404040" points="262.1,-112.47 255.83,-108.9 256.71,-101.74 262.98,-105.31 262.1,-112.47"/>
<text text-anchor="middle" x="293.5" y="-134" font-family="Helvetica,sans-Serif" font-size="10.00"> +Beta0</text>
<text text-anchor="middle" x="293.5" y="-123" font-family="Helvetica,sans-Serif" font-size="10.00">+K0</text>
</g>
<!-- Node6 -->
<g id="node6" class="node">
<title>Node6</title>
<g id="a_node6"><a xlink:href="classGraphType.html" target="_top" xlink:title=" ">
<polygon fill="white" stroke="black" points="350,-160.5 350,-338.5 477,-338.5 477,-160.5 350,-160.5"/>
<text text-anchor="start" x="358" y="-326.5" font-family="Helvetica,sans-Serif" font-size="10.00">GraphType&lt; unsigned</text>
<text text-anchor="middle" x="413.5" y="-315.5" font-family="Helvetica,sans-Serif" font-size="10.00"> int &gt;</text>
<polyline fill="none" stroke="black" points="350,-308.5 477,-308.5 "/>
<text text-anchor="middle" x="413.5" y="-296.5" font-family="Helvetica,sans-Serif" font-size="10.00"> </text>
<polyline fill="none" stroke="black" points="350,-289.5 477,-289.5 "/>
<text text-anchor="start" x="358" y="-277.5" font-family="Helvetica,sans-Serif" font-size="10.00">+ GraphType()</text>
<text text-anchor="start" x="358" y="-266.5" font-family="Helvetica,sans-Serif" font-size="10.00">+ GraphType()</text>
<text text-anchor="start" x="358" y="-255.5" font-family="Helvetica,sans-Serif" font-size="10.00">+ GraphType()</text>
<text text-anchor="start" x="358" y="-244.5" font-family="Helvetica,sans-Serif" font-size="10.00">+ GraphType()</text>
<text text-anchor="start" x="358" y="-233.5" font-family="Helvetica,sans-Serif" font-size="10.00">+ get_graph()</text>
<text text-anchor="start" x="358" y="-222.5" font-family="Helvetica,sans-Serif" font-size="10.00">+ get_adj_list()</text>
<text text-anchor="start" x="358" y="-211.5" font-family="Helvetica,sans-Serif" font-size="10.00">+ get_size()</text>
<text text-anchor="start" x="358" y="-200.5" font-family="Helvetica,sans-Serif" font-size="10.00">+ get_complete_size()</text>
<text text-anchor="start" x="358" y="-189.5" font-family="Helvetica,sans-Serif" font-size="10.00">+ get_nbd()</text>
<text text-anchor="start" x="358" y="-178.5" font-family="Helvetica,sans-Serif" font-size="10.00">+ get_nbd()</text>
<text text-anchor="start" x="358" y="-167.5" font-family="Helvetica,sans-Serif" font-size="10.00">and 13 more...</text>
</a>
</g>
</g>
<!-- Node6&#45;&gt;Node1 -->
<g id="edge5" class="edge">
<title>Node6&#45;&gt;Node1</title>
<path fill="none" stroke="#404040" d="M353.02,-160.28C341.87,-146.22 329.84,-132.28 317.5,-120 303.52,-106.1 286.56,-92.75 271.02,-81.62"/>
<polygon fill="none" stroke="#404040" points="270.88,-81.53 263.68,-81.36 261.06,-74.65 268.27,-74.81 270.88,-81.53"/>
<text text-anchor="middle" x="345" y="-128.5" font-family="Helvetica,sans-Serif" font-size="10.00"> +G</text>
</g>
<!-- Node7 -->
<g id="node7" class="node">
<title>Node7</title>
<g id="a_node7"><a xlink:href="structGraphTypeTraits.html" target="_top" xlink:title=" ">
<polygon fill="white" stroke="black" points="319.5,-591.5 319.5,-659.5 469.5,-659.5 469.5,-591.5 319.5,-591.5"/>
<text text-anchor="start" x="327.5" y="-647.5" font-family="Helvetica,sans-Serif" font-size="10.00">GraphTypeTraits&lt; unsigned</text>
<text text-anchor="middle" x="394.5" y="-636.5" font-family="Helvetica,sans-Serif" font-size="10.00"> int &gt;</text>
<polyline fill="none" stroke="black" points="319.5,-629.5 469.5,-629.5 "/>
<text text-anchor="middle" x="394.5" y="-617.5" font-family="Helvetica,sans-Serif" font-size="10.00"> </text>
<polyline fill="none" stroke="black" points="319.5,-610.5 469.5,-610.5 "/>
<text text-anchor="middle" x="394.5" y="-598.5" font-family="Helvetica,sans-Serif" font-size="10.00"> </text>
</a>
</g>
</g>
<!-- Node7&#45;&gt;Node6 -->
<g id="edge6" class="edge">
<title>Node7&#45;&gt;Node6</title>
<path fill="none" stroke="midnightblue" d="M395.01,-580.99C395.74,-533.16 397.49,-454.05 401.5,-386 402.4,-370.68 403.62,-354.4 404.94,-338.64"/>
<polygon fill="none" stroke="midnightblue" points="391.5,-581.24 394.86,-591.29 398.5,-581.34 391.5,-581.24"/>
</g>
<!-- Node9 -->
<g id="node9" class="node">
<title>Node9</title>
<g id="a_node9"><a xlink:href="classGraphType.html" target="_top" xlink:title=" ">
<polygon fill="white" stroke="black" points="411,-386.5 411,-553.5 538,-553.5 538,-386.5 411,-386.5"/>
<text text-anchor="middle" x="474.5" y="-541.5" font-family="Helvetica,sans-Serif" font-size="10.00">GraphType&lt; T &gt;</text>
<polyline fill="none" stroke="black" points="411,-534.5 538,-534.5 "/>
<text text-anchor="middle" x="474.5" y="-522.5" font-family="Helvetica,sans-Serif" font-size="10.00"> </text>
<polyline fill="none" stroke="black" points="411,-515.5 538,-515.5 "/>
<text text-anchor="start" x="419" y="-503.5" font-family="Helvetica,sans-Serif" font-size="10.00">+ GraphType()</text>
<text text-anchor="start" x="419" y="-492.5" font-family="Helvetica,sans-Serif" font-size="10.00">+ GraphType()</text>
<text text-anchor="start" x="419" y="-481.5" font-family="Helvetica,sans-Serif" font-size="10.00">+ GraphType()</text>
<text text-anchor="start" x="419" y="-470.5" font-family="Helvetica,sans-Serif" font-size="10.00">+ GraphType()</text>
<text text-anchor="start" x="419" y="-459.5" font-family="Helvetica,sans-Serif" font-size="10.00">+ get_graph()</text>
<text text-anchor="start" x="419" y="-448.5" font-family="Helvetica,sans-Serif" font-size="10.00">+ get_adj_list()</text>
<text text-anchor="start" x="419" y="-437.5" font-family="Helvetica,sans-Serif" font-size="10.00">+ get_size()</text>
<text text-anchor="start" x="419" y="-426.5" font-family="Helvetica,sans-Serif" font-size="10.00">+ get_complete_size()</text>
<text text-anchor="start" x="419" y="-415.5" font-family="Helvetica,sans-Serif" font-size="10.00">+ get_nbd()</text>
<text text-anchor="start" x="419" y="-404.5" font-family="Helvetica,sans-Serif" font-size="10.00">+ get_nbd()</text>
<text text-anchor="start" x="419" y="-393.5" font-family="Helvetica,sans-Serif" font-size="10.00">and 13 more...</text>
</a>
</g>
</g>
<!-- Node7&#45;&gt;Node9 -->
<g id="edge9" class="edge">
<title>Node7&#45;&gt;Node9</title>
<path fill="none" stroke="midnightblue" d="M416.55,-582.19C421.21,-573.26 426.27,-563.53 431.41,-553.68"/>
<polygon fill="none" stroke="midnightblue" points="413.38,-580.71 411.86,-591.19 419.58,-583.94 413.38,-580.71"/>
</g>
<!-- Node8 -->
<g id="node8" class="node">
<title>Node8</title>
<g id="a_node8"><a xlink:href="structGraphTypeTraits.html" target="_top" xlink:title=" ">
<polygon fill="white" stroke="black" points="333,-707.5 333,-764.5 456,-764.5 456,-707.5 333,-707.5"/>
<text text-anchor="middle" x="394.5" y="-752.5" font-family="Helvetica,sans-Serif" font-size="10.00">GraphTypeTraits&lt; T &gt;</text>
<polyline fill="none" stroke="black" points="333,-745.5 456,-745.5 "/>
<text text-anchor="middle" x="394.5" y="-733.5" font-family="Helvetica,sans-Serif" font-size="10.00"> </text>
<polyline fill="none" stroke="black" points="333,-726.5 456,-726.5 "/>
<text text-anchor="middle" x="394.5" y="-714.5" font-family="Helvetica,sans-Serif" font-size="10.00"> </text>
</a>
</g>
</g>
<!-- Node8&#45;&gt;Node7 -->
<g id="edge7" class="edge">
<title>Node8&#45;&gt;Node7</title>
<path fill="none" stroke="orange" d="M394.5,-696.99C394.5,-684.77 394.5,-671.35 394.5,-659.52"/>
<polygon fill="orange" stroke="orange" points="391,-697.34 394.5,-707.34 398,-697.34 391,-697.34"/>
<text text-anchor="middle" x="437.5" y="-681" font-family="Helvetica,sans-Serif" font-size="10.00"> &lt; unsigned int &gt;</text>
</g>
<!-- Node9&#45;&gt;Node6 -->
<g id="edge8" class="edge">
<title>Node9&#45;&gt;Node6</title>
<path fill="none" stroke="orange" d="M448.66,-376.44C445.17,-363.93 441.59,-351.12 438.12,-338.69"/>
<polygon fill="orange" stroke="orange" points="445.38,-377.7 451.44,-386.39 452.12,-375.82 445.38,-377.7"/>
<text text-anchor="middle" x="488.5" y="-360" font-family="Helvetica,sans-Serif" font-size="10.00"> &lt; unsigned int &gt;</text>
</g>
</g>
</svg>
        <g id="navigator" transform="translate(0 0)" fill="#404254">
                <rect fill="#f2f5e9" fill-opacity="0.5" stroke="#606060" stroke-width=".5" x="0" y="0" width="60" height="60"/>
                <use id="zoomplus" xlink:href="#zoomPlus" x="17" y="9" onmousedown="handleZoom(evt,'in')"/>
                <use id="zoomminus" xlink:href="#zoomMin" x="42" y="9" onmousedown="handleZoom(evt,'out')"/>
                <use id="reset" xlink:href="#resetDef" x="30" y="36" onmousedown="handleReset()"/>
                <g id="arrowUp" xlink:href="#dirArrow" transform="translate(30 24)" onmousedown="handlePan(0,-1)">
                  <use xlink:href="#rim" fill="#404040">
                        <set attributeName="fill" to="#808080" begin="arrowUp.mouseover" end="arrowUp.mouseout"/>
                  </use>
                  <path fill="none" stroke="white" stroke-width="1.5" d="M0,-3.0v7 M-2.5,-0.5L0,-3.0L2.5,-0.5"/>
                </g>
                <g id="arrowRight" xlink:href="#dirArrow" transform="rotate(90) translate(36 -43)" onmousedown="handlePan(1,0)">
                  <use xlink:href="#rim" fill="#404040">
                        <set attributeName="fill" to="#808080" begin="arrowRight.mouseover" end="arrowRight.mouseout"/>
                  </use>
                  <path fill="none" stroke="white" stroke-width="1.5" d="M0,-3.0v7 M-2.5,-0.5L0,-3.0L2.5,-0.5"/>
                </g>
                <g id="arrowDown" xlink:href="#dirArrow" transform="rotate(180) translate(-30 -48)" onmousedown="handlePan(0,1)">
                  <use xlink:href="#rim" fill="#404040">
                        <set attributeName="fill" to="#808080" begin="arrowDown.mouseover" end="arrowDown.mouseout"/>
                  </use>
                  <path fill="none" stroke="white" stroke-width="1.5" d="M0,-3.0v7 M-2.5,-0.5L0,-3.0L2.5,-0.5"/>
                </g>
                <g id="arrowLeft" xlink:href="#dirArrow" transform="rotate(270) translate(-36 17)" onmousedown="handlePan(-1,0)">
                  <use xlink:href="#rim" fill="#404040">
                        <set attributeName="fill" to="#808080" begin="arrowLeft.mouseover" end="arrowLeft.mouseout"/>
                  </use>
                  <path fill="none" stroke="white" stroke-width="1.5" d="M0,-3.0v7 M-2.5,-0.5L0,-3.0L2.5,-0.5"/>
                </g>
        </g>
        <svg viewBox="0 0 15 15" width="100%" height="30px" preserveAspectRatio="xMaxYMin meet">
         <g id="arrow_out" transform="scale(0.3 0.3)">
          <a xlink:href="classInitFLM__coll__graph_org.svg" target="_base">
           <rect id="button" ry="5" rx="5" y="6" x="6" height="38" width="38"
                fill="#f2f5e9" fill-opacity="0.5" stroke="#606060" stroke-width="1.0"/>
           <path id="arrow"
             d="M 11.500037,31.436501 C 11.940474,20.09759 22.043105,11.32322 32.158766,21.979434 L 37.068811,17.246167 C 37.068811,17.246167 37.088388,32 37.088388,32 L 22.160133,31.978069 C 22.160133,31.978069 26.997745,27.140456 26.997745,27.140456 C 18.528582,18.264221 13.291696,25.230495 11.500037,31.436501 z"
             style="fill:#404040;"/>
          </a>
         </g>
        </svg>
</svg>
