<?xml version="1.0" encoding="UTF-8" standalone="no"?>
<!DOCTYPE svg PUBLIC "-//W3C//DTD SVG 1.1//EN"
 "http://www.w3.org/Graphics/SVG/1.1/DTD/svg11.dtd">
<!-- Generated by graphviz version 2.43.0 (0)
 -->
<!-- Title: Precision&lt; CompleteStructure, T &gt; Pages: 1 -->
<svg width="200pt" height="281pt"
 viewBox="0.00 0.00 199.50 281.00" xmlns="http://www.w3.org/2000/svg" xmlns:xlink="http://www.w3.org/1999/xlink">
<g id="graph0" class="graph" transform="scale(1 1) rotate(0) translate(4 277)">
<title>Precision&lt; CompleteStructure, T &gt;</title>
<polygon fill="white" stroke="transparent" points="-4,4 -4,-277 195.5,-277 195.5,4 -4,4"/>
<!-- Node1 -->
<g id="node1" class="node">
<title>Node1</title>
<g id="a_node1"><a xlink:title=" ">
<polygon fill="#bfbfbf" stroke="black" points="0,-0.5 0,-167.5 187,-167.5 187,-0.5 0,-0.5"/>
<text text-anchor="middle" x="93.5" y="-155.5" font-family="Helvetica,sans-Serif" font-size="10.00">Precision&lt; CompleteStructure, T &gt;</text>
<polyline fill="none" stroke="black" points="0,-148.5 187,-148.5 "/>
<text text-anchor="middle" x="93.5" y="-136.5" font-family="Helvetica,sans-Serif" font-size="10.00"> </text>
<polyline fill="none" stroke="black" points="0,-129.5 187,-129.5 "/>
<text text-anchor="start" x="8" y="-117.5" font-family="Helvetica,sans-Serif" font-size="10.00">+ Precision()</text>
<text text-anchor="start" x="8" y="-106.5" font-family="Helvetica,sans-Serif" font-size="10.00">+ Precision()</text>
<text text-anchor="start" x="8" y="-95.5" font-family="Helvetica,sans-Serif" font-size="10.00">+ Precision()</text>
<text text-anchor="start" x="8" y="-84.5" font-family="Helvetica,sans-Serif" font-size="10.00">+ Precision()</text>
<text text-anchor="start" x="8" y="-73.5" font-family="Helvetica,sans-Serif" font-size="10.00">+ Precision()</text>
<text text-anchor="start" x="8" y="-62.5" font-family="Helvetica,sans-Serif" font-size="10.00">+ Precision()</text>
<text text-anchor="start" x="8" y="-51.5" font-family="Helvetica,sans-Serif" font-size="10.00">+ Precision()</text>
<text text-anchor="start" x="8" y="-40.5" font-family="Helvetica,sans-Serif" font-size="10.00">+ Precision()</text>
<text text-anchor="start" x="8" y="-29.5" font-family="Helvetica,sans-Serif" font-size="10.00">+ get_upper_Chol()</text>
<text text-anchor="start" x="8" y="-18.5" font-family="Helvetica,sans-Serif" font-size="10.00">+ get_upper_Chol()</text>
<text text-anchor="start" x="8" y="-7.5" font-family="Helvetica,sans-Serif" font-size="10.00">and 18 more...</text>
</a>
</g>
</g>
<!-- Node2 -->
<g id="node2" class="node">
<title>Node2</title>
<g id="a_node2"><a xlink:href="structPrecisionTraits.html" target="_top" xlink:title=" ">
<polygon fill="white" stroke="black" points="10,-215.5 10,-272.5 97,-272.5 97,-215.5 10,-215.5"/>
<text text-anchor="middle" x="53.5" y="-260.5" font-family="Helvetica,sans-Serif" font-size="10.00">PrecisionTraits</text>
<polyline fill="none" stroke="black" points="10,-253.5 97,-253.5 "/>
<text text-anchor="middle" x="53.5" y="-241.5" font-family="Helvetica,sans-Serif" font-size="10.00"> </text>
<polyline fill="none" stroke="black" points="10,-234.5 97,-234.5 "/>
<text text-anchor="middle" x="53.5" y="-222.5" font-family="Helvetica,sans-Serif" font-size="10.00"> </text>
</a>
</g>
</g>
<!-- Node2&#45;&gt;Node1 -->
<g id="edge1" class="edge">
<title>Node2&#45;&gt;Node1</title>
<path fill="none" stroke="#8b1a1a" d="M62.92,-205.77C65.86,-194.19 69.21,-180.93 72.6,-167.54"/>
<polygon fill="none" stroke="#8b1a1a" points="59.53,-204.93 60.47,-215.48 66.31,-206.64 59.53,-204.93"/>
</g>
<!-- Node3 -->
<g id="node3" class="node">
<title>Node3</title>
<g id="a_node3"><a xlink:title=" ">
<polygon fill="white" stroke="#bfbfbf" points="115.5,-215.5 115.5,-272.5 153.5,-272.5 153.5,-215.5 115.5,-215.5"/>
<text text-anchor="middle" x="134.5" y="-260.5" font-family="Helvetica,sans-Serif" font-size="10.00">bool</text>
<polyline fill="none" stroke="#bfbfbf" points="115.5,-253.5 153.5,-253.5 "/>
<text text-anchor="middle" x="134.5" y="-241.5" font-family="Helvetica,sans-Serif" font-size="10.00"> </text>
<polyline fill="none" stroke="#bfbfbf" points="115.5,-234.5 153.5,-234.5 "/>
<text text-anchor="middle" x="134.5" y="-222.5" font-family="Helvetica,sans-Serif" font-size="10.00"> </text>
</a>
</g>
</g>
<!-- Node3&#45;&gt;Node1 -->
<g id="edge2" class="edge">
<title>Node3&#45;&gt;Node1</title>
<path fill="none" stroke="#404040" d="M127.36,-215.48C124.64,-205.02 121.37,-192.42 117.95,-179.23"/>
<polygon fill="none" stroke="#404040" points="117.93,-179.15 112.55,-174.35 114.92,-167.54 120.3,-172.34 117.93,-179.15"/>
<text text-anchor="middle" x="156.5" y="-189" font-family="Helvetica,sans-Serif" font-size="10.00"> +isFactorized</text>
</g>
</g>
</svg>
