<?xml version="1.0" encoding="UTF-8" standalone="no"?>
<!DOCTYPE svg PUBLIC "-//W3C//DTD SVG 1.1//EN"
 "http://www.w3.org/Graphics/SVG/1.1/DTD/svg11.dtd">
<!-- Generated by graphviz version 2.43.0 (0)
 -->
<!-- Title: DoubleReversibleJumpsMH&lt; GraphStructure, T &gt; Pages: 1 -->
<svg width="684pt" height="1115pt"
 viewBox="0.00 0.00 684.00 1115.00" xmlns="http://www.w3.org/2000/svg" xmlns:xlink="http://www.w3.org/1999/xlink">
<g id="graph0" class="graph" transform="scale(1 1) rotate(0) translate(4 1111)">
<title>DoubleReversibleJumpsMH&lt; GraphStructure, T &gt;</title>
<polygon fill="white" stroke="transparent" points="-4,4 -4,-1111 680,-1111 680,4 -4,4"/>
<!-- Node1 -->
<g id="node1" class="node">
<title>Node1</title>
<g id="a_node1"><a xlink:title=" ">
<polygon fill="#bfbfbf" stroke="black" points="330,-0.5 330,-90.5 498,-90.5 498,-0.5 330,-0.5"/>
<text text-anchor="start" x="338" y="-78.5" font-family="Helvetica,sans-Serif" font-size="10.00">DoubleReversibleJumpsMH</text>
<text text-anchor="middle" x="414" y="-67.5" font-family="Helvetica,sans-Serif" font-size="10.00">&lt; GraphStructure, T &gt;</text>
<polyline fill="none" stroke="black" points="330,-60.5 498,-60.5 "/>
<text text-anchor="middle" x="414" y="-48.5" font-family="Helvetica,sans-Serif" font-size="10.00"> </text>
<polyline fill="none" stroke="black" points="330,-41.5 498,-41.5 "/>
<text text-anchor="start" x="338" y="-29.5" font-family="Helvetica,sans-Serif" font-size="10.00">+ DoubleReversibleJumpsMH()</text>
<text text-anchor="start" x="338" y="-18.5" font-family="Helvetica,sans-Serif" font-size="10.00">+ DoubleReversibleJumpsMH()</text>
<text text-anchor="start" x="338" y="-7.5" font-family="Helvetica,sans-Serif" font-size="10.00">+ operator()()</text>
</a>
</g>
</g>
<!-- Node2 -->
<g id="node2" class="node">
<title>Node2</title>
<g id="a_node2"><a xlink:href="classReversibleJumpsMH.html" target="_top" xlink:title=" ">
<polygon fill="white" stroke="black" points="127.5,-128.5 127.5,-229.5 276.5,-229.5 276.5,-128.5 127.5,-128.5"/>
<text text-anchor="start" x="135.5" y="-217.5" font-family="Helvetica,sans-Serif" font-size="10.00">ReversibleJumpsMH&lt;</text>
<text text-anchor="middle" x="202" y="-206.5" font-family="Helvetica,sans-Serif" font-size="10.00"> GraphType, unsigned int &gt;</text>
<polyline fill="none" stroke="black" points="127.5,-199.5 276.5,-199.5 "/>
<text text-anchor="middle" x="202" y="-187.5" font-family="Helvetica,sans-Serif" font-size="10.00"> </text>
<polyline fill="none" stroke="black" points="127.5,-180.5 276.5,-180.5 "/>
<text text-anchor="start" x="135.5" y="-168.5" font-family="Helvetica,sans-Serif" font-size="10.00">+ ReversibleJumpsMH()</text>
<text text-anchor="start" x="135.5" y="-157.5" font-family="Helvetica,sans-Serif" font-size="10.00">+ ReversibleJumpsMH()</text>
<text text-anchor="start" x="135.5" y="-146.5" font-family="Helvetica,sans-Serif" font-size="10.00">+ RJ()</text>
<text text-anchor="start" x="135.5" y="-135.5" font-family="Helvetica,sans-Serif" font-size="10.00">+ operator()()</text>
</a>
</g>
</g>
<!-- Node2&#45;&gt;Node1 -->
<g id="edge1" class="edge">
<title>Node2&#45;&gt;Node1</title>
<path fill="none" stroke="midnightblue" d="M285.38,-126.28C304.36,-114.51 324.36,-102.1 342.78,-90.68"/>
<polygon fill="none" stroke="midnightblue" points="283.4,-123.39 276.74,-131.64 287.09,-129.34 283.4,-123.39"/>
</g>
<!-- Node3 -->
<g id="node3" class="node">
<title>Node3</title>
<g id="a_node3"><a xlink:href="classGGM.html" target="_top" xlink:title=" ">
<polygon fill="white" stroke="black" points="257,-437.5 257,-626.5 411,-626.5 411,-437.5 257,-437.5"/>
<text text-anchor="start" x="265" y="-614.5" font-family="Helvetica,sans-Serif" font-size="10.00">GGM&lt; GraphType, unsigned</text>
<text text-anchor="middle" x="334" y="-603.5" font-family="Helvetica,sans-Serif" font-size="10.00"> int &gt;</text>
<polyline fill="none" stroke="black" points="257,-596.5 411,-596.5 "/>
<text text-anchor="middle" x="334" y="-584.5" font-family="Helvetica,sans-Serif" font-size="10.00"> </text>
<polyline fill="none" stroke="black" points="257,-577.5 411,-577.5 "/>
<text text-anchor="start" x="265" y="-565.5" font-family="Helvetica,sans-Serif" font-size="10.00">+ GGM()</text>
<text text-anchor="start" x="265" y="-554.5" font-family="Helvetica,sans-Serif" font-size="10.00">+ GGM()</text>
<text text-anchor="start" x="265" y="-543.5" font-family="Helvetica,sans-Serif" font-size="10.00">+ GGM()</text>
<text text-anchor="start" x="265" y="-532.5" font-family="Helvetica,sans-Serif" font-size="10.00">+ GGM()</text>
<text text-anchor="start" x="265" y="-521.5" font-family="Helvetica,sans-Serif" font-size="10.00">+ operator=()</text>
<text text-anchor="start" x="265" y="-510.5" font-family="Helvetica,sans-Serif" font-size="10.00">+ operator=()</text>
<text text-anchor="start" x="265" y="-499.5" font-family="Helvetica,sans-Serif" font-size="10.00">+ get_shape()</text>
<text text-anchor="start" x="265" y="-488.5" font-family="Helvetica,sans-Serif" font-size="10.00">+ get_inv_scale()</text>
<text text-anchor="start" x="265" y="-477.5" font-family="Helvetica,sans-Serif" font-size="10.00">+ init_precision()</text>
<text text-anchor="start" x="265" y="-466.5" font-family="Helvetica,sans-Serif" font-size="10.00">+ propose_new_graph()</text>
<text text-anchor="start" x="265" y="-455.5" font-family="Helvetica,sans-Serif" font-size="10.00">+ operator()()</text>
<text text-anchor="start" x="265" y="-444.5" font-family="Helvetica,sans-Serif" font-size="10.00">+ ~GGM()</text>
</a>
</g>
</g>
<!-- Node3&#45;&gt;Node2 -->
<g id="edge2" class="edge">
<title>Node3&#45;&gt;Node2</title>
<path fill="none" stroke="midnightblue" d="M351.83,-427.33C356.24,-370.46 352.37,-300.96 320,-248 309.7,-231.16 293.57,-218.06 276.5,-208.07"/>
<polygon fill="none" stroke="midnightblue" points="348.33,-427.17 350.95,-437.43 355.3,-427.77 348.33,-427.17"/>
</g>
<!-- Node10 -->
<g id="node10" class="node">
<title>Node10</title>
<g id="a_node10"><a xlink:href="classReversibleJumpsMH.html" target="_top" xlink:title=" ">
<polygon fill="white" stroke="black" points="146,-288.5 146,-389.5 280,-389.5 280,-288.5 146,-288.5"/>
<text text-anchor="start" x="154" y="-377.5" font-family="Helvetica,sans-Serif" font-size="10.00">ReversibleJumpsMH&lt;</text>
<text text-anchor="middle" x="213" y="-366.5" font-family="Helvetica,sans-Serif" font-size="10.00"> GraphStructure, T &gt;</text>
<polyline fill="none" stroke="black" points="146,-359.5 280,-359.5 "/>
<text text-anchor="middle" x="213" y="-347.5" font-family="Helvetica,sans-Serif" font-size="10.00"> </text>
<polyline fill="none" stroke="black" points="146,-340.5 280,-340.5 "/>
<text text-anchor="start" x="154" y="-328.5" font-family="Helvetica,sans-Serif" font-size="10.00">+ ReversibleJumpsMH()</text>
<text text-anchor="start" x="154" y="-317.5" font-family="Helvetica,sans-Serif" font-size="10.00">+ ReversibleJumpsMH()</text>
<text text-anchor="start" x="154" y="-306.5" font-family="Helvetica,sans-Serif" font-size="10.00">+ RJ()</text>
<text text-anchor="start" x="154" y="-295.5" font-family="Helvetica,sans-Serif" font-size="10.00">+ operator()()</text>
</a>
</g>
</g>
<!-- Node3&#45;&gt;Node10 -->
<g id="edge16" class="edge">
<title>Node3&#45;&gt;Node10</title>
<path fill="none" stroke="midnightblue" d="M296.26,-428.4C292.46,-421.31 288.37,-414.44 284,-408 279.78,-401.79 274.92,-395.7 269.75,-389.88"/>
<polygon fill="none" stroke="midnightblue" points="293.24,-430.18 300.92,-437.48 299.47,-426.99 293.24,-430.18"/>
</g>
<!-- Node4 -->
<g id="node4" class="node">
<title>Node4</title>
<g id="a_node4"><a xlink:href="structGGMTraits.html" target="_top" xlink:title=" ">
<polygon fill="white" stroke="black" points="454.5,-922.5 454.5,-990.5 587.5,-990.5 587.5,-922.5 454.5,-922.5"/>
<text text-anchor="start" x="462.5" y="-978.5" font-family="Helvetica,sans-Serif" font-size="10.00">GGMTraits&lt; GraphType,</text>
<text text-anchor="middle" x="521" y="-967.5" font-family="Helvetica,sans-Serif" font-size="10.00"> unsigned int &gt;</text>
<polyline fill="none" stroke="black" points="454.5,-960.5 587.5,-960.5 "/>
<text text-anchor="middle" x="521" y="-948.5" font-family="Helvetica,sans-Serif" font-size="10.00"> </text>
<polyline fill="none" stroke="black" points="454.5,-941.5 587.5,-941.5 "/>
<text text-anchor="middle" x="521" y="-929.5" font-family="Helvetica,sans-Serif" font-size="10.00"> </text>
</a>
</g>
</g>
<!-- Node4&#45;&gt;Node1 -->
<g id="edge19" class="edge">
<title>Node4&#45;&gt;Node1</title>
<path fill="none" stroke="#404040" d="M560.43,-922.5C566.34,-916.66 572.09,-910.39 577,-904 596.91,-878.1 637,-779.33 637,-775.5 637,-775.5 637,-775.5 637,-178 637,-115.09 570.33,-81.66 509.89,-64.28"/>
<polygon fill="none" stroke="#404040" points="509.88,-64.28 503.04,-66.56 498.31,-61.12 505.15,-58.84 509.88,-64.28"/>
<text text-anchor="middle" x="656.5" y="-411" font-family="Helvetica,sans-Serif" font-size="10.00"> #Waux</text>
</g>
<!-- Node4&#45;&gt;Node3 -->
<g id="edge3" class="edge">
<title>Node4&#45;&gt;Node3</title>
<path fill="none" stroke="midnightblue" d="M551.93,-913.8C561.24,-898.86 570.25,-881.4 575,-864 595.96,-787.25 605.44,-758.5 575,-685 546.94,-617.25 470.55,-576.99 411.23,-555.11"/>
<polygon fill="none" stroke="midnightblue" points="548.94,-911.98 546.44,-922.28 554.82,-915.79 548.94,-911.98"/>
</g>
<!-- Node4&#45;&gt;Node3 -->
<g id="edge7" class="edge">
<title>Node4&#45;&gt;Node3</title>
<path fill="none" stroke="#404040" d="M519.82,-922.48C516.91,-847.42 508.62,-668.6 495,-645 477.95,-615.45 449.59,-591.87 421.37,-574.12"/>
<polygon fill="none" stroke="#404040" points="421.27,-574.06 414.07,-574.37 411.01,-567.85 418.21,-567.53 421.27,-574.06"/>
<text text-anchor="middle" x="542" y="-777.5" font-family="Helvetica,sans-Serif" font-size="10.00"> #Kprior</text>
<text text-anchor="middle" x="542" y="-766.5" font-family="Helvetica,sans-Serif" font-size="10.00">#ptr_prior</text>
</g>
<!-- Node8 -->
<g id="node8" class="node">
<title>Node8</title>
<g id="a_node8"><a xlink:href="classGGM.html" target="_top" xlink:title=" ">
<polygon fill="white" stroke="black" points="336.5,-685.5 336.5,-863.5 485.5,-863.5 485.5,-685.5 336.5,-685.5"/>
<text text-anchor="middle" x="411" y="-851.5" font-family="Helvetica,sans-Serif" font-size="10.00">GGM&lt; GraphStructure, T &gt;</text>
<polyline fill="none" stroke="black" points="336.5,-844.5 485.5,-844.5 "/>
<text text-anchor="middle" x="411" y="-832.5" font-family="Helvetica,sans-Serif" font-size="10.00"> </text>
<polyline fill="none" stroke="black" points="336.5,-825.5 485.5,-825.5 "/>
<text text-anchor="start" x="344.5" y="-813.5" font-family="Helvetica,sans-Serif" font-size="10.00">+ GGM()</text>
<text text-anchor="start" x="344.5" y="-802.5" font-family="Helvetica,sans-Serif" font-size="10.00">+ GGM()</text>
<text text-anchor="start" x="344.5" y="-791.5" font-family="Helvetica,sans-Serif" font-size="10.00">+ GGM()</text>
<text text-anchor="start" x="344.5" y="-780.5" font-family="Helvetica,sans-Serif" font-size="10.00">+ GGM()</text>
<text text-anchor="start" x="344.5" y="-769.5" font-family="Helvetica,sans-Serif" font-size="10.00">+ operator=()</text>
<text text-anchor="start" x="344.5" y="-758.5" font-family="Helvetica,sans-Serif" font-size="10.00">+ operator=()</text>
<text text-anchor="start" x="344.5" y="-747.5" font-family="Helvetica,sans-Serif" font-size="10.00">+ get_shape()</text>
<text text-anchor="start" x="344.5" y="-736.5" font-family="Helvetica,sans-Serif" font-size="10.00">+ get_inv_scale()</text>
<text text-anchor="start" x="344.5" y="-725.5" font-family="Helvetica,sans-Serif" font-size="10.00">+ init_precision()</text>
<text text-anchor="start" x="344.5" y="-714.5" font-family="Helvetica,sans-Serif" font-size="10.00">+ propose_new_graph()</text>
<text text-anchor="start" x="344.5" y="-703.5" font-family="Helvetica,sans-Serif" font-size="10.00">+ operator()()</text>
<text text-anchor="start" x="344.5" y="-692.5" font-family="Helvetica,sans-Serif" font-size="10.00">+ ~GGM()</text>
</a>
</g>
</g>
<!-- Node4&#45;&gt;Node8 -->
<g id="edge9" class="edge">
<title>Node4&#45;&gt;Node8</title>
<path fill="none" stroke="midnightblue" d="M446.14,-920.49C440.4,-915.6 435.21,-910.12 431,-904 422.81,-892.1 417.46,-878.11 414.05,-863.83"/>
<polygon fill="none" stroke="midnightblue" points="444.24,-923.44 454.28,-926.81 448.53,-917.91 444.24,-923.44"/>
</g>
<!-- Node4&#45;&gt;Node8 -->
<g id="edge12" class="edge">
<title>Node4&#45;&gt;Node8</title>
<path fill="none" stroke="#404040" d="M473.33,-922.23C467.3,-916.63 461.63,-910.51 457,-904 450.64,-895.07 445.08,-885.17 440.24,-874.94"/>
<polygon fill="none" stroke="#404040" points="440.13,-874.71 434.04,-870.85 435.26,-863.74 441.35,-867.6 440.13,-874.71"/>
<text text-anchor="middle" x="482" y="-896" font-family="Helvetica,sans-Serif" font-size="10.00"> #Kprior</text>
<text text-anchor="middle" x="482" y="-885" font-family="Helvetica,sans-Serif" font-size="10.00">#ptr_prior</text>
</g>
<!-- Node5 -->
<g id="node5" class="node">
<title>Node5</title>
<g id="a_node5"><a xlink:href="structGGMTraits.html" target="_top" xlink:title=" ">
<polygon fill="white" stroke="black" points="433.5,-1049.5 433.5,-1106.5 608.5,-1106.5 608.5,-1049.5 433.5,-1049.5"/>
<text text-anchor="middle" x="521" y="-1094.5" font-family="Helvetica,sans-Serif" font-size="10.00">GGMTraits&lt; GraphStructure, T &gt;</text>
<polyline fill="none" stroke="black" points="433.5,-1087.5 608.5,-1087.5 "/>
<text text-anchor="middle" x="521" y="-1075.5" font-family="Helvetica,sans-Serif" font-size="10.00"> </text>
<polyline fill="none" stroke="black" points="433.5,-1068.5 608.5,-1068.5 "/>
<text text-anchor="middle" x="521" y="-1056.5" font-family="Helvetica,sans-Serif" font-size="10.00"> </text>
</a>
</g>
</g>
<!-- Node5&#45;&gt;Node4 -->
<g id="edge4" class="edge">
<title>Node5&#45;&gt;Node4</title>
<path fill="none" stroke="orange" d="M521,-1038.95C521,-1023.4 521,-1005.58 521,-990.59"/>
<polygon fill="orange" stroke="orange" points="517.5,-1039.28 521,-1049.28 524.5,-1039.28 517.5,-1039.28"/>
<text text-anchor="start" x="521" y="-1023" font-family="Helvetica,sans-Serif" font-size="10.00"> &lt; GraphType, unsigned</text>
<text text-anchor="middle" x="579.5" y="-1012" font-family="Helvetica,sans-Serif" font-size="10.00"> int &gt;</text>
</g>
<!-- Node6 -->
<g id="node6" class="node">
<title>Node6</title>
<g id="a_node6"><a xlink:href="classdouble.html" target="_top" xlink:title=" ">
<polygon fill="white" stroke="black" points="68,-928 68,-985 118,-985 118,-928 68,-928"/>
<text text-anchor="middle" x="93" y="-973" font-family="Helvetica,sans-Serif" font-size="10.00">double</text>
<polyline fill="none" stroke="black" points="68,-966 118,-966 "/>
<text text-anchor="middle" x="93" y="-954" font-family="Helvetica,sans-Serif" font-size="10.00"> </text>
<polyline fill="none" stroke="black" points="68,-947 118,-947 "/>
<text text-anchor="middle" x="93" y="-935" font-family="Helvetica,sans-Serif" font-size="10.00"> </text>
</a>
</g>
</g>
<!-- Node6&#45;&gt;Node2 -->
<g id="edge13" class="edge">
<title>Node6&#45;&gt;Node2</title>
<path fill="none" stroke="#404040" d="M68.08,-927.86C40.53,-894.35 0,-834.95 0,-775.5 0,-775.5 0,-775.5 0,-338 0,-275.31 61.1,-233.79 116.1,-209.11"/>
<polygon fill="none" stroke="#404040" points="116.34,-209 120.26,-202.95 127.36,-204.24 123.43,-210.3 116.34,-209"/>
<text text-anchor="middle" x="21" y="-529.5" font-family="Helvetica,sans-Serif" font-size="10.00"> #sigma</text>
</g>
<!-- Node6&#45;&gt;Node3 -->
<g id="edge5" class="edge">
<title>Node6&#45;&gt;Node3</title>
<path fill="none" stroke="#404040" d="M91.9,-927.91C91.18,-875.8 96.15,-761.3 148,-685 174.54,-645.95 200.1,-656.45 237,-627 240.51,-624.2 244.03,-621.3 247.55,-618.32"/>
<polygon fill="none" stroke="#404040" points="247.76,-618.13 249.68,-611.18 256.83,-610.28 254.92,-617.23 247.76,-618.13"/>
<text text-anchor="middle" x="193" y="-772" font-family="Helvetica,sans-Serif" font-size="10.00"> #trGwishSampler</text>
</g>
<!-- Node6&#45;&gt;Node8 -->
<g id="edge10" class="edge">
<title>Node6&#45;&gt;Node8</title>
<path fill="none" stroke="#404040" d="M118.44,-936.44C142.36,-919.47 179.82,-895.35 216,-882 260.83,-865.46 279.51,-885.87 322,-864 323.39,-863.28 324.77,-862.54 326.14,-861.77"/>
<polygon fill="none" stroke="#404040" points="326.29,-861.68 329.28,-855.12 336.49,-855.36 333.5,-861.92 326.29,-861.68"/>
<text text-anchor="middle" x="261" y="-890.5" font-family="Helvetica,sans-Serif" font-size="10.00"> #trGwishSampler</text>
</g>
<!-- Node6&#45;&gt;Node10 -->
<g id="edge17" class="edge">
<title>Node6&#45;&gt;Node10</title>
<path fill="none" stroke="#404040" d="M89.34,-927.96C83.53,-878.74 74.39,-772.62 90,-685 108.37,-581.88 154.03,-468.63 184.25,-400.98"/>
<polygon fill="none" stroke="#404040" points="184.4,-400.64 183.22,-393.53 189.33,-389.7 190.51,-396.82 184.4,-400.64"/>
<text text-anchor="middle" x="118" y="-653.5" font-family="Helvetica,sans-Serif" font-size="10.00"> #sigma</text>
</g>
<!-- Node7 -->
<g id="node7" class="node">
<title>Node7</title>
<g id="a_node7"><a xlink:title=" ">
<polygon fill="white" stroke="#bfbfbf" points="214,-922.5 214,-990.5 324,-990.5 324,-922.5 214,-922.5"/>
<text text-anchor="start" x="222" y="-978.5" font-family="Helvetica,sans-Serif" font-size="10.00">pair&lt; unsigned int,</text>
<text text-anchor="middle" x="269" y="-967.5" font-family="Helvetica,sans-Serif" font-size="10.00"> unsigned int &gt;</text>
<polyline fill="none" stroke="#bfbfbf" points="214,-960.5 324,-960.5 "/>
<text text-anchor="middle" x="269" y="-948.5" font-family="Helvetica,sans-Serif" font-size="10.00"> </text>
<polyline fill="none" stroke="#bfbfbf" points="214,-941.5 324,-941.5 "/>
<text text-anchor="middle" x="269" y="-929.5" font-family="Helvetica,sans-Serif" font-size="10.00"> </text>
</a>
</g>
</g>
<!-- Node7&#45;&gt;Node3 -->
<g id="edge6" class="edge">
<title>Node7&#45;&gt;Node3</title>
<path fill="none" stroke="#404040" d="M260.5,-922.42C248.66,-870.84 230.92,-768.49 252,-685 256.02,-669.09 262.06,-653.04 269.09,-637.63"/>
<polygon fill="none" stroke="#404040" points="269.21,-637.38 268.17,-630.24 274.36,-626.54 275.4,-633.68 269.21,-637.38"/>
<text text-anchor="middle" x="290" y="-772" font-family="Helvetica,sans-Serif" font-size="10.00"> #selected_link</text>
</g>
<!-- Node7&#45;&gt;Node8 -->
<g id="edge11" class="edge">
<title>Node7&#45;&gt;Node8</title>
<path fill="none" stroke="#404040" d="M295.04,-922.49C306.12,-908.44 319.68,-891.25 333.58,-873.64"/>
<polygon fill="none" stroke="#404040" points="333.88,-873.26 334.46,-866.07 341.31,-863.84 340.74,-871.02 333.88,-873.26"/>
<text text-anchor="middle" x="361" y="-890.5" font-family="Helvetica,sans-Serif" font-size="10.00"> #selected_link</text>
</g>
<!-- Node8&#45;&gt;Node3 -->
<g id="edge8" class="edge">
<title>Node8&#45;&gt;Node3</title>
<path fill="none" stroke="orange" d="M379.59,-675.4C374.46,-659.36 369.15,-642.78 364.04,-626.84"/>
<polygon fill="orange" stroke="orange" points="376.38,-676.86 382.77,-685.31 383.05,-674.72 376.38,-676.86"/>
<text text-anchor="start" x="374" y="-659" font-family="Helvetica,sans-Serif" font-size="10.00"> &lt; GraphType, unsigned</text>
<text text-anchor="middle" x="432.5" y="-648" font-family="Helvetica,sans-Serif" font-size="10.00"> int &gt;</text>
</g>
<!-- Node9 -->
<g id="node9" class="node">
<title>Node9</title>
<g id="a_node9"><a xlink:href="classunsigned_01int.html" target="_top" xlink:title=" ">
<polygon fill="white" stroke="black" points="50.5,-310.5 50.5,-367.5 127.5,-367.5 127.5,-310.5 50.5,-310.5"/>
<text text-anchor="middle" x="89" y="-355.5" font-family="Helvetica,sans-Serif" font-size="10.00">unsigned int</text>
<polyline fill="none" stroke="black" points="50.5,-348.5 127.5,-348.5 "/>
<text text-anchor="middle" x="89" y="-336.5" font-family="Helvetica,sans-Serif" font-size="10.00"> </text>
<polyline fill="none" stroke="black" points="50.5,-329.5 127.5,-329.5 "/>
<text text-anchor="middle" x="89" y="-317.5" font-family="Helvetica,sans-Serif" font-size="10.00"> </text>
</a>
</g>
</g>
<!-- Node9&#45;&gt;Node2 -->
<g id="edge14" class="edge">
<title>Node9&#45;&gt;Node2</title>
<path fill="none" stroke="#404040" d="M98.47,-310.14C105.54,-291.56 116.32,-267.13 130,-248 132.25,-244.85 134.66,-241.73 137.19,-238.66"/>
<polygon fill="none" stroke="#404040" points="137.19,-238.66 138.11,-231.51 145.06,-229.61 144.14,-236.76 137.19,-238.66"/>
<text text-anchor="middle" x="163.5" y="-256.5" font-family="Helvetica,sans-Serif" font-size="10.00"> #MCiterPrior</text>
</g>
<!-- Node10&#45;&gt;Node2 -->
<g id="edge15" class="edge">
<title>Node10&#45;&gt;Node2</title>
<path fill="none" stroke="orange" d="M203.75,-278.22C203.47,-275.45 203.21,-272.7 203,-270 201.97,-256.91 201.51,-242.73 201.35,-229.57"/>
<polygon fill="orange" stroke="orange" points="200.29,-278.79 204.9,-288.32 207.25,-277.99 200.29,-278.79"/>
<text text-anchor="start" x="203" y="-262" font-family="Helvetica,sans-Serif" font-size="10.00"> &lt; GraphType, unsigned</text>
<text text-anchor="middle" x="261.5" y="-251" font-family="Helvetica,sans-Serif" font-size="10.00"> int &gt;</text>
</g>
<!-- Node11 -->
<g id="node11" class="node">
<title>Node11</title>
<g id="a_node11"><a xlink:title=" ">
<polygon fill="white" stroke="#bfbfbf" points="198.5,-503.5 198.5,-560.5 227.5,-560.5 227.5,-503.5 198.5,-503.5"/>
<text text-anchor="middle" x="213" y="-548.5" font-family="Helvetica,sans-Serif" font-size="10.00">int</text>
<polyline fill="none" stroke="#bfbfbf" points="198.5,-541.5 227.5,-541.5 "/>
<text text-anchor="middle" x="213" y="-529.5" font-family="Helvetica,sans-Serif" font-size="10.00"> </text>
<polyline fill="none" stroke="#bfbfbf" points="198.5,-522.5 227.5,-522.5 "/>
<text text-anchor="middle" x="213" y="-510.5" font-family="Helvetica,sans-Serif" font-size="10.00"> </text>
</a>
</g>
</g>
<!-- Node11&#45;&gt;Node10 -->
<g id="edge18" class="edge">
<title>Node11&#45;&gt;Node10</title>
<path fill="none" stroke="#404040" d="M213,-503.23C213,-476.78 213,-436.06 213,-401.9"/>
<polygon fill="none" stroke="#404040" points="213,-401.66 209,-395.66 213,-389.66 217,-395.66 213,-401.66"/>
<text text-anchor="middle" x="246.5" y="-411" font-family="Helvetica,sans-Serif" font-size="10.00"> #MCiterPrior</text>
</g>
</g>
</svg>
