<?xml version="1.0" encoding="UTF-8" standalone="no"?>
<!DOCTYPE svg PUBLIC "-//W3C//DTD SVG 1.1//EN"
 "http://www.w3.org/Graphics/SVG/1.1/DTD/svg11.dtd">
<!-- Generated by graphviz version 2.43.0 (0)
 -->
<!-- Title: UniformPrior&lt; GraphStructure, T &gt; Pages: 1 -->
<svg width="219pt" height="409pt"
 viewBox="0.00 0.00 218.50 409.00" xmlns="http://www.w3.org/2000/svg" xmlns:xlink="http://www.w3.org/1999/xlink">
<g id="graph0" class="graph" transform="scale(1 1) rotate(0) translate(4 405)">
<title>UniformPrior&lt; GraphStructure, T &gt;</title>
<polygon fill="white" stroke="transparent" points="-4,4 -4,-405 214.5,-405 214.5,4 -4,4"/>
<!-- Node1 -->
<g id="node1" class="node">
<title>Node1</title>
<g id="a_node1"><a xlink:title=" ">
<polygon fill="#bfbfbf" stroke="black" points="0,-0.5 0,-90.5 187,-90.5 187,-0.5 0,-0.5"/>
<text text-anchor="middle" x="93.5" y="-78.5" font-family="Helvetica,sans-Serif" font-size="10.00">UniformPrior&lt; GraphStructure, T &gt;</text>
<polyline fill="none" stroke="black" points="0,-71.5 187,-71.5 "/>
<text text-anchor="middle" x="93.5" y="-59.5" font-family="Helvetica,sans-Serif" font-size="10.00"> </text>
<polyline fill="none" stroke="black" points="0,-52.5 187,-52.5 "/>
<text text-anchor="start" x="8" y="-40.5" font-family="Helvetica,sans-Serif" font-size="10.00">+ Prob()</text>
<text text-anchor="start" x="8" y="-29.5" font-family="Helvetica,sans-Serif" font-size="10.00">+ ratio()</text>
<text text-anchor="start" x="8" y="-18.5" font-family="Helvetica,sans-Serif" font-size="10.00">+ log_ratio()</text>
<text text-anchor="start" x="8" y="-7.5" font-family="Helvetica,sans-Serif" font-size="10.00">+ clone()</text>
</a>
</g>
</g>
<!-- Node2 -->
<g id="node2" class="node">
<title>Node2</title>
<g id="a_node2"><a xlink:href="classGraphPrior.html" target="_top" xlink:title=" ">
<polygon fill="white" stroke="black" points="26.5,-128.5 26.5,-240.5 160.5,-240.5 160.5,-128.5 26.5,-128.5"/>
<text text-anchor="start" x="34.5" y="-228.5" font-family="Helvetica,sans-Serif" font-size="10.00">GraphPrior&lt; GraphType,</text>
<text text-anchor="middle" x="93.5" y="-217.5" font-family="Helvetica,sans-Serif" font-size="10.00"> unsigned int &gt;</text>
<polyline fill="none" stroke="black" points="26.5,-210.5 160.5,-210.5 "/>
<text text-anchor="middle" x="93.5" y="-198.5" font-family="Helvetica,sans-Serif" font-size="10.00"> </text>
<polyline fill="none" stroke="black" points="26.5,-191.5 160.5,-191.5 "/>
<text text-anchor="start" x="34.5" y="-179.5" font-family="Helvetica,sans-Serif" font-size="10.00">+ Prob()</text>
<text text-anchor="start" x="34.5" y="-168.5" font-family="Helvetica,sans-Serif" font-size="10.00">+ ratio()</text>
<text text-anchor="start" x="34.5" y="-157.5" font-family="Helvetica,sans-Serif" font-size="10.00">+ log_ratio()</text>
<text text-anchor="start" x="34.5" y="-146.5" font-family="Helvetica,sans-Serif" font-size="10.00">+ clone()</text>
<text text-anchor="start" x="34.5" y="-135.5" font-family="Helvetica,sans-Serif" font-size="10.00">+ ~GraphPrior()</text>
</a>
</g>
</g>
<!-- Node2&#45;&gt;Node1 -->
<g id="edge1" class="edge">
<title>Node2&#45;&gt;Node1</title>
<path fill="none" stroke="midnightblue" d="M93.5,-118.13C93.5,-108.83 93.5,-99.44 93.5,-90.67"/>
<polygon fill="none" stroke="midnightblue" points="90,-118.17 93.5,-128.17 97,-118.17 90,-118.17"/>
</g>
<!-- Node3 -->
<g id="node3" class="node">
<title>Node3</title>
<g id="a_node3"><a xlink:href="classGraphPrior.html" target="_top" xlink:title=" ">
<polygon fill="white" stroke="black" points="5.5,-299.5 5.5,-400.5 181.5,-400.5 181.5,-299.5 5.5,-299.5"/>
<text text-anchor="middle" x="93.5" y="-388.5" font-family="Helvetica,sans-Serif" font-size="10.00">GraphPrior&lt; GraphStructure, T &gt;</text>
<polyline fill="none" stroke="black" points="5.5,-381.5 181.5,-381.5 "/>
<text text-anchor="middle" x="93.5" y="-369.5" font-family="Helvetica,sans-Serif" font-size="10.00"> </text>
<polyline fill="none" stroke="black" points="5.5,-362.5 181.5,-362.5 "/>
<text text-anchor="start" x="13.5" y="-350.5" font-family="Helvetica,sans-Serif" font-size="10.00">+ Prob()</text>
<text text-anchor="start" x="13.5" y="-339.5" font-family="Helvetica,sans-Serif" font-size="10.00">+ ratio()</text>
<text text-anchor="start" x="13.5" y="-328.5" font-family="Helvetica,sans-Serif" font-size="10.00">+ log_ratio()</text>
<text text-anchor="start" x="13.5" y="-317.5" font-family="Helvetica,sans-Serif" font-size="10.00">+ clone()</text>
<text text-anchor="start" x="13.5" y="-306.5" font-family="Helvetica,sans-Serif" font-size="10.00">+ ~GraphPrior()</text>
</a>
</g>
</g>
<!-- Node3&#45;&gt;Node2 -->
<g id="edge2" class="edge">
<title>Node3&#45;&gt;Node2</title>
<path fill="none" stroke="orange" d="M93.5,-288.86C93.5,-273.05 93.5,-256.08 93.5,-240.55"/>
<polygon fill="orange" stroke="orange" points="90,-289.06 93.5,-299.06 97,-289.06 90,-289.06"/>
<text text-anchor="start" x="93.5" y="-273" font-family="Helvetica,sans-Serif" font-size="10.00"> &lt; GraphType, unsigned</text>
<text text-anchor="middle" x="152" y="-262" font-family="Helvetica,sans-Serif" font-size="10.00"> int &gt;</text>
</g>
</g>
</svg>
