<?xml version="1.0" encoding="UTF-8" standalone="no"?>
<!DOCTYPE svg PUBLIC "-//W3C//DTD SVG 1.1//EN"
 "http://www.w3.org/Graphics/SVG/1.1/DTD/svg11.dtd">
<!-- Generated by graphviz version 2.43.0 (0)
 -->
<!-- Title: BlockGraphBaseCRTP&lt; D, T &gt; Pages: 1 -->
<svg width="247pt" height="347pt"
 viewBox="0.00 0.00 246.50 347.00" xmlns="http://www.w3.org/2000/svg" xmlns:xlink="http://www.w3.org/1999/xlink">
<g id="graph0" class="graph" transform="scale(1 1) rotate(0) translate(4 343)">
<title>BlockGraphBaseCRTP&lt; D, T &gt;</title>
<polygon fill="white" stroke="transparent" points="-4,4 -4,-343 242.5,-343 242.5,4 -4,4"/>
<!-- Node1 -->
<g id="node1" class="node">
<title>Node1</title>
<g id="a_node1"><a xlink:title=" ">
<polygon fill="#bfbfbf" stroke="black" points="47.5,-0.5 47.5,-211.5 217.5,-211.5 217.5,-0.5 47.5,-0.5"/>
<text text-anchor="start" x="55.5" y="-199.5" font-family="Helvetica,sans-Serif" font-size="10.00">BlockGraphBaseCRTP</text>
<text text-anchor="middle" x="132.5" y="-188.5" font-family="Helvetica,sans-Serif" font-size="10.00">&lt; D, T &gt;</text>
<polyline fill="none" stroke="black" points="47.5,-181.5 217.5,-181.5 "/>
<text text-anchor="middle" x="132.5" y="-169.5" font-family="Helvetica,sans-Serif" font-size="10.00"> </text>
<polyline fill="none" stroke="black" points="47.5,-162.5 217.5,-162.5 "/>
<text text-anchor="start" x="55.5" y="-150.5" font-family="Helvetica,sans-Serif" font-size="10.00">+ BlockGraphBaseCRTP()</text>
<text text-anchor="start" x="55.5" y="-139.5" font-family="Helvetica,sans-Serif" font-size="10.00">+ get_groups()</text>
<text text-anchor="start" x="55.5" y="-128.5" font-family="Helvetica,sans-Serif" font-size="10.00">+ get_ptr_groups()</text>
<text text-anchor="start" x="55.5" y="-117.5" font-family="Helvetica,sans-Serif" font-size="10.00">+ get_size()</text>
<text text-anchor="start" x="55.5" y="-106.5" font-family="Helvetica,sans-Serif" font-size="10.00">+ get_number_singleton()</text>
<text text-anchor="start" x="55.5" y="-95.5" font-family="Helvetica,sans-Serif" font-size="10.00">+ get_pos_singleton()</text>
<text text-anchor="start" x="55.5" y="-84.5" font-family="Helvetica,sans-Serif" font-size="10.00">+ get_row_with_singleton()</text>
<text text-anchor="start" x="55.5" y="-73.5" font-family="Helvetica,sans-Serif" font-size="10.00">+ get_complete_size()</text>
<text text-anchor="start" x="55.5" y="-62.5" font-family="Helvetica,sans-Serif" font-size="10.00">+ get_group_size()</text>
<text text-anchor="start" x="55.5" y="-51.5" font-family="Helvetica,sans-Serif" font-size="10.00">+ get_n_links()</text>
<text text-anchor="start" x="55.5" y="-40.5" font-family="Helvetica,sans-Serif" font-size="10.00">and 14 more...</text>
<text text-anchor="start" x="55.5" y="-29.5" font-family="Helvetica,sans-Serif" font-size="10.00"># find_neighbours()</text>
<text text-anchor="start" x="55.5" y="-18.5" font-family="Helvetica,sans-Serif" font-size="10.00"># compute_nlinks_nblocks()</text>
<text text-anchor="start" x="55.5" y="-7.5" font-family="Helvetica,sans-Serif" font-size="10.00"># compute_diagonal_position()</text>
</a>
</g>
</g>
<!-- Node2 -->
<g id="node2" class="node">
<title>Node2</title>
<g id="a_node2"><a xlink:title=" ">
<polygon fill="white" stroke="#bfbfbf" points="0,-281.5 0,-338.5 155,-338.5 155,-281.5 0,-281.5"/>
<text text-anchor="middle" x="77.5" y="-326.5" font-family="Helvetica,sans-Serif" font-size="10.00">shared_ptr&lt; const Groups &gt;</text>
<polyline fill="none" stroke="#bfbfbf" points="0,-319.5 155,-319.5 "/>
<text text-anchor="middle" x="77.5" y="-307.5" font-family="Helvetica,sans-Serif" font-size="10.00"> </text>
<polyline fill="none" stroke="#bfbfbf" points="0,-300.5 155,-300.5 "/>
<text text-anchor="middle" x="77.5" y="-288.5" font-family="Helvetica,sans-Serif" font-size="10.00"> </text>
</a>
</g>
</g>
<!-- Node2&#45;&gt;Node1 -->
<g id="edge1" class="edge">
<title>Node2&#45;&gt;Node1</title>
<path fill="none" stroke="#404040" d="M85.03,-281.34C89.27,-265.77 94.88,-245.15 100.76,-223.56"/>
<polygon fill="none" stroke="#404040" points="100.8,-223.43 98.52,-216.59 103.95,-211.85 106.23,-218.69 100.8,-223.43"/>
<text text-anchor="middle" x="130.5" y="-244" font-family="Helvetica,sans-Serif" font-size="10.00"> #ptr_groups</text>
</g>
<!-- Node3 -->
<g id="node3" class="node">
<title>Node3</title>
<g id="a_node3"><a xlink:title=" ">
<polygon fill="white" stroke="#bfbfbf" points="173,-281.5 173,-338.5 202,-338.5 202,-281.5 173,-281.5"/>
<text text-anchor="middle" x="187.5" y="-326.5" font-family="Helvetica,sans-Serif" font-size="10.00">int</text>
<polyline fill="none" stroke="#bfbfbf" points="173,-319.5 202,-319.5 "/>
<text text-anchor="middle" x="187.5" y="-307.5" font-family="Helvetica,sans-Serif" font-size="10.00"> </text>
<polyline fill="none" stroke="#bfbfbf" points="173,-300.5 202,-300.5 "/>
<text text-anchor="middle" x="187.5" y="-288.5" font-family="Helvetica,sans-Serif" font-size="10.00"> </text>
</a>
</g>
</g>
<!-- Node3&#45;&gt;Node1 -->
<g id="edge2" class="edge">
<title>Node3&#45;&gt;Node1</title>
<path fill="none" stroke="#404040" d="M179.97,-281.34C175.73,-265.77 170.12,-245.15 164.24,-223.56"/>
<polygon fill="none" stroke="#404040" points="164.2,-223.43 158.77,-218.69 161.05,-211.85 166.48,-216.59 164.2,-223.43"/>
<text text-anchor="middle" x="206" y="-255" font-family="Helvetica,sans-Serif" font-size="10.00"> #n_links</text>
<text text-anchor="middle" x="206" y="-244" font-family="Helvetica,sans-Serif" font-size="10.00">#n_singleton</text>
<text text-anchor="middle" x="206" y="-233" font-family="Helvetica,sans-Serif" font-size="10.00">#n_blocks</text>
</g>
</g>
</svg>
