<?xml version="1.0" encoding="UTF-8" standalone="no"?>
<!DOCTYPE svg PUBLIC "-//W3C//DTD SVG 1.1//EN"
 "http://www.w3.org/Graphics/SVG/1.1/DTD/svg11.dtd">
<!-- Generated by graphviz version 2.43.0 (0)
 -->
<!-- Title: ReversibleJumpsMH&lt; GraphType, T &gt; Pages: 1 -->
<!--zoomable 816 -->
<svg id="main" version="1.1" xmlns="http://www.w3.org/2000/svg" xmlns:xlink="http://www.w3.org/1999/xlink" xml:space="preserve" onload="init(evt)">
<style type="text/css"><![CDATA[
.edge:hover path { stroke: red; }
.edge:hover polygon { stroke: red; fill: red; }
]]></style>
<script type="text/javascript"><![CDATA[
var edges = document.getElementsByTagName('g');
if (edges && edges.length) {
  for (var i=0;i<edges.length;i++) {
    if (edges[i].id.substr(0,4)=='edge') {
      edges[i].setAttribute('class','edge');
    }
  }
}
]]></script>
        <defs>
                <circle id="rim" cx="0" cy="0" r="7"/>
                <circle id="rim2" cx="0" cy="0" r="3.5"/>
                <g id="zoomPlus">
                        <use xlink:href="#rim" fill="#404040">
                                <set attributeName="fill" to="#808080" begin="zoomplus.mouseover" end="zoomplus.mouseout"/>
                        </use>
                        <path d="M-4,0h8M0,-4v8" fill="none" stroke="white" stroke-width="1.5" pointer-events="none"/>
                </g>
                <g id="zoomMin">
                        <use xlink:href="#rim" fill="#404040">
                                <set attributeName="fill" to="#808080" begin="zoomminus.mouseover" end="zoomminus.mouseout"/>
                        </use>
                        <path d="M-4,0h8" fill="none" stroke="white" stroke-width="1.5" pointer-events="none"/>
                </g>
                <g id="dirArrow">
                        <path fill="none" stroke="white" stroke-width="1.5" d="M0,-3.0v7 M-2.5,-0.5L0,-3.0L2.5,-0.5"/>
                </g>
               <g id="resetDef">
                       <use xlink:href="#rim2" fill="#404040">
                               <set attributeName="fill" to="#808080" begin="reset.mouseover" end="reset.mouseout"/>
                       </use>
               </g>
        </defs>

<script type="text/javascript">
var viewWidth = 763;
var viewHeight = 816;
var sectionId = 'dynsection-1';
</script>
<script xlink:href="svgpan.js"/>
<svg id="graph" class="graph">
<g id="viewport">
<title>ReversibleJumpsMH&lt; GraphType, T &gt;</title>
<polygon fill="white" stroke="transparent" points="-4,4 -4,-812 758.5,-812 758.5,4 -4,4"/>
<!-- Node1 -->
<g id="node1" class="node">
<title>Node1</title>
<g id="a_node1"><a xlink:title=" ">
<polygon fill="#bfbfbf" stroke="black" points="603.5,-0.5 603.5,-101.5 737.5,-101.5 737.5,-0.5 603.5,-0.5"/>
<text text-anchor="start" x="611.5" y="-89.5" font-family="Helvetica,sans-Serif" font-size="10.00">ReversibleJumpsMH&lt;</text>
<text text-anchor="middle" x="670.5" y="-78.5" font-family="Helvetica,sans-Serif" font-size="10.00"> GraphType, T &gt;</text>
<polyline fill="none" stroke="black" points="603.5,-71.5 737.5,-71.5 "/>
<text text-anchor="middle" x="670.5" y="-59.5" font-family="Helvetica,sans-Serif" font-size="10.00"> </text>
<polyline fill="none" stroke="black" points="603.5,-52.5 737.5,-52.5 "/>
<text text-anchor="start" x="611.5" y="-40.5" font-family="Helvetica,sans-Serif" font-size="10.00">+ ReversibleJumpsMH()</text>
<text text-anchor="start" x="611.5" y="-29.5" font-family="Helvetica,sans-Serif" font-size="10.00">+ ReversibleJumpsMH()</text>
<text text-anchor="start" x="611.5" y="-18.5" font-family="Helvetica,sans-Serif" font-size="10.00">+ RJ()</text>
<text text-anchor="start" x="611.5" y="-7.5" font-family="Helvetica,sans-Serif" font-size="10.00">+ operator()()</text>
</a>
</g>
</g>
<!-- Node2 -->
<g id="node2" class="node">
<title>Node2</title>
<g id="a_node2"><a xlink:href="classGGM.html" target="_top" xlink:title=" ">
<polygon fill="white" stroke="black" points="193,-149.5 193,-327.5 326,-327.5 326,-149.5 193,-149.5"/>
<text text-anchor="middle" x="259.5" y="-315.5" font-family="Helvetica,sans-Serif" font-size="10.00">GGM&lt; GraphType, T &gt;</text>
<polyline fill="none" stroke="black" points="193,-308.5 326,-308.5 "/>
<text text-anchor="middle" x="259.5" y="-296.5" font-family="Helvetica,sans-Serif" font-size="10.00"> </text>
<polyline fill="none" stroke="black" points="193,-289.5 326,-289.5 "/>
<text text-anchor="start" x="201" y="-277.5" font-family="Helvetica,sans-Serif" font-size="10.00">+ GGM()</text>
<text text-anchor="start" x="201" y="-266.5" font-family="Helvetica,sans-Serif" font-size="10.00">+ GGM()</text>
<text text-anchor="start" x="201" y="-255.5" font-family="Helvetica,sans-Serif" font-size="10.00">+ GGM()</text>
<text text-anchor="start" x="201" y="-244.5" font-family="Helvetica,sans-Serif" font-size="10.00">+ GGM()</text>
<text text-anchor="start" x="201" y="-233.5" font-family="Helvetica,sans-Serif" font-size="10.00">+ operator=()</text>
<text text-anchor="start" x="201" y="-222.5" font-family="Helvetica,sans-Serif" font-size="10.00">+ operator=()</text>
<text text-anchor="start" x="201" y="-211.5" font-family="Helvetica,sans-Serif" font-size="10.00">+ get_shape()</text>
<text text-anchor="start" x="201" y="-200.5" font-family="Helvetica,sans-Serif" font-size="10.00">+ get_inv_scale()</text>
<text text-anchor="start" x="201" y="-189.5" font-family="Helvetica,sans-Serif" font-size="10.00">+ init_precision()</text>
<text text-anchor="start" x="201" y="-178.5" font-family="Helvetica,sans-Serif" font-size="10.00">+ propose_new_graph()</text>
<text text-anchor="start" x="201" y="-167.5" font-family="Helvetica,sans-Serif" font-size="10.00">+ operator()()</text>
<text text-anchor="start" x="201" y="-156.5" font-family="Helvetica,sans-Serif" font-size="10.00">+ ~GGM()</text>
</a>
</g>
</g>
<!-- Node2&#45;&gt;Node1 -->
<g id="edge1" class="edge">
<title>Node2&#45;&gt;Node1</title>
<path fill="none" stroke="midnightblue" d="M335.6,-203.15C412.38,-168.5 529.78,-115.51 603.24,-82.36"/>
<polygon fill="none" stroke="midnightblue" points="334.12,-199.98 326.45,-207.28 337,-206.36 334.12,-199.98"/>
</g>
<!-- Node3 -->
<g id="node3" class="node">
<title>Node3</title>
<g id="a_node3"><a xlink:href="structGGMTraits.html" target="_top" xlink:title=" ">
<polygon fill="white" stroke="black" points="19,-447 19,-504 172,-504 172,-447 19,-447"/>
<text text-anchor="middle" x="95.5" y="-492" font-family="Helvetica,sans-Serif" font-size="10.00">GGMTraits&lt; GraphType, T &gt;</text>
<polyline fill="none" stroke="black" points="19,-485 172,-485 "/>
<text text-anchor="middle" x="95.5" y="-473" font-family="Helvetica,sans-Serif" font-size="10.00"> </text>
<polyline fill="none" stroke="black" points="19,-466 172,-466 "/>
<text text-anchor="middle" x="95.5" y="-454" font-family="Helvetica,sans-Serif" font-size="10.00"> </text>
</a>
</g>
</g>
<!-- Node3&#45;&gt;Node2 -->
<g id="edge2" class="edge">
<title>Node3&#45;&gt;Node2</title>
<path fill="none" stroke="midnightblue" d="M120.77,-438.3C141.34,-408.81 171.27,-365.92 198.07,-327.52"/>
<polygon fill="none" stroke="midnightblue" points="117.81,-436.42 114.96,-446.62 123.55,-440.42 117.81,-436.42"/>
</g>
<!-- Node3&#45;&gt;Node2 -->
<g id="edge6" class="edge">
<title>Node3&#45;&gt;Node2</title>
<path fill="none" stroke="#404040" d="M95.05,-446.88C95.83,-419.38 100.44,-376.91 119.5,-346 135.07,-320.75 158.97,-299.33 182.65,-282.47"/>
<polygon fill="none" stroke="#404040" points="182.87,-282.32 185.55,-275.63 192.76,-275.53 190.08,-282.22 182.87,-282.32"/>
<text text-anchor="middle" x="144.5" y="-360" font-family="Helvetica,sans-Serif" font-size="10.00"> #Kprior</text>
<text text-anchor="middle" x="144.5" y="-349" font-family="Helvetica,sans-Serif" font-size="10.00">#ptr_prior</text>
</g>
<!-- Node4 -->
<g id="node4" class="node">
<title>Node4</title>
<g id="a_node4"><a xlink:href="structGGMTraits.html" target="_top" xlink:title=" ">
<polygon fill="white" stroke="black" points="0,-750.5 0,-807.5 175,-807.5 175,-750.5 0,-750.5"/>
<text text-anchor="middle" x="87.5" y="-795.5" font-family="Helvetica,sans-Serif" font-size="10.00">GGMTraits&lt; GraphStructure, T &gt;</text>
<polyline fill="none" stroke="black" points="0,-788.5 175,-788.5 "/>
<text text-anchor="middle" x="87.5" y="-776.5" font-family="Helvetica,sans-Serif" font-size="10.00"> </text>
<polyline fill="none" stroke="black" points="0,-769.5 175,-769.5 "/>
<text text-anchor="middle" x="87.5" y="-757.5" font-family="Helvetica,sans-Serif" font-size="10.00"> </text>
</a>
</g>
</g>
<!-- Node4&#45;&gt;Node3 -->
<g id="edge3" class="edge">
<title>Node4&#45;&gt;Node3</title>
<path fill="none" stroke="orange" d="M83.72,-739.77C82.42,-724.88 81.14,-707.66 80.5,-692 79.26,-661.36 78.94,-653.63 80.5,-623 82.62,-581.51 88.09,-533.66 91.81,-504.25"/>
<polygon fill="orange" stroke="orange" points="80.27,-740.5 84.66,-750.15 87.24,-739.87 80.27,-740.5"/>
<text text-anchor="middle" x="125.5" y="-655" font-family="Helvetica,sans-Serif" font-size="10.00"> &lt; GraphType, T &gt;</text>
</g>
<!-- Node8 -->
<g id="node8" class="node">
<title>Node8</title>
<g id="a_node8"><a xlink:href="structGGMTraits.html" target="_top" xlink:title=" ">
<polygon fill="white" stroke="black" points="308,-623.5 308,-691.5 441,-691.5 441,-623.5 308,-623.5"/>
<text text-anchor="start" x="316" y="-679.5" font-family="Helvetica,sans-Serif" font-size="10.00">GGMTraits&lt; GraphType,</text>
<text text-anchor="middle" x="374.5" y="-668.5" font-family="Helvetica,sans-Serif" font-size="10.00"> unsigned int &gt;</text>
<polyline fill="none" stroke="black" points="308,-661.5 441,-661.5 "/>
<text text-anchor="middle" x="374.5" y="-649.5" font-family="Helvetica,sans-Serif" font-size="10.00"> </text>
<polyline fill="none" stroke="black" points="308,-642.5 441,-642.5 "/>
<text text-anchor="middle" x="374.5" y="-630.5" font-family="Helvetica,sans-Serif" font-size="10.00"> </text>
</a>
</g>
</g>
<!-- Node4&#45;&gt;Node8 -->
<g id="edge9" class="edge">
<title>Node4&#45;&gt;Node8</title>
<path fill="none" stroke="orange" d="M165.99,-746.62C205.8,-730.55 254.84,-710.52 298.5,-692 301.55,-690.71 304.67,-689.37 307.82,-688.02"/>
<polygon fill="orange" stroke="orange" points="164.56,-743.42 156.6,-750.41 167.18,-749.91 164.56,-743.42"/>
<text text-anchor="start" x="252.5" y="-724" font-family="Helvetica,sans-Serif" font-size="10.00"> &lt; GraphType, unsigned</text>
<text text-anchor="middle" x="311" y="-713" font-family="Helvetica,sans-Serif" font-size="10.00"> int &gt;</text>
</g>
<!-- Node5 -->
<g id="node5" class="node">
<title>Node5</title>
<g id="a_node5"><a xlink:href="classdouble.html" target="_top" xlink:title=" ">
<polygon fill="white" stroke="black" points="527.5,-629 527.5,-686 577.5,-686 577.5,-629 527.5,-629"/>
<text text-anchor="middle" x="552.5" y="-674" font-family="Helvetica,sans-Serif" font-size="10.00">double</text>
<polyline fill="none" stroke="black" points="527.5,-667 577.5,-667 "/>
<text text-anchor="middle" x="552.5" y="-655" font-family="Helvetica,sans-Serif" font-size="10.00"> </text>
<polyline fill="none" stroke="black" points="527.5,-648 577.5,-648 "/>
<text text-anchor="middle" x="552.5" y="-636" font-family="Helvetica,sans-Serif" font-size="10.00"> </text>
</a>
</g>
</g>
<!-- Node5&#45;&gt;Node1 -->
<g id="edge13" class="edge">
<title>Node5&#45;&gt;Node1</title>
<path fill="none" stroke="#404040" d="M577.67,-634.81C595.52,-617.8 618.22,-592.46 629.5,-565 692.15,-412.43 685.77,-213.14 677.33,-113.84"/>
<polygon fill="none" stroke="#404040" points="677.31,-113.62 672.79,-108 676.24,-101.67 680.76,-107.29 677.31,-113.62"/>
<text text-anchor="middle" x="698.5" y="-354.5" font-family="Helvetica,sans-Serif" font-size="10.00"> #sigma</text>
</g>
<!-- Node5&#45;&gt;Node2 -->
<g id="edge4" class="edge">
<title>Node5&#45;&gt;Node2</title>
<path fill="none" stroke="#404040" d="M548.28,-628.92C539.33,-577.32 514.67,-464.33 460.5,-386 429.14,-340.65 379.07,-304.1 336.74,-278.84"/>
<polygon fill="none" stroke="#404040" points="336.53,-278.72 329.33,-279.15 326.16,-272.67 333.36,-272.24 336.53,-278.72"/>
<text text-anchor="middle" x="580.5" y="-473" font-family="Helvetica,sans-Serif" font-size="10.00"> #trGwishSampler</text>
</g>
<!-- Node7 -->
<g id="node7" class="node">
<title>Node7</title>
<g id="a_node7"><a xlink:href="classGGM.html" target="_top" xlink:title=" ">
<polygon fill="white" stroke="black" points="303,-386.5 303,-564.5 452,-564.5 452,-386.5 303,-386.5"/>
<text text-anchor="middle" x="377.5" y="-552.5" font-family="Helvetica,sans-Serif" font-size="10.00">GGM&lt; GraphStructure, T &gt;</text>
<polyline fill="none" stroke="black" points="303,-545.5 452,-545.5 "/>
<text text-anchor="middle" x="377.5" y="-533.5" font-family="Helvetica,sans-Serif" font-size="10.00"> </text>
<polyline fill="none" stroke="black" points="303,-526.5 452,-526.5 "/>
<text text-anchor="start" x="311" y="-514.5" font-family="Helvetica,sans-Serif" font-size="10.00">+ GGM()</text>
<text text-anchor="start" x="311" y="-503.5" font-family="Helvetica,sans-Serif" font-size="10.00">+ GGM()</text>
<text text-anchor="start" x="311" y="-492.5" font-family="Helvetica,sans-Serif" font-size="10.00">+ GGM()</text>
<text text-anchor="start" x="311" y="-481.5" font-family="Helvetica,sans-Serif" font-size="10.00">+ GGM()</text>
<text text-anchor="start" x="311" y="-470.5" font-family="Helvetica,sans-Serif" font-size="10.00">+ operator=()</text>
<text text-anchor="start" x="311" y="-459.5" font-family="Helvetica,sans-Serif" font-size="10.00">+ operator=()</text>
<text text-anchor="start" x="311" y="-448.5" font-family="Helvetica,sans-Serif" font-size="10.00">+ get_shape()</text>
<text text-anchor="start" x="311" y="-437.5" font-family="Helvetica,sans-Serif" font-size="10.00">+ get_inv_scale()</text>
<text text-anchor="start" x="311" y="-426.5" font-family="Helvetica,sans-Serif" font-size="10.00">+ init_precision()</text>
<text text-anchor="start" x="311" y="-415.5" font-family="Helvetica,sans-Serif" font-size="10.00">+ propose_new_graph()</text>
<text text-anchor="start" x="311" y="-404.5" font-family="Helvetica,sans-Serif" font-size="10.00">+ operator()()</text>
<text text-anchor="start" x="311" y="-393.5" font-family="Helvetica,sans-Serif" font-size="10.00">+ ~GGM()</text>
</a>
</g>
</g>
<!-- Node5&#45;&gt;Node7 -->
<g id="edge10" class="edge">
<title>Node5&#45;&gt;Node7</title>
<path fill="none" stroke="#404040" d="M527.25,-648.85C504.44,-640.91 471.07,-626.58 448.5,-605 439.19,-596.1 430.79,-585.71 423.3,-574.76"/>
<polygon fill="none" stroke="#404040" points="423.22,-574.63 416.6,-571.78 416.68,-564.57 423.31,-567.42 423.22,-574.63"/>
<text text-anchor="middle" x="493.5" y="-591.5" font-family="Helvetica,sans-Serif" font-size="10.00"> #trGwishSampler</text>
</g>
<!-- Node6 -->
<g id="node6" class="node">
<title>Node6</title>
<g id="a_node6"><a xlink:title=" ">
<polygon fill="white" stroke="#bfbfbf" points="179.5,-623.5 179.5,-691.5 289.5,-691.5 289.5,-623.5 179.5,-623.5"/>
<text text-anchor="start" x="187.5" y="-679.5" font-family="Helvetica,sans-Serif" font-size="10.00">pair&lt; unsigned int,</text>
<text text-anchor="middle" x="234.5" y="-668.5" font-family="Helvetica,sans-Serif" font-size="10.00"> unsigned int &gt;</text>
<polyline fill="none" stroke="#bfbfbf" points="179.5,-661.5 289.5,-661.5 "/>
<text text-anchor="middle" x="234.5" y="-649.5" font-family="Helvetica,sans-Serif" font-size="10.00"> </text>
<polyline fill="none" stroke="#bfbfbf" points="179.5,-642.5 289.5,-642.5 "/>
<text text-anchor="middle" x="234.5" y="-630.5" font-family="Helvetica,sans-Serif" font-size="10.00"> </text>
</a>
</g>
</g>
<!-- Node6&#45;&gt;Node2 -->
<g id="edge5" class="edge">
<title>Node6&#45;&gt;Node2</title>
<path fill="none" stroke="#404040" d="M226.8,-623.24C223.19,-605.97 219.29,-584.47 217.5,-565 210.2,-485.78 206.43,-464.78 217.5,-386 219.64,-370.76 222.98,-354.88 226.86,-339.44"/>
<polygon fill="none" stroke="#404040" points="226.88,-339.34 224.53,-332.53 229.92,-327.73 232.27,-334.55 226.88,-339.34"/>
<text text-anchor="middle" x="255.5" y="-473" font-family="Helvetica,sans-Serif" font-size="10.00"> #selected_link</text>
</g>
<!-- Node6&#45;&gt;Node7 -->
<g id="edge11" class="edge">
<title>Node6&#45;&gt;Node7</title>
<path fill="none" stroke="#404040" d="M250.22,-623.15C256.96,-610.15 265.38,-595.41 274.5,-583 280.7,-574.57 287.52,-566.12 294.63,-557.88"/>
<polygon fill="none" stroke="#404040" points="294.8,-557.68 295.78,-550.54 302.74,-548.68 301.77,-555.83 294.8,-557.68"/>
<text text-anchor="middle" x="312.5" y="-591.5" font-family="Helvetica,sans-Serif" font-size="10.00"> #selected_link</text>
</g>
<!-- Node7&#45;&gt;Node2 -->
<g id="edge7" class="edge">
<title>Node7&#45;&gt;Node2</title>
<path fill="none" stroke="orange" d="M328.68,-377.28C320.45,-360.88 311.94,-343.93 303.83,-327.78"/>
<polygon fill="orange" stroke="orange" points="325.61,-378.96 333.23,-386.33 331.87,-375.82 325.61,-378.96"/>
<text text-anchor="middle" x="367.5" y="-354.5" font-family="Helvetica,sans-Serif" font-size="10.00"> &lt; GraphType, T &gt;</text>
</g>
<!-- Node8&#45;&gt;Node7 -->
<g id="edge8" class="edge">
<title>Node8&#45;&gt;Node7</title>
<path fill="none" stroke="midnightblue" d="M357.43,-613.67C356.67,-610.77 356.01,-607.86 355.5,-605 353.17,-591.97 353.06,-578.18 354.27,-564.66"/>
<polygon fill="none" stroke="midnightblue" points="354.14,-614.89 360.37,-623.46 360.85,-612.87 354.14,-614.89"/>
</g>
<!-- Node8&#45;&gt;Node7 -->
<g id="edge12" class="edge">
<title>Node8&#45;&gt;Node7</title>
<path fill="none" stroke="#404040" d="M374.92,-623.2C375.08,-610.61 375.29,-596.14 375.5,-583 375.53,-580.93 375.57,-578.85 375.6,-576.74"/>
<polygon fill="none" stroke="#404040" points="375.61,-576.54 371.71,-570.48 375.81,-564.55 379.71,-570.61 375.61,-576.54"/>
<text text-anchor="middle" x="400.5" y="-597" font-family="Helvetica,sans-Serif" font-size="10.00"> #Kprior</text>
<text text-anchor="middle" x="400.5" y="-586" font-family="Helvetica,sans-Serif" font-size="10.00">#ptr_prior</text>
</g>
<!-- Node9 -->
<g id="node9" class="node">
<title>Node9</title>
<g id="a_node9"><a xlink:title=" ">
<polygon fill="white" stroke="#bfbfbf" points="699,-210 699,-267 728,-267 728,-210 699,-210"/>
<text text-anchor="middle" x="713.5" y="-255" font-family="Helvetica,sans-Serif" font-size="10.00">int</text>
<polyline fill="none" stroke="#bfbfbf" points="699,-248 728,-248 "/>
<text text-anchor="middle" x="713.5" y="-236" font-family="Helvetica,sans-Serif" font-size="10.00"> </text>
<polyline fill="none" stroke="#bfbfbf" points="699,-229 728,-229 "/>
<text text-anchor="middle" x="713.5" y="-217" font-family="Helvetica,sans-Serif" font-size="10.00"> </text>
</a>
</g>
</g>
<!-- Node9&#45;&gt;Node1 -->
<g id="edge14" class="edge">
<title>Node9&#45;&gt;Node1</title>
<path fill="none" stroke="#404040" d="M707.06,-209.73C701.18,-184.34 692.27,-145.91 684.72,-113.34"/>
<polygon fill="none" stroke="#404040" points="684.72,-113.33 679.46,-108.38 682.01,-101.64 687.26,-106.58 684.72,-113.33"/>
<text text-anchor="middle" x="721" y="-123" font-family="Helvetica,sans-Serif" font-size="10.00"> #MCiterPrior</text>
</g>
</g>
</svg>
        <g id="navigator" transform="translate(0 0)" fill="#404254">
                <rect fill="#f2f5e9" fill-opacity="0.5" stroke="#606060" stroke-width=".5" x="0" y="0" width="60" height="60"/>
                <use id="zoomplus" xlink:href="#zoomPlus" x="17" y="9" onmousedown="handleZoom(evt,'in')"/>
                <use id="zoomminus" xlink:href="#zoomMin" x="42" y="9" onmousedown="handleZoom(evt,'out')"/>
                <use id="reset" xlink:href="#resetDef" x="30" y="36" onmousedown="handleReset()"/>
                <g id="arrowUp" xlink:href="#dirArrow" transform="translate(30 24)" onmousedown="handlePan(0,-1)">
                  <use xlink:href="#rim" fill="#404040">
                        <set attributeName="fill" to="#808080" begin="arrowUp.mouseover" end="arrowUp.mouseout"/>
                  </use>
                  <path fill="none" stroke="white" stroke-width="1.5" d="M0,-3.0v7 M-2.5,-0.5L0,-3.0L2.5,-0.5"/>
                </g>
                <g id="arrowRight" xlink:href="#dirArrow" transform="rotate(90) translate(36 -43)" onmousedown="handlePan(1,0)">
                  <use xlink:href="#rim" fill="#404040">
                        <set attributeName="fill" to="#808080" begin="arrowRight.mouseover" end="arrowRight.mouseout"/>
                  </use>
                  <path fill="none" stroke="white" stroke-width="1.5" d="M0,-3.0v7 M-2.5,-0.5L0,-3.0L2.5,-0.5"/>
                </g>
                <g id="arrowDown" xlink:href="#dirArrow" transform="rotate(180) translate(-30 -48)" onmousedown="handlePan(0,1)">
                  <use xlink:href="#rim" fill="#404040">
                        <set attributeName="fill" to="#808080" begin="arrowDown.mouseover" end="arrowDown.mouseout"/>
                  </use>
                  <path fill="none" stroke="white" stroke-width="1.5" d="M0,-3.0v7 M-2.5,-0.5L0,-3.0L2.5,-0.5"/>
                </g>
                <g id="arrowLeft" xlink:href="#dirArrow" transform="rotate(270) translate(-36 17)" onmousedown="handlePan(-1,0)">
                  <use xlink:href="#rim" fill="#404040">
                        <set attributeName="fill" to="#808080" begin="arrowLeft.mouseover" end="arrowLeft.mouseout"/>
                  </use>
                  <path fill="none" stroke="white" stroke-width="1.5" d="M0,-3.0v7 M-2.5,-0.5L0,-3.0L2.5,-0.5"/>
                </g>
        </g>
        <svg viewBox="0 0 15 15" width="100%" height="30px" preserveAspectRatio="xMaxYMin meet">
         <g id="arrow_out" transform="scale(0.3 0.3)">
          <a xlink:href="classReversibleJumpsMH_3_01GraphType_00_01T_01_4__coll__graph_org.svg" target="_base">
           <rect id="button" ry="5" rx="5" y="6" x="6" height="38" width="38"
                fill="#f2f5e9" fill-opacity="0.5" stroke="#606060" stroke-width="1.0"/>
           <path id="arrow"
             d="M 11.500037,31.436501 C 11.940474,20.09759 22.043105,11.32322 32.158766,21.979434 L 37.068811,17.246167 C 37.068811,17.246167 37.088388,32 37.088388,32 L 22.160133,31.978069 C 22.160133,31.978069 26.997745,27.140456 26.997745,27.140456 C 18.528582,18.264221 13.291696,25.230495 11.500037,31.436501 z"
             style="fill:#404040;"/>
          </a>
         </g>
        </svg>
</svg>
