<?xml version="1.0" encoding="UTF-8" standalone="no"?>
<!DOCTYPE svg PUBLIC "-//W3C//DTD SVG 1.1//EN"
 "http://www.w3.org/Graphics/SVG/1.1/DTD/svg11.dtd">
<!-- Generated by graphviz version 2.43.0 (0)
 -->
<!-- Title: GGM&lt; GraphStructure, T &gt; Pages: 1 -->
<svg width="550pt" height="1172pt"
 viewBox="0.00 0.00 550.00 1172.00" xmlns="http://www.w3.org/2000/svg" xmlns:xlink="http://www.w3.org/1999/xlink">
<g id="graph0" class="graph" transform="scale(1 1) rotate(0) translate(4 1168)">
<title>GGM&lt; GraphStructure, T &gt;</title>
<polygon fill="white" stroke="transparent" points="-4,4 -4,-1168 546,-1168 546,4 -4,4"/>
<!-- Node1 -->
<g id="node1" class="node">
<title>Node1</title>
<g id="a_node1"><a xlink:title=" ">
<polygon fill="#bfbfbf" stroke="black" points="302.5,-730.5 302.5,-941.5 451.5,-941.5 451.5,-730.5 302.5,-730.5"/>
<text text-anchor="middle" x="377" y="-929.5" font-family="Helvetica,sans-Serif" font-size="10.00">GGM&lt; GraphStructure, T &gt;</text>
<polyline fill="none" stroke="black" points="302.5,-922.5 451.5,-922.5 "/>
<text text-anchor="start" x="310.5" y="-910.5" font-family="Helvetica,sans-Serif" font-size="10.00"># ptr_prior</text>
<text text-anchor="start" x="310.5" y="-899.5" font-family="Helvetica,sans-Serif" font-size="10.00"># Kprior</text>
<text text-anchor="start" x="310.5" y="-888.5" font-family="Helvetica,sans-Serif" font-size="10.00"># trGwishSampler</text>
<text text-anchor="start" x="310.5" y="-877.5" font-family="Helvetica,sans-Serif" font-size="10.00"># selected_link</text>
<polyline fill="none" stroke="black" points="302.5,-870.5 451.5,-870.5 "/>
<text text-anchor="start" x="310.5" y="-858.5" font-family="Helvetica,sans-Serif" font-size="10.00">+ GGM()</text>
<text text-anchor="start" x="310.5" y="-847.5" font-family="Helvetica,sans-Serif" font-size="10.00">+ GGM()</text>
<text text-anchor="start" x="310.5" y="-836.5" font-family="Helvetica,sans-Serif" font-size="10.00">+ GGM()</text>
<text text-anchor="start" x="310.5" y="-825.5" font-family="Helvetica,sans-Serif" font-size="10.00">+ GGM()</text>
<text text-anchor="start" x="310.5" y="-814.5" font-family="Helvetica,sans-Serif" font-size="10.00">+ operator=()</text>
<text text-anchor="start" x="310.5" y="-803.5" font-family="Helvetica,sans-Serif" font-size="10.00">+ operator=()</text>
<text text-anchor="start" x="310.5" y="-792.5" font-family="Helvetica,sans-Serif" font-size="10.00">+ get_shape()</text>
<text text-anchor="start" x="310.5" y="-781.5" font-family="Helvetica,sans-Serif" font-size="10.00">+ get_inv_scale()</text>
<text text-anchor="start" x="310.5" y="-770.5" font-family="Helvetica,sans-Serif" font-size="10.00">+ init_precision()</text>
<text text-anchor="start" x="310.5" y="-759.5" font-family="Helvetica,sans-Serif" font-size="10.00">+ propose_new_graph()</text>
<text text-anchor="start" x="310.5" y="-748.5" font-family="Helvetica,sans-Serif" font-size="10.00">+ operator()()</text>
<text text-anchor="start" x="310.5" y="-737.5" font-family="Helvetica,sans-Serif" font-size="10.00">+ ~GGM()</text>
</a>
</g>
</g>
<!-- Node4 -->
<g id="node4" class="node">
<title>Node4</title>
<g id="a_node4"><a xlink:href="classGGM.html" target="_top" xlink:title=" ">
<polygon fill="white" stroke="black" points="219,-449.5 219,-671.5 373,-671.5 373,-449.5 219,-449.5"/>
<text text-anchor="start" x="227" y="-659.5" font-family="Helvetica,sans-Serif" font-size="10.00">GGM&lt; GraphType, unsigned</text>
<text text-anchor="middle" x="296" y="-648.5" font-family="Helvetica,sans-Serif" font-size="10.00"> int &gt;</text>
<polyline fill="none" stroke="black" points="219,-641.5 373,-641.5 "/>
<text text-anchor="start" x="227" y="-629.5" font-family="Helvetica,sans-Serif" font-size="10.00"># ptr_prior</text>
<text text-anchor="start" x="227" y="-618.5" font-family="Helvetica,sans-Serif" font-size="10.00"># Kprior</text>
<text text-anchor="start" x="227" y="-607.5" font-family="Helvetica,sans-Serif" font-size="10.00"># trGwishSampler</text>
<text text-anchor="start" x="227" y="-596.5" font-family="Helvetica,sans-Serif" font-size="10.00"># selected_link</text>
<polyline fill="none" stroke="black" points="219,-589.5 373,-589.5 "/>
<text text-anchor="start" x="227" y="-577.5" font-family="Helvetica,sans-Serif" font-size="10.00">+ GGM()</text>
<text text-anchor="start" x="227" y="-566.5" font-family="Helvetica,sans-Serif" font-size="10.00">+ GGM()</text>
<text text-anchor="start" x="227" y="-555.5" font-family="Helvetica,sans-Serif" font-size="10.00">+ GGM()</text>
<text text-anchor="start" x="227" y="-544.5" font-family="Helvetica,sans-Serif" font-size="10.00">+ GGM()</text>
<text text-anchor="start" x="227" y="-533.5" font-family="Helvetica,sans-Serif" font-size="10.00">+ operator=()</text>
<text text-anchor="start" x="227" y="-522.5" font-family="Helvetica,sans-Serif" font-size="10.00">+ operator=()</text>
<text text-anchor="start" x="227" y="-511.5" font-family="Helvetica,sans-Serif" font-size="10.00">+ get_shape()</text>
<text text-anchor="start" x="227" y="-500.5" font-family="Helvetica,sans-Serif" font-size="10.00">+ get_inv_scale()</text>
<text text-anchor="start" x="227" y="-489.5" font-family="Helvetica,sans-Serif" font-size="10.00">+ init_precision()</text>
<text text-anchor="start" x="227" y="-478.5" font-family="Helvetica,sans-Serif" font-size="10.00">+ propose_new_graph()</text>
<text text-anchor="start" x="227" y="-467.5" font-family="Helvetica,sans-Serif" font-size="10.00">+ operator()()</text>
<text text-anchor="start" x="227" y="-456.5" font-family="Helvetica,sans-Serif" font-size="10.00">+ ~GGM()</text>
</a>
</g>
</g>
<!-- Node1&#45;&gt;Node4 -->
<g id="edge3" class="edge">
<title>Node1&#45;&gt;Node4</title>
<path fill="none" stroke="orange" d="M322.86,-720.88C321.85,-717.91 320.9,-714.94 320,-712 316.06,-699.09 312.74,-685.36 309.95,-671.63"/>
<polygon fill="orange" stroke="orange" points="319.59,-722.14 326.22,-730.41 326.19,-719.81 319.59,-722.14"/>
<text text-anchor="start" x="320" y="-704" font-family="Helvetica,sans-Serif" font-size="10.00"> &lt; GraphType, unsigned</text>
<text text-anchor="middle" x="378.5" y="-693" font-family="Helvetica,sans-Serif" font-size="10.00"> int &gt;</text>
</g>
<!-- Node9 -->
<g id="node9" class="node">
<title>Node9</title>
<g id="a_node9"><a xlink:href="classGGM.html" target="_top" xlink:title=" ">
<polygon fill="white" stroke="black" points="405.5,-455 405.5,-666 538.5,-666 538.5,-455 405.5,-455"/>
<text text-anchor="middle" x="472" y="-654" font-family="Helvetica,sans-Serif" font-size="10.00">GGM&lt; GraphType, T &gt;</text>
<polyline fill="none" stroke="black" points="405.5,-647 538.5,-647 "/>
<text text-anchor="start" x="413.5" y="-635" font-family="Helvetica,sans-Serif" font-size="10.00"># ptr_prior</text>
<text text-anchor="start" x="413.5" y="-624" font-family="Helvetica,sans-Serif" font-size="10.00"># Kprior</text>
<text text-anchor="start" x="413.5" y="-613" font-family="Helvetica,sans-Serif" font-size="10.00"># trGwishSampler</text>
<text text-anchor="start" x="413.5" y="-602" font-family="Helvetica,sans-Serif" font-size="10.00"># selected_link</text>
<polyline fill="none" stroke="black" points="405.5,-595 538.5,-595 "/>
<text text-anchor="start" x="413.5" y="-583" font-family="Helvetica,sans-Serif" font-size="10.00">+ GGM()</text>
<text text-anchor="start" x="413.5" y="-572" font-family="Helvetica,sans-Serif" font-size="10.00">+ GGM()</text>
<text text-anchor="start" x="413.5" y="-561" font-family="Helvetica,sans-Serif" font-size="10.00">+ GGM()</text>
<text text-anchor="start" x="413.5" y="-550" font-family="Helvetica,sans-Serif" font-size="10.00">+ GGM()</text>
<text text-anchor="start" x="413.5" y="-539" font-family="Helvetica,sans-Serif" font-size="10.00">+ operator=()</text>
<text text-anchor="start" x="413.5" y="-528" font-family="Helvetica,sans-Serif" font-size="10.00">+ operator=()</text>
<text text-anchor="start" x="413.5" y="-517" font-family="Helvetica,sans-Serif" font-size="10.00">+ get_shape()</text>
<text text-anchor="start" x="413.5" y="-506" font-family="Helvetica,sans-Serif" font-size="10.00">+ get_inv_scale()</text>
<text text-anchor="start" x="413.5" y="-495" font-family="Helvetica,sans-Serif" font-size="10.00">+ init_precision()</text>
<text text-anchor="start" x="413.5" y="-484" font-family="Helvetica,sans-Serif" font-size="10.00">+ propose_new_graph()</text>
<text text-anchor="start" x="413.5" y="-473" font-family="Helvetica,sans-Serif" font-size="10.00">+ operator()()</text>
<text text-anchor="start" x="413.5" y="-462" font-family="Helvetica,sans-Serif" font-size="10.00">+ ~GGM()</text>
</a>
</g>
</g>
<!-- Node1&#45;&gt;Node9 -->
<g id="edge9" class="edge">
<title>Node1&#45;&gt;Node9</title>
<path fill="none" stroke="orange" d="M433.74,-720.84C434.87,-717.88 435.96,-714.93 437,-712 442.21,-697.34 446.85,-681.59 450.92,-666.01"/>
<polygon fill="orange" stroke="orange" points="430.41,-719.74 429.99,-730.33 436.92,-722.32 430.41,-719.74"/>
<text text-anchor="middle" x="489" y="-698.5" font-family="Helvetica,sans-Serif" font-size="10.00"> &lt; GraphType, T &gt;</text>
</g>
<!-- Node2 -->
<g id="node2" class="node">
<title>Node2</title>
<g id="a_node2"><a xlink:href="structGGMTraits.html" target="_top" xlink:title=" ">
<polygon fill="white" stroke="black" points="310.5,-979.5 310.5,-1047.5 443.5,-1047.5 443.5,-979.5 310.5,-979.5"/>
<text text-anchor="start" x="318.5" y="-1035.5" font-family="Helvetica,sans-Serif" font-size="10.00">GGMTraits&lt; GraphType,</text>
<text text-anchor="middle" x="377" y="-1024.5" font-family="Helvetica,sans-Serif" font-size="10.00"> unsigned int &gt;</text>
<polyline fill="none" stroke="black" points="310.5,-1017.5 443.5,-1017.5 "/>
<text text-anchor="middle" x="377" y="-1005.5" font-family="Helvetica,sans-Serif" font-size="10.00"> </text>
<polyline fill="none" stroke="black" points="310.5,-998.5 443.5,-998.5 "/>
<text text-anchor="middle" x="377" y="-986.5" font-family="Helvetica,sans-Serif" font-size="10.00"> </text>
</a>
</g>
</g>
<!-- Node2&#45;&gt;Node1 -->
<g id="edge1" class="edge">
<title>Node2&#45;&gt;Node1</title>
<path fill="none" stroke="midnightblue" d="M377,-969.39C377,-960.76 377,-951.35 377,-941.65"/>
<polygon fill="none" stroke="midnightblue" points="373.5,-969.49 377,-979.49 380.5,-969.49 373.5,-969.49"/>
</g>
<!-- Node3 -->
<g id="node3" class="node">
<title>Node3</title>
<g id="a_node3"><a xlink:href="structGGMTraits.html" target="_top" xlink:title=" ">
<polygon fill="white" stroke="black" points="289.5,-1106.5 289.5,-1163.5 464.5,-1163.5 464.5,-1106.5 289.5,-1106.5"/>
<text text-anchor="middle" x="377" y="-1151.5" font-family="Helvetica,sans-Serif" font-size="10.00">GGMTraits&lt; GraphStructure, T &gt;</text>
<polyline fill="none" stroke="black" points="289.5,-1144.5 464.5,-1144.5 "/>
<text text-anchor="middle" x="377" y="-1132.5" font-family="Helvetica,sans-Serif" font-size="10.00"> </text>
<polyline fill="none" stroke="black" points="289.5,-1125.5 464.5,-1125.5 "/>
<text text-anchor="middle" x="377" y="-1113.5" font-family="Helvetica,sans-Serif" font-size="10.00"> </text>
</a>
</g>
</g>
<!-- Node3&#45;&gt;Node2 -->
<g id="edge2" class="edge">
<title>Node3&#45;&gt;Node2</title>
<path fill="none" stroke="orange" d="M377,-1095.95C377,-1080.4 377,-1062.58 377,-1047.59"/>
<polygon fill="orange" stroke="orange" points="373.5,-1096.28 377,-1106.28 380.5,-1096.28 373.5,-1096.28"/>
<text text-anchor="start" x="377" y="-1080" font-family="Helvetica,sans-Serif" font-size="10.00"> &lt; GraphType, unsigned</text>
<text text-anchor="middle" x="435.5" y="-1069" font-family="Helvetica,sans-Serif" font-size="10.00"> int &gt;</text>
</g>
<!-- Node5 -->
<g id="node5" class="node">
<title>Node5</title>
<g id="a_node5"><a xlink:href="classAddRemoveMH.html" target="_top" xlink:title=" ">
<polygon fill="white" stroke="black" points="0,-299.5 0,-411.5 200,-411.5 200,-299.5 0,-299.5"/>
<text text-anchor="middle" x="100" y="-399.5" font-family="Helvetica,sans-Serif" font-size="10.00">AddRemoveMH&lt; GraphStructure, T &gt;</text>
<polyline fill="none" stroke="black" points="0,-392.5 200,-392.5 "/>
<text text-anchor="start" x="8" y="-380.5" font-family="Helvetica,sans-Serif" font-size="10.00"># MCiterPrior</text>
<text text-anchor="start" x="8" y="-369.5" font-family="Helvetica,sans-Serif" font-size="10.00"># MCiterPost</text>
<text text-anchor="start" x="8" y="-358.5" font-family="Helvetica,sans-Serif" font-size="10.00"># negative_infinity</text>
<text text-anchor="start" x="8" y="-347.5" font-family="Helvetica,sans-Serif" font-size="10.00"># infinity</text>
<polyline fill="none" stroke="black" points="0,-340.5 200,-340.5 "/>
<text text-anchor="start" x="8" y="-328.5" font-family="Helvetica,sans-Serif" font-size="10.00">+ AddRemoveMH()</text>
<text text-anchor="start" x="8" y="-317.5" font-family="Helvetica,sans-Serif" font-size="10.00">+ AddRemoveMH()</text>
<text text-anchor="start" x="8" y="-306.5" font-family="Helvetica,sans-Serif" font-size="10.00">+ operator()()</text>
</a>
</g>
</g>
<!-- Node4&#45;&gt;Node5 -->
<g id="edge4" class="edge">
<title>Node4&#45;&gt;Node5</title>
<path fill="none" stroke="midnightblue" d="M211.83,-472.32C191.95,-451.74 171.3,-430.35 153.24,-411.64"/>
<polygon fill="none" stroke="midnightblue" points="209.35,-474.8 218.82,-479.56 214.39,-469.94 209.35,-474.8"/>
</g>
<!-- Node6 -->
<g id="node6" class="node">
<title>Node6</title>
<g id="a_node6"><a xlink:href="classReversibleJumpsMH.html" target="_top" xlink:title=" ">
<polygon fill="white" stroke="black" points="218,-299.5 218,-411.5 352,-411.5 352,-299.5 218,-299.5"/>
<text text-anchor="start" x="226" y="-399.5" font-family="Helvetica,sans-Serif" font-size="10.00">ReversibleJumpsMH&lt;</text>
<text text-anchor="middle" x="285" y="-388.5" font-family="Helvetica,sans-Serif" font-size="10.00"> GraphStructure, T &gt;</text>
<polyline fill="none" stroke="black" points="218,-381.5 352,-381.5 "/>
<text text-anchor="start" x="226" y="-369.5" font-family="Helvetica,sans-Serif" font-size="10.00"># sigma</text>
<text text-anchor="start" x="226" y="-358.5" font-family="Helvetica,sans-Serif" font-size="10.00"># MCiterPrior</text>
<polyline fill="none" stroke="black" points="218,-351.5 352,-351.5 "/>
<text text-anchor="start" x="226" y="-339.5" font-family="Helvetica,sans-Serif" font-size="10.00">+ ReversibleJumpsMH()</text>
<text text-anchor="start" x="226" y="-328.5" font-family="Helvetica,sans-Serif" font-size="10.00">+ ReversibleJumpsMH()</text>
<text text-anchor="start" x="226" y="-317.5" font-family="Helvetica,sans-Serif" font-size="10.00">+ RJ()</text>
<text text-anchor="start" x="226" y="-306.5" font-family="Helvetica,sans-Serif" font-size="10.00">+ operator()()</text>
</a>
</g>
</g>
<!-- Node4&#45;&gt;Node6 -->
<g id="edge5" class="edge">
<title>Node4&#45;&gt;Node6</title>
<path fill="none" stroke="midnightblue" d="M289.49,-439.35C288.97,-429.78 288.46,-420.44 287.99,-411.68"/>
<polygon fill="none" stroke="midnightblue" points="286,-439.59 290.03,-449.39 292.99,-439.21 286,-439.59"/>
</g>
<!-- Node7 -->
<g id="node7" class="node">
<title>Node7</title>
<g id="a_node7"><a xlink:href="classReversibleJumpsMH.html" target="_top" xlink:title=" ">
<polygon fill="white" stroke="black" points="239.5,-128.5 239.5,-240.5 388.5,-240.5 388.5,-128.5 239.5,-128.5"/>
<text text-anchor="start" x="247.5" y="-228.5" font-family="Helvetica,sans-Serif" font-size="10.00">ReversibleJumpsMH&lt;</text>
<text text-anchor="middle" x="314" y="-217.5" font-family="Helvetica,sans-Serif" font-size="10.00"> GraphType, unsigned int &gt;</text>
<polyline fill="none" stroke="black" points="239.5,-210.5 388.5,-210.5 "/>
<text text-anchor="start" x="247.5" y="-198.5" font-family="Helvetica,sans-Serif" font-size="10.00"># sigma</text>
<text text-anchor="start" x="247.5" y="-187.5" font-family="Helvetica,sans-Serif" font-size="10.00"># MCiterPrior</text>
<polyline fill="none" stroke="black" points="239.5,-180.5 388.5,-180.5 "/>
<text text-anchor="start" x="247.5" y="-168.5" font-family="Helvetica,sans-Serif" font-size="10.00">+ ReversibleJumpsMH()</text>
<text text-anchor="start" x="247.5" y="-157.5" font-family="Helvetica,sans-Serif" font-size="10.00">+ ReversibleJumpsMH()</text>
<text text-anchor="start" x="247.5" y="-146.5" font-family="Helvetica,sans-Serif" font-size="10.00">+ RJ()</text>
<text text-anchor="start" x="247.5" y="-135.5" font-family="Helvetica,sans-Serif" font-size="10.00">+ operator()()</text>
</a>
</g>
</g>
<!-- Node4&#45;&gt;Node7 -->
<g id="edge8" class="edge">
<title>Node4&#45;&gt;Node7</title>
<path fill="none" stroke="midnightblue" d="M353.11,-439.84C356.18,-430.55 358.88,-421.21 361,-412 376.29,-345.7 386.62,-323.84 366,-259 364.01,-252.74 361.27,-246.56 358.09,-240.6"/>
<polygon fill="none" stroke="midnightblue" points="349.73,-438.89 349.77,-449.49 356.34,-441.18 349.73,-438.89"/>
</g>
<!-- Node6&#45;&gt;Node7 -->
<g id="edge6" class="edge">
<title>Node6&#45;&gt;Node7</title>
<path fill="none" stroke="orange" d="M247.37,-289.69C245.21,-279.42 245.24,-268.92 249,-259 251.41,-252.63 254.66,-246.45 258.42,-240.57"/>
<polygon fill="orange" stroke="orange" points="244.03,-290.73 250.06,-299.44 250.77,-288.87 244.03,-290.73"/>
<text text-anchor="start" x="249" y="-273" font-family="Helvetica,sans-Serif" font-size="10.00"> &lt; GraphType, unsigned</text>
<text text-anchor="middle" x="307.5" y="-262" font-family="Helvetica,sans-Serif" font-size="10.00"> int &gt;</text>
</g>
<!-- Node8 -->
<g id="node8" class="node">
<title>Node8</title>
<g id="a_node8"><a xlink:href="classDoubleReversibleJumpsMH.html" target="_top" xlink:title=" ">
<polygon fill="white" stroke="black" points="230,-0.5 230,-90.5 398,-90.5 398,-0.5 230,-0.5"/>
<text text-anchor="start" x="238" y="-78.5" font-family="Helvetica,sans-Serif" font-size="10.00">DoubleReversibleJumpsMH</text>
<text text-anchor="middle" x="314" y="-67.5" font-family="Helvetica,sans-Serif" font-size="10.00">&lt; GraphStructure, T &gt;</text>
<polyline fill="none" stroke="black" points="230,-60.5 398,-60.5 "/>
<text text-anchor="start" x="238" y="-48.5" font-family="Helvetica,sans-Serif" font-size="10.00"># Waux</text>
<polyline fill="none" stroke="black" points="230,-41.5 398,-41.5 "/>
<text text-anchor="start" x="238" y="-29.5" font-family="Helvetica,sans-Serif" font-size="10.00">+ DoubleReversibleJumpsMH()</text>
<text text-anchor="start" x="238" y="-18.5" font-family="Helvetica,sans-Serif" font-size="10.00">+ DoubleReversibleJumpsMH()</text>
<text text-anchor="start" x="238" y="-7.5" font-family="Helvetica,sans-Serif" font-size="10.00">+ operator()()</text>
</a>
</g>
</g>
<!-- Node7&#45;&gt;Node8 -->
<g id="edge7" class="edge">
<title>Node7&#45;&gt;Node8</title>
<path fill="none" stroke="midnightblue" d="M314,-118.13C314,-108.83 314,-99.44 314,-90.67"/>
<polygon fill="none" stroke="midnightblue" points="310.5,-118.17 314,-128.17 317.5,-118.17 310.5,-118.17"/>
</g>
<!-- Node10 -->
<g id="node10" class="node">
<title>Node10</title>
<g id="a_node10"><a xlink:href="classReversibleJumpsMH_3_01GraphType_00_01T_01_4.html" target="_top" xlink:title=" ">
<polygon fill="white" stroke="black" points="408,-299.5 408,-411.5 542,-411.5 542,-299.5 408,-299.5"/>
<text text-anchor="start" x="416" y="-399.5" font-family="Helvetica,sans-Serif" font-size="10.00">ReversibleJumpsMH&lt;</text>
<text text-anchor="middle" x="475" y="-388.5" font-family="Helvetica,sans-Serif" font-size="10.00"> GraphType, T &gt;</text>
<polyline fill="none" stroke="black" points="408,-381.5 542,-381.5 "/>
<text text-anchor="start" x="416" y="-369.5" font-family="Helvetica,sans-Serif" font-size="10.00"># sigma</text>
<text text-anchor="start" x="416" y="-358.5" font-family="Helvetica,sans-Serif" font-size="10.00"># MCiterPrior</text>
<polyline fill="none" stroke="black" points="408,-351.5 542,-351.5 "/>
<text text-anchor="start" x="416" y="-339.5" font-family="Helvetica,sans-Serif" font-size="10.00">+ ReversibleJumpsMH()</text>
<text text-anchor="start" x="416" y="-328.5" font-family="Helvetica,sans-Serif" font-size="10.00">+ ReversibleJumpsMH()</text>
<text text-anchor="start" x="416" y="-317.5" font-family="Helvetica,sans-Serif" font-size="10.00">+ RJ()</text>
<text text-anchor="start" x="416" y="-306.5" font-family="Helvetica,sans-Serif" font-size="10.00">+ operator()()</text>
</a>
</g>
</g>
<!-- Node9&#45;&gt;Node10 -->
<g id="edge10" class="edge">
<title>Node9&#45;&gt;Node10</title>
<path fill="none" stroke="midnightblue" d="M473.7,-444.61C473.87,-433.15 474.03,-421.92 474.19,-411.52"/>
<polygon fill="none" stroke="midnightblue" points="470.2,-444.68 473.55,-454.73 477.2,-444.78 470.2,-444.68"/>
</g>
</g>
</svg>
