<?xml version="1.0" encoding="UTF-8" standalone="no"?>
<!DOCTYPE svg PUBLIC "-//W3C//DTD SVG 1.1//EN"
 "http://www.w3.org/Graphics/SVG/1.1/DTD/svg11.dtd">
<!-- Generated by graphviz version 2.43.0 (0)
 -->
<!-- Title: FLMParameters Pages: 1 -->
<svg width="409pt" height="215pt"
 viewBox="0.00 0.00 408.50 215.00" xmlns="http://www.w3.org/2000/svg" xmlns:xlink="http://www.w3.org/1999/xlink">
<g id="graph0" class="graph" transform="scale(1 1) rotate(0) translate(4 211)">
<title>FLMParameters</title>
<polygon fill="white" stroke="transparent" points="-4,4 -4,-211 404.5,-211 404.5,4 -4,4"/>
<!-- Node1 -->
<g id="node1" class="node">
<title>Node1</title>
<g id="a_node1"><a xlink:title=" ">
<polygon fill="#bfbfbf" stroke="black" points="147,-0.5 147,-68.5 258,-68.5 258,-0.5 147,-0.5"/>
<text text-anchor="middle" x="202.5" y="-56.5" font-family="Helvetica,sans-Serif" font-size="10.00">FLMParameters</text>
<polyline fill="none" stroke="black" points="147,-49.5 258,-49.5 "/>
<text text-anchor="middle" x="202.5" y="-37.5" font-family="Helvetica,sans-Serif" font-size="10.00"> </text>
<polyline fill="none" stroke="black" points="147,-30.5 258,-30.5 "/>
<text text-anchor="start" x="155" y="-18.5" font-family="Helvetica,sans-Serif" font-size="10.00">+ FLMParameters()</text>
<text text-anchor="start" x="155" y="-7.5" font-family="Helvetica,sans-Serif" font-size="10.00">+ FLMParameters()</text>
</a>
</g>
</g>
<!-- Node2 -->
<g id="node2" class="node">
<title>Node2</title>
<g id="a_node2"><a xlink:href="structFLMsamplerTraits.html" target="_top" xlink:title=" ">
<polygon fill="white" stroke="black" points="0,-149.5 0,-206.5 103,-206.5 103,-149.5 0,-149.5"/>
<text text-anchor="middle" x="51.5" y="-194.5" font-family="Helvetica,sans-Serif" font-size="10.00">FLMsamplerTraits</text>
<polyline fill="none" stroke="black" points="0,-187.5 103,-187.5 "/>
<text text-anchor="middle" x="51.5" y="-175.5" font-family="Helvetica,sans-Serif" font-size="10.00"> </text>
<polyline fill="none" stroke="black" points="0,-168.5 103,-168.5 "/>
<text text-anchor="middle" x="51.5" y="-156.5" font-family="Helvetica,sans-Serif" font-size="10.00"> </text>
</a>
</g>
</g>
<!-- Node2&#45;&gt;Node1 -->
<g id="edge1" class="edge">
<title>Node2&#45;&gt;Node1</title>
<path fill="none" stroke="midnightblue" d="M82.16,-141.5C97.55,-124.39 116.84,-103.95 135.5,-87 142.34,-80.78 149.87,-74.51 157.34,-68.58"/>
<polygon fill="none" stroke="midnightblue" points="79.43,-139.31 75.39,-149.1 84.65,-143.96 79.43,-139.31"/>
</g>
<!-- Node3 -->
<g id="node3" class="node">
<title>Node3</title>
<g id="a_node3"><a xlink:href="classdouble.html" target="_top" xlink:title=" ">
<polygon fill="white" stroke="black" points="121.5,-149.5 121.5,-206.5 171.5,-206.5 171.5,-149.5 121.5,-149.5"/>
<text text-anchor="middle" x="146.5" y="-194.5" font-family="Helvetica,sans-Serif" font-size="10.00">double</text>
<polyline fill="none" stroke="black" points="121.5,-187.5 171.5,-187.5 "/>
<text text-anchor="middle" x="146.5" y="-175.5" font-family="Helvetica,sans-Serif" font-size="10.00"> </text>
<polyline fill="none" stroke="black" points="121.5,-168.5 171.5,-168.5 "/>
<text text-anchor="middle" x="146.5" y="-156.5" font-family="Helvetica,sans-Serif" font-size="10.00"> </text>
</a>
</g>
</g>
<!-- Node3&#45;&gt;Node1 -->
<g id="edge2" class="edge">
<title>Node3&#45;&gt;Node1</title>
<path fill="none" stroke="#404040" d="M141.36,-149.44C139.2,-130.99 138.87,-106.59 147.5,-87 148.81,-84.02 150.39,-81.13 152.17,-78.34"/>
<polygon fill="none" stroke="#404040" points="152.19,-78.31 152.59,-71.11 159.39,-68.71 158.99,-75.91 152.19,-78.31"/>
<text text-anchor="middle" x="192.5" y="-106.5" font-family="Helvetica,sans-Serif" font-size="10.00"> +trGwishSampler</text>
</g>
<!-- Node4 -->
<g id="node4" class="node">
<title>Node4</title>
<g id="a_node4"><a xlink:title=" ">
<polygon fill="white" stroke="#bfbfbf" points="245,-149.5 245,-206.5 274,-206.5 274,-149.5 245,-149.5"/>
<text text-anchor="middle" x="259.5" y="-194.5" font-family="Helvetica,sans-Serif" font-size="10.00">int</text>
<polyline fill="none" stroke="#bfbfbf" points="245,-187.5 274,-187.5 "/>
<text text-anchor="middle" x="259.5" y="-175.5" font-family="Helvetica,sans-Serif" font-size="10.00"> </text>
<polyline fill="none" stroke="#bfbfbf" points="245,-168.5 274,-168.5 "/>
<text text-anchor="middle" x="259.5" y="-156.5" font-family="Helvetica,sans-Serif" font-size="10.00"> </text>
</a>
</g>
</g>
<!-- Node4&#45;&gt;Node1 -->
<g id="edge3" class="edge">
<title>Node4&#45;&gt;Node1</title>
<path fill="none" stroke="#404040" d="M255.39,-149.39C252.04,-131.14 246.39,-106.99 237.5,-87 236.33,-84.37 235.03,-81.74 233.63,-79.12"/>
<polygon fill="none" stroke="#404040" points="233.52,-78.93 227.04,-75.77 227.47,-68.57 233.95,-71.73 233.52,-78.93"/>
<text text-anchor="middle" x="285.5" y="-123" font-family="Helvetica,sans-Serif" font-size="10.00"> +thin</text>
<text text-anchor="middle" x="285.5" y="-112" font-family="Helvetica,sans-Serif" font-size="10.00">+iter_to_store</text>
<text text-anchor="middle" x="285.5" y="-101" font-family="Helvetica,sans-Serif" font-size="10.00">+niter</text>
<text text-anchor="middle" x="285.5" y="-90" font-family="Helvetica,sans-Serif" font-size="10.00">+nburn</text>
</g>
<!-- Node5 -->
<g id="node5" class="node">
<title>Node5</title>
<g id="a_node5"><a xlink:title=" ">
<polygon fill="white" stroke="#bfbfbf" points="322,-149.5 322,-206.5 383,-206.5 383,-149.5 322,-149.5"/>
<text text-anchor="middle" x="352.5" y="-194.5" font-family="Helvetica,sans-Serif" font-size="10.00">MatrixXd</text>
<polyline fill="none" stroke="#bfbfbf" points="322,-187.5 383,-187.5 "/>
<text text-anchor="middle" x="352.5" y="-175.5" font-family="Helvetica,sans-Serif" font-size="10.00"> </text>
<polyline fill="none" stroke="#bfbfbf" points="322,-168.5 383,-168.5 "/>
<text text-anchor="middle" x="352.5" y="-156.5" font-family="Helvetica,sans-Serif" font-size="10.00"> </text>
</a>
</g>
</g>
<!-- Node5&#45;&gt;Node1 -->
<g id="edge4" class="edge">
<title>Node5&#45;&gt;Node1</title>
<path fill="none" stroke="#404040" d="M350.01,-149.18C346.92,-129.66 340,-104.09 324.5,-87 309.91,-70.91 289.47,-59.68 269.49,-51.92"/>
<polygon fill="none" stroke="#404040" points="269.44,-51.9 262.44,-53.64 258.15,-47.84 265.15,-46.11 269.44,-51.9"/>
<text text-anchor="middle" x="373" y="-106.5" font-family="Helvetica,sans-Serif" font-size="10.00"> +Basemat</text>
</g>
</g>
</svg>
