<?xml version="1.0" encoding="UTF-8" standalone="no"?>
<!DOCTYPE svg PUBLIC "-//W3C//DTD SVG 1.1//EN"
 "http://www.w3.org/Graphics/SVG/1.1/DTD/svg11.dtd">
<!-- Generated by graphviz version 2.43.0 (0)
 -->
<!-- Title: Hyperparameters Pages: 1 -->
<svg width="248pt" height="270pt"
 viewBox="0.00 0.00 248.00 270.00" xmlns="http://www.w3.org/2000/svg" xmlns:xlink="http://www.w3.org/1999/xlink">
<g id="graph0" class="graph" transform="scale(1 1) rotate(0) translate(4 266)">
<title>Hyperparameters</title>
<polygon fill="white" stroke="transparent" points="-4,4 -4,-266 244,-266 244,4 -4,4"/>
<!-- Node1 -->
<g id="node1" class="node">
<title>Node1</title>
<g id="a_node1"><a xlink:title=" ">
<polygon fill="#bfbfbf" stroke="black" points="66,-0.5 66,-90.5 187,-90.5 187,-0.5 66,-0.5"/>
<text text-anchor="middle" x="126.5" y="-78.5" font-family="Helvetica,sans-Serif" font-size="10.00">Hyperparameters</text>
<polyline fill="none" stroke="black" points="66,-71.5 187,-71.5 "/>
<text text-anchor="middle" x="126.5" y="-59.5" font-family="Helvetica,sans-Serif" font-size="10.00"> </text>
<polyline fill="none" stroke="black" points="66,-52.5 187,-52.5 "/>
<text text-anchor="start" x="74" y="-40.5" font-family="Helvetica,sans-Serif" font-size="10.00">+ Hyperparameters()</text>
<text text-anchor="start" x="74" y="-29.5" font-family="Helvetica,sans-Serif" font-size="10.00">+ Hyperparameters()</text>
<text text-anchor="start" x="74" y="-18.5" font-family="Helvetica,sans-Serif" font-size="10.00">+ Hyperparameters()</text>
<text text-anchor="start" x="74" y="-7.5" font-family="Helvetica,sans-Serif" font-size="10.00">+ Hyperparameters()</text>
</a>
</g>
</g>
<!-- Node2 -->
<g id="node2" class="node">
<title>Node2</title>
<g id="a_node2"><a xlink:href="structSamplerTraits.html" target="_top" xlink:title=" ">
<polygon fill="white" stroke="black" points="0,-204.5 0,-261.5 83,-261.5 83,-204.5 0,-204.5"/>
<text text-anchor="middle" x="41.5" y="-249.5" font-family="Helvetica,sans-Serif" font-size="10.00">SamplerTraits</text>
<polyline fill="none" stroke="black" points="0,-242.5 83,-242.5 "/>
<text text-anchor="middle" x="41.5" y="-230.5" font-family="Helvetica,sans-Serif" font-size="10.00"> </text>
<polyline fill="none" stroke="black" points="0,-223.5 83,-223.5 "/>
<text text-anchor="middle" x="41.5" y="-211.5" font-family="Helvetica,sans-Serif" font-size="10.00"> </text>
</a>
</g>
</g>
<!-- Node2&#45;&gt;Node1 -->
<g id="edge1" class="edge">
<title>Node2&#45;&gt;Node1</title>
<path fill="none" stroke="midnightblue" d="M58.48,-194.94C72.24,-164.91 91.67,-122.5 106.25,-90.7"/>
<polygon fill="none" stroke="midnightblue" points="55.21,-193.68 54.23,-204.23 61.57,-196.6 55.21,-193.68"/>
</g>
<!-- Node3 -->
<g id="node3" class="node">
<title>Node3</title>
<g id="a_node3"><a xlink:href="classdouble.html" target="_top" xlink:title=" ">
<polygon fill="white" stroke="black" points="101.5,-204.5 101.5,-261.5 151.5,-261.5 151.5,-204.5 101.5,-204.5"/>
<text text-anchor="middle" x="126.5" y="-249.5" font-family="Helvetica,sans-Serif" font-size="10.00">double</text>
<polyline fill="none" stroke="black" points="101.5,-242.5 151.5,-242.5 "/>
<text text-anchor="middle" x="126.5" y="-230.5" font-family="Helvetica,sans-Serif" font-size="10.00"> </text>
<polyline fill="none" stroke="black" points="101.5,-223.5 151.5,-223.5 "/>
<text text-anchor="middle" x="126.5" y="-211.5" font-family="Helvetica,sans-Serif" font-size="10.00"> </text>
</a>
</g>
</g>
<!-- Node3&#45;&gt;Node1 -->
<g id="edge2" class="edge">
<title>Node3&#45;&gt;Node1</title>
<path fill="none" stroke="#404040" d="M126.5,-204.23C126.5,-177.61 126.5,-136.65 126.5,-103.13"/>
<polygon fill="none" stroke="#404040" points="126.5,-102.7 122.5,-96.7 126.5,-90.7 130.5,-96.7 126.5,-102.7"/>
<text text-anchor="middle" x="156.5" y="-178" font-family="Helvetica,sans-Serif" font-size="10.00"> +b_K</text>
<text text-anchor="middle" x="156.5" y="-167" font-family="Helvetica,sans-Serif" font-size="10.00">+a_tau_eps</text>
<text text-anchor="middle" x="156.5" y="-156" font-family="Helvetica,sans-Serif" font-size="10.00">+p_addrm</text>
<text text-anchor="middle" x="156.5" y="-145" font-family="Helvetica,sans-Serif" font-size="10.00">+Gprior</text>
<text text-anchor="middle" x="156.5" y="-134" font-family="Helvetica,sans-Serif" font-size="10.00">+b_tau_eps</text>
<text text-anchor="middle" x="156.5" y="-123" font-family="Helvetica,sans-Serif" font-size="10.00">+sigmaG</text>
<text text-anchor="middle" x="156.5" y="-112" font-family="Helvetica,sans-Serif" font-size="10.00">+sigma_mu</text>
</g>
<!-- Node4 -->
<g id="node4" class="node">
<title>Node4</title>
<g id="a_node4"><a xlink:title=" ">
<polygon fill="white" stroke="#bfbfbf" points="179,-204.5 179,-261.5 240,-261.5 240,-204.5 179,-204.5"/>
<text text-anchor="middle" x="209.5" y="-249.5" font-family="Helvetica,sans-Serif" font-size="10.00">MatrixXd</text>
<polyline fill="none" stroke="#bfbfbf" points="179,-242.5 240,-242.5 "/>
<text text-anchor="middle" x="209.5" y="-230.5" font-family="Helvetica,sans-Serif" font-size="10.00"> </text>
<polyline fill="none" stroke="#bfbfbf" points="179,-223.5 240,-223.5 "/>
<text text-anchor="middle" x="209.5" y="-211.5" font-family="Helvetica,sans-Serif" font-size="10.00"> </text>
</a>
</g>
</g>
<!-- Node4&#45;&gt;Node1 -->
<g id="edge3" class="edge">
<title>Node4&#45;&gt;Node1</title>
<path fill="none" stroke="#404040" d="M209.14,-204.13C207.76,-178.18 202.98,-139.09 187.5,-109 186.02,-106.13 184.37,-103.3 182.58,-100.53"/>
<polygon fill="none" stroke="#404040" points="182.57,-100.53 175.82,-97.99 175.57,-90.78 182.32,-93.32 182.57,-100.53"/>
<text text-anchor="middle" x="222" y="-145" font-family="Helvetica,sans-Serif" font-size="10.00"> +D_K</text>
</g>
</g>
</svg>
