<?xml version="1.0" encoding="UTF-8" standalone="no"?>
<!DOCTYPE svg PUBLIC "-//W3C//DTD SVG 1.1//EN"
 "http://www.w3.org/Graphics/SVG/1.1/DTD/svg11.dtd">
<!-- Generated by graphviz version 2.43.0 (0)
 -->
<!-- Title: BlockGraphBase&lt; T &gt; Pages: 1 -->
<svg width="248pt" height="336pt"
 viewBox="0.00 0.00 247.50 336.00" xmlns="http://www.w3.org/2000/svg" xmlns:xlink="http://www.w3.org/1999/xlink">
<g id="graph0" class="graph" transform="scale(1 1) rotate(0) translate(4 332)">
<title>BlockGraphBase&lt; T &gt;</title>
<polygon fill="white" stroke="transparent" points="-4,4 -4,-332 243.5,-332 243.5,4 -4,4"/>
<!-- Node1 -->
<g id="node1" class="node">
<title>Node1</title>
<g id="a_node1"><a xlink:title=" ">
<polygon fill="#bfbfbf" stroke="black" points="47.5,-0.5 47.5,-200.5 217.5,-200.5 217.5,-0.5 47.5,-0.5"/>
<text text-anchor="middle" x="132.5" y="-188.5" font-family="Helvetica,sans-Serif" font-size="10.00">BlockGraphBase&lt; T &gt;</text>
<polyline fill="none" stroke="black" points="47.5,-181.5 217.5,-181.5 "/>
<text text-anchor="middle" x="132.5" y="-169.5" font-family="Helvetica,sans-Serif" font-size="10.00"> </text>
<polyline fill="none" stroke="black" points="47.5,-162.5 217.5,-162.5 "/>
<text text-anchor="start" x="55.5" y="-150.5" font-family="Helvetica,sans-Serif" font-size="10.00">+ BlockGraphBase()</text>
<text text-anchor="start" x="55.5" y="-139.5" font-family="Helvetica,sans-Serif" font-size="10.00">+ get_groups()</text>
<text text-anchor="start" x="55.5" y="-128.5" font-family="Helvetica,sans-Serif" font-size="10.00">+ get_ptr_groups()</text>
<text text-anchor="start" x="55.5" y="-117.5" font-family="Helvetica,sans-Serif" font-size="10.00">+ get_size()</text>
<text text-anchor="start" x="55.5" y="-106.5" font-family="Helvetica,sans-Serif" font-size="10.00">+ get_number_singleton()</text>
<text text-anchor="start" x="55.5" y="-95.5" font-family="Helvetica,sans-Serif" font-size="10.00">+ get_pos_singleton()</text>
<text text-anchor="start" x="55.5" y="-84.5" font-family="Helvetica,sans-Serif" font-size="10.00">+ get_row_with_singleton()</text>
<text text-anchor="start" x="55.5" y="-73.5" font-family="Helvetica,sans-Serif" font-size="10.00">+ get_complete_size()</text>
<text text-anchor="start" x="55.5" y="-62.5" font-family="Helvetica,sans-Serif" font-size="10.00">+ get_group_size()</text>
<text text-anchor="start" x="55.5" y="-51.5" font-family="Helvetica,sans-Serif" font-size="10.00">+ get_n_links()</text>
<text text-anchor="start" x="55.5" y="-40.5" font-family="Helvetica,sans-Serif" font-size="10.00">and 16 more...</text>
<text text-anchor="start" x="55.5" y="-29.5" font-family="Helvetica,sans-Serif" font-size="10.00"># find_neighbours()</text>
<text text-anchor="start" x="55.5" y="-18.5" font-family="Helvetica,sans-Serif" font-size="10.00"># compute_nlinks_nblocks()</text>
<text text-anchor="start" x="55.5" y="-7.5" font-family="Helvetica,sans-Serif" font-size="10.00"># compute_diagonal_position()</text>
</a>
</g>
</g>
<!-- Node2 -->
<g id="node2" class="node">
<title>Node2</title>
<g id="a_node2"><a xlink:title=" ">
<polygon fill="white" stroke="#bfbfbf" points="0,-270.5 0,-327.5 155,-327.5 155,-270.5 0,-270.5"/>
<text text-anchor="middle" x="77.5" y="-315.5" font-family="Helvetica,sans-Serif" font-size="10.00">shared_ptr&lt; const Groups &gt;</text>
<polyline fill="none" stroke="#bfbfbf" points="0,-308.5 155,-308.5 "/>
<text text-anchor="middle" x="77.5" y="-296.5" font-family="Helvetica,sans-Serif" font-size="10.00"> </text>
<polyline fill="none" stroke="#bfbfbf" points="0,-289.5 155,-289.5 "/>
<text text-anchor="middle" x="77.5" y="-277.5" font-family="Helvetica,sans-Serif" font-size="10.00"> </text>
</a>
</g>
</g>
<!-- Node2&#45;&gt;Node1 -->
<g id="edge1" class="edge">
<title>Node2&#45;&gt;Node1</title>
<path fill="none" stroke="#404040" d="M85.26,-270.26C89.66,-254.57 95.47,-233.8 101.51,-212.22"/>
<polygon fill="none" stroke="#404040" points="101.55,-212.09 99.31,-205.23 104.78,-200.53 107.02,-207.39 101.55,-212.09"/>
<text text-anchor="middle" x="130.5" y="-233" font-family="Helvetica,sans-Serif" font-size="10.00"> #ptr_groups</text>
</g>
<!-- Node3 -->
<g id="node3" class="node">
<title>Node3</title>
<g id="a_node3"><a xlink:title=" ">
<polygon fill="white" stroke="#bfbfbf" points="173,-270.5 173,-327.5 202,-327.5 202,-270.5 173,-270.5"/>
<text text-anchor="middle" x="187.5" y="-315.5" font-family="Helvetica,sans-Serif" font-size="10.00">int</text>
<polyline fill="none" stroke="#bfbfbf" points="173,-308.5 202,-308.5 "/>
<text text-anchor="middle" x="187.5" y="-296.5" font-family="Helvetica,sans-Serif" font-size="10.00"> </text>
<polyline fill="none" stroke="#bfbfbf" points="173,-289.5 202,-289.5 "/>
<text text-anchor="middle" x="187.5" y="-277.5" font-family="Helvetica,sans-Serif" font-size="10.00"> </text>
</a>
</g>
</g>
<!-- Node3&#45;&gt;Node1 -->
<g id="edge2" class="edge">
<title>Node3&#45;&gt;Node1</title>
<path fill="none" stroke="#404040" d="M179.78,-270.21C175.57,-255.07 170.25,-236 165.5,-219 164.87,-216.74 164.23,-214.46 163.59,-212.16"/>
<polygon fill="none" stroke="#404040" points="163.57,-212.1 158.1,-207.4 160.33,-200.54 165.8,-205.24 163.57,-212.1"/>
<text text-anchor="middle" x="207" y="-244" font-family="Helvetica,sans-Serif" font-size="10.00"> #n_links</text>
<text text-anchor="middle" x="207" y="-233" font-family="Helvetica,sans-Serif" font-size="10.00">#n_singleton</text>
<text text-anchor="middle" x="207" y="-222" font-family="Helvetica,sans-Serif" font-size="10.00">#n_blocks</text>
</g>
</g>
</svg>
