<?xml version="1.0" encoding="UTF-8" standalone="no"?>
<!DOCTYPE svg PUBLIC "-//W3C//DTD SVG 1.1//EN"
 "http://www.w3.org/Graphics/SVG/1.1/DTD/svg11.dtd">
<!-- Generated by graphviz version 2.43.0 (0)
 -->
<!-- Title: Parameters Pages: 1 -->
<svg width="496pt" height="314pt"
 viewBox="0.00 0.00 495.50 314.00" xmlns="http://www.w3.org/2000/svg" xmlns:xlink="http://www.w3.org/1999/xlink">
<g id="graph0" class="graph" transform="scale(1 1) rotate(0) translate(4 310)">
<title>Parameters</title>
<polygon fill="white" stroke="transparent" points="-4,4 -4,-310 491.5,-310 491.5,4 -4,4"/>
<!-- Node1 -->
<g id="node1" class="node">
<title>Node1</title>
<g id="a_node1"><a xlink:title=" ">
<polygon fill="#bfbfbf" stroke="black" points="194,-0.5 194,-123.5 285,-123.5 285,-0.5 194,-0.5"/>
<text text-anchor="middle" x="239.5" y="-111.5" font-family="Helvetica,sans-Serif" font-size="10.00">Parameters</text>
<polyline fill="none" stroke="black" points="194,-104.5 285,-104.5 "/>
<text text-anchor="middle" x="239.5" y="-92.5" font-family="Helvetica,sans-Serif" font-size="10.00"> </text>
<polyline fill="none" stroke="black" points="194,-85.5 285,-85.5 "/>
<text text-anchor="start" x="202" y="-73.5" font-family="Helvetica,sans-Serif" font-size="10.00">+ Parameters()</text>
<text text-anchor="start" x="202" y="-62.5" font-family="Helvetica,sans-Serif" font-size="10.00">+ Parameters()</text>
<text text-anchor="start" x="202" y="-51.5" font-family="Helvetica,sans-Serif" font-size="10.00">+ Parameters()</text>
<text text-anchor="start" x="202" y="-40.5" font-family="Helvetica,sans-Serif" font-size="10.00">+ Parameters()</text>
<text text-anchor="start" x="202" y="-29.5" font-family="Helvetica,sans-Serif" font-size="10.00">+ Parameters()</text>
<text text-anchor="start" x="202" y="-18.5" font-family="Helvetica,sans-Serif" font-size="10.00">+ Parameters()</text>
<text text-anchor="start" x="202" y="-7.5" font-family="Helvetica,sans-Serif" font-size="10.00">+ Parameters()</text>
</a>
</g>
</g>
<!-- Node2 -->
<g id="node2" class="node">
<title>Node2</title>
<g id="a_node2"><a xlink:href="structSamplerTraits.html" target="_top" xlink:title=" ">
<polygon fill="white" stroke="black" points="0,-248.5 0,-305.5 83,-305.5 83,-248.5 0,-248.5"/>
<text text-anchor="middle" x="41.5" y="-293.5" font-family="Helvetica,sans-Serif" font-size="10.00">SamplerTraits</text>
<polyline fill="none" stroke="black" points="0,-286.5 83,-286.5 "/>
<text text-anchor="middle" x="41.5" y="-274.5" font-family="Helvetica,sans-Serif" font-size="10.00"> </text>
<polyline fill="none" stroke="black" points="0,-267.5 83,-267.5 "/>
<text text-anchor="middle" x="41.5" y="-255.5" font-family="Helvetica,sans-Serif" font-size="10.00"> </text>
</a>
</g>
</g>
<!-- Node2&#45;&gt;Node1 -->
<g id="edge1" class="edge">
<title>Node2&#45;&gt;Node1</title>
<path fill="none" stroke="midnightblue" d="M57.9,-239.19C71.94,-210.48 94.18,-170.77 121.5,-142 142.38,-120.01 170.44,-100.91 193.95,-87.01"/>
<polygon fill="none" stroke="midnightblue" points="54.62,-237.94 53.46,-248.48 60.93,-240.96 54.62,-237.94"/>
</g>
<!-- Node3 -->
<g id="node3" class="node">
<title>Node3</title>
<g id="a_node3"><a xlink:href="classdouble.html" target="_top" xlink:title=" ">
<polygon fill="white" stroke="black" points="101.5,-248.5 101.5,-305.5 151.5,-305.5 151.5,-248.5 101.5,-248.5"/>
<text text-anchor="middle" x="126.5" y="-293.5" font-family="Helvetica,sans-Serif" font-size="10.00">double</text>
<polyline fill="none" stroke="black" points="101.5,-286.5 151.5,-286.5 "/>
<text text-anchor="middle" x="126.5" y="-274.5" font-family="Helvetica,sans-Serif" font-size="10.00"> </text>
<polyline fill="none" stroke="black" points="101.5,-267.5 151.5,-267.5 "/>
<text text-anchor="middle" x="126.5" y="-255.5" font-family="Helvetica,sans-Serif" font-size="10.00"> </text>
</a>
</g>
</g>
<!-- Node3&#45;&gt;Node1 -->
<g id="edge2" class="edge">
<title>Node3&#45;&gt;Node1</title>
<path fill="none" stroke="#404040" d="M124.83,-248.27C124.35,-219.83 127.1,-175.19 145.5,-142 154.83,-125.18 169.26,-110.4 184.04,-98.31"/>
<polygon fill="none" stroke="#404040" points="184.27,-98.13 186.56,-91.29 193.75,-90.77 191.47,-97.61 184.27,-98.13"/>
<text text-anchor="middle" x="190.5" y="-183.5" font-family="Helvetica,sans-Serif" font-size="10.00"> +trGwishSampler</text>
</g>
<!-- Node4 -->
<g id="node4" class="node">
<title>Node4</title>
<g id="a_node4"><a xlink:title=" ">
<polygon fill="white" stroke="#bfbfbf" points="225,-248.5 225,-305.5 254,-305.5 254,-248.5 225,-248.5"/>
<text text-anchor="middle" x="239.5" y="-293.5" font-family="Helvetica,sans-Serif" font-size="10.00">int</text>
<polyline fill="none" stroke="#bfbfbf" points="225,-286.5 254,-286.5 "/>
<text text-anchor="middle" x="239.5" y="-274.5" font-family="Helvetica,sans-Serif" font-size="10.00"> </text>
<polyline fill="none" stroke="#bfbfbf" points="225,-267.5 254,-267.5 "/>
<text text-anchor="middle" x="239.5" y="-255.5" font-family="Helvetica,sans-Serif" font-size="10.00"> </text>
</a>
</g>
</g>
<!-- Node4&#45;&gt;Node1 -->
<g id="edge3" class="edge">
<title>Node4&#45;&gt;Node1</title>
<path fill="none" stroke="#404040" d="M239.5,-248.15C239.5,-219.7 239.5,-174.33 239.5,-135.63"/>
<polygon fill="none" stroke="#404040" points="239.5,-135.59 235.5,-129.59 239.5,-123.59 243.5,-129.59 239.5,-135.59"/>
<text text-anchor="middle" x="278.5" y="-222" font-family="Helvetica,sans-Serif" font-size="10.00"> +MCiterPost</text>
<text text-anchor="middle" x="278.5" y="-211" font-family="Helvetica,sans-Serif" font-size="10.00">+MCiterPrior</text>
<text text-anchor="middle" x="278.5" y="-200" font-family="Helvetica,sans-Serif" font-size="10.00">+thinG</text>
<text text-anchor="middle" x="278.5" y="-189" font-family="Helvetica,sans-Serif" font-size="10.00">+iter_to_storeG</text>
<text text-anchor="middle" x="278.5" y="-178" font-family="Helvetica,sans-Serif" font-size="10.00">+thin</text>
<text text-anchor="middle" x="278.5" y="-167" font-family="Helvetica,sans-Serif" font-size="10.00">+iter_to_store</text>
<text text-anchor="middle" x="278.5" y="-156" font-family="Helvetica,sans-Serif" font-size="10.00">+niter</text>
<text text-anchor="middle" x="278.5" y="-145" font-family="Helvetica,sans-Serif" font-size="10.00">+nburn</text>
</g>
<!-- Node5 -->
<g id="node5" class="node">
<title>Node5</title>
<g id="a_node5"><a xlink:title=" ">
<polygon fill="white" stroke="#bfbfbf" points="310,-248.5 310,-305.5 371,-305.5 371,-248.5 310,-248.5"/>
<text text-anchor="middle" x="340.5" y="-293.5" font-family="Helvetica,sans-Serif" font-size="10.00">MatrixXd</text>
<polyline fill="none" stroke="#bfbfbf" points="310,-286.5 371,-286.5 "/>
<text text-anchor="middle" x="340.5" y="-274.5" font-family="Helvetica,sans-Serif" font-size="10.00"> </text>
<polyline fill="none" stroke="#bfbfbf" points="310,-267.5 371,-267.5 "/>
<text text-anchor="middle" x="340.5" y="-255.5" font-family="Helvetica,sans-Serif" font-size="10.00"> </text>
</a>
</g>
</g>
<!-- Node5&#45;&gt;Node1 -->
<g id="edge4" class="edge">
<title>Node5&#45;&gt;Node1</title>
<path fill="none" stroke="#404040" d="M340.82,-248.29C340.06,-220.06 335.83,-175.77 318.5,-142 312.2,-129.72 303.3,-118.16 293.73,-107.88"/>
<polygon fill="none" stroke="#404040" points="293.6,-107.74 286.54,-106.26 285.2,-99.18 292.25,-100.66 293.6,-107.74"/>
<text text-anchor="middle" x="367" y="-183.5" font-family="Helvetica,sans-Serif" font-size="10.00"> +Basemat</text>
</g>
<!-- Node6 -->
<g id="node6" class="node">
<title>Node6</title>
<g id="a_node6"><a xlink:title=" ">
<polygon fill="white" stroke="#bfbfbf" points="389,-248.5 389,-305.5 454,-305.5 454,-248.5 389,-248.5"/>
<text text-anchor="middle" x="421.5" y="-293.5" font-family="Helvetica,sans-Serif" font-size="10.00">GroupsPtr</text>
<polyline fill="none" stroke="#bfbfbf" points="389,-286.5 454,-286.5 "/>
<text text-anchor="middle" x="421.5" y="-274.5" font-family="Helvetica,sans-Serif" font-size="10.00"> </text>
<polyline fill="none" stroke="#bfbfbf" points="389,-267.5 454,-267.5 "/>
<text text-anchor="middle" x="421.5" y="-255.5" font-family="Helvetica,sans-Serif" font-size="10.00"> </text>
</a>
</g>
</g>
<!-- Node6&#45;&gt;Node1 -->
<g id="edge5" class="edge">
<title>Node6&#45;&gt;Node1</title>
<path fill="none" stroke="#404040" d="M423.69,-248.28C424.53,-219.03 421.54,-172.96 398.5,-142 373.86,-108.9 331.52,-88.81 296.72,-77.18"/>
<polygon fill="none" stroke="#404040" points="296.68,-77.17 289.76,-79.18 285.24,-73.56 292.17,-71.55 296.68,-77.17"/>
<text text-anchor="middle" x="455.5" y="-183.5" font-family="Helvetica,sans-Serif" font-size="10.00"> +ptr_groups</text>
</g>
</g>
</svg>
