<?xml version="1.0" encoding="UTF-8" standalone="no"?>
<!DOCTYPE svg PUBLIC "-//W3C//DTD SVG 1.1//EN"
 "http://www.w3.org/Graphics/SVG/1.1/DTD/svg11.dtd">
<!-- Generated by graphviz version 2.43.0 (0)
 -->
<!-- Title: GWishart&lt; GraphStructure, T &gt; Pages: 1 -->
<svg width="191pt" height="281pt"
 viewBox="0.00 0.00 191.00 281.00" xmlns="http://www.w3.org/2000/svg" xmlns:xlink="http://www.w3.org/1999/xlink">
<g id="graph0" class="graph" transform="scale(1 1) rotate(0) translate(4 277)">
<title>GWishart&lt; GraphStructure, T &gt;</title>
<polygon fill="white" stroke="transparent" points="-4,4 -4,-277 187,-277 187,4 -4,4"/>
<!-- Node1 -->
<g id="node1" class="node">
<title>Node1</title>
<g id="a_node1"><a xlink:title=" ">
<polygon fill="#bfbfbf" stroke="black" points="0,-0.5 0,-167.5 170,-167.5 170,-0.5 0,-0.5"/>
<text text-anchor="middle" x="85" y="-155.5" font-family="Helvetica,sans-Serif" font-size="10.00">GWishart&lt; GraphStructure, T &gt;</text>
<polyline fill="none" stroke="black" points="0,-148.5 170,-148.5 "/>
<text text-anchor="middle" x="85" y="-136.5" font-family="Helvetica,sans-Serif" font-size="10.00"> </text>
<polyline fill="none" stroke="black" points="0,-129.5 170,-129.5 "/>
<text text-anchor="start" x="8" y="-117.5" font-family="Helvetica,sans-Serif" font-size="10.00">+ GWishart()</text>
<text text-anchor="start" x="8" y="-106.5" font-family="Helvetica,sans-Serif" font-size="10.00">+ GWishart()</text>
<text text-anchor="start" x="8" y="-95.5" font-family="Helvetica,sans-Serif" font-size="10.00">+ GWishart()</text>
<text text-anchor="start" x="8" y="-84.5" font-family="Helvetica,sans-Serif" font-size="10.00">+ GWishart()</text>
<text text-anchor="start" x="8" y="-73.5" font-family="Helvetica,sans-Serif" font-size="10.00">+ GWishart()</text>
<text text-anchor="start" x="8" y="-62.5" font-family="Helvetica,sans-Serif" font-size="10.00">+ GWishart()</text>
<text text-anchor="start" x="8" y="-51.5" font-family="Helvetica,sans-Serif" font-size="10.00">+ GWishart()</text>
<text text-anchor="start" x="8" y="-40.5" font-family="Helvetica,sans-Serif" font-size="10.00">+ get_upper_Chol()</text>
<text text-anchor="start" x="8" y="-29.5" font-family="Helvetica,sans-Serif" font-size="10.00">+ get_lower_Chol()</text>
<text text-anchor="start" x="8" y="-18.5" font-family="Helvetica,sans-Serif" font-size="10.00">+ get_col()</text>
<text text-anchor="start" x="8" y="-7.5" font-family="Helvetica,sans-Serif" font-size="10.00">and 17 more...</text>
</a>
</g>
</g>
<!-- Node2 -->
<g id="node2" class="node">
<title>Node2</title>
<g id="a_node2"><a xlink:href="structGWishartTraits.html" target="_top" xlink:title=" ">
<polygon fill="white" stroke="black" points="1,-215.5 1,-272.5 89,-272.5 89,-215.5 1,-215.5"/>
<text text-anchor="middle" x="45" y="-260.5" font-family="Helvetica,sans-Serif" font-size="10.00">GWishartTraits</text>
<polyline fill="none" stroke="black" points="1,-253.5 89,-253.5 "/>
<text text-anchor="middle" x="45" y="-241.5" font-family="Helvetica,sans-Serif" font-size="10.00"> </text>
<polyline fill="none" stroke="black" points="1,-234.5 89,-234.5 "/>
<text text-anchor="middle" x="45" y="-222.5" font-family="Helvetica,sans-Serif" font-size="10.00"> </text>
</a>
</g>
</g>
<!-- Node2&#45;&gt;Node1 -->
<g id="edge1" class="edge">
<title>Node2&#45;&gt;Node1</title>
<path fill="none" stroke="#8b1a1a" d="M54.42,-205.77C57.36,-194.19 60.71,-180.93 64.1,-167.54"/>
<polygon fill="none" stroke="#8b1a1a" points="51.03,-204.93 51.97,-215.48 57.81,-206.64 51.03,-204.93"/>
</g>
<!-- Node3 -->
<g id="node3" class="node">
<title>Node3</title>
<g id="a_node3"><a xlink:title=" ">
<polygon fill="white" stroke="#bfbfbf" points="107,-215.5 107,-272.5 145,-272.5 145,-215.5 107,-215.5"/>
<text text-anchor="middle" x="126" y="-260.5" font-family="Helvetica,sans-Serif" font-size="10.00">bool</text>
<polyline fill="none" stroke="#bfbfbf" points="107,-253.5 145,-253.5 "/>
<text text-anchor="middle" x="126" y="-241.5" font-family="Helvetica,sans-Serif" font-size="10.00"> </text>
<polyline fill="none" stroke="#bfbfbf" points="107,-234.5 145,-234.5 "/>
<text text-anchor="middle" x="126" y="-222.5" font-family="Helvetica,sans-Serif" font-size="10.00"> </text>
</a>
</g>
</g>
<!-- Node3&#45;&gt;Node1 -->
<g id="edge2" class="edge">
<title>Node3&#45;&gt;Node1</title>
<path fill="none" stroke="#404040" d="M118.86,-215.48C116.14,-205.02 112.87,-192.42 109.45,-179.23"/>
<polygon fill="none" stroke="#404040" points="109.43,-179.15 104.05,-174.35 106.42,-167.54 111.8,-172.34 109.43,-179.15"/>
<text text-anchor="middle" x="148" y="-189" font-family="Helvetica,sans-Serif" font-size="10.00"> +isFactorized</text>
</g>
</g>
</svg>
