<?xml version="1.0" encoding="UTF-8" standalone="no"?>
<!DOCTYPE svg PUBLIC "-//W3C//DTD SVG 1.1//EN"
 "http://www.w3.org/Graphics/SVG/1.1/DTD/svg11.dtd">
<!-- Generated by graphviz version 2.43.0 (0)
 -->
<!-- Title: GraphPrior&lt; GraphStructure, T &gt; Pages: 1 -->
<svg width="745pt" height="431pt"
 viewBox="0.00 0.00 744.50 431.00" xmlns="http://www.w3.org/2000/svg" xmlns:xlink="http://www.w3.org/1999/xlink">
<g id="graph0" class="graph" transform="scale(1 1) rotate(0) translate(4 427)">
<title>GraphPrior&lt; GraphStructure, T &gt;</title>
<polygon fill="white" stroke="transparent" points="-4,4 -4,-427 740.5,-427 740.5,4 -4,4"/>
<!-- Node1 -->
<g id="node1" class="node">
<title>Node1</title>
<g id="a_node1"><a xlink:title=" ">
<polygon fill="#bfbfbf" stroke="black" points="253,-321.5 253,-422.5 429,-422.5 429,-321.5 253,-321.5"/>
<text text-anchor="middle" x="341" y="-410.5" font-family="Helvetica,sans-Serif" font-size="10.00">GraphPrior&lt; GraphStructure, T &gt;</text>
<polyline fill="none" stroke="black" points="253,-403.5 429,-403.5 "/>
<text text-anchor="middle" x="341" y="-391.5" font-family="Helvetica,sans-Serif" font-size="10.00"> </text>
<polyline fill="none" stroke="black" points="253,-384.5 429,-384.5 "/>
<text text-anchor="start" x="261" y="-372.5" font-family="Helvetica,sans-Serif" font-size="10.00">+ Prob()</text>
<text text-anchor="start" x="261" y="-361.5" font-family="Helvetica,sans-Serif" font-size="10.00">+ ratio()</text>
<text text-anchor="start" x="261" y="-350.5" font-family="Helvetica,sans-Serif" font-size="10.00">+ log_ratio()</text>
<text text-anchor="start" x="261" y="-339.5" font-family="Helvetica,sans-Serif" font-size="10.00">+ clone()</text>
<text text-anchor="start" x="261" y="-328.5" font-family="Helvetica,sans-Serif" font-size="10.00">+ ~GraphPrior()</text>
</a>
</g>
</g>
<!-- Node2 -->
<g id="node2" class="node">
<title>Node2</title>
<g id="a_node2"><a xlink:href="classGraphPrior.html" target="_top" xlink:title=" ">
<polygon fill="white" stroke="black" points="176.5,-150.5 176.5,-262.5 315.5,-262.5 315.5,-150.5 176.5,-150.5"/>
<text text-anchor="start" x="184.5" y="-250.5" font-family="Helvetica,sans-Serif" font-size="10.00">GraphPrior&lt; BlockGraph,</text>
<text text-anchor="middle" x="246" y="-239.5" font-family="Helvetica,sans-Serif" font-size="10.00"> unsigned int &gt;</text>
<polyline fill="none" stroke="black" points="176.5,-232.5 315.5,-232.5 "/>
<text text-anchor="middle" x="246" y="-220.5" font-family="Helvetica,sans-Serif" font-size="10.00"> </text>
<polyline fill="none" stroke="black" points="176.5,-213.5 315.5,-213.5 "/>
<text text-anchor="start" x="184.5" y="-201.5" font-family="Helvetica,sans-Serif" font-size="10.00">+ Prob()</text>
<text text-anchor="start" x="184.5" y="-190.5" font-family="Helvetica,sans-Serif" font-size="10.00">+ ratio()</text>
<text text-anchor="start" x="184.5" y="-179.5" font-family="Helvetica,sans-Serif" font-size="10.00">+ log_ratio()</text>
<text text-anchor="start" x="184.5" y="-168.5" font-family="Helvetica,sans-Serif" font-size="10.00">+ clone()</text>
<text text-anchor="start" x="184.5" y="-157.5" font-family="Helvetica,sans-Serif" font-size="10.00">+ ~GraphPrior()</text>
</a>
</g>
</g>
<!-- Node1&#45;&gt;Node2 -->
<g id="edge1" class="edge">
<title>Node1&#45;&gt;Node2</title>
<path fill="none" stroke="orange" d="M287.57,-313.14C285.23,-309.79 283.03,-306.4 281,-303 273.59,-290.56 267.34,-276.29 262.26,-262.64"/>
<polygon fill="orange" stroke="orange" points="284.86,-315.37 293.6,-321.36 290.5,-311.23 284.86,-315.37"/>
<text text-anchor="start" x="281" y="-295" font-family="Helvetica,sans-Serif" font-size="10.00"> &lt; BlockGraph, unsigned</text>
<text text-anchor="middle" x="341.5" y="-284" font-family="Helvetica,sans-Serif" font-size="10.00"> int &gt;</text>
</g>
<!-- Node5 -->
<g id="node5" class="node">
<title>Node5</title>
<g id="a_node5"><a xlink:href="classGraphPrior.html" target="_top" xlink:title=" ">
<polygon fill="white" stroke="black" points="369,-150.5 369,-262.5 503,-262.5 503,-150.5 369,-150.5"/>
<text text-anchor="start" x="377" y="-250.5" font-family="Helvetica,sans-Serif" font-size="10.00">GraphPrior&lt; GraphType,</text>
<text text-anchor="middle" x="436" y="-239.5" font-family="Helvetica,sans-Serif" font-size="10.00"> unsigned int &gt;</text>
<polyline fill="none" stroke="black" points="369,-232.5 503,-232.5 "/>
<text text-anchor="middle" x="436" y="-220.5" font-family="Helvetica,sans-Serif" font-size="10.00"> </text>
<polyline fill="none" stroke="black" points="369,-213.5 503,-213.5 "/>
<text text-anchor="start" x="377" y="-201.5" font-family="Helvetica,sans-Serif" font-size="10.00">+ Prob()</text>
<text text-anchor="start" x="377" y="-190.5" font-family="Helvetica,sans-Serif" font-size="10.00">+ ratio()</text>
<text text-anchor="start" x="377" y="-179.5" font-family="Helvetica,sans-Serif" font-size="10.00">+ log_ratio()</text>
<text text-anchor="start" x="377" y="-168.5" font-family="Helvetica,sans-Serif" font-size="10.00">+ clone()</text>
<text text-anchor="start" x="377" y="-157.5" font-family="Helvetica,sans-Serif" font-size="10.00">+ ~GraphPrior()</text>
</a>
</g>
</g>
<!-- Node1&#45;&gt;Node5 -->
<g id="edge4" class="edge">
<title>Node1&#45;&gt;Node5</title>
<path fill="none" stroke="orange" d="M395.37,-313.21C397.73,-309.84 399.96,-306.43 402,-303 409.38,-290.6 415.52,-276.34 420.46,-262.69"/>
<polygon fill="orange" stroke="orange" points="392.4,-311.33 389.27,-321.46 398.03,-315.5 392.4,-311.33"/>
<text text-anchor="start" x="413" y="-295" font-family="Helvetica,sans-Serif" font-size="10.00"> &lt; GraphType, unsigned</text>
<text text-anchor="middle" x="471.5" y="-284" font-family="Helvetica,sans-Serif" font-size="10.00"> int &gt;</text>
</g>
<!-- Node3 -->
<g id="node3" class="node">
<title>Node3</title>
<g id="a_node3"><a xlink:href="classTruncatedBernoulliPrior.html" target="_top" xlink:title=" ">
<polygon fill="white" stroke="black" points="0,-0.5 0,-112.5 152,-112.5 152,-0.5 0,-0.5"/>
<text text-anchor="start" x="8" y="-100.5" font-family="Helvetica,sans-Serif" font-size="10.00">TruncatedBernoulliPrior</text>
<text text-anchor="middle" x="76" y="-89.5" font-family="Helvetica,sans-Serif" font-size="10.00">&lt; BlockGraphStructure, T &gt;</text>
<polyline fill="none" stroke="black" points="0,-82.5 152,-82.5 "/>
<text text-anchor="middle" x="76" y="-70.5" font-family="Helvetica,sans-Serif" font-size="10.00"> </text>
<polyline fill="none" stroke="black" points="0,-63.5 152,-63.5 "/>
<text text-anchor="start" x="8" y="-51.5" font-family="Helvetica,sans-Serif" font-size="10.00">+ TruncatedBernoulliPrior()</text>
<text text-anchor="start" x="8" y="-40.5" font-family="Helvetica,sans-Serif" font-size="10.00">+ Prob()</text>
<text text-anchor="start" x="8" y="-29.5" font-family="Helvetica,sans-Serif" font-size="10.00">+ ratio()</text>
<text text-anchor="start" x="8" y="-18.5" font-family="Helvetica,sans-Serif" font-size="10.00">+ log_ratio()</text>
<text text-anchor="start" x="8" y="-7.5" font-family="Helvetica,sans-Serif" font-size="10.00">+ clone()</text>
</a>
</g>
</g>
<!-- Node2&#45;&gt;Node3 -->
<g id="edge2" class="edge">
<title>Node2&#45;&gt;Node3</title>
<path fill="none" stroke="midnightblue" d="M174.99,-143.68C163.17,-133.39 150.97,-122.77 139.35,-112.66"/>
<polygon fill="none" stroke="midnightblue" points="172.86,-146.46 182.7,-150.39 177.45,-141.18 172.86,-146.46"/>
</g>
<!-- Node4 -->
<g id="node4" class="node">
<title>Node4</title>
<g id="a_node4"><a xlink:href="classTruncatedUniformPrior.html" target="_top" xlink:title=" ">
<polygon fill="white" stroke="black" points="170,-6 170,-107 322,-107 322,-6 170,-6"/>
<text text-anchor="start" x="178" y="-95" font-family="Helvetica,sans-Serif" font-size="10.00">TruncatedUniformPrior</text>
<text text-anchor="middle" x="246" y="-84" font-family="Helvetica,sans-Serif" font-size="10.00">&lt; BlockGraphStructure, T &gt;</text>
<polyline fill="none" stroke="black" points="170,-77 322,-77 "/>
<text text-anchor="middle" x="246" y="-65" font-family="Helvetica,sans-Serif" font-size="10.00"> </text>
<polyline fill="none" stroke="black" points="170,-58 322,-58 "/>
<text text-anchor="start" x="178" y="-46" font-family="Helvetica,sans-Serif" font-size="10.00">+ Prob()</text>
<text text-anchor="start" x="178" y="-35" font-family="Helvetica,sans-Serif" font-size="10.00">+ ratio()</text>
<text text-anchor="start" x="178" y="-24" font-family="Helvetica,sans-Serif" font-size="10.00">+ log_ratio()</text>
<text text-anchor="start" x="178" y="-13" font-family="Helvetica,sans-Serif" font-size="10.00">+ clone()</text>
</a>
</g>
</g>
<!-- Node2&#45;&gt;Node4 -->
<g id="edge3" class="edge">
<title>Node2&#45;&gt;Node4</title>
<path fill="none" stroke="midnightblue" d="M246,-140.32C246,-129.24 246,-117.89 246,-107.28"/>
<polygon fill="none" stroke="midnightblue" points="242.5,-140.39 246,-150.39 249.5,-140.39 242.5,-140.39"/>
</g>
<!-- Node6 -->
<g id="node6" class="node">
<title>Node6</title>
<g id="a_node6"><a xlink:href="classBernoulliPrior.html" target="_top" xlink:title=" ">
<polygon fill="white" stroke="black" points="340.5,-6 340.5,-107 531.5,-107 531.5,-6 340.5,-6"/>
<text text-anchor="middle" x="436" y="-95" font-family="Helvetica,sans-Serif" font-size="10.00">BernoulliPrior&lt; GraphStructure, T &gt;</text>
<polyline fill="none" stroke="black" points="340.5,-88 531.5,-88 "/>
<text text-anchor="middle" x="436" y="-76" font-family="Helvetica,sans-Serif" font-size="10.00"> </text>
<polyline fill="none" stroke="black" points="340.5,-69 531.5,-69 "/>
<text text-anchor="start" x="348.5" y="-57" font-family="Helvetica,sans-Serif" font-size="10.00">+ BernoulliPrior()</text>
<text text-anchor="start" x="348.5" y="-46" font-family="Helvetica,sans-Serif" font-size="10.00">+ Prob()</text>
<text text-anchor="start" x="348.5" y="-35" font-family="Helvetica,sans-Serif" font-size="10.00">+ ratio()</text>
<text text-anchor="start" x="348.5" y="-24" font-family="Helvetica,sans-Serif" font-size="10.00">+ log_ratio()</text>
<text text-anchor="start" x="348.5" y="-13" font-family="Helvetica,sans-Serif" font-size="10.00">+ clone()</text>
</a>
</g>
</g>
<!-- Node5&#45;&gt;Node6 -->
<g id="edge5" class="edge">
<title>Node5&#45;&gt;Node6</title>
<path fill="none" stroke="midnightblue" d="M436,-140.32C436,-129.24 436,-117.89 436,-107.28"/>
<polygon fill="none" stroke="midnightblue" points="432.5,-140.39 436,-150.39 439.5,-140.39 432.5,-140.39"/>
</g>
<!-- Node7 -->
<g id="node7" class="node">
<title>Node7</title>
<g id="a_node7"><a xlink:href="classUniformPrior.html" target="_top" xlink:title=" ">
<polygon fill="white" stroke="black" points="549.5,-11.5 549.5,-101.5 736.5,-101.5 736.5,-11.5 549.5,-11.5"/>
<text text-anchor="middle" x="643" y="-89.5" font-family="Helvetica,sans-Serif" font-size="10.00">UniformPrior&lt; GraphStructure, T &gt;</text>
<polyline fill="none" stroke="black" points="549.5,-82.5 736.5,-82.5 "/>
<text text-anchor="middle" x="643" y="-70.5" font-family="Helvetica,sans-Serif" font-size="10.00"> </text>
<polyline fill="none" stroke="black" points="549.5,-63.5 736.5,-63.5 "/>
<text text-anchor="start" x="557.5" y="-51.5" font-family="Helvetica,sans-Serif" font-size="10.00">+ Prob()</text>
<text text-anchor="start" x="557.5" y="-40.5" font-family="Helvetica,sans-Serif" font-size="10.00">+ ratio()</text>
<text text-anchor="start" x="557.5" y="-29.5" font-family="Helvetica,sans-Serif" font-size="10.00">+ log_ratio()</text>
<text text-anchor="start" x="557.5" y="-18.5" font-family="Helvetica,sans-Serif" font-size="10.00">+ clone()</text>
</a>
</g>
</g>
<!-- Node5&#45;&gt;Node7 -->
<g id="edge6" class="edge">
<title>Node5&#45;&gt;Node7</title>
<path fill="none" stroke="midnightblue" d="M511.57,-151.47C534.52,-135.06 559.46,-117.23 581.38,-101.55"/>
<polygon fill="none" stroke="midnightblue" points="509.31,-148.79 503.21,-157.45 513.38,-154.48 509.31,-148.79"/>
</g>
</g>
</svg>
