<?xml version="1.0" encoding="UTF-8" standalone="no"?>
<!DOCTYPE svg PUBLIC "-//W3C//DTD SVG 1.1//EN"
 "http://www.w3.org/Graphics/SVG/1.1/DTD/svg11.dtd">
<!-- Generated by graphviz version 2.43.0 (0)
 -->
<!-- Title: TruncatedBernoulliPrior&lt; BlockGraphStructure, T &gt; Pages: 1 -->
<svg width="217pt" height="431pt"
 viewBox="0.00 0.00 217.00 431.00" xmlns="http://www.w3.org/2000/svg" xmlns:xlink="http://www.w3.org/1999/xlink">
<g id="graph0" class="graph" transform="scale(1 1) rotate(0) translate(4 427)">
<title>TruncatedBernoulliPrior&lt; BlockGraphStructure, T &gt;</title>
<polygon fill="white" stroke="transparent" points="-4,4 -4,-427 213,-427 213,4 -4,4"/>
<!-- Node1 -->
<g id="node1" class="node">
<title>Node1</title>
<g id="a_node1"><a xlink:title=" ">
<polygon fill="#bfbfbf" stroke="black" points="12,-0.5 12,-112.5 164,-112.5 164,-0.5 12,-0.5"/>
<text text-anchor="start" x="20" y="-100.5" font-family="Helvetica,sans-Serif" font-size="10.00">TruncatedBernoulliPrior</text>
<text text-anchor="middle" x="88" y="-89.5" font-family="Helvetica,sans-Serif" font-size="10.00">&lt; BlockGraphStructure, T &gt;</text>
<polyline fill="none" stroke="black" points="12,-82.5 164,-82.5 "/>
<text text-anchor="middle" x="88" y="-70.5" font-family="Helvetica,sans-Serif" font-size="10.00"> </text>
<polyline fill="none" stroke="black" points="12,-63.5 164,-63.5 "/>
<text text-anchor="start" x="20" y="-51.5" font-family="Helvetica,sans-Serif" font-size="10.00">+ TruncatedBernoulliPrior()</text>
<text text-anchor="start" x="20" y="-40.5" font-family="Helvetica,sans-Serif" font-size="10.00">+ Prob()</text>
<text text-anchor="start" x="20" y="-29.5" font-family="Helvetica,sans-Serif" font-size="10.00">+ ratio()</text>
<text text-anchor="start" x="20" y="-18.5" font-family="Helvetica,sans-Serif" font-size="10.00">+ log_ratio()</text>
<text text-anchor="start" x="20" y="-7.5" font-family="Helvetica,sans-Serif" font-size="10.00">+ clone()</text>
</a>
</g>
</g>
<!-- Node2 -->
<g id="node2" class="node">
<title>Node2</title>
<g id="a_node2"><a xlink:href="classGraphPrior.html" target="_top" xlink:title=" ">
<polygon fill="white" stroke="black" points="18.5,-150.5 18.5,-262.5 157.5,-262.5 157.5,-150.5 18.5,-150.5"/>
<text text-anchor="start" x="26.5" y="-250.5" font-family="Helvetica,sans-Serif" font-size="10.00">GraphPrior&lt; BlockGraph,</text>
<text text-anchor="middle" x="88" y="-239.5" font-family="Helvetica,sans-Serif" font-size="10.00"> unsigned int &gt;</text>
<polyline fill="none" stroke="black" points="18.5,-232.5 157.5,-232.5 "/>
<text text-anchor="middle" x="88" y="-220.5" font-family="Helvetica,sans-Serif" font-size="10.00"> </text>
<polyline fill="none" stroke="black" points="18.5,-213.5 157.5,-213.5 "/>
<text text-anchor="start" x="26.5" y="-201.5" font-family="Helvetica,sans-Serif" font-size="10.00">+ Prob()</text>
<text text-anchor="start" x="26.5" y="-190.5" font-family="Helvetica,sans-Serif" font-size="10.00">+ ratio()</text>
<text text-anchor="start" x="26.5" y="-179.5" font-family="Helvetica,sans-Serif" font-size="10.00">+ log_ratio()</text>
<text text-anchor="start" x="26.5" y="-168.5" font-family="Helvetica,sans-Serif" font-size="10.00">+ clone()</text>
<text text-anchor="start" x="26.5" y="-157.5" font-family="Helvetica,sans-Serif" font-size="10.00">+ ~GraphPrior()</text>
</a>
</g>
</g>
<!-- Node2&#45;&gt;Node1 -->
<g id="edge1" class="edge">
<title>Node2&#45;&gt;Node1</title>
<path fill="none" stroke="midnightblue" d="M88,-140.14C88,-130.97 88,-121.61 88,-112.66"/>
<polygon fill="none" stroke="midnightblue" points="84.5,-140.39 88,-150.39 91.5,-140.39 84.5,-140.39"/>
</g>
<!-- Node3 -->
<g id="node3" class="node">
<title>Node3</title>
<g id="a_node3"><a xlink:href="classGraphPrior.html" target="_top" xlink:title=" ">
<polygon fill="white" stroke="black" points="0,-321.5 0,-422.5 176,-422.5 176,-321.5 0,-321.5"/>
<text text-anchor="middle" x="88" y="-410.5" font-family="Helvetica,sans-Serif" font-size="10.00">GraphPrior&lt; GraphStructure, T &gt;</text>
<polyline fill="none" stroke="black" points="0,-403.5 176,-403.5 "/>
<text text-anchor="middle" x="88" y="-391.5" font-family="Helvetica,sans-Serif" font-size="10.00"> </text>
<polyline fill="none" stroke="black" points="0,-384.5 176,-384.5 "/>
<text text-anchor="start" x="8" y="-372.5" font-family="Helvetica,sans-Serif" font-size="10.00">+ Prob()</text>
<text text-anchor="start" x="8" y="-361.5" font-family="Helvetica,sans-Serif" font-size="10.00">+ ratio()</text>
<text text-anchor="start" x="8" y="-350.5" font-family="Helvetica,sans-Serif" font-size="10.00">+ log_ratio()</text>
<text text-anchor="start" x="8" y="-339.5" font-family="Helvetica,sans-Serif" font-size="10.00">+ clone()</text>
<text text-anchor="start" x="8" y="-328.5" font-family="Helvetica,sans-Serif" font-size="10.00">+ ~GraphPrior()</text>
</a>
</g>
</g>
<!-- Node3&#45;&gt;Node2 -->
<g id="edge2" class="edge">
<title>Node3&#45;&gt;Node2</title>
<path fill="none" stroke="orange" d="M88,-310.86C88,-295.05 88,-278.08 88,-262.55"/>
<polygon fill="orange" stroke="orange" points="84.5,-311.06 88,-321.06 91.5,-311.06 84.5,-311.06"/>
<text text-anchor="start" x="88" y="-295" font-family="Helvetica,sans-Serif" font-size="10.00"> &lt; BlockGraph, unsigned</text>
<text text-anchor="middle" x="148.5" y="-284" font-family="Helvetica,sans-Serif" font-size="10.00"> int &gt;</text>
</g>
</g>
</svg>
