<?xml version="1.0" encoding="UTF-8" standalone="no"?>
<!DOCTYPE svg PUBLIC "-//W3C//DTD SVG 1.1//EN"
 "http://www.w3.org/Graphics/SVG/1.1/DTD/svg11.dtd">
<!-- Generated by graphviz version 2.43.0 (0)
 -->
<!-- Title: ReversibleJumpsMH&lt; GraphStructure, T &gt; Pages: 1 -->
<!--zoomable 1172 -->
<svg id="main" version="1.1" xmlns="http://www.w3.org/2000/svg" xmlns:xlink="http://www.w3.org/1999/xlink" xml:space="preserve" onload="init(evt)">
<style type="text/css"><![CDATA[
.edge:hover path { stroke: red; }
.edge:hover polygon { stroke: red; fill: red; }
]]></style>
<script type="text/javascript"><![CDATA[
var edges = document.getElementsByTagName('g');
if (edges && edges.length) {
  for (var i=0;i<edges.length;i++) {
    if (edges[i].id.substr(0,4)=='edge') {
      edges[i].setAttribute('class','edge');
    }
  }
}
]]></script>
        <defs>
                <circle id="rim" cx="0" cy="0" r="7"/>
                <circle id="rim2" cx="0" cy="0" r="3.5"/>
                <g id="zoomPlus">
                        <use xlink:href="#rim" fill="#404040">
                                <set attributeName="fill" to="#808080" begin="zoomplus.mouseover" end="zoomplus.mouseout"/>
                        </use>
                        <path d="M-4,0h8M0,-4v8" fill="none" stroke="white" stroke-width="1.5" pointer-events="none"/>
                </g>
                <g id="zoomMin">
                        <use xlink:href="#rim" fill="#404040">
                                <set attributeName="fill" to="#808080" begin="zoomminus.mouseover" end="zoomminus.mouseout"/>
                        </use>
                        <path d="M-4,0h8" fill="none" stroke="white" stroke-width="1.5" pointer-events="none"/>
                </g>
                <g id="dirArrow">
                        <path fill="none" stroke="white" stroke-width="1.5" d="M0,-3.0v7 M-2.5,-0.5L0,-3.0L2.5,-0.5"/>
                </g>
               <g id="resetDef">
                       <use xlink:href="#rim2" fill="#404040">
                               <set attributeName="fill" to="#808080" begin="reset.mouseover" end="reset.mouseout"/>
                       </use>
               </g>
        </defs>

<script type="text/javascript">
var viewWidth = 262;
var viewHeight = 1172;
var sectionId = 'dynsection-0';
</script>
<script xlink:href="svgpan.js"/>
<svg id="graph" class="graph">
<g id="viewport">
<title>ReversibleJumpsMH&lt; GraphStructure, T &gt;</title>
<polygon fill="white" stroke="transparent" points="-4,4 -4,-1168 257.5,-1168 257.5,4 -4,4"/>
<!-- Node1 -->
<g id="node1" class="node">
<title>Node1</title>
<g id="a_node1"><a xlink:title=" ">
<polygon fill="#bfbfbf" stroke="black" points="24.5,-299.5 24.5,-411.5 158.5,-411.5 158.5,-299.5 24.5,-299.5"/>
<text text-anchor="start" x="32.5" y="-399.5" font-family="Helvetica,sans-Serif" font-size="10.00">ReversibleJumpsMH&lt;</text>
<text text-anchor="middle" x="91.5" y="-388.5" font-family="Helvetica,sans-Serif" font-size="10.00"> GraphStructure, T &gt;</text>
<polyline fill="none" stroke="black" points="24.5,-381.5 158.5,-381.5 "/>
<text text-anchor="start" x="32.5" y="-369.5" font-family="Helvetica,sans-Serif" font-size="10.00"># sigma</text>
<text text-anchor="start" x="32.5" y="-358.5" font-family="Helvetica,sans-Serif" font-size="10.00"># MCiterPrior</text>
<polyline fill="none" stroke="black" points="24.5,-351.5 158.5,-351.5 "/>
<text text-anchor="start" x="32.5" y="-339.5" font-family="Helvetica,sans-Serif" font-size="10.00">+ ReversibleJumpsMH()</text>
<text text-anchor="start" x="32.5" y="-328.5" font-family="Helvetica,sans-Serif" font-size="10.00">+ ReversibleJumpsMH()</text>
<text text-anchor="start" x="32.5" y="-317.5" font-family="Helvetica,sans-Serif" font-size="10.00">+ RJ()</text>
<text text-anchor="start" x="32.5" y="-306.5" font-family="Helvetica,sans-Serif" font-size="10.00">+ operator()()</text>
</a>
</g>
</g>
<!-- Node6 -->
<g id="node6" class="node">
<title>Node6</title>
<g id="a_node6"><a xlink:href="classReversibleJumpsMH.html" target="_top" xlink:title=" ">
<polygon fill="white" stroke="black" points="17,-128.5 17,-240.5 166,-240.5 166,-128.5 17,-128.5"/>
<text text-anchor="start" x="25" y="-228.5" font-family="Helvetica,sans-Serif" font-size="10.00">ReversibleJumpsMH&lt;</text>
<text text-anchor="middle" x="91.5" y="-217.5" font-family="Helvetica,sans-Serif" font-size="10.00"> GraphType, unsigned int &gt;</text>
<polyline fill="none" stroke="black" points="17,-210.5 166,-210.5 "/>
<text text-anchor="start" x="25" y="-198.5" font-family="Helvetica,sans-Serif" font-size="10.00"># sigma</text>
<text text-anchor="start" x="25" y="-187.5" font-family="Helvetica,sans-Serif" font-size="10.00"># MCiterPrior</text>
<polyline fill="none" stroke="black" points="17,-180.5 166,-180.5 "/>
<text text-anchor="start" x="25" y="-168.5" font-family="Helvetica,sans-Serif" font-size="10.00">+ ReversibleJumpsMH()</text>
<text text-anchor="start" x="25" y="-157.5" font-family="Helvetica,sans-Serif" font-size="10.00">+ ReversibleJumpsMH()</text>
<text text-anchor="start" x="25" y="-146.5" font-family="Helvetica,sans-Serif" font-size="10.00">+ RJ()</text>
<text text-anchor="start" x="25" y="-135.5" font-family="Helvetica,sans-Serif" font-size="10.00">+ operator()()</text>
</a>
</g>
</g>
<!-- Node1&#45;&gt;Node6 -->
<g id="edge6" class="edge">
<title>Node1&#45;&gt;Node6</title>
<path fill="none" stroke="orange" d="M91.5,-288.86C91.5,-272.93 91.5,-256.06 91.5,-240.67"/>
<polygon fill="orange" stroke="orange" points="88,-289.16 91.5,-299.16 95,-289.16 88,-289.16"/>
<text text-anchor="start" x="91.5" y="-273" font-family="Helvetica,sans-Serif" font-size="10.00"> &lt; GraphType, unsigned</text>
<text text-anchor="middle" x="150" y="-262" font-family="Helvetica,sans-Serif" font-size="10.00"> int &gt;</text>
</g>
<!-- Node2 -->
<g id="node2" class="node">
<title>Node2</title>
<g id="a_node2"><a xlink:href="classGGM.html" target="_top" xlink:title=" ">
<polygon fill="white" stroke="black" points="14.5,-449.5 14.5,-671.5 168.5,-671.5 168.5,-449.5 14.5,-449.5"/>
<text text-anchor="start" x="22.5" y="-659.5" font-family="Helvetica,sans-Serif" font-size="10.00">GGM&lt; GraphType, unsigned</text>
<text text-anchor="middle" x="91.5" y="-648.5" font-family="Helvetica,sans-Serif" font-size="10.00"> int &gt;</text>
<polyline fill="none" stroke="black" points="14.5,-641.5 168.5,-641.5 "/>
<text text-anchor="start" x="22.5" y="-629.5" font-family="Helvetica,sans-Serif" font-size="10.00"># ptr_prior</text>
<text text-anchor="start" x="22.5" y="-618.5" font-family="Helvetica,sans-Serif" font-size="10.00"># Kprior</text>
<text text-anchor="start" x="22.5" y="-607.5" font-family="Helvetica,sans-Serif" font-size="10.00"># trGwishSampler</text>
<text text-anchor="start" x="22.5" y="-596.5" font-family="Helvetica,sans-Serif" font-size="10.00"># selected_link</text>
<polyline fill="none" stroke="black" points="14.5,-589.5 168.5,-589.5 "/>
<text text-anchor="start" x="22.5" y="-577.5" font-family="Helvetica,sans-Serif" font-size="10.00">+ GGM()</text>
<text text-anchor="start" x="22.5" y="-566.5" font-family="Helvetica,sans-Serif" font-size="10.00">+ GGM()</text>
<text text-anchor="start" x="22.5" y="-555.5" font-family="Helvetica,sans-Serif" font-size="10.00">+ GGM()</text>
<text text-anchor="start" x="22.5" y="-544.5" font-family="Helvetica,sans-Serif" font-size="10.00">+ GGM()</text>
<text text-anchor="start" x="22.5" y="-533.5" font-family="Helvetica,sans-Serif" font-size="10.00">+ operator=()</text>
<text text-anchor="start" x="22.5" y="-522.5" font-family="Helvetica,sans-Serif" font-size="10.00">+ operator=()</text>
<text text-anchor="start" x="22.5" y="-511.5" font-family="Helvetica,sans-Serif" font-size="10.00">+ get_shape()</text>
<text text-anchor="start" x="22.5" y="-500.5" font-family="Helvetica,sans-Serif" font-size="10.00">+ get_inv_scale()</text>
<text text-anchor="start" x="22.5" y="-489.5" font-family="Helvetica,sans-Serif" font-size="10.00">+ init_precision()</text>
<text text-anchor="start" x="22.5" y="-478.5" font-family="Helvetica,sans-Serif" font-size="10.00">+ propose_new_graph()</text>
<text text-anchor="start" x="22.5" y="-467.5" font-family="Helvetica,sans-Serif" font-size="10.00">+ operator()()</text>
<text text-anchor="start" x="22.5" y="-456.5" font-family="Helvetica,sans-Serif" font-size="10.00">+ ~GGM()</text>
</a>
</g>
</g>
<!-- Node2&#45;&gt;Node1 -->
<g id="edge1" class="edge">
<title>Node2&#45;&gt;Node1</title>
<path fill="none" stroke="midnightblue" d="M91.5,-439.35C91.5,-429.78 91.5,-420.44 91.5,-411.68"/>
<polygon fill="none" stroke="midnightblue" points="88,-439.39 91.5,-449.39 95,-439.39 88,-439.39"/>
</g>
<!-- Node3 -->
<g id="node3" class="node">
<title>Node3</title>
<g id="a_node3"><a xlink:href="structGGMTraits.html" target="_top" xlink:title=" ">
<polygon fill="white" stroke="black" points="21,-979.5 21,-1047.5 154,-1047.5 154,-979.5 21,-979.5"/>
<text text-anchor="start" x="29" y="-1035.5" font-family="Helvetica,sans-Serif" font-size="10.00">GGMTraits&lt; GraphType,</text>
<text text-anchor="middle" x="87.5" y="-1024.5" font-family="Helvetica,sans-Serif" font-size="10.00"> unsigned int &gt;</text>
<polyline fill="none" stroke="black" points="21,-1017.5 154,-1017.5 "/>
<text text-anchor="middle" x="87.5" y="-1005.5" font-family="Helvetica,sans-Serif" font-size="10.00"> </text>
<polyline fill="none" stroke="black" points="21,-998.5 154,-998.5 "/>
<text text-anchor="middle" x="87.5" y="-986.5" font-family="Helvetica,sans-Serif" font-size="10.00"> </text>
</a>
</g>
</g>
<!-- Node3&#45;&gt;Node2 -->
<g id="edge2" class="edge">
<title>Node3&#45;&gt;Node2</title>
<path fill="none" stroke="midnightblue" d="M87.89,-969.01C88.49,-901.08 89.67,-767.66 90.52,-671.98"/>
<polygon fill="none" stroke="midnightblue" points="84.38,-969.31 87.79,-979.34 91.38,-969.37 84.38,-969.31"/>
</g>
<!-- Node5 -->
<g id="node5" class="node">
<title>Node5</title>
<g id="a_node5"><a xlink:href="classGGM.html" target="_top" xlink:title=" ">
<polygon fill="white" stroke="black" points="103,-730.5 103,-941.5 252,-941.5 252,-730.5 103,-730.5"/>
<text text-anchor="middle" x="177.5" y="-929.5" font-family="Helvetica,sans-Serif" font-size="10.00">GGM&lt; GraphStructure, T &gt;</text>
<polyline fill="none" stroke="black" points="103,-922.5 252,-922.5 "/>
<text text-anchor="start" x="111" y="-910.5" font-family="Helvetica,sans-Serif" font-size="10.00"># ptr_prior</text>
<text text-anchor="start" x="111" y="-899.5" font-family="Helvetica,sans-Serif" font-size="10.00"># Kprior</text>
<text text-anchor="start" x="111" y="-888.5" font-family="Helvetica,sans-Serif" font-size="10.00"># trGwishSampler</text>
<text text-anchor="start" x="111" y="-877.5" font-family="Helvetica,sans-Serif" font-size="10.00"># selected_link</text>
<polyline fill="none" stroke="black" points="103,-870.5 252,-870.5 "/>
<text text-anchor="start" x="111" y="-858.5" font-family="Helvetica,sans-Serif" font-size="10.00">+ GGM()</text>
<text text-anchor="start" x="111" y="-847.5" font-family="Helvetica,sans-Serif" font-size="10.00">+ GGM()</text>
<text text-anchor="start" x="111" y="-836.5" font-family="Helvetica,sans-Serif" font-size="10.00">+ GGM()</text>
<text text-anchor="start" x="111" y="-825.5" font-family="Helvetica,sans-Serif" font-size="10.00">+ GGM()</text>
<text text-anchor="start" x="111" y="-814.5" font-family="Helvetica,sans-Serif" font-size="10.00">+ operator=()</text>
<text text-anchor="start" x="111" y="-803.5" font-family="Helvetica,sans-Serif" font-size="10.00">+ operator=()</text>
<text text-anchor="start" x="111" y="-792.5" font-family="Helvetica,sans-Serif" font-size="10.00">+ get_shape()</text>
<text text-anchor="start" x="111" y="-781.5" font-family="Helvetica,sans-Serif" font-size="10.00">+ get_inv_scale()</text>
<text text-anchor="start" x="111" y="-770.5" font-family="Helvetica,sans-Serif" font-size="10.00">+ init_precision()</text>
<text text-anchor="start" x="111" y="-759.5" font-family="Helvetica,sans-Serif" font-size="10.00">+ propose_new_graph()</text>
<text text-anchor="start" x="111" y="-748.5" font-family="Helvetica,sans-Serif" font-size="10.00">+ operator()()</text>
<text text-anchor="start" x="111" y="-737.5" font-family="Helvetica,sans-Serif" font-size="10.00">+ ~GGM()</text>
</a>
</g>
</g>
<!-- Node3&#45;&gt;Node5 -->
<g id="edge5" class="edge">
<title>Node3&#45;&gt;Node5</title>
<path fill="none" stroke="midnightblue" d="M109.03,-970.52C113.61,-961.59 118.64,-951.78 123.83,-941.65"/>
<polygon fill="none" stroke="midnightblue" points="105.88,-968.99 104.43,-979.49 112.11,-972.19 105.88,-968.99"/>
</g>
<!-- Node4 -->
<g id="node4" class="node">
<title>Node4</title>
<g id="a_node4"><a xlink:href="structGGMTraits.html" target="_top" xlink:title=" ">
<polygon fill="white" stroke="black" points="0,-1106.5 0,-1163.5 175,-1163.5 175,-1106.5 0,-1106.5"/>
<text text-anchor="middle" x="87.5" y="-1151.5" font-family="Helvetica,sans-Serif" font-size="10.00">GGMTraits&lt; GraphStructure, T &gt;</text>
<polyline fill="none" stroke="black" points="0,-1144.5 175,-1144.5 "/>
<text text-anchor="middle" x="87.5" y="-1132.5" font-family="Helvetica,sans-Serif" font-size="10.00"> </text>
<polyline fill="none" stroke="black" points="0,-1125.5 175,-1125.5 "/>
<text text-anchor="middle" x="87.5" y="-1113.5" font-family="Helvetica,sans-Serif" font-size="10.00"> </text>
</a>
</g>
</g>
<!-- Node4&#45;&gt;Node3 -->
<g id="edge3" class="edge">
<title>Node4&#45;&gt;Node3</title>
<path fill="none" stroke="orange" d="M87.5,-1095.95C87.5,-1080.4 87.5,-1062.58 87.5,-1047.59"/>
<polygon fill="orange" stroke="orange" points="84,-1096.28 87.5,-1106.28 91,-1096.28 84,-1096.28"/>
<text text-anchor="start" x="87.5" y="-1080" font-family="Helvetica,sans-Serif" font-size="10.00"> &lt; GraphType, unsigned</text>
<text text-anchor="middle" x="146" y="-1069" font-family="Helvetica,sans-Serif" font-size="10.00"> int &gt;</text>
</g>
<!-- Node5&#45;&gt;Node2 -->
<g id="edge4" class="edge">
<title>Node5&#45;&gt;Node2</title>
<path fill="none" stroke="orange" d="M141.49,-720.48C136.44,-704.41 131.25,-687.91 126.22,-671.92"/>
<polygon fill="orange" stroke="orange" points="138.28,-721.94 144.62,-730.43 144.96,-719.84 138.28,-721.94"/>
<text text-anchor="start" x="136.5" y="-704" font-family="Helvetica,sans-Serif" font-size="10.00"> &lt; GraphType, unsigned</text>
<text text-anchor="middle" x="195" y="-693" font-family="Helvetica,sans-Serif" font-size="10.00"> int &gt;</text>
</g>
<!-- Node7 -->
<g id="node7" class="node">
<title>Node7</title>
<g id="a_node7"><a xlink:href="classDoubleReversibleJumpsMH.html" target="_top" xlink:title=" ">
<polygon fill="white" stroke="black" points="7.5,-0.5 7.5,-90.5 175.5,-90.5 175.5,-0.5 7.5,-0.5"/>
<text text-anchor="start" x="15.5" y="-78.5" font-family="Helvetica,sans-Serif" font-size="10.00">DoubleReversibleJumpsMH</text>
<text text-anchor="middle" x="91.5" y="-67.5" font-family="Helvetica,sans-Serif" font-size="10.00">&lt; GraphStructure, T &gt;</text>
<polyline fill="none" stroke="black" points="7.5,-60.5 175.5,-60.5 "/>
<text text-anchor="start" x="15.5" y="-48.5" font-family="Helvetica,sans-Serif" font-size="10.00"># Waux</text>
<polyline fill="none" stroke="black" points="7.5,-41.5 175.5,-41.5 "/>
<text text-anchor="start" x="15.5" y="-29.5" font-family="Helvetica,sans-Serif" font-size="10.00">+ DoubleReversibleJumpsMH()</text>
<text text-anchor="start" x="15.5" y="-18.5" font-family="Helvetica,sans-Serif" font-size="10.00">+ DoubleReversibleJumpsMH()</text>
<text text-anchor="start" x="15.5" y="-7.5" font-family="Helvetica,sans-Serif" font-size="10.00">+ operator()()</text>
</a>
</g>
</g>
<!-- Node6&#45;&gt;Node7 -->
<g id="edge7" class="edge">
<title>Node6&#45;&gt;Node7</title>
<path fill="none" stroke="midnightblue" d="M91.5,-118.13C91.5,-108.83 91.5,-99.44 91.5,-90.67"/>
<polygon fill="none" stroke="midnightblue" points="88,-118.17 91.5,-128.17 95,-118.17 88,-118.17"/>
</g>
</g>
</svg>
        <g id="navigator" transform="translate(0 0)" fill="#404254">
                <rect fill="#f2f5e9" fill-opacity="0.5" stroke="#606060" stroke-width=".5" x="0" y="0" width="60" height="60"/>
                <use id="zoomplus" xlink:href="#zoomPlus" x="17" y="9" onmousedown="handleZoom(evt,'in')"/>
                <use id="zoomminus" xlink:href="#zoomMin" x="42" y="9" onmousedown="handleZoom(evt,'out')"/>
                <use id="reset" xlink:href="#resetDef" x="30" y="36" onmousedown="handleReset()"/>
                <g id="arrowUp" xlink:href="#dirArrow" transform="translate(30 24)" onmousedown="handlePan(0,-1)">
                  <use xlink:href="#rim" fill="#404040">
                        <set attributeName="fill" to="#808080" begin="arrowUp.mouseover" end="arrowUp.mouseout"/>
                  </use>
                  <path fill="none" stroke="white" stroke-width="1.5" d="M0,-3.0v7 M-2.5,-0.5L0,-3.0L2.5,-0.5"/>
                </g>
                <g id="arrowRight" xlink:href="#dirArrow" transform="rotate(90) translate(36 -43)" onmousedown="handlePan(1,0)">
                  <use xlink:href="#rim" fill="#404040">
                        <set attributeName="fill" to="#808080" begin="arrowRight.mouseover" end="arrowRight.mouseout"/>
                  </use>
                  <path fill="none" stroke="white" stroke-width="1.5" d="M0,-3.0v7 M-2.5,-0.5L0,-3.0L2.5,-0.5"/>
                </g>
                <g id="arrowDown" xlink:href="#dirArrow" transform="rotate(180) translate(-30 -48)" onmousedown="handlePan(0,1)">
                  <use xlink:href="#rim" fill="#404040">
                        <set attributeName="fill" to="#808080" begin="arrowDown.mouseover" end="arrowDown.mouseout"/>
                  </use>
                  <path fill="none" stroke="white" stroke-width="1.5" d="M0,-3.0v7 M-2.5,-0.5L0,-3.0L2.5,-0.5"/>
                </g>
                <g id="arrowLeft" xlink:href="#dirArrow" transform="rotate(270) translate(-36 17)" onmousedown="handlePan(-1,0)">
                  <use xlink:href="#rim" fill="#404040">
                        <set attributeName="fill" to="#808080" begin="arrowLeft.mouseover" end="arrowLeft.mouseout"/>
                  </use>
                  <path fill="none" stroke="white" stroke-width="1.5" d="M0,-3.0v7 M-2.5,-0.5L0,-3.0L2.5,-0.5"/>
                </g>
        </g>
        <svg viewBox="0 0 15 15" width="100%" height="30px" preserveAspectRatio="xMaxYMin meet">
         <g id="arrow_out" transform="scale(0.3 0.3)">
          <a xlink:href="classReversibleJumpsMH__inherit__graph_org.svg" target="_base">
           <rect id="button" ry="5" rx="5" y="6" x="6" height="38" width="38"
                fill="#f2f5e9" fill-opacity="0.5" stroke="#606060" stroke-width="1.0"/>
           <path id="arrow"
             d="M 11.500037,31.436501 C 11.940474,20.09759 22.043105,11.32322 32.158766,21.979434 L 37.068811,17.246167 C 37.068811,17.246167 37.088388,32 37.088388,32 L 22.160133,31.978069 C 22.160133,31.978069 26.997745,27.140456 26.997745,27.140456 C 18.528582,18.264221 13.291696,25.230495 11.500037,31.436501 z"
             style="fill:#404040;"/>
          </a>
         </g>
        </svg>
</svg>
