<?xml version="1.0" encoding="UTF-8" standalone="no"?>
<!DOCTYPE svg PUBLIC "-//W3C//DTD SVG 1.1//EN"
 "http://www.w3.org/Graphics/SVG/1.1/DTD/svg11.dtd">
<!-- Generated by graphviz version 2.43.0 (0)
 -->
<!-- Title: GGM&lt; GraphStructure, T &gt; Pages: 1 -->
<svg width="375pt" height="430pt"
 viewBox="0.00 0.00 374.50 430.00" xmlns="http://www.w3.org/2000/svg" xmlns:xlink="http://www.w3.org/1999/xlink">
<g id="graph0" class="graph" transform="scale(1 1) rotate(0) translate(4 426)">
<title>GGM&lt; GraphStructure, T &gt;</title>
<polygon fill="white" stroke="transparent" points="-4,4 -4,-426 370.5,-426 370.5,4 -4,4"/>
<!-- Node1 -->
<g id="node1" class="node">
<title>Node1</title>
<g id="a_node1"><a xlink:title=" ">
<polygon fill="#bfbfbf" stroke="black" points="85,-0.5 85,-178.5 234,-178.5 234,-0.5 85,-0.5"/>
<text text-anchor="middle" x="159.5" y="-166.5" font-family="Helvetica,sans-Serif" font-size="10.00">GGM&lt; GraphStructure, T &gt;</text>
<polyline fill="none" stroke="black" points="85,-159.5 234,-159.5 "/>
<text text-anchor="middle" x="159.5" y="-147.5" font-family="Helvetica,sans-Serif" font-size="10.00"> </text>
<polyline fill="none" stroke="black" points="85,-140.5 234,-140.5 "/>
<text text-anchor="start" x="93" y="-128.5" font-family="Helvetica,sans-Serif" font-size="10.00">+ GGM()</text>
<text text-anchor="start" x="93" y="-117.5" font-family="Helvetica,sans-Serif" font-size="10.00">+ GGM()</text>
<text text-anchor="start" x="93" y="-106.5" font-family="Helvetica,sans-Serif" font-size="10.00">+ GGM()</text>
<text text-anchor="start" x="93" y="-95.5" font-family="Helvetica,sans-Serif" font-size="10.00">+ GGM()</text>
<text text-anchor="start" x="93" y="-84.5" font-family="Helvetica,sans-Serif" font-size="10.00">+ operator=()</text>
<text text-anchor="start" x="93" y="-73.5" font-family="Helvetica,sans-Serif" font-size="10.00">+ operator=()</text>
<text text-anchor="start" x="93" y="-62.5" font-family="Helvetica,sans-Serif" font-size="10.00">+ get_shape()</text>
<text text-anchor="start" x="93" y="-51.5" font-family="Helvetica,sans-Serif" font-size="10.00">+ get_inv_scale()</text>
<text text-anchor="start" x="93" y="-40.5" font-family="Helvetica,sans-Serif" font-size="10.00">+ init_precision()</text>
<text text-anchor="start" x="93" y="-29.5" font-family="Helvetica,sans-Serif" font-size="10.00">+ propose_new_graph()</text>
<text text-anchor="start" x="93" y="-18.5" font-family="Helvetica,sans-Serif" font-size="10.00">+ operator()()</text>
<text text-anchor="start" x="93" y="-7.5" font-family="Helvetica,sans-Serif" font-size="10.00">+ ~GGM()</text>
</a>
</g>
</g>
<!-- Node2 -->
<g id="node2" class="node">
<title>Node2</title>
<g id="a_node2"><a xlink:href="structGGMTraits.html" target="_top" xlink:title=" ">
<polygon fill="white" stroke="black" points="21,-237.5 21,-305.5 154,-305.5 154,-237.5 21,-237.5"/>
<text text-anchor="start" x="29" y="-293.5" font-family="Helvetica,sans-Serif" font-size="10.00">GGMTraits&lt; GraphType,</text>
<text text-anchor="middle" x="87.5" y="-282.5" font-family="Helvetica,sans-Serif" font-size="10.00"> unsigned int &gt;</text>
<polyline fill="none" stroke="black" points="21,-275.5 154,-275.5 "/>
<text text-anchor="middle" x="87.5" y="-263.5" font-family="Helvetica,sans-Serif" font-size="10.00"> </text>
<polyline fill="none" stroke="black" points="21,-256.5 154,-256.5 "/>
<text text-anchor="middle" x="87.5" y="-244.5" font-family="Helvetica,sans-Serif" font-size="10.00"> </text>
</a>
</g>
</g>
<!-- Node2&#45;&gt;Node1 -->
<g id="edge1" class="edge">
<title>Node2&#45;&gt;Node1</title>
<path fill="none" stroke="midnightblue" d="M94.83,-227.48C97.11,-217.34 99.98,-206.66 103.5,-197 105.72,-190.92 108.22,-184.74 110.9,-178.59"/>
<polygon fill="none" stroke="midnightblue" points="91.38,-226.89 92.74,-237.4 98.23,-228.34 91.38,-226.89"/>
</g>
<!-- Node2&#45;&gt;Node1 -->
<g id="edge5" class="edge">
<title>Node2&#45;&gt;Node1</title>
<path fill="none" stroke="#404040" d="M100.71,-237.49C106.17,-223.83 112.82,-207.2 119.66,-190.11"/>
<polygon fill="none" stroke="#404040" points="119.71,-189.98 118.22,-182.92 124.17,-178.84 125.65,-185.89 119.71,-189.98"/>
<text text-anchor="middle" x="139.5" y="-211" font-family="Helvetica,sans-Serif" font-size="10.00"> #Kprior</text>
<text text-anchor="middle" x="139.5" y="-200" font-family="Helvetica,sans-Serif" font-size="10.00">#ptr_prior</text>
</g>
<!-- Node3 -->
<g id="node3" class="node">
<title>Node3</title>
<g id="a_node3"><a xlink:href="structGGMTraits.html" target="_top" xlink:title=" ">
<polygon fill="white" stroke="black" points="0,-364.5 0,-421.5 175,-421.5 175,-364.5 0,-364.5"/>
<text text-anchor="middle" x="87.5" y="-409.5" font-family="Helvetica,sans-Serif" font-size="10.00">GGMTraits&lt; GraphStructure, T &gt;</text>
<polyline fill="none" stroke="black" points="0,-402.5 175,-402.5 "/>
<text text-anchor="middle" x="87.5" y="-390.5" font-family="Helvetica,sans-Serif" font-size="10.00"> </text>
<polyline fill="none" stroke="black" points="0,-383.5 175,-383.5 "/>
<text text-anchor="middle" x="87.5" y="-371.5" font-family="Helvetica,sans-Serif" font-size="10.00"> </text>
</a>
</g>
</g>
<!-- Node3&#45;&gt;Node2 -->
<g id="edge2" class="edge">
<title>Node3&#45;&gt;Node2</title>
<path fill="none" stroke="orange" d="M87.5,-353.95C87.5,-338.4 87.5,-320.58 87.5,-305.59"/>
<polygon fill="orange" stroke="orange" points="84,-354.28 87.5,-364.28 91,-354.28 84,-354.28"/>
<text text-anchor="start" x="87.5" y="-338" font-family="Helvetica,sans-Serif" font-size="10.00"> &lt; GraphType, unsigned</text>
<text text-anchor="middle" x="146" y="-327" font-family="Helvetica,sans-Serif" font-size="10.00"> int &gt;</text>
</g>
<!-- Node4 -->
<g id="node4" class="node">
<title>Node4</title>
<g id="a_node4"><a xlink:href="classdouble.html" target="_top" xlink:title=" ">
<polygon fill="white" stroke="black" points="172.5,-243 172.5,-300 222.5,-300 222.5,-243 172.5,-243"/>
<text text-anchor="middle" x="197.5" y="-288" font-family="Helvetica,sans-Serif" font-size="10.00">double</text>
<polyline fill="none" stroke="black" points="172.5,-281 222.5,-281 "/>
<text text-anchor="middle" x="197.5" y="-269" font-family="Helvetica,sans-Serif" font-size="10.00"> </text>
<polyline fill="none" stroke="black" points="172.5,-262 222.5,-262 "/>
<text text-anchor="middle" x="197.5" y="-250" font-family="Helvetica,sans-Serif" font-size="10.00"> </text>
</a>
</g>
</g>
<!-- Node4&#45;&gt;Node1 -->
<g id="edge3" class="edge">
<title>Node4&#45;&gt;Node1</title>
<path fill="none" stroke="#404040" d="M191.65,-242.77C188.61,-228.4 184.7,-209.87 180.66,-190.71"/>
<polygon fill="none" stroke="#404040" points="180.61,-190.48 175.45,-185.43 178.13,-178.74 183.28,-183.78 180.61,-190.48"/>
<text text-anchor="middle" x="230.5" y="-205.5" font-family="Helvetica,sans-Serif" font-size="10.00"> #trGwishSampler</text>
</g>
<!-- Node5 -->
<g id="node5" class="node">
<title>Node5</title>
<g id="a_node5"><a xlink:title=" ">
<polygon fill="white" stroke="#bfbfbf" points="254.5,-237.5 254.5,-305.5 364.5,-305.5 364.5,-237.5 254.5,-237.5"/>
<text text-anchor="start" x="262.5" y="-293.5" font-family="Helvetica,sans-Serif" font-size="10.00">pair&lt; unsigned int,</text>
<text text-anchor="middle" x="309.5" y="-282.5" font-family="Helvetica,sans-Serif" font-size="10.00"> unsigned int &gt;</text>
<polyline fill="none" stroke="#bfbfbf" points="254.5,-275.5 364.5,-275.5 "/>
<text text-anchor="middle" x="309.5" y="-263.5" font-family="Helvetica,sans-Serif" font-size="10.00"> </text>
<polyline fill="none" stroke="#bfbfbf" points="254.5,-256.5 364.5,-256.5 "/>
<text text-anchor="middle" x="309.5" y="-244.5" font-family="Helvetica,sans-Serif" font-size="10.00"> </text>
</a>
</g>
</g>
<!-- Node5&#45;&gt;Node1 -->
<g id="edge4" class="edge">
<title>Node5&#45;&gt;Node1</title>
<path fill="none" stroke="#404040" d="M299.64,-237.39C294.79,-224.13 288.1,-209.15 279.5,-197 269.07,-182.27 256.23,-168.17 242.87,-155.33"/>
<polygon fill="none" stroke="#404040" points="242.8,-155.27 235.69,-154.1 234.03,-147.08 241.15,-148.25 242.8,-155.27"/>
<text text-anchor="middle" x="328.5" y="-205.5" font-family="Helvetica,sans-Serif" font-size="10.00"> #selected_link</text>
</g>
</g>
</svg>
