<?xml version="1.0" encoding="UTF-8" standalone="no"?>
<!DOCTYPE svg PUBLIC "-//W3C//DTD SVG 1.1//EN"
 "http://www.w3.org/Graphics/SVG/1.1/DTD/svg11.dtd">
<!-- Generated by graphviz version 2.43.0 (0)
 -->
<!-- Title: ReversibleJumpsMH&lt; GraphStructure, T &gt; Pages: 1 -->
<svg width="664pt" height="827pt"
 viewBox="0.00 0.00 663.50 827.00" xmlns="http://www.w3.org/2000/svg" xmlns:xlink="http://www.w3.org/1999/xlink">
<g id="graph0" class="graph" transform="scale(1 1) rotate(0) translate(4 823)">
<title>ReversibleJumpsMH&lt; GraphStructure, T &gt;</title>
<polygon fill="white" stroke="transparent" points="-4,4 -4,-823 659.5,-823 659.5,4 -4,4"/>
<!-- Node1 -->
<g id="node1" class="node">
<title>Node1</title>
<g id="a_node1"><a xlink:title=" ">
<polygon fill="#bfbfbf" stroke="black" points="504.5,-0.5 504.5,-101.5 638.5,-101.5 638.5,-0.5 504.5,-0.5"/>
<text text-anchor="start" x="512.5" y="-89.5" font-family="Helvetica,sans-Serif" font-size="10.00">ReversibleJumpsMH&lt;</text>
<text text-anchor="middle" x="571.5" y="-78.5" font-family="Helvetica,sans-Serif" font-size="10.00"> GraphStructure, T &gt;</text>
<polyline fill="none" stroke="black" points="504.5,-71.5 638.5,-71.5 "/>
<text text-anchor="middle" x="571.5" y="-59.5" font-family="Helvetica,sans-Serif" font-size="10.00"> </text>
<polyline fill="none" stroke="black" points="504.5,-52.5 638.5,-52.5 "/>
<text text-anchor="start" x="512.5" y="-40.5" font-family="Helvetica,sans-Serif" font-size="10.00">+ ReversibleJumpsMH()</text>
<text text-anchor="start" x="512.5" y="-29.5" font-family="Helvetica,sans-Serif" font-size="10.00">+ ReversibleJumpsMH()</text>
<text text-anchor="start" x="512.5" y="-18.5" font-family="Helvetica,sans-Serif" font-size="10.00">+ RJ()</text>
<text text-anchor="start" x="512.5" y="-7.5" font-family="Helvetica,sans-Serif" font-size="10.00">+ operator()()</text>
</a>
</g>
</g>
<!-- Node2 -->
<g id="node2" class="node">
<title>Node2</title>
<g id="a_node2"><a xlink:href="classGGM.html" target="_top" xlink:title=" ">
<polygon fill="white" stroke="black" points="177.5,-149.5 177.5,-338.5 331.5,-338.5 331.5,-149.5 177.5,-149.5"/>
<text text-anchor="start" x="185.5" y="-326.5" font-family="Helvetica,sans-Serif" font-size="10.00">GGM&lt; GraphType, unsigned</text>
<text text-anchor="middle" x="254.5" y="-315.5" font-family="Helvetica,sans-Serif" font-size="10.00"> int &gt;</text>
<polyline fill="none" stroke="black" points="177.5,-308.5 331.5,-308.5 "/>
<text text-anchor="middle" x="254.5" y="-296.5" font-family="Helvetica,sans-Serif" font-size="10.00"> </text>
<polyline fill="none" stroke="black" points="177.5,-289.5 331.5,-289.5 "/>
<text text-anchor="start" x="185.5" y="-277.5" font-family="Helvetica,sans-Serif" font-size="10.00">+ GGM()</text>
<text text-anchor="start" x="185.5" y="-266.5" font-family="Helvetica,sans-Serif" font-size="10.00">+ GGM()</text>
<text text-anchor="start" x="185.5" y="-255.5" font-family="Helvetica,sans-Serif" font-size="10.00">+ GGM()</text>
<text text-anchor="start" x="185.5" y="-244.5" font-family="Helvetica,sans-Serif" font-size="10.00">+ GGM()</text>
<text text-anchor="start" x="185.5" y="-233.5" font-family="Helvetica,sans-Serif" font-size="10.00">+ operator=()</text>
<text text-anchor="start" x="185.5" y="-222.5" font-family="Helvetica,sans-Serif" font-size="10.00">+ operator=()</text>
<text text-anchor="start" x="185.5" y="-211.5" font-family="Helvetica,sans-Serif" font-size="10.00">+ get_shape()</text>
<text text-anchor="start" x="185.5" y="-200.5" font-family="Helvetica,sans-Serif" font-size="10.00">+ get_inv_scale()</text>
<text text-anchor="start" x="185.5" y="-189.5" font-family="Helvetica,sans-Serif" font-size="10.00">+ init_precision()</text>
<text text-anchor="start" x="185.5" y="-178.5" font-family="Helvetica,sans-Serif" font-size="10.00">+ propose_new_graph()</text>
<text text-anchor="start" x="185.5" y="-167.5" font-family="Helvetica,sans-Serif" font-size="10.00">+ operator()()</text>
<text text-anchor="start" x="185.5" y="-156.5" font-family="Helvetica,sans-Serif" font-size="10.00">+ ~GGM()</text>
</a>
</g>
</g>
<!-- Node2&#45;&gt;Node1 -->
<g id="edge1" class="edge">
<title>Node2&#45;&gt;Node1</title>
<path fill="none" stroke="midnightblue" d="M340.44,-191.22C391.95,-160.19 456.48,-121.3 504.25,-92.52"/>
<polygon fill="none" stroke="midnightblue" points="338.4,-188.36 331.64,-196.52 342.01,-194.36 338.4,-188.36"/>
</g>
<!-- Node3 -->
<g id="node3" class="node">
<title>Node3</title>
<g id="a_node3"><a xlink:href="structGGMTraits.html" target="_top" xlink:title=" ">
<polygon fill="white" stroke="black" points="21,-634.5 21,-702.5 154,-702.5 154,-634.5 21,-634.5"/>
<text text-anchor="start" x="29" y="-690.5" font-family="Helvetica,sans-Serif" font-size="10.00">GGMTraits&lt; GraphType,</text>
<text text-anchor="middle" x="87.5" y="-679.5" font-family="Helvetica,sans-Serif" font-size="10.00"> unsigned int &gt;</text>
<polyline fill="none" stroke="black" points="21,-672.5 154,-672.5 "/>
<text text-anchor="middle" x="87.5" y="-660.5" font-family="Helvetica,sans-Serif" font-size="10.00"> </text>
<polyline fill="none" stroke="black" points="21,-653.5 154,-653.5 "/>
<text text-anchor="middle" x="87.5" y="-641.5" font-family="Helvetica,sans-Serif" font-size="10.00"> </text>
</a>
</g>
</g>
<!-- Node3&#45;&gt;Node2 -->
<g id="edge2" class="edge">
<title>Node3&#45;&gt;Node2</title>
<path fill="none" stroke="midnightblue" d="M58.03,-625.64C56.36,-622.45 54.82,-619.22 53.5,-616 9.69,-509.55 -14.31,-450.02 53.5,-357 83.74,-315.52 134.26,-287.46 177.09,-269.8"/>
<polygon fill="none" stroke="midnightblue" points="55.06,-627.5 63.04,-634.46 61.15,-624.04 55.06,-627.5"/>
</g>
<!-- Node3&#45;&gt;Node2 -->
<g id="edge6" class="edge">
<title>Node3&#45;&gt;Node2</title>
<path fill="none" stroke="#404040" d="M76.91,-634.41C61.93,-581.49 40.19,-475.75 76.5,-397 95.63,-355.51 132.29,-321.15 167.39,-295.65"/>
<polygon fill="none" stroke="#404040" points="167.43,-295.62 170.03,-288.89 177.23,-288.7 174.64,-295.42 167.43,-295.62"/>
<text text-anchor="middle" x="101.5" y="-489.5" font-family="Helvetica,sans-Serif" font-size="10.00"> #Kprior</text>
<text text-anchor="middle" x="101.5" y="-478.5" font-family="Helvetica,sans-Serif" font-size="10.00">#ptr_prior</text>
</g>
<!-- Node7 -->
<g id="node7" class="node">
<title>Node7</title>
<g id="a_node7"><a xlink:href="classGGM.html" target="_top" xlink:title=" ">
<polygon fill="white" stroke="black" points="136,-397.5 136,-575.5 285,-575.5 285,-397.5 136,-397.5"/>
<text text-anchor="middle" x="210.5" y="-563.5" font-family="Helvetica,sans-Serif" font-size="10.00">GGM&lt; GraphStructure, T &gt;</text>
<polyline fill="none" stroke="black" points="136,-556.5 285,-556.5 "/>
<text text-anchor="middle" x="210.5" y="-544.5" font-family="Helvetica,sans-Serif" font-size="10.00"> </text>
<polyline fill="none" stroke="black" points="136,-537.5 285,-537.5 "/>
<text text-anchor="start" x="144" y="-525.5" font-family="Helvetica,sans-Serif" font-size="10.00">+ GGM()</text>
<text text-anchor="start" x="144" y="-514.5" font-family="Helvetica,sans-Serif" font-size="10.00">+ GGM()</text>
<text text-anchor="start" x="144" y="-503.5" font-family="Helvetica,sans-Serif" font-size="10.00">+ GGM()</text>
<text text-anchor="start" x="144" y="-492.5" font-family="Helvetica,sans-Serif" font-size="10.00">+ GGM()</text>
<text text-anchor="start" x="144" y="-481.5" font-family="Helvetica,sans-Serif" font-size="10.00">+ operator=()</text>
<text text-anchor="start" x="144" y="-470.5" font-family="Helvetica,sans-Serif" font-size="10.00">+ operator=()</text>
<text text-anchor="start" x="144" y="-459.5" font-family="Helvetica,sans-Serif" font-size="10.00">+ get_shape()</text>
<text text-anchor="start" x="144" y="-448.5" font-family="Helvetica,sans-Serif" font-size="10.00">+ get_inv_scale()</text>
<text text-anchor="start" x="144" y="-437.5" font-family="Helvetica,sans-Serif" font-size="10.00">+ init_precision()</text>
<text text-anchor="start" x="144" y="-426.5" font-family="Helvetica,sans-Serif" font-size="10.00">+ propose_new_graph()</text>
<text text-anchor="start" x="144" y="-415.5" font-family="Helvetica,sans-Serif" font-size="10.00">+ operator()()</text>
<text text-anchor="start" x="144" y="-404.5" font-family="Helvetica,sans-Serif" font-size="10.00">+ ~GGM()</text>
</a>
</g>
</g>
<!-- Node3&#45;&gt;Node7 -->
<g id="edge8" class="edge">
<title>Node3&#45;&gt;Node7</title>
<path fill="none" stroke="midnightblue" d="M102.15,-624.8C106.46,-614.39 111.63,-603.52 117.5,-594 123.04,-585.02 129.34,-576.05 136,-567.34"/>
<polygon fill="none" stroke="midnightblue" points="98.86,-623.59 98.43,-634.18 105.37,-626.17 98.86,-623.59"/>
</g>
<!-- Node3&#45;&gt;Node7 -->
<g id="edge11" class="edge">
<title>Node3&#45;&gt;Node7</title>
<path fill="none" stroke="#404040" d="M110.06,-634.49C119.57,-620.57 131.19,-603.57 143.1,-586.13"/>
<polygon fill="none" stroke="#404040" points="143.37,-585.74 143.45,-578.53 150.14,-575.84 150.05,-583.05 143.37,-585.74"/>
<text text-anchor="middle" x="159.5" y="-608" font-family="Helvetica,sans-Serif" font-size="10.00"> #Kprior</text>
<text text-anchor="middle" x="159.5" y="-597" font-family="Helvetica,sans-Serif" font-size="10.00">#ptr_prior</text>
</g>
<!-- Node4 -->
<g id="node4" class="node">
<title>Node4</title>
<g id="a_node4"><a xlink:href="structGGMTraits.html" target="_top" xlink:title=" ">
<polygon fill="white" stroke="black" points="0,-761.5 0,-818.5 175,-818.5 175,-761.5 0,-761.5"/>
<text text-anchor="middle" x="87.5" y="-806.5" font-family="Helvetica,sans-Serif" font-size="10.00">GGMTraits&lt; GraphStructure, T &gt;</text>
<polyline fill="none" stroke="black" points="0,-799.5 175,-799.5 "/>
<text text-anchor="middle" x="87.5" y="-787.5" font-family="Helvetica,sans-Serif" font-size="10.00"> </text>
<polyline fill="none" stroke="black" points="0,-780.5 175,-780.5 "/>
<text text-anchor="middle" x="87.5" y="-768.5" font-family="Helvetica,sans-Serif" font-size="10.00"> </text>
</a>
</g>
</g>
<!-- Node4&#45;&gt;Node3 -->
<g id="edge3" class="edge">
<title>Node4&#45;&gt;Node3</title>
<path fill="none" stroke="orange" d="M87.5,-750.95C87.5,-735.4 87.5,-717.58 87.5,-702.59"/>
<polygon fill="orange" stroke="orange" points="84,-751.28 87.5,-761.28 91,-751.28 84,-751.28"/>
<text text-anchor="start" x="87.5" y="-735" font-family="Helvetica,sans-Serif" font-size="10.00"> &lt; GraphType, unsigned</text>
<text text-anchor="middle" x="146" y="-724" font-family="Helvetica,sans-Serif" font-size="10.00"> int &gt;</text>
</g>
<!-- Node5 -->
<g id="node5" class="node">
<title>Node5</title>
<g id="a_node5"><a xlink:href="classdouble.html" target="_top" xlink:title=" ">
<polygon fill="white" stroke="black" points="428.5,-640 428.5,-697 478.5,-697 478.5,-640 428.5,-640"/>
<text text-anchor="middle" x="453.5" y="-685" font-family="Helvetica,sans-Serif" font-size="10.00">double</text>
<polyline fill="none" stroke="black" points="428.5,-678 478.5,-678 "/>
<text text-anchor="middle" x="453.5" y="-666" font-family="Helvetica,sans-Serif" font-size="10.00"> </text>
<polyline fill="none" stroke="black" points="428.5,-659 478.5,-659 "/>
<text text-anchor="middle" x="453.5" y="-647" font-family="Helvetica,sans-Serif" font-size="10.00"> </text>
</a>
</g>
</g>
<!-- Node5&#45;&gt;Node1 -->
<g id="edge12" class="edge">
<title>Node5&#45;&gt;Node1</title>
<path fill="none" stroke="#404040" d="M478.77,-651.8C501.85,-635.88 534.57,-608.92 549.5,-576 586.09,-495.31 579.76,-234.47 574.62,-114.02"/>
<polygon fill="none" stroke="#404040" points="574.61,-113.76 570.35,-107.95 574.08,-101.78 578.34,-107.59 574.61,-113.76"/>
<text text-anchor="middle" x="598.5" y="-365.5" font-family="Helvetica,sans-Serif" font-size="10.00"> #sigma</text>
</g>
<!-- Node5&#45;&gt;Node2 -->
<g id="edge4" class="edge">
<title>Node5&#45;&gt;Node2</title>
<path fill="none" stroke="#404040" d="M455.28,-639.61C457.34,-588.46 456.12,-477.5 414.5,-397 396.95,-363.06 368.8,-332.49 340.96,-307.83"/>
<polygon fill="none" stroke="#404040" points="340.63,-307.54 333.47,-306.64 331.55,-299.69 338.7,-300.59 340.63,-307.54"/>
<text text-anchor="middle" x="500.5" y="-484" font-family="Helvetica,sans-Serif" font-size="10.00"> #trGwishSampler</text>
</g>
<!-- Node5&#45;&gt;Node7 -->
<g id="edge9" class="edge">
<title>Node5&#45;&gt;Node7</title>
<path fill="none" stroke="#404040" d="M428.35,-656.8C406.8,-647.23 375.24,-632.22 349.5,-616 330.62,-604.1 311.97,-589.46 294.76,-574.39"/>
<polygon fill="none" stroke="#404040" points="294.3,-573.98 287.16,-572.96 285.36,-565.98 292.5,-567 294.3,-573.98"/>
<text text-anchor="middle" x="394.5" y="-602.5" font-family="Helvetica,sans-Serif" font-size="10.00"> #trGwishSampler</text>
</g>
<!-- Node6 -->
<g id="node6" class="node">
<title>Node6</title>
<g id="a_node6"><a xlink:title=" ">
<polygon fill="white" stroke="#bfbfbf" points="173.5,-634.5 173.5,-702.5 283.5,-702.5 283.5,-634.5 173.5,-634.5"/>
<text text-anchor="start" x="181.5" y="-690.5" font-family="Helvetica,sans-Serif" font-size="10.00">pair&lt; unsigned int,</text>
<text text-anchor="middle" x="228.5" y="-679.5" font-family="Helvetica,sans-Serif" font-size="10.00"> unsigned int &gt;</text>
<polyline fill="none" stroke="#bfbfbf" points="173.5,-672.5 283.5,-672.5 "/>
<text text-anchor="middle" x="228.5" y="-660.5" font-family="Helvetica,sans-Serif" font-size="10.00"> </text>
<polyline fill="none" stroke="#bfbfbf" points="173.5,-653.5 283.5,-653.5 "/>
<text text-anchor="middle" x="228.5" y="-641.5" font-family="Helvetica,sans-Serif" font-size="10.00"> </text>
</a>
</g>
</g>
<!-- Node6&#45;&gt;Node2 -->
<g id="edge5" class="edge">
<title>Node6&#45;&gt;Node2</title>
<path fill="none" stroke="#404040" d="M283.67,-637.61C290.8,-631.41 297.13,-624.22 301.5,-616 355.56,-514.35 331.33,-469.42 306.5,-357 306.02,-354.82 305.49,-352.63 304.92,-350.44"/>
<polygon fill="none" stroke="#404040" points="304.85,-350.21 299.33,-345.58 301.49,-338.69 307.01,-343.33 304.85,-350.21"/>
<text text-anchor="middle" x="372.5" y="-484" font-family="Helvetica,sans-Serif" font-size="10.00"> #selected_link</text>
</g>
<!-- Node6&#45;&gt;Node7 -->
<g id="edge10" class="edge">
<title>Node6&#45;&gt;Node7</title>
<path fill="none" stroke="#404040" d="M225.2,-634.49C223.86,-621.09 222.23,-604.84 220.56,-588.09"/>
<polygon fill="none" stroke="#404040" points="220.53,-587.78 215.95,-582.2 219.33,-575.84 223.91,-581.41 220.53,-587.78"/>
<text text-anchor="middle" x="261.5" y="-602.5" font-family="Helvetica,sans-Serif" font-size="10.00"> #selected_link</text>
</g>
<!-- Node7&#45;&gt;Node2 -->
<g id="edge7" class="edge">
<title>Node7&#45;&gt;Node2</title>
<path fill="none" stroke="orange" d="M185.83,-387.02C185.83,-376.82 186.9,-366.66 189.5,-357 191.14,-350.92 193.19,-344.83 195.56,-338.81"/>
<polygon fill="orange" stroke="orange" points="182.34,-387.33 186.17,-397.21 189.33,-387.1 182.34,-387.33"/>
<text text-anchor="start" x="189.5" y="-371" font-family="Helvetica,sans-Serif" font-size="10.00"> &lt; GraphType, unsigned</text>
<text text-anchor="middle" x="248" y="-360" font-family="Helvetica,sans-Serif" font-size="10.00"> int &gt;</text>
</g>
<!-- Node8 -->
<g id="node8" class="node">
<title>Node8</title>
<g id="a_node8"><a xlink:title=" ">
<polygon fill="white" stroke="#bfbfbf" points="600,-215.5 600,-272.5 629,-272.5 629,-215.5 600,-215.5"/>
<text text-anchor="middle" x="614.5" y="-260.5" font-family="Helvetica,sans-Serif" font-size="10.00">int</text>
<polyline fill="none" stroke="#bfbfbf" points="600,-253.5 629,-253.5 "/>
<text text-anchor="middle" x="614.5" y="-241.5" font-family="Helvetica,sans-Serif" font-size="10.00"> </text>
<polyline fill="none" stroke="#bfbfbf" points="600,-234.5 629,-234.5 "/>
<text text-anchor="middle" x="614.5" y="-222.5" font-family="Helvetica,sans-Serif" font-size="10.00"> </text>
</a>
</g>
</g>
<!-- Node8&#45;&gt;Node1 -->
<g id="edge13" class="edge">
<title>Node8&#45;&gt;Node1</title>
<path fill="none" stroke="#404040" d="M608.25,-215.23C602.27,-188.66 593.05,-147.7 585.34,-113.46"/>
<polygon fill="none" stroke="#404040" points="585.32,-113.37 580.1,-108.39 582.68,-101.66 587.9,-106.63 585.32,-113.37"/>
<text text-anchor="middle" x="622" y="-123" font-family="Helvetica,sans-Serif" font-size="10.00"> #MCiterPrior</text>
</g>
</g>
</svg>
