<?xml version="1.0" encoding="UTF-8" standalone="no"?>
<!DOCTYPE svg PUBLIC "-//W3C//DTD SVG 1.1//EN"
 "http://www.w3.org/Graphics/SVG/1.1/DTD/svg11.dtd">
<!-- Generated by graphviz version 2.43.0 (0)
 -->
<!-- Title: BlockGraphAdjDyn&lt; T &gt; Pages: 1 -->
<!--zoomable 833 -->
<svg id="main" version="1.1" xmlns="http://www.w3.org/2000/svg" xmlns:xlink="http://www.w3.org/1999/xlink" xml:space="preserve" onload="init(evt)">
<style type="text/css"><![CDATA[
.edge:hover path { stroke: red; }
.edge:hover polygon { stroke: red; fill: red; }
]]></style>
<script type="text/javascript"><![CDATA[
var edges = document.getElementsByTagName('g');
if (edges && edges.length) {
  for (var i=0;i<edges.length;i++) {
    if (edges[i].id.substr(0,4)=='edge') {
      edges[i].setAttribute('class','edge');
    }
  }
}
]]></script>
        <defs>
                <circle id="rim" cx="0" cy="0" r="7"/>
                <circle id="rim2" cx="0" cy="0" r="3.5"/>
                <g id="zoomPlus">
                        <use xlink:href="#rim" fill="#404040">
                                <set attributeName="fill" to="#808080" begin="zoomplus.mouseover" end="zoomplus.mouseout"/>
                        </use>
                        <path d="M-4,0h8M0,-4v8" fill="none" stroke="white" stroke-width="1.5" pointer-events="none"/>
                </g>
                <g id="zoomMin">
                        <use xlink:href="#rim" fill="#404040">
                                <set attributeName="fill" to="#808080" begin="zoomminus.mouseover" end="zoomminus.mouseout"/>
                        </use>
                        <path d="M-4,0h8" fill="none" stroke="white" stroke-width="1.5" pointer-events="none"/>
                </g>
                <g id="dirArrow">
                        <path fill="none" stroke="white" stroke-width="1.5" d="M0,-3.0v7 M-2.5,-0.5L0,-3.0L2.5,-0.5"/>
                </g>
               <g id="resetDef">
                       <use xlink:href="#rim2" fill="#404040">
                               <set attributeName="fill" to="#808080" begin="reset.mouseover" end="reset.mouseout"/>
                       </use>
               </g>
        </defs>

<script type="text/javascript">
var viewWidth = 404;
var viewHeight = 833;
var sectionId = 'dynsection-1';
</script>
<script xlink:href="svgpan.js"/>
<svg id="graph" class="graph">
<g id="viewport">
<title>BlockGraphAdjDyn&lt; T &gt;</title>
<polygon fill="white" stroke="transparent" points="-4,4 -4,-829 400,-829 400,4 -4,4"/>
<!-- Node1 -->
<g id="node1" class="node">
<title>Node1</title>
<g id="a_node1"><a xlink:title=" ">
<polygon fill="#bfbfbf" stroke="black" points="147,-0.5 147,-178.5 284,-178.5 284,-0.5 147,-0.5"/>
<text text-anchor="middle" x="215.5" y="-166.5" font-family="Helvetica,sans-Serif" font-size="10.00">BlockGraphAdjDyn&lt; T &gt;</text>
<polyline fill="none" stroke="black" points="147,-159.5 284,-159.5 "/>
<text text-anchor="middle" x="215.5" y="-147.5" font-family="Helvetica,sans-Serif" font-size="10.00"> </text>
<polyline fill="none" stroke="black" points="147,-140.5 284,-140.5 "/>
<text text-anchor="start" x="155" y="-128.5" font-family="Helvetica,sans-Serif" font-size="10.00">+ BlockGraphAdjDyn()</text>
<text text-anchor="start" x="155" y="-117.5" font-family="Helvetica,sans-Serif" font-size="10.00">+ BlockGraphAdjDyn()</text>
<text text-anchor="start" x="155" y="-106.5" font-family="Helvetica,sans-Serif" font-size="10.00">+ get_graph()</text>
<text text-anchor="start" x="155" y="-95.5" font-family="Helvetica,sans-Serif" font-size="10.00">+ get_adj_list()</text>
<text text-anchor="start" x="155" y="-84.5" font-family="Helvetica,sans-Serif" font-size="10.00">+ get_neighbours()</text>
<text text-anchor="start" x="155" y="-73.5" font-family="Helvetica,sans-Serif" font-size="10.00">+ get_n_links()</text>
<text text-anchor="start" x="155" y="-62.5" font-family="Helvetica,sans-Serif" font-size="10.00">+ get_n_block_links()</text>
<text text-anchor="start" x="155" y="-51.5" font-family="Helvetica,sans-Serif" font-size="10.00">+ get_possible_links()</text>
<text text-anchor="start" x="155" y="-40.5" font-family="Helvetica,sans-Serif" font-size="10.00">+ get_possible_block</text>
<text text-anchor="start" x="155" y="-29.5" font-family="Helvetica,sans-Serif" font-size="10.00">_links()</text>
<text text-anchor="start" x="155" y="-18.5" font-family="Helvetica,sans-Serif" font-size="10.00">+ set_graph()</text>
<text text-anchor="start" x="155" y="-7.5" font-family="Helvetica,sans-Serif" font-size="10.00">and 10 more...</text>
</a>
</g>
</g>
<!-- Node2 -->
<g id="node2" class="node">
<title>Node2</title>
<g id="a_node2"><a xlink:href="classBlockGraphBase.html" target="_top" xlink:title=" ">
<polygon fill="white" stroke="black" points="130.5,-216.5 130.5,-427.5 300.5,-427.5 300.5,-216.5 130.5,-216.5"/>
<text text-anchor="start" x="138.5" y="-415.5" font-family="Helvetica,sans-Serif" font-size="10.00">BlockGraphBase&lt; unsigned</text>
<text text-anchor="middle" x="215.5" y="-404.5" font-family="Helvetica,sans-Serif" font-size="10.00"> int &gt;</text>
<polyline fill="none" stroke="black" points="130.5,-397.5 300.5,-397.5 "/>
<text text-anchor="middle" x="215.5" y="-385.5" font-family="Helvetica,sans-Serif" font-size="10.00"> </text>
<polyline fill="none" stroke="black" points="130.5,-378.5 300.5,-378.5 "/>
<text text-anchor="start" x="138.5" y="-366.5" font-family="Helvetica,sans-Serif" font-size="10.00">+ BlockGraphBase()</text>
<text text-anchor="start" x="138.5" y="-355.5" font-family="Helvetica,sans-Serif" font-size="10.00">+ get_groups()</text>
<text text-anchor="start" x="138.5" y="-344.5" font-family="Helvetica,sans-Serif" font-size="10.00">+ get_ptr_groups()</text>
<text text-anchor="start" x="138.5" y="-333.5" font-family="Helvetica,sans-Serif" font-size="10.00">+ get_size()</text>
<text text-anchor="start" x="138.5" y="-322.5" font-family="Helvetica,sans-Serif" font-size="10.00">+ get_number_singleton()</text>
<text text-anchor="start" x="138.5" y="-311.5" font-family="Helvetica,sans-Serif" font-size="10.00">+ get_pos_singleton()</text>
<text text-anchor="start" x="138.5" y="-300.5" font-family="Helvetica,sans-Serif" font-size="10.00">+ get_row_with_singleton()</text>
<text text-anchor="start" x="138.5" y="-289.5" font-family="Helvetica,sans-Serif" font-size="10.00">+ get_complete_size()</text>
<text text-anchor="start" x="138.5" y="-278.5" font-family="Helvetica,sans-Serif" font-size="10.00">+ get_group_size()</text>
<text text-anchor="start" x="138.5" y="-267.5" font-family="Helvetica,sans-Serif" font-size="10.00">+ get_n_links()</text>
<text text-anchor="start" x="138.5" y="-256.5" font-family="Helvetica,sans-Serif" font-size="10.00">and 16 more...</text>
<text text-anchor="start" x="138.5" y="-245.5" font-family="Helvetica,sans-Serif" font-size="10.00"># find_neighbours()</text>
<text text-anchor="start" x="138.5" y="-234.5" font-family="Helvetica,sans-Serif" font-size="10.00"># compute_nlinks_nblocks()</text>
<text text-anchor="start" x="138.5" y="-223.5" font-family="Helvetica,sans-Serif" font-size="10.00"># compute_diagonal_position()</text>
</a>
</g>
</g>
<!-- Node2&#45;&gt;Node1 -->
<g id="edge1" class="edge">
<title>Node2&#45;&gt;Node1</title>
<path fill="none" stroke="midnightblue" d="M215.5,-205.94C215.5,-196.83 215.5,-187.72 215.5,-178.84"/>
<polygon fill="none" stroke="midnightblue" points="212,-206.2 215.5,-216.2 219,-206.2 212,-206.2"/>
</g>
<!-- Node3 -->
<g id="node3" class="node">
<title>Node3</title>
<g id="a_node3"><a xlink:title=" ">
<polygon fill="white" stroke="#bfbfbf" points="0,-767.5 0,-824.5 155,-824.5 155,-767.5 0,-767.5"/>
<text text-anchor="middle" x="77.5" y="-812.5" font-family="Helvetica,sans-Serif" font-size="10.00">shared_ptr&lt; const Groups &gt;</text>
<polyline fill="none" stroke="#bfbfbf" points="0,-805.5 155,-805.5 "/>
<text text-anchor="middle" x="77.5" y="-793.5" font-family="Helvetica,sans-Serif" font-size="10.00"> </text>
<polyline fill="none" stroke="#bfbfbf" points="0,-786.5 155,-786.5 "/>
<text text-anchor="middle" x="77.5" y="-774.5" font-family="Helvetica,sans-Serif" font-size="10.00"> </text>
</a>
</g>
</g>
<!-- Node3&#45;&gt;Node2 -->
<g id="edge2" class="edge">
<title>Node3&#45;&gt;Node2</title>
<path fill="none" stroke="#404040" d="M68.04,-767.12C51.27,-712.95 21.35,-590.59 57.5,-497 71.23,-461.45 95.97,-428.68 121.86,-401.4"/>
<polygon fill="none" stroke="#404040" points="121.93,-401.33 123.24,-394.24 130.3,-392.73 128.98,-399.82 121.93,-401.33"/>
<text text-anchor="middle" x="89.5" y="-595" font-family="Helvetica,sans-Serif" font-size="10.00"> #ptr_groups</text>
</g>
<!-- Node5 -->
<g id="node5" class="node">
<title>Node5</title>
<g id="a_node5"><a xlink:href="classBlockGraphBase.html" target="_top" xlink:title=" ">
<polygon fill="white" stroke="black" points="130.5,-497.5 130.5,-697.5 300.5,-697.5 300.5,-497.5 130.5,-497.5"/>
<text text-anchor="middle" x="215.5" y="-685.5" font-family="Helvetica,sans-Serif" font-size="10.00">BlockGraphBase&lt; T &gt;</text>
<polyline fill="none" stroke="black" points="130.5,-678.5 300.5,-678.5 "/>
<text text-anchor="middle" x="215.5" y="-666.5" font-family="Helvetica,sans-Serif" font-size="10.00"> </text>
<polyline fill="none" stroke="black" points="130.5,-659.5 300.5,-659.5 "/>
<text text-anchor="start" x="138.5" y="-647.5" font-family="Helvetica,sans-Serif" font-size="10.00">+ BlockGraphBase()</text>
<text text-anchor="start" x="138.5" y="-636.5" font-family="Helvetica,sans-Serif" font-size="10.00">+ get_groups()</text>
<text text-anchor="start" x="138.5" y="-625.5" font-family="Helvetica,sans-Serif" font-size="10.00">+ get_ptr_groups()</text>
<text text-anchor="start" x="138.5" y="-614.5" font-family="Helvetica,sans-Serif" font-size="10.00">+ get_size()</text>
<text text-anchor="start" x="138.5" y="-603.5" font-family="Helvetica,sans-Serif" font-size="10.00">+ get_number_singleton()</text>
<text text-anchor="start" x="138.5" y="-592.5" font-family="Helvetica,sans-Serif" font-size="10.00">+ get_pos_singleton()</text>
<text text-anchor="start" x="138.5" y="-581.5" font-family="Helvetica,sans-Serif" font-size="10.00">+ get_row_with_singleton()</text>
<text text-anchor="start" x="138.5" y="-570.5" font-family="Helvetica,sans-Serif" font-size="10.00">+ get_complete_size()</text>
<text text-anchor="start" x="138.5" y="-559.5" font-family="Helvetica,sans-Serif" font-size="10.00">+ get_group_size()</text>
<text text-anchor="start" x="138.5" y="-548.5" font-family="Helvetica,sans-Serif" font-size="10.00">+ get_n_links()</text>
<text text-anchor="start" x="138.5" y="-537.5" font-family="Helvetica,sans-Serif" font-size="10.00">and 16 more...</text>
<text text-anchor="start" x="138.5" y="-526.5" font-family="Helvetica,sans-Serif" font-size="10.00"># find_neighbours()</text>
<text text-anchor="start" x="138.5" y="-515.5" font-family="Helvetica,sans-Serif" font-size="10.00"># compute_nlinks_nblocks()</text>
<text text-anchor="start" x="138.5" y="-504.5" font-family="Helvetica,sans-Serif" font-size="10.00"># compute_diagonal_position()</text>
</a>
</g>
</g>
<!-- Node3&#45;&gt;Node5 -->
<g id="edge5" class="edge">
<title>Node3&#45;&gt;Node5</title>
<path fill="none" stroke="#404040" d="M96.98,-767.26C108.31,-751.14 123.39,-729.65 139,-707.43"/>
<polygon fill="none" stroke="#404040" points="139.05,-707.35 139.23,-700.14 145.95,-697.53 145.78,-704.74 139.05,-707.35"/>
<text text-anchor="middle" x="162.5" y="-730" font-family="Helvetica,sans-Serif" font-size="10.00"> #ptr_groups</text>
</g>
<!-- Node4 -->
<g id="node4" class="node">
<title>Node4</title>
<g id="a_node4"><a xlink:href="classunsigned_01int.html" target="_top" xlink:title=" ">
<polygon fill="white" stroke="black" points="319,-569 319,-626 396,-626 396,-569 319,-569"/>
<text text-anchor="middle" x="357.5" y="-614" font-family="Helvetica,sans-Serif" font-size="10.00">unsigned int</text>
<polyline fill="none" stroke="black" points="319,-607 396,-607 "/>
<text text-anchor="middle" x="357.5" y="-595" font-family="Helvetica,sans-Serif" font-size="10.00"> </text>
<polyline fill="none" stroke="black" points="319,-588 396,-588 "/>
<text text-anchor="middle" x="357.5" y="-576" font-family="Helvetica,sans-Serif" font-size="10.00"> </text>
</a>
</g>
</g>
<!-- Node4&#45;&gt;Node2 -->
<g id="edge3" class="edge">
<title>Node4&#45;&gt;Node2</title>
<path fill="none" stroke="#404040" d="M350.63,-568.85C342.33,-537.87 326.78,-486.66 305.5,-446 304.15,-443.43 302.76,-440.85 301.32,-438.27"/>
<polygon fill="none" stroke="#404040" points="301.2,-438.07 294.73,-434.89 295.18,-427.69 301.65,-430.87 301.2,-438.07"/>
<text text-anchor="middle" x="352" y="-471" font-family="Helvetica,sans-Serif" font-size="10.00"> #n_links</text>
<text text-anchor="middle" x="352" y="-460" font-family="Helvetica,sans-Serif" font-size="10.00">#n_singleton</text>
<text text-anchor="middle" x="352" y="-449" font-family="Helvetica,sans-Serif" font-size="10.00">#n_blocks</text>
</g>
<!-- Node5&#45;&gt;Node2 -->
<g id="edge4" class="edge">
<title>Node5&#45;&gt;Node2</title>
<path fill="none" stroke="orange" d="M215.5,-487.21C215.5,-467.62 215.5,-447.24 215.5,-427.78"/>
<polygon fill="orange" stroke="orange" points="212,-487.37 215.5,-497.37 219,-487.37 212,-487.37"/>
<text text-anchor="middle" x="258.5" y="-460" font-family="Helvetica,sans-Serif" font-size="10.00"> &lt; unsigned int &gt;</text>
</g>
<!-- Node6 -->
<g id="node6" class="node">
<title>Node6</title>
<g id="a_node6"><a xlink:title=" ">
<polygon fill="white" stroke="#bfbfbf" points="201,-767.5 201,-824.5 230,-824.5 230,-767.5 201,-767.5"/>
<text text-anchor="middle" x="215.5" y="-812.5" font-family="Helvetica,sans-Serif" font-size="10.00">int</text>
<polyline fill="none" stroke="#bfbfbf" points="201,-805.5 230,-805.5 "/>
<text text-anchor="middle" x="215.5" y="-793.5" font-family="Helvetica,sans-Serif" font-size="10.00"> </text>
<polyline fill="none" stroke="#bfbfbf" points="201,-786.5 230,-786.5 "/>
<text text-anchor="middle" x="215.5" y="-774.5" font-family="Helvetica,sans-Serif" font-size="10.00"> </text>
</a>
</g>
</g>
<!-- Node6&#45;&gt;Node5 -->
<g id="edge6" class="edge">
<title>Node6&#45;&gt;Node5</title>
<path fill="none" stroke="#404040" d="M215.5,-767.26C215.5,-751.71 215.5,-731.19 215.5,-709.82"/>
<polygon fill="none" stroke="#404040" points="215.5,-709.53 211.5,-703.53 215.5,-697.53 219.5,-703.53 215.5,-709.53"/>
<text text-anchor="middle" x="248" y="-741" font-family="Helvetica,sans-Serif" font-size="10.00"> #n_links</text>
<text text-anchor="middle" x="248" y="-730" font-family="Helvetica,sans-Serif" font-size="10.00">#n_singleton</text>
<text text-anchor="middle" x="248" y="-719" font-family="Helvetica,sans-Serif" font-size="10.00">#n_blocks</text>
</g>
</g>
</svg>
        <g id="navigator" transform="translate(0 0)" fill="#404254">
                <rect fill="#f2f5e9" fill-opacity="0.5" stroke="#606060" stroke-width=".5" x="0" y="0" width="60" height="60"/>
                <use id="zoomplus" xlink:href="#zoomPlus" x="17" y="9" onmousedown="handleZoom(evt,'in')"/>
                <use id="zoomminus" xlink:href="#zoomMin" x="42" y="9" onmousedown="handleZoom(evt,'out')"/>
                <use id="reset" xlink:href="#resetDef" x="30" y="36" onmousedown="handleReset()"/>
                <g id="arrowUp" xlink:href="#dirArrow" transform="translate(30 24)" onmousedown="handlePan(0,-1)">
                  <use xlink:href="#rim" fill="#404040">
                        <set attributeName="fill" to="#808080" begin="arrowUp.mouseover" end="arrowUp.mouseout"/>
                  </use>
                  <path fill="none" stroke="white" stroke-width="1.5" d="M0,-3.0v7 M-2.5,-0.5L0,-3.0L2.5,-0.5"/>
                </g>
                <g id="arrowRight" xlink:href="#dirArrow" transform="rotate(90) translate(36 -43)" onmousedown="handlePan(1,0)">
                  <use xlink:href="#rim" fill="#404040">
                        <set attributeName="fill" to="#808080" begin="arrowRight.mouseover" end="arrowRight.mouseout"/>
                  </use>
                  <path fill="none" stroke="white" stroke-width="1.5" d="M0,-3.0v7 M-2.5,-0.5L0,-3.0L2.5,-0.5"/>
                </g>
                <g id="arrowDown" xlink:href="#dirArrow" transform="rotate(180) translate(-30 -48)" onmousedown="handlePan(0,1)">
                  <use xlink:href="#rim" fill="#404040">
                        <set attributeName="fill" to="#808080" begin="arrowDown.mouseover" end="arrowDown.mouseout"/>
                  </use>
                  <path fill="none" stroke="white" stroke-width="1.5" d="M0,-3.0v7 M-2.5,-0.5L0,-3.0L2.5,-0.5"/>
                </g>
                <g id="arrowLeft" xlink:href="#dirArrow" transform="rotate(270) translate(-36 17)" onmousedown="handlePan(-1,0)">
                  <use xlink:href="#rim" fill="#404040">
                        <set attributeName="fill" to="#808080" begin="arrowLeft.mouseover" end="arrowLeft.mouseout"/>
                  </use>
                  <path fill="none" stroke="white" stroke-width="1.5" d="M0,-3.0v7 M-2.5,-0.5L0,-3.0L2.5,-0.5"/>
                </g>
        </g>
        <svg viewBox="0 0 15 15" width="100%" height="30px" preserveAspectRatio="xMaxYMin meet">
         <g id="arrow_out" transform="scale(0.3 0.3)">
          <a xlink:href="classBlockGraphAdjDyn__coll__graph_org.svg" target="_base">
           <rect id="button" ry="5" rx="5" y="6" x="6" height="38" width="38"
                fill="#f2f5e9" fill-opacity="0.5" stroke="#606060" stroke-width="1.0"/>
           <path id="arrow"
             d="M 11.500037,31.436501 C 11.940474,20.09759 22.043105,11.32322 32.158766,21.979434 L 37.068811,17.246167 C 37.068811,17.246167 37.088388,32 37.088388,32 L 22.160133,31.978069 C 22.160133,31.978069 26.997745,27.140456 26.997745,27.140456 C 18.528582,18.264221 13.291696,25.230495 11.500037,31.436501 z"
             style="fill:#404040;"/>
          </a>
         </g>
        </svg>
</svg>
