<?xml version="1.0" encoding="UTF-8" standalone="no"?>
<!DOCTYPE svg PUBLIC "-//W3C//DTD SVG 1.1//EN"
 "http://www.w3.org/Graphics/SVG/1.1/DTD/svg11.dtd">
<!-- Generated by graphviz version 2.43.0 (0)
 -->
<!-- Title: TruncatedUniformPrior&lt; BlockGraphStructure, T &gt; Pages: 1 -->
<svg width="217pt" height="420pt"
 viewBox="0.00 0.00 217.00 420.00" xmlns="http://www.w3.org/2000/svg" xmlns:xlink="http://www.w3.org/1999/xlink">
<g id="graph0" class="graph" transform="scale(1 1) rotate(0) translate(4 416)">
<title>TruncatedUniformPrior&lt; BlockGraphStructure, T &gt;</title>
<polygon fill="white" stroke="transparent" points="-4,4 -4,-416 213,-416 213,4 -4,4"/>
<!-- Node1 -->
<g id="node1" class="node">
<title>Node1</title>
<g id="a_node1"><a xlink:title=" ">
<polygon fill="#bfbfbf" stroke="black" points="12,-0.5 12,-101.5 164,-101.5 164,-0.5 12,-0.5"/>
<text text-anchor="start" x="20" y="-89.5" font-family="Helvetica,sans-Serif" font-size="10.00">TruncatedUniformPrior</text>
<text text-anchor="middle" x="88" y="-78.5" font-family="Helvetica,sans-Serif" font-size="10.00">&lt; BlockGraphStructure, T &gt;</text>
<polyline fill="none" stroke="black" points="12,-71.5 164,-71.5 "/>
<text text-anchor="middle" x="88" y="-59.5" font-family="Helvetica,sans-Serif" font-size="10.00"> </text>
<polyline fill="none" stroke="black" points="12,-52.5 164,-52.5 "/>
<text text-anchor="start" x="20" y="-40.5" font-family="Helvetica,sans-Serif" font-size="10.00">+ Prob()</text>
<text text-anchor="start" x="20" y="-29.5" font-family="Helvetica,sans-Serif" font-size="10.00">+ ratio()</text>
<text text-anchor="start" x="20" y="-18.5" font-family="Helvetica,sans-Serif" font-size="10.00">+ log_ratio()</text>
<text text-anchor="start" x="20" y="-7.5" font-family="Helvetica,sans-Serif" font-size="10.00">+ clone()</text>
</a>
</g>
</g>
<!-- Node2 -->
<g id="node2" class="node">
<title>Node2</title>
<g id="a_node2"><a xlink:href="classGraphPrior.html" target="_top" xlink:title=" ">
<polygon fill="white" stroke="black" points="18.5,-139.5 18.5,-251.5 157.5,-251.5 157.5,-139.5 18.5,-139.5"/>
<text text-anchor="start" x="26.5" y="-239.5" font-family="Helvetica,sans-Serif" font-size="10.00">GraphPrior&lt; BlockGraph,</text>
<text text-anchor="middle" x="88" y="-228.5" font-family="Helvetica,sans-Serif" font-size="10.00"> unsigned int &gt;</text>
<polyline fill="none" stroke="black" points="18.5,-221.5 157.5,-221.5 "/>
<text text-anchor="middle" x="88" y="-209.5" font-family="Helvetica,sans-Serif" font-size="10.00"> </text>
<polyline fill="none" stroke="black" points="18.5,-202.5 157.5,-202.5 "/>
<text text-anchor="start" x="26.5" y="-190.5" font-family="Helvetica,sans-Serif" font-size="10.00">+ Prob()</text>
<text text-anchor="start" x="26.5" y="-179.5" font-family="Helvetica,sans-Serif" font-size="10.00">+ ratio()</text>
<text text-anchor="start" x="26.5" y="-168.5" font-family="Helvetica,sans-Serif" font-size="10.00">+ log_ratio()</text>
<text text-anchor="start" x="26.5" y="-157.5" font-family="Helvetica,sans-Serif" font-size="10.00">+ clone()</text>
<text text-anchor="start" x="26.5" y="-146.5" font-family="Helvetica,sans-Serif" font-size="10.00">+ ~GraphPrior()</text>
</a>
</g>
</g>
<!-- Node2&#45;&gt;Node1 -->
<g id="edge1" class="edge">
<title>Node2&#45;&gt;Node1</title>
<path fill="none" stroke="midnightblue" d="M88,-129.13C88,-119.96 88,-110.65 88,-101.83"/>
<polygon fill="none" stroke="midnightblue" points="84.5,-129.41 88,-139.41 91.5,-129.41 84.5,-129.41"/>
</g>
<!-- Node3 -->
<g id="node3" class="node">
<title>Node3</title>
<g id="a_node3"><a xlink:href="classGraphPrior.html" target="_top" xlink:title=" ">
<polygon fill="white" stroke="black" points="0,-310.5 0,-411.5 176,-411.5 176,-310.5 0,-310.5"/>
<text text-anchor="middle" x="88" y="-399.5" font-family="Helvetica,sans-Serif" font-size="10.00">GraphPrior&lt; GraphStructure, T &gt;</text>
<polyline fill="none" stroke="black" points="0,-392.5 176,-392.5 "/>
<text text-anchor="middle" x="88" y="-380.5" font-family="Helvetica,sans-Serif" font-size="10.00"> </text>
<polyline fill="none" stroke="black" points="0,-373.5 176,-373.5 "/>
<text text-anchor="start" x="8" y="-361.5" font-family="Helvetica,sans-Serif" font-size="10.00">+ Prob()</text>
<text text-anchor="start" x="8" y="-350.5" font-family="Helvetica,sans-Serif" font-size="10.00">+ ratio()</text>
<text text-anchor="start" x="8" y="-339.5" font-family="Helvetica,sans-Serif" font-size="10.00">+ log_ratio()</text>
<text text-anchor="start" x="8" y="-328.5" font-family="Helvetica,sans-Serif" font-size="10.00">+ clone()</text>
<text text-anchor="start" x="8" y="-317.5" font-family="Helvetica,sans-Serif" font-size="10.00">+ ~GraphPrior()</text>
</a>
</g>
</g>
<!-- Node3&#45;&gt;Node2 -->
<g id="edge2" class="edge">
<title>Node3&#45;&gt;Node2</title>
<path fill="none" stroke="orange" d="M88,-299.86C88,-284.05 88,-267.08 88,-251.55"/>
<polygon fill="orange" stroke="orange" points="84.5,-300.06 88,-310.06 91.5,-300.06 84.5,-300.06"/>
<text text-anchor="start" x="88" y="-284" font-family="Helvetica,sans-Serif" font-size="10.00"> &lt; BlockGraph, unsigned</text>
<text text-anchor="middle" x="148.5" y="-273" font-family="Helvetica,sans-Serif" font-size="10.00"> int &gt;</text>
</g>
</g>
</svg>
