<?xml version="1.0" encoding="UTF-8" standalone="no"?>
<!DOCTYPE svg PUBLIC "-//W3C//DTD SVG 1.1//EN"
 "http://www.w3.org/Graphics/SVG/1.1/DTD/svg11.dtd">
<!-- Generated by graphviz version 2.43.0 (0)
 -->
<!-- Title: ReversibleJumpsMH&lt; GraphType, T &gt; Pages: 1 -->
<!--zoomable 908 -->
<svg id="main" version="1.1" xmlns="http://www.w3.org/2000/svg" xmlns:xlink="http://www.w3.org/1999/xlink" xml:space="preserve" onload="init(evt)">
<style type="text/css"><![CDATA[
.edge:hover path { stroke: red; }
.edge:hover polygon { stroke: red; fill: red; }
]]></style>
<script type="text/javascript"><![CDATA[
var edges = document.getElementsByTagName('g');
if (edges && edges.length) {
  for (var i=0;i<edges.length;i++) {
    if (edges[i].id.substr(0,4)=='edge') {
      edges[i].setAttribute('class','edge');
    }
  }
}
]]></script>
        <defs>
                <circle id="rim" cx="0" cy="0" r="7"/>
                <circle id="rim2" cx="0" cy="0" r="3.5"/>
                <g id="zoomPlus">
                        <use xlink:href="#rim" fill="#404040">
                                <set attributeName="fill" to="#808080" begin="zoomplus.mouseover" end="zoomplus.mouseout"/>
                        </use>
                        <path d="M-4,0h8M0,-4v8" fill="none" stroke="white" stroke-width="1.5" pointer-events="none"/>
                </g>
                <g id="zoomMin">
                        <use xlink:href="#rim" fill="#404040">
                                <set attributeName="fill" to="#808080" begin="zoomminus.mouseover" end="zoomminus.mouseout"/>
                        </use>
                        <path d="M-4,0h8" fill="none" stroke="white" stroke-width="1.5" pointer-events="none"/>
                </g>
                <g id="dirArrow">
                        <path fill="none" stroke="white" stroke-width="1.5" d="M0,-3.0v7 M-2.5,-0.5L0,-3.0L2.5,-0.5"/>
                </g>
               <g id="resetDef">
                       <use xlink:href="#rim2" fill="#404040">
                               <set attributeName="fill" to="#808080" begin="reset.mouseover" end="reset.mouseout"/>
                       </use>
               </g>
        </defs>

<script type="text/javascript">
var viewWidth = 298;
var viewHeight = 908;
var sectionId = 'dynsection-0';
</script>
<script xlink:href="svgpan.js"/>
<svg id="graph" class="graph">
<g id="viewport">
<title>ReversibleJumpsMH&lt; GraphType, T &gt;</title>
<polygon fill="white" stroke="transparent" points="-4,4 -4,-904 293.5,-904 293.5,4 -4,4"/>
<!-- Node1 -->
<g id="node1" class="node">
<title>Node1</title>
<g id="a_node1"><a xlink:title=" ">
<polygon fill="#bfbfbf" stroke="black" points="30.5,-0.5 30.5,-112.5 164.5,-112.5 164.5,-0.5 30.5,-0.5"/>
<text text-anchor="start" x="38.5" y="-100.5" font-family="Helvetica,sans-Serif" font-size="10.00">ReversibleJumpsMH&lt;</text>
<text text-anchor="middle" x="97.5" y="-89.5" font-family="Helvetica,sans-Serif" font-size="10.00"> GraphType, T &gt;</text>
<polyline fill="none" stroke="black" points="30.5,-82.5 164.5,-82.5 "/>
<text text-anchor="start" x="38.5" y="-70.5" font-family="Helvetica,sans-Serif" font-size="10.00"># sigma</text>
<text text-anchor="start" x="38.5" y="-59.5" font-family="Helvetica,sans-Serif" font-size="10.00"># MCiterPrior</text>
<polyline fill="none" stroke="black" points="30.5,-52.5 164.5,-52.5 "/>
<text text-anchor="start" x="38.5" y="-40.5" font-family="Helvetica,sans-Serif" font-size="10.00">+ ReversibleJumpsMH()</text>
<text text-anchor="start" x="38.5" y="-29.5" font-family="Helvetica,sans-Serif" font-size="10.00">+ ReversibleJumpsMH()</text>
<text text-anchor="start" x="38.5" y="-18.5" font-family="Helvetica,sans-Serif" font-size="10.00">+ RJ()</text>
<text text-anchor="start" x="38.5" y="-7.5" font-family="Helvetica,sans-Serif" font-size="10.00">+ operator()()</text>
</a>
</g>
</g>
<!-- Node2 -->
<g id="node2" class="node">
<title>Node2</title>
<g id="a_node2"><a xlink:href="classGGM.html" target="_top" xlink:title=" ">
<polygon fill="white" stroke="black" points="31,-150.5 31,-361.5 164,-361.5 164,-150.5 31,-150.5"/>
<text text-anchor="middle" x="97.5" y="-349.5" font-family="Helvetica,sans-Serif" font-size="10.00">GGM&lt; GraphType, T &gt;</text>
<polyline fill="none" stroke="black" points="31,-342.5 164,-342.5 "/>
<text text-anchor="start" x="39" y="-330.5" font-family="Helvetica,sans-Serif" font-size="10.00"># ptr_prior</text>
<text text-anchor="start" x="39" y="-319.5" font-family="Helvetica,sans-Serif" font-size="10.00"># Kprior</text>
<text text-anchor="start" x="39" y="-308.5" font-family="Helvetica,sans-Serif" font-size="10.00"># trGwishSampler</text>
<text text-anchor="start" x="39" y="-297.5" font-family="Helvetica,sans-Serif" font-size="10.00"># selected_link</text>
<polyline fill="none" stroke="black" points="31,-290.5 164,-290.5 "/>
<text text-anchor="start" x="39" y="-278.5" font-family="Helvetica,sans-Serif" font-size="10.00">+ GGM()</text>
<text text-anchor="start" x="39" y="-267.5" font-family="Helvetica,sans-Serif" font-size="10.00">+ GGM()</text>
<text text-anchor="start" x="39" y="-256.5" font-family="Helvetica,sans-Serif" font-size="10.00">+ GGM()</text>
<text text-anchor="start" x="39" y="-245.5" font-family="Helvetica,sans-Serif" font-size="10.00">+ GGM()</text>
<text text-anchor="start" x="39" y="-234.5" font-family="Helvetica,sans-Serif" font-size="10.00">+ operator=()</text>
<text text-anchor="start" x="39" y="-223.5" font-family="Helvetica,sans-Serif" font-size="10.00">+ operator=()</text>
<text text-anchor="start" x="39" y="-212.5" font-family="Helvetica,sans-Serif" font-size="10.00">+ get_shape()</text>
<text text-anchor="start" x="39" y="-201.5" font-family="Helvetica,sans-Serif" font-size="10.00">+ get_inv_scale()</text>
<text text-anchor="start" x="39" y="-190.5" font-family="Helvetica,sans-Serif" font-size="10.00">+ init_precision()</text>
<text text-anchor="start" x="39" y="-179.5" font-family="Helvetica,sans-Serif" font-size="10.00">+ propose_new_graph()</text>
<text text-anchor="start" x="39" y="-168.5" font-family="Helvetica,sans-Serif" font-size="10.00">+ operator()()</text>
<text text-anchor="start" x="39" y="-157.5" font-family="Helvetica,sans-Serif" font-size="10.00">+ ~GGM()</text>
</a>
</g>
</g>
<!-- Node2&#45;&gt;Node1 -->
<g id="edge1" class="edge">
<title>Node2&#45;&gt;Node1</title>
<path fill="none" stroke="midnightblue" d="M97.5,-140.42C97.5,-130.83 97.5,-121.45 97.5,-112.65"/>
<polygon fill="none" stroke="midnightblue" points="94,-140.47 97.5,-150.47 101,-140.47 94,-140.47"/>
</g>
<!-- Node3 -->
<g id="node3" class="node">
<title>Node3</title>
<g id="a_node3"><a xlink:href="structGGMTraits.html" target="_top" xlink:title=" ">
<polygon fill="white" stroke="black" points="0,-639.5 0,-696.5 153,-696.5 153,-639.5 0,-639.5"/>
<text text-anchor="middle" x="76.5" y="-684.5" font-family="Helvetica,sans-Serif" font-size="10.00">GGMTraits&lt; GraphType, T &gt;</text>
<polyline fill="none" stroke="black" points="0,-677.5 153,-677.5 "/>
<text text-anchor="middle" x="76.5" y="-665.5" font-family="Helvetica,sans-Serif" font-size="10.00"> </text>
<polyline fill="none" stroke="black" points="0,-658.5 153,-658.5 "/>
<text text-anchor="middle" x="76.5" y="-646.5" font-family="Helvetica,sans-Serif" font-size="10.00"> </text>
</a>
</g>
</g>
<!-- Node3&#45;&gt;Node2 -->
<g id="edge2" class="edge">
<title>Node3&#45;&gt;Node2</title>
<path fill="none" stroke="midnightblue" d="M78.43,-629.29C81.51,-569.11 87.65,-449.25 92.14,-361.73"/>
<polygon fill="none" stroke="midnightblue" points="74.93,-629.3 77.91,-639.46 81.92,-629.65 74.93,-629.3"/>
</g>
<!-- Node4 -->
<g id="node4" class="node">
<title>Node4</title>
<g id="a_node4"><a xlink:href="structGGMTraits.html" target="_top" xlink:title=" ">
<polygon fill="white" stroke="black" points="42,-842.5 42,-899.5 217,-899.5 217,-842.5 42,-842.5"/>
<text text-anchor="middle" x="129.5" y="-887.5" font-family="Helvetica,sans-Serif" font-size="10.00">GGMTraits&lt; GraphStructure, T &gt;</text>
<polyline fill="none" stroke="black" points="42,-880.5 217,-880.5 "/>
<text text-anchor="middle" x="129.5" y="-868.5" font-family="Helvetica,sans-Serif" font-size="10.00"> </text>
<polyline fill="none" stroke="black" points="42,-861.5 217,-861.5 "/>
<text text-anchor="middle" x="129.5" y="-849.5" font-family="Helvetica,sans-Serif" font-size="10.00"> </text>
</a>
</g>
</g>
<!-- Node4&#45;&gt;Node3 -->
<g id="edge3" class="edge">
<title>Node4&#45;&gt;Node3</title>
<path fill="none" stroke="orange" d="M77.52,-834.92C74.78,-831.52 72.39,-827.87 70.5,-824 50.59,-783.23 59.49,-728.98 67.9,-696.65"/>
<polygon fill="orange" stroke="orange" points="75.08,-837.45 84.43,-842.44 80.24,-832.71 75.08,-837.45"/>
<text text-anchor="middle" x="115.5" y="-810.5" font-family="Helvetica,sans-Serif" font-size="10.00"> &lt; GraphType, T &gt;</text>
</g>
<!-- Node6 -->
<g id="node6" class="node">
<title>Node6</title>
<g id="a_node6"><a xlink:href="structGGMTraits.html" target="_top" xlink:title=" ">
<polygon fill="white" stroke="black" points="119,-715.5 119,-783.5 252,-783.5 252,-715.5 119,-715.5"/>
<text text-anchor="start" x="127" y="-771.5" font-family="Helvetica,sans-Serif" font-size="10.00">GGMTraits&lt; GraphType,</text>
<text text-anchor="middle" x="185.5" y="-760.5" font-family="Helvetica,sans-Serif" font-size="10.00"> unsigned int &gt;</text>
<polyline fill="none" stroke="black" points="119,-753.5 252,-753.5 "/>
<text text-anchor="middle" x="185.5" y="-741.5" font-family="Helvetica,sans-Serif" font-size="10.00"> </text>
<polyline fill="none" stroke="black" points="119,-734.5 252,-734.5 "/>
<text text-anchor="middle" x="185.5" y="-722.5" font-family="Helvetica,sans-Serif" font-size="10.00"> </text>
</a>
</g>
</g>
<!-- Node4&#45;&gt;Node6 -->
<g id="edge6" class="edge">
<title>Node4&#45;&gt;Node6</title>
<path fill="none" stroke="orange" d="M158.84,-833.94C160.9,-830.67 162.83,-827.34 164.5,-824 170.8,-811.42 175.48,-796.66 178.81,-783.68"/>
<polygon fill="orange" stroke="orange" points="155.83,-832.15 153.1,-842.38 161.61,-836.08 155.83,-832.15"/>
<text text-anchor="start" x="172.5" y="-816" font-family="Helvetica,sans-Serif" font-size="10.00"> &lt; GraphType, unsigned</text>
<text text-anchor="middle" x="231" y="-805" font-family="Helvetica,sans-Serif" font-size="10.00"> int &gt;</text>
</g>
<!-- Node5 -->
<g id="node5" class="node">
<title>Node5</title>
<g id="a_node5"><a xlink:href="classGGM.html" target="_top" xlink:title=" ">
<polygon fill="white" stroke="black" points="110,-409.5 110,-620.5 259,-620.5 259,-409.5 110,-409.5"/>
<text text-anchor="middle" x="184.5" y="-608.5" font-family="Helvetica,sans-Serif" font-size="10.00">GGM&lt; GraphStructure, T &gt;</text>
<polyline fill="none" stroke="black" points="110,-601.5 259,-601.5 "/>
<text text-anchor="start" x="118" y="-589.5" font-family="Helvetica,sans-Serif" font-size="10.00"># ptr_prior</text>
<text text-anchor="start" x="118" y="-578.5" font-family="Helvetica,sans-Serif" font-size="10.00"># Kprior</text>
<text text-anchor="start" x="118" y="-567.5" font-family="Helvetica,sans-Serif" font-size="10.00"># trGwishSampler</text>
<text text-anchor="start" x="118" y="-556.5" font-family="Helvetica,sans-Serif" font-size="10.00"># selected_link</text>
<polyline fill="none" stroke="black" points="110,-549.5 259,-549.5 "/>
<text text-anchor="start" x="118" y="-537.5" font-family="Helvetica,sans-Serif" font-size="10.00">+ GGM()</text>
<text text-anchor="start" x="118" y="-526.5" font-family="Helvetica,sans-Serif" font-size="10.00">+ GGM()</text>
<text text-anchor="start" x="118" y="-515.5" font-family="Helvetica,sans-Serif" font-size="10.00">+ GGM()</text>
<text text-anchor="start" x="118" y="-504.5" font-family="Helvetica,sans-Serif" font-size="10.00">+ GGM()</text>
<text text-anchor="start" x="118" y="-493.5" font-family="Helvetica,sans-Serif" font-size="10.00">+ operator=()</text>
<text text-anchor="start" x="118" y="-482.5" font-family="Helvetica,sans-Serif" font-size="10.00">+ operator=()</text>
<text text-anchor="start" x="118" y="-471.5" font-family="Helvetica,sans-Serif" font-size="10.00">+ get_shape()</text>
<text text-anchor="start" x="118" y="-460.5" font-family="Helvetica,sans-Serif" font-size="10.00">+ get_inv_scale()</text>
<text text-anchor="start" x="118" y="-449.5" font-family="Helvetica,sans-Serif" font-size="10.00">+ init_precision()</text>
<text text-anchor="start" x="118" y="-438.5" font-family="Helvetica,sans-Serif" font-size="10.00">+ propose_new_graph()</text>
<text text-anchor="start" x="118" y="-427.5" font-family="Helvetica,sans-Serif" font-size="10.00">+ operator()()</text>
<text text-anchor="start" x="118" y="-416.5" font-family="Helvetica,sans-Serif" font-size="10.00">+ ~GGM()</text>
</a>
</g>
</g>
<!-- Node5&#45;&gt;Node2 -->
<g id="edge4" class="edge">
<title>Node5&#45;&gt;Node2</title>
<path fill="none" stroke="orange" d="M145.86,-399.85C141.58,-387.2 137.23,-374.38 133,-361.86"/>
<polygon fill="orange" stroke="orange" points="142.59,-401.12 149.11,-409.47 149.22,-398.87 142.59,-401.12"/>
<text text-anchor="middle" x="185.5" y="-383" font-family="Helvetica,sans-Serif" font-size="10.00"> &lt; GraphType, T &gt;</text>
</g>
<!-- Node6&#45;&gt;Node5 -->
<g id="edge5" class="edge">
<title>Node6&#45;&gt;Node5</title>
<path fill="none" stroke="midnightblue" d="M185.31,-705.05C185.21,-681.12 185.08,-650.32 184.95,-620.55"/>
<polygon fill="none" stroke="midnightblue" points="181.81,-705.2 185.36,-715.19 188.81,-705.17 181.81,-705.2"/>
</g>
</g>
</svg>
        <g id="navigator" transform="translate(0 0)" fill="#404254">
                <rect fill="#f2f5e9" fill-opacity="0.5" stroke="#606060" stroke-width=".5" x="0" y="0" width="60" height="60"/>
                <use id="zoomplus" xlink:href="#zoomPlus" x="17" y="9" onmousedown="handleZoom(evt,'in')"/>
                <use id="zoomminus" xlink:href="#zoomMin" x="42" y="9" onmousedown="handleZoom(evt,'out')"/>
                <use id="reset" xlink:href="#resetDef" x="30" y="36" onmousedown="handleReset()"/>
                <g id="arrowUp" xlink:href="#dirArrow" transform="translate(30 24)" onmousedown="handlePan(0,-1)">
                  <use xlink:href="#rim" fill="#404040">
                        <set attributeName="fill" to="#808080" begin="arrowUp.mouseover" end="arrowUp.mouseout"/>
                  </use>
                  <path fill="none" stroke="white" stroke-width="1.5" d="M0,-3.0v7 M-2.5,-0.5L0,-3.0L2.5,-0.5"/>
                </g>
                <g id="arrowRight" xlink:href="#dirArrow" transform="rotate(90) translate(36 -43)" onmousedown="handlePan(1,0)">
                  <use xlink:href="#rim" fill="#404040">
                        <set attributeName="fill" to="#808080" begin="arrowRight.mouseover" end="arrowRight.mouseout"/>
                  </use>
                  <path fill="none" stroke="white" stroke-width="1.5" d="M0,-3.0v7 M-2.5,-0.5L0,-3.0L2.5,-0.5"/>
                </g>
                <g id="arrowDown" xlink:href="#dirArrow" transform="rotate(180) translate(-30 -48)" onmousedown="handlePan(0,1)">
                  <use xlink:href="#rim" fill="#404040">
                        <set attributeName="fill" to="#808080" begin="arrowDown.mouseover" end="arrowDown.mouseout"/>
                  </use>
                  <path fill="none" stroke="white" stroke-width="1.5" d="M0,-3.0v7 M-2.5,-0.5L0,-3.0L2.5,-0.5"/>
                </g>
                <g id="arrowLeft" xlink:href="#dirArrow" transform="rotate(270) translate(-36 17)" onmousedown="handlePan(-1,0)">
                  <use xlink:href="#rim" fill="#404040">
                        <set attributeName="fill" to="#808080" begin="arrowLeft.mouseover" end="arrowLeft.mouseout"/>
                  </use>
                  <path fill="none" stroke="white" stroke-width="1.5" d="M0,-3.0v7 M-2.5,-0.5L0,-3.0L2.5,-0.5"/>
                </g>
        </g>
        <svg viewBox="0 0 15 15" width="100%" height="30px" preserveAspectRatio="xMaxYMin meet">
         <g id="arrow_out" transform="scale(0.3 0.3)">
          <a xlink:href="classReversibleJumpsMH_3_01GraphType_00_01T_01_4__inherit__graph_org.svg" target="_base">
           <rect id="button" ry="5" rx="5" y="6" x="6" height="38" width="38"
                fill="#f2f5e9" fill-opacity="0.5" stroke="#606060" stroke-width="1.0"/>
           <path id="arrow"
             d="M 11.500037,31.436501 C 11.940474,20.09759 22.043105,11.32322 32.158766,21.979434 L 37.068811,17.246167 C 37.068811,17.246167 37.088388,32 37.088388,32 L 22.160133,31.978069 C 22.160133,31.978069 26.997745,27.140456 26.997745,27.140456 C 18.528582,18.264221 13.291696,25.230495 11.500037,31.436501 z"
             style="fill:#404040;"/>
          </a>
         </g>
        </svg>
</svg>
