<?xml version="1.0" encoding="UTF-8" standalone="no"?>
<!DOCTYPE svg PUBLIC "-//W3C//DTD SVG 1.1//EN"
 "http://www.w3.org/Graphics/SVG/1.1/DTD/svg11.dtd">
<!-- Generated by graphviz version 2.43.0 (0)
 -->
<!-- Title: Groups Pages: 1 -->
<svg width="337pt" height="347pt"
 viewBox="0.00 0.00 336.50 347.00" xmlns="http://www.w3.org/2000/svg" xmlns:xlink="http://www.w3.org/1999/xlink">
<g id="graph0" class="graph" transform="scale(1 1) rotate(0) translate(4 343)">
<title>Groups</title>
<polygon fill="white" stroke="transparent" points="-4,4 -4,-343 332.5,-343 332.5,4 -4,4"/>
<!-- Node1 -->
<g id="node1" class="node">
<title>Node1</title>
<g id="a_node1"><a xlink:title=" ">
<polygon fill="#bfbfbf" stroke="black" points="98.5,-0.5 98.5,-222.5 222.5,-222.5 222.5,-0.5 98.5,-0.5"/>
<text text-anchor="middle" x="160.5" y="-210.5" font-family="Helvetica,sans-Serif" font-size="10.00">Groups</text>
<polyline fill="none" stroke="black" points="98.5,-203.5 222.5,-203.5 "/>
<text text-anchor="middle" x="160.5" y="-191.5" font-family="Helvetica,sans-Serif" font-size="10.00"> </text>
<polyline fill="none" stroke="black" points="98.5,-184.5 222.5,-184.5 "/>
<text text-anchor="start" x="106.5" y="-172.5" font-family="Helvetica,sans-Serif" font-size="10.00">+ Groups()</text>
<text text-anchor="start" x="106.5" y="-161.5" font-family="Helvetica,sans-Serif" font-size="10.00">+ Groups()</text>
<text text-anchor="start" x="106.5" y="-150.5" font-family="Helvetica,sans-Serif" font-size="10.00">+ Groups()</text>
<text text-anchor="start" x="106.5" y="-139.5" font-family="Helvetica,sans-Serif" font-size="10.00">+ Groups()</text>
<text text-anchor="start" x="106.5" y="-128.5" font-family="Helvetica,sans-Serif" font-size="10.00">+ Groups()</text>
<text text-anchor="start" x="106.5" y="-117.5" font-family="Helvetica,sans-Serif" font-size="10.00">+ get_n_groups()</text>
<text text-anchor="start" x="106.5" y="-106.5" font-family="Helvetica,sans-Serif" font-size="10.00">+ get_n_singleton()</text>
<text text-anchor="start" x="106.5" y="-95.5" font-family="Helvetica,sans-Serif" font-size="10.00">+ get_n_elements()</text>
<text text-anchor="start" x="106.5" y="-84.5" font-family="Helvetica,sans-Serif" font-size="10.00">+ get_group_size()</text>
<text text-anchor="start" x="106.5" y="-73.5" font-family="Helvetica,sans-Serif" font-size="10.00">+ get_pos_singleton()</text>
<text text-anchor="start" x="106.5" y="-62.5" font-family="Helvetica,sans-Serif" font-size="10.00">+ get_group()</text>
<text text-anchor="start" x="106.5" y="-51.5" font-family="Helvetica,sans-Serif" font-size="10.00">+ get_possible_block</text>
<text text-anchor="start" x="106.5" y="-40.5" font-family="Helvetica,sans-Serif" font-size="10.00">_links()</text>
<text text-anchor="start" x="106.5" y="-29.5" font-family="Helvetica,sans-Serif" font-size="10.00">+ find()</text>
<text text-anchor="start" x="106.5" y="-18.5" font-family="Helvetica,sans-Serif" font-size="10.00">+ find_and_get()</text>
<text text-anchor="start" x="106.5" y="-7.5" font-family="Helvetica,sans-Serif" font-size="10.00">+ createMapIdx()</text>
</a>
</g>
</g>
<!-- Node2 -->
<g id="node2" class="node">
<title>Node2</title>
<g id="a_node2"><a xlink:href="structGroupsTraits.html" target="_top" xlink:title=" ">
<polygon fill="white" stroke="black" points="0,-276 0,-333 77,-333 77,-276 0,-276"/>
<text text-anchor="middle" x="38.5" y="-321" font-family="Helvetica,sans-Serif" font-size="10.00">GroupsTraits</text>
<polyline fill="none" stroke="black" points="0,-314 77,-314 "/>
<text text-anchor="middle" x="38.5" y="-302" font-family="Helvetica,sans-Serif" font-size="10.00"> </text>
<polyline fill="none" stroke="black" points="0,-295 77,-295 "/>
<text text-anchor="middle" x="38.5" y="-283" font-family="Helvetica,sans-Serif" font-size="10.00"> </text>
</a>
</g>
</g>
<!-- Node2&#45;&gt;Node1 -->
<g id="edge1" class="edge">
<title>Node2&#45;&gt;Node1</title>
<path fill="none" stroke="midnightblue" d="M61.82,-266.99C72.35,-250.51 85.34,-230.17 98.4,-209.72"/>
<polygon fill="none" stroke="midnightblue" points="58.67,-265.42 56.24,-275.73 64.57,-269.18 58.67,-265.42"/>
</g>
<!-- Node3 -->
<g id="node3" class="node">
<title>Node3</title>
<g id="a_node3"><a xlink:title=" ">
<polygon fill="white" stroke="#bfbfbf" points="95,-270.5 95,-338.5 226,-338.5 226,-270.5 95,-270.5"/>
<text text-anchor="start" x="103" y="-326.5" font-family="Helvetica,sans-Serif" font-size="10.00">std::vector&lt; std::vector</text>
<text text-anchor="middle" x="160.5" y="-315.5" font-family="Helvetica,sans-Serif" font-size="10.00">&lt; unsigned int &gt; &gt;</text>
<polyline fill="none" stroke="#bfbfbf" points="95,-308.5 226,-308.5 "/>
<text text-anchor="middle" x="160.5" y="-296.5" font-family="Helvetica,sans-Serif" font-size="10.00"> </text>
<polyline fill="none" stroke="#bfbfbf" points="95,-289.5 226,-289.5 "/>
<text text-anchor="middle" x="160.5" y="-277.5" font-family="Helvetica,sans-Serif" font-size="10.00"> </text>
</a>
</g>
</g>
<!-- Node3&#45;&gt;Node1 -->
<g id="edge2" class="edge">
<title>Node3&#45;&gt;Node1</title>
<path fill="none" stroke="#8b1a1a" d="M160.5,-260.23C160.5,-248.86 160.5,-236.08 160.5,-222.91"/>
<polygon fill="none" stroke="#8b1a1a" points="157,-260.23 160.5,-270.23 164,-260.23 157,-260.23"/>
</g>
<!-- Node4 -->
<g id="node4" class="node">
<title>Node4</title>
<g id="a_node4"><a xlink:title=" ">
<polygon fill="white" stroke="#bfbfbf" points="244,-276 244,-333 297,-333 297,-276 244,-276"/>
<text text-anchor="middle" x="270.5" y="-321" font-family="Helvetica,sans-Serif" font-size="10.00">IdxMap</text>
<polyline fill="none" stroke="#bfbfbf" points="244,-314 297,-314 "/>
<text text-anchor="middle" x="270.5" y="-302" font-family="Helvetica,sans-Serif" font-size="10.00"> </text>
<polyline fill="none" stroke="#bfbfbf" points="244,-295 297,-295 "/>
<text text-anchor="middle" x="270.5" y="-283" font-family="Helvetica,sans-Serif" font-size="10.00"> </text>
</a>
</g>
</g>
<!-- Node4&#45;&gt;Node1 -->
<g id="edge3" class="edge">
<title>Node4&#45;&gt;Node1</title>
<path fill="none" stroke="#404040" d="M254.51,-275.73C247.3,-263.22 238.26,-247.51 228.64,-230.82"/>
<polygon fill="none" stroke="#404040" points="228.58,-230.72 222.12,-227.52 222.6,-220.32 229.06,-223.52 228.58,-230.72"/>
<text text-anchor="middle" x="283" y="-244" font-family="Helvetica,sans-Serif" font-size="10.00"> +map_of_indeces</text>
</g>
</g>
</svg>
