<?xml version="1.0" encoding="UTF-8" standalone="no"?>
<!DOCTYPE svg PUBLIC "-//W3C//DTD SVG 1.1//EN"
 "http://www.w3.org/Graphics/SVG/1.1/DTD/svg11.dtd">
<!-- Generated by graphviz version 2.43.0 (0)
 -->
<!-- Title: FLMHyperparameters Pages: 1 -->
<svg width="149pt" height="259pt"
 viewBox="0.00 0.00 149.00 259.00" xmlns="http://www.w3.org/2000/svg" xmlns:xlink="http://www.w3.org/1999/xlink">
<g id="graph0" class="graph" transform="scale(1 1) rotate(0) translate(4 255)">
<title>FLMHyperparameters</title>
<polygon fill="white" stroke="transparent" points="-4,4 -4,-255 145,-255 145,4 -4,4"/>
<!-- Node1 -->
<g id="node1" class="node">
<title>Node1</title>
<g id="a_node1"><a xlink:title=" ">
<polygon fill="#bfbfbf" stroke="black" points="0,-0.5 0,-156.5 141,-156.5 141,-0.5 0,-0.5"/>
<text text-anchor="middle" x="70.5" y="-144.5" font-family="Helvetica,sans-Serif" font-size="10.00">FLMHyperparameters</text>
<polyline fill="none" stroke="black" points="0,-137.5 141,-137.5 "/>
<text text-anchor="start" x="8" y="-125.5" font-family="Helvetica,sans-Serif" font-size="10.00">+ a_tau_eps</text>
<text text-anchor="start" x="8" y="-114.5" font-family="Helvetica,sans-Serif" font-size="10.00">+ b_tau_eps</text>
<text text-anchor="start" x="8" y="-103.5" font-family="Helvetica,sans-Serif" font-size="10.00">+ sigma_mu</text>
<text text-anchor="start" x="8" y="-92.5" font-family="Helvetica,sans-Serif" font-size="10.00">+ a_tauK</text>
<text text-anchor="start" x="8" y="-81.5" font-family="Helvetica,sans-Serif" font-size="10.00">+ b_tauK</text>
<text text-anchor="start" x="8" y="-70.5" font-family="Helvetica,sans-Serif" font-size="10.00">+ bK</text>
<text text-anchor="start" x="8" y="-59.5" font-family="Helvetica,sans-Serif" font-size="10.00">+ DK</text>
<polyline fill="none" stroke="black" points="0,-52.5 141,-52.5 "/>
<text text-anchor="start" x="8" y="-40.5" font-family="Helvetica,sans-Serif" font-size="10.00">+ FLMHyperparameters()</text>
<text text-anchor="start" x="8" y="-29.5" font-family="Helvetica,sans-Serif" font-size="10.00">+ FLMHyperparameters()</text>
<text text-anchor="start" x="8" y="-18.5" font-family="Helvetica,sans-Serif" font-size="10.00">+ FLMHyperparameters()</text>
<text text-anchor="start" x="8" y="-7.5" font-family="Helvetica,sans-Serif" font-size="10.00">+ FLMHyperparameters()</text>
</a>
</g>
</g>
<!-- Node2 -->
<g id="node2" class="node">
<title>Node2</title>
<g id="a_node2"><a xlink:href="structFLMsamplerTraits.html" target="_top" xlink:title=" ">
<polygon fill="white" stroke="black" points="19,-193.5 19,-250.5 122,-250.5 122,-193.5 19,-193.5"/>
<text text-anchor="middle" x="70.5" y="-238.5" font-family="Helvetica,sans-Serif" font-size="10.00">FLMsamplerTraits</text>
<polyline fill="none" stroke="black" points="19,-231.5 122,-231.5 "/>
<text text-anchor="middle" x="70.5" y="-219.5" font-family="Helvetica,sans-Serif" font-size="10.00"> </text>
<polyline fill="none" stroke="black" points="19,-212.5 122,-212.5 "/>
<text text-anchor="middle" x="70.5" y="-200.5" font-family="Helvetica,sans-Serif" font-size="10.00"> </text>
</a>
</g>
</g>
<!-- Node2&#45;&gt;Node1 -->
<g id="edge1" class="edge">
<title>Node2&#45;&gt;Node1</title>
<path fill="none" stroke="midnightblue" d="M70.5,-183.34C70.5,-175.04 70.5,-165.96 70.5,-156.74"/>
<polygon fill="none" stroke="midnightblue" points="67,-183.38 70.5,-193.38 74,-183.38 67,-183.38"/>
</g>
</g>
</svg>
