<?xml version="1.0" encoding="UTF-8" standalone="no"?>
<!DOCTYPE svg PUBLIC "-//W3C//DTD SVG 1.1//EN"
 "http://www.w3.org/Graphics/SVG/1.1/DTD/svg11.dtd">
<!-- Generated by graphviz version 2.43.0 (0)
 -->
<!-- Title: BernoulliPrior&lt; GraphStructure, T &gt; Pages: 1 -->
<svg width="221pt" height="420pt"
 viewBox="0.00 0.00 220.50 420.00" xmlns="http://www.w3.org/2000/svg" xmlns:xlink="http://www.w3.org/1999/xlink">
<g id="graph0" class="graph" transform="scale(1 1) rotate(0) translate(4 416)">
<title>BernoulliPrior&lt; GraphStructure, T &gt;</title>
<polygon fill="white" stroke="transparent" points="-4,4 -4,-416 216.5,-416 216.5,4 -4,4"/>
<!-- Node1 -->
<g id="node1" class="node">
<title>Node1</title>
<g id="a_node1"><a xlink:title=" ">
<polygon fill="#bfbfbf" stroke="black" points="0,-0.5 0,-101.5 191,-101.5 191,-0.5 0,-0.5"/>
<text text-anchor="middle" x="95.5" y="-89.5" font-family="Helvetica,sans-Serif" font-size="10.00">BernoulliPrior&lt; GraphStructure, T &gt;</text>
<polyline fill="none" stroke="black" points="0,-82.5 191,-82.5 "/>
<text text-anchor="middle" x="95.5" y="-70.5" font-family="Helvetica,sans-Serif" font-size="10.00"> </text>
<polyline fill="none" stroke="black" points="0,-63.5 191,-63.5 "/>
<text text-anchor="start" x="8" y="-51.5" font-family="Helvetica,sans-Serif" font-size="10.00">+ BernoulliPrior()</text>
<text text-anchor="start" x="8" y="-40.5" font-family="Helvetica,sans-Serif" font-size="10.00">+ Prob()</text>
<text text-anchor="start" x="8" y="-29.5" font-family="Helvetica,sans-Serif" font-size="10.00">+ ratio()</text>
<text text-anchor="start" x="8" y="-18.5" font-family="Helvetica,sans-Serif" font-size="10.00">+ log_ratio()</text>
<text text-anchor="start" x="8" y="-7.5" font-family="Helvetica,sans-Serif" font-size="10.00">+ clone()</text>
</a>
</g>
</g>
<!-- Node2 -->
<g id="node2" class="node">
<title>Node2</title>
<g id="a_node2"><a xlink:href="classGraphPrior.html" target="_top" xlink:title=" ">
<polygon fill="white" stroke="black" points="28.5,-139.5 28.5,-251.5 162.5,-251.5 162.5,-139.5 28.5,-139.5"/>
<text text-anchor="start" x="36.5" y="-239.5" font-family="Helvetica,sans-Serif" font-size="10.00">GraphPrior&lt; GraphType,</text>
<text text-anchor="middle" x="95.5" y="-228.5" font-family="Helvetica,sans-Serif" font-size="10.00"> unsigned int &gt;</text>
<polyline fill="none" stroke="black" points="28.5,-221.5 162.5,-221.5 "/>
<text text-anchor="middle" x="95.5" y="-209.5" font-family="Helvetica,sans-Serif" font-size="10.00"> </text>
<polyline fill="none" stroke="black" points="28.5,-202.5 162.5,-202.5 "/>
<text text-anchor="start" x="36.5" y="-190.5" font-family="Helvetica,sans-Serif" font-size="10.00">+ Prob()</text>
<text text-anchor="start" x="36.5" y="-179.5" font-family="Helvetica,sans-Serif" font-size="10.00">+ ratio()</text>
<text text-anchor="start" x="36.5" y="-168.5" font-family="Helvetica,sans-Serif" font-size="10.00">+ log_ratio()</text>
<text text-anchor="start" x="36.5" y="-157.5" font-family="Helvetica,sans-Serif" font-size="10.00">+ clone()</text>
<text text-anchor="start" x="36.5" y="-146.5" font-family="Helvetica,sans-Serif" font-size="10.00">+ ~GraphPrior()</text>
</a>
</g>
</g>
<!-- Node2&#45;&gt;Node1 -->
<g id="edge1" class="edge">
<title>Node2&#45;&gt;Node1</title>
<path fill="none" stroke="midnightblue" d="M95.5,-129.13C95.5,-119.96 95.5,-110.65 95.5,-101.83"/>
<polygon fill="none" stroke="midnightblue" points="92,-129.41 95.5,-139.41 99,-129.41 92,-129.41"/>
</g>
<!-- Node3 -->
<g id="node3" class="node">
<title>Node3</title>
<g id="a_node3"><a xlink:href="classGraphPrior.html" target="_top" xlink:title=" ">
<polygon fill="white" stroke="black" points="7.5,-310.5 7.5,-411.5 183.5,-411.5 183.5,-310.5 7.5,-310.5"/>
<text text-anchor="middle" x="95.5" y="-399.5" font-family="Helvetica,sans-Serif" font-size="10.00">GraphPrior&lt; GraphStructure, T &gt;</text>
<polyline fill="none" stroke="black" points="7.5,-392.5 183.5,-392.5 "/>
<text text-anchor="middle" x="95.5" y="-380.5" font-family="Helvetica,sans-Serif" font-size="10.00"> </text>
<polyline fill="none" stroke="black" points="7.5,-373.5 183.5,-373.5 "/>
<text text-anchor="start" x="15.5" y="-361.5" font-family="Helvetica,sans-Serif" font-size="10.00">+ Prob()</text>
<text text-anchor="start" x="15.5" y="-350.5" font-family="Helvetica,sans-Serif" font-size="10.00">+ ratio()</text>
<text text-anchor="start" x="15.5" y="-339.5" font-family="Helvetica,sans-Serif" font-size="10.00">+ log_ratio()</text>
<text text-anchor="start" x="15.5" y="-328.5" font-family="Helvetica,sans-Serif" font-size="10.00">+ clone()</text>
<text text-anchor="start" x="15.5" y="-317.5" font-family="Helvetica,sans-Serif" font-size="10.00">+ ~GraphPrior()</text>
</a>
</g>
</g>
<!-- Node3&#45;&gt;Node2 -->
<g id="edge2" class="edge">
<title>Node3&#45;&gt;Node2</title>
<path fill="none" stroke="orange" d="M95.5,-299.86C95.5,-284.05 95.5,-267.08 95.5,-251.55"/>
<polygon fill="orange" stroke="orange" points="92,-300.06 95.5,-310.06 99,-300.06 92,-300.06"/>
<text text-anchor="start" x="95.5" y="-284" font-family="Helvetica,sans-Serif" font-size="10.00"> &lt; GraphType, unsigned</text>
<text text-anchor="middle" x="154" y="-273" font-family="Helvetica,sans-Serif" font-size="10.00"> int &gt;</text>
</g>
</g>
</svg>
