<?xml version="1.0" encoding="UTF-8" standalone="no"?>
<!DOCTYPE svg PUBLIC "-//W3C//DTD SVG 1.1//EN"
 "http://www.w3.org/Graphics/SVG/1.1/DTD/svg11.dtd">
<!-- Generated by graphviz version 2.43.0 (0)
 -->
<!-- Title: Init&lt; GraphStructure, T &gt; Pages: 1 -->
<!--zoomable 740 -->
<svg id="main" version="1.1" xmlns="http://www.w3.org/2000/svg" xmlns:xlink="http://www.w3.org/1999/xlink" xml:space="preserve" onload="init(evt)">
<style type="text/css"><![CDATA[
.edge:hover path { stroke: red; }
.edge:hover polygon { stroke: red; fill: red; }
]]></style>
<script type="text/javascript"><![CDATA[
var edges = document.getElementsByTagName('g');
if (edges && edges.length) {
  for (var i=0;i<edges.length;i++) {
    if (edges[i].id.substr(0,4)=='edge') {
      edges[i].setAttribute('class','edge');
    }
  }
}
]]></script>
        <defs>
                <circle id="rim" cx="0" cy="0" r="7"/>
                <circle id="rim2" cx="0" cy="0" r="3.5"/>
                <g id="zoomPlus">
                        <use xlink:href="#rim" fill="#404040">
                                <set attributeName="fill" to="#808080" begin="zoomplus.mouseover" end="zoomplus.mouseout"/>
                        </use>
                        <path d="M-4,0h8M0,-4v8" fill="none" stroke="white" stroke-width="1.5" pointer-events="none"/>
                </g>
                <g id="zoomMin">
                        <use xlink:href="#rim" fill="#404040">
                                <set attributeName="fill" to="#808080" begin="zoomminus.mouseover" end="zoomminus.mouseout"/>
                        </use>
                        <path d="M-4,0h8" fill="none" stroke="white" stroke-width="1.5" pointer-events="none"/>
                </g>
                <g id="dirArrow">
                        <path fill="none" stroke="white" stroke-width="1.5" d="M0,-3.0v7 M-2.5,-0.5L0,-3.0L2.5,-0.5"/>
                </g>
               <g id="resetDef">
                       <use xlink:href="#rim2" fill="#404040">
                               <set attributeName="fill" to="#808080" begin="reset.mouseover" end="reset.mouseout"/>
                       </use>
               </g>
        </defs>

<script type="text/javascript">
var viewWidth = 633;
var viewHeight = 740;
var sectionId = 'dynsection-1';
</script>
<script xlink:href="svgpan.js"/>
<svg id="graph" class="graph">
<g id="viewport">
<title>Init&lt; GraphStructure, T &gt;</title>
<polygon fill="white" stroke="transparent" points="-4,4 -4,-736 628.5,-736 628.5,4 -4,4"/>
<!-- Node1 -->
<g id="node1" class="node">
<title>Node1</title>
<g id="a_node1"><a xlink:title=" ">
<polygon fill="#bfbfbf" stroke="black" points="171.5,-0.5 171.5,-79.5 311.5,-79.5 311.5,-0.5 171.5,-0.5"/>
<text text-anchor="middle" x="241.5" y="-67.5" font-family="Helvetica,sans-Serif" font-size="10.00">Init&lt; GraphStructure, T &gt;</text>
<polyline fill="none" stroke="black" points="171.5,-60.5 311.5,-60.5 "/>
<text text-anchor="middle" x="241.5" y="-48.5" font-family="Helvetica,sans-Serif" font-size="10.00"> </text>
<polyline fill="none" stroke="black" points="171.5,-41.5 311.5,-41.5 "/>
<text text-anchor="start" x="179.5" y="-29.5" font-family="Helvetica,sans-Serif" font-size="10.00">+ Init()</text>
<text text-anchor="start" x="179.5" y="-18.5" font-family="Helvetica,sans-Serif" font-size="10.00">+ Init()</text>
<text text-anchor="start" x="179.5" y="-7.5" font-family="Helvetica,sans-Serif" font-size="10.00">+ set_init()</text>
</a>
</g>
</g>
<!-- Node2 -->
<g id="node2" class="node">
<title>Node2</title>
<g id="a_node2"><a xlink:href="structSamplerTraits.html" target="_top" xlink:title=" ">
<polygon fill="white" stroke="black" points="0,-188 0,-245 83,-245 83,-188 0,-188"/>
<text text-anchor="middle" x="41.5" y="-233" font-family="Helvetica,sans-Serif" font-size="10.00">SamplerTraits</text>
<polyline fill="none" stroke="black" points="0,-226 83,-226 "/>
<text text-anchor="middle" x="41.5" y="-214" font-family="Helvetica,sans-Serif" font-size="10.00"> </text>
<polyline fill="none" stroke="black" points="0,-207 83,-207 "/>
<text text-anchor="middle" x="41.5" y="-195" font-family="Helvetica,sans-Serif" font-size="10.00"> </text>
</a>
</g>
</g>
<!-- Node2&#45;&gt;Node1 -->
<g id="edge1" class="edge">
<title>Node2&#45;&gt;Node1</title>
<path fill="none" stroke="midnightblue" d="M57.25,-178.66C65.86,-161.52 77.8,-141.71 92.5,-127 114.98,-104.5 144.55,-85.84 171.41,-71.71"/>
<polygon fill="none" stroke="midnightblue" points="54,-177.34 52.8,-187.87 60.3,-180.38 54,-177.34"/>
</g>
<!-- Node3 -->
<g id="node3" class="node">
<title>Node3</title>
<g id="a_node3"><a xlink:href="classdouble.html" target="_top" xlink:title=" ">
<polygon fill="white" stroke="black" points="101.5,-188 101.5,-245 151.5,-245 151.5,-188 101.5,-188"/>
<text text-anchor="middle" x="126.5" y="-233" font-family="Helvetica,sans-Serif" font-size="10.00">double</text>
<polyline fill="none" stroke="black" points="101.5,-226 151.5,-226 "/>
<text text-anchor="middle" x="126.5" y="-214" font-family="Helvetica,sans-Serif" font-size="10.00"> </text>
<polyline fill="none" stroke="black" points="101.5,-207 151.5,-207 "/>
<text text-anchor="middle" x="126.5" y="-195" font-family="Helvetica,sans-Serif" font-size="10.00"> </text>
</a>
</g>
</g>
<!-- Node3&#45;&gt;Node1 -->
<g id="edge2" class="edge">
<title>Node3&#45;&gt;Node1</title>
<path fill="none" stroke="#404040" d="M127.68,-187.99C129.98,-162.57 136.62,-124.8 155.5,-98 157.95,-94.53 160.68,-91.21 163.62,-88.04"/>
<polygon fill="none" stroke="#404040" points="163.79,-87.88 165.32,-80.84 172.41,-79.54 170.88,-86.59 163.79,-87.88"/>
<text text-anchor="middle" x="183.5" y="-101" font-family="Helvetica,sans-Serif" font-size="10.00"> +tau_eps0</text>
</g>
<!-- Node4 -->
<g id="node4" class="node">
<title>Node4</title>
<g id="a_node4"><a xlink:title=" ">
<polygon fill="white" stroke="#bfbfbf" points="169.5,-188 169.5,-245 229.5,-245 229.5,-188 169.5,-188"/>
<text text-anchor="middle" x="199.5" y="-233" font-family="Helvetica,sans-Serif" font-size="10.00">VectorXd</text>
<polyline fill="none" stroke="#bfbfbf" points="169.5,-226 229.5,-226 "/>
<text text-anchor="middle" x="199.5" y="-214" font-family="Helvetica,sans-Serif" font-size="10.00"> </text>
<polyline fill="none" stroke="#bfbfbf" points="169.5,-207 229.5,-207 "/>
<text text-anchor="middle" x="199.5" y="-195" font-family="Helvetica,sans-Serif" font-size="10.00"> </text>
</a>
</g>
</g>
<!-- Node4&#45;&gt;Node1 -->
<g id="edge3" class="edge">
<title>Node4&#45;&gt;Node1</title>
<path fill="none" stroke="#404040" d="M201.83,-187.55C204.29,-163.48 209.03,-127.99 217.5,-98 218.13,-95.75 218.83,-93.48 219.58,-91.19"/>
<polygon fill="none" stroke="#404040" points="219.62,-91.09 217.88,-84.09 223.68,-79.79 225.41,-86.79 219.62,-91.09"/>
<text text-anchor="middle" x="234.5" y="-101" font-family="Helvetica,sans-Serif" font-size="10.00"> +mu0</text>
</g>
<!-- Node5 -->
<g id="node5" class="node">
<title>Node5</title>
<g id="a_node5"><a xlink:title=" ">
<polygon fill="white" stroke="#bfbfbf" points="248,-188 248,-245 309,-245 309,-188 248,-188"/>
<text text-anchor="middle" x="278.5" y="-233" font-family="Helvetica,sans-Serif" font-size="10.00">MatrixXd</text>
<polyline fill="none" stroke="#bfbfbf" points="248,-226 309,-226 "/>
<text text-anchor="middle" x="278.5" y="-214" font-family="Helvetica,sans-Serif" font-size="10.00"> </text>
<polyline fill="none" stroke="#bfbfbf" points="248,-207 309,-207 "/>
<text text-anchor="middle" x="278.5" y="-195" font-family="Helvetica,sans-Serif" font-size="10.00"> </text>
</a>
</g>
</g>
<!-- Node5&#45;&gt;Node1 -->
<g id="edge4" class="edge">
<title>Node5&#45;&gt;Node1</title>
<path fill="none" stroke="#404040" d="M272.64,-187.85C267.17,-162.06 258.88,-122.96 252.23,-91.59"/>
<polygon fill="none" stroke="#404040" points="252.16,-91.29 247.01,-86.25 249.67,-79.55 254.83,-84.59 252.16,-91.29"/>
<text text-anchor="middle" x="276.5" y="-101" font-family="Helvetica,sans-Serif" font-size="10.00"> +Beta0</text>
</g>
<!-- Node6 -->
<g id="node6" class="node">
<title>Node6</title>
<g id="a_node6"><a xlink:href="classGraphType.html" target="_top" xlink:title=" ">
<polygon fill="white" stroke="black" points="327,-127.5 327,-305.5 454,-305.5 454,-127.5 327,-127.5"/>
<text text-anchor="start" x="335" y="-293.5" font-family="Helvetica,sans-Serif" font-size="10.00">GraphType&lt; unsigned</text>
<text text-anchor="middle" x="390.5" y="-282.5" font-family="Helvetica,sans-Serif" font-size="10.00"> int &gt;</text>
<polyline fill="none" stroke="black" points="327,-275.5 454,-275.5 "/>
<text text-anchor="middle" x="390.5" y="-263.5" font-family="Helvetica,sans-Serif" font-size="10.00"> </text>
<polyline fill="none" stroke="black" points="327,-256.5 454,-256.5 "/>
<text text-anchor="start" x="335" y="-244.5" font-family="Helvetica,sans-Serif" font-size="10.00">+ GraphType()</text>
<text text-anchor="start" x="335" y="-233.5" font-family="Helvetica,sans-Serif" font-size="10.00">+ GraphType()</text>
<text text-anchor="start" x="335" y="-222.5" font-family="Helvetica,sans-Serif" font-size="10.00">+ GraphType()</text>
<text text-anchor="start" x="335" y="-211.5" font-family="Helvetica,sans-Serif" font-size="10.00">+ GraphType()</text>
<text text-anchor="start" x="335" y="-200.5" font-family="Helvetica,sans-Serif" font-size="10.00">+ get_graph()</text>
<text text-anchor="start" x="335" y="-189.5" font-family="Helvetica,sans-Serif" font-size="10.00">+ get_adj_list()</text>
<text text-anchor="start" x="335" y="-178.5" font-family="Helvetica,sans-Serif" font-size="10.00">+ get_size()</text>
<text text-anchor="start" x="335" y="-167.5" font-family="Helvetica,sans-Serif" font-size="10.00">+ get_complete_size()</text>
<text text-anchor="start" x="335" y="-156.5" font-family="Helvetica,sans-Serif" font-size="10.00">+ get_nbd()</text>
<text text-anchor="start" x="335" y="-145.5" font-family="Helvetica,sans-Serif" font-size="10.00">+ get_nbd()</text>
<text text-anchor="start" x="335" y="-134.5" font-family="Helvetica,sans-Serif" font-size="10.00">and 13 more...</text>
</a>
</g>
</g>
<!-- Node6&#45;&gt;Node1 -->
<g id="edge5" class="edge">
<title>Node6&#45;&gt;Node1</title>
<path fill="none" stroke="#404040" d="M326.82,-129.26C318.21,-118.54 309.31,-107.88 300.5,-98 297.71,-94.88 294.79,-91.72 291.8,-88.57"/>
<polygon fill="none" stroke="#404040" points="291.61,-88.39 284.56,-86.88 283.23,-79.8 290.29,-81.3 291.61,-88.39"/>
<text text-anchor="middle" x="320" y="-101" font-family="Helvetica,sans-Serif" font-size="10.00"> +G0</text>
</g>
<!-- Node7 -->
<g id="node7" class="node">
<title>Node7</title>
<g id="a_node7"><a xlink:href="structGraphTypeTraits.html" target="_top" xlink:title=" ">
<polygon fill="white" stroke="black" points="296.5,-558.5 296.5,-626.5 446.5,-626.5 446.5,-558.5 296.5,-558.5"/>
<text text-anchor="start" x="304.5" y="-614.5" font-family="Helvetica,sans-Serif" font-size="10.00">GraphTypeTraits&lt; unsigned</text>
<text text-anchor="middle" x="371.5" y="-603.5" font-family="Helvetica,sans-Serif" font-size="10.00"> int &gt;</text>
<polyline fill="none" stroke="black" points="296.5,-596.5 446.5,-596.5 "/>
<text text-anchor="middle" x="371.5" y="-584.5" font-family="Helvetica,sans-Serif" font-size="10.00"> </text>
<polyline fill="none" stroke="black" points="296.5,-577.5 446.5,-577.5 "/>
<text text-anchor="middle" x="371.5" y="-565.5" font-family="Helvetica,sans-Serif" font-size="10.00"> </text>
</a>
</g>
</g>
<!-- Node7&#45;&gt;Node6 -->
<g id="edge6" class="edge">
<title>Node7&#45;&gt;Node6</title>
<path fill="none" stroke="midnightblue" d="M372.34,-548C373.41,-500.17 375.6,-421.06 379.5,-353 380.38,-337.68 381.52,-321.41 382.73,-305.65"/>
<polygon fill="none" stroke="midnightblue" points="368.83,-548.22 372.12,-558.3 375.83,-548.37 368.83,-548.22"/>
</g>
<!-- Node9 -->
<g id="node9" class="node">
<title>Node9</title>
<g id="a_node9"><a xlink:href="classGraphType.html" target="_top" xlink:title=" ">
<polygon fill="white" stroke="black" points="388,-353.5 388,-520.5 515,-520.5 515,-353.5 388,-353.5"/>
<text text-anchor="middle" x="451.5" y="-508.5" font-family="Helvetica,sans-Serif" font-size="10.00">GraphType&lt; T &gt;</text>
<polyline fill="none" stroke="black" points="388,-501.5 515,-501.5 "/>
<text text-anchor="middle" x="451.5" y="-489.5" font-family="Helvetica,sans-Serif" font-size="10.00"> </text>
<polyline fill="none" stroke="black" points="388,-482.5 515,-482.5 "/>
<text text-anchor="start" x="396" y="-470.5" font-family="Helvetica,sans-Serif" font-size="10.00">+ GraphType()</text>
<text text-anchor="start" x="396" y="-459.5" font-family="Helvetica,sans-Serif" font-size="10.00">+ GraphType()</text>
<text text-anchor="start" x="396" y="-448.5" font-family="Helvetica,sans-Serif" font-size="10.00">+ GraphType()</text>
<text text-anchor="start" x="396" y="-437.5" font-family="Helvetica,sans-Serif" font-size="10.00">+ GraphType()</text>
<text text-anchor="start" x="396" y="-426.5" font-family="Helvetica,sans-Serif" font-size="10.00">+ get_graph()</text>
<text text-anchor="start" x="396" y="-415.5" font-family="Helvetica,sans-Serif" font-size="10.00">+ get_adj_list()</text>
<text text-anchor="start" x="396" y="-404.5" font-family="Helvetica,sans-Serif" font-size="10.00">+ get_size()</text>
<text text-anchor="start" x="396" y="-393.5" font-family="Helvetica,sans-Serif" font-size="10.00">+ get_complete_size()</text>
<text text-anchor="start" x="396" y="-382.5" font-family="Helvetica,sans-Serif" font-size="10.00">+ get_nbd()</text>
<text text-anchor="start" x="396" y="-371.5" font-family="Helvetica,sans-Serif" font-size="10.00">+ get_nbd()</text>
<text text-anchor="start" x="396" y="-360.5" font-family="Helvetica,sans-Serif" font-size="10.00">and 13 more...</text>
</a>
</g>
</g>
<!-- Node7&#45;&gt;Node9 -->
<g id="edge9" class="edge">
<title>Node7&#45;&gt;Node9</title>
<path fill="none" stroke="midnightblue" d="M393.55,-549.19C398.21,-540.26 403.27,-530.53 408.41,-520.68"/>
<polygon fill="none" stroke="midnightblue" points="390.38,-547.71 388.86,-558.19 396.58,-550.94 390.38,-547.71"/>
</g>
<!-- Node8 -->
<g id="node8" class="node">
<title>Node8</title>
<g id="a_node8"><a xlink:href="structGraphTypeTraits.html" target="_top" xlink:title=" ">
<polygon fill="white" stroke="black" points="310,-674.5 310,-731.5 433,-731.5 433,-674.5 310,-674.5"/>
<text text-anchor="middle" x="371.5" y="-719.5" font-family="Helvetica,sans-Serif" font-size="10.00">GraphTypeTraits&lt; T &gt;</text>
<polyline fill="none" stroke="black" points="310,-712.5 433,-712.5 "/>
<text text-anchor="middle" x="371.5" y="-700.5" font-family="Helvetica,sans-Serif" font-size="10.00"> </text>
<polyline fill="none" stroke="black" points="310,-693.5 433,-693.5 "/>
<text text-anchor="middle" x="371.5" y="-681.5" font-family="Helvetica,sans-Serif" font-size="10.00"> </text>
</a>
</g>
</g>
<!-- Node8&#45;&gt;Node7 -->
<g id="edge7" class="edge">
<title>Node8&#45;&gt;Node7</title>
<path fill="none" stroke="orange" d="M371.5,-663.99C371.5,-651.77 371.5,-638.35 371.5,-626.52"/>
<polygon fill="orange" stroke="orange" points="368,-664.34 371.5,-674.34 375,-664.34 368,-664.34"/>
<text text-anchor="middle" x="414.5" y="-648" font-family="Helvetica,sans-Serif" font-size="10.00"> &lt; unsigned int &gt;</text>
</g>
<!-- Node9&#45;&gt;Node6 -->
<g id="edge8" class="edge">
<title>Node9&#45;&gt;Node6</title>
<path fill="none" stroke="orange" d="M425.66,-343.44C422.17,-330.93 418.59,-318.12 415.12,-305.69"/>
<polygon fill="orange" stroke="orange" points="422.38,-344.7 428.44,-353.39 429.12,-342.82 422.38,-344.7"/>
<text text-anchor="middle" x="465.5" y="-327" font-family="Helvetica,sans-Serif" font-size="10.00"> &lt; unsigned int &gt;</text>
</g>
<!-- Node10 -->
<g id="node10" class="node">
<title>Node10</title>
<g id="a_node10"><a xlink:title=" ">
<polygon fill="white" stroke="#bfbfbf" points="472.5,-177 472.5,-256 624.5,-256 624.5,-177 472.5,-177"/>
<text text-anchor="start" x="480.5" y="-244" font-family="Helvetica,sans-Serif" font-size="10.00">Matrix&lt; double, Eigen</text>
<text text-anchor="start" x="480.5" y="-233" font-family="Helvetica,sans-Serif" font-size="10.00">::Dynamic, Eigen::Dynamic,</text>
<text text-anchor="middle" x="548.5" y="-222" font-family="Helvetica,sans-Serif" font-size="10.00"> Eigen::RowMajor &gt;</text>
<polyline fill="none" stroke="#bfbfbf" points="472.5,-215 624.5,-215 "/>
<text text-anchor="middle" x="548.5" y="-203" font-family="Helvetica,sans-Serif" font-size="10.00"> </text>
<polyline fill="none" stroke="#bfbfbf" points="472.5,-196 624.5,-196 "/>
<text text-anchor="middle" x="548.5" y="-184" font-family="Helvetica,sans-Serif" font-size="10.00"> </text>
</a>
</g>
</g>
<!-- Node10&#45;&gt;Node1 -->
<g id="edge10" class="edge">
<title>Node10&#45;&gt;Node1</title>
<path fill="none" stroke="#404040" d="M518.1,-176.89C503.11,-159.82 483.89,-140.58 463.5,-127 420.63,-98.45 366.9,-77.31 323.03,-63.14"/>
<polygon fill="none" stroke="#404040" points="322.96,-63.12 316.04,-65.13 311.52,-59.51 318.45,-57.5 322.96,-63.12"/>
<text text-anchor="middle" x="442" y="-101" font-family="Helvetica,sans-Serif" font-size="10.00"> +K0</text>
</g>
</g>
</svg>
        <g id="navigator" transform="translate(0 0)" fill="#404254">
                <rect fill="#f2f5e9" fill-opacity="0.5" stroke="#606060" stroke-width=".5" x="0" y="0" width="60" height="60"/>
                <use id="zoomplus" xlink:href="#zoomPlus" x="17" y="9" onmousedown="handleZoom(evt,'in')"/>
                <use id="zoomminus" xlink:href="#zoomMin" x="42" y="9" onmousedown="handleZoom(evt,'out')"/>
                <use id="reset" xlink:href="#resetDef" x="30" y="36" onmousedown="handleReset()"/>
                <g id="arrowUp" xlink:href="#dirArrow" transform="translate(30 24)" onmousedown="handlePan(0,-1)">
                  <use xlink:href="#rim" fill="#404040">
                        <set attributeName="fill" to="#808080" begin="arrowUp.mouseover" end="arrowUp.mouseout"/>
                  </use>
                  <path fill="none" stroke="white" stroke-width="1.5" d="M0,-3.0v7 M-2.5,-0.5L0,-3.0L2.5,-0.5"/>
                </g>
                <g id="arrowRight" xlink:href="#dirArrow" transform="rotate(90) translate(36 -43)" onmousedown="handlePan(1,0)">
                  <use xlink:href="#rim" fill="#404040">
                        <set attributeName="fill" to="#808080" begin="arrowRight.mouseover" end="arrowRight.mouseout"/>
                  </use>
                  <path fill="none" stroke="white" stroke-width="1.5" d="M0,-3.0v7 M-2.5,-0.5L0,-3.0L2.5,-0.5"/>
                </g>
                <g id="arrowDown" xlink:href="#dirArrow" transform="rotate(180) translate(-30 -48)" onmousedown="handlePan(0,1)">
                  <use xlink:href="#rim" fill="#404040">
                        <set attributeName="fill" to="#808080" begin="arrowDown.mouseover" end="arrowDown.mouseout"/>
                  </use>
                  <path fill="none" stroke="white" stroke-width="1.5" d="M0,-3.0v7 M-2.5,-0.5L0,-3.0L2.5,-0.5"/>
                </g>
                <g id="arrowLeft" xlink:href="#dirArrow" transform="rotate(270) translate(-36 17)" onmousedown="handlePan(-1,0)">
                  <use xlink:href="#rim" fill="#404040">
                        <set attributeName="fill" to="#808080" begin="arrowLeft.mouseover" end="arrowLeft.mouseout"/>
                  </use>
                  <path fill="none" stroke="white" stroke-width="1.5" d="M0,-3.0v7 M-2.5,-0.5L0,-3.0L2.5,-0.5"/>
                </g>
        </g>
        <svg viewBox="0 0 15 15" width="100%" height="30px" preserveAspectRatio="xMaxYMin meet">
         <g id="arrow_out" transform="scale(0.3 0.3)">
          <a xlink:href="classInit__coll__graph_org.svg" target="_base">
           <rect id="button" ry="5" rx="5" y="6" x="6" height="38" width="38"
                fill="#f2f5e9" fill-opacity="0.5" stroke="#606060" stroke-width="1.0"/>
           <path id="arrow"
             d="M 11.500037,31.436501 C 11.940474,20.09759 22.043105,11.32322 32.158766,21.979434 L 37.068811,17.246167 C 37.068811,17.246167 37.088388,32 37.088388,32 L 22.160133,31.978069 C 22.160133,31.978069 26.997745,27.140456 26.997745,27.140456 C 18.528582,18.264221 13.291696,25.230495 11.500037,31.436501 z"
             style="fill:#404040;"/>
          </a>
         </g>
        </svg>
</svg>
