<?xml version="1.0" encoding="UTF-8" standalone="no"?>
<!DOCTYPE svg PUBLIC "-//W3C//DTD SVG 1.1//EN"
 "http://www.w3.org/Graphics/SVG/1.1/DTD/svg11.dtd">
<!-- Generated by graphviz version 2.43.0 (0)
 -->
<!-- Title: FGMsamplerDegub&lt; GraphStructure, T, RetGraph &gt; Pages: 1 -->
<svg width="206pt" height="193pt"
 viewBox="0.00 0.00 206.00 193.00" xmlns="http://www.w3.org/2000/svg" xmlns:xlink="http://www.w3.org/1999/xlink">
<g id="graph0" class="graph" transform="scale(1 1) rotate(0) translate(4 189)">
<title>FGMsamplerDegub&lt; GraphStructure, T, RetGraph &gt;</title>
<polygon fill="white" stroke="transparent" points="-4,4 -4,-189 202,-189 202,4 -4,4"/>
<!-- Node1 -->
<g id="node1" class="node">
<title>Node1</title>
<g id="a_node1"><a xlink:title=" ">
<polygon fill="#bfbfbf" stroke="black" points="0,-0.5 0,-90.5 198,-90.5 198,-0.5 0,-0.5"/>
<text text-anchor="start" x="8" y="-78.5" font-family="Helvetica,sans-Serif" font-size="10.00">FGMsamplerDegub&lt; GraphStructure,</text>
<text text-anchor="middle" x="99" y="-67.5" font-family="Helvetica,sans-Serif" font-size="10.00"> T, RetGraph &gt;</text>
<polyline fill="none" stroke="black" points="0,-60.5 198,-60.5 "/>
<text text-anchor="middle" x="99" y="-48.5" font-family="Helvetica,sans-Serif" font-size="10.00"> </text>
<polyline fill="none" stroke="black" points="0,-41.5 198,-41.5 "/>
<text text-anchor="start" x="8" y="-29.5" font-family="Helvetica,sans-Serif" font-size="10.00">+ FGMsamplerDegub()</text>
<text text-anchor="start" x="8" y="-18.5" font-family="Helvetica,sans-Serif" font-size="10.00">+ run()</text>
<text text-anchor="start" x="8" y="-7.5" font-family="Helvetica,sans-Serif" font-size="10.00">+ PointwiseEstimate()</text>
</a>
</g>
</g>
<!-- Node2 -->
<g id="node2" class="node">
<title>Node2</title>
<g id="a_node2"><a xlink:href="structSamplerTraits.html" target="_top" xlink:title=" ">
<polygon fill="white" stroke="black" points="57.5,-127.5 57.5,-184.5 140.5,-184.5 140.5,-127.5 57.5,-127.5"/>
<text text-anchor="middle" x="99" y="-172.5" font-family="Helvetica,sans-Serif" font-size="10.00">SamplerTraits</text>
<polyline fill="none" stroke="black" points="57.5,-165.5 140.5,-165.5 "/>
<text text-anchor="middle" x="99" y="-153.5" font-family="Helvetica,sans-Serif" font-size="10.00"> </text>
<polyline fill="none" stroke="black" points="57.5,-146.5 140.5,-146.5 "/>
<text text-anchor="middle" x="99" y="-134.5" font-family="Helvetica,sans-Serif" font-size="10.00"> </text>
</a>
</g>
</g>
<!-- Node2&#45;&gt;Node1 -->
<g id="edge1" class="edge">
<title>Node2&#45;&gt;Node1</title>
<path fill="none" stroke="midnightblue" d="M99,-117.21C99,-108.61 99,-99.39 99,-90.55"/>
<polygon fill="none" stroke="midnightblue" points="95.5,-117.34 99,-127.34 102.5,-117.34 95.5,-117.34"/>
</g>
</g>
</svg>
