<?xml version="1.0" encoding="UTF-8" standalone="no"?>
<!DOCTYPE svg PUBLIC "-//W3C//DTD SVG 1.1//EN"
 "http://www.w3.org/Graphics/SVG/1.1/DTD/svg11.dtd">
<!-- Generated by graphviz version 2.43.0 (0)
 -->
<!-- Title: FLMHyperparameters Pages: 1 -->
<svg width="268pt" height="259pt"
 viewBox="0.00 0.00 268.00 259.00" xmlns="http://www.w3.org/2000/svg" xmlns:xlink="http://www.w3.org/1999/xlink">
<g id="graph0" class="graph" transform="scale(1 1) rotate(0) translate(4 255)">
<title>FLMHyperparameters</title>
<polygon fill="white" stroke="transparent" points="-4,4 -4,-255 264,-255 264,4 -4,4"/>
<!-- Node1 -->
<g id="node1" class="node">
<title>Node1</title>
<g id="a_node1"><a xlink:title=" ">
<polygon fill="#bfbfbf" stroke="black" points="76,-0.5 76,-90.5 217,-90.5 217,-0.5 76,-0.5"/>
<text text-anchor="middle" x="146.5" y="-78.5" font-family="Helvetica,sans-Serif" font-size="10.00">FLMHyperparameters</text>
<polyline fill="none" stroke="black" points="76,-71.5 217,-71.5 "/>
<text text-anchor="middle" x="146.5" y="-59.5" font-family="Helvetica,sans-Serif" font-size="10.00"> </text>
<polyline fill="none" stroke="black" points="76,-52.5 217,-52.5 "/>
<text text-anchor="start" x="84" y="-40.5" font-family="Helvetica,sans-Serif" font-size="10.00">+ FLMHyperparameters()</text>
<text text-anchor="start" x="84" y="-29.5" font-family="Helvetica,sans-Serif" font-size="10.00">+ FLMHyperparameters()</text>
<text text-anchor="start" x="84" y="-18.5" font-family="Helvetica,sans-Serif" font-size="10.00">+ FLMHyperparameters()</text>
<text text-anchor="start" x="84" y="-7.5" font-family="Helvetica,sans-Serif" font-size="10.00">+ FLMHyperparameters()</text>
</a>
</g>
</g>
<!-- Node2 -->
<g id="node2" class="node">
<title>Node2</title>
<g id="a_node2"><a xlink:href="structFLMsamplerTraits.html" target="_top" xlink:title=" ">
<polygon fill="white" stroke="black" points="0,-193.5 0,-250.5 103,-250.5 103,-193.5 0,-193.5"/>
<text text-anchor="middle" x="51.5" y="-238.5" font-family="Helvetica,sans-Serif" font-size="10.00">FLMsamplerTraits</text>
<polyline fill="none" stroke="black" points="0,-231.5 103,-231.5 "/>
<text text-anchor="middle" x="51.5" y="-219.5" font-family="Helvetica,sans-Serif" font-size="10.00"> </text>
<polyline fill="none" stroke="black" points="0,-212.5 103,-212.5 "/>
<text text-anchor="middle" x="51.5" y="-200.5" font-family="Helvetica,sans-Serif" font-size="10.00"> </text>
</a>
</g>
</g>
<!-- Node2&#45;&gt;Node1 -->
<g id="edge1" class="edge">
<title>Node2&#45;&gt;Node1</title>
<path fill="none" stroke="midnightblue" d="M71.37,-184.5C86.24,-157.18 106.66,-119.69 122.45,-90.67"/>
<polygon fill="none" stroke="midnightblue" points="68.26,-182.89 66.55,-193.35 74.41,-186.24 68.26,-182.89"/>
</g>
<!-- Node3 -->
<g id="node3" class="node">
<title>Node3</title>
<g id="a_node3"><a xlink:href="classdouble.html" target="_top" xlink:title=" ">
<polygon fill="white" stroke="black" points="121.5,-193.5 121.5,-250.5 171.5,-250.5 171.5,-193.5 121.5,-193.5"/>
<text text-anchor="middle" x="146.5" y="-238.5" font-family="Helvetica,sans-Serif" font-size="10.00">double</text>
<polyline fill="none" stroke="black" points="121.5,-231.5 171.5,-231.5 "/>
<text text-anchor="middle" x="146.5" y="-219.5" font-family="Helvetica,sans-Serif" font-size="10.00"> </text>
<polyline fill="none" stroke="black" points="121.5,-212.5 171.5,-212.5 "/>
<text text-anchor="middle" x="146.5" y="-200.5" font-family="Helvetica,sans-Serif" font-size="10.00"> </text>
</a>
</g>
</g>
<!-- Node3&#45;&gt;Node1 -->
<g id="edge2" class="edge">
<title>Node3&#45;&gt;Node1</title>
<path fill="none" stroke="#404040" d="M146.5,-193.35C146.5,-169.11 146.5,-133.11 146.5,-102.82"/>
<polygon fill="none" stroke="#404040" points="146.5,-102.67 142.5,-96.67 146.5,-90.67 150.5,-96.67 146.5,-102.67"/>
<text text-anchor="middle" x="176.5" y="-167" font-family="Helvetica,sans-Serif" font-size="10.00"> +bK</text>
<text text-anchor="middle" x="176.5" y="-156" font-family="Helvetica,sans-Serif" font-size="10.00">+a_tau_eps</text>
<text text-anchor="middle" x="176.5" y="-145" font-family="Helvetica,sans-Serif" font-size="10.00">+b_tau_eps</text>
<text text-anchor="middle" x="176.5" y="-134" font-family="Helvetica,sans-Serif" font-size="10.00">+b_tauK</text>
<text text-anchor="middle" x="176.5" y="-123" font-family="Helvetica,sans-Serif" font-size="10.00">+sigma_mu</text>
<text text-anchor="middle" x="176.5" y="-112" font-family="Helvetica,sans-Serif" font-size="10.00">+a_tauK</text>
</g>
<!-- Node4 -->
<g id="node4" class="node">
<title>Node4</title>
<g id="a_node4"><a xlink:title=" ">
<polygon fill="white" stroke="#bfbfbf" points="199,-193.5 199,-250.5 260,-250.5 260,-193.5 199,-193.5"/>
<text text-anchor="middle" x="229.5" y="-238.5" font-family="Helvetica,sans-Serif" font-size="10.00">MatrixXd</text>
<polyline fill="none" stroke="#bfbfbf" points="199,-231.5 260,-231.5 "/>
<text text-anchor="middle" x="229.5" y="-219.5" font-family="Helvetica,sans-Serif" font-size="10.00"> </text>
<polyline fill="none" stroke="#bfbfbf" points="199,-212.5 260,-212.5 "/>
<text text-anchor="middle" x="229.5" y="-200.5" font-family="Helvetica,sans-Serif" font-size="10.00"> </text>
</a>
</g>
</g>
<!-- Node4&#45;&gt;Node1 -->
<g id="edge3" class="edge">
<title>Node4&#45;&gt;Node1</title>
<path fill="none" stroke="#404040" d="M228.45,-193.3C226.57,-169.7 221.41,-135.49 207.5,-109 206,-106.14 204.32,-103.33 202.52,-100.57"/>
<polygon fill="none" stroke="#404040" points="202.51,-100.55 195.75,-98.04 195.46,-90.84 202.22,-93.35 202.51,-100.55"/>
<text text-anchor="middle" x="238.5" y="-139.5" font-family="Helvetica,sans-Serif" font-size="10.00"> +DK</text>
</g>
</g>
</svg>
