<?xml version="1.0" encoding="UTF-8" standalone="no"?>
<!DOCTYPE svg PUBLIC "-//W3C//DTD SVG 1.1//EN"
 "http://www.w3.org/Graphics/SVG/1.1/DTD/svg11.dtd">
<!-- Generated by graphviz version 2.43.0 (0)
 -->
<!-- Title: DRJMH.h Pages: 1 -->
<!--zoomable 588 -->
<svg id="main" version="1.1" xmlns="http://www.w3.org/2000/svg" xmlns:xlink="http://www.w3.org/1999/xlink" xml:space="preserve" onload="init(evt)">
<style type="text/css"><![CDATA[
.edge:hover path { stroke: red; }
.edge:hover polygon { stroke: red; fill: red; }
]]></style>
<script type="text/javascript"><![CDATA[
var edges = document.getElementsByTagName('g');
if (edges && edges.length) {
  for (var i=0;i<edges.length;i++) {
    if (edges[i].id.substr(0,4)=='edge') {
      edges[i].setAttribute('class','edge');
    }
  }
}
]]></script>
        <defs>
                <circle id="rim" cx="0" cy="0" r="7"/>
                <circle id="rim2" cx="0" cy="0" r="3.5"/>
                <g id="zoomPlus">
                        <use xlink:href="#rim" fill="#404040">
                                <set attributeName="fill" to="#808080" begin="zoomplus.mouseover" end="zoomplus.mouseout"/>
                        </use>
                        <path d="M-4,0h8M0,-4v8" fill="none" stroke="white" stroke-width="1.5" pointer-events="none"/>
                </g>
                <g id="zoomMin">
                        <use xlink:href="#rim" fill="#404040">
                                <set attributeName="fill" to="#808080" begin="zoomminus.mouseover" end="zoomminus.mouseout"/>
                        </use>
                        <path d="M-4,0h8" fill="none" stroke="white" stroke-width="1.5" pointer-events="none"/>
                </g>
                <g id="dirArrow">
                        <path fill="none" stroke="white" stroke-width="1.5" d="M0,-3.0v7 M-2.5,-0.5L0,-3.0L2.5,-0.5"/>
                </g>
               <g id="resetDef">
                       <use xlink:href="#rim2" fill="#404040">
                               <set attributeName="fill" to="#808080" begin="reset.mouseover" end="reset.mouseout"/>
                       </use>
               </g>
        </defs>

<script type="text/javascript">
var viewWidth = 1686;
var viewHeight = 588;
var sectionId = 'dynsection-0';
</script>
<script xlink:href="svgpan.js"/>
<svg id="graph" class="graph">
<g id="viewport">
<title>DRJMH.h</title>
<polygon fill="white" stroke="transparent" points="-4,4 -4,-584 1682.38,-584 1682.38,4 -4,4"/>
<!-- Node1 -->
<g id="node1" class="node">
<title>Node1</title>
<g id="a_node1"><a xlink:title=" ">
<polygon fill="#bfbfbf" stroke="black" points="647.38,-560.5 647.38,-579.5 706.38,-579.5 706.38,-560.5 647.38,-560.5"/>
<text text-anchor="middle" x="676.88" y="-567.5" font-family="Helvetica,sans-Serif" font-size="10.00">DRJMH.h</text>
</a>
</g>
</g>
<!-- Node2 -->
<g id="node2" class="node">
<title>Node2</title>
<g id="a_node2"><a xlink:href="GGM_8h.html" target="_top" xlink:title=" ">
<polygon fill="white" stroke="black" points="651.88,-504.5 651.88,-523.5 701.88,-523.5 701.88,-504.5 651.88,-504.5"/>
<text text-anchor="middle" x="676.88" y="-511.5" font-family="Helvetica,sans-Serif" font-size="10.00">GGM.h</text>
</a>
</g>
</g>
<!-- Node1&#45;&gt;Node2 -->
<g id="edge1" class="edge">
<title>Node1&#45;&gt;Node2</title>
<path fill="none" stroke="midnightblue" d="M676.88,-560.08C676.88,-553.01 676.88,-542.86 676.88,-533.99"/>
<polygon fill="midnightblue" stroke="midnightblue" points="680.38,-533.75 676.88,-523.75 673.38,-533.75 680.38,-533.75"/>
</g>
<!-- Node3 -->
<g id="node3" class="node">
<title>Node3</title>
<g id="a_node3"><a xlink:href="include__headers_8h.html" target="_top" xlink:title=" ">
<polygon fill="white" stroke="black" points="747.38,-56.5 747.38,-75.5 852.38,-75.5 852.38,-56.5 747.38,-56.5"/>
<text text-anchor="middle" x="799.88" y="-63.5" font-family="Helvetica,sans-Serif" font-size="10.00">include_headers.h</text>
</a>
</g>
</g>
<!-- Node2&#45;&gt;Node3 -->
<g id="edge2" class="edge">
<title>Node2&#45;&gt;Node3</title>
<path fill="none" stroke="midnightblue" d="M701.98,-510.24C779.66,-500.99 1010.88,-468.02 1010.88,-403 1010.88,-403 1010.88,-403 1010.88,-177 1010.88,-109.5 924.91,-83.35 862.72,-73.27"/>
<polygon fill="midnightblue" stroke="midnightblue" points="862.99,-69.77 852.58,-71.73 861.94,-76.69 862.99,-69.77"/>
</g>
<!-- Node26 -->
<g id="node26" class="node">
<title>Node26</title>
<g id="a_node26"><a xlink:href="include__graphs_8h.html" target="_top" xlink:title=" ">
<polygon fill="white" stroke="black" points="676.38,-224.5 676.38,-243.5 775.38,-243.5 775.38,-224.5 676.38,-224.5"/>
<text text-anchor="middle" x="725.88" y="-231.5" font-family="Helvetica,sans-Serif" font-size="10.00">include_graphs.h</text>
</a>
</g>
</g>
<!-- Node2&#45;&gt;Node26 -->
<g id="edge25" class="edge">
<title>Node2&#45;&gt;Node26</title>
<path fill="none" stroke="midnightblue" d="M651.71,-507.57C631.1,-501.65 603.23,-489.93 589.88,-468 585.26,-460.41 587.92,-456.67 589.88,-448 608.1,-367.33 618.58,-344.87 669.88,-280 679.28,-268.11 692.37,-257.37 703.54,-249.37"/>
<polygon fill="midnightblue" stroke="midnightblue" points="705.71,-252.12 711.97,-243.56 701.75,-246.35 705.71,-252.12"/>
</g>
<!-- Node32 -->
<g id="node32" class="node">
<title>Node32</title>
<g id="a_node32"><a xlink:href="include__helpers_8h.html" target="_top" xlink:title=" ">
<polygon fill="white" stroke="black" points="662.88,-392.5 662.88,-411.5 764.88,-411.5 764.88,-392.5 662.88,-392.5"/>
<text text-anchor="middle" x="713.88" y="-399.5" font-family="Helvetica,sans-Serif" font-size="10.00">include_helpers.h</text>
</a>
</g>
</g>
<!-- Node2&#45;&gt;Node32 -->
<g id="edge37" class="edge">
<title>Node2&#45;&gt;Node32</title>
<path fill="none" stroke="midnightblue" d="M679.78,-504.37C685.78,-486.54 699.65,-445.3 707.73,-421.27"/>
<polygon fill="midnightblue" stroke="midnightblue" points="711.12,-422.19 710.99,-411.59 704.48,-419.95 711.12,-422.19"/>
</g>
<!-- Node43 -->
<g id="node43" class="node">
<title>Node43</title>
<g id="a_node43"><a xlink:href="GraphPrior_8h.html" target="_top" xlink:title=" ">
<polygon fill="white" stroke="black" points="599.38,-448.5 599.38,-467.5 676.38,-467.5 676.38,-448.5 599.38,-448.5"/>
<text text-anchor="middle" x="637.88" y="-455.5" font-family="Helvetica,sans-Serif" font-size="10.00">GraphPrior.h</text>
</a>
</g>
</g>
<!-- Node2&#45;&gt;Node43 -->
<g id="edge58" class="edge">
<title>Node2&#45;&gt;Node43</title>
<path fill="none" stroke="midnightblue" d="M670.44,-504.08C664.93,-496.46 656.85,-485.26 650.11,-475.94"/>
<polygon fill="midnightblue" stroke="midnightblue" points="652.89,-473.81 644.2,-467.75 647.22,-477.91 652.89,-473.81"/>
</g>
<!-- Node4 -->
<g id="node4" class="node">
<title>Node4</title>
<g id="a_node4"><a xlink:title=" ">
<polygon fill="white" stroke="#bfbfbf" points="62.88,-0.5 62.88,-19.5 122.88,-19.5 122.88,-0.5 62.88,-0.5"/>
<text text-anchor="middle" x="92.88" y="-7.5" font-family="Helvetica,sans-Serif" font-size="10.00">iostream</text>
</a>
</g>
</g>
<!-- Node3&#45;&gt;Node4 -->
<g id="edge3" class="edge">
<title>Node3&#45;&gt;Node4</title>
<path fill="none" stroke="midnightblue" d="M747.15,-57.04C744.02,-56.66 740.91,-56.31 737.88,-56 472.74,-28.93 400.68,-57.75 133.03,-19.91"/>
<polygon fill="midnightblue" stroke="midnightblue" points="133.41,-16.43 123.02,-18.48 132.42,-23.36 133.41,-16.43"/>
</g>
<!-- Node5 -->
<g id="node5" class="node">
<title>Node5</title>
<g id="a_node5"><a xlink:title=" ">
<polygon fill="white" stroke="#bfbfbf" points="140.88,-0.5 140.88,-19.5 190.88,-19.5 190.88,-0.5 140.88,-0.5"/>
<text text-anchor="middle" x="165.88" y="-7.5" font-family="Helvetica,sans-Serif" font-size="10.00">stdio.h</text>
</a>
</g>
</g>
<!-- Node3&#45;&gt;Node5 -->
<g id="edge4" class="edge">
<title>Node3&#45;&gt;Node5</title>
<path fill="none" stroke="midnightblue" d="M747.15,-57.06C744.01,-56.68 740.91,-56.32 737.88,-56 502.82,-31.11 438.12,-58.08 200.97,-19.86"/>
<polygon fill="midnightblue" stroke="midnightblue" points="201.45,-16.39 191.01,-18.23 200.32,-23.3 201.45,-16.39"/>
</g>
<!-- Node6 -->
<g id="node6" class="node">
<title>Node6</title>
<g id="a_node6"><a xlink:title=" ">
<polygon fill="white" stroke="#bfbfbf" points="208.88,-0.5 208.88,-19.5 252.88,-19.5 252.88,-0.5 208.88,-0.5"/>
<text text-anchor="middle" x="230.88" y="-7.5" font-family="Helvetica,sans-Serif" font-size="10.00">string</text>
</a>
</g>
</g>
<!-- Node3&#45;&gt;Node6 -->
<g id="edge5" class="edge">
<title>Node3&#45;&gt;Node6</title>
<path fill="none" stroke="midnightblue" d="M747.14,-57.09C744.01,-56.7 740.91,-56.33 737.88,-56 530.29,-33.11 472.45,-57.01 263.18,-19.86"/>
<polygon fill="midnightblue" stroke="midnightblue" points="263.56,-16.38 253.1,-18.05 262.32,-23.27 263.56,-16.38"/>
</g>
<!-- Node7 -->
<g id="node7" class="node">
<title>Node7</title>
<g id="a_node7"><a xlink:title=" ">
<polygon fill="white" stroke="#bfbfbf" points="271.38,-0.5 271.38,-19.5 318.38,-19.5 318.38,-0.5 271.38,-0.5"/>
<text text-anchor="middle" x="294.88" y="-7.5" font-family="Helvetica,sans-Serif" font-size="10.00">vector</text>
</a>
</g>
</g>
<!-- Node3&#45;&gt;Node7 -->
<g id="edge6" class="edge">
<title>Node3&#45;&gt;Node7</title>
<path fill="none" stroke="midnightblue" d="M747.14,-57.14C744.01,-56.73 740.9,-56.35 737.88,-56 559.38,-35.22 509.68,-51.6 328.41,-19.76"/>
<polygon fill="midnightblue" stroke="midnightblue" points="329.01,-16.31 318.56,-18 327.79,-23.2 329.01,-16.31"/>
</g>
<!-- Node8 -->
<g id="node8" class="node">
<title>Node8</title>
<g id="a_node8"><a xlink:title=" ">
<polygon fill="white" stroke="#bfbfbf" points="336.88,-0.5 336.88,-19.5 374.88,-19.5 374.88,-0.5 336.88,-0.5"/>
<text text-anchor="middle" x="355.88" y="-7.5" font-family="Helvetica,sans-Serif" font-size="10.00">map</text>
</a>
</g>
</g>
<!-- Node3&#45;&gt;Node8 -->
<g id="edge7" class="edge">
<title>Node3&#45;&gt;Node8</title>
<path fill="none" stroke="midnightblue" d="M747.13,-57.19C744,-56.77 740.9,-56.37 737.88,-56 584.14,-37.03 540.46,-51.74 384.93,-19.8"/>
<polygon fill="midnightblue" stroke="midnightblue" points="385.52,-16.35 375.02,-17.74 384.09,-23.2 385.52,-16.35"/>
</g>
<!-- Node9 -->
<g id="node9" class="node">
<title>Node9</title>
<g id="a_node9"><a xlink:title=" ">
<polygon fill="white" stroke="#bfbfbf" points="392.88,-0.5 392.88,-19.5 424.88,-19.5 424.88,-0.5 392.88,-0.5"/>
<text text-anchor="middle" x="408.88" y="-7.5" font-family="Helvetica,sans-Serif" font-size="10.00">set</text>
</a>
</g>
</g>
<!-- Node3&#45;&gt;Node9 -->
<g id="edge8" class="edge">
<title>Node3&#45;&gt;Node9</title>
<path fill="none" stroke="midnightblue" d="M747.13,-57.25C744,-56.82 740.9,-56.4 737.88,-56 606.15,-38.64 568.07,-50.65 434.88,-19.75"/>
<polygon fill="midnightblue" stroke="midnightblue" points="435.66,-16.34 425.12,-17.45 434.05,-23.15 435.66,-16.34"/>
</g>
<!-- Node10 -->
<g id="node10" class="node">
<title>Node10</title>
<g id="a_node10"><a xlink:title=" ">
<polygon fill="white" stroke="#bfbfbf" points="443.38,-0.5 443.38,-19.5 490.38,-19.5 490.38,-0.5 443.38,-0.5"/>
<text text-anchor="middle" x="466.88" y="-7.5" font-family="Helvetica,sans-Serif" font-size="10.00">cmath</text>
</a>
</g>
</g>
<!-- Node3&#45;&gt;Node10 -->
<g id="edge9" class="edge">
<title>Node3&#45;&gt;Node10</title>
<path fill="none" stroke="midnightblue" d="M747.21,-57.26C672.64,-46.29 541.54,-26.91 500.65,-19.73"/>
<polygon fill="midnightblue" stroke="midnightblue" points="501.07,-16.25 490.59,-17.82 499.76,-23.13 501.07,-16.25"/>
</g>
<!-- Node11 -->
<g id="node11" class="node">
<title>Node11</title>
<g id="a_node11"><a xlink:title=" ">
<polygon fill="white" stroke="#bfbfbf" points="508.88,-0.5 508.88,-19.5 562.88,-19.5 562.88,-0.5 508.88,-0.5"/>
<text text-anchor="middle" x="535.88" y="-7.5" font-family="Helvetica,sans-Serif" font-size="10.00">random</text>
</a>
</g>
</g>
<!-- Node3&#45;&gt;Node11 -->
<g id="edge10" class="edge">
<title>Node3&#45;&gt;Node11</title>
<path fill="none" stroke="midnightblue" d="M753.01,-56.46C708.98,-48.28 641.03,-35.24 573.01,-20.17"/>
<polygon fill="midnightblue" stroke="midnightblue" points="573.49,-16.69 562.97,-17.93 571.97,-23.52 573.49,-16.69"/>
</g>
<!-- Node12 -->
<g id="node12" class="node">
<title>Node12</title>
<g id="a_node12"><a xlink:title=" ">
<polygon fill="white" stroke="#bfbfbf" points="580.88,-0.5 580.88,-19.5 630.88,-19.5 630.88,-0.5 580.88,-0.5"/>
<text text-anchor="middle" x="605.88" y="-7.5" font-family="Helvetica,sans-Serif" font-size="10.00">chrono</text>
</a>
</g>
</g>
<!-- Node3&#45;&gt;Node12 -->
<g id="edge11" class="edge">
<title>Node3&#45;&gt;Node12</title>
<path fill="none" stroke="midnightblue" d="M769.14,-56.44C734.18,-46.71 677.22,-30.86 640.66,-20.68"/>
<polygon fill="midnightblue" stroke="midnightblue" points="641.49,-17.28 630.92,-17.97 639.62,-24.02 641.49,-17.28"/>
</g>
<!-- Node13 -->
<g id="node13" class="node">
<title>Node13</title>
<g id="a_node13"><a xlink:title=" ">
<polygon fill="white" stroke="#bfbfbf" points="648.88,-0.5 648.88,-19.5 712.88,-19.5 712.88,-0.5 648.88,-0.5"/>
<text text-anchor="middle" x="680.88" y="-7.5" font-family="Helvetica,sans-Serif" font-size="10.00">algorithm</text>
</a>
</g>
</g>
<!-- Node3&#45;&gt;Node13 -->
<g id="edge12" class="edge">
<title>Node3&#45;&gt;Node13</title>
<path fill="none" stroke="midnightblue" d="M781.02,-56.44C761.61,-47.64 731.15,-33.81 708.91,-23.72"/>
<polygon fill="midnightblue" stroke="midnightblue" points="710.2,-20.46 699.65,-19.52 707.31,-26.84 710.2,-20.46"/>
</g>
<!-- Node14 -->
<g id="node14" class="node">
<title>Node14</title>
<g id="a_node14"><a xlink:title=" ">
<polygon fill="white" stroke="#bfbfbf" points="730.88,-0.5 730.88,-19.5 788.88,-19.5 788.88,-0.5 730.88,-0.5"/>
<text text-anchor="middle" x="759.88" y="-7.5" font-family="Helvetica,sans-Serif" font-size="10.00">memory</text>
</a>
</g>
</g>
<!-- Node3&#45;&gt;Node14 -->
<g id="edge13" class="edge">
<title>Node3&#45;&gt;Node14</title>
<path fill="none" stroke="midnightblue" d="M793.27,-56.08C787.62,-48.46 779.33,-37.26 772.43,-27.94"/>
<polygon fill="midnightblue" stroke="midnightblue" points="775.13,-25.7 766.36,-19.75 769.5,-29.87 775.13,-25.7"/>
</g>
<!-- Node15 -->
<g id="node15" class="node">
<title>Node15</title>
<g id="a_node15"><a xlink:title=" ">
<polygon fill="white" stroke="#bfbfbf" points="807.38,-0.5 807.38,-19.5 872.38,-19.5 872.38,-0.5 807.38,-0.5"/>
<text text-anchor="middle" x="839.88" y="-7.5" font-family="Helvetica,sans-Serif" font-size="10.00">exception</text>
</a>
</g>
</g>
<!-- Node3&#45;&gt;Node15 -->
<g id="edge14" class="edge">
<title>Node3&#45;&gt;Node15</title>
<path fill="none" stroke="midnightblue" d="M806.48,-56.08C812.13,-48.46 820.42,-37.26 827.33,-27.94"/>
<polygon fill="midnightblue" stroke="midnightblue" points="830.26,-29.87 833.4,-19.75 824.63,-25.7 830.26,-29.87"/>
</g>
<!-- Node16 -->
<g id="node16" class="node">
<title>Node16</title>
<g id="a_node16"><a xlink:title=" ">
<polygon fill="white" stroke="#bfbfbf" points="890.88,-0.5 890.88,-19.5 946.88,-19.5 946.88,-0.5 890.88,-0.5"/>
<text text-anchor="middle" x="918.88" y="-7.5" font-family="Helvetica,sans-Serif" font-size="10.00">numeric</text>
</a>
</g>
</g>
<!-- Node3&#45;&gt;Node16 -->
<g id="edge15" class="edge">
<title>Node3&#45;&gt;Node16</title>
<path fill="none" stroke="midnightblue" d="M818.73,-56.44C838.14,-47.64 868.61,-33.81 890.84,-23.72"/>
<polygon fill="midnightblue" stroke="midnightblue" points="892.45,-26.84 900.11,-19.52 889.56,-20.46 892.45,-26.84"/>
</g>
<!-- Node17 -->
<g id="node17" class="node">
<title>Node17</title>
<g id="a_node17"><a xlink:title=" ">
<polygon fill="white" stroke="#bfbfbf" points="965.38,-0.5 965.38,-19.5 1018.38,-19.5 1018.38,-0.5 965.38,-0.5"/>
<text text-anchor="middle" x="991.88" y="-7.5" font-family="Helvetica,sans-Serif" font-size="10.00">iterator</text>
</a>
</g>
</g>
<!-- Node3&#45;&gt;Node17 -->
<g id="edge16" class="edge">
<title>Node3&#45;&gt;Node17</title>
<path fill="none" stroke="midnightblue" d="M830.3,-56.44C864.32,-46.87 919.39,-31.39 955.62,-21.2"/>
<polygon fill="midnightblue" stroke="midnightblue" points="956.63,-24.55 965.31,-18.47 954.73,-17.81 956.63,-24.55"/>
</g>
<!-- Node18 -->
<g id="node18" class="node">
<title>Node18</title>
<g id="a_node18"><a xlink:title=" ">
<polygon fill="white" stroke="#bfbfbf" points="1036.38,-0.5 1036.38,-19.5 1081.38,-19.5 1081.38,-0.5 1036.38,-0.5"/>
<text text-anchor="middle" x="1058.88" y="-7.5" font-family="Helvetica,sans-Serif" font-size="10.00">utility</text>
</a>
</g>
</g>
<!-- Node3&#45;&gt;Node18 -->
<g id="edge17" class="edge">
<title>Node3&#45;&gt;Node18</title>
<path fill="none" stroke="midnightblue" d="M849.52,-56.5C893.72,-48.64 960.31,-36.08 1026.49,-20.19"/>
<polygon fill="midnightblue" stroke="midnightblue" points="1027.36,-23.58 1036.25,-17.82 1025.71,-16.78 1027.36,-23.58"/>
</g>
<!-- Node19 -->
<g id="node19" class="node">
<title>Node19</title>
<g id="a_node19"><a xlink:title=" ">
<polygon fill="white" stroke="#bfbfbf" points="1099.38,-0.5 1099.38,-19.5 1140.38,-19.5 1140.38,-0.5 1099.38,-0.5"/>
<text text-anchor="middle" x="1119.88" y="-7.5" font-family="Helvetica,sans-Serif" font-size="10.00">tuple</text>
</a>
</g>
</g>
<!-- Node3&#45;&gt;Node19 -->
<g id="edge18" class="edge">
<title>Node3&#45;&gt;Node19</title>
<path fill="none" stroke="midnightblue" d="M852.63,-59.22C909.15,-52.49 1001.59,-39.97 1089.24,-20.12"/>
<polygon fill="midnightblue" stroke="midnightblue" points="1090.11,-23.51 1099.07,-17.86 1088.54,-16.69 1090.11,-23.51"/>
</g>
<!-- Node20 -->
<g id="node20" class="node">
<title>Node20</title>
<g id="a_node20"><a xlink:title=" ">
<polygon fill="white" stroke="#bfbfbf" points="1158.38,-0.5 1158.38,-19.5 1227.38,-19.5 1227.38,-0.5 1158.38,-0.5"/>
<text text-anchor="middle" x="1192.88" y="-7.5" font-family="Helvetica,sans-Serif" font-size="10.00">type_traits</text>
</a>
</g>
</g>
<!-- Node3&#45;&gt;Node20 -->
<g id="edge19" class="edge">
<title>Node3&#45;&gt;Node20</title>
<path fill="none" stroke="midnightblue" d="M852.55,-59.53C919.19,-52.32 1037.71,-38.54 1148.21,-20.18"/>
<polygon fill="midnightblue" stroke="midnightblue" points="1148.91,-23.61 1158.19,-18.5 1147.75,-16.71 1148.91,-23.61"/>
</g>
<!-- Node21 -->
<g id="node21" class="node">
<title>Node21</title>
<g id="a_node21"><a xlink:title=" ">
<polygon fill="white" stroke="#bfbfbf" points="1245.38,-0.5 1245.38,-19.5 1310.38,-19.5 1310.38,-0.5 1245.38,-0.5"/>
<text text-anchor="middle" x="1277.88" y="-7.5" font-family="Helvetica,sans-Serif" font-size="10.00">functional</text>
</a>
</g>
</g>
<!-- Node3&#45;&gt;Node21 -->
<g id="edge20" class="edge">
<title>Node3&#45;&gt;Node21</title>
<path fill="none" stroke="midnightblue" d="M852.6,-61.51C933.13,-55.76 1091.74,-42.75 1235.39,-20.09"/>
<polygon fill="midnightblue" stroke="midnightblue" points="1235.95,-23.54 1245.27,-18.51 1234.84,-16.63 1235.95,-23.54"/>
</g>
<!-- Node22 -->
<g id="node22" class="node">
<title>Node22</title>
<g id="a_node22"><a xlink:title=" ">
<polygon fill="white" stroke="#bfbfbf" points="1328.38,-0.5 1328.38,-19.5 1405.38,-19.5 1405.38,-0.5 1328.38,-0.5"/>
<text text-anchor="middle" x="1366.88" y="-7.5" font-family="Helvetica,sans-Serif" font-size="10.00">Eigen/Dense</text>
</a>
</g>
</g>
<!-- Node3&#45;&gt;Node22 -->
<g id="edge21" class="edge">
<title>Node3&#45;&gt;Node22</title>
<path fill="none" stroke="midnightblue" d="M852.48,-62.24C944.83,-57.01 1142.29,-44.07 1318.25,-20.1"/>
<polygon fill="midnightblue" stroke="midnightblue" points="1318.77,-23.56 1328.2,-18.73 1317.82,-16.63 1318.77,-23.56"/>
</g>
<!-- Node23 -->
<g id="node23" class="node">
<title>Node23</title>
<g id="a_node23"><a xlink:title=" ">
<polygon fill="white" stroke="#bfbfbf" points="1423.38,-0.5 1423.38,-19.5 1514.38,-19.5 1514.38,-0.5 1423.38,-0.5"/>
<text text-anchor="middle" x="1468.88" y="-7.5" font-family="Helvetica,sans-Serif" font-size="10.00">Eigen/Cholesky</text>
</a>
</g>
</g>
<!-- Node3&#45;&gt;Node23 -->
<g id="edge22" class="edge">
<title>Node3&#45;&gt;Node23</title>
<path fill="none" stroke="midnightblue" d="M852.69,-62.78C957.6,-58.01 1199.87,-45.21 1413.12,-20.11"/>
<polygon fill="midnightblue" stroke="midnightblue" points="1413.74,-23.56 1423.26,-18.91 1412.91,-16.61 1413.74,-23.56"/>
</g>
<!-- Node24 -->
<g id="node24" class="node">
<title>Node24</title>
<g id="a_node24"><a xlink:title=" ">
<polygon fill="white" stroke="#bfbfbf" points="1532.88,-0.5 1532.88,-19.5 1612.88,-19.5 1612.88,-0.5 1532.88,-0.5"/>
<text text-anchor="middle" x="1572.88" y="-7.5" font-family="Helvetica,sans-Serif" font-size="10.00">Eigen/Sparse</text>
</a>
</g>
</g>
<!-- Node3&#45;&gt;Node24 -->
<g id="edge23" class="edge">
<title>Node3&#45;&gt;Node24</title>
<path fill="none" stroke="midnightblue" d="M852.77,-63.88C971.03,-60.9 1265.96,-50.89 1522.56,-20.01"/>
<polygon fill="midnightblue" stroke="midnightblue" points="1523.32,-23.44 1532.83,-18.76 1522.48,-16.49 1523.32,-23.44"/>
</g>
<!-- Node25 -->
<g id="node25" class="node">
<title>Node25</title>
<g id="a_node25"><a xlink:title=" ">
<polygon fill="white" stroke="#bfbfbf" points="1631.38,-0.5 1631.38,-19.5 1678.38,-19.5 1678.38,-0.5 1631.38,-0.5"/>
<text text-anchor="middle" x="1654.88" y="-7.5" font-family="Helvetica,sans-Serif" font-size="10.00">omp.h</text>
</a>
</g>
</g>
<!-- Node3&#45;&gt;Node25 -->
<g id="edge24" class="edge">
<title>Node3&#45;&gt;Node25</title>
<path fill="none" stroke="midnightblue" d="M852.51,-63.57C1006.27,-59.19 1453.9,-44.74 1621.09,-19.68"/>
<polygon fill="midnightblue" stroke="midnightblue" points="1621.88,-23.1 1631.22,-18.1 1620.8,-16.19 1621.88,-23.1"/>
</g>
<!-- Node27 -->
<g id="node27" class="node">
<title>Node27</title>
<g id="a_node27"><a xlink:href="Groups_8h.html" target="_top" xlink:title=" ">
<polygon fill="white" stroke="black" points="673.88,-112.5 673.88,-131.5 733.88,-131.5 733.88,-112.5 673.88,-112.5"/>
<text text-anchor="middle" x="703.88" y="-119.5" font-family="Helvetica,sans-Serif" font-size="10.00">Groups.h</text>
</a>
</g>
</g>
<!-- Node26&#45;&gt;Node27 -->
<g id="edge26" class="edge">
<title>Node26&#45;&gt;Node27</title>
<path fill="none" stroke="midnightblue" d="M700.37,-224.47C683.89,-217.48 663.74,-205.79 653.88,-188 643.44,-169.17 662.79,-149.9 680.37,-137.28"/>
<polygon fill="midnightblue" stroke="midnightblue" points="682.39,-140.15 688.72,-131.65 678.47,-134.34 682.39,-140.15"/>
</g>
<!-- Node29 -->
<g id="node29" class="node">
<title>Node29</title>
<g id="a_node29"><a xlink:href="BlockGraph_8h.html" target="_top" xlink:title=" ">
<polygon fill="white" stroke="black" points="662.88,-168.5 662.88,-187.5 744.88,-187.5 744.88,-168.5 662.88,-168.5"/>
<text text-anchor="middle" x="703.88" y="-175.5" font-family="Helvetica,sans-Serif" font-size="10.00">BlockGraph.h</text>
</a>
</g>
</g>
<!-- Node26&#45;&gt;Node29 -->
<g id="edge29" class="edge">
<title>Node26&#45;&gt;Node29</title>
<path fill="none" stroke="midnightblue" d="M722.25,-224.08C719.27,-216.77 714.95,-206.18 711.25,-197.1"/>
<polygon fill="midnightblue" stroke="midnightblue" points="714.46,-195.69 707.44,-187.75 707.98,-198.33 714.46,-195.69"/>
</g>
<!-- Node30 -->
<g id="node30" class="node">
<title>Node30</title>
<g id="a_node30"><a xlink:href="GraphType_8h.html" target="_top" xlink:title=" ">
<polygon fill="white" stroke="black" points="829.38,-112.5 829.38,-131.5 906.38,-131.5 906.38,-112.5 829.38,-112.5"/>
<text text-anchor="middle" x="867.88" y="-119.5" font-family="Helvetica,sans-Serif" font-size="10.00">GraphType.h</text>
</a>
</g>
</g>
<!-- Node26&#45;&gt;Node30 -->
<g id="edge32" class="edge">
<title>Node26&#45;&gt;Node30</title>
<path fill="none" stroke="midnightblue" d="M775.73,-224.83C815.13,-217.23 865.49,-204.59 877.88,-188 887.99,-174.46 883.06,-154.84 877.11,-140.7"/>
<polygon fill="midnightblue" stroke="midnightblue" points="880.22,-139.09 872.79,-131.54 873.89,-142.08 880.22,-139.09"/>
</g>
<!-- Node31 -->
<g id="node31" class="node">
<title>Node31</title>
<g id="a_node31"><a xlink:href="BlockGraphCRTP_8h.html" target="_top" xlink:title=" ">
<polygon fill="white" stroke="black" points="763.38,-168.5 763.38,-187.5 868.38,-187.5 868.38,-168.5 763.38,-168.5"/>
<text text-anchor="middle" x="815.88" y="-175.5" font-family="Helvetica,sans-Serif" font-size="10.00">BlockGraphCRTP.h</text>
</a>
</g>
</g>
<!-- Node26&#45;&gt;Node31 -->
<g id="edge34" class="edge">
<title>Node26&#45;&gt;Node31</title>
<path fill="none" stroke="midnightblue" d="M735.22,-224.32C747.67,-215.74 769.49,-202.49 787.4,-192.52"/>
<polygon fill="midnightblue" stroke="midnightblue" points="789.23,-195.51 796.34,-187.65 785.89,-189.36 789.23,-195.51"/>
</g>
<!-- Node27&#45;&gt;Node3 -->
<g id="edge28" class="edge">
<title>Node27&#45;&gt;Node3</title>
<path fill="none" stroke="midnightblue" d="M719.3,-112.32C734.42,-103.82 757.69,-90.73 775.35,-80.8"/>
<polygon fill="midnightblue" stroke="midnightblue" points="777.49,-83.61 784.49,-75.65 774.06,-77.51 777.49,-83.61"/>
</g>
<!-- Node28 -->
<g id="node28" class="node">
<title>Node28</title>
<g id="a_node28"><a xlink:title=" ">
<polygon fill="white" stroke="#bfbfbf" points="678.88,-56.5 678.88,-75.5 728.88,-75.5 728.88,-56.5 678.88,-56.5"/>
<text text-anchor="middle" x="703.88" y="-63.5" font-family="Helvetica,sans-Serif" font-size="10.00">Rcpp.h</text>
</a>
</g>
</g>
<!-- Node27&#45;&gt;Node28 -->
<g id="edge27" class="edge">
<title>Node27&#45;&gt;Node28</title>
<path fill="none" stroke="midnightblue" d="M703.88,-112.08C703.88,-105.01 703.88,-94.86 703.88,-85.99"/>
<polygon fill="midnightblue" stroke="midnightblue" points="707.38,-85.75 703.88,-75.75 700.38,-85.75 707.38,-85.75"/>
</g>
<!-- Node29&#45;&gt;Node3 -->
<g id="edge30" class="edge">
<title>Node29&#45;&gt;Node3</title>
<path fill="none" stroke="midnightblue" d="M711.41,-168.37C727.39,-150.05 764.93,-107.05 785.6,-83.36"/>
<polygon fill="midnightblue" stroke="midnightblue" points="788.44,-85.43 792.38,-75.59 783.17,-80.82 788.44,-85.43"/>
</g>
<!-- Node29&#45;&gt;Node27 -->
<g id="edge31" class="edge">
<title>Node29&#45;&gt;Node27</title>
<path fill="none" stroke="midnightblue" d="M703.88,-168.08C703.88,-161.01 703.88,-150.86 703.88,-141.99"/>
<polygon fill="midnightblue" stroke="midnightblue" points="707.38,-141.75 703.88,-131.75 700.38,-141.75 707.38,-141.75"/>
</g>
<!-- Node30&#45;&gt;Node3 -->
<g id="edge33" class="edge">
<title>Node30&#45;&gt;Node3</title>
<path fill="none" stroke="midnightblue" d="M856.95,-112.32C846.7,-104.18 831.16,-91.84 818.88,-82.09"/>
<polygon fill="midnightblue" stroke="midnightblue" points="821.01,-79.31 811,-75.83 816.66,-84.79 821.01,-79.31"/>
</g>
<!-- Node31&#45;&gt;Node3 -->
<g id="edge35" class="edge">
<title>Node31&#45;&gt;Node3</title>
<path fill="none" stroke="midnightblue" d="M814.62,-168.37C812.04,-150.62 806.08,-109.67 802.58,-85.6"/>
<polygon fill="midnightblue" stroke="midnightblue" points="806.03,-84.98 801.13,-75.59 799.1,-85.99 806.03,-84.98"/>
</g>
<!-- Node31&#45;&gt;Node26 -->
<g id="edge36" class="edge">
<title>Node31&#45;&gt;Node26</title>
<path fill="none" stroke="midnightblue" d="M806.56,-187.65C794.14,-196.23 772.32,-209.48 754.4,-219.45"/>
<polygon fill="midnightblue" stroke="midnightblue" points="752.56,-216.47 745.45,-224.32 755.91,-222.62 752.56,-216.47"/>
</g>
<!-- Node33 -->
<g id="node33" class="node">
<title>Node33</title>
<g id="a_node33"><a xlink:href="utils_8h.html" target="_top" xlink:title=" ">
<polygon fill="white" stroke="black" points="739.38,-280.5 739.38,-299.5 786.38,-299.5 786.38,-280.5 739.38,-280.5"/>
<text text-anchor="middle" x="762.88" y="-287.5" font-family="Helvetica,sans-Serif" font-size="10.00">utils.h</text>
</a>
</g>
</g>
<!-- Node32&#45;&gt;Node33 -->
<g id="edge38" class="edge">
<title>Node32&#45;&gt;Node33</title>
<path fill="none" stroke="midnightblue" d="M720.95,-392.18C727.65,-383.44 737.61,-369.45 743.88,-356 750.86,-341.01 755.91,-322.88 759.04,-309.58"/>
<polygon fill="midnightblue" stroke="midnightblue" points="762.48,-310.23 761.21,-299.71 755.64,-308.72 762.48,-310.23"/>
</g>
<!-- Node34 -->
<g id="node34" class="node">
<title>Node34</title>
<g id="a_node34"><a xlink:href="GSLwrappers_8h.html" target="_top" xlink:title=" ">
<polygon fill="white" stroke="black" points="333.38,-224.5 333.38,-243.5 422.38,-243.5 422.38,-224.5 333.38,-224.5"/>
<text text-anchor="middle" x="377.88" y="-231.5" font-family="Helvetica,sans-Serif" font-size="10.00">GSLwrappers.h</text>
</a>
</g>
</g>
<!-- Node32&#45;&gt;Node34 -->
<g id="edge57" class="edge">
<title>Node32&#45;&gt;Node34</title>
<path fill="none" stroke="midnightblue" d="M696.29,-392.31C641.06,-365.02 470.88,-280.95 404.65,-248.22"/>
<polygon fill="midnightblue" stroke="midnightblue" points="405.81,-244.9 395.3,-243.61 402.71,-251.17 405.81,-244.9"/>
</g>
<!-- Node41 -->
<g id="node41" class="node">
<title>Node41</title>
<g id="a_node41"><a xlink:href="GWishart_8h.html" target="_top" xlink:title=" ">
<polygon fill="white" stroke="black" points="663.38,-336.5 663.38,-355.5 734.38,-355.5 734.38,-336.5 663.38,-336.5"/>
<text text-anchor="middle" x="698.88" y="-343.5" font-family="Helvetica,sans-Serif" font-size="10.00">GWishart.h</text>
</a>
</g>
</g>
<!-- Node32&#45;&gt;Node41 -->
<g id="edge49" class="edge">
<title>Node32&#45;&gt;Node41</title>
<path fill="none" stroke="midnightblue" d="M711.4,-392.08C709.39,-384.85 706.49,-374.41 703.99,-365.4"/>
<polygon fill="midnightblue" stroke="midnightblue" points="707.36,-364.45 701.31,-355.75 700.61,-366.32 707.36,-364.45"/>
</g>
<!-- Node42 -->
<g id="node42" class="node">
<title>Node42</title>
<g id="a_node42"><a xlink:href="Precision_8h.html" target="_top" xlink:title=" ">
<polygon fill="white" stroke="black" points="790.88,-336.5 790.88,-355.5 860.88,-355.5 860.88,-336.5 790.88,-336.5"/>
<text text-anchor="middle" x="825.88" y="-343.5" font-family="Helvetica,sans-Serif" font-size="10.00">Precision.h</text>
</a>
</g>
</g>
<!-- Node32&#45;&gt;Node42 -->
<g id="edge53" class="edge">
<title>Node32&#45;&gt;Node42</title>
<path fill="none" stroke="midnightblue" d="M731.87,-392.32C749.92,-383.62 777.93,-370.12 798.68,-360.11"/>
<polygon fill="midnightblue" stroke="midnightblue" points="800.44,-363.15 807.93,-355.65 797.4,-356.84 800.44,-363.15"/>
</g>
<!-- Node33&#45;&gt;Node3 -->
<g id="edge39" class="edge">
<title>Node33&#45;&gt;Node3</title>
<path fill="none" stroke="midnightblue" d="M773.23,-280.41C788.49,-267.8 818.04,-243.64 843.88,-224 865.68,-207.43 877.08,-209.62 893.88,-188 910.29,-166.88 910.9,-158.27 915.88,-132 917.53,-123.27 920.9,-119.33 915.88,-112 903.5,-93.92 882.72,-83.1 862.14,-76.63"/>
<polygon fill="midnightblue" stroke="midnightblue" points="862.98,-73.23 852.41,-73.87 861.07,-79.97 862.98,-73.23"/>
</g>
<!-- Node33&#45;&gt;Node26 -->
<g id="edge40" class="edge">
<title>Node33&#45;&gt;Node26</title>
<path fill="none" stroke="midnightblue" d="M756.77,-280.08C751.6,-272.53 744.03,-261.49 737.68,-252.23"/>
<polygon fill="midnightblue" stroke="midnightblue" points="740.41,-250.02 731.87,-243.75 734.64,-253.98 740.41,-250.02"/>
</g>
<!-- Node33&#45;&gt;Node34 -->
<g id="edge41" class="edge">
<title>Node33&#45;&gt;Node34</title>
<path fill="none" stroke="midnightblue" d="M739.37,-285.7C679.13,-277.25 517.96,-254.65 432.63,-242.68"/>
<polygon fill="midnightblue" stroke="midnightblue" points="433,-239.2 422.61,-241.27 432.02,-246.13 433,-239.2"/>
</g>
<!-- Node40 -->
<g id="node40" class="node">
<title>Node40</title>
<g id="a_node40"><a xlink:title=" ">
<polygon fill="white" stroke="#bfbfbf" points="852.88,-224.5 852.88,-243.5 944.88,-243.5 944.88,-224.5 852.88,-224.5"/>
<text text-anchor="middle" x="898.88" y="-231.5" font-family="Helvetica,sans-Serif" font-size="10.00">gsl/gsl_sf_log.h</text>
</a>
</g>
</g>
<!-- Node33&#45;&gt;Node40 -->
<g id="edge48" class="edge">
<title>Node33&#45;&gt;Node40</title>
<path fill="none" stroke="midnightblue" d="M784.43,-280.44C806.91,-271.52 842.37,-257.44 867.86,-247.32"/>
<polygon fill="midnightblue" stroke="midnightblue" points="869.43,-250.46 877.43,-243.52 866.84,-243.95 869.43,-250.46"/>
</g>
<!-- Node34&#45;&gt;Node3 -->
<g id="edge42" class="edge">
<title>Node34&#45;&gt;Node3</title>
<path fill="none" stroke="midnightblue" d="M422.59,-229.84C457.67,-225.34 506.07,-214.42 539.88,-188 570.46,-164.1 551.52,-134.87 582.88,-112 595.39,-102.88 677.93,-87.44 737.51,-77.23"/>
<polygon fill="midnightblue" stroke="midnightblue" points="738.33,-80.64 747.6,-75.52 737.16,-73.74 738.33,-80.64"/>
</g>
<!-- Node35 -->
<g id="node35" class="node">
<title>Node35</title>
<g id="a_node35"><a xlink:title=" ">
<polygon fill="white" stroke="#bfbfbf" points="338.88,-168.5 338.88,-187.5 416.88,-187.5 416.88,-168.5 338.88,-168.5"/>
<text text-anchor="middle" x="377.88" y="-175.5" font-family="Helvetica,sans-Serif" font-size="10.00">gsl/gsl_rng.h</text>
</a>
</g>
</g>
<!-- Node34&#45;&gt;Node35 -->
<g id="edge43" class="edge">
<title>Node34&#45;&gt;Node35</title>
<path fill="none" stroke="midnightblue" d="M377.88,-224.08C377.88,-217.01 377.88,-206.86 377.88,-197.99"/>
<polygon fill="midnightblue" stroke="midnightblue" points="381.38,-197.75 377.88,-187.75 374.38,-197.75 381.38,-197.75"/>
</g>
<!-- Node36 -->
<g id="node36" class="node">
<title>Node36</title>
<g id="a_node36"><a xlink:title=" ">
<polygon fill="white" stroke="#bfbfbf" points="434.88,-168.5 434.88,-187.5 530.88,-187.5 530.88,-168.5 434.88,-168.5"/>
<text text-anchor="middle" x="482.88" y="-175.5" font-family="Helvetica,sans-Serif" font-size="10.00">gsl/gsl_randist.h</text>
</a>
</g>
</g>
<!-- Node34&#45;&gt;Node36 -->
<g id="edge44" class="edge">
<title>Node34&#45;&gt;Node36</title>
<path fill="none" stroke="midnightblue" d="M394.75,-224.32C411.59,-215.66 437.69,-202.24 457.12,-192.25"/>
<polygon fill="midnightblue" stroke="midnightblue" points="458.76,-195.34 466.05,-187.65 455.56,-189.12 458.76,-195.34"/>
</g>
<!-- Node37 -->
<g id="node37" class="node">
<title>Node37</title>
<g id="a_node37"><a xlink:title=" ">
<polygon fill="white" stroke="#bfbfbf" points="19.38,-168.5 19.38,-187.5 96.38,-187.5 96.38,-168.5 19.38,-168.5"/>
<text text-anchor="middle" x="57.88" y="-175.5" font-family="Helvetica,sans-Serif" font-size="10.00">gsl/gsl_cdf.h</text>
</a>
</g>
</g>
<!-- Node34&#45;&gt;Node37 -->
<g id="edge45" class="edge">
<title>Node34&#45;&gt;Node37</title>
<path fill="none" stroke="midnightblue" d="M333.07,-225.89C281.11,-217.57 192.65,-203.21 106.58,-188.09"/>
<polygon fill="midnightblue" stroke="midnightblue" points="107.09,-184.63 96.64,-186.34 105.88,-191.52 107.09,-184.63"/>
</g>
<!-- Node38 -->
<g id="node38" class="node">
<title>Node38</title>
<g id="a_node38"><a xlink:title=" ">
<polygon fill="white" stroke="#bfbfbf" points="114.88,-168.5 114.88,-187.5 212.88,-187.5 212.88,-168.5 114.88,-168.5"/>
<text text-anchor="middle" x="163.88" y="-175.5" font-family="Helvetica,sans-Serif" font-size="10.00">gsl/gsl_bspline.h</text>
</a>
</g>
</g>
<!-- Node34&#45;&gt;Node38 -->
<g id="edge46" class="edge">
<title>Node34&#45;&gt;Node38</title>
<path fill="none" stroke="midnightblue" d="M343.97,-224.44C307.03,-215.12 247.83,-200.18 207.46,-190"/>
<polygon fill="midnightblue" stroke="midnightblue" points="208.18,-186.57 197.63,-187.52 206.47,-193.36 208.18,-186.57"/>
</g>
<!-- Node39 -->
<g id="node39" class="node">
<title>Node39</title>
<g id="a_node39"><a xlink:title=" ">
<polygon fill="white" stroke="#bfbfbf" points="231.38,-168.5 231.38,-187.5 320.38,-187.5 320.38,-168.5 231.38,-168.5"/>
<text text-anchor="middle" x="275.88" y="-175.5" font-family="Helvetica,sans-Serif" font-size="10.00">gsl/gsl_linalg.h</text>
</a>
</g>
</g>
<!-- Node34&#45;&gt;Node39 -->
<g id="edge47" class="edge">
<title>Node34&#45;&gt;Node39</title>
<path fill="none" stroke="midnightblue" d="M361.49,-224.32C345.21,-215.7 320.01,-202.36 301.16,-192.39"/>
<polygon fill="midnightblue" stroke="midnightblue" points="302.7,-189.24 292.23,-187.65 299.43,-195.43 302.7,-189.24"/>
</g>
<!-- Node41&#45;&gt;Node3 -->
<g id="edge50" class="edge">
<title>Node41&#45;&gt;Node3</title>
<path fill="none" stroke="midnightblue" d="M681.58,-336.45C652.47,-320.72 596.88,-284.22 596.88,-235 596.88,-235 596.88,-235 596.88,-177 596.88,-135.19 629.07,-133.58 664.88,-112 690.96,-96.28 723.22,-85.27 749.66,-78.07"/>
<polygon fill="midnightblue" stroke="midnightblue" points="750.7,-81.42 759.49,-75.5 748.93,-74.65 750.7,-81.42"/>
</g>
<!-- Node41&#45;&gt;Node26 -->
<g id="edge51" class="edge">
<title>Node41&#45;&gt;Node26</title>
<path fill="none" stroke="midnightblue" d="M701,-336.37C705.35,-318.62 715.41,-277.67 721.31,-253.6"/>
<polygon fill="midnightblue" stroke="midnightblue" points="724.79,-254.14 723.77,-243.59 717.99,-252.47 724.79,-254.14"/>
</g>
<!-- Node41&#45;&gt;Node33 -->
<g id="edge52" class="edge">
<title>Node41&#45;&gt;Node33</title>
<path fill="none" stroke="midnightblue" d="M709.16,-336.32C718.71,-328.26 733.16,-316.08 744.66,-306.37"/>
<polygon fill="midnightblue" stroke="midnightblue" points="747.02,-308.96 752.41,-299.83 742.51,-303.61 747.02,-308.96"/>
</g>
<!-- Node42&#45;&gt;Node3 -->
<g id="edge54" class="edge">
<title>Node42&#45;&gt;Node3</title>
<path fill="none" stroke="midnightblue" d="M858.5,-336.39C901.81,-322.75 972.88,-291.74 972.88,-235 972.88,-235 972.88,-235 972.88,-177 972.88,-120.44 906.22,-91.72 855.66,-78.06"/>
<polygon fill="midnightblue" stroke="midnightblue" points="856.34,-74.62 845.79,-75.53 854.6,-81.4 856.34,-74.62"/>
</g>
<!-- Node42&#45;&gt;Node26 -->
<g id="edge55" class="edge">
<title>Node42&#45;&gt;Node26</title>
<path fill="none" stroke="midnightblue" d="M823.53,-336.12C819.62,-322.72 810.72,-297.07 795.88,-280 784.4,-266.8 768.12,-256.03 754.15,-248.33"/>
<polygon fill="midnightblue" stroke="midnightblue" points="755.42,-245.04 744.94,-243.5 752.17,-251.24 755.42,-245.04"/>
</g>
<!-- Node42&#45;&gt;Node33 -->
<g id="edge56" class="edge">
<title>Node42&#45;&gt;Node33</title>
<path fill="none" stroke="midnightblue" d="M815.76,-336.32C806.35,-328.26 792.13,-316.08 780.81,-306.37"/>
<polygon fill="midnightblue" stroke="midnightblue" points="783.06,-303.68 773.18,-299.83 778.5,-309 783.06,-303.68"/>
</g>
<!-- Node43&#45;&gt;Node3 -->
<g id="edge59" class="edge">
<title>Node43&#45;&gt;Node3</title>
<path fill="none" stroke="midnightblue" d="M603.41,-448.47C459.95,-412.2 -78.32,-268.04 9.88,-168 115.66,-48.01 558.96,-96.01 737.05,-75.97"/>
<polygon fill="midnightblue" stroke="midnightblue" points="737.63,-79.43 747.12,-74.73 736.77,-72.48 737.63,-79.43"/>
</g>
<!-- Node43&#45;&gt;Node26 -->
<g id="edge60" class="edge">
<title>Node43&#45;&gt;Node26</title>
<path fill="none" stroke="midnightblue" d="M637.73,-448.44C637.65,-428.15 639.14,-375.85 654.88,-336 667.99,-302.81 694.08,-270.07 710.72,-251.23"/>
<polygon fill="midnightblue" stroke="midnightblue" points="713.51,-253.37 717.62,-243.6 708.32,-248.67 713.51,-253.37"/>
</g>
<!-- Node43&#45;&gt;Node32 -->
<g id="edge61" class="edge">
<title>Node43&#45;&gt;Node32</title>
<path fill="none" stroke="midnightblue" d="M650.09,-448.32C661.65,-440.11 679.25,-427.6 693.04,-417.81"/>
<polygon fill="midnightblue" stroke="midnightblue" points="695.32,-420.48 701.45,-411.83 691.27,-414.77 695.32,-420.48"/>
</g>
</g>
</svg>
        <g id="navigator" transform="translate(0 0)" fill="#404254">
                <rect fill="#f2f5e9" fill-opacity="0.5" stroke="#606060" stroke-width=".5" x="0" y="0" width="60" height="60"/>
                <use id="zoomplus" xlink:href="#zoomPlus" x="17" y="9" onmousedown="handleZoom(evt,'in')"/>
                <use id="zoomminus" xlink:href="#zoomMin" x="42" y="9" onmousedown="handleZoom(evt,'out')"/>
                <use id="reset" xlink:href="#resetDef" x="30" y="36" onmousedown="handleReset()"/>
                <g id="arrowUp" xlink:href="#dirArrow" transform="translate(30 24)" onmousedown="handlePan(0,-1)">
                  <use xlink:href="#rim" fill="#404040">
                        <set attributeName="fill" to="#808080" begin="arrowUp.mouseover" end="arrowUp.mouseout"/>
                  </use>
                  <path fill="none" stroke="white" stroke-width="1.5" d="M0,-3.0v7 M-2.5,-0.5L0,-3.0L2.5,-0.5"/>
                </g>
                <g id="arrowRight" xlink:href="#dirArrow" transform="rotate(90) translate(36 -43)" onmousedown="handlePan(1,0)">
                  <use xlink:href="#rim" fill="#404040">
                        <set attributeName="fill" to="#808080" begin="arrowRight.mouseover" end="arrowRight.mouseout"/>
                  </use>
                  <path fill="none" stroke="white" stroke-width="1.5" d="M0,-3.0v7 M-2.5,-0.5L0,-3.0L2.5,-0.5"/>
                </g>
                <g id="arrowDown" xlink:href="#dirArrow" transform="rotate(180) translate(-30 -48)" onmousedown="handlePan(0,1)">
                  <use xlink:href="#rim" fill="#404040">
                        <set attributeName="fill" to="#808080" begin="arrowDown.mouseover" end="arrowDown.mouseout"/>
                  </use>
                  <path fill="none" stroke="white" stroke-width="1.5" d="M0,-3.0v7 M-2.5,-0.5L0,-3.0L2.5,-0.5"/>
                </g>
                <g id="arrowLeft" xlink:href="#dirArrow" transform="rotate(270) translate(-36 17)" onmousedown="handlePan(-1,0)">
                  <use xlink:href="#rim" fill="#404040">
                        <set attributeName="fill" to="#808080" begin="arrowLeft.mouseover" end="arrowLeft.mouseout"/>
                  </use>
                  <path fill="none" stroke="white" stroke-width="1.5" d="M0,-3.0v7 M-2.5,-0.5L0,-3.0L2.5,-0.5"/>
                </g>
        </g>
        <svg viewBox="0 0 15 15" width="100%" height="30px" preserveAspectRatio="xMaxYMin meet">
         <g id="arrow_out" transform="scale(0.3 0.3)">
          <a xlink:href="DRJMH_8h__incl_org.svg" target="_base">
           <rect id="button" ry="5" rx="5" y="6" x="6" height="38" width="38"
                fill="#f2f5e9" fill-opacity="0.5" stroke="#606060" stroke-width="1.0"/>
           <path id="arrow"
             d="M 11.500037,31.436501 C 11.940474,20.09759 22.043105,11.32322 32.158766,21.979434 L 37.068811,17.246167 C 37.068811,17.246167 37.088388,32 37.088388,32 L 22.160133,31.978069 C 22.160133,31.978069 26.997745,27.140456 26.997745,27.140456 C 18.528582,18.264221 13.291696,25.230495 11.500037,31.436501 z"
             style="fill:#404040;"/>
          </a>
         </g>
        </svg>
</svg>
