<?xml version="1.0" encoding="UTF-8" standalone="no"?>
<!DOCTYPE svg PUBLIC "-//W3C//DTD SVG 1.1//EN"
 "http://www.w3.org/Graphics/SVG/1.1/DTD/svg11.dtd">
<!-- Generated by graphviz version 2.43.0 (0)
 -->
<!-- Title: FLMSamplerOptions.h Pages: 1 -->
<svg width="1646pt" height="476pt"
 viewBox="0.00 0.00 1645.50 476.00" xmlns="http://www.w3.org/2000/svg" xmlns:xlink="http://www.w3.org/1999/xlink">
<g id="graph0" class="graph" transform="scale(1 1) rotate(0) translate(4 472)">
<title>FLMSamplerOptions.h</title>
<polygon fill="white" stroke="transparent" points="-4,4 -4,-472 1641.5,-472 1641.5,4 -4,4"/>
<!-- Node1 -->
<g id="node1" class="node">
<title>Node1</title>
<g id="a_node1"><a xlink:title=" ">
<polygon fill="#bfbfbf" stroke="black" points="784,-448.5 784,-467.5 908,-467.5 908,-448.5 784,-448.5"/>
<text text-anchor="middle" x="846" y="-455.5" font-family="Helvetica,sans-Serif" font-size="10.00">FLMSamplerOptions.h</text>
</a>
</g>
</g>
<!-- Node2 -->
<g id="node2" class="node">
<title>Node2</title>
<g id="a_node2"><a xlink:href="include__headers_8h.html" target="_top" xlink:title=" ">
<polygon fill="white" stroke="black" points="706.5,-56.5 706.5,-75.5 811.5,-75.5 811.5,-56.5 706.5,-56.5"/>
<text text-anchor="middle" x="759" y="-63.5" font-family="Helvetica,sans-Serif" font-size="10.00">include_headers.h</text>
</a>
</g>
</g>
<!-- Node1&#45;&gt;Node2 -->
<g id="edge1" class="edge">
<title>Node1&#45;&gt;Node2</title>
<path fill="none" stroke="midnightblue" d="M783.79,-455.45C588.42,-449.76 0,-426.05 0,-347 0,-347 0,-347 0,-177 0,-117.9 59.38,-128.92 116,-112 223.35,-79.93 556.16,-70.5 696.05,-67.91"/>
<polygon fill="midnightblue" stroke="midnightblue" points="696.25,-71.41 706.18,-67.73 696.12,-64.41 696.25,-71.41"/>
</g>
<!-- Node25 -->
<g id="node25" class="node">
<title>Node25</title>
<g id="a_node25"><a xlink:href="include__helpers_8h.html" target="_top" xlink:title=" ">
<polygon fill="white" stroke="black" points="692,-392.5 692,-411.5 794,-411.5 794,-392.5 692,-392.5"/>
<text text-anchor="middle" x="743" y="-399.5" font-family="Helvetica,sans-Serif" font-size="10.00">include_helpers.h</text>
</a>
</g>
</g>
<!-- Node1&#45;&gt;Node25 -->
<g id="edge24" class="edge">
<title>Node1&#45;&gt;Node25</title>
<path fill="none" stroke="midnightblue" d="M829.45,-448.32C813.01,-439.7 787.57,-426.36 768.53,-416.39"/>
<polygon fill="midnightblue" stroke="midnightblue" points="769.99,-413.2 759.51,-411.65 766.74,-419.4 769.99,-413.2"/>
</g>
<!-- Node27 -->
<g id="node27" class="node">
<title>Node27</title>
<g id="a_node27"><a xlink:href="include__graphs_8h.html" target="_top" xlink:title=" ">
<polygon fill="white" stroke="black" points="782.5,-224.5 782.5,-243.5 881.5,-243.5 881.5,-224.5 782.5,-224.5"/>
<text text-anchor="middle" x="832" y="-231.5" font-family="Helvetica,sans-Serif" font-size="10.00">include_graphs.h</text>
</a>
</g>
</g>
<!-- Node1&#45;&gt;Node27 -->
<g id="edge56" class="edge">
<title>Node1&#45;&gt;Node27</title>
<path fill="none" stroke="midnightblue" d="M850.95,-448.25C861.55,-428.39 884.83,-378.38 876,-336 869.55,-305.07 853.1,-272 842.25,-252.43"/>
<polygon fill="midnightblue" stroke="midnightblue" points="845.15,-250.46 837.16,-243.51 839.07,-253.93 845.15,-250.46"/>
</g>
<!-- Node42 -->
<g id="node42" class="node">
<title>Node42</title>
<g id="a_node42"><a xlink:href="ProgressBar_8h.html" target="_top" xlink:title=" ">
<polygon fill="white" stroke="black" points="978.5,-280.5 978.5,-299.5 1061.5,-299.5 1061.5,-280.5 978.5,-280.5"/>
<text text-anchor="middle" x="1020" y="-287.5" font-family="Helvetica,sans-Serif" font-size="10.00">ProgressBar.h</text>
</a>
</g>
</g>
<!-- Node1&#45;&gt;Node42 -->
<g id="edge57" class="edge">
<title>Node1&#45;&gt;Node42</title>
<path fill="none" stroke="midnightblue" d="M891.04,-448.48C915.13,-441.95 943.88,-430.77 964,-412 994.36,-383.67 1009.67,-335.64 1016.11,-309.42"/>
<polygon fill="midnightblue" stroke="midnightblue" points="1019.53,-310.17 1018.35,-299.64 1012.71,-308.61 1019.53,-310.17"/>
</g>
<!-- Node3 -->
<g id="node3" class="node">
<title>Node3</title>
<g id="a_node3"><a xlink:title=" ">
<polygon fill="white" stroke="#bfbfbf" points="22,-0.5 22,-19.5 82,-19.5 82,-0.5 22,-0.5"/>
<text text-anchor="middle" x="52" y="-7.5" font-family="Helvetica,sans-Serif" font-size="10.00">iostream</text>
</a>
</g>
</g>
<!-- Node2&#45;&gt;Node3 -->
<g id="edge2" class="edge">
<title>Node2&#45;&gt;Node3</title>
<path fill="none" stroke="midnightblue" d="M706.3,-64.3C594.67,-62.21 326.12,-53.91 92.2,-19.94"/>
<polygon fill="midnightblue" stroke="midnightblue" points="92.55,-16.45 82.14,-18.46 91.53,-23.38 92.55,-16.45"/>
</g>
<!-- Node4 -->
<g id="node4" class="node">
<title>Node4</title>
<g id="a_node4"><a xlink:title=" ">
<polygon fill="white" stroke="#bfbfbf" points="100,-0.5 100,-19.5 150,-19.5 150,-0.5 100,-0.5"/>
<text text-anchor="middle" x="125" y="-7.5" font-family="Helvetica,sans-Serif" font-size="10.00">stdio.h</text>
</a>
</g>
</g>
<!-- Node2&#45;&gt;Node4 -->
<g id="edge3" class="edge">
<title>Node2&#45;&gt;Node4</title>
<path fill="none" stroke="midnightblue" d="M706.44,-64.3C603.3,-62.22 367.12,-54.01 160.28,-19.9"/>
<polygon fill="midnightblue" stroke="midnightblue" points="160.58,-16.4 150.14,-18.21 159.42,-23.31 160.58,-16.4"/>
</g>
<!-- Node5 -->
<g id="node5" class="node">
<title>Node5</title>
<g id="a_node5"><a xlink:title=" ">
<polygon fill="white" stroke="#bfbfbf" points="168,-0.5 168,-19.5 212,-19.5 212,-0.5 168,-0.5"/>
<text text-anchor="middle" x="190" y="-7.5" font-family="Helvetica,sans-Serif" font-size="10.00">string</text>
</a>
</g>
</g>
<!-- Node2&#45;&gt;Node5 -->
<g id="edge4" class="edge">
<title>Node2&#45;&gt;Node5</title>
<path fill="none" stroke="midnightblue" d="M706.23,-64.06C611.07,-61.61 404.44,-52.86 222.25,-19.87"/>
<polygon fill="midnightblue" stroke="midnightblue" points="222.69,-16.39 212.22,-18.03 221.43,-23.28 222.69,-16.39"/>
</g>
<!-- Node6 -->
<g id="node6" class="node">
<title>Node6</title>
<g id="a_node6"><a xlink:title=" ">
<polygon fill="white" stroke="#bfbfbf" points="230.5,-0.5 230.5,-19.5 277.5,-19.5 277.5,-0.5 230.5,-0.5"/>
<text text-anchor="middle" x="254" y="-7.5" font-family="Helvetica,sans-Serif" font-size="10.00">vector</text>
</a>
</g>
</g>
<!-- Node2&#45;&gt;Node6 -->
<g id="edge5" class="edge">
<title>Node2&#45;&gt;Node6</title>
<path fill="none" stroke="midnightblue" d="M706.21,-62.92C620.33,-58.88 445,-47.97 287.55,-19.77"/>
<polygon fill="midnightblue" stroke="midnightblue" points="288.15,-16.33 277.68,-17.98 286.89,-23.21 288.15,-16.33"/>
</g>
<!-- Node7 -->
<g id="node7" class="node">
<title>Node7</title>
<g id="a_node7"><a xlink:title=" ">
<polygon fill="white" stroke="#bfbfbf" points="296,-0.5 296,-19.5 334,-19.5 334,-0.5 296,-0.5"/>
<text text-anchor="middle" x="315" y="-7.5" font-family="Helvetica,sans-Serif" font-size="10.00">map</text>
</a>
</g>
</g>
<!-- Node2&#45;&gt;Node7 -->
<g id="edge6" class="edge">
<title>Node2&#45;&gt;Node7</title>
<path fill="none" stroke="midnightblue" d="M706.25,-62.73C628.68,-58.64 479.31,-47.91 344.25,-19.86"/>
<polygon fill="midnightblue" stroke="midnightblue" points="344.65,-16.36 334.14,-17.72 343.2,-23.21 344.65,-16.36"/>
</g>
<!-- Node8 -->
<g id="node8" class="node">
<title>Node8</title>
<g id="a_node8"><a xlink:title=" ">
<polygon fill="white" stroke="#bfbfbf" points="352,-0.5 352,-19.5 384,-19.5 384,-0.5 352,-0.5"/>
<text text-anchor="middle" x="368" y="-7.5" font-family="Helvetica,sans-Serif" font-size="10.00">set</text>
</a>
</g>
</g>
<!-- Node2&#45;&gt;Node8 -->
<g id="edge7" class="edge">
<title>Node2&#45;&gt;Node8</title>
<path fill="none" stroke="midnightblue" d="M706.22,-62.22C636.46,-57.72 509.77,-46.74 393.99,-19.75"/>
<polygon fill="midnightblue" stroke="midnightblue" points="394.79,-16.35 384.25,-17.44 393.17,-23.16 394.79,-16.35"/>
</g>
<!-- Node9 -->
<g id="node9" class="node">
<title>Node9</title>
<g id="a_node9"><a xlink:title=" ">
<polygon fill="white" stroke="#bfbfbf" points="402.5,-0.5 402.5,-19.5 449.5,-19.5 449.5,-0.5 402.5,-0.5"/>
<text text-anchor="middle" x="426" y="-7.5" font-family="Helvetica,sans-Serif" font-size="10.00">cmath</text>
</a>
</g>
</g>
<!-- Node2&#45;&gt;Node9 -->
<g id="edge8" class="edge">
<title>Node2&#45;&gt;Node9</title>
<path fill="none" stroke="midnightblue" d="M706.37,-59C648.32,-51.97 552.01,-39.05 459.78,-19.94"/>
<polygon fill="midnightblue" stroke="midnightblue" points="460.22,-16.45 449.71,-17.82 458.78,-23.31 460.22,-16.45"/>
</g>
<!-- Node10 -->
<g id="node10" class="node">
<title>Node10</title>
<g id="a_node10"><a xlink:title=" ">
<polygon fill="white" stroke="#bfbfbf" points="468,-0.5 468,-19.5 522,-19.5 522,-0.5 468,-0.5"/>
<text text-anchor="middle" x="495" y="-7.5" font-family="Helvetica,sans-Serif" font-size="10.00">random</text>
</a>
</g>
</g>
<!-- Node2&#45;&gt;Node10 -->
<g id="edge9" class="edge">
<title>Node2&#45;&gt;Node10</title>
<path fill="none" stroke="midnightblue" d="M712.13,-56.46C668.1,-48.28 600.15,-35.24 532.13,-20.17"/>
<polygon fill="midnightblue" stroke="midnightblue" points="532.61,-16.69 522.09,-17.93 531.09,-23.52 532.61,-16.69"/>
</g>
<!-- Node11 -->
<g id="node11" class="node">
<title>Node11</title>
<g id="a_node11"><a xlink:title=" ">
<polygon fill="white" stroke="#bfbfbf" points="540,-0.5 540,-19.5 590,-19.5 590,-0.5 540,-0.5"/>
<text text-anchor="middle" x="565" y="-7.5" font-family="Helvetica,sans-Serif" font-size="10.00">chrono</text>
</a>
</g>
</g>
<!-- Node2&#45;&gt;Node11 -->
<g id="edge10" class="edge">
<title>Node2&#45;&gt;Node11</title>
<path fill="none" stroke="midnightblue" d="M728.26,-56.44C693.3,-46.71 636.34,-30.86 599.78,-20.68"/>
<polygon fill="midnightblue" stroke="midnightblue" points="600.62,-17.28 590.04,-17.97 598.74,-24.02 600.62,-17.28"/>
</g>
<!-- Node12 -->
<g id="node12" class="node">
<title>Node12</title>
<g id="a_node12"><a xlink:title=" ">
<polygon fill="white" stroke="#bfbfbf" points="608,-0.5 608,-19.5 672,-19.5 672,-0.5 608,-0.5"/>
<text text-anchor="middle" x="640" y="-7.5" font-family="Helvetica,sans-Serif" font-size="10.00">algorithm</text>
</a>
</g>
</g>
<!-- Node2&#45;&gt;Node12 -->
<g id="edge11" class="edge">
<title>Node2&#45;&gt;Node12</title>
<path fill="none" stroke="midnightblue" d="M740.14,-56.44C720.73,-47.64 690.27,-33.81 668.04,-23.72"/>
<polygon fill="midnightblue" stroke="midnightblue" points="669.32,-20.46 658.77,-19.52 666.43,-26.84 669.32,-20.46"/>
</g>
<!-- Node13 -->
<g id="node13" class="node">
<title>Node13</title>
<g id="a_node13"><a xlink:title=" ">
<polygon fill="white" stroke="#bfbfbf" points="690,-0.5 690,-19.5 748,-19.5 748,-0.5 690,-0.5"/>
<text text-anchor="middle" x="719" y="-7.5" font-family="Helvetica,sans-Serif" font-size="10.00">memory</text>
</a>
</g>
</g>
<!-- Node2&#45;&gt;Node13 -->
<g id="edge12" class="edge">
<title>Node2&#45;&gt;Node13</title>
<path fill="none" stroke="midnightblue" d="M752.39,-56.08C746.74,-48.46 738.46,-37.26 731.55,-27.94"/>
<polygon fill="midnightblue" stroke="midnightblue" points="734.25,-25.7 725.48,-19.75 728.62,-29.87 734.25,-25.7"/>
</g>
<!-- Node14 -->
<g id="node14" class="node">
<title>Node14</title>
<g id="a_node14"><a xlink:title=" ">
<polygon fill="white" stroke="#bfbfbf" points="766.5,-0.5 766.5,-19.5 831.5,-19.5 831.5,-0.5 766.5,-0.5"/>
<text text-anchor="middle" x="799" y="-7.5" font-family="Helvetica,sans-Serif" font-size="10.00">exception</text>
</a>
</g>
</g>
<!-- Node2&#45;&gt;Node14 -->
<g id="edge13" class="edge">
<title>Node2&#45;&gt;Node14</title>
<path fill="none" stroke="midnightblue" d="M765.61,-56.08C771.26,-48.46 779.54,-37.26 786.45,-27.94"/>
<polygon fill="midnightblue" stroke="midnightblue" points="789.38,-29.87 792.52,-19.75 783.75,-25.7 789.38,-29.87"/>
</g>
<!-- Node15 -->
<g id="node15" class="node">
<title>Node15</title>
<g id="a_node15"><a xlink:title=" ">
<polygon fill="white" stroke="#bfbfbf" points="850,-0.5 850,-19.5 906,-19.5 906,-0.5 850,-0.5"/>
<text text-anchor="middle" x="878" y="-7.5" font-family="Helvetica,sans-Serif" font-size="10.00">numeric</text>
</a>
</g>
</g>
<!-- Node2&#45;&gt;Node15 -->
<g id="edge14" class="edge">
<title>Node2&#45;&gt;Node15</title>
<path fill="none" stroke="midnightblue" d="M777.86,-56.44C797.27,-47.64 827.73,-33.81 849.96,-23.72"/>
<polygon fill="midnightblue" stroke="midnightblue" points="851.57,-26.84 859.23,-19.52 848.68,-20.46 851.57,-26.84"/>
</g>
<!-- Node16 -->
<g id="node16" class="node">
<title>Node16</title>
<g id="a_node16"><a xlink:title=" ">
<polygon fill="white" stroke="#bfbfbf" points="924.5,-0.5 924.5,-19.5 977.5,-19.5 977.5,-0.5 924.5,-0.5"/>
<text text-anchor="middle" x="951" y="-7.5" font-family="Helvetica,sans-Serif" font-size="10.00">iterator</text>
</a>
</g>
</g>
<!-- Node2&#45;&gt;Node16 -->
<g id="edge15" class="edge">
<title>Node2&#45;&gt;Node16</title>
<path fill="none" stroke="midnightblue" d="M789.42,-56.44C823.44,-46.87 878.51,-31.39 914.74,-21.2"/>
<polygon fill="midnightblue" stroke="midnightblue" points="915.75,-24.55 924.43,-18.47 913.86,-17.81 915.75,-24.55"/>
</g>
<!-- Node17 -->
<g id="node17" class="node">
<title>Node17</title>
<g id="a_node17"><a xlink:title=" ">
<polygon fill="white" stroke="#bfbfbf" points="995.5,-0.5 995.5,-19.5 1040.5,-19.5 1040.5,-0.5 995.5,-0.5"/>
<text text-anchor="middle" x="1018" y="-7.5" font-family="Helvetica,sans-Serif" font-size="10.00">utility</text>
</a>
</g>
</g>
<!-- Node2&#45;&gt;Node17 -->
<g id="edge16" class="edge">
<title>Node2&#45;&gt;Node17</title>
<path fill="none" stroke="midnightblue" d="M807.95,-56.44C851.92,-48.5 918.45,-35.85 985.45,-19.98"/>
<polygon fill="midnightblue" stroke="midnightblue" points="986.42,-23.34 995.33,-17.61 984.79,-16.53 986.42,-23.34"/>
</g>
<!-- Node18 -->
<g id="node18" class="node">
<title>Node18</title>
<g id="a_node18"><a xlink:title=" ">
<polygon fill="white" stroke="#bfbfbf" points="1058.5,-0.5 1058.5,-19.5 1099.5,-19.5 1099.5,-0.5 1058.5,-0.5"/>
<text text-anchor="middle" x="1079" y="-7.5" font-family="Helvetica,sans-Serif" font-size="10.00">tuple</text>
</a>
</g>
</g>
<!-- Node2&#45;&gt;Node18 -->
<g id="edge17" class="edge">
<title>Node2&#45;&gt;Node18</title>
<path fill="none" stroke="midnightblue" d="M811.53,-59.05C867.83,-52.19 959.93,-39.55 1048.5,-19.82"/>
<polygon fill="midnightblue" stroke="midnightblue" points="1049.46,-23.19 1058.44,-17.57 1047.92,-16.37 1049.46,-23.19"/>
</g>
<!-- Node19 -->
<g id="node19" class="node">
<title>Node19</title>
<g id="a_node19"><a xlink:title=" ">
<polygon fill="white" stroke="#bfbfbf" points="1117.5,-0.5 1117.5,-19.5 1186.5,-19.5 1186.5,-0.5 1117.5,-0.5"/>
<text text-anchor="middle" x="1152" y="-7.5" font-family="Helvetica,sans-Serif" font-size="10.00">type_traits</text>
</a>
</g>
</g>
<!-- Node2&#45;&gt;Node19 -->
<g id="edge18" class="edge">
<title>Node2&#45;&gt;Node19</title>
<path fill="none" stroke="midnightblue" d="M811.5,-59.45C877.95,-52.15 996.11,-38.28 1107.4,-19.98"/>
<polygon fill="midnightblue" stroke="midnightblue" points="1108.17,-23.41 1117.46,-18.32 1107.02,-16.5 1108.17,-23.41"/>
</g>
<!-- Node20 -->
<g id="node20" class="node">
<title>Node20</title>
<g id="a_node20"><a xlink:title=" ">
<polygon fill="white" stroke="#bfbfbf" points="1204.5,-0.5 1204.5,-19.5 1269.5,-19.5 1269.5,-0.5 1204.5,-0.5"/>
<text text-anchor="middle" x="1237" y="-7.5" font-family="Helvetica,sans-Serif" font-size="10.00">functional</text>
</a>
</g>
</g>
<!-- Node2&#45;&gt;Node20 -->
<g id="edge19" class="edge">
<title>Node2&#45;&gt;Node20</title>
<path fill="none" stroke="midnightblue" d="M811.72,-61.51C892.25,-55.76 1050.87,-42.75 1194.51,-20.09"/>
<polygon fill="midnightblue" stroke="midnightblue" points="1195.07,-23.54 1204.39,-18.51 1193.96,-16.63 1195.07,-23.54"/>
</g>
<!-- Node21 -->
<g id="node21" class="node">
<title>Node21</title>
<g id="a_node21"><a xlink:title=" ">
<polygon fill="white" stroke="#bfbfbf" points="1287.5,-0.5 1287.5,-19.5 1364.5,-19.5 1364.5,-0.5 1287.5,-0.5"/>
<text text-anchor="middle" x="1326" y="-7.5" font-family="Helvetica,sans-Serif" font-size="10.00">Eigen/Dense</text>
</a>
</g>
</g>
<!-- Node2&#45;&gt;Node21 -->
<g id="edge20" class="edge">
<title>Node2&#45;&gt;Node21</title>
<path fill="none" stroke="midnightblue" d="M811.58,-61.14C921.36,-52.98 1172.79,-33.68 1277.37,-20.07"/>
<polygon fill="midnightblue" stroke="midnightblue" points="1277.88,-23.54 1287.32,-18.73 1276.95,-16.6 1277.88,-23.54"/>
</g>
<!-- Node22 -->
<g id="node22" class="node">
<title>Node22</title>
<g id="a_node22"><a xlink:title=" ">
<polygon fill="white" stroke="#bfbfbf" points="1382.5,-0.5 1382.5,-19.5 1473.5,-19.5 1473.5,-0.5 1382.5,-0.5"/>
<text text-anchor="middle" x="1428" y="-7.5" font-family="Helvetica,sans-Serif" font-size="10.00">Eigen/Cholesky</text>
</a>
</g>
</g>
<!-- Node2&#45;&gt;Node22 -->
<g id="edge21" class="edge">
<title>Node2&#45;&gt;Node22</title>
<path fill="none" stroke="midnightblue" d="M811.55,-61.19C947.87,-51.29 1306.4,-25.24 1372.33,-19.81"/>
<polygon fill="midnightblue" stroke="midnightblue" points="1372.73,-23.29 1382.38,-18.91 1372.1,-16.32 1372.73,-23.29"/>
</g>
<!-- Node23 -->
<g id="node23" class="node">
<title>Node23</title>
<g id="a_node23"><a xlink:title=" ">
<polygon fill="white" stroke="#bfbfbf" points="1492,-0.5 1492,-19.5 1572,-19.5 1572,-0.5 1492,-0.5"/>
<text text-anchor="middle" x="1532" y="-7.5" font-family="Helvetica,sans-Serif" font-size="10.00">Eigen/Sparse</text>
</a>
</g>
</g>
<!-- Node2&#45;&gt;Node23 -->
<g id="edge22" class="edge">
<title>Node2&#45;&gt;Node23</title>
<path fill="none" stroke="midnightblue" d="M811.79,-61.02C833.8,-59.4 859.63,-57.55 883,-56 1146.31,-38.55 1216.1,-51.86 1482,-19.97"/>
<polygon fill="midnightblue" stroke="midnightblue" points="1482.44,-23.44 1491.95,-18.77 1481.6,-16.49 1482.44,-23.44"/>
</g>
<!-- Node24 -->
<g id="node24" class="node">
<title>Node24</title>
<g id="a_node24"><a xlink:title=" ">
<polygon fill="white" stroke="#bfbfbf" points="1590.5,-0.5 1590.5,-19.5 1637.5,-19.5 1637.5,-0.5 1590.5,-0.5"/>
<text text-anchor="middle" x="1614" y="-7.5" font-family="Helvetica,sans-Serif" font-size="10.00">omp.h</text>
</a>
</g>
</g>
<!-- Node2&#45;&gt;Node24 -->
<g id="edge23" class="edge">
<title>Node2&#45;&gt;Node24</title>
<path fill="none" stroke="midnightblue" d="M811.78,-60.92C833.79,-59.29 859.63,-57.45 883,-56 1189.71,-36.96 1272.51,-68.46 1580.24,-19.72"/>
<polygon fill="midnightblue" stroke="midnightblue" points="1581.02,-23.14 1590.34,-18.11 1579.91,-16.23 1581.02,-23.14"/>
</g>
<!-- Node26 -->
<g id="node26" class="node">
<title>Node26</title>
<g id="a_node26"><a xlink:href="utils_8h.html" target="_top" xlink:title=" ">
<polygon fill="white" stroke="black" points="694.5,-280.5 694.5,-299.5 741.5,-299.5 741.5,-280.5 694.5,-280.5"/>
<text text-anchor="middle" x="718" y="-287.5" font-family="Helvetica,sans-Serif" font-size="10.00">utils.h</text>
</a>
</g>
</g>
<!-- Node25&#45;&gt;Node26 -->
<g id="edge25" class="edge">
<title>Node25&#45;&gt;Node26</title>
<path fill="none" stroke="midnightblue" d="M729.94,-392.44C719.09,-384.47 704.43,-371.52 698,-356 691.46,-340.2 698.72,-321.47 706.26,-308.19"/>
<polygon fill="midnightblue" stroke="midnightblue" points="709.3,-309.93 711.61,-299.59 703.35,-306.23 709.3,-309.93"/>
</g>
<!-- Node33 -->
<g id="node33" class="node">
<title>Node33</title>
<g id="a_node33"><a xlink:href="GSLwrappers_8h.html" target="_top" xlink:title=" ">
<polygon fill="white" stroke="black" points="323.5,-224.5 323.5,-243.5 412.5,-243.5 412.5,-224.5 323.5,-224.5"/>
<text text-anchor="middle" x="368" y="-231.5" font-family="Helvetica,sans-Serif" font-size="10.00">GSLwrappers.h</text>
</a>
</g>
</g>
<!-- Node25&#45;&gt;Node33 -->
<g id="edge55" class="edge">
<title>Node25&#45;&gt;Node33</title>
<path fill="none" stroke="midnightblue" d="M723.63,-392.42C662.03,-365.16 470.44,-280.35 397.03,-247.85"/>
<polygon fill="midnightblue" stroke="midnightblue" points="398.04,-244.47 387.48,-243.62 395.21,-250.87 398.04,-244.47"/>
</g>
<!-- Node40 -->
<g id="node40" class="node">
<title>Node40</title>
<g id="a_node40"><a xlink:href="GWishart_8h.html" target="_top" xlink:title=" ">
<polygon fill="white" stroke="black" points="707.5,-336.5 707.5,-355.5 778.5,-355.5 778.5,-336.5 707.5,-336.5"/>
<text text-anchor="middle" x="743" y="-343.5" font-family="Helvetica,sans-Serif" font-size="10.00">GWishart.h</text>
</a>
</g>
</g>
<!-- Node25&#45;&gt;Node40 -->
<g id="edge47" class="edge">
<title>Node25&#45;&gt;Node40</title>
<path fill="none" stroke="midnightblue" d="M743,-392.08C743,-385.01 743,-374.86 743,-365.99"/>
<polygon fill="midnightblue" stroke="midnightblue" points="746.5,-365.75 743,-355.75 739.5,-365.75 746.5,-365.75"/>
</g>
<!-- Node41 -->
<g id="node41" class="node">
<title>Node41</title>
<g id="a_node41"><a xlink:href="Precision_8h.html" target="_top" xlink:title=" ">
<polygon fill="white" stroke="black" points="797,-336.5 797,-355.5 867,-355.5 867,-336.5 797,-336.5"/>
<text text-anchor="middle" x="832" y="-343.5" font-family="Helvetica,sans-Serif" font-size="10.00">Precision.h</text>
</a>
</g>
</g>
<!-- Node25&#45;&gt;Node41 -->
<g id="edge51" class="edge">
<title>Node25&#45;&gt;Node41</title>
<path fill="none" stroke="midnightblue" d="M757.3,-392.32C771.18,-383.9 792.49,-370.97 808.8,-361.07"/>
<polygon fill="midnightblue" stroke="midnightblue" points="811,-363.83 817.74,-355.65 807.37,-357.85 811,-363.83"/>
</g>
<!-- Node26&#45;&gt;Node2 -->
<g id="edge26" class="edge">
<title>Node26&#45;&gt;Node2</title>
<path fill="none" stroke="midnightblue" d="M700.8,-280.39C687.75,-272.79 670.77,-260.39 663,-244 648.54,-213.48 650.47,-199.37 663,-168 677.96,-130.55 714.14,-99.04 737.57,-81.62"/>
<polygon fill="midnightblue" stroke="midnightblue" points="739.78,-84.34 745.85,-75.65 735.69,-78.66 739.78,-84.34"/>
</g>
<!-- Node26&#45;&gt;Node27 -->
<g id="edge27" class="edge">
<title>Node26&#45;&gt;Node27</title>
<path fill="none" stroke="midnightblue" d="M736.06,-280.44C754.57,-271.68 783.58,-257.94 804.86,-247.86"/>
<polygon fill="midnightblue" stroke="midnightblue" points="806.48,-250.96 814.02,-243.52 803.49,-244.63 806.48,-250.96"/>
</g>
<!-- Node26&#45;&gt;Node33 -->
<g id="edge39" class="edge">
<title>Node26&#45;&gt;Node33</title>
<path fill="none" stroke="midnightblue" d="M694.49,-285.37C639.34,-276.86 500.44,-255.43 422.75,-243.45"/>
<polygon fill="midnightblue" stroke="midnightblue" points="423.09,-239.96 412.67,-241.89 422.02,-246.88 423.09,-239.96"/>
</g>
<!-- Node39 -->
<g id="node39" class="node">
<title>Node39</title>
<g id="a_node39"><a xlink:title=" ">
<polygon fill="white" stroke="#bfbfbf" points="672,-224.5 672,-243.5 764,-243.5 764,-224.5 672,-224.5"/>
<text text-anchor="middle" x="718" y="-231.5" font-family="Helvetica,sans-Serif" font-size="10.00">gsl/gsl_sf_log.h</text>
</a>
</g>
</g>
<!-- Node26&#45;&gt;Node39 -->
<g id="edge46" class="edge">
<title>Node26&#45;&gt;Node39</title>
<path fill="none" stroke="midnightblue" d="M718,-280.08C718,-273.01 718,-262.86 718,-253.99"/>
<polygon fill="midnightblue" stroke="midnightblue" points="721.5,-253.75 718,-243.75 714.5,-253.75 721.5,-253.75"/>
</g>
<!-- Node28 -->
<g id="node28" class="node">
<title>Node28</title>
<g id="a_node28"><a xlink:href="Groups_8h.html" target="_top" xlink:title=" ">
<polygon fill="white" stroke="black" points="887,-112.5 887,-131.5 947,-131.5 947,-112.5 887,-112.5"/>
<text text-anchor="middle" x="917" y="-119.5" font-family="Helvetica,sans-Serif" font-size="10.00">Groups.h</text>
</a>
</g>
</g>
<!-- Node27&#45;&gt;Node28 -->
<g id="edge28" class="edge">
<title>Node27&#45;&gt;Node28</title>
<path fill="none" stroke="midnightblue" d="M871.25,-224.48C891,-217.99 913.18,-206.84 925,-188 933.76,-174.03 930.03,-155.03 925.14,-141.18"/>
<polygon fill="midnightblue" stroke="midnightblue" points="928.34,-139.74 921.37,-131.76 921.84,-142.34 928.34,-139.74"/>
</g>
<!-- Node30 -->
<g id="node30" class="node">
<title>Node30</title>
<g id="a_node30"><a xlink:href="BlockGraph_8h.html" target="_top" xlink:title=" ">
<polygon fill="white" stroke="black" points="834,-168.5 834,-187.5 916,-187.5 916,-168.5 834,-168.5"/>
<text text-anchor="middle" x="875" y="-175.5" font-family="Helvetica,sans-Serif" font-size="10.00">BlockGraph.h</text>
</a>
</g>
</g>
<!-- Node27&#45;&gt;Node30 -->
<g id="edge31" class="edge">
<title>Node27&#45;&gt;Node30</title>
<path fill="none" stroke="midnightblue" d="M839.1,-224.08C845.24,-216.38 854.27,-205.03 861.74,-195.65"/>
<polygon fill="midnightblue" stroke="midnightblue" points="864.54,-197.75 868.03,-187.75 859.06,-193.39 864.54,-197.75"/>
</g>
<!-- Node31 -->
<g id="node31" class="node">
<title>Node31</title>
<g id="a_node31"><a xlink:href="GraphType_8h.html" target="_top" xlink:title=" ">
<polygon fill="white" stroke="black" points="753.5,-112.5 753.5,-131.5 830.5,-131.5 830.5,-112.5 753.5,-112.5"/>
<text text-anchor="middle" x="792" y="-119.5" font-family="Helvetica,sans-Serif" font-size="10.00">GraphType.h</text>
</a>
</g>
</g>
<!-- Node27&#45;&gt;Node31 -->
<g id="edge34" class="edge">
<title>Node27&#45;&gt;Node31</title>
<path fill="none" stroke="midnightblue" d="M828.86,-224.37C822.38,-206.54 807.38,-165.3 798.64,-141.27"/>
<polygon fill="midnightblue" stroke="midnightblue" points="801.83,-139.79 795.12,-131.59 795.25,-142.19 801.83,-139.79"/>
</g>
<!-- Node32 -->
<g id="node32" class="node">
<title>Node32</title>
<g id="a_node32"><a xlink:href="BlockGraphCRTP_8h.html" target="_top" xlink:title=" ">
<polygon fill="white" stroke="black" points="672.5,-168.5 672.5,-187.5 777.5,-187.5 777.5,-168.5 672.5,-168.5"/>
<text text-anchor="middle" x="725" y="-175.5" font-family="Helvetica,sans-Serif" font-size="10.00">BlockGraphCRTP.h</text>
</a>
</g>
</g>
<!-- Node27&#45;&gt;Node32 -->
<g id="edge36" class="edge">
<title>Node27&#45;&gt;Node32</title>
<path fill="none" stroke="midnightblue" d="M809.96,-224.44C791.01,-215.83 764.17,-202.43 745.64,-192.41"/>
<polygon fill="midnightblue" stroke="midnightblue" points="747.24,-189.29 736.8,-187.52 743.85,-195.42 747.24,-189.29"/>
</g>
<!-- Node28&#45;&gt;Node2 -->
<g id="edge30" class="edge">
<title>Node28&#45;&gt;Node2</title>
<path fill="none" stroke="midnightblue" d="M891.96,-112.44C865.38,-103.36 823.19,-88.94 793.48,-78.78"/>
<polygon fill="midnightblue" stroke="midnightblue" points="794.51,-75.44 783.92,-75.52 792.25,-82.06 794.51,-75.44"/>
</g>
<!-- Node29 -->
<g id="node29" class="node">
<title>Node29</title>
<g id="a_node29"><a xlink:title=" ">
<polygon fill="white" stroke="#bfbfbf" points="892,-56.5 892,-75.5 942,-75.5 942,-56.5 892,-56.5"/>
<text text-anchor="middle" x="917" y="-63.5" font-family="Helvetica,sans-Serif" font-size="10.00">Rcpp.h</text>
</a>
</g>
</g>
<!-- Node28&#45;&gt;Node29 -->
<g id="edge29" class="edge">
<title>Node28&#45;&gt;Node29</title>
<path fill="none" stroke="midnightblue" d="M917,-112.08C917,-105.01 917,-94.86 917,-85.99"/>
<polygon fill="midnightblue" stroke="midnightblue" points="920.5,-85.75 917,-75.75 913.5,-85.75 920.5,-85.75"/>
</g>
<!-- Node30&#45;&gt;Node2 -->
<g id="edge32" class="edge">
<title>Node30&#45;&gt;Node2</title>
<path fill="none" stroke="midnightblue" d="M872.03,-168.46C867.01,-155.05 855.73,-128.84 839,-112 825.42,-98.33 806.82,-87.54 790.98,-79.95"/>
<polygon fill="midnightblue" stroke="midnightblue" points="792.09,-76.61 781.54,-75.64 789.18,-82.98 792.09,-76.61"/>
</g>
<!-- Node30&#45;&gt;Node28 -->
<g id="edge33" class="edge">
<title>Node30&#45;&gt;Node28</title>
<path fill="none" stroke="midnightblue" d="M881.94,-168.08C887.93,-160.38 896.75,-149.03 904.05,-139.65"/>
<polygon fill="midnightblue" stroke="midnightblue" points="906.82,-141.79 910.19,-131.75 901.29,-137.5 906.82,-141.79"/>
</g>
<!-- Node31&#45;&gt;Node2 -->
<g id="edge35" class="edge">
<title>Node31&#45;&gt;Node2</title>
<path fill="none" stroke="midnightblue" d="M786.55,-112.08C781.99,-104.61 775.33,-93.72 769.71,-84.52"/>
<polygon fill="midnightblue" stroke="midnightblue" points="772.55,-82.46 764.35,-75.75 766.58,-86.11 772.55,-82.46"/>
</g>
<!-- Node32&#45;&gt;Node2 -->
<g id="edge37" class="edge">
<title>Node32&#45;&gt;Node2</title>
<path fill="none" stroke="midnightblue" d="M727.48,-168.14C731.01,-155.6 737.75,-131.97 744,-112 746.77,-103.15 750,-93.37 752.76,-85.2"/>
<polygon fill="midnightblue" stroke="midnightblue" points="756.12,-86.19 756.03,-75.6 749.49,-83.94 756.12,-86.19"/>
</g>
<!-- Node32&#45;&gt;Node27 -->
<g id="edge38" class="edge">
<title>Node32&#45;&gt;Node27</title>
<path fill="none" stroke="midnightblue" d="M747.26,-187.65C766.11,-196.23 792.65,-209.48 811.1,-219.45"/>
<polygon fill="midnightblue" stroke="midnightblue" points="809.48,-222.56 819.92,-224.32 812.86,-216.43 809.48,-222.56"/>
</g>
<!-- Node33&#45;&gt;Node2 -->
<g id="edge40" class="edge">
<title>Node33&#45;&gt;Node2</title>
<path fill="none" stroke="midnightblue" d="M323.41,-233.38C245.8,-232.99 90.92,-227.18 57,-188 51.18,-181.28 51.18,-174.72 57,-168 139.56,-72.71 539.28,-65.24 695.89,-66.07"/>
<polygon fill="midnightblue" stroke="midnightblue" points="696.27,-69.57 706.29,-66.14 696.31,-62.57 696.27,-69.57"/>
</g>
<!-- Node34 -->
<g id="node34" class="node">
<title>Node34</title>
<g id="a_node34"><a xlink:title=" ">
<polygon fill="white" stroke="#bfbfbf" points="66,-168.5 66,-187.5 144,-187.5 144,-168.5 66,-168.5"/>
<text text-anchor="middle" x="105" y="-175.5" font-family="Helvetica,sans-Serif" font-size="10.00">gsl/gsl_rng.h</text>
</a>
</g>
</g>
<!-- Node33&#45;&gt;Node34 -->
<g id="edge41" class="edge">
<title>Node33&#45;&gt;Node34</title>
<path fill="none" stroke="midnightblue" d="M326.33,-224.44C279.58,-214.84 203.81,-199.29 154.2,-189.1"/>
<polygon fill="midnightblue" stroke="midnightblue" points="154.83,-185.66 144.33,-187.08 153.42,-192.52 154.83,-185.66"/>
</g>
<!-- Node35 -->
<g id="node35" class="node">
<title>Node35</title>
<g id="a_node35"><a xlink:title=" ">
<polygon fill="white" stroke="#bfbfbf" points="162,-168.5 162,-187.5 258,-187.5 258,-168.5 162,-168.5"/>
<text text-anchor="middle" x="210" y="-175.5" font-family="Helvetica,sans-Serif" font-size="10.00">gsl/gsl_randist.h</text>
</a>
</g>
</g>
<!-- Node33&#45;&gt;Node35 -->
<g id="edge42" class="edge">
<title>Node33&#45;&gt;Node35</title>
<path fill="none" stroke="midnightblue" d="M342.96,-224.44C316.38,-215.36 274.19,-200.94 244.48,-190.78"/>
<polygon fill="midnightblue" stroke="midnightblue" points="245.51,-187.44 234.92,-187.52 243.25,-194.06 245.51,-187.44"/>
</g>
<!-- Node36 -->
<g id="node36" class="node">
<title>Node36</title>
<g id="a_node36"><a xlink:title=" ">
<polygon fill="white" stroke="#bfbfbf" points="276.5,-168.5 276.5,-187.5 353.5,-187.5 353.5,-168.5 276.5,-168.5"/>
<text text-anchor="middle" x="315" y="-175.5" font-family="Helvetica,sans-Serif" font-size="10.00">gsl/gsl_cdf.h</text>
</a>
</g>
</g>
<!-- Node33&#45;&gt;Node36 -->
<g id="edge43" class="edge">
<title>Node33&#45;&gt;Node36</title>
<path fill="none" stroke="midnightblue" d="M359.25,-224.08C351.53,-216.22 340.1,-204.57 330.78,-195.08"/>
<polygon fill="midnightblue" stroke="midnightblue" points="333.09,-192.44 323.59,-187.75 328.1,-197.34 333.09,-192.44"/>
</g>
<!-- Node37 -->
<g id="node37" class="node">
<title>Node37</title>
<g id="a_node37"><a xlink:title=" ">
<polygon fill="white" stroke="#bfbfbf" points="372,-168.5 372,-187.5 470,-187.5 470,-168.5 372,-168.5"/>
<text text-anchor="middle" x="421" y="-175.5" font-family="Helvetica,sans-Serif" font-size="10.00">gsl/gsl_bspline.h</text>
</a>
</g>
</g>
<!-- Node33&#45;&gt;Node37 -->
<g id="edge44" class="edge">
<title>Node33&#45;&gt;Node37</title>
<path fill="none" stroke="midnightblue" d="M376.75,-224.08C384.47,-216.22 395.9,-204.57 405.22,-195.08"/>
<polygon fill="midnightblue" stroke="midnightblue" points="407.9,-197.34 412.41,-187.75 402.91,-192.44 407.9,-197.34"/>
</g>
<!-- Node38 -->
<g id="node38" class="node">
<title>Node38</title>
<g id="a_node38"><a xlink:title=" ">
<polygon fill="white" stroke="#bfbfbf" points="488.5,-168.5 488.5,-187.5 577.5,-187.5 577.5,-168.5 488.5,-168.5"/>
<text text-anchor="middle" x="533" y="-175.5" font-family="Helvetica,sans-Serif" font-size="10.00">gsl/gsl_linalg.h</text>
</a>
</g>
</g>
<!-- Node33&#45;&gt;Node38 -->
<g id="edge45" class="edge">
<title>Node33&#45;&gt;Node38</title>
<path fill="none" stroke="midnightblue" d="M394.14,-224.44C422.02,-215.32 466.35,-200.81 497.4,-190.65"/>
<polygon fill="midnightblue" stroke="midnightblue" points="498.56,-193.95 506.98,-187.52 496.38,-187.3 498.56,-193.95"/>
</g>
<!-- Node40&#45;&gt;Node2 -->
<g id="edge48" class="edge">
<title>Node40&#45;&gt;Node2</title>
<path fill="none" stroke="midnightblue" d="M714.61,-336.42C674.49,-322.34 606,-290.21 606,-235 606,-235 606,-235 606,-177 606,-123.21 669.12,-93.13 714.28,-78.5"/>
<polygon fill="midnightblue" stroke="midnightblue" points="715.38,-81.83 723.9,-75.53 713.31,-75.14 715.38,-81.83"/>
</g>
<!-- Node40&#45;&gt;Node26 -->
<g id="edge50" class="edge">
<title>Node40&#45;&gt;Node26</title>
<path fill="none" stroke="midnightblue" d="M738.87,-336.08C735.49,-328.77 730.58,-318.18 726.38,-309.1"/>
<polygon fill="midnightblue" stroke="midnightblue" points="729.43,-307.36 722.05,-299.75 723.08,-310.3 729.43,-307.36"/>
</g>
<!-- Node40&#45;&gt;Node27 -->
<g id="edge49" class="edge">
<title>Node40&#45;&gt;Node27</title>
<path fill="none" stroke="midnightblue" d="M749.98,-336.37C764.74,-318.14 799.29,-275.43 818.51,-251.68"/>
<polygon fill="midnightblue" stroke="midnightblue" points="821.48,-253.57 825.05,-243.59 816.04,-249.16 821.48,-253.57"/>
</g>
<!-- Node41&#45;&gt;Node2 -->
<g id="edge52" class="edge">
<title>Node41&#45;&gt;Node2</title>
<path fill="none" stroke="midnightblue" d="M843.5,-336.29C884.57,-304.15 1018.28,-190.11 956,-112 939.34,-91.11 872.74,-79.14 821.54,-72.88"/>
<polygon fill="midnightblue" stroke="midnightblue" points="821.87,-69.4 811.53,-71.7 821.05,-76.35 821.87,-69.4"/>
</g>
<!-- Node41&#45;&gt;Node26 -->
<g id="edge54" class="edge">
<title>Node41&#45;&gt;Node26</title>
<path fill="none" stroke="midnightblue" d="M813.94,-336.44C795.43,-327.68 766.42,-313.94 745.14,-303.86"/>
<polygon fill="midnightblue" stroke="midnightblue" points="746.51,-300.63 735.98,-299.52 743.52,-306.96 746.51,-300.63"/>
</g>
<!-- Node41&#45;&gt;Node27 -->
<g id="edge53" class="edge">
<title>Node41&#45;&gt;Node27</title>
<path fill="none" stroke="midnightblue" d="M832,-336.37C832,-318.62 832,-277.67 832,-253.6"/>
<polygon fill="midnightblue" stroke="midnightblue" points="835.5,-253.59 832,-243.59 828.5,-253.59 835.5,-253.59"/>
</g>
<!-- Node42&#45;&gt;Node2 -->
<g id="edge58" class="edge">
<title>Node42&#45;&gt;Node2</title>
<path fill="none" stroke="midnightblue" d="M1021.96,-280.16C1027.76,-251.49 1041.67,-160.15 996,-112 972.62,-87.35 883.71,-75.87 821.7,-70.77"/>
<polygon fill="midnightblue" stroke="midnightblue" points="821.86,-67.27 811.61,-69.98 821.31,-74.25 821.86,-67.27"/>
</g>
</g>
</svg>
