<?xml version="1.0" encoding="UTF-8" standalone="no"?>
<!DOCTYPE svg PUBLIC "-//W3C//DTD SVG 1.1//EN"
 "http://www.w3.org/Graphics/SVG/1.1/DTD/svg11.dtd">
<!-- Generated by graphviz version 2.43.0 (0)
 -->
<!-- Title: GGM.h Pages: 1 -->
<!--zoomable 308 -->
<svg id="main" version="1.1" xmlns="http://www.w3.org/2000/svg" xmlns:xlink="http://www.w3.org/1999/xlink" xml:space="preserve" onload="init(evt)">
<style type="text/css"><![CDATA[
.edge:hover path { stroke: red; }
.edge:hover polygon { stroke: red; fill: red; }
]]></style>
<script type="text/javascript"><![CDATA[
var edges = document.getElementsByTagName('g');
if (edges && edges.length) {
  for (var i=0;i<edges.length;i++) {
    if (edges[i].id.substr(0,4)=='edge') {
      edges[i].setAttribute('class','edge');
    }
  }
}
]]></script>
        <defs>
                <circle id="rim" cx="0" cy="0" r="7"/>
                <circle id="rim2" cx="0" cy="0" r="3.5"/>
                <g id="zoomPlus">
                        <use xlink:href="#rim" fill="#404040">
                                <set attributeName="fill" to="#808080" begin="zoomplus.mouseover" end="zoomplus.mouseout"/>
                        </use>
                        <path d="M-4,0h8M0,-4v8" fill="none" stroke="white" stroke-width="1.5" pointer-events="none"/>
                </g>
                <g id="zoomMin">
                        <use xlink:href="#rim" fill="#404040">
                                <set attributeName="fill" to="#808080" begin="zoomminus.mouseover" end="zoomminus.mouseout"/>
                        </use>
                        <path d="M-4,0h8" fill="none" stroke="white" stroke-width="1.5" pointer-events="none"/>
                </g>
                <g id="dirArrow">
                        <path fill="none" stroke="white" stroke-width="1.5" d="M0,-3.0v7 M-2.5,-0.5L0,-3.0L2.5,-0.5"/>
                </g>
               <g id="resetDef">
                       <use xlink:href="#rim2" fill="#404040">
                               <set attributeName="fill" to="#808080" begin="reset.mouseover" end="reset.mouseout"/>
                       </use>
               </g>
        </defs>

<script type="text/javascript">
var viewWidth = 565;
var viewHeight = 308;
var sectionId = 'dynsection-1';
</script>
<script xlink:href="svgpan.js"/>
<svg id="graph" class="graph">
<g id="viewport">
<title>GGM.h</title>
<polygon fill="white" stroke="transparent" points="-4,4 -4,-304 560.5,-304 560.5,4 -4,4"/>
<!-- Node1 -->
<g id="node1" class="node">
<title>Node1</title>
<g id="a_node1"><a xlink:title=" ">
<polygon fill="#bfbfbf" stroke="black" points="401,-280.5 401,-299.5 451,-299.5 451,-280.5 401,-280.5"/>
<text text-anchor="middle" x="426" y="-287.5" font-family="Helvetica,sans-Serif" font-size="10.00">GGM.h</text>
</a>
</g>
</g>
<!-- Node2 -->
<g id="node2" class="node">
<title>Node2</title>
<g id="a_node2"><a xlink:href="AddRemoveMH_8h.html" target="_top" xlink:title=" ">
<polygon fill="white" stroke="black" points="269.5,-224.5 269.5,-243.5 370.5,-243.5 370.5,-224.5 269.5,-224.5"/>
<text text-anchor="middle" x="320" y="-231.5" font-family="Helvetica,sans-Serif" font-size="10.00">AddRemoveMH.h</text>
</a>
</g>
</g>
<!-- Node1&#45;&gt;Node2 -->
<g id="edge1" class="edge">
<title>Node1&#45;&gt;Node2</title>
<path fill="none" stroke="midnightblue" d="M399.94,-275.73C380.32,-265.73 353.97,-252.31 336.99,-243.65"/>
<polygon fill="midnightblue" stroke="midnightblue" points="398.47,-278.9 408.97,-280.32 401.65,-272.67 398.47,-278.9"/>
</g>
<!-- Node3 -->
<g id="node3" class="node">
<title>Node3</title>
<g id="a_node3"><a xlink:href="GGMFactory_8h.html" target="_top" xlink:title=" ">
<polygon fill="white" stroke="black" points="384.5,-168.5 384.5,-187.5 467.5,-187.5 467.5,-168.5 384.5,-168.5"/>
<text text-anchor="middle" x="426" y="-175.5" font-family="Helvetica,sans-Serif" font-size="10.00">GGMFactory.h</text>
</a>
</g>
</g>
<!-- Node1&#45;&gt;Node3 -->
<g id="edge13" class="edge">
<title>Node1&#45;&gt;Node3</title>
<path fill="none" stroke="midnightblue" d="M421.97,-270.57C420.39,-262.46 418.78,-252.8 418,-244 416.22,-223.84 420.78,-200.29 423.73,-187.81"/>
<polygon fill="midnightblue" stroke="midnightblue" points="418.56,-271.35 424.01,-280.43 425.41,-269.93 418.56,-271.35"/>
</g>
<!-- Node10 -->
<g id="node10" class="node">
<title>Node10</title>
<g id="a_node10"><a xlink:href="RJMH_8h.html" target="_top" xlink:title=" ">
<polygon fill="white" stroke="black" points="427,-224.5 427,-243.5 479,-243.5 479,-224.5 427,-224.5"/>
<text text-anchor="middle" x="453" y="-231.5" font-family="Helvetica,sans-Serif" font-size="10.00">RJMH.h</text>
</a>
</g>
</g>
<!-- Node1&#45;&gt;Node10 -->
<g id="edge14" class="edge">
<title>Node1&#45;&gt;Node10</title>
<path fill="none" stroke="midnightblue" d="M435.01,-270.98C439.59,-261.82 444.95,-251.09 448.62,-243.75"/>
<polygon fill="midnightblue" stroke="midnightblue" points="431.8,-269.57 430.46,-280.08 438.06,-272.7 431.8,-269.57"/>
</g>
<!-- Node11 -->
<g id="node11" class="node">
<title>Node11</title>
<g id="a_node11"><a xlink:href="DRJMH_8h.html" target="_top" xlink:title=" ">
<polygon fill="white" stroke="black" points="497.5,-224.5 497.5,-243.5 556.5,-243.5 556.5,-224.5 497.5,-224.5"/>
<text text-anchor="middle" x="527" y="-231.5" font-family="Helvetica,sans-Serif" font-size="10.00">DRJMH.h</text>
</a>
</g>
</g>
<!-- Node1&#45;&gt;Node11 -->
<g id="edge16" class="edge">
<title>Node1&#45;&gt;Node11</title>
<path fill="none" stroke="midnightblue" d="M451.08,-275.59C469.76,-265.61 494.7,-252.27 510.81,-243.65"/>
<polygon fill="midnightblue" stroke="midnightblue" points="449.4,-272.52 442.23,-280.32 452.7,-278.7 449.4,-272.52"/>
</g>
<!-- Node2&#45;&gt;Node3 -->
<g id="edge2" class="edge">
<title>Node2&#45;&gt;Node3</title>
<path fill="none" stroke="midnightblue" d="M346.06,-219.73C365.68,-209.73 392.03,-196.31 409.01,-187.65"/>
<polygon fill="midnightblue" stroke="midnightblue" points="344.35,-216.67 337.03,-224.32 347.53,-222.9 344.35,-216.67"/>
</g>
<!-- Node4 -->
<g id="node4" class="node">
<title>Node4</title>
<g id="a_node4"><a xlink:href="SamplerOptions_8h.html" target="_top" xlink:title=" ">
<polygon fill="white" stroke="black" points="275,-112.5 275,-131.5 379,-131.5 379,-112.5 275,-112.5"/>
<text text-anchor="middle" x="327" y="-119.5" font-family="Helvetica,sans-Serif" font-size="10.00">SamplerOptions.h</text>
</a>
</g>
</g>
<!-- Node3&#45;&gt;Node4 -->
<g id="edge3" class="edge">
<title>Node3&#45;&gt;Node4</title>
<path fill="none" stroke="midnightblue" d="M401.16,-163.45C382.89,-153.48 358.58,-140.23 342.87,-131.65"/>
<polygon fill="midnightblue" stroke="midnightblue" points="399.64,-166.61 410.09,-168.32 402.99,-160.46 399.64,-166.61"/>
</g>
<!-- Node6 -->
<g id="node6" class="node">
<title>Node6</title>
<g id="a_node6"><a xlink:href="BGSL__export_8cpp.html" target="_top" xlink:title=" ">
<polygon fill="white" stroke="black" points="277.5,-0.5 277.5,-19.5 376.5,-19.5 376.5,-0.5 277.5,-0.5"/>
<text text-anchor="middle" x="327" y="-7.5" font-family="Helvetica,sans-Serif" font-size="10.00">BGSL_export.cpp</text>
</a>
</g>
</g>
<!-- Node3&#45;&gt;Node6 -->
<g id="edge12" class="edge">
<title>Node3&#45;&gt;Node6</title>
<path fill="none" stroke="midnightblue" d="M447.63,-162.56C479.77,-139.32 533.46,-92.55 505,-56 489.33,-35.88 423.72,-23.33 376.71,-16.75"/>
<polygon fill="midnightblue" stroke="midnightblue" points="445.39,-159.85 439.22,-168.46 449.41,-165.58 445.39,-159.85"/>
</g>
<!-- Node5 -->
<g id="node5" class="node">
<title>Node5</title>
<g id="a_node5"><a xlink:href="GibbsSamplerBase_8h.html" target="_top" xlink:title=" ">
<polygon fill="white" stroke="black" points="0,-56.5 0,-75.5 118,-75.5 118,-56.5 0,-56.5"/>
<text text-anchor="middle" x="59" y="-63.5" font-family="Helvetica,sans-Serif" font-size="10.00">GibbsSamplerBase.h</text>
</a>
</g>
</g>
<!-- Node4&#45;&gt;Node5 -->
<g id="edge4" class="edge">
<title>Node4&#45;&gt;Node5</title>
<path fill="none" stroke="midnightblue" d="M274.44,-110.41C223.79,-100.2 148.13,-84.96 101.27,-75.52"/>
<polygon fill="midnightblue" stroke="midnightblue" points="274.04,-113.9 284.53,-112.44 275.42,-107.04 274.04,-113.9"/>
</g>
<!-- Node7 -->
<g id="node7" class="node">
<title>Node7</title>
<g id="a_node7"><a xlink:href="PosteriorAnalysis_8h.html" target="_top" xlink:title=" ">
<polygon fill="white" stroke="black" points="136,-56.5 136,-75.5 246,-75.5 246,-56.5 136,-56.5"/>
<text text-anchor="middle" x="191" y="-63.5" font-family="Helvetica,sans-Serif" font-size="10.00">PosteriorAnalysis.h</text>
</a>
</g>
</g>
<!-- Node4&#45;&gt;Node7 -->
<g id="edge6" class="edge">
<title>Node4&#45;&gt;Node7</title>
<path fill="none" stroke="midnightblue" d="M295.87,-108.64C270.34,-98.5 234.89,-84.43 212.45,-75.52"/>
<polygon fill="midnightblue" stroke="midnightblue" points="294.86,-112.01 305.45,-112.44 297.45,-105.5 294.86,-112.01"/>
</g>
<!-- Node8 -->
<g id="node8" class="node">
<title>Node8</title>
<g id="a_node8"><a xlink:href="GibbsSamplerDebug_8h.html" target="_top" xlink:title=" ">
<polygon fill="white" stroke="black" points="264.5,-56.5 264.5,-75.5 389.5,-75.5 389.5,-56.5 264.5,-56.5"/>
<text text-anchor="middle" x="327" y="-63.5" font-family="Helvetica,sans-Serif" font-size="10.00">GibbsSamplerDebug.h</text>
</a>
</g>
</g>
<!-- Node4&#45;&gt;Node8 -->
<g id="edge8" class="edge">
<title>Node4&#45;&gt;Node8</title>
<path fill="none" stroke="midnightblue" d="M327,-101.8C327,-92.91 327,-82.78 327,-75.75"/>
<polygon fill="midnightblue" stroke="midnightblue" points="323.5,-102.08 327,-112.08 330.5,-102.08 323.5,-102.08"/>
</g>
<!-- Node9 -->
<g id="node9" class="node">
<title>Node9</title>
<g id="a_node9"><a xlink:href="GGMsampler_8h.html" target="_top" xlink:title=" ">
<polygon fill="white" stroke="black" points="407.5,-56.5 407.5,-75.5 496.5,-75.5 496.5,-56.5 407.5,-56.5"/>
<text text-anchor="middle" x="452" y="-63.5" font-family="Helvetica,sans-Serif" font-size="10.00">GGMsampler.h</text>
</a>
</g>
</g>
<!-- Node4&#45;&gt;Node9 -->
<g id="edge10" class="edge">
<title>Node4&#45;&gt;Node9</title>
<path fill="none" stroke="midnightblue" d="M356.24,-108.37C379.65,-98.26 411.84,-84.35 432.29,-75.52"/>
<polygon fill="midnightblue" stroke="midnightblue" points="354.6,-105.26 346.81,-112.44 357.37,-111.69 354.6,-105.26"/>
</g>
<!-- Node5&#45;&gt;Node6 -->
<g id="edge5" class="edge">
<title>Node5&#45;&gt;Node6</title>
<path fill="none" stroke="midnightblue" d="M111.56,-54.41C162.21,-44.2 237.87,-28.96 284.73,-19.52"/>
<polygon fill="midnightblue" stroke="midnightblue" points="110.58,-51.04 101.47,-56.44 111.96,-57.9 110.58,-51.04"/>
</g>
<!-- Node7&#45;&gt;Node6 -->
<g id="edge7" class="edge">
<title>Node7&#45;&gt;Node6</title>
<path fill="none" stroke="midnightblue" d="M222.13,-52.64C247.66,-42.5 283.11,-28.43 305.55,-19.52"/>
<polygon fill="midnightblue" stroke="midnightblue" points="220.55,-49.5 212.55,-56.44 223.14,-56.01 220.55,-49.5"/>
</g>
<!-- Node8&#45;&gt;Node6 -->
<g id="edge9" class="edge">
<title>Node8&#45;&gt;Node6</title>
<path fill="none" stroke="midnightblue" d="M327,-45.8C327,-36.91 327,-26.78 327,-19.75"/>
<polygon fill="midnightblue" stroke="midnightblue" points="323.5,-46.08 327,-56.08 330.5,-46.08 323.5,-46.08"/>
</g>
<!-- Node9&#45;&gt;Node6 -->
<g id="edge11" class="edge">
<title>Node9&#45;&gt;Node6</title>
<path fill="none" stroke="midnightblue" d="M422.76,-52.37C399.35,-42.26 367.16,-28.35 346.71,-19.52"/>
<polygon fill="midnightblue" stroke="midnightblue" points="421.63,-55.69 432.19,-56.44 424.4,-49.26 421.63,-55.69"/>
</g>
<!-- Node10&#45;&gt;Node3 -->
<g id="edge15" class="edge">
<title>Node10&#45;&gt;Node3</title>
<path fill="none" stroke="midnightblue" d="M443.99,-214.98C439.41,-205.82 434.05,-195.09 430.38,-187.75"/>
<polygon fill="midnightblue" stroke="midnightblue" points="440.94,-216.7 448.54,-224.08 447.2,-213.57 440.94,-216.7"/>
</g>
<!-- Node11&#45;&gt;Node3 -->
<g id="edge17" class="edge">
<title>Node11&#45;&gt;Node3</title>
<path fill="none" stroke="midnightblue" d="M501.92,-219.59C483.24,-209.61 458.3,-196.27 442.19,-187.65"/>
<polygon fill="midnightblue" stroke="midnightblue" points="500.3,-222.7 510.77,-224.32 503.6,-216.52 500.3,-222.7"/>
</g>
</g>
</svg>
        <g id="navigator" transform="translate(0 0)" fill="#404254">
                <rect fill="#f2f5e9" fill-opacity="0.5" stroke="#606060" stroke-width=".5" x="0" y="0" width="60" height="60"/>
                <use id="zoomplus" xlink:href="#zoomPlus" x="17" y="9" onmousedown="handleZoom(evt,'in')"/>
                <use id="zoomminus" xlink:href="#zoomMin" x="42" y="9" onmousedown="handleZoom(evt,'out')"/>
                <use id="reset" xlink:href="#resetDef" x="30" y="36" onmousedown="handleReset()"/>
                <g id="arrowUp" xlink:href="#dirArrow" transform="translate(30 24)" onmousedown="handlePan(0,-1)">
                  <use xlink:href="#rim" fill="#404040">
                        <set attributeName="fill" to="#808080" begin="arrowUp.mouseover" end="arrowUp.mouseout"/>
                  </use>
                  <path fill="none" stroke="white" stroke-width="1.5" d="M0,-3.0v7 M-2.5,-0.5L0,-3.0L2.5,-0.5"/>
                </g>
                <g id="arrowRight" xlink:href="#dirArrow" transform="rotate(90) translate(36 -43)" onmousedown="handlePan(1,0)">
                  <use xlink:href="#rim" fill="#404040">
                        <set attributeName="fill" to="#808080" begin="arrowRight.mouseover" end="arrowRight.mouseout"/>
                  </use>
                  <path fill="none" stroke="white" stroke-width="1.5" d="M0,-3.0v7 M-2.5,-0.5L0,-3.0L2.5,-0.5"/>
                </g>
                <g id="arrowDown" xlink:href="#dirArrow" transform="rotate(180) translate(-30 -48)" onmousedown="handlePan(0,1)">
                  <use xlink:href="#rim" fill="#404040">
                        <set attributeName="fill" to="#808080" begin="arrowDown.mouseover" end="arrowDown.mouseout"/>
                  </use>
                  <path fill="none" stroke="white" stroke-width="1.5" d="M0,-3.0v7 M-2.5,-0.5L0,-3.0L2.5,-0.5"/>
                </g>
                <g id="arrowLeft" xlink:href="#dirArrow" transform="rotate(270) translate(-36 17)" onmousedown="handlePan(-1,0)">
                  <use xlink:href="#rim" fill="#404040">
                        <set attributeName="fill" to="#808080" begin="arrowLeft.mouseover" end="arrowLeft.mouseout"/>
                  </use>
                  <path fill="none" stroke="white" stroke-width="1.5" d="M0,-3.0v7 M-2.5,-0.5L0,-3.0L2.5,-0.5"/>
                </g>
        </g>
        <svg viewBox="0 0 15 15" width="100%" height="30px" preserveAspectRatio="xMaxYMin meet">
         <g id="arrow_out" transform="scale(0.3 0.3)">
          <a xlink:href="GGM_8h__dep__incl_org.svg" target="_base">
           <rect id="button" ry="5" rx="5" y="6" x="6" height="38" width="38"
                fill="#f2f5e9" fill-opacity="0.5" stroke="#606060" stroke-width="1.0"/>
           <path id="arrow"
             d="M 11.500037,31.436501 C 11.940474,20.09759 22.043105,11.32322 32.158766,21.979434 L 37.068811,17.246167 C 37.068811,17.246167 37.088388,32 37.088388,32 L 22.160133,31.978069 C 22.160133,31.978069 26.997745,27.140456 26.997745,27.140456 C 18.528582,18.264221 13.291696,25.230495 11.500037,31.436501 z"
             style="fill:#404040;"/>
          </a>
         </g>
        </svg>
</svg>
