<?xml version="1.0" encoding="UTF-8" standalone="no"?>
<!DOCTYPE svg PUBLIC "-//W3C//DTD SVG 1.1//EN"
 "http://www.w3.org/Graphics/SVG/1.1/DTD/svg11.dtd">
<!-- Generated by graphviz version 2.43.0 (0)
 -->
<!-- Title: GGMFactory.h Pages: 1 -->
<svg width="522pt" height="196pt"
 viewBox="0.00 0.00 522.33 196.00" xmlns="http://www.w3.org/2000/svg" xmlns:xlink="http://www.w3.org/1999/xlink">
<g id="graph0" class="graph" transform="scale(1 1) rotate(0) translate(4 192)">
<title>GGMFactory.h</title>
<polygon fill="white" stroke="transparent" points="-4,4 -4,-192 518.33,-192 518.33,4 -4,4"/>
<!-- Node1 -->
<g id="node1" class="node">
<title>Node1</title>
<g id="a_node1"><a xlink:title=" ">
<polygon fill="#bfbfbf" stroke="black" points="384.5,-168.5 384.5,-187.5 467.5,-187.5 467.5,-168.5 384.5,-168.5"/>
<text text-anchor="middle" x="426" y="-175.5" font-family="Helvetica,sans-Serif" font-size="10.00">GGMFactory.h</text>
</a>
</g>
</g>
<!-- Node2 -->
<g id="node2" class="node">
<title>Node2</title>
<g id="a_node2"><a xlink:href="SamplerOptions_8h.html" target="_top" xlink:title=" ">
<polygon fill="white" stroke="black" points="275,-112.5 275,-131.5 379,-131.5 379,-112.5 275,-112.5"/>
<text text-anchor="middle" x="327" y="-119.5" font-family="Helvetica,sans-Serif" font-size="10.00">SamplerOptions.h</text>
</a>
</g>
</g>
<!-- Node1&#45;&gt;Node2 -->
<g id="edge1" class="edge">
<title>Node1&#45;&gt;Node2</title>
<path fill="none" stroke="midnightblue" d="M401.16,-163.45C382.89,-153.48 358.58,-140.23 342.87,-131.65"/>
<polygon fill="midnightblue" stroke="midnightblue" points="399.64,-166.61 410.09,-168.32 402.99,-160.46 399.64,-166.61"/>
</g>
<!-- Node4 -->
<g id="node4" class="node">
<title>Node4</title>
<g id="a_node4"><a xlink:href="BGSL__export_8cpp.html" target="_top" xlink:title=" ">
<polygon fill="white" stroke="black" points="277.5,-0.5 277.5,-19.5 376.5,-19.5 376.5,-0.5 277.5,-0.5"/>
<text text-anchor="middle" x="327" y="-7.5" font-family="Helvetica,sans-Serif" font-size="10.00">BGSL_export.cpp</text>
</a>
</g>
</g>
<!-- Node1&#45;&gt;Node4 -->
<g id="edge10" class="edge">
<title>Node1&#45;&gt;Node4</title>
<path fill="none" stroke="midnightblue" d="M447.85,-162.58C480.32,-139.39 534.59,-92.67 506,-56 490.19,-35.72 423.84,-23.18 376.54,-16.65"/>
<polygon fill="midnightblue" stroke="midnightblue" points="445.58,-159.9 439.35,-168.47 449.56,-165.65 445.58,-159.9"/>
</g>
<!-- Node3 -->
<g id="node3" class="node">
<title>Node3</title>
<g id="a_node3"><a xlink:href="GibbsSamplerBase_8h.html" target="_top" xlink:title=" ">
<polygon fill="white" stroke="black" points="0,-56.5 0,-75.5 118,-75.5 118,-56.5 0,-56.5"/>
<text text-anchor="middle" x="59" y="-63.5" font-family="Helvetica,sans-Serif" font-size="10.00">GibbsSamplerBase.h</text>
</a>
</g>
</g>
<!-- Node2&#45;&gt;Node3 -->
<g id="edge2" class="edge">
<title>Node2&#45;&gt;Node3</title>
<path fill="none" stroke="midnightblue" d="M274.44,-110.41C223.79,-100.2 148.13,-84.96 101.27,-75.52"/>
<polygon fill="midnightblue" stroke="midnightblue" points="274.04,-113.9 284.53,-112.44 275.42,-107.04 274.04,-113.9"/>
</g>
<!-- Node5 -->
<g id="node5" class="node">
<title>Node5</title>
<g id="a_node5"><a xlink:href="PosteriorAnalysis_8h.html" target="_top" xlink:title=" ">
<polygon fill="white" stroke="black" points="136,-56.5 136,-75.5 246,-75.5 246,-56.5 136,-56.5"/>
<text text-anchor="middle" x="191" y="-63.5" font-family="Helvetica,sans-Serif" font-size="10.00">PosteriorAnalysis.h</text>
</a>
</g>
</g>
<!-- Node2&#45;&gt;Node5 -->
<g id="edge4" class="edge">
<title>Node2&#45;&gt;Node5</title>
<path fill="none" stroke="midnightblue" d="M295.87,-108.64C270.34,-98.5 234.89,-84.43 212.45,-75.52"/>
<polygon fill="midnightblue" stroke="midnightblue" points="294.86,-112.01 305.45,-112.44 297.45,-105.5 294.86,-112.01"/>
</g>
<!-- Node6 -->
<g id="node6" class="node">
<title>Node6</title>
<g id="a_node6"><a xlink:href="GibbsSamplerDebug_8h.html" target="_top" xlink:title=" ">
<polygon fill="white" stroke="black" points="264.5,-56.5 264.5,-75.5 389.5,-75.5 389.5,-56.5 264.5,-56.5"/>
<text text-anchor="middle" x="327" y="-63.5" font-family="Helvetica,sans-Serif" font-size="10.00">GibbsSamplerDebug.h</text>
</a>
</g>
</g>
<!-- Node2&#45;&gt;Node6 -->
<g id="edge6" class="edge">
<title>Node2&#45;&gt;Node6</title>
<path fill="none" stroke="midnightblue" d="M327,-101.8C327,-92.91 327,-82.78 327,-75.75"/>
<polygon fill="midnightblue" stroke="midnightblue" points="323.5,-102.08 327,-112.08 330.5,-102.08 323.5,-102.08"/>
</g>
<!-- Node7 -->
<g id="node7" class="node">
<title>Node7</title>
<g id="a_node7"><a xlink:href="GGMsampler_8h.html" target="_top" xlink:title=" ">
<polygon fill="white" stroke="black" points="407.5,-56.5 407.5,-75.5 496.5,-75.5 496.5,-56.5 407.5,-56.5"/>
<text text-anchor="middle" x="452" y="-63.5" font-family="Helvetica,sans-Serif" font-size="10.00">GGMsampler.h</text>
</a>
</g>
</g>
<!-- Node2&#45;&gt;Node7 -->
<g id="edge8" class="edge">
<title>Node2&#45;&gt;Node7</title>
<path fill="none" stroke="midnightblue" d="M356.24,-108.37C379.65,-98.26 411.84,-84.35 432.29,-75.52"/>
<polygon fill="midnightblue" stroke="midnightblue" points="354.6,-105.26 346.81,-112.44 357.37,-111.69 354.6,-105.26"/>
</g>
<!-- Node3&#45;&gt;Node4 -->
<g id="edge3" class="edge">
<title>Node3&#45;&gt;Node4</title>
<path fill="none" stroke="midnightblue" d="M111.56,-54.41C162.21,-44.2 237.87,-28.96 284.73,-19.52"/>
<polygon fill="midnightblue" stroke="midnightblue" points="110.58,-51.04 101.47,-56.44 111.96,-57.9 110.58,-51.04"/>
</g>
<!-- Node5&#45;&gt;Node4 -->
<g id="edge5" class="edge">
<title>Node5&#45;&gt;Node4</title>
<path fill="none" stroke="midnightblue" d="M222.13,-52.64C247.66,-42.5 283.11,-28.43 305.55,-19.52"/>
<polygon fill="midnightblue" stroke="midnightblue" points="220.55,-49.5 212.55,-56.44 223.14,-56.01 220.55,-49.5"/>
</g>
<!-- Node6&#45;&gt;Node4 -->
<g id="edge7" class="edge">
<title>Node6&#45;&gt;Node4</title>
<path fill="none" stroke="midnightblue" d="M327,-45.8C327,-36.91 327,-26.78 327,-19.75"/>
<polygon fill="midnightblue" stroke="midnightblue" points="323.5,-46.08 327,-56.08 330.5,-46.08 323.5,-46.08"/>
</g>
<!-- Node7&#45;&gt;Node4 -->
<g id="edge9" class="edge">
<title>Node7&#45;&gt;Node4</title>
<path fill="none" stroke="midnightblue" d="M422.76,-52.37C399.35,-42.26 367.16,-28.35 346.71,-19.52"/>
<polygon fill="midnightblue" stroke="midnightblue" points="421.63,-55.69 432.19,-56.44 424.4,-49.26 421.63,-55.69"/>
</g>
</g>
</svg>
