<?xml version="1.0" encoding="UTF-8" standalone="no"?>
<!DOCTYPE svg PUBLIC "-//W3C//DTD SVG 1.1//EN"
 "http://www.w3.org/Graphics/SVG/1.1/DTD/svg11.dtd">
<!-- Generated by graphviz version 2.43.0 (0)
 -->
<!-- Title: GraphType.h Pages: 1 -->
<!--zoomable 644 -->
<svg id="main" version="1.1" xmlns="http://www.w3.org/2000/svg" xmlns:xlink="http://www.w3.org/1999/xlink" xml:space="preserve" onload="init(evt)">
<style type="text/css"><![CDATA[
.edge:hover path { stroke: red; }
.edge:hover polygon { stroke: red; fill: red; }
]]></style>
<script type="text/javascript"><![CDATA[
var edges = document.getElementsByTagName('g');
if (edges && edges.length) {
  for (var i=0;i<edges.length;i++) {
    if (edges[i].id.substr(0,4)=='edge') {
      edges[i].setAttribute('class','edge');
    }
  }
}
]]></script>
        <defs>
                <circle id="rim" cx="0" cy="0" r="7"/>
                <circle id="rim2" cx="0" cy="0" r="3.5"/>
                <g id="zoomPlus">
                        <use xlink:href="#rim" fill="#404040">
                                <set attributeName="fill" to="#808080" begin="zoomplus.mouseover" end="zoomplus.mouseout"/>
                        </use>
                        <path d="M-4,0h8M0,-4v8" fill="none" stroke="white" stroke-width="1.5" pointer-events="none"/>
                </g>
                <g id="zoomMin">
                        <use xlink:href="#rim" fill="#404040">
                                <set attributeName="fill" to="#808080" begin="zoomminus.mouseover" end="zoomminus.mouseout"/>
                        </use>
                        <path d="M-4,0h8" fill="none" stroke="white" stroke-width="1.5" pointer-events="none"/>
                </g>
                <g id="dirArrow">
                        <path fill="none" stroke="white" stroke-width="1.5" d="M0,-3.0v7 M-2.5,-0.5L0,-3.0L2.5,-0.5"/>
                </g>
               <g id="resetDef">
                       <use xlink:href="#rim2" fill="#404040">
                               <set attributeName="fill" to="#808080" begin="reset.mouseover" end="reset.mouseout"/>
                       </use>
               </g>
        </defs>

<script type="text/javascript">
var viewWidth = 901;
var viewHeight = 644;
var sectionId = 'dynsection-1';
</script>
<script xlink:href="svgpan.js"/>
<svg id="graph" class="graph">
<g id="viewport">
<title>GraphType.h</title>
<polygon fill="white" stroke="transparent" points="-4,4 -4,-640 896.5,-640 896.5,4 -4,4"/>
<!-- Node1 -->
<g id="node1" class="node">
<title>Node1</title>
<g id="a_node1"><a xlink:title=" ">
<polygon fill="#bfbfbf" stroke="black" points="412.5,-616.5 412.5,-635.5 489.5,-635.5 489.5,-616.5 412.5,-616.5"/>
<text text-anchor="middle" x="451" y="-623.5" font-family="Helvetica,sans-Serif" font-size="10.00">GraphType.h</text>
</a>
</g>
</g>
<!-- Node2 -->
<g id="node2" class="node">
<title>Node2</title>
<g id="a_node2"><a xlink:href="include__graphs_8h.html" target="_top" xlink:title=" ">
<polygon fill="white" stroke="black" points="401.5,-560.5 401.5,-579.5 500.5,-579.5 500.5,-560.5 401.5,-560.5"/>
<text text-anchor="middle" x="451" y="-567.5" font-family="Helvetica,sans-Serif" font-size="10.00">include_graphs.h</text>
</a>
</g>
</g>
<!-- Node1&#45;&gt;Node2 -->
<g id="edge1" class="edge">
<title>Node1&#45;&gt;Node2</title>
<path fill="none" stroke="midnightblue" d="M451,-605.8C451,-596.91 451,-586.78 451,-579.75"/>
<polygon fill="midnightblue" stroke="midnightblue" points="447.5,-606.08 451,-616.08 454.5,-606.08 447.5,-606.08"/>
</g>
<!-- Node3 -->
<g id="node3" class="node">
<title>Node3</title>
<g id="a_node3"><a xlink:href="GGM_8h.html" target="_top" xlink:title=" ">
<polygon fill="white" stroke="black" points="248,-280.5 248,-299.5 298,-299.5 298,-280.5 248,-280.5"/>
<text text-anchor="middle" x="273" y="-287.5" font-family="Helvetica,sans-Serif" font-size="10.00">GGM.h</text>
</a>
</g>
</g>
<!-- Node2&#45;&gt;Node3 -->
<g id="edge2" class="edge">
<title>Node2&#45;&gt;Node3</title>
<path fill="none" stroke="midnightblue" d="M391.17,-564.28C326.33,-555.52 232,-530.48 232,-459 232,-459 232,-459 232,-401 232,-361.05 256.03,-317.8 267.3,-299.71"/>
<polygon fill="midnightblue" stroke="midnightblue" points="390.95,-567.78 401.31,-565.55 391.82,-560.84 390.95,-567.78"/>
</g>
<!-- Node6 -->
<g id="node6" class="node">
<title>Node6</title>
<g id="a_node6"><a xlink:href="SamplerOptions_8h.html" target="_top" xlink:title=" ">
<polygon fill="white" stroke="black" points="348,-112.5 348,-131.5 452,-131.5 452,-112.5 348,-112.5"/>
<text text-anchor="middle" x="400" y="-119.5" font-family="Helvetica,sans-Serif" font-size="10.00">SamplerOptions.h</text>
</a>
</g>
</g>
<!-- Node2&#45;&gt;Node6 -->
<g id="edge43" class="edge">
<title>Node2&#45;&gt;Node6</title>
<path fill="none" stroke="midnightblue" d="M444.75,-550.84C438.15,-530.81 428.02,-497.51 423,-468 400.45,-335.44 399.75,-170.72 399.93,-131.61"/>
<polygon fill="midnightblue" stroke="midnightblue" points="441.49,-552.13 448,-560.49 448.13,-549.89 441.49,-552.13"/>
</g>
<!-- Node8 -->
<g id="node8" class="node">
<title>Node8</title>
<g id="a_node8"><a xlink:href="BGSL__export_8cpp.html" target="_top" xlink:title=" ">
<polygon fill="white" stroke="black" points="236.5,-0.5 236.5,-19.5 335.5,-19.5 335.5,-0.5 236.5,-0.5"/>
<text text-anchor="middle" x="286" y="-7.5" font-family="Helvetica,sans-Serif" font-size="10.00">BGSL_export.cpp</text>
</a>
</g>
</g>
<!-- Node2&#45;&gt;Node8 -->
<g id="edge42" class="edge">
<title>Node2&#45;&gt;Node8</title>
<path fill="none" stroke="midnightblue" d="M391.1,-566.86C268.41,-560.84 0,-538.58 0,-459 0,-459 0,-459 0,-121 0,-84 20.33,-75.12 52,-56 108.85,-21.69 186.39,-12.71 236.34,-10.79"/>
<polygon fill="midnightblue" stroke="midnightblue" points="391.29,-570.37 401.45,-567.35 391.62,-563.38 391.29,-570.37"/>
</g>
<!-- Node14 -->
<g id="node14" class="node">
<title>Node14</title>
<g id="a_node14"><a xlink:href="BlockGraphCRTP_8h.html" target="_top" xlink:title=" ">
<polygon fill="white" stroke="black" points="298.5,-504.5 298.5,-523.5 403.5,-523.5 403.5,-504.5 298.5,-504.5"/>
<text text-anchor="middle" x="351" y="-511.5" font-family="Helvetica,sans-Serif" font-size="10.00">BlockGraphCRTP.h</text>
</a>
</g>
</g>
<!-- Node2&#45;&gt;Node14 -->
<g id="edge20" class="edge">
<title>Node2&#45;&gt;Node14</title>
<path fill="none" stroke="midnightblue" d="M420.78,-555.86C400.87,-545.85 376.13,-532.35 361.92,-523.65"/>
<polygon fill="midnightblue" stroke="midnightblue" points="419.3,-559.03 429.82,-560.32 422.4,-552.76 419.3,-559.03"/>
</g>
<!-- Node15 -->
<g id="node15" class="node">
<title>Node15</title>
<g id="a_node15"><a xlink:href="utils_8h.html" target="_top" xlink:title=" ">
<polygon fill="white" stroke="black" points="504.5,-504.5 504.5,-523.5 551.5,-523.5 551.5,-504.5 504.5,-504.5"/>
<text text-anchor="middle" x="528" y="-511.5" font-family="Helvetica,sans-Serif" font-size="10.00">utils.h</text>
</a>
</g>
</g>
<!-- Node2&#45;&gt;Node15 -->
<g id="edge22" class="edge">
<title>Node2&#45;&gt;Node15</title>
<path fill="none" stroke="midnightblue" d="M471.9,-554.34C485.91,-544.52 503.88,-531.91 515.66,-523.65"/>
<polygon fill="midnightblue" stroke="midnightblue" points="469.55,-551.72 463.37,-560.32 473.57,-557.45 469.55,-551.72"/>
</g>
<!-- Node17 -->
<g id="node17" class="node">
<title>Node17</title>
<g id="a_node17"><a xlink:href="GraphPrior_8h.html" target="_top" xlink:title=" ">
<polygon fill="white" stroke="black" points="260.5,-336.5 260.5,-355.5 337.5,-355.5 337.5,-336.5 260.5,-336.5"/>
<text text-anchor="middle" x="299" y="-343.5" font-family="Helvetica,sans-Serif" font-size="10.00">GraphPrior.h</text>
</a>
</g>
</g>
<!-- Node2&#45;&gt;Node17 -->
<g id="edge41" class="edge">
<title>Node2&#45;&gt;Node17</title>
<path fill="none" stroke="midnightblue" d="M391.04,-559.94C350.61,-552.46 302.45,-540.41 290,-524 250.38,-471.79 282.92,-383.93 294.97,-355.88"/>
<polygon fill="midnightblue" stroke="midnightblue" points="390.66,-563.43 401.12,-561.74 391.9,-556.53 390.66,-563.43"/>
</g>
<!-- Node18 -->
<g id="node18" class="node">
<title>Node18</title>
<g id="a_node18"><a xlink:href="FLMSamplerOptions_8h.html" target="_top" xlink:title=" ">
<polygon fill="white" stroke="black" points="570,-336.5 570,-355.5 694,-355.5 694,-336.5 570,-336.5"/>
<text text-anchor="middle" x="632" y="-343.5" font-family="Helvetica,sans-Serif" font-size="10.00">FLMSamplerOptions.h</text>
</a>
</g>
</g>
<!-- Node2&#45;&gt;Node18 -->
<g id="edge44" class="edge">
<title>Node2&#45;&gt;Node18</title>
<path fill="none" stroke="midnightblue" d="M508.59,-558C555.25,-545.45 616.64,-519.56 638,-468 654.26,-428.75 641.12,-376.1 634.86,-355.64"/>
<polygon fill="midnightblue" stroke="midnightblue" points="507.69,-554.62 498.87,-560.49 509.42,-561.4 507.69,-554.62"/>
</g>
<!-- Node20 -->
<g id="node20" class="node">
<title>Node20</title>
<g id="a_node20"><a xlink:href="GWishart_8h.html" target="_top" xlink:title=" ">
<polygon fill="white" stroke="black" points="431.5,-448.5 431.5,-467.5 502.5,-467.5 502.5,-448.5 431.5,-448.5"/>
<text text-anchor="middle" x="467" y="-455.5" font-family="Helvetica,sans-Serif" font-size="10.00">GWishart.h</text>
</a>
</g>
</g>
<!-- Node2&#45;&gt;Node20 -->
<g id="edge39" class="edge">
<title>Node2&#45;&gt;Node20</title>
<path fill="none" stroke="midnightblue" d="M453.71,-550.35C457.22,-526.25 463.17,-485.31 465.75,-467.59"/>
<polygon fill="midnightblue" stroke="midnightblue" points="450.23,-549.97 452.26,-560.37 457.16,-550.98 450.23,-549.97"/>
</g>
<!-- Node21 -->
<g id="node21" class="node">
<title>Node21</title>
<g id="a_node21"><a xlink:href="Precision_8h.html" target="_top" xlink:title=" ">
<polygon fill="white" stroke="black" points="559,-448.5 559,-467.5 629,-467.5 629,-448.5 559,-448.5"/>
<text text-anchor="middle" x="594" y="-455.5" font-family="Helvetica,sans-Serif" font-size="10.00">Precision.h</text>
</a>
</g>
</g>
<!-- Node2&#45;&gt;Node21 -->
<g id="edge40" class="edge">
<title>Node2&#45;&gt;Node21</title>
<path fill="none" stroke="midnightblue" d="M499.29,-557.45C520.2,-550.52 543.78,-539.87 561,-524 578.12,-508.22 587.68,-481.54 591.7,-467.79"/>
<polygon fill="midnightblue" stroke="midnightblue" points="498.1,-554.16 489.59,-560.47 500.18,-560.84 498.1,-554.16"/>
</g>
<!-- Node22 -->
<g id="node22" class="node">
<title>Node22</title>
<g id="a_node22"><a xlink:href="Test__Graphs_8cpp.html" target="_top" xlink:title=" ">
<polygon fill="white" stroke="black" points="685,-504.5 685,-523.5 781,-523.5 781,-504.5 685,-504.5"/>
<text text-anchor="middle" x="733" y="-511.5" font-family="Helvetica,sans-Serif" font-size="10.00">Test_Graphs.cpp</text>
</a>
</g>
</g>
<!-- Node2&#45;&gt;Node22 -->
<g id="edge45" class="edge">
<title>Node2&#45;&gt;Node22</title>
<path fill="none" stroke="midnightblue" d="M505.64,-558.54C558.94,-548.33 639,-533 688.53,-523.52"/>
<polygon fill="midnightblue" stroke="midnightblue" points="504.85,-555.13 495.68,-560.44 506.16,-562 504.85,-555.13"/>
</g>
<!-- Node23 -->
<g id="node23" class="node">
<title>Node23</title>
<g id="a_node23"><a xlink:href="Test__GWish_8cpp.html" target="_top" xlink:title=" ">
<polygon fill="white" stroke="black" points="799.5,-504.5 799.5,-523.5 892.5,-523.5 892.5,-504.5 799.5,-504.5"/>
<text text-anchor="middle" x="846" y="-511.5" font-family="Helvetica,sans-Serif" font-size="10.00">Test_GWish.cpp</text>
</a>
</g>
</g>
<!-- Node2&#45;&gt;Node23 -->
<g id="edge46" class="edge">
<title>Node2&#45;&gt;Node23</title>
<path fill="none" stroke="midnightblue" d="M510.81,-561.56C578.6,-553.02 692.36,-538.32 790,-524 793.02,-523.56 796.13,-523.09 799.26,-522.61"/>
<polygon fill="midnightblue" stroke="midnightblue" points="510.23,-558.11 500.75,-562.83 511.11,-565.05 510.23,-558.11"/>
</g>
<!-- Node4 -->
<g id="node4" class="node">
<title>Node4</title>
<g id="a_node4"><a xlink:href="AddRemoveMH_8h.html" target="_top" xlink:title=" ">
<polygon fill="white" stroke="black" points="143.5,-224.5 143.5,-243.5 244.5,-243.5 244.5,-224.5 143.5,-224.5"/>
<text text-anchor="middle" x="194" y="-231.5" font-family="Helvetica,sans-Serif" font-size="10.00">AddRemoveMH.h</text>
</a>
</g>
</g>
<!-- Node3&#45;&gt;Node4 -->
<g id="edge3" class="edge">
<title>Node3&#45;&gt;Node4</title>
<path fill="none" stroke="midnightblue" d="M251.97,-274.62C237.53,-264.76 218.86,-251.99 206.66,-243.65"/>
<polygon fill="midnightblue" stroke="midnightblue" points="250.08,-277.57 260.31,-280.32 254.03,-271.79 250.08,-277.57"/>
</g>
<!-- Node5 -->
<g id="node5" class="node">
<title>Node5</title>
<g id="a_node5"><a xlink:href="GGMFactory_8h.html" target="_top" xlink:title=" ">
<polygon fill="white" stroke="black" points="191.5,-168.5 191.5,-187.5 274.5,-187.5 274.5,-168.5 191.5,-168.5"/>
<text text-anchor="middle" x="233" y="-175.5" font-family="Helvetica,sans-Serif" font-size="10.00">GGMFactory.h</text>
</a>
</g>
</g>
<!-- Node3&#45;&gt;Node5 -->
<g id="edge15" class="edge">
<title>Node3&#45;&gt;Node5</title>
<path fill="none" stroke="midnightblue" d="M268.45,-270.72C264.99,-257.56 259.83,-239.47 254,-224 249.13,-211.09 242.15,-196.74 237.59,-187.79"/>
<polygon fill="midnightblue" stroke="midnightblue" points="265.07,-271.63 270.94,-280.45 271.86,-269.9 265.07,-271.63"/>
</g>
<!-- Node12 -->
<g id="node12" class="node">
<title>Node12</title>
<g id="a_node12"><a xlink:href="RJMH_8h.html" target="_top" xlink:title=" ">
<polygon fill="white" stroke="black" points="301,-224.5 301,-243.5 353,-243.5 353,-224.5 301,-224.5"/>
<text text-anchor="middle" x="327" y="-231.5" font-family="Helvetica,sans-Serif" font-size="10.00">RJMH.h</text>
</a>
</g>
</g>
<!-- Node3&#45;&gt;Node12 -->
<g id="edge16" class="edge">
<title>Node3&#45;&gt;Node12</title>
<path fill="none" stroke="midnightblue" d="M289,-273C298.57,-263.43 310.36,-251.64 318.25,-243.75"/>
<polygon fill="midnightblue" stroke="midnightblue" points="286.51,-270.54 281.92,-280.08 291.46,-275.49 286.51,-270.54"/>
</g>
<!-- Node13 -->
<g id="node13" class="node">
<title>Node13</title>
<g id="a_node13"><a xlink:href="DRJMH_8h.html" target="_top" xlink:title=" ">
<polygon fill="white" stroke="black" points="66.5,-224.5 66.5,-243.5 125.5,-243.5 125.5,-224.5 66.5,-224.5"/>
<text text-anchor="middle" x="96" y="-231.5" font-family="Helvetica,sans-Serif" font-size="10.00">DRJMH.h</text>
</a>
</g>
</g>
<!-- Node3&#45;&gt;Node13 -->
<g id="edge18" class="edge">
<title>Node3&#45;&gt;Node13</title>
<path fill="none" stroke="midnightblue" d="M237.82,-278.27C204.38,-268.07 154.75,-252.92 123.94,-243.52"/>
<polygon fill="midnightblue" stroke="midnightblue" points="237.05,-281.69 247.64,-281.26 239.1,-275 237.05,-281.69"/>
</g>
<!-- Node4&#45;&gt;Node5 -->
<g id="edge4" class="edge">
<title>Node4&#45;&gt;Node5</title>
<path fill="none" stroke="midnightblue" d="M206.38,-215.86C213.14,-206.5 221.21,-195.33 226.68,-187.75"/>
<polygon fill="midnightblue" stroke="midnightblue" points="203.46,-213.93 200.44,-224.08 209.13,-218.03 203.46,-213.93"/>
</g>
<!-- Node5&#45;&gt;Node6 -->
<g id="edge5" class="edge">
<title>Node5&#45;&gt;Node6</title>
<path fill="none" stroke="midnightblue" d="M269.17,-165.3C300.64,-155.13 345.49,-140.62 373.66,-131.52"/>
<polygon fill="midnightblue" stroke="midnightblue" points="267.9,-162.04 259.46,-168.44 270.05,-168.7 267.9,-162.04"/>
</g>
<!-- Node5&#45;&gt;Node8 -->
<g id="edge14" class="edge">
<title>Node5&#45;&gt;Node8</title>
<path fill="none" stroke="midnightblue" d="M202.14,-164.25C155.83,-143.31 77.21,-99.58 111,-56 126.28,-36.29 190.09,-23.71 236.25,-17"/>
<polygon fill="midnightblue" stroke="midnightblue" points="200.91,-167.54 211.48,-168.37 203.74,-161.13 200.91,-167.54"/>
</g>
<!-- Node7 -->
<g id="node7" class="node">
<title>Node7</title>
<g id="a_node7"><a xlink:href="GibbsSamplerBase_8h.html" target="_top" xlink:title=" ">
<polygon fill="white" stroke="black" points="227,-56.5 227,-75.5 345,-75.5 345,-56.5 227,-56.5"/>
<text text-anchor="middle" x="286" y="-63.5" font-family="Helvetica,sans-Serif" font-size="10.00">GibbsSamplerBase.h</text>
</a>
</g>
</g>
<!-- Node6&#45;&gt;Node7 -->
<g id="edge6" class="edge">
<title>Node6&#45;&gt;Node7</title>
<path fill="none" stroke="midnightblue" d="M372.76,-108.1C351.46,-98.01 322.46,-84.27 303.98,-75.52"/>
<polygon fill="midnightblue" stroke="midnightblue" points="371.4,-111.33 381.94,-112.44 374.4,-105 371.4,-111.33"/>
</g>
<!-- Node9 -->
<g id="node9" class="node">
<title>Node9</title>
<g id="a_node9"><a xlink:href="PosteriorAnalysis_8h.html" target="_top" xlink:title=" ">
<polygon fill="white" stroke="black" points="545,-56.5 545,-75.5 655,-75.5 655,-56.5 545,-56.5"/>
<text text-anchor="middle" x="600" y="-63.5" font-family="Helvetica,sans-Serif" font-size="10.00">PosteriorAnalysis.h</text>
</a>
</g>
</g>
<!-- Node6&#45;&gt;Node9 -->
<g id="edge8" class="edge">
<title>Node6&#45;&gt;Node9</title>
<path fill="none" stroke="midnightblue" d="M441.37,-109.83C479.14,-99.63 534.14,-84.78 568.46,-75.52"/>
<polygon fill="midnightblue" stroke="midnightblue" points="440.43,-106.46 431.69,-112.44 442.26,-113.22 440.43,-106.46"/>
</g>
<!-- Node10 -->
<g id="node10" class="node">
<title>Node10</title>
<g id="a_node10"><a xlink:href="GibbsSamplerDebug_8h.html" target="_top" xlink:title=" ">
<polygon fill="white" stroke="black" points="363.5,-56.5 363.5,-75.5 488.5,-75.5 488.5,-56.5 363.5,-56.5"/>
<text text-anchor="middle" x="426" y="-63.5" font-family="Helvetica,sans-Serif" font-size="10.00">GibbsSamplerDebug.h</text>
</a>
</g>
</g>
<!-- Node6&#45;&gt;Node10 -->
<g id="edge10" class="edge">
<title>Node6&#45;&gt;Node10</title>
<path fill="none" stroke="midnightblue" d="M408.67,-102.98C413.09,-93.82 418.25,-83.09 421.79,-75.75"/>
<polygon fill="midnightblue" stroke="midnightblue" points="405.48,-101.55 404.29,-112.08 411.79,-104.59 405.48,-101.55"/>
</g>
<!-- Node11 -->
<g id="node11" class="node">
<title>Node11</title>
<g id="a_node11"><a xlink:href="GGMsampler_8h.html" target="_top" xlink:title=" ">
<polygon fill="white" stroke="black" points="119.5,-56.5 119.5,-75.5 208.5,-75.5 208.5,-56.5 119.5,-56.5"/>
<text text-anchor="middle" x="164" y="-63.5" font-family="Helvetica,sans-Serif" font-size="10.00">GGMsampler.h</text>
</a>
</g>
</g>
<!-- Node6&#45;&gt;Node11 -->
<g id="edge12" class="edge">
<title>Node6&#45;&gt;Node11</title>
<path fill="none" stroke="midnightblue" d="M352.59,-110.15C308,-99.95 242.15,-84.88 201.22,-75.52"/>
<polygon fill="midnightblue" stroke="midnightblue" points="352.08,-113.62 362.61,-112.44 353.64,-106.8 352.08,-113.62"/>
</g>
<!-- Node7&#45;&gt;Node8 -->
<g id="edge7" class="edge">
<title>Node7&#45;&gt;Node8</title>
<path fill="none" stroke="midnightblue" d="M286,-45.8C286,-36.91 286,-26.78 286,-19.75"/>
<polygon fill="midnightblue" stroke="midnightblue" points="282.5,-46.08 286,-56.08 289.5,-46.08 282.5,-46.08"/>
</g>
<!-- Node9&#45;&gt;Node8 -->
<g id="edge9" class="edge">
<title>Node9&#45;&gt;Node8</title>
<path fill="none" stroke="midnightblue" d="M540.27,-54.73C480.93,-44.52 391.01,-29.06 335.52,-19.52"/>
<polygon fill="midnightblue" stroke="midnightblue" points="539.8,-58.2 550.25,-56.44 540.98,-51.3 539.8,-58.2"/>
</g>
<!-- Node10&#45;&gt;Node8 -->
<g id="edge11" class="edge">
<title>Node10&#45;&gt;Node8</title>
<path fill="none" stroke="midnightblue" d="M394.3,-52.77C368,-42.63 331.28,-28.47 308.08,-19.52"/>
<polygon fill="midnightblue" stroke="midnightblue" points="393.23,-56.11 403.82,-56.44 395.75,-49.58 393.23,-56.11"/>
</g>
<!-- Node11&#45;&gt;Node8 -->
<g id="edge13" class="edge">
<title>Node11&#45;&gt;Node8</title>
<path fill="none" stroke="midnightblue" d="M192.54,-52.37C215.39,-42.26 246.81,-28.35 266.76,-19.52"/>
<polygon fill="midnightblue" stroke="midnightblue" points="191.06,-49.2 183.33,-56.44 193.89,-55.6 191.06,-49.2"/>
</g>
<!-- Node12&#45;&gt;Node5 -->
<g id="edge17" class="edge">
<title>Node12&#45;&gt;Node5</title>
<path fill="none" stroke="midnightblue" d="M302.94,-219.18C285.64,-209.24 262.85,-196.15 248.07,-187.65"/>
<polygon fill="midnightblue" stroke="midnightblue" points="301.48,-222.38 311.9,-224.32 304.97,-216.31 301.48,-222.38"/>
</g>
<!-- Node13&#45;&gt;Node5 -->
<g id="edge19" class="edge">
<title>Node13&#45;&gt;Node5</title>
<path fill="none" stroke="midnightblue" d="M127.02,-220.77C152.76,-210.63 188.69,-196.47 211.39,-187.52"/>
<polygon fill="midnightblue" stroke="midnightblue" points="125.73,-217.52 117.71,-224.44 128.29,-224.03 125.73,-217.52"/>
</g>
<!-- Node14&#45;&gt;Node2 -->
<g id="edge21" class="edge">
<title>Node14&#45;&gt;Node2</title>
<path fill="none" stroke="midnightblue" d="M381.17,-528.11C401.07,-538.12 425.82,-551.62 440.05,-560.32"/>
<polygon fill="midnightblue" stroke="midnightblue" points="382.65,-524.94 372.14,-523.65 379.55,-531.22 382.65,-524.94"/>
</g>
<!-- Node16 -->
<g id="node16" class="node">
<title>Node16</title>
<g id="a_node16"><a xlink:href="include__helpers_8h.html" target="_top" xlink:title=" ">
<polygon fill="white" stroke="black" points="448,-392.5 448,-411.5 550,-411.5 550,-392.5 448,-392.5"/>
<text text-anchor="middle" x="499" y="-399.5" font-family="Helvetica,sans-Serif" font-size="10.00">include_helpers.h</text>
</a>
</g>
</g>
<!-- Node15&#45;&gt;Node16 -->
<g id="edge23" class="edge">
<title>Node15&#45;&gt;Node16</title>
<path fill="none" stroke="midnightblue" d="M523.55,-494.08C520.45,-481.09 516.13,-463.46 512,-448 508.6,-435.27 504.29,-420.63 501.59,-411.6"/>
<polygon fill="midnightblue" stroke="midnightblue" points="520.23,-495.22 525.94,-504.14 527.04,-493.6 520.23,-495.22"/>
</g>
<!-- Node15&#45;&gt;Node20 -->
<g id="edge35" class="edge">
<title>Node15&#45;&gt;Node20</title>
<path fill="none" stroke="midnightblue" d="M510.53,-497.54C499.66,-487.91 486.06,-475.87 476.98,-467.83"/>
<polygon fill="midnightblue" stroke="midnightblue" points="508.39,-500.32 518.2,-504.32 513.03,-495.07 508.39,-500.32"/>
</g>
<!-- Node15&#45;&gt;Node21 -->
<g id="edge37" class="edge">
<title>Node15&#45;&gt;Node21</title>
<path fill="none" stroke="midnightblue" d="M546.55,-497.82C558.38,-488.15 573.29,-475.95 583.2,-467.83"/>
<polygon fill="midnightblue" stroke="midnightblue" points="544.13,-495.28 538.6,-504.32 548.56,-500.7 544.13,-495.28"/>
</g>
<!-- Node16&#45;&gt;Node3 -->
<g id="edge24" class="edge">
<title>Node16&#45;&gt;Node3</title>
<path fill="none" stroke="midnightblue" d="M472.04,-387.88C425.2,-365.08 330.02,-318.75 290.65,-299.59"/>
<polygon fill="midnightblue" stroke="midnightblue" points="470.74,-391.14 481.27,-392.37 473.81,-384.85 470.74,-391.14"/>
</g>
<!-- Node16&#45;&gt;Node6 -->
<g id="edge30" class="edge">
<title>Node16&#45;&gt;Node6</title>
<path fill="none" stroke="midnightblue" d="M493.51,-382.41C487.59,-360.68 479,-323.56 479,-291 479,-291 479,-291 479,-233 479,-187.86 434.56,-148.55 412.34,-131.72"/>
<polygon fill="midnightblue" stroke="midnightblue" points="490.21,-383.59 496.3,-392.26 496.94,-381.68 490.21,-383.59"/>
</g>
<!-- Node16&#45;&gt;Node8 -->
<g id="edge29" class="edge">
<title>Node16&#45;&gt;Node8</title>
<path fill="none" stroke="midnightblue" d="M503.94,-382.37C509.27,-360.62 517,-323.46 517,-291 517,-291 517,-291 517,-121 517,-90.9 520.07,-76.47 498,-56 474.83,-34.51 390.77,-21.84 335.72,-15.68"/>
<polygon fill="midnightblue" stroke="midnightblue" points="500.51,-381.68 501.43,-392.24 507.29,-383.41 500.51,-381.68"/>
</g>
<!-- Node16&#45;&gt;Node17 -->
<g id="edge25" class="edge">
<title>Node16&#45;&gt;Node17</title>
<path fill="none" stroke="midnightblue" d="M457.63,-389.83C419.86,-379.63 364.86,-364.78 330.54,-355.52"/>
<polygon fill="midnightblue" stroke="midnightblue" points="456.74,-393.22 467.31,-392.44 458.57,-386.46 456.74,-393.22"/>
</g>
<!-- Node16&#45;&gt;Node18 -->
<g id="edge31" class="edge">
<title>Node16&#45;&gt;Node18</title>
<path fill="none" stroke="midnightblue" d="M529.45,-388.64C554.41,-378.5 589.08,-364.43 611.02,-355.52"/>
<polygon fill="midnightblue" stroke="midnightblue" points="528.02,-385.44 520.07,-392.44 530.66,-391.92 528.02,-385.44"/>
</g>
<!-- Node17&#45;&gt;Node3 -->
<g id="edge26" class="edge">
<title>Node17&#45;&gt;Node3</title>
<path fill="none" stroke="midnightblue" d="M290.33,-326.98C285.91,-317.82 280.75,-307.09 277.21,-299.75"/>
<polygon fill="midnightblue" stroke="midnightblue" points="287.21,-328.59 294.71,-336.08 293.52,-325.55 287.21,-328.59"/>
</g>
<!-- Node17&#45;&gt;Node6 -->
<g id="edge28" class="edge">
<title>Node17&#45;&gt;Node6</title>
<path fill="none" stroke="midnightblue" d="M311.42,-328.1C325.27,-308.63 347.61,-275.28 362,-244 380.49,-203.79 393.37,-152.13 398.05,-131.79"/>
<polygon fill="midnightblue" stroke="midnightblue" points="308.55,-326.09 305.54,-336.24 314.23,-330.18 308.55,-326.09"/>
</g>
<!-- Node17&#45;&gt;Node8 -->
<g id="edge27" class="edge">
<title>Node17&#45;&gt;Node8</title>
<path fill="none" stroke="midnightblue" d="M250.26,-345.31C174.72,-342.96 38,-326.11 38,-235 38,-235 38,-235 38,-121 38,-35.04 164.04,-15.74 236.41,-11.74"/>
<polygon fill="midnightblue" stroke="midnightblue" points="250.41,-348.82 260.49,-345.56 250.57,-341.82 250.41,-348.82"/>
</g>
<!-- Node18&#45;&gt;Node9 -->
<g id="edge32" class="edge">
<title>Node18&#45;&gt;Node9</title>
<path fill="none" stroke="midnightblue" d="M624.97,-326.83C617.27,-305.27 606,-268.07 606,-235 606,-235 606,-235 606,-177 606,-139.13 602.41,-94.04 600.78,-75.55"/>
<polygon fill="midnightblue" stroke="midnightblue" points="621.73,-328.17 628.49,-336.32 628.29,-325.73 621.73,-328.17"/>
</g>
<!-- Node19 -->
<g id="node19" class="node">
<title>Node19</title>
<g id="a_node19"><a xlink:href="FLMsampler_8h.html" target="_top" xlink:title=" ">
<polygon fill="white" stroke="black" points="637.5,-168.5 637.5,-187.5 722.5,-187.5 722.5,-168.5 637.5,-168.5"/>
<text text-anchor="middle" x="680" y="-175.5" font-family="Helvetica,sans-Serif" font-size="10.00">FLMsampler.h</text>
</a>
</g>
</g>
<!-- Node18&#45;&gt;Node19 -->
<g id="edge33" class="edge">
<title>Node18&#45;&gt;Node19</title>
<path fill="none" stroke="midnightblue" d="M637.38,-326.39C647.73,-290.59 670.07,-213.34 677.52,-187.57"/>
<polygon fill="midnightblue" stroke="midnightblue" points="634,-325.5 634.58,-336.08 640.72,-327.44 634,-325.5"/>
</g>
<!-- Node19&#45;&gt;Node8 -->
<g id="edge34" class="edge">
<title>Node19&#45;&gt;Node8</title>
<path fill="none" stroke="midnightblue" d="M683.77,-158.53C688.02,-131.87 691.18,-82.83 664,-56 641.01,-33.31 432.69,-19.03 335.5,-13.55"/>
<polygon fill="midnightblue" stroke="midnightblue" points="680.31,-158 681.96,-168.47 687.19,-159.25 680.31,-158"/>
</g>
<!-- Node20&#45;&gt;Node16 -->
<g id="edge36" class="edge">
<title>Node20&#45;&gt;Node16</title>
<path fill="none" stroke="midnightblue" d="M477.5,-439.27C482.97,-430.05 489.42,-419.17 493.81,-411.75"/>
<polygon fill="midnightblue" stroke="midnightblue" points="474.37,-437.7 472.28,-448.08 480.39,-441.26 474.37,-437.7"/>
</g>
<!-- Node21&#45;&gt;Node16 -->
<g id="edge38" class="edge">
<title>Node21&#45;&gt;Node16</title>
<path fill="none" stroke="midnightblue" d="M569.68,-443.18C552.2,-433.24 529.17,-420.15 514.23,-411.65"/>
<polygon fill="midnightblue" stroke="midnightblue" points="568.31,-446.43 578.74,-448.32 571.77,-440.34 568.31,-446.43"/>
</g>
</g>
</svg>
        <g id="navigator" transform="translate(0 0)" fill="#404254">
                <rect fill="#f2f5e9" fill-opacity="0.5" stroke="#606060" stroke-width=".5" x="0" y="0" width="60" height="60"/>
                <use id="zoomplus" xlink:href="#zoomPlus" x="17" y="9" onmousedown="handleZoom(evt,'in')"/>
                <use id="zoomminus" xlink:href="#zoomMin" x="42" y="9" onmousedown="handleZoom(evt,'out')"/>
                <use id="reset" xlink:href="#resetDef" x="30" y="36" onmousedown="handleReset()"/>
                <g id="arrowUp" xlink:href="#dirArrow" transform="translate(30 24)" onmousedown="handlePan(0,-1)">
                  <use xlink:href="#rim" fill="#404040">
                        <set attributeName="fill" to="#808080" begin="arrowUp.mouseover" end="arrowUp.mouseout"/>
                  </use>
                  <path fill="none" stroke="white" stroke-width="1.5" d="M0,-3.0v7 M-2.5,-0.5L0,-3.0L2.5,-0.5"/>
                </g>
                <g id="arrowRight" xlink:href="#dirArrow" transform="rotate(90) translate(36 -43)" onmousedown="handlePan(1,0)">
                  <use xlink:href="#rim" fill="#404040">
                        <set attributeName="fill" to="#808080" begin="arrowRight.mouseover" end="arrowRight.mouseout"/>
                  </use>
                  <path fill="none" stroke="white" stroke-width="1.5" d="M0,-3.0v7 M-2.5,-0.5L0,-3.0L2.5,-0.5"/>
                </g>
                <g id="arrowDown" xlink:href="#dirArrow" transform="rotate(180) translate(-30 -48)" onmousedown="handlePan(0,1)">
                  <use xlink:href="#rim" fill="#404040">
                        <set attributeName="fill" to="#808080" begin="arrowDown.mouseover" end="arrowDown.mouseout"/>
                  </use>
                  <path fill="none" stroke="white" stroke-width="1.5" d="M0,-3.0v7 M-2.5,-0.5L0,-3.0L2.5,-0.5"/>
                </g>
                <g id="arrowLeft" xlink:href="#dirArrow" transform="rotate(270) translate(-36 17)" onmousedown="handlePan(-1,0)">
                  <use xlink:href="#rim" fill="#404040">
                        <set attributeName="fill" to="#808080" begin="arrowLeft.mouseover" end="arrowLeft.mouseout"/>
                  </use>
                  <path fill="none" stroke="white" stroke-width="1.5" d="M0,-3.0v7 M-2.5,-0.5L0,-3.0L2.5,-0.5"/>
                </g>
        </g>
        <svg viewBox="0 0 15 15" width="100%" height="30px" preserveAspectRatio="xMaxYMin meet">
         <g id="arrow_out" transform="scale(0.3 0.3)">
          <a xlink:href="GraphType_8h__dep__incl_org.svg" target="_base">
           <rect id="button" ry="5" rx="5" y="6" x="6" height="38" width="38"
                fill="#f2f5e9" fill-opacity="0.5" stroke="#606060" stroke-width="1.0"/>
           <path id="arrow"
             d="M 11.500037,31.436501 C 11.940474,20.09759 22.043105,11.32322 32.158766,21.979434 L 37.068811,17.246167 C 37.068811,17.246167 37.088388,32 37.088388,32 L 22.160133,31.978069 C 22.160133,31.978069 26.997745,27.140456 26.997745,27.140456 C 18.528582,18.264221 13.291696,25.230495 11.500037,31.436501 z"
             style="fill:#404040;"/>
          </a>
         </g>
        </svg>
</svg>
