<?xml version="1.0" encoding="UTF-8" standalone="no"?>
<!DOCTYPE svg PUBLIC "-//W3C//DTD SVG 1.1//EN"
 "http://www.w3.org/Graphics/SVG/1.1/DTD/svg11.dtd">
<!-- Generated by graphviz version 2.43.0 (0)
 -->
<!-- Title: GraphPrior.h Pages: 1 -->
<svg width="554pt" height="364pt"
 viewBox="0.00 0.00 553.52 364.00" xmlns="http://www.w3.org/2000/svg" xmlns:xlink="http://www.w3.org/1999/xlink">
<g id="graph0" class="graph" transform="scale(1 1) rotate(0) translate(4 360)">
<title>GraphPrior.h</title>
<polygon fill="white" stroke="transparent" points="-4,4 -4,-360 549.52,-360 549.52,4 -4,4"/>
<!-- Node1 -->
<g id="node1" class="node">
<title>Node1</title>
<g id="a_node1"><a xlink:title=" ">
<polygon fill="#bfbfbf" stroke="black" points="313.16,-336.5 313.16,-355.5 390.16,-355.5 390.16,-336.5 313.16,-336.5"/>
<text text-anchor="middle" x="351.66" y="-343.5" font-family="Helvetica,sans-Serif" font-size="10.00">GraphPrior.h</text>
</a>
</g>
</g>
<!-- Node2 -->
<g id="node2" class="node">
<title>Node2</title>
<g id="a_node2"><a xlink:href="GGM_8h.html" target="_top" xlink:title=" ">
<polygon fill="white" stroke="black" points="209.66,-280.5 209.66,-299.5 259.66,-299.5 259.66,-280.5 209.66,-280.5"/>
<text text-anchor="middle" x="234.66" y="-287.5" font-family="Helvetica,sans-Serif" font-size="10.00">GGM.h</text>
</a>
</g>
</g>
<!-- Node1&#45;&gt;Node2 -->
<g id="edge1" class="edge">
<title>Node1&#45;&gt;Node2</title>
<path fill="none" stroke="midnightblue" d="M324,-332.23C302.11,-322.13 272.17,-308.31 253.12,-299.52"/>
<polygon fill="midnightblue" stroke="midnightblue" points="322.58,-335.43 333.12,-336.44 325.51,-329.08 322.58,-335.43"/>
</g>
<!-- Node5 -->
<g id="node5" class="node">
<title>Node5</title>
<g id="a_node5"><a xlink:href="SamplerOptions_8h.html" target="_top" xlink:title=" ">
<polygon fill="white" stroke="black" points="216.66,-112.5 216.66,-131.5 320.66,-131.5 320.66,-112.5 216.66,-112.5"/>
<text text-anchor="middle" x="268.66" y="-119.5" font-family="Helvetica,sans-Serif" font-size="10.00">SamplerOptions.h</text>
</a>
</g>
</g>
<!-- Node1&#45;&gt;Node5 -->
<g id="edge20" class="edge">
<title>Node1&#45;&gt;Node5</title>
<path fill="none" stroke="midnightblue" d="M345.63,-326.66C337.72,-302.86 323.25,-260.11 309.66,-224 296.67,-189.46 279.68,-148.94 272.32,-131.59"/>
<polygon fill="midnightblue" stroke="midnightblue" points="342.4,-328.04 348.86,-336.44 349.04,-325.84 342.4,-328.04"/>
</g>
<!-- Node7 -->
<g id="node7" class="node">
<title>Node7</title>
<g id="a_node7"><a xlink:href="BGSL__export_8cpp.html" target="_top" xlink:title=" ">
<polygon fill="white" stroke="black" points="219.16,-0.5 219.16,-19.5 318.16,-19.5 318.16,-0.5 219.16,-0.5"/>
<text text-anchor="middle" x="268.66" y="-7.5" font-family="Helvetica,sans-Serif" font-size="10.00">BGSL_export.cpp</text>
</a>
</g>
</g>
<!-- Node1&#45;&gt;Node7 -->
<g id="edge19" class="edge">
<title>Node1&#45;&gt;Node7</title>
<path fill="none" stroke="midnightblue" d="M400.2,-338.7C457.38,-328.24 544.66,-301.4 544.66,-235 544.66,-235 544.66,-235 544.66,-121 544.66,-90.9 548.09,-76.07 525.66,-56 495.75,-29.23 384.05,-17.96 318.17,-13.56"/>
<polygon fill="midnightblue" stroke="midnightblue" points="399.52,-335.26 390.26,-340.41 400.71,-342.16 399.52,-335.26"/>
</g>
<!-- Node3 -->
<g id="node3" class="node">
<title>Node3</title>
<g id="a_node3"><a xlink:href="AddRemoveMH_8h.html" target="_top" xlink:title=" ">
<polygon fill="white" stroke="black" points="184.16,-224.5 184.16,-243.5 285.16,-243.5 285.16,-224.5 184.16,-224.5"/>
<text text-anchor="middle" x="234.66" y="-231.5" font-family="Helvetica,sans-Serif" font-size="10.00">AddRemoveMH.h</text>
</a>
</g>
</g>
<!-- Node2&#45;&gt;Node3 -->
<g id="edge2" class="edge">
<title>Node2&#45;&gt;Node3</title>
<path fill="none" stroke="midnightblue" d="M234.66,-269.8C234.66,-260.91 234.66,-250.78 234.66,-243.75"/>
<polygon fill="midnightblue" stroke="midnightblue" points="231.16,-270.08 234.66,-280.08 238.16,-270.08 231.16,-270.08"/>
</g>
<!-- Node4 -->
<g id="node4" class="node">
<title>Node4</title>
<g id="a_node4"><a xlink:href="GGMFactory_8h.html" target="_top" xlink:title=" ">
<polygon fill="white" stroke="black" points="144.16,-168.5 144.16,-187.5 227.16,-187.5 227.16,-168.5 144.16,-168.5"/>
<text text-anchor="middle" x="185.66" y="-175.5" font-family="Helvetica,sans-Serif" font-size="10.00">GGMFactory.h</text>
</a>
</g>
</g>
<!-- Node2&#45;&gt;Node4 -->
<g id="edge14" class="edge">
<title>Node2&#45;&gt;Node4</title>
<path fill="none" stroke="midnightblue" d="M262.28,-275.42C283.71,-262.96 307.74,-243.55 294.66,-224 279.69,-201.62 251.34,-190.36 227.31,-184.7"/>
<polygon fill="midnightblue" stroke="midnightblue" points="260.45,-272.42 253.37,-280.3 263.82,-278.56 260.45,-272.42"/>
</g>
<!-- Node11 -->
<g id="node11" class="node">
<title>Node11</title>
<g id="a_node11"><a xlink:href="RJMH_8h.html" target="_top" xlink:title=" ">
<polygon fill="white" stroke="black" points="36.66,-224.5 36.66,-243.5 88.66,-243.5 88.66,-224.5 36.66,-224.5"/>
<text text-anchor="middle" x="62.66" y="-231.5" font-family="Helvetica,sans-Serif" font-size="10.00">RJMH.h</text>
</a>
</g>
</g>
<!-- Node2&#45;&gt;Node11 -->
<g id="edge15" class="edge">
<title>Node2&#45;&gt;Node11</title>
<path fill="none" stroke="midnightblue" d="M200,-278.12C167.16,-267.81 118.55,-252.55 88.83,-243.22"/>
<polygon fill="midnightblue" stroke="midnightblue" points="199.06,-281.49 209.65,-281.15 201.16,-274.81 199.06,-281.49"/>
</g>
<!-- Node12 -->
<g id="node12" class="node">
<title>Node12</title>
<g id="a_node12"><a xlink:href="DRJMH_8h.html" target="_top" xlink:title=" ">
<polygon fill="white" stroke="black" points="107.16,-224.5 107.16,-243.5 166.16,-243.5 166.16,-224.5 107.16,-224.5"/>
<text text-anchor="middle" x="136.66" y="-231.5" font-family="Helvetica,sans-Serif" font-size="10.00">DRJMH.h</text>
</a>
</g>
</g>
<!-- Node2&#45;&gt;Node12 -->
<g id="edge17" class="edge">
<title>Node2&#45;&gt;Node12</title>
<path fill="none" stroke="midnightblue" d="M210.08,-275.45C191.99,-265.48 167.93,-252.23 152.37,-243.65"/>
<polygon fill="midnightblue" stroke="midnightblue" points="208.47,-278.56 218.92,-280.32 211.85,-272.43 208.47,-278.56"/>
</g>
<!-- Node3&#45;&gt;Node4 -->
<g id="edge3" class="edge">
<title>Node3&#45;&gt;Node4</title>
<path fill="none" stroke="midnightblue" d="M219.63,-216.43C211.04,-206.97 200.62,-195.48 193.6,-187.75"/>
<polygon fill="midnightblue" stroke="midnightblue" points="217.26,-219.03 226.57,-224.08 222.44,-214.33 217.26,-219.03"/>
</g>
<!-- Node4&#45;&gt;Node5 -->
<g id="edge4" class="edge">
<title>Node4&#45;&gt;Node5</title>
<path fill="none" stroke="midnightblue" d="M207.76,-162.62C222.93,-152.76 242.55,-139.99 255.36,-131.65"/>
<polygon fill="midnightblue" stroke="midnightblue" points="205.47,-159.94 199,-168.32 209.29,-165.8 205.47,-159.94"/>
</g>
<!-- Node4&#45;&gt;Node7 -->
<g id="edge13" class="edge">
<title>Node4&#45;&gt;Node7</title>
<path fill="none" stroke="midnightblue" d="M140.59,-165.75C75.4,-147.38 -32.86,-107.77 10.66,-56 36.74,-24.98 151.59,-15.34 218.94,-12.35"/>
<polygon fill="midnightblue" stroke="midnightblue" points="139.69,-169.13 150.26,-168.41 141.54,-162.38 139.69,-169.13"/>
</g>
<!-- Node6 -->
<g id="node6" class="node">
<title>Node6</title>
<g id="a_node6"><a xlink:href="GibbsSamplerBase_8h.html" target="_top" xlink:title=" ">
<polygon fill="white" stroke="black" points="270.66,-56.5 270.66,-75.5 388.66,-75.5 388.66,-56.5 270.66,-56.5"/>
<text text-anchor="middle" x="329.66" y="-63.5" font-family="Helvetica,sans-Serif" font-size="10.00">GibbsSamplerBase.h</text>
</a>
</g>
</g>
<!-- Node5&#45;&gt;Node6 -->
<g id="edge5" class="edge">
<title>Node5&#45;&gt;Node6</title>
<path fill="none" stroke="midnightblue" d="M286.13,-105.54C297.01,-95.91 310.61,-83.87 319.68,-75.83"/>
<polygon fill="midnightblue" stroke="midnightblue" points="283.63,-103.07 278.46,-112.32 288.27,-108.32 283.63,-103.07"/>
</g>
<!-- Node8 -->
<g id="node8" class="node">
<title>Node8</title>
<g id="a_node8"><a xlink:href="PosteriorAnalysis_8h.html" target="_top" xlink:title=" ">
<polygon fill="white" stroke="black" points="406.66,-56.5 406.66,-75.5 516.66,-75.5 516.66,-56.5 406.66,-56.5"/>
<text text-anchor="middle" x="461.66" y="-63.5" font-family="Helvetica,sans-Serif" font-size="10.00">PosteriorAnalysis.h</text>
</a>
</g>
</g>
<!-- Node5&#45;&gt;Node8 -->
<g id="edge7" class="edge">
<title>Node5&#45;&gt;Node8</title>
<path fill="none" stroke="midnightblue" d="M309.06,-109.7C345.48,-99.51 398.25,-84.74 431.23,-75.52"/>
<polygon fill="midnightblue" stroke="midnightblue" points="307.93,-106.38 299.25,-112.44 309.82,-113.12 307.93,-106.38"/>
</g>
<!-- Node9 -->
<g id="node9" class="node">
<title>Node9</title>
<g id="a_node9"><a xlink:href="GibbsSamplerDebug_8h.html" target="_top" xlink:title=" ">
<polygon fill="white" stroke="black" points="20.16,-56.5 20.16,-75.5 145.16,-75.5 145.16,-56.5 20.16,-56.5"/>
<text text-anchor="middle" x="82.66" y="-63.5" font-family="Helvetica,sans-Serif" font-size="10.00">GibbsSamplerDebug.h</text>
</a>
</g>
</g>
<!-- Node5&#45;&gt;Node9 -->
<g id="edge9" class="edge">
<title>Node5&#45;&gt;Node9</title>
<path fill="none" stroke="midnightblue" d="M229.29,-109.57C194.2,-99.38 143.64,-84.7 112,-75.52"/>
<polygon fill="midnightblue" stroke="midnightblue" points="228.61,-113.02 239.19,-112.44 230.56,-106.29 228.61,-113.02"/>
</g>
<!-- Node10 -->
<g id="node10" class="node">
<title>Node10</title>
<g id="a_node10"><a xlink:href="GGMsampler_8h.html" target="_top" xlink:title=" ">
<polygon fill="white" stroke="black" points="163.16,-56.5 163.16,-75.5 252.16,-75.5 252.16,-56.5 163.16,-56.5"/>
<text text-anchor="middle" x="207.66" y="-63.5" font-family="Helvetica,sans-Serif" font-size="10.00">GGMsampler.h</text>
</a>
</g>
</g>
<!-- Node5&#45;&gt;Node10 -->
<g id="edge11" class="edge">
<title>Node5&#45;&gt;Node10</title>
<path fill="none" stroke="midnightblue" d="M251.2,-105.54C240.32,-95.91 226.72,-83.87 217.64,-75.83"/>
<polygon fill="midnightblue" stroke="midnightblue" points="249.06,-108.32 258.86,-112.32 253.7,-103.07 249.06,-108.32"/>
</g>
<!-- Node6&#45;&gt;Node7 -->
<g id="edge6" class="edge">
<title>Node6&#45;&gt;Node7</title>
<path fill="none" stroke="midnightblue" d="M312.2,-49.54C301.32,-39.91 287.72,-27.87 278.64,-19.83"/>
<polygon fill="midnightblue" stroke="midnightblue" points="310.06,-52.32 319.86,-56.32 314.7,-47.07 310.06,-52.32"/>
</g>
<!-- Node8&#45;&gt;Node7 -->
<g id="edge8" class="edge">
<title>Node8&#45;&gt;Node7</title>
<path fill="none" stroke="midnightblue" d="M421.27,-53.7C384.85,-43.51 332.08,-28.74 299.1,-19.52"/>
<polygon fill="midnightblue" stroke="midnightblue" points="420.51,-57.12 431.08,-56.44 422.4,-50.38 420.51,-57.12"/>
</g>
<!-- Node9&#45;&gt;Node7 -->
<g id="edge10" class="edge">
<title>Node9&#45;&gt;Node7</title>
<path fill="none" stroke="midnightblue" d="M122.04,-53.57C157.13,-43.38 207.69,-28.7 239.33,-19.52"/>
<polygon fill="midnightblue" stroke="midnightblue" points="120.76,-50.29 112.14,-56.44 122.72,-57.02 120.76,-50.29"/>
</g>
<!-- Node10&#45;&gt;Node7 -->
<g id="edge12" class="edge">
<title>Node10&#45;&gt;Node7</title>
<path fill="none" stroke="midnightblue" d="M225.13,-49.54C236.01,-39.91 249.61,-27.87 258.68,-19.83"/>
<polygon fill="midnightblue" stroke="midnightblue" points="222.63,-47.07 217.46,-56.32 227.27,-52.32 222.63,-47.07"/>
</g>
<!-- Node11&#45;&gt;Node4 -->
<g id="edge16" class="edge">
<title>Node11&#45;&gt;Node4</title>
<path fill="none" stroke="midnightblue" d="M91.44,-220.37C114.47,-210.26 146.15,-196.35 166.27,-187.52"/>
<polygon fill="midnightblue" stroke="midnightblue" points="89.9,-217.22 82.15,-224.44 92.72,-223.63 89.9,-217.22"/>
</g>
<!-- Node12&#45;&gt;Node4 -->
<g id="edge18" class="edge">
<title>Node12&#45;&gt;Node4</title>
<path fill="none" stroke="midnightblue" d="M151.7,-216.43C160.29,-206.97 170.71,-195.48 177.72,-187.75"/>
<polygon fill="midnightblue" stroke="midnightblue" points="148.88,-214.33 144.76,-224.08 154.07,-219.03 148.88,-214.33"/>
</g>
</g>
</svg>
