<?xml version="1.0" encoding="UTF-8" standalone="no"?>
<!DOCTYPE svg PUBLIC "-//W3C//DTD SVG 1.1//EN"
 "http://www.w3.org/Graphics/SVG/1.1/DTD/svg11.dtd">
<!-- Generated by graphviz version 2.43.0 (0)
 -->
<!-- Title: Groups.h Pages: 1 -->
<svg width="901pt" height="700pt"
 viewBox="0.00 0.00 900.50 700.00" xmlns="http://www.w3.org/2000/svg" xmlns:xlink="http://www.w3.org/1999/xlink">
<g id="graph0" class="graph" transform="scale(1 1) rotate(0) translate(4 696)">
<title>Groups.h</title>
<polygon fill="white" stroke="transparent" points="-4,4 -4,-696 896.5,-696 896.5,4 -4,4"/>
<!-- Node1 -->
<g id="node1" class="node">
<title>Node1</title>
<g id="a_node1"><a xlink:title=" ">
<polygon fill="#bfbfbf" stroke="black" points="456,-672.5 456,-691.5 516,-691.5 516,-672.5 456,-672.5"/>
<text text-anchor="middle" x="486" y="-679.5" font-family="Helvetica,sans-Serif" font-size="10.00">Groups.h</text>
</a>
</g>
</g>
<!-- Node2 -->
<g id="node2" class="node">
<title>Node2</title>
<g id="a_node2"><a xlink:href="include__graphs_8h.html" target="_top" xlink:title=" ">
<polygon fill="white" stroke="black" points="401.5,-560.5 401.5,-579.5 500.5,-579.5 500.5,-560.5 401.5,-560.5"/>
<text text-anchor="middle" x="451" y="-567.5" font-family="Helvetica,sans-Serif" font-size="10.00">include_graphs.h</text>
</a>
</g>
</g>
<!-- Node1&#45;&gt;Node2 -->
<g id="edge1" class="edge">
<title>Node1&#45;&gt;Node2</title>
<path fill="none" stroke="midnightblue" d="M480.88,-662.44C477.21,-649.39 472.03,-631.56 467,-616 462.86,-603.22 457.56,-588.59 454.21,-579.58"/>
<polygon fill="midnightblue" stroke="midnightblue" points="477.52,-663.43 483.58,-672.12 484.26,-661.55 477.52,-663.43"/>
</g>
<!-- Node24 -->
<g id="node24" class="node">
<title>Node24</title>
<g id="a_node24"><a xlink:href="BlockGraph_8h.html" target="_top" xlink:title=" ">
<polygon fill="white" stroke="black" points="376,-616.5 376,-635.5 458,-635.5 458,-616.5 376,-616.5"/>
<text text-anchor="middle" x="417" y="-623.5" font-family="Helvetica,sans-Serif" font-size="10.00">BlockGraph.h</text>
</a>
</g>
</g>
<!-- Node1&#45;&gt;Node24 -->
<g id="edge47" class="edge">
<title>Node1&#45;&gt;Node24</title>
<path fill="none" stroke="midnightblue" d="M466.96,-666.1C454.54,-656.38 438.76,-644.03 428.29,-635.83"/>
<polygon fill="midnightblue" stroke="midnightblue" points="464.88,-668.92 474.91,-672.32 469.2,-663.4 464.88,-668.92"/>
</g>
<!-- Node25 -->
<g id="node25" class="node">
<title>Node25</title>
<g id="a_node25"><a xlink:href="Groups_8cpp.html" target="_top" xlink:title=" ">
<polygon fill="white" stroke="black" points="514.5,-616.5 514.5,-635.5 585.5,-635.5 585.5,-616.5 514.5,-616.5"/>
<text text-anchor="middle" x="550" y="-623.5" font-family="Helvetica,sans-Serif" font-size="10.00">Groups.cpp</text>
</a>
</g>
</g>
<!-- Node1&#45;&gt;Node25 -->
<g id="edge49" class="edge">
<title>Node1&#45;&gt;Node25</title>
<path fill="none" stroke="midnightblue" d="M503.99,-665.82C515.46,-656.15 529.91,-643.95 539.53,-635.83"/>
<polygon fill="midnightblue" stroke="midnightblue" points="501.67,-663.2 496.28,-672.32 506.18,-668.55 501.67,-663.2"/>
</g>
<!-- Node3 -->
<g id="node3" class="node">
<title>Node3</title>
<g id="a_node3"><a xlink:href="GGM_8h.html" target="_top" xlink:title=" ">
<polygon fill="white" stroke="black" points="248,-280.5 248,-299.5 298,-299.5 298,-280.5 248,-280.5"/>
<text text-anchor="middle" x="273" y="-287.5" font-family="Helvetica,sans-Serif" font-size="10.00">GGM.h</text>
</a>
</g>
</g>
<!-- Node2&#45;&gt;Node3 -->
<g id="edge2" class="edge">
<title>Node2&#45;&gt;Node3</title>
<path fill="none" stroke="midnightblue" d="M391.17,-564.28C326.33,-555.52 232,-530.48 232,-459 232,-459 232,-459 232,-401 232,-361.05 256.03,-317.8 267.3,-299.71"/>
<polygon fill="midnightblue" stroke="midnightblue" points="390.95,-567.78 401.31,-565.55 391.82,-560.84 390.95,-567.78"/>
</g>
<!-- Node6 -->
<g id="node6" class="node">
<title>Node6</title>
<g id="a_node6"><a xlink:href="SamplerOptions_8h.html" target="_top" xlink:title=" ">
<polygon fill="white" stroke="black" points="348,-112.5 348,-131.5 452,-131.5 452,-112.5 348,-112.5"/>
<text text-anchor="middle" x="400" y="-119.5" font-family="Helvetica,sans-Serif" font-size="10.00">SamplerOptions.h</text>
</a>
</g>
</g>
<!-- Node2&#45;&gt;Node6 -->
<g id="edge43" class="edge">
<title>Node2&#45;&gt;Node6</title>
<path fill="none" stroke="midnightblue" d="M444.5,-550.86C437.64,-530.85 427.13,-497.57 422,-468 410.29,-400.44 401.96,-178.62 400.3,-131.75"/>
<polygon fill="midnightblue" stroke="midnightblue" points="441.27,-552.22 447.88,-560.5 447.88,-549.9 441.27,-552.22"/>
</g>
<!-- Node8 -->
<g id="node8" class="node">
<title>Node8</title>
<g id="a_node8"><a xlink:href="BGSL__export_8cpp.html" target="_top" xlink:title=" ">
<polygon fill="white" stroke="black" points="236.5,-0.5 236.5,-19.5 335.5,-19.5 335.5,-0.5 236.5,-0.5"/>
<text text-anchor="middle" x="286" y="-7.5" font-family="Helvetica,sans-Serif" font-size="10.00">BGSL_export.cpp</text>
</a>
</g>
</g>
<!-- Node2&#45;&gt;Node8 -->
<g id="edge42" class="edge">
<title>Node2&#45;&gt;Node8</title>
<path fill="none" stroke="midnightblue" d="M391.1,-566.86C268.41,-560.84 0,-538.58 0,-459 0,-459 0,-459 0,-121 0,-84 20.33,-75.12 52,-56 108.85,-21.69 186.39,-12.71 236.34,-10.79"/>
<polygon fill="midnightblue" stroke="midnightblue" points="391.29,-570.37 401.45,-567.35 391.62,-563.38 391.29,-570.37"/>
</g>
<!-- Node14 -->
<g id="node14" class="node">
<title>Node14</title>
<g id="a_node14"><a xlink:href="BlockGraphCRTP_8h.html" target="_top" xlink:title=" ">
<polygon fill="white" stroke="black" points="298.5,-504.5 298.5,-523.5 403.5,-523.5 403.5,-504.5 298.5,-504.5"/>
<text text-anchor="middle" x="351" y="-511.5" font-family="Helvetica,sans-Serif" font-size="10.00">BlockGraphCRTP.h</text>
</a>
</g>
</g>
<!-- Node2&#45;&gt;Node14 -->
<g id="edge20" class="edge">
<title>Node2&#45;&gt;Node14</title>
<path fill="none" stroke="midnightblue" d="M420.78,-555.86C400.87,-545.85 376.13,-532.35 361.92,-523.65"/>
<polygon fill="midnightblue" stroke="midnightblue" points="419.3,-559.03 429.82,-560.32 422.4,-552.76 419.3,-559.03"/>
</g>
<!-- Node15 -->
<g id="node15" class="node">
<title>Node15</title>
<g id="a_node15"><a xlink:href="utils_8h.html" target="_top" xlink:title=" ">
<polygon fill="white" stroke="black" points="504.5,-504.5 504.5,-523.5 551.5,-523.5 551.5,-504.5 504.5,-504.5"/>
<text text-anchor="middle" x="528" y="-511.5" font-family="Helvetica,sans-Serif" font-size="10.00">utils.h</text>
</a>
</g>
</g>
<!-- Node2&#45;&gt;Node15 -->
<g id="edge22" class="edge">
<title>Node2&#45;&gt;Node15</title>
<path fill="none" stroke="midnightblue" d="M471.9,-554.34C485.91,-544.52 503.88,-531.91 515.66,-523.65"/>
<polygon fill="midnightblue" stroke="midnightblue" points="469.55,-551.72 463.37,-560.32 473.57,-557.45 469.55,-551.72"/>
</g>
<!-- Node17 -->
<g id="node17" class="node">
<title>Node17</title>
<g id="a_node17"><a xlink:href="GraphPrior_8h.html" target="_top" xlink:title=" ">
<polygon fill="white" stroke="black" points="260.5,-336.5 260.5,-355.5 337.5,-355.5 337.5,-336.5 260.5,-336.5"/>
<text text-anchor="middle" x="299" y="-343.5" font-family="Helvetica,sans-Serif" font-size="10.00">GraphPrior.h</text>
</a>
</g>
</g>
<!-- Node2&#45;&gt;Node17 -->
<g id="edge41" class="edge">
<title>Node2&#45;&gt;Node17</title>
<path fill="none" stroke="midnightblue" d="M391.32,-560.11C350.51,-552.66 301.61,-540.58 289,-524 249.33,-471.81 282.6,-383.93 294.89,-355.89"/>
<polygon fill="midnightblue" stroke="midnightblue" points="390.77,-563.56 401.23,-561.85 391.99,-556.67 390.77,-563.56"/>
</g>
<!-- Node18 -->
<g id="node18" class="node">
<title>Node18</title>
<g id="a_node18"><a xlink:href="FLMSamplerOptions_8h.html" target="_top" xlink:title=" ">
<polygon fill="white" stroke="black" points="581,-336.5 581,-355.5 705,-355.5 705,-336.5 581,-336.5"/>
<text text-anchor="middle" x="643" y="-343.5" font-family="Helvetica,sans-Serif" font-size="10.00">FLMSamplerOptions.h</text>
</a>
</g>
</g>
<!-- Node2&#45;&gt;Node18 -->
<g id="edge44" class="edge">
<title>Node2&#45;&gt;Node18</title>
<path fill="none" stroke="midnightblue" d="M507.92,-557.81C554.26,-545.13 615.56,-519.16 638,-468 655.06,-429.11 648.31,-376.25 644.7,-355.69"/>
<polygon fill="midnightblue" stroke="midnightblue" points="506.77,-554.49 497.98,-560.4 508.53,-561.27 506.77,-554.49"/>
</g>
<!-- Node20 -->
<g id="node20" class="node">
<title>Node20</title>
<g id="a_node20"><a xlink:href="GWishart_8h.html" target="_top" xlink:title=" ">
<polygon fill="white" stroke="black" points="431.5,-448.5 431.5,-467.5 502.5,-467.5 502.5,-448.5 431.5,-448.5"/>
<text text-anchor="middle" x="467" y="-455.5" font-family="Helvetica,sans-Serif" font-size="10.00">GWishart.h</text>
</a>
</g>
</g>
<!-- Node2&#45;&gt;Node20 -->
<g id="edge39" class="edge">
<title>Node2&#45;&gt;Node20</title>
<path fill="none" stroke="midnightblue" d="M453.71,-550.35C457.22,-526.25 463.17,-485.31 465.75,-467.59"/>
<polygon fill="midnightblue" stroke="midnightblue" points="450.23,-549.97 452.26,-560.37 457.16,-550.98 450.23,-549.97"/>
</g>
<!-- Node21 -->
<g id="node21" class="node">
<title>Node21</title>
<g id="a_node21"><a xlink:href="Precision_8h.html" target="_top" xlink:title=" ">
<polygon fill="white" stroke="black" points="559,-448.5 559,-467.5 629,-467.5 629,-448.5 559,-448.5"/>
<text text-anchor="middle" x="594" y="-455.5" font-family="Helvetica,sans-Serif" font-size="10.00">Precision.h</text>
</a>
</g>
</g>
<!-- Node2&#45;&gt;Node21 -->
<g id="edge40" class="edge">
<title>Node2&#45;&gt;Node21</title>
<path fill="none" stroke="midnightblue" d="M499.29,-557.45C520.2,-550.52 543.78,-539.87 561,-524 578.12,-508.22 587.68,-481.54 591.7,-467.79"/>
<polygon fill="midnightblue" stroke="midnightblue" points="498.1,-554.16 489.59,-560.47 500.18,-560.84 498.1,-554.16"/>
</g>
<!-- Node22 -->
<g id="node22" class="node">
<title>Node22</title>
<g id="a_node22"><a xlink:href="Test__Graphs_8cpp.html" target="_top" xlink:title=" ">
<polygon fill="white" stroke="black" points="685,-504.5 685,-523.5 781,-523.5 781,-504.5 685,-504.5"/>
<text text-anchor="middle" x="733" y="-511.5" font-family="Helvetica,sans-Serif" font-size="10.00">Test_Graphs.cpp</text>
</a>
</g>
</g>
<!-- Node2&#45;&gt;Node22 -->
<g id="edge45" class="edge">
<title>Node2&#45;&gt;Node22</title>
<path fill="none" stroke="midnightblue" d="M505.64,-558.54C558.94,-548.33 639,-533 688.53,-523.52"/>
<polygon fill="midnightblue" stroke="midnightblue" points="504.85,-555.13 495.68,-560.44 506.16,-562 504.85,-555.13"/>
</g>
<!-- Node23 -->
<g id="node23" class="node">
<title>Node23</title>
<g id="a_node23"><a xlink:href="Test__GWish_8cpp.html" target="_top" xlink:title=" ">
<polygon fill="white" stroke="black" points="799.5,-504.5 799.5,-523.5 892.5,-523.5 892.5,-504.5 799.5,-504.5"/>
<text text-anchor="middle" x="846" y="-511.5" font-family="Helvetica,sans-Serif" font-size="10.00">Test_GWish.cpp</text>
</a>
</g>
</g>
<!-- Node2&#45;&gt;Node23 -->
<g id="edge46" class="edge">
<title>Node2&#45;&gt;Node23</title>
<path fill="none" stroke="midnightblue" d="M510.81,-561.56C578.6,-553.02 692.36,-538.32 790,-524 793.02,-523.56 796.13,-523.09 799.26,-522.61"/>
<polygon fill="midnightblue" stroke="midnightblue" points="510.23,-558.11 500.75,-562.83 511.11,-565.05 510.23,-558.11"/>
</g>
<!-- Node4 -->
<g id="node4" class="node">
<title>Node4</title>
<g id="a_node4"><a xlink:href="AddRemoveMH_8h.html" target="_top" xlink:title=" ">
<polygon fill="white" stroke="black" points="143.5,-224.5 143.5,-243.5 244.5,-243.5 244.5,-224.5 143.5,-224.5"/>
<text text-anchor="middle" x="194" y="-231.5" font-family="Helvetica,sans-Serif" font-size="10.00">AddRemoveMH.h</text>
</a>
</g>
</g>
<!-- Node3&#45;&gt;Node4 -->
<g id="edge3" class="edge">
<title>Node3&#45;&gt;Node4</title>
<path fill="none" stroke="midnightblue" d="M251.97,-274.62C237.53,-264.76 218.86,-251.99 206.66,-243.65"/>
<polygon fill="midnightblue" stroke="midnightblue" points="250.08,-277.57 260.31,-280.32 254.03,-271.79 250.08,-277.57"/>
</g>
<!-- Node5 -->
<g id="node5" class="node">
<title>Node5</title>
<g id="a_node5"><a xlink:href="GGMFactory_8h.html" target="_top" xlink:title=" ">
<polygon fill="white" stroke="black" points="192.5,-168.5 192.5,-187.5 275.5,-187.5 275.5,-168.5 192.5,-168.5"/>
<text text-anchor="middle" x="234" y="-175.5" font-family="Helvetica,sans-Serif" font-size="10.00">GGMFactory.h</text>
</a>
</g>
</g>
<!-- Node3&#45;&gt;Node5 -->
<g id="edge15" class="edge">
<title>Node3&#45;&gt;Node5</title>
<path fill="none" stroke="midnightblue" d="M267.93,-270.8C264.15,-257.68 258.68,-239.6 253,-224 248.3,-211.09 241.94,-196.5 237.9,-187.52"/>
<polygon fill="midnightblue" stroke="midnightblue" points="264.59,-271.83 270.68,-280.5 271.32,-269.92 264.59,-271.83"/>
</g>
<!-- Node12 -->
<g id="node12" class="node">
<title>Node12</title>
<g id="a_node12"><a xlink:href="RJMH_8h.html" target="_top" xlink:title=" ">
<polygon fill="white" stroke="black" points="301,-224.5 301,-243.5 353,-243.5 353,-224.5 301,-224.5"/>
<text text-anchor="middle" x="327" y="-231.5" font-family="Helvetica,sans-Serif" font-size="10.00">RJMH.h</text>
</a>
</g>
</g>
<!-- Node3&#45;&gt;Node12 -->
<g id="edge16" class="edge">
<title>Node3&#45;&gt;Node12</title>
<path fill="none" stroke="midnightblue" d="M289,-273C298.57,-263.43 310.36,-251.64 318.25,-243.75"/>
<polygon fill="midnightblue" stroke="midnightblue" points="286.51,-270.54 281.92,-280.08 291.46,-275.49 286.51,-270.54"/>
</g>
<!-- Node13 -->
<g id="node13" class="node">
<title>Node13</title>
<g id="a_node13"><a xlink:href="DRJMH_8h.html" target="_top" xlink:title=" ">
<polygon fill="white" stroke="black" points="66.5,-224.5 66.5,-243.5 125.5,-243.5 125.5,-224.5 66.5,-224.5"/>
<text text-anchor="middle" x="96" y="-231.5" font-family="Helvetica,sans-Serif" font-size="10.00">DRJMH.h</text>
</a>
</g>
</g>
<!-- Node3&#45;&gt;Node13 -->
<g id="edge18" class="edge">
<title>Node3&#45;&gt;Node13</title>
<path fill="none" stroke="midnightblue" d="M237.82,-278.27C204.38,-268.07 154.75,-252.92 123.94,-243.52"/>
<polygon fill="midnightblue" stroke="midnightblue" points="237.05,-281.69 247.64,-281.26 239.1,-275 237.05,-281.69"/>
</g>
<!-- Node4&#45;&gt;Node5 -->
<g id="edge4" class="edge">
<title>Node4&#45;&gt;Node5</title>
<path fill="none" stroke="midnightblue" d="M206.7,-215.86C213.63,-206.5 221.91,-195.33 227.52,-187.75"/>
<polygon fill="midnightblue" stroke="midnightblue" points="203.75,-213.96 200.61,-224.08 209.37,-218.13 203.75,-213.96"/>
</g>
<!-- Node5&#45;&gt;Node6 -->
<g id="edge5" class="edge">
<title>Node5&#45;&gt;Node6</title>
<path fill="none" stroke="midnightblue" d="M269.95,-165.3C301.23,-155.13 345.82,-140.62 373.82,-131.52"/>
<polygon fill="midnightblue" stroke="midnightblue" points="268.73,-162.02 260.3,-168.44 270.9,-168.68 268.73,-162.02"/>
</g>
<!-- Node5&#45;&gt;Node8 -->
<g id="edge14" class="edge">
<title>Node5&#45;&gt;Node8</title>
<path fill="none" stroke="midnightblue" d="M202.98,-164.46C156.03,-143.68 75.83,-100.01 110,-56 125.43,-36.13 189.95,-23.55 236.4,-16.89"/>
<polygon fill="midnightblue" stroke="midnightblue" points="201.6,-167.68 212.16,-168.43 204.37,-161.25 201.6,-167.68"/>
</g>
<!-- Node7 -->
<g id="node7" class="node">
<title>Node7</title>
<g id="a_node7"><a xlink:href="GibbsSamplerBase_8h.html" target="_top" xlink:title=" ">
<polygon fill="white" stroke="black" points="227,-56.5 227,-75.5 345,-75.5 345,-56.5 227,-56.5"/>
<text text-anchor="middle" x="286" y="-63.5" font-family="Helvetica,sans-Serif" font-size="10.00">GibbsSamplerBase.h</text>
</a>
</g>
</g>
<!-- Node6&#45;&gt;Node7 -->
<g id="edge6" class="edge">
<title>Node6&#45;&gt;Node7</title>
<path fill="none" stroke="midnightblue" d="M372.76,-108.1C351.46,-98.01 322.46,-84.27 303.98,-75.52"/>
<polygon fill="midnightblue" stroke="midnightblue" points="371.4,-111.33 381.94,-112.44 374.4,-105 371.4,-111.33"/>
</g>
<!-- Node9 -->
<g id="node9" class="node">
<title>Node9</title>
<g id="a_node9"><a xlink:href="PosteriorAnalysis_8h.html" target="_top" xlink:title=" ">
<polygon fill="white" stroke="black" points="545,-56.5 545,-75.5 655,-75.5 655,-56.5 545,-56.5"/>
<text text-anchor="middle" x="600" y="-63.5" font-family="Helvetica,sans-Serif" font-size="10.00">PosteriorAnalysis.h</text>
</a>
</g>
</g>
<!-- Node6&#45;&gt;Node9 -->
<g id="edge8" class="edge">
<title>Node6&#45;&gt;Node9</title>
<path fill="none" stroke="midnightblue" d="M441.37,-109.83C479.14,-99.63 534.14,-84.78 568.46,-75.52"/>
<polygon fill="midnightblue" stroke="midnightblue" points="440.43,-106.46 431.69,-112.44 442.26,-113.22 440.43,-106.46"/>
</g>
<!-- Node10 -->
<g id="node10" class="node">
<title>Node10</title>
<g id="a_node10"><a xlink:href="GibbsSamplerDebug_8h.html" target="_top" xlink:title=" ">
<polygon fill="white" stroke="black" points="363.5,-56.5 363.5,-75.5 488.5,-75.5 488.5,-56.5 363.5,-56.5"/>
<text text-anchor="middle" x="426" y="-63.5" font-family="Helvetica,sans-Serif" font-size="10.00">GibbsSamplerDebug.h</text>
</a>
</g>
</g>
<!-- Node6&#45;&gt;Node10 -->
<g id="edge10" class="edge">
<title>Node6&#45;&gt;Node10</title>
<path fill="none" stroke="midnightblue" d="M408.67,-102.98C413.09,-93.82 418.25,-83.09 421.79,-75.75"/>
<polygon fill="midnightblue" stroke="midnightblue" points="405.48,-101.55 404.29,-112.08 411.79,-104.59 405.48,-101.55"/>
</g>
<!-- Node11 -->
<g id="node11" class="node">
<title>Node11</title>
<g id="a_node11"><a xlink:href="GGMsampler_8h.html" target="_top" xlink:title=" ">
<polygon fill="white" stroke="black" points="119.5,-56.5 119.5,-75.5 208.5,-75.5 208.5,-56.5 119.5,-56.5"/>
<text text-anchor="middle" x="164" y="-63.5" font-family="Helvetica,sans-Serif" font-size="10.00">GGMsampler.h</text>
</a>
</g>
</g>
<!-- Node6&#45;&gt;Node11 -->
<g id="edge12" class="edge">
<title>Node6&#45;&gt;Node11</title>
<path fill="none" stroke="midnightblue" d="M352.59,-110.15C308,-99.95 242.15,-84.88 201.22,-75.52"/>
<polygon fill="midnightblue" stroke="midnightblue" points="352.08,-113.62 362.61,-112.44 353.64,-106.8 352.08,-113.62"/>
</g>
<!-- Node7&#45;&gt;Node8 -->
<g id="edge7" class="edge">
<title>Node7&#45;&gt;Node8</title>
<path fill="none" stroke="midnightblue" d="M286,-45.8C286,-36.91 286,-26.78 286,-19.75"/>
<polygon fill="midnightblue" stroke="midnightblue" points="282.5,-46.08 286,-56.08 289.5,-46.08 282.5,-46.08"/>
</g>
<!-- Node9&#45;&gt;Node8 -->
<g id="edge9" class="edge">
<title>Node9&#45;&gt;Node8</title>
<path fill="none" stroke="midnightblue" d="M540.27,-54.73C480.93,-44.52 391.01,-29.06 335.52,-19.52"/>
<polygon fill="midnightblue" stroke="midnightblue" points="539.8,-58.2 550.25,-56.44 540.98,-51.3 539.8,-58.2"/>
</g>
<!-- Node10&#45;&gt;Node8 -->
<g id="edge11" class="edge">
<title>Node10&#45;&gt;Node8</title>
<path fill="none" stroke="midnightblue" d="M394.3,-52.77C368,-42.63 331.28,-28.47 308.08,-19.52"/>
<polygon fill="midnightblue" stroke="midnightblue" points="393.23,-56.11 403.82,-56.44 395.75,-49.58 393.23,-56.11"/>
</g>
<!-- Node11&#45;&gt;Node8 -->
<g id="edge13" class="edge">
<title>Node11&#45;&gt;Node8</title>
<path fill="none" stroke="midnightblue" d="M192.54,-52.37C215.39,-42.26 246.81,-28.35 266.76,-19.52"/>
<polygon fill="midnightblue" stroke="midnightblue" points="191.06,-49.2 183.33,-56.44 193.89,-55.6 191.06,-49.2"/>
</g>
<!-- Node12&#45;&gt;Node5 -->
<g id="edge17" class="edge">
<title>Node12&#45;&gt;Node5</title>
<path fill="none" stroke="midnightblue" d="M303.19,-219.18C286.08,-209.24 263.53,-196.15 248.9,-187.65"/>
<polygon fill="midnightblue" stroke="midnightblue" points="301.65,-222.33 312.06,-224.32 305.17,-216.28 301.65,-222.33"/>
</g>
<!-- Node13&#45;&gt;Node5 -->
<g id="edge19" class="edge">
<title>Node13&#45;&gt;Node5</title>
<path fill="none" stroke="midnightblue" d="M127.25,-220.77C153.17,-210.63 189.36,-196.47 212.24,-187.52"/>
<polygon fill="midnightblue" stroke="midnightblue" points="125.9,-217.54 117.87,-224.44 128.45,-224.06 125.9,-217.54"/>
</g>
<!-- Node14&#45;&gt;Node2 -->
<g id="edge21" class="edge">
<title>Node14&#45;&gt;Node2</title>
<path fill="none" stroke="midnightblue" d="M381.17,-528.11C401.07,-538.12 425.82,-551.62 440.05,-560.32"/>
<polygon fill="midnightblue" stroke="midnightblue" points="382.65,-524.94 372.14,-523.65 379.55,-531.22 382.65,-524.94"/>
</g>
<!-- Node16 -->
<g id="node16" class="node">
<title>Node16</title>
<g id="a_node16"><a xlink:href="include__helpers_8h.html" target="_top" xlink:title=" ">
<polygon fill="white" stroke="black" points="449,-392.5 449,-411.5 551,-411.5 551,-392.5 449,-392.5"/>
<text text-anchor="middle" x="500" y="-399.5" font-family="Helvetica,sans-Serif" font-size="10.00">include_helpers.h</text>
</a>
</g>
</g>
<!-- Node15&#45;&gt;Node16 -->
<g id="edge23" class="edge">
<title>Node15&#45;&gt;Node16</title>
<path fill="none" stroke="midnightblue" d="M523.34,-494.67C517.21,-470.62 506.72,-429.39 502.19,-411.59"/>
<polygon fill="midnightblue" stroke="midnightblue" points="519.94,-495.54 525.8,-504.37 526.73,-493.81 519.94,-495.54"/>
</g>
<!-- Node15&#45;&gt;Node20 -->
<g id="edge35" class="edge">
<title>Node15&#45;&gt;Node20</title>
<path fill="none" stroke="midnightblue" d="M510.53,-497.54C499.66,-487.91 486.06,-475.87 476.98,-467.83"/>
<polygon fill="midnightblue" stroke="midnightblue" points="508.39,-500.32 518.2,-504.32 513.03,-495.07 508.39,-500.32"/>
</g>
<!-- Node15&#45;&gt;Node21 -->
<g id="edge37" class="edge">
<title>Node15&#45;&gt;Node21</title>
<path fill="none" stroke="midnightblue" d="M546.55,-497.82C558.38,-488.15 573.29,-475.95 583.2,-467.83"/>
<polygon fill="midnightblue" stroke="midnightblue" points="544.13,-495.28 538.6,-504.32 548.56,-500.7 544.13,-495.28"/>
</g>
<!-- Node16&#45;&gt;Node3 -->
<g id="edge24" class="edge">
<title>Node16&#45;&gt;Node3</title>
<path fill="none" stroke="midnightblue" d="M472.92,-387.88C425.87,-365.08 330.27,-318.75 290.73,-299.59"/>
<polygon fill="midnightblue" stroke="midnightblue" points="471.66,-391.16 482.19,-392.37 474.71,-384.86 471.66,-391.16"/>
</g>
<!-- Node16&#45;&gt;Node6 -->
<g id="edge30" class="edge">
<title>Node16&#45;&gt;Node6</title>
<path fill="none" stroke="midnightblue" d="M494.23,-382.43C488.02,-360.72 479,-323.62 479,-291 479,-291 479,-291 479,-233 479,-187.86 434.56,-148.55 412.34,-131.72"/>
<polygon fill="midnightblue" stroke="midnightblue" points="490.96,-383.68 497.17,-392.27 497.67,-381.68 490.96,-383.68"/>
</g>
<!-- Node16&#45;&gt;Node8 -->
<g id="edge29" class="edge">
<title>Node16&#45;&gt;Node8</title>
<path fill="none" stroke="midnightblue" d="M504.67,-382.36C509.7,-360.58 517,-323.42 517,-291 517,-291 517,-291 517,-121 517,-90.77 519.3,-76.41 497,-56 473.86,-34.82 390.67,-22.09 335.92,-15.82"/>
<polygon fill="midnightblue" stroke="midnightblue" points="501.23,-381.69 502.29,-392.23 508.03,-383.33 501.23,-381.69"/>
</g>
<!-- Node16&#45;&gt;Node17 -->
<g id="edge25" class="edge">
<title>Node16&#45;&gt;Node17</title>
<path fill="none" stroke="midnightblue" d="M458.42,-389.83C420.47,-379.63 365.19,-364.78 330.7,-355.52"/>
<polygon fill="midnightblue" stroke="midnightblue" points="457.59,-393.23 468.15,-392.44 459.4,-386.47 457.59,-393.23"/>
</g>
<!-- Node16&#45;&gt;Node18 -->
<g id="edge31" class="edge">
<title>Node16&#45;&gt;Node18</title>
<path fill="none" stroke="midnightblue" d="M532.03,-388.91C558.91,-378.75 596.64,-364.51 620.45,-355.52"/>
<polygon fill="midnightblue" stroke="midnightblue" points="530.78,-385.64 522.66,-392.44 533.25,-392.19 530.78,-385.64"/>
</g>
<!-- Node17&#45;&gt;Node3 -->
<g id="edge26" class="edge">
<title>Node17&#45;&gt;Node3</title>
<path fill="none" stroke="midnightblue" d="M290.33,-326.98C285.91,-317.82 280.75,-307.09 277.21,-299.75"/>
<polygon fill="midnightblue" stroke="midnightblue" points="287.21,-328.59 294.71,-336.08 293.52,-325.55 287.21,-328.59"/>
</g>
<!-- Node17&#45;&gt;Node6 -->
<g id="edge28" class="edge">
<title>Node17&#45;&gt;Node6</title>
<path fill="none" stroke="midnightblue" d="M311.42,-328.1C325.27,-308.63 347.61,-275.28 362,-244 380.49,-203.79 393.37,-152.13 398.05,-131.79"/>
<polygon fill="midnightblue" stroke="midnightblue" points="308.55,-326.09 305.54,-336.24 314.23,-330.18 308.55,-326.09"/>
</g>
<!-- Node17&#45;&gt;Node8 -->
<g id="edge27" class="edge">
<title>Node17&#45;&gt;Node8</title>
<path fill="none" stroke="midnightblue" d="M250.26,-345.31C174.72,-342.96 38,-326.11 38,-235 38,-235 38,-235 38,-121 38,-35.04 164.04,-15.74 236.41,-11.74"/>
<polygon fill="midnightblue" stroke="midnightblue" points="250.41,-348.82 260.49,-345.56 250.57,-341.82 250.41,-348.82"/>
</g>
<!-- Node18&#45;&gt;Node9 -->
<g id="edge32" class="edge">
<title>Node18&#45;&gt;Node9</title>
<path fill="none" stroke="midnightblue" d="M632.32,-327.5C620.47,-306.37 603,-269.38 603,-235 603,-235 603,-235 603,-177 603,-139.17 601.21,-94.06 600.39,-75.56"/>
<polygon fill="midnightblue" stroke="midnightblue" points="629.38,-329.39 637.44,-336.27 635.42,-325.87 629.38,-329.39"/>
</g>
<!-- Node19 -->
<g id="node19" class="node">
<title>Node19</title>
<g id="a_node19"><a xlink:href="FLMsampler_8h.html" target="_top" xlink:title=" ">
<polygon fill="white" stroke="black" points="637.5,-168.5 637.5,-187.5 722.5,-187.5 722.5,-168.5 637.5,-168.5"/>
<text text-anchor="middle" x="680" y="-175.5" font-family="Helvetica,sans-Serif" font-size="10.00">FLMsampler.h</text>
</a>
</g>
</g>
<!-- Node18&#45;&gt;Node19 -->
<g id="edge33" class="edge">
<title>Node18&#45;&gt;Node19</title>
<path fill="none" stroke="midnightblue" d="M647.25,-325.93C655.28,-289.92 672.37,-213.23 678.09,-187.57"/>
<polygon fill="midnightblue" stroke="midnightblue" points="643.75,-325.55 644.99,-336.08 650.58,-327.08 643.75,-325.55"/>
</g>
<!-- Node19&#45;&gt;Node8 -->
<g id="edge34" class="edge">
<title>Node19&#45;&gt;Node8</title>
<path fill="none" stroke="midnightblue" d="M683.77,-158.53C688.02,-131.87 691.18,-82.83 664,-56 641.01,-33.31 432.69,-19.03 335.5,-13.55"/>
<polygon fill="midnightblue" stroke="midnightblue" points="680.31,-158 681.96,-168.47 687.19,-159.25 680.31,-158"/>
</g>
<!-- Node20&#45;&gt;Node16 -->
<g id="edge36" class="edge">
<title>Node20&#45;&gt;Node16</title>
<path fill="none" stroke="midnightblue" d="M477.83,-439.27C483.47,-430.05 490.12,-419.17 494.65,-411.75"/>
<polygon fill="midnightblue" stroke="midnightblue" points="474.68,-437.73 472.45,-448.08 480.65,-441.38 474.68,-437.73"/>
</g>
<!-- Node21&#45;&gt;Node16 -->
<g id="edge38" class="edge">
<title>Node21&#45;&gt;Node16</title>
<path fill="none" stroke="midnightblue" d="M569.94,-443.18C552.64,-433.24 529.85,-420.15 515.07,-411.65"/>
<polygon fill="midnightblue" stroke="midnightblue" points="568.48,-446.38 578.9,-448.32 571.97,-440.31 568.48,-446.38"/>
</g>
<!-- Node24&#45;&gt;Node2 -->
<g id="edge48" class="edge">
<title>Node24&#45;&gt;Node2</title>
<path fill="none" stroke="midnightblue" d="M427.98,-607.57C433.83,-598.27 440.77,-587.25 445.49,-579.75"/>
<polygon fill="midnightblue" stroke="midnightblue" points="424.98,-605.76 422.61,-616.08 430.9,-609.49 424.98,-605.76"/>
</g>
</g>
</svg>
