<?xml version="1.0" encoding="UTF-8" standalone="no"?>
<!DOCTYPE svg PUBLIC "-//W3C//DTD SVG 1.1//EN"
 "http://www.w3.org/Graphics/SVG/1.1/DTD/svg11.dtd">
<!-- Generated by graphviz version 2.43.0 (0)
 -->
<!-- Title: GSLwrappers.h Pages: 1 -->
<!--zoomable 588 -->
<svg id="main" version="1.1" xmlns="http://www.w3.org/2000/svg" xmlns:xlink="http://www.w3.org/1999/xlink" xml:space="preserve" onload="init(evt)">
<style type="text/css"><![CDATA[
.edge:hover path { stroke: red; }
.edge:hover polygon { stroke: red; fill: red; }
]]></style>
<script type="text/javascript"><![CDATA[
var edges = document.getElementsByTagName('g');
if (edges && edges.length) {
  for (var i=0;i<edges.length;i++) {
    if (edges[i].id.substr(0,4)=='edge') {
      edges[i].setAttribute('class','edge');
    }
  }
}
]]></script>
        <defs>
                <circle id="rim" cx="0" cy="0" r="7"/>
                <circle id="rim2" cx="0" cy="0" r="3.5"/>
                <g id="zoomPlus">
                        <use xlink:href="#rim" fill="#404040">
                                <set attributeName="fill" to="#808080" begin="zoomplus.mouseover" end="zoomplus.mouseout"/>
                        </use>
                        <path d="M-4,0h8M0,-4v8" fill="none" stroke="white" stroke-width="1.5" pointer-events="none"/>
                </g>
                <g id="zoomMin">
                        <use xlink:href="#rim" fill="#404040">
                                <set attributeName="fill" to="#808080" begin="zoomminus.mouseover" end="zoomminus.mouseout"/>
                        </use>
                        <path d="M-4,0h8" fill="none" stroke="white" stroke-width="1.5" pointer-events="none"/>
                </g>
                <g id="dirArrow">
                        <path fill="none" stroke="white" stroke-width="1.5" d="M0,-3.0v7 M-2.5,-0.5L0,-3.0L2.5,-0.5"/>
                </g>
               <g id="resetDef">
                       <use xlink:href="#rim2" fill="#404040">
                               <set attributeName="fill" to="#808080" begin="reset.mouseover" end="reset.mouseout"/>
                       </use>
               </g>
        </defs>

<script type="text/javascript">
var viewWidth = 713;
var viewHeight = 588;
var sectionId = 'dynsection-1';
</script>
<script xlink:href="svgpan.js"/>
<svg id="graph" class="graph">
<g id="viewport">
<title>GSLwrappers.h</title>
<polygon fill="white" stroke="transparent" points="-4,4 -4,-584 708.5,-584 708.5,4 -4,4"/>
<!-- Node1 -->
<g id="node1" class="node">
<title>Node1</title>
<g id="a_node1"><a xlink:title=" ">
<polygon fill="#bfbfbf" stroke="black" points="327.5,-560.5 327.5,-579.5 416.5,-579.5 416.5,-560.5 327.5,-560.5"/>
<text text-anchor="middle" x="372" y="-567.5" font-family="Helvetica,sans-Serif" font-size="10.00">GSLwrappers.h</text>
</a>
</g>
</g>
<!-- Node2 -->
<g id="node2" class="node">
<title>Node2</title>
<g id="a_node2"><a xlink:href="utils_8h.html" target="_top" xlink:title=" ">
<polygon fill="white" stroke="black" points="348.5,-504.5 348.5,-523.5 395.5,-523.5 395.5,-504.5 348.5,-504.5"/>
<text text-anchor="middle" x="372" y="-511.5" font-family="Helvetica,sans-Serif" font-size="10.00">utils.h</text>
</a>
</g>
</g>
<!-- Node1&#45;&gt;Node2 -->
<g id="edge1" class="edge">
<title>Node1&#45;&gt;Node2</title>
<path fill="none" stroke="midnightblue" d="M372,-549.8C372,-540.91 372,-530.78 372,-523.75"/>
<polygon fill="midnightblue" stroke="midnightblue" points="368.5,-550.08 372,-560.08 375.5,-550.08 368.5,-550.08"/>
</g>
<!-- Node3 -->
<g id="node3" class="node">
<title>Node3</title>
<g id="a_node3"><a xlink:href="include__helpers_8h.html" target="_top" xlink:title=" ">
<polygon fill="white" stroke="black" points="314,-392.5 314,-411.5 416,-411.5 416,-392.5 314,-392.5"/>
<text text-anchor="middle" x="365" y="-399.5" font-family="Helvetica,sans-Serif" font-size="10.00">include_helpers.h</text>
</a>
</g>
</g>
<!-- Node1&#45;&gt;Node3 -->
<g id="edge35" class="edge">
<title>Node1&#45;&gt;Node3</title>
<path fill="none" stroke="midnightblue" d="M356.29,-552.88C349.57,-544.88 342.49,-534.66 339,-524 325.56,-482.96 349.25,-431.77 360.05,-411.67"/>
<polygon fill="midnightblue" stroke="midnightblue" points="353.7,-555.24 362.98,-560.34 358.9,-550.56 353.7,-555.24"/>
</g>
<!-- Node20 -->
<g id="node20" class="node">
<title>Node20</title>
<g id="a_node20"><a xlink:href="GSLwrappers_8cpp.html" target="_top" xlink:title=" ">
<polygon fill="white" stroke="black" points="413.5,-504.5 413.5,-523.5 514.5,-523.5 514.5,-504.5 413.5,-504.5"/>
<text text-anchor="middle" x="464" y="-511.5" font-family="Helvetica,sans-Serif" font-size="10.00">GSLwrappers.cpp</text>
</a>
</g>
</g>
<!-- Node1&#45;&gt;Node20 -->
<g id="edge36" class="edge">
<title>Node1&#45;&gt;Node20</title>
<path fill="none" stroke="midnightblue" d="M395.55,-555.18C412.48,-545.24 434.78,-532.15 449.26,-523.65"/>
<polygon fill="midnightblue" stroke="midnightblue" points="393.63,-552.24 386.78,-560.32 397.18,-558.28 393.63,-552.24"/>
</g>
<!-- Node2&#45;&gt;Node3 -->
<g id="edge2" class="edge">
<title>Node2&#45;&gt;Node3</title>
<path fill="none" stroke="midnightblue" d="M362.07,-495.3C358.1,-487.24 354,-477.41 352,-468 347.75,-447.96 355.69,-424.36 360.93,-411.84"/>
<polygon fill="midnightblue" stroke="midnightblue" points="359.11,-497.19 366.87,-504.41 365.31,-493.93 359.11,-497.19"/>
</g>
<!-- Node18 -->
<g id="node18" class="node">
<title>Node18</title>
<g id="a_node18"><a xlink:href="GWishart_8h.html" target="_top" xlink:title=" ">
<polygon fill="white" stroke="black" points="361.5,-448.5 361.5,-467.5 432.5,-467.5 432.5,-448.5 361.5,-448.5"/>
<text text-anchor="middle" x="397" y="-455.5" font-family="Helvetica,sans-Serif" font-size="10.00">GWishart.h</text>
</a>
</g>
</g>
<!-- Node2&#45;&gt;Node18 -->
<g id="edge31" class="edge">
<title>Node2&#45;&gt;Node18</title>
<path fill="none" stroke="midnightblue" d="M380.34,-494.98C384.58,-485.82 389.55,-475.09 392.95,-467.75"/>
<polygon fill="midnightblue" stroke="midnightblue" points="377.15,-493.54 376.13,-504.08 383.51,-496.48 377.15,-493.54"/>
</g>
<!-- Node19 -->
<g id="node19" class="node">
<title>Node19</title>
<g id="a_node19"><a xlink:href="Precision_8h.html" target="_top" xlink:title=" ">
<polygon fill="white" stroke="black" points="451,-448.5 451,-467.5 521,-467.5 521,-448.5 451,-448.5"/>
<text text-anchor="middle" x="486" y="-455.5" font-family="Helvetica,sans-Serif" font-size="10.00">Precision.h</text>
</a>
</g>
</g>
<!-- Node2&#45;&gt;Node19 -->
<g id="edge33" class="edge">
<title>Node2&#45;&gt;Node19</title>
<path fill="none" stroke="midnightblue" d="M399.24,-500.1C420.54,-490.01 449.54,-476.27 468.02,-467.52"/>
<polygon fill="midnightblue" stroke="midnightblue" points="397.6,-497 390.06,-504.44 400.6,-503.33 397.6,-497"/>
</g>
<!-- Node4 -->
<g id="node4" class="node">
<title>Node4</title>
<g id="a_node4"><a xlink:href="GGM_8h.html" target="_top" xlink:title=" ">
<polygon fill="white" stroke="black" points="222,-280.5 222,-299.5 272,-299.5 272,-280.5 222,-280.5"/>
<text text-anchor="middle" x="247" y="-287.5" font-family="Helvetica,sans-Serif" font-size="10.00">GGM.h</text>
</a>
</g>
</g>
<!-- Node3&#45;&gt;Node4 -->
<g id="edge3" class="edge">
<title>Node3&#45;&gt;Node4</title>
<path fill="none" stroke="midnightblue" d="M348.39,-385.51C323.17,-362.01 276.08,-318.11 256.22,-299.59"/>
<polygon fill="midnightblue" stroke="midnightblue" points="346.04,-388.11 355.74,-392.37 350.81,-382.99 346.04,-388.11"/>
</g>
<!-- Node7 -->
<g id="node7" class="node">
<title>Node7</title>
<g id="a_node7"><a xlink:href="SamplerOptions_8h.html" target="_top" xlink:title=" ">
<polygon fill="white" stroke="black" points="313,-112.5 313,-131.5 417,-131.5 417,-112.5 313,-112.5"/>
<text text-anchor="middle" x="365" y="-119.5" font-family="Helvetica,sans-Serif" font-size="10.00">SamplerOptions.h</text>
</a>
</g>
</g>
<!-- Node3&#45;&gt;Node7 -->
<g id="edge26" class="edge">
<title>Node3&#45;&gt;Node7</title>
<path fill="none" stroke="midnightblue" d="M365,-382.25C365,-360.36 365,-323.05 365,-291 365,-291 365,-291 365,-233 365,-195.19 365,-150.06 365,-131.56"/>
<polygon fill="midnightblue" stroke="midnightblue" points="361.5,-382.44 365,-392.44 368.5,-382.44 361.5,-382.44"/>
</g>
<!-- Node9 -->
<g id="node9" class="node">
<title>Node9</title>
<g id="a_node9"><a xlink:href="BGSL__export_8cpp.html" target="_top" xlink:title=" ">
<polygon fill="white" stroke="black" points="277.5,-0.5 277.5,-19.5 376.5,-19.5 376.5,-0.5 277.5,-0.5"/>
<text text-anchor="middle" x="327" y="-7.5" font-family="Helvetica,sans-Serif" font-size="10.00">BGSL_export.cpp</text>
</a>
</g>
</g>
<!-- Node3&#45;&gt;Node9 -->
<g id="edge25" class="edge">
<title>Node3&#45;&gt;Node9</title>
<path fill="none" stroke="midnightblue" d="M303.81,-395.27C199.88,-383.83 0,-353.69 0,-291 0,-291 0,-291 0,-121 0,-85.86 15.26,-74.72 45,-56 82.82,-32.2 207.18,-19.61 277.47,-14.24"/>
<polygon fill="midnightblue" stroke="midnightblue" points="303.55,-398.76 313.86,-396.35 304.3,-391.8 303.55,-398.76"/>
</g>
<!-- Node15 -->
<g id="node15" class="node">
<title>Node15</title>
<g id="a_node15"><a xlink:href="GraphPrior_8h.html" target="_top" xlink:title=" ">
<polygon fill="white" stroke="black" points="393.5,-336.5 393.5,-355.5 470.5,-355.5 470.5,-336.5 393.5,-336.5"/>
<text text-anchor="middle" x="432" y="-343.5" font-family="Helvetica,sans-Serif" font-size="10.00">GraphPrior.h</text>
</a>
</g>
</g>
<!-- Node3&#45;&gt;Node15 -->
<g id="edge21" class="edge">
<title>Node3&#45;&gt;Node15</title>
<path fill="none" stroke="midnightblue" d="M383.83,-385.82C395.84,-376.15 410.97,-363.95 421.04,-355.83"/>
<polygon fill="midnightblue" stroke="midnightblue" points="381.35,-383.32 375.76,-392.32 385.75,-388.77 381.35,-383.32"/>
</g>
<!-- Node16 -->
<g id="node16" class="node">
<title>Node16</title>
<g id="a_node16"><a xlink:href="FLMSamplerOptions_8h.html" target="_top" xlink:title=" ">
<polygon fill="white" stroke="black" points="491,-112.5 491,-131.5 615,-131.5 615,-112.5 491,-112.5"/>
<text text-anchor="middle" x="553" y="-119.5" font-family="Helvetica,sans-Serif" font-size="10.00">FLMSamplerOptions.h</text>
</a>
</g>
</g>
<!-- Node3&#45;&gt;Node16 -->
<g id="edge27" class="edge">
<title>Node3&#45;&gt;Node16</title>
<path fill="none" stroke="midnightblue" d="M414.5,-389.67C462.14,-375.49 527,-346.07 527,-291 527,-291 527,-291 527,-233 527,-194.34 542.4,-150.04 549.49,-131.68"/>
<polygon fill="midnightblue" stroke="midnightblue" points="413.3,-386.37 404.63,-392.47 415.21,-393.11 413.3,-386.37"/>
</g>
<!-- Node5 -->
<g id="node5" class="node">
<title>Node5</title>
<g id="a_node5"><a xlink:href="AddRemoveMH_8h.html" target="_top" xlink:title=" ">
<polygon fill="white" stroke="black" points="235.5,-224.5 235.5,-243.5 336.5,-243.5 336.5,-224.5 235.5,-224.5"/>
<text text-anchor="middle" x="286" y="-231.5" font-family="Helvetica,sans-Serif" font-size="10.00">AddRemoveMH.h</text>
</a>
</g>
</g>
<!-- Node4&#45;&gt;Node5 -->
<g id="edge4" class="edge">
<title>Node4&#45;&gt;Node5</title>
<path fill="none" stroke="midnightblue" d="M259.38,-271.86C266.14,-262.5 274.21,-251.33 279.68,-243.75"/>
<polygon fill="midnightblue" stroke="midnightblue" points="256.46,-269.93 253.44,-280.08 262.13,-274.03 256.46,-269.93"/>
</g>
<!-- Node6 -->
<g id="node6" class="node">
<title>Node6</title>
<g id="a_node6"><a xlink:href="GGMFactory_8h.html" target="_top" xlink:title=" ">
<polygon fill="white" stroke="black" points="136.5,-168.5 136.5,-187.5 219.5,-187.5 219.5,-168.5 136.5,-168.5"/>
<text text-anchor="middle" x="178" y="-175.5" font-family="Helvetica,sans-Serif" font-size="10.00">GGMFactory.h</text>
</a>
</g>
</g>
<!-- Node4&#45;&gt;Node6 -->
<g id="edge16" class="edge">
<title>Node4&#45;&gt;Node6</title>
<path fill="none" stroke="midnightblue" d="M236.11,-271.64C221.12,-247.74 194.7,-205.63 183.39,-187.59"/>
<polygon fill="midnightblue" stroke="midnightblue" points="233.31,-273.76 241.59,-280.37 239.24,-270.04 233.31,-273.76"/>
</g>
<!-- Node13 -->
<g id="node13" class="node">
<title>Node13</title>
<g id="a_node13"><a xlink:href="RJMH_8h.html" target="_top" xlink:title=" ">
<polygon fill="white" stroke="black" points="49,-224.5 49,-243.5 101,-243.5 101,-224.5 49,-224.5"/>
<text text-anchor="middle" x="75" y="-231.5" font-family="Helvetica,sans-Serif" font-size="10.00">RJMH.h</text>
</a>
</g>
</g>
<!-- Node4&#45;&gt;Node13 -->
<g id="edge17" class="edge">
<title>Node4&#45;&gt;Node13</title>
<path fill="none" stroke="midnightblue" d="M212.34,-278.12C179.49,-267.81 130.88,-252.55 101.17,-243.22"/>
<polygon fill="midnightblue" stroke="midnightblue" points="211.4,-281.49 221.99,-281.15 213.5,-274.81 211.4,-281.49"/>
</g>
<!-- Node14 -->
<g id="node14" class="node">
<title>Node14</title>
<g id="a_node14"><a xlink:href="DRJMH_8h.html" target="_top" xlink:title=" ">
<polygon fill="white" stroke="black" points="119.5,-224.5 119.5,-243.5 178.5,-243.5 178.5,-224.5 119.5,-224.5"/>
<text text-anchor="middle" x="149" y="-231.5" font-family="Helvetica,sans-Serif" font-size="10.00">DRJMH.h</text>
</a>
</g>
</g>
<!-- Node4&#45;&gt;Node14 -->
<g id="edge19" class="edge">
<title>Node4&#45;&gt;Node14</title>
<path fill="none" stroke="midnightblue" d="M222.41,-275.45C204.32,-265.48 180.27,-252.23 164.71,-243.65"/>
<polygon fill="midnightblue" stroke="midnightblue" points="220.81,-278.56 231.25,-280.32 224.19,-272.43 220.81,-278.56"/>
</g>
<!-- Node5&#45;&gt;Node6 -->
<g id="edge5" class="edge">
<title>Node5&#45;&gt;Node6</title>
<path fill="none" stroke="midnightblue" d="M259.45,-219.73C239.45,-209.73 212.61,-196.31 195.31,-187.65"/>
<polygon fill="midnightblue" stroke="midnightblue" points="258.14,-222.98 268.65,-224.32 261.27,-216.72 258.14,-222.98"/>
</g>
<!-- Node6&#45;&gt;Node7 -->
<g id="edge6" class="edge">
<title>Node6&#45;&gt;Node7</title>
<path fill="none" stroke="midnightblue" d="M217.59,-165.57C252.87,-155.38 303.69,-140.7 335.51,-131.52"/>
<polygon fill="midnightblue" stroke="midnightblue" points="216.27,-162.31 207.63,-168.44 218.21,-169.03 216.27,-162.31"/>
</g>
<!-- Node6&#45;&gt;Node9 -->
<g id="edge15" class="edge">
<title>Node6&#45;&gt;Node9</title>
<path fill="none" stroke="midnightblue" d="M147.63,-164.19C101.16,-142.83 21.32,-98.11 57,-56 84.68,-23.32 207.24,-14.35 277.34,-11.9"/>
<polygon fill="midnightblue" stroke="midnightblue" points="146.44,-167.49 156.99,-168.38 149.3,-161.1 146.44,-167.49"/>
</g>
<!-- Node8 -->
<g id="node8" class="node">
<title>Node8</title>
<g id="a_node8"><a xlink:href="GibbsSamplerBase_8h.html" target="_top" xlink:title=" ">
<polygon fill="white" stroke="black" points="66,-56.5 66,-75.5 184,-75.5 184,-56.5 66,-56.5"/>
<text text-anchor="middle" x="125" y="-63.5" font-family="Helvetica,sans-Serif" font-size="10.00">GibbsSamplerBase.h</text>
</a>
</g>
</g>
<!-- Node7&#45;&gt;Node8 -->
<g id="edge7" class="edge">
<title>Node7&#45;&gt;Node8</title>
<path fill="none" stroke="midnightblue" d="M317.08,-110.22C271.73,-100.01 204.56,-84.9 162.85,-75.52"/>
<polygon fill="midnightblue" stroke="midnightblue" points="316.45,-113.66 326.97,-112.44 317.98,-106.83 316.45,-113.66"/>
</g>
<!-- Node10 -->
<g id="node10" class="node">
<title>Node10</title>
<g id="a_node10"><a xlink:href="PosteriorAnalysis_8h.html" target="_top" xlink:title=" ">
<polygon fill="white" stroke="black" points="491,-56.5 491,-75.5 601,-75.5 601,-56.5 491,-56.5"/>
<text text-anchor="middle" x="546" y="-63.5" font-family="Helvetica,sans-Serif" font-size="10.00">PosteriorAnalysis.h</text>
</a>
</g>
</g>
<!-- Node7&#45;&gt;Node10 -->
<g id="edge9" class="edge">
<title>Node7&#45;&gt;Node10</title>
<path fill="none" stroke="midnightblue" d="M403.32,-109.57C437.46,-99.38 486.66,-84.7 517.45,-75.52"/>
<polygon fill="midnightblue" stroke="midnightblue" points="402.26,-106.23 393.68,-112.44 404.26,-112.94 402.26,-106.23"/>
</g>
<!-- Node11 -->
<g id="node11" class="node">
<title>Node11</title>
<g id="a_node11"><a xlink:href="GibbsSamplerDebug_8h.html" target="_top" xlink:title=" ">
<polygon fill="white" stroke="black" points="202.5,-56.5 202.5,-75.5 327.5,-75.5 327.5,-56.5 202.5,-56.5"/>
<text text-anchor="middle" x="265" y="-63.5" font-family="Helvetica,sans-Serif" font-size="10.00">GibbsSamplerDebug.h</text>
</a>
</g>
</g>
<!-- Node7&#45;&gt;Node11 -->
<g id="edge11" class="edge">
<title>Node7&#45;&gt;Node11</title>
<path fill="none" stroke="midnightblue" d="M339.91,-107.45C321.45,-97.48 296.9,-84.23 281.03,-75.65"/>
<polygon fill="midnightblue" stroke="midnightblue" points="338.47,-110.65 348.93,-112.32 341.8,-104.49 338.47,-110.65"/>
</g>
<!-- Node12 -->
<g id="node12" class="node">
<title>Node12</title>
<g id="a_node12"><a xlink:href="GGMsampler_8h.html" target="_top" xlink:title=" ">
<polygon fill="white" stroke="black" points="345.5,-56.5 345.5,-75.5 434.5,-75.5 434.5,-56.5 345.5,-56.5"/>
<text text-anchor="middle" x="390" y="-63.5" font-family="Helvetica,sans-Serif" font-size="10.00">GGMsampler.h</text>
</a>
</g>
</g>
<!-- Node7&#45;&gt;Node12 -->
<g id="edge13" class="edge">
<title>Node7&#45;&gt;Node12</title>
<path fill="none" stroke="midnightblue" d="M373.34,-102.98C377.58,-93.82 382.55,-83.09 385.95,-75.75"/>
<polygon fill="midnightblue" stroke="midnightblue" points="370.15,-101.54 369.13,-112.08 376.51,-104.48 370.15,-101.54"/>
</g>
<!-- Node8&#45;&gt;Node9 -->
<g id="edge8" class="edge">
<title>Node8&#45;&gt;Node9</title>
<path fill="none" stroke="midnightblue" d="M166.79,-53.83C204.93,-43.63 260.48,-28.78 295.14,-19.52"/>
<polygon fill="midnightblue" stroke="midnightblue" points="165.76,-50.48 157.01,-56.44 167.57,-57.24 165.76,-50.48"/>
</g>
<!-- Node10&#45;&gt;Node9 -->
<g id="edge10" class="edge">
<title>Node10&#45;&gt;Node9</title>
<path fill="none" stroke="midnightblue" d="M501.49,-54.02C460.12,-43.82 399.36,-28.84 361.54,-19.52"/>
<polygon fill="midnightblue" stroke="midnightblue" points="500.75,-57.45 511.3,-56.44 502.43,-50.65 500.75,-57.45"/>
</g>
<!-- Node11&#45;&gt;Node9 -->
<g id="edge12" class="edge">
<title>Node11&#45;&gt;Node9</title>
<path fill="none" stroke="midnightblue" d="M282.75,-49.54C293.81,-39.91 307.63,-27.87 316.86,-19.83"/>
<polygon fill="midnightblue" stroke="midnightblue" points="280.2,-47.12 274.96,-56.32 284.8,-52.4 280.2,-47.12"/>
</g>
<!-- Node12&#45;&gt;Node9 -->
<g id="edge14" class="edge">
<title>Node12&#45;&gt;Node9</title>
<path fill="none" stroke="midnightblue" d="M371.96,-49.54C360.73,-39.91 346.68,-27.87 337.31,-19.83"/>
<polygon fill="midnightblue" stroke="midnightblue" points="370.01,-52.47 379.88,-56.32 374.56,-47.16 370.01,-52.47"/>
</g>
<!-- Node13&#45;&gt;Node6 -->
<g id="edge18" class="edge">
<title>Node13&#45;&gt;Node6</title>
<path fill="none" stroke="midnightblue" d="M100.58,-219.59C119.62,-209.61 145.06,-196.27 161.49,-187.65"/>
<polygon fill="midnightblue" stroke="midnightblue" points="98.78,-216.58 91.55,-224.32 102.03,-222.78 98.78,-216.58"/>
</g>
<!-- Node14&#45;&gt;Node6 -->
<g id="edge20" class="edge">
<title>Node14&#45;&gt;Node6</title>
<path fill="none" stroke="midnightblue" d="M158.68,-214.98C163.6,-205.82 169.36,-195.09 173.3,-187.75"/>
<polygon fill="midnightblue" stroke="midnightblue" points="155.44,-213.62 153.79,-224.08 161.6,-216.93 155.44,-213.62"/>
</g>
<!-- Node15&#45;&gt;Node4 -->
<g id="edge22" class="edge">
<title>Node15&#45;&gt;Node4</title>
<path fill="none" stroke="midnightblue" d="M392.88,-333.58C356.4,-322.93 303.08,-307.37 272.02,-298.3"/>
<polygon fill="midnightblue" stroke="midnightblue" points="392.11,-337 402.69,-336.44 394.07,-330.28 392.11,-337"/>
</g>
<!-- Node15&#45;&gt;Node7 -->
<g id="edge24" class="edge">
<title>Node15&#45;&gt;Node7</title>
<path fill="none" stroke="midnightblue" d="M426.47,-326.3C416.9,-293.99 396.59,-225.63 379,-168 375.13,-155.32 370.55,-140.67 367.71,-131.62"/>
<polygon fill="midnightblue" stroke="midnightblue" points="423.19,-327.55 429.39,-336.15 429.91,-325.57 423.19,-327.55"/>
</g>
<!-- Node15&#45;&gt;Node9 -->
<g id="edge23" class="edge">
<title>Node15&#45;&gt;Node9</title>
<path fill="none" stroke="midnightblue" d="M440.26,-327.25C449.44,-305.86 463,-268.59 463,-235 463,-235 463,-235 463,-121 463,-90.77 463.59,-78.12 443,-56 425.34,-37.03 398.75,-25.95 375.48,-19.54"/>
<polygon fill="midnightblue" stroke="midnightblue" points="437.06,-325.83 436.18,-336.39 443.45,-328.69 437.06,-325.83"/>
</g>
<!-- Node16&#45;&gt;Node10 -->
<g id="edge28" class="edge">
<title>Node16&#45;&gt;Node10</title>
<path fill="none" stroke="midnightblue" d="M550.55,-102.1C549.39,-93.14 548.06,-82.86 547.13,-75.75"/>
<polygon fill="midnightblue" stroke="midnightblue" points="547.09,-102.62 551.84,-112.08 554.03,-101.72 547.09,-102.62"/>
</g>
<!-- Node17 -->
<g id="node17" class="node">
<title>Node17</title>
<g id="a_node17"><a xlink:href="FLMsampler_8h.html" target="_top" xlink:title=" ">
<polygon fill="white" stroke="black" points="619.5,-56.5 619.5,-75.5 704.5,-75.5 704.5,-56.5 619.5,-56.5"/>
<text text-anchor="middle" x="662" y="-63.5" font-family="Helvetica,sans-Serif" font-size="10.00">FLMsampler.h</text>
</a>
</g>
</g>
<!-- Node16&#45;&gt;Node17 -->
<g id="edge29" class="edge">
<title>Node16&#45;&gt;Node17</title>
<path fill="none" stroke="midnightblue" d="M579.52,-107.86C599.73,-97.85 626.99,-84.35 644.53,-75.65"/>
<polygon fill="midnightblue" stroke="midnightblue" points="577.92,-104.75 570.51,-112.32 581.03,-111.02 577.92,-104.75"/>
</g>
<!-- Node17&#45;&gt;Node9 -->
<g id="edge30" class="edge">
<title>Node17&#45;&gt;Node9</title>
<path fill="none" stroke="midnightblue" d="M609.55,-55.94C521.46,-41.36 431.11,-27.16 376.62,-18.68"/>
<polygon fill="midnightblue" stroke="midnightblue" points="609,-59.4 619.44,-57.59 610.15,-52.5 609,-59.4"/>
</g>
<!-- Node18&#45;&gt;Node3 -->
<g id="edge32" class="edge">
<title>Node18&#45;&gt;Node3</title>
<path fill="none" stroke="midnightblue" d="M386.5,-439.27C381.03,-430.05 374.58,-419.17 370.19,-411.75"/>
<polygon fill="midnightblue" stroke="midnightblue" points="383.61,-441.26 391.72,-448.08 389.63,-437.7 383.61,-441.26"/>
</g>
<!-- Node19&#45;&gt;Node3 -->
<g id="edge34" class="edge">
<title>Node19&#45;&gt;Node3</title>
<path fill="none" stroke="midnightblue" d="M457.69,-444.37C435.03,-434.26 403.87,-420.35 384.08,-411.52"/>
<polygon fill="midnightblue" stroke="midnightblue" points="456.27,-447.56 466.83,-448.44 459.12,-441.17 456.27,-447.56"/>
</g>
</g>
</svg>
        <g id="navigator" transform="translate(0 0)" fill="#404254">
                <rect fill="#f2f5e9" fill-opacity="0.5" stroke="#606060" stroke-width=".5" x="0" y="0" width="60" height="60"/>
                <use id="zoomplus" xlink:href="#zoomPlus" x="17" y="9" onmousedown="handleZoom(evt,'in')"/>
                <use id="zoomminus" xlink:href="#zoomMin" x="42" y="9" onmousedown="handleZoom(evt,'out')"/>
                <use id="reset" xlink:href="#resetDef" x="30" y="36" onmousedown="handleReset()"/>
                <g id="arrowUp" xlink:href="#dirArrow" transform="translate(30 24)" onmousedown="handlePan(0,-1)">
                  <use xlink:href="#rim" fill="#404040">
                        <set attributeName="fill" to="#808080" begin="arrowUp.mouseover" end="arrowUp.mouseout"/>
                  </use>
                  <path fill="none" stroke="white" stroke-width="1.5" d="M0,-3.0v7 M-2.5,-0.5L0,-3.0L2.5,-0.5"/>
                </g>
                <g id="arrowRight" xlink:href="#dirArrow" transform="rotate(90) translate(36 -43)" onmousedown="handlePan(1,0)">
                  <use xlink:href="#rim" fill="#404040">
                        <set attributeName="fill" to="#808080" begin="arrowRight.mouseover" end="arrowRight.mouseout"/>
                  </use>
                  <path fill="none" stroke="white" stroke-width="1.5" d="M0,-3.0v7 M-2.5,-0.5L0,-3.0L2.5,-0.5"/>
                </g>
                <g id="arrowDown" xlink:href="#dirArrow" transform="rotate(180) translate(-30 -48)" onmousedown="handlePan(0,1)">
                  <use xlink:href="#rim" fill="#404040">
                        <set attributeName="fill" to="#808080" begin="arrowDown.mouseover" end="arrowDown.mouseout"/>
                  </use>
                  <path fill="none" stroke="white" stroke-width="1.5" d="M0,-3.0v7 M-2.5,-0.5L0,-3.0L2.5,-0.5"/>
                </g>
                <g id="arrowLeft" xlink:href="#dirArrow" transform="rotate(270) translate(-36 17)" onmousedown="handlePan(-1,0)">
                  <use xlink:href="#rim" fill="#404040">
                        <set attributeName="fill" to="#808080" begin="arrowLeft.mouseover" end="arrowLeft.mouseout"/>
                  </use>
                  <path fill="none" stroke="white" stroke-width="1.5" d="M0,-3.0v7 M-2.5,-0.5L0,-3.0L2.5,-0.5"/>
                </g>
        </g>
        <svg viewBox="0 0 15 15" width="100%" height="30px" preserveAspectRatio="xMaxYMin meet">
         <g id="arrow_out" transform="scale(0.3 0.3)">
          <a xlink:href="GSLwrappers_8h__dep__incl_org.svg" target="_base">
           <rect id="button" ry="5" rx="5" y="6" x="6" height="38" width="38"
                fill="#f2f5e9" fill-opacity="0.5" stroke="#606060" stroke-width="1.0"/>
           <path id="arrow"
             d="M 11.500037,31.436501 C 11.940474,20.09759 22.043105,11.32322 32.158766,21.979434 L 37.068811,17.246167 C 37.068811,17.246167 37.088388,32 37.088388,32 L 22.160133,31.978069 C 22.160133,31.978069 26.997745,27.140456 26.997745,27.140456 C 18.528582,18.264221 13.291696,25.230495 11.500037,31.436501 z"
             style="fill:#404040;"/>
          </a>
         </g>
        </svg>
</svg>
