<?xml version="1.0" encoding="UTF-8" standalone="no"?>
<!DOCTYPE svg PUBLIC "-//W3C//DTD SVG 1.1//EN"
 "http://www.w3.org/Graphics/SVG/1.1/DTD/svg11.dtd">
<!-- Generated by graphviz version 2.43.0 (0)
 -->
<!-- Title: include_headers.h Pages: 1 -->
<!--zoomable 756 -->
<svg id="main" version="1.1" xmlns="http://www.w3.org/2000/svg" xmlns:xlink="http://www.w3.org/1999/xlink" xml:space="preserve" onload="init(evt)">
<style type="text/css"><![CDATA[
.edge:hover path { stroke: red; }
.edge:hover polygon { stroke: red; fill: red; }
]]></style>
<script type="text/javascript"><![CDATA[
var edges = document.getElementsByTagName('g');
if (edges && edges.length) {
  for (var i=0;i<edges.length;i++) {
    if (edges[i].id.substr(0,4)=='edge') {
      edges[i].setAttribute('class','edge');
    }
  }
}
]]></script>
        <defs>
                <circle id="rim" cx="0" cy="0" r="7"/>
                <circle id="rim2" cx="0" cy="0" r="3.5"/>
                <g id="zoomPlus">
                        <use xlink:href="#rim" fill="#404040">
                                <set attributeName="fill" to="#808080" begin="zoomplus.mouseover" end="zoomplus.mouseout"/>
                        </use>
                        <path d="M-4,0h8M0,-4v8" fill="none" stroke="white" stroke-width="1.5" pointer-events="none"/>
                </g>
                <g id="zoomMin">
                        <use xlink:href="#rim" fill="#404040">
                                <set attributeName="fill" to="#808080" begin="zoomminus.mouseover" end="zoomminus.mouseout"/>
                        </use>
                        <path d="M-4,0h8" fill="none" stroke="white" stroke-width="1.5" pointer-events="none"/>
                </g>
                <g id="dirArrow">
                        <path fill="none" stroke="white" stroke-width="1.5" d="M0,-3.0v7 M-2.5,-0.5L0,-3.0L2.5,-0.5"/>
                </g>
               <g id="resetDef">
                       <use xlink:href="#rim2" fill="#404040">
                               <set attributeName="fill" to="#808080" begin="reset.mouseover" end="reset.mouseout"/>
                       </use>
               </g>
        </defs>

<script type="text/javascript">
var viewWidth = 1187;
var viewHeight = 756;
var sectionId = 'dynsection-1';
</script>
<script xlink:href="svgpan.js"/>
<svg id="graph" class="graph">
<g id="viewport">
<title>include_headers.h</title>
<polygon fill="white" stroke="transparent" points="-4,4 -4,-752 1182.5,-752 1182.5,4 -4,4"/>
<!-- Node1 -->
<g id="node1" class="node">
<title>Node1</title>
<g id="a_node1"><a xlink:title=" ">
<polygon fill="#bfbfbf" stroke="black" points="501.5,-728.5 501.5,-747.5 606.5,-747.5 606.5,-728.5 501.5,-728.5"/>
<text text-anchor="middle" x="554" y="-735.5" font-family="Helvetica,sans-Serif" font-size="10.00">include_headers.h</text>
</a>
</g>
</g>
<!-- Node2 -->
<g id="node2" class="node">
<title>Node2</title>
<g id="a_node2"><a xlink:href="GGM_8h.html" target="_top" xlink:title=" ">
<polygon fill="white" stroke="black" points="274,-280.5 274,-299.5 324,-299.5 324,-280.5 274,-280.5"/>
<text text-anchor="middle" x="299" y="-287.5" font-family="Helvetica,sans-Serif" font-size="10.00">GGM.h</text>
</a>
</g>
</g>
<!-- Node1&#45;&gt;Node2 -->
<g id="edge1" class="edge">
<title>Node1&#45;&gt;Node2</title>
<path fill="none" stroke="midnightblue" d="M491.3,-735.59C361.63,-730.98 76,-711.26 76,-627 76,-627 76,-627 76,-513 76,-415.66 130.16,-398.24 205,-336 225.59,-318.88 253.79,-306.51 273.92,-299.13"/>
<polygon fill="midnightblue" stroke="midnightblue" points="491.37,-739.1 501.48,-735.94 491.6,-732.1 491.37,-739.1"/>
</g>
<!-- Node5 -->
<g id="node5" class="node">
<title>Node5</title>
<g id="a_node5"><a xlink:href="SamplerOptions_8h.html" target="_top" xlink:title=" ">
<polygon fill="white" stroke="black" points="317,-112.5 317,-131.5 421,-131.5 421,-112.5 317,-112.5"/>
<text text-anchor="middle" x="369" y="-119.5" font-family="Helvetica,sans-Serif" font-size="10.00">SamplerOptions.h</text>
</a>
</g>
</g>
<!-- Node1&#45;&gt;Node5 -->
<g id="edge65" class="edge">
<title>Node1&#45;&gt;Node5</title>
<path fill="none" stroke="midnightblue" d="M491.22,-735.24C386.09,-731.51 179.4,-720.69 113,-692 72.51,-674.5 38,-671.11 38,-627 38,-627 38,-627 38,-289 38,-221.98 71.14,-203.48 128,-168 158.83,-148.76 255.75,-135.17 316.88,-128.25"/>
<polygon fill="midnightblue" stroke="midnightblue" points="491.26,-738.74 501.38,-735.58 491.51,-731.74 491.26,-738.74"/>
</g>
<!-- Node7 -->
<g id="node7" class="node">
<title>Node7</title>
<g id="a_node7"><a xlink:href="BGSL__export_8cpp.html" target="_top" xlink:title=" ">
<polygon fill="white" stroke="black" points="291.5,-0.5 291.5,-19.5 390.5,-19.5 390.5,-0.5 291.5,-0.5"/>
<text text-anchor="middle" x="341" y="-7.5" font-family="Helvetica,sans-Serif" font-size="10.00">BGSL_export.cpp</text>
</a>
</g>
</g>
<!-- Node1&#45;&gt;Node7 -->
<g id="edge64" class="edge">
<title>Node1&#45;&gt;Node7</title>
<path fill="none" stroke="midnightblue" d="M491.38,-736.69C376.32,-735.24 136.22,-727.86 62,-692 26.05,-674.63 0,-666.92 0,-627 0,-627 0,-627 0,-121 0,-80.77 27.33,-74.6 63,-56 101.85,-35.74 222.59,-21.79 291.5,-15.24"/>
<polygon fill="midnightblue" stroke="midnightblue" points="491.41,-740.19 501.45,-736.81 491.49,-733.19 491.41,-740.19"/>
</g>
<!-- Node13 -->
<g id="node13" class="node">
<title>Node13</title>
<g id="a_node13"><a xlink:href="Groups_8h.html" target="_top" xlink:title=" ">
<polygon fill="white" stroke="black" points="352,-672.5 352,-691.5 412,-691.5 412,-672.5 352,-672.5"/>
<text text-anchor="middle" x="382" y="-679.5" font-family="Helvetica,sans-Serif" font-size="10.00">Groups.h</text>
</a>
</g>
</g>
<!-- Node1&#45;&gt;Node13 -->
<g id="edge19" class="edge">
<title>Node1&#45;&gt;Node13</title>
<path fill="none" stroke="midnightblue" d="M517.17,-725.44C484.74,-715.26 438.26,-700.66 409.13,-691.52"/>
<polygon fill="midnightblue" stroke="midnightblue" points="516.16,-728.79 526.75,-728.44 518.25,-722.11 516.16,-728.79"/>
</g>
<!-- Node15 -->
<g id="node15" class="node">
<title>Node15</title>
<g id="a_node15"><a xlink:href="BlockGraphCRTP_8h.html" target="_top" xlink:title=" ">
<polygon fill="white" stroke="black" points="446.5,-504.5 446.5,-523.5 551.5,-523.5 551.5,-504.5 446.5,-504.5"/>
<text text-anchor="middle" x="499" y="-511.5" font-family="Helvetica,sans-Serif" font-size="10.00">BlockGraphCRTP.h</text>
</a>
</g>
</g>
<!-- Node1&#45;&gt;Node15 -->
<g id="edge55" class="edge">
<title>Node1&#45;&gt;Node15</title>
<path fill="none" stroke="midnightblue" d="M562.48,-718.95C567.54,-705.93 572.39,-687.91 569,-672 556.2,-611.87 518.67,-546.85 504.5,-523.75"/>
<polygon fill="midnightblue" stroke="midnightblue" points="559.24,-717.62 558.52,-728.19 565.68,-720.37 559.24,-717.62"/>
</g>
<!-- Node16 -->
<g id="node16" class="node">
<title>Node16</title>
<g id="a_node16"><a xlink:href="utils_8h.html" target="_top" xlink:title=" ">
<polygon fill="white" stroke="black" points="795.5,-504.5 795.5,-523.5 842.5,-523.5 842.5,-504.5 795.5,-504.5"/>
<text text-anchor="middle" x="819" y="-511.5" font-family="Helvetica,sans-Serif" font-size="10.00">utils.h</text>
</a>
</g>
</g>
<!-- Node1&#45;&gt;Node16 -->
<g id="edge56" class="edge">
<title>Node1&#45;&gt;Node16</title>
<path fill="none" stroke="midnightblue" d="M576.51,-722.99C589.78,-714.46 606.7,-703.1 621,-692 698.19,-632.03 783.32,-550 810.3,-523.57"/>
<polygon fill="midnightblue" stroke="midnightblue" points="574.55,-720.08 567.99,-728.4 578.31,-725.99 574.55,-720.08"/>
</g>
<!-- Node18 -->
<g id="node18" class="node">
<title>Node18</title>
<g id="a_node18"><a xlink:href="GraphPrior_8h.html" target="_top" xlink:title=" ">
<polygon fill="white" stroke="black" points="486.5,-336.5 486.5,-355.5 563.5,-355.5 563.5,-336.5 486.5,-336.5"/>
<text text-anchor="middle" x="525" y="-343.5" font-family="Helvetica,sans-Serif" font-size="10.00">GraphPrior.h</text>
</a>
</g>
</g>
<!-- Node1&#45;&gt;Node18 -->
<g id="edge63" class="edge">
<title>Node1&#45;&gt;Node18</title>
<path fill="none" stroke="midnightblue" d="M616.79,-735.5C745.86,-730.7 1029,-710.65 1029,-627 1029,-627 1029,-627 1029,-457 1029,-409.42 681.73,-365.04 563.71,-351.33"/>
<polygon fill="midnightblue" stroke="midnightblue" points="616.52,-732.01 606.65,-735.86 616.77,-739 616.52,-732.01"/>
</g>
<!-- Node19 -->
<g id="node19" class="node">
<title>Node19</title>
<g id="a_node19"><a xlink:href="FLMSamplerOptions_8h.html" target="_top" xlink:title=" ">
<polygon fill="white" stroke="black" points="658,-336.5 658,-355.5 782,-355.5 782,-336.5 658,-336.5"/>
<text text-anchor="middle" x="720" y="-343.5" font-family="Helvetica,sans-Serif" font-size="10.00">FLMSamplerOptions.h</text>
</a>
</g>
</g>
<!-- Node1&#45;&gt;Node19 -->
<g id="edge69" class="edge">
<title>Node1&#45;&gt;Node19</title>
<path fill="none" stroke="midnightblue" d="M617.33,-736.58C754.53,-733.96 1067,-717.99 1067,-627 1067,-627 1067,-627 1067,-457 1067,-397.91 881.85,-366.45 782.04,-353.79"/>
<polygon fill="midnightblue" stroke="midnightblue" points="616.91,-733.09 606.97,-736.76 617.03,-740.09 616.91,-733.09"/>
</g>
<!-- Node21 -->
<g id="node21" class="node">
<title>Node21</title>
<g id="a_node21"><a xlink:href="GWishart_8h.html" target="_top" xlink:title=" ">
<polygon fill="white" stroke="black" points="472.5,-448.5 472.5,-467.5 543.5,-467.5 543.5,-448.5 472.5,-448.5"/>
<text text-anchor="middle" x="508" y="-455.5" font-family="Helvetica,sans-Serif" font-size="10.00">GWishart.h</text>
</a>
</g>
</g>
<!-- Node1&#45;&gt;Node21 -->
<g id="edge61" class="edge">
<title>Node1&#45;&gt;Node21</title>
<path fill="none" stroke="midnightblue" d="M491.24,-731.73C447.83,-726.18 389.71,-714.89 343,-692 302.78,-672.29 266,-671.79 266,-627 266,-627 266,-627 266,-569 266,-524.23 404.98,-484.15 472.29,-467.35"/>
<polygon fill="midnightblue" stroke="midnightblue" points="491.03,-735.23 501.38,-732.96 491.87,-728.28 491.03,-735.23"/>
</g>
<!-- Node22 -->
<g id="node22" class="node">
<title>Node22</title>
<g id="a_node22"><a xlink:href="Precision_8h.html" target="_top" xlink:title=" ">
<polygon fill="white" stroke="black" points="350,-448.5 350,-467.5 420,-467.5 420,-448.5 350,-448.5"/>
<text text-anchor="middle" x="385" y="-455.5" font-family="Helvetica,sans-Serif" font-size="10.00">Precision.h</text>
</a>
</g>
</g>
<!-- Node1&#45;&gt;Node22 -->
<g id="edge62" class="edge">
<title>Node1&#45;&gt;Node22</title>
<path fill="none" stroke="midnightblue" d="M490.96,-736.7C435.88,-734.04 355.23,-724.24 293,-692 256.73,-673.2 228,-667.86 228,-627 228,-627 228,-627 228,-569 228,-509.93 303.48,-479.89 349.77,-467.02"/>
<polygon fill="midnightblue" stroke="midnightblue" points="491.14,-740.21 501.28,-737.12 491.43,-733.21 491.14,-740.21"/>
</g>
<!-- Node23 -->
<g id="node23" class="node">
<title>Node23</title>
<g id="a_node23"><a xlink:href="Test__Graphs_8cpp.html" target="_top" xlink:title=" ">
<polygon fill="white" stroke="black" points="570,-504.5 570,-523.5 666,-523.5 666,-504.5 570,-504.5"/>
<text text-anchor="middle" x="618" y="-511.5" font-family="Helvetica,sans-Serif" font-size="10.00">Test_Graphs.cpp</text>
</a>
</g>
</g>
<!-- Node1&#45;&gt;Node23 -->
<g id="edge70" class="edge">
<title>Node1&#45;&gt;Node23</title>
<path fill="none" stroke="midnightblue" d="M567.09,-720.06C572.76,-711.96 579,-701.89 583,-692 607.75,-630.72 615.48,-550.21 617.43,-523.8"/>
<polygon fill="midnightblue" stroke="midnightblue" points="564.17,-718.12 561.08,-728.25 569.82,-722.26 564.17,-718.12"/>
</g>
<!-- Node24 -->
<g id="node24" class="node">
<title>Node24</title>
<g id="a_node24"><a xlink:href="Test__GWish_8cpp.html" target="_top" xlink:title=" ">
<polygon fill="white" stroke="black" points="684.5,-504.5 684.5,-523.5 777.5,-523.5 777.5,-504.5 684.5,-504.5"/>
<text text-anchor="middle" x="731" y="-511.5" font-family="Helvetica,sans-Serif" font-size="10.00">Test_GWish.cpp</text>
</a>
</g>
</g>
<!-- Node1&#45;&gt;Node24 -->
<g id="edge71" class="edge">
<title>Node1&#45;&gt;Node24</title>
<path fill="none" stroke="midnightblue" d="M571.15,-721.47C580.09,-713.07 591.01,-702.32 600,-692 652.99,-631.18 707.62,-550.38 725.19,-523.85"/>
<polygon fill="midnightblue" stroke="midnightblue" points="568.57,-719.09 563.6,-728.45 573.32,-724.23 568.57,-719.09"/>
</g>
<!-- Node25 -->
<g id="node25" class="node">
<title>Node25</title>
<g id="a_node25"><a xlink:href="BlockGraph_8h.html" target="_top" xlink:title=" ">
<polygon fill="white" stroke="black" points="422,-616.5 422,-635.5 504,-635.5 504,-616.5 422,-616.5"/>
<text text-anchor="middle" x="463" y="-623.5" font-family="Helvetica,sans-Serif" font-size="10.00">BlockGraph.h</text>
</a>
</g>
</g>
<!-- Node1&#45;&gt;Node25 -->
<g id="edge52" class="edge">
<title>Node1&#45;&gt;Node25</title>
<path fill="none" stroke="midnightblue" d="M516.89,-724.44C501.3,-717.31 484.4,-706.79 474,-692 462.02,-674.96 461.51,-649.3 462.22,-635.88"/>
<polygon fill="midnightblue" stroke="midnightblue" points="515.78,-727.77 526.35,-728.44 518.51,-721.32 515.78,-727.77"/>
</g>
<!-- Node27 -->
<g id="node27" class="node">
<title>Node27</title>
<g id="a_node27"><a xlink:href="GraphType_8h.html" target="_top" xlink:title=" ">
<polygon fill="white" stroke="black" points="482.5,-672.5 482.5,-691.5 559.5,-691.5 559.5,-672.5 482.5,-672.5"/>
<text text-anchor="middle" x="521" y="-679.5" font-family="Helvetica,sans-Serif" font-size="10.00">GraphType.h</text>
</a>
</g>
</g>
<!-- Node1&#45;&gt;Node27 -->
<g id="edge53" class="edge">
<title>Node1&#45;&gt;Node27</title>
<path fill="none" stroke="midnightblue" d="M543.17,-719.27C537.53,-710.05 530.88,-699.17 526.35,-691.75"/>
<polygon fill="midnightblue" stroke="midnightblue" points="540.35,-721.38 548.55,-728.08 546.32,-717.73 540.35,-721.38"/>
</g>
<!-- Node28 -->
<g id="node28" class="node">
<title>Node28</title>
<g id="a_node28"><a xlink:href="GSLwrappers_8h.html" target="_top" xlink:title=" ">
<polygon fill="white" stroke="black" points="809.5,-560.5 809.5,-579.5 898.5,-579.5 898.5,-560.5 809.5,-560.5"/>
<text text-anchor="middle" x="854" y="-567.5" font-family="Helvetica,sans-Serif" font-size="10.00">GSLwrappers.h</text>
</a>
</g>
</g>
<!-- Node1&#45;&gt;Node28 -->
<g id="edge57" class="edge">
<title>Node1&#45;&gt;Node28</title>
<path fill="none" stroke="midnightblue" d="M616.73,-734.75C660.42,-730.6 718.43,-719.74 762,-692 807.86,-662.81 839.49,-602.25 850.09,-579.7"/>
<polygon fill="midnightblue" stroke="midnightblue" points="616.18,-731.28 606.52,-735.62 616.78,-738.25 616.18,-731.28"/>
</g>
<!-- Node30 -->
<g id="node30" class="node">
<title>Node30</title>
<g id="a_node30"><a xlink:href="ProgressBar_8h.html" target="_top" xlink:title=" ">
<polygon fill="white" stroke="black" points="1095.5,-392.5 1095.5,-411.5 1178.5,-411.5 1178.5,-392.5 1095.5,-392.5"/>
<text text-anchor="middle" x="1137" y="-399.5" font-family="Helvetica,sans-Serif" font-size="10.00">ProgressBar.h</text>
</a>
</g>
</g>
<!-- Node1&#45;&gt;Node30 -->
<g id="edge66" class="edge">
<title>Node1&#45;&gt;Node30</title>
<path fill="none" stroke="midnightblue" d="M617.15,-734.78C748.53,-729.71 1042.32,-715.83 1081,-692 1109.88,-674.21 1121,-660.92 1121,-627 1121,-627 1121,-627 1121,-513 1121,-474.98 1130.47,-430.34 1134.84,-411.78"/>
<polygon fill="midnightblue" stroke="midnightblue" points="616.71,-731.29 606.85,-735.17 616.97,-738.29 616.71,-731.29"/>
</g>
<!-- Node3 -->
<g id="node3" class="node">
<title>Node3</title>
<g id="a_node3"><a xlink:href="AddRemoveMH_8h.html" target="_top" xlink:title=" ">
<polygon fill="white" stroke="black" points="142.5,-224.5 142.5,-243.5 243.5,-243.5 243.5,-224.5 142.5,-224.5"/>
<text text-anchor="middle" x="193" y="-231.5" font-family="Helvetica,sans-Serif" font-size="10.00">AddRemoveMH.h</text>
</a>
</g>
</g>
<!-- Node2&#45;&gt;Node3 -->
<g id="edge2" class="edge">
<title>Node2&#45;&gt;Node3</title>
<path fill="none" stroke="midnightblue" d="M272.94,-275.73C253.32,-265.73 226.97,-252.31 209.99,-243.65"/>
<polygon fill="midnightblue" stroke="midnightblue" points="271.47,-278.9 281.97,-280.32 274.65,-272.67 271.47,-278.9"/>
</g>
<!-- Node4 -->
<g id="node4" class="node">
<title>Node4</title>
<g id="a_node4"><a xlink:href="GGMFactory_8h.html" target="_top" xlink:title=" ">
<polygon fill="white" stroke="black" points="257.5,-168.5 257.5,-187.5 340.5,-187.5 340.5,-168.5 257.5,-168.5"/>
<text text-anchor="middle" x="299" y="-175.5" font-family="Helvetica,sans-Serif" font-size="10.00">GGMFactory.h</text>
</a>
</g>
</g>
<!-- Node2&#45;&gt;Node4 -->
<g id="edge14" class="edge">
<title>Node2&#45;&gt;Node4</title>
<path fill="none" stroke="midnightblue" d="M294.97,-270.57C293.39,-262.46 291.78,-252.8 291,-244 289.22,-223.84 293.78,-200.29 296.73,-187.81"/>
<polygon fill="midnightblue" stroke="midnightblue" points="291.56,-271.35 297.01,-280.43 298.41,-269.93 291.56,-271.35"/>
</g>
<!-- Node11 -->
<g id="node11" class="node">
<title>Node11</title>
<g id="a_node11"><a xlink:href="RJMH_8h.html" target="_top" xlink:title=" ">
<polygon fill="white" stroke="black" points="300,-224.5 300,-243.5 352,-243.5 352,-224.5 300,-224.5"/>
<text text-anchor="middle" x="326" y="-231.5" font-family="Helvetica,sans-Serif" font-size="10.00">RJMH.h</text>
</a>
</g>
</g>
<!-- Node2&#45;&gt;Node11 -->
<g id="edge15" class="edge">
<title>Node2&#45;&gt;Node11</title>
<path fill="none" stroke="midnightblue" d="M308.01,-270.98C312.59,-261.82 317.95,-251.09 321.62,-243.75"/>
<polygon fill="midnightblue" stroke="midnightblue" points="304.8,-269.57 303.46,-280.08 311.06,-272.7 304.8,-269.57"/>
</g>
<!-- Node12 -->
<g id="node12" class="node">
<title>Node12</title>
<g id="a_node12"><a xlink:href="DRJMH_8h.html" target="_top" xlink:title=" ">
<polygon fill="white" stroke="black" points="370.5,-224.5 370.5,-243.5 429.5,-243.5 429.5,-224.5 370.5,-224.5"/>
<text text-anchor="middle" x="400" y="-231.5" font-family="Helvetica,sans-Serif" font-size="10.00">DRJMH.h</text>
</a>
</g>
</g>
<!-- Node2&#45;&gt;Node12 -->
<g id="edge17" class="edge">
<title>Node2&#45;&gt;Node12</title>
<path fill="none" stroke="midnightblue" d="M324.08,-275.59C342.76,-265.61 367.7,-252.27 383.81,-243.65"/>
<polygon fill="midnightblue" stroke="midnightblue" points="322.4,-272.52 315.23,-280.32 325.7,-278.7 322.4,-272.52"/>
</g>
<!-- Node3&#45;&gt;Node4 -->
<g id="edge3" class="edge">
<title>Node3&#45;&gt;Node4</title>
<path fill="none" stroke="midnightblue" d="M219.06,-219.73C238.68,-209.73 265.03,-196.31 282.01,-187.65"/>
<polygon fill="midnightblue" stroke="midnightblue" points="217.35,-216.67 210.03,-224.32 220.53,-222.9 217.35,-216.67"/>
</g>
<!-- Node4&#45;&gt;Node5 -->
<g id="edge4" class="edge">
<title>Node4&#45;&gt;Node5</title>
<path fill="none" stroke="midnightblue" d="M318.31,-162.1C330.91,-152.38 346.93,-140.03 357.55,-131.83"/>
<polygon fill="midnightblue" stroke="midnightblue" points="316.03,-159.44 310.25,-168.32 320.3,-164.99 316.03,-159.44"/>
</g>
<!-- Node4&#45;&gt;Node7 -->
<g id="edge13" class="edge">
<title>Node4&#45;&gt;Node7</title>
<path fill="none" stroke="midnightblue" d="M247.55,-167.35C172.42,-151.05 46.61,-114.04 95,-56 119.5,-26.61 226.87,-16.36 291.39,-12.82"/>
<polygon fill="midnightblue" stroke="midnightblue" points="246.84,-170.78 257.35,-169.42 248.29,-163.93 246.84,-170.78"/>
</g>
<!-- Node6 -->
<g id="node6" class="node">
<title>Node6</title>
<g id="a_node6"><a xlink:href="GibbsSamplerBase_8h.html" target="_top" xlink:title=" ">
<polygon fill="white" stroke="black" points="212,-56.5 212,-75.5 330,-75.5 330,-56.5 212,-56.5"/>
<text text-anchor="middle" x="271" y="-63.5" font-family="Helvetica,sans-Serif" font-size="10.00">GibbsSamplerBase.h</text>
</a>
</g>
</g>
<!-- Node5&#45;&gt;Node6 -->
<g id="edge5" class="edge">
<title>Node5&#45;&gt;Node6</title>
<path fill="none" stroke="midnightblue" d="M344.41,-107.45C326.32,-97.48 302.27,-84.23 286.71,-75.65"/>
<polygon fill="midnightblue" stroke="midnightblue" points="342.81,-110.56 353.25,-112.32 346.19,-104.43 342.81,-110.56"/>
</g>
<!-- Node8 -->
<g id="node8" class="node">
<title>Node8</title>
<g id="a_node8"><a xlink:href="PosteriorAnalysis_8h.html" target="_top" xlink:title=" ">
<polygon fill="white" stroke="black" points="492,-56.5 492,-75.5 602,-75.5 602,-56.5 492,-56.5"/>
<text text-anchor="middle" x="547" y="-63.5" font-family="Helvetica,sans-Serif" font-size="10.00">PosteriorAnalysis.h</text>
</a>
</g>
</g>
<!-- Node5&#45;&gt;Node8 -->
<g id="edge7" class="edge">
<title>Node5&#45;&gt;Node8</title>
<path fill="none" stroke="midnightblue" d="M407.12,-109.44C440.68,-99.26 488.77,-84.66 518.93,-75.52"/>
<polygon fill="midnightblue" stroke="midnightblue" points="405.76,-106.19 397.2,-112.44 407.79,-112.89 405.76,-106.19"/>
</g>
<!-- Node9 -->
<g id="node9" class="node">
<title>Node9</title>
<g id="a_node9"><a xlink:href="GibbsSamplerDebug_8h.html" target="_top" xlink:title=" ">
<polygon fill="white" stroke="black" points="348.5,-56.5 348.5,-75.5 473.5,-75.5 473.5,-56.5 348.5,-56.5"/>
<text text-anchor="middle" x="411" y="-63.5" font-family="Helvetica,sans-Serif" font-size="10.00">GibbsSamplerDebug.h</text>
</a>
</g>
</g>
<!-- Node5&#45;&gt;Node9 -->
<g id="edge9" class="edge">
<title>Node5&#45;&gt;Node9</title>
<path fill="none" stroke="midnightblue" d="M382.11,-104.14C389.43,-94.74 398.24,-83.4 404.19,-75.75"/>
<polygon fill="midnightblue" stroke="midnightblue" points="379.31,-102.04 375.94,-112.08 384.84,-106.34 379.31,-102.04"/>
</g>
<!-- Node10 -->
<g id="node10" class="node">
<title>Node10</title>
<g id="a_node10"><a xlink:href="GGMsampler_8h.html" target="_top" xlink:title=" ">
<polygon fill="white" stroke="black" points="104.5,-56.5 104.5,-75.5 193.5,-75.5 193.5,-56.5 104.5,-56.5"/>
<text text-anchor="middle" x="149" y="-63.5" font-family="Helvetica,sans-Serif" font-size="10.00">GGMsampler.h</text>
</a>
</g>
</g>
<!-- Node5&#45;&gt;Node10 -->
<g id="edge11" class="edge">
<title>Node5&#45;&gt;Node10</title>
<path fill="none" stroke="midnightblue" d="M324.28,-110.02C282.72,-99.82 221.69,-84.84 183.7,-75.52"/>
<polygon fill="midnightblue" stroke="midnightblue" points="323.59,-113.46 334.14,-112.44 325.26,-106.66 323.59,-113.46"/>
</g>
<!-- Node6&#45;&gt;Node7 -->
<g id="edge6" class="edge">
<title>Node6&#45;&gt;Node7</title>
<path fill="none" stroke="midnightblue" d="M290.31,-50.1C302.91,-40.38 318.93,-28.03 329.55,-19.83"/>
<polygon fill="midnightblue" stroke="midnightblue" points="288.03,-47.44 282.25,-56.32 292.3,-52.99 288.03,-47.44"/>
</g>
<!-- Node8&#45;&gt;Node7 -->
<g id="edge8" class="edge">
<title>Node8&#45;&gt;Node7</title>
<path fill="none" stroke="midnightblue" d="M504.38,-53.83C465.49,-43.63 408.84,-28.78 373.49,-19.52"/>
<polygon fill="midnightblue" stroke="midnightblue" points="503.8,-57.29 514.36,-56.44 505.57,-50.52 503.8,-57.29"/>
</g>
<!-- Node9&#45;&gt;Node7 -->
<g id="edge10" class="edge">
<title>Node9&#45;&gt;Node7</title>
<path fill="none" stroke="midnightblue" d="M391.69,-50.1C379.09,-40.38 363.07,-28.03 352.45,-19.83"/>
<polygon fill="midnightblue" stroke="midnightblue" points="389.7,-52.99 399.75,-56.32 393.97,-47.44 389.7,-52.99"/>
</g>
<!-- Node10&#45;&gt;Node7 -->
<g id="edge12" class="edge">
<title>Node10&#45;&gt;Node7</title>
<path fill="none" stroke="midnightblue" d="M189.18,-53.7C225.42,-43.51 277.91,-28.74 310.72,-19.52"/>
<polygon fill="midnightblue" stroke="midnightblue" points="188.1,-50.37 179.42,-56.44 190,-57.11 188.1,-50.37"/>
</g>
<!-- Node11&#45;&gt;Node4 -->
<g id="edge16" class="edge">
<title>Node11&#45;&gt;Node4</title>
<path fill="none" stroke="midnightblue" d="M316.99,-214.98C312.41,-205.82 307.05,-195.09 303.38,-187.75"/>
<polygon fill="midnightblue" stroke="midnightblue" points="313.94,-216.7 321.54,-224.08 320.2,-213.57 313.94,-216.7"/>
</g>
<!-- Node12&#45;&gt;Node4 -->
<g id="edge18" class="edge">
<title>Node12&#45;&gt;Node4</title>
<path fill="none" stroke="midnightblue" d="M374.92,-219.59C356.24,-209.61 331.3,-196.27 315.19,-187.65"/>
<polygon fill="midnightblue" stroke="midnightblue" points="373.3,-222.7 383.77,-224.32 376.6,-216.52 373.3,-222.7"/>
</g>
<!-- Node14 -->
<g id="node14" class="node">
<title>Node14</title>
<g id="a_node14"><a xlink:href="include__graphs_8h.html" target="_top" xlink:title=" ">
<polygon fill="white" stroke="black" points="368.5,-560.5 368.5,-579.5 467.5,-579.5 467.5,-560.5 368.5,-560.5"/>
<text text-anchor="middle" x="418" y="-567.5" font-family="Helvetica,sans-Serif" font-size="10.00">include_graphs.h</text>
</a>
</g>
</g>
<!-- Node13&#45;&gt;Node14 -->
<g id="edge20" class="edge">
<title>Node13&#45;&gt;Node14</title>
<path fill="none" stroke="midnightblue" d="M355.17,-667.27C334.62,-654.83 311.71,-635.51 324,-616 335.86,-597.17 358.03,-586.05 377.85,-579.57"/>
<polygon fill="midnightblue" stroke="midnightblue" points="353.6,-670.4 364.02,-672.32 357.07,-664.32 353.6,-670.4"/>
</g>
<!-- Node13&#45;&gt;Node25 -->
<g id="edge49" class="edge">
<title>Node13&#45;&gt;Node25</title>
<path fill="none" stroke="midnightblue" d="M403.57,-666.62C418.36,-656.76 437.51,-643.99 450.02,-635.65"/>
<polygon fill="midnightblue" stroke="midnightblue" points="401.39,-663.86 395.01,-672.32 405.28,-669.69 401.39,-663.86"/>
</g>
<!-- Node26 -->
<g id="node26" class="node">
<title>Node26</title>
<g id="a_node26"><a xlink:href="Groups_8cpp.html" target="_top" xlink:title=" ">
<polygon fill="white" stroke="black" points="332.5,-616.5 332.5,-635.5 403.5,-635.5 403.5,-616.5 332.5,-616.5"/>
<text text-anchor="middle" x="368" y="-623.5" font-family="Helvetica,sans-Serif" font-size="10.00">Groups.cpp</text>
</a>
</g>
</g>
<!-- Node13&#45;&gt;Node26 -->
<g id="edge51" class="edge">
<title>Node13&#45;&gt;Node26</title>
<path fill="none" stroke="midnightblue" d="M377.18,-662.4C374.83,-653.36 372.13,-642.94 370.27,-635.75"/>
<polygon fill="midnightblue" stroke="midnightblue" points="373.79,-663.28 379.69,-672.08 380.57,-661.52 373.79,-663.28"/>
</g>
<!-- Node14&#45;&gt;Node2 -->
<g id="edge21" class="edge">
<title>Node14&#45;&gt;Node2</title>
<path fill="none" stroke="midnightblue" d="M358.12,-565.4C290.57,-557.71 190,-533.72 190,-459 190,-459 190,-459 190,-401 190,-350.59 248.47,-315.01 279.76,-299.58"/>
<polygon fill="midnightblue" stroke="midnightblue" points="357.94,-568.9 368.25,-566.46 358.66,-561.93 357.94,-568.9"/>
</g>
<!-- Node14&#45;&gt;Node5 -->
<g id="edge45" class="edge">
<title>Node14&#45;&gt;Node5</title>
<path fill="none" stroke="midnightblue" d="M358.04,-562.99C302.5,-556.3 225.09,-543.75 202,-524 117.88,-452.05 114,-401.7 114,-291 114,-291 114,-291 114,-233 114,-145.49 242.18,-126.77 316.78,-123.29"/>
<polygon fill="midnightblue" stroke="midnightblue" points="357.8,-566.49 368.14,-564.17 358.62,-559.54 357.8,-566.49"/>
</g>
<!-- Node14&#45;&gt;Node7 -->
<g id="edge44" class="edge">
<title>Node14&#45;&gt;Node7</title>
<path fill="none" stroke="midnightblue" d="M358.38,-562.8C297.15,-555.57 206.73,-542.24 177,-524 99.8,-476.64 76,-437.57 76,-347 76,-347 76,-347 76,-289 76,-185.42 13.45,-134.52 81,-56 107.66,-25.01 223.55,-15.36 291.27,-12.35"/>
<polygon fill="midnightblue" stroke="midnightblue" points="357.99,-566.27 368.32,-563.95 358.79,-559.32 357.99,-566.27"/>
</g>
<!-- Node14&#45;&gt;Node15 -->
<g id="edge22" class="edge">
<title>Node14&#45;&gt;Node15</title>
<path fill="none" stroke="midnightblue" d="M434.3,-554.06C447.86,-544.28 466.86,-531.83 480.91,-523.65"/>
<polygon fill="midnightblue" stroke="midnightblue" points="431.82,-551.54 425.9,-560.32 436.01,-557.15 431.82,-551.54"/>
</g>
<!-- Node14&#45;&gt;Node16 -->
<g id="edge24" class="edge">
<title>Node14&#45;&gt;Node16</title>
<path fill="none" stroke="midnightblue" d="M477.6,-564.55C550.92,-558.43 678.97,-545.65 787,-524 789.72,-523.46 792.54,-522.8 795.33,-522.09"/>
<polygon fill="midnightblue" stroke="midnightblue" points="477.3,-561.06 467.62,-565.37 477.88,-568.04 477.3,-561.06"/>
</g>
<!-- Node14&#45;&gt;Node18 -->
<g id="edge43" class="edge">
<title>Node14&#45;&gt;Node18</title>
<path fill="none" stroke="midnightblue" d="M393.15,-554.99C381.34,-547.22 367.89,-536.58 359,-524 338.97,-495.65 323.32,-477.87 341,-448 372.46,-394.84 442.92,-367.8 486.95,-355.59"/>
<polygon fill="midnightblue" stroke="midnightblue" points="391.43,-558.04 401.77,-560.36 395.13,-552.1 391.43,-558.04"/>
</g>
<!-- Node14&#45;&gt;Node19 -->
<g id="edge46" class="edge">
<title>Node14&#45;&gt;Node19</title>
<path fill="none" stroke="midnightblue" d="M419.2,-549.84C421.1,-535.43 425.91,-516.15 438,-504 475.78,-466.04 505.13,-492.03 553,-468 618.6,-435.07 686.23,-377.29 710.57,-355.57"/>
<polygon fill="midnightblue" stroke="midnightblue" points="415.69,-549.83 418.22,-560.12 422.65,-550.5 415.69,-549.83"/>
</g>
<!-- Node14&#45;&gt;Node21 -->
<g id="edge41" class="edge">
<title>Node14&#45;&gt;Node21</title>
<path fill="none" stroke="midnightblue" d="M407.4,-551.24C400.64,-537.37 394.72,-518.13 404,-504 419.07,-481.06 448.6,-469.76 472.35,-464.22"/>
<polygon fill="midnightblue" stroke="midnightblue" points="404.44,-553.12 412.28,-560.25 410.6,-549.79 404.44,-553.12"/>
</g>
<!-- Node14&#45;&gt;Node22 -->
<g id="edge42" class="edge">
<title>Node14&#45;&gt;Node22</title>
<path fill="none" stroke="midnightblue" d="M393.63,-554.73C383.05,-547.09 371.78,-536.64 366,-524 357.2,-504.75 370.17,-480.44 378.64,-467.7"/>
<polygon fill="midnightblue" stroke="midnightblue" points="391.96,-557.82 402.22,-560.47 395.85,-552 391.96,-557.82"/>
</g>
<!-- Node14&#45;&gt;Node23 -->
<g id="edge47" class="edge">
<title>Node14&#45;&gt;Node23</title>
<path fill="none" stroke="midnightblue" d="M459.37,-557.83C497.14,-547.63 552.14,-532.78 586.46,-523.52"/>
<polygon fill="midnightblue" stroke="midnightblue" points="458.43,-554.46 449.69,-560.44 460.26,-561.22 458.43,-554.46"/>
</g>
<!-- Node14&#45;&gt;Node24 -->
<g id="edge48" class="edge">
<title>Node14&#45;&gt;Node24</title>
<path fill="none" stroke="midnightblue" d="M477.71,-558.7C537.87,-548.32 629.46,-532.52 684.45,-523.03"/>
<polygon fill="midnightblue" stroke="midnightblue" points="476.86,-555.29 467.6,-560.44 478.05,-562.19 476.86,-555.29"/>
</g>
<!-- Node15&#45;&gt;Node14 -->
<g id="edge23" class="edge">
<title>Node15&#45;&gt;Node14</title>
<path fill="none" stroke="midnightblue" d="M482.5,-530.09C468.96,-539.84 450.1,-552.18 436.13,-560.32"/>
<polygon fill="midnightblue" stroke="midnightblue" points="484.97,-532.61 490.9,-523.83 480.79,-527 484.97,-532.61"/>
</g>
<!-- Node17 -->
<g id="node17" class="node">
<title>Node17</title>
<g id="a_node17"><a xlink:href="include__helpers_8h.html" target="_top" xlink:title=" ">
<polygon fill="white" stroke="black" points="474,-392.5 474,-411.5 576,-411.5 576,-392.5 474,-392.5"/>
<text text-anchor="middle" x="525" y="-399.5" font-family="Helvetica,sans-Serif" font-size="10.00">include_helpers.h</text>
</a>
</g>
</g>
<!-- Node16&#45;&gt;Node17 -->
<g id="edge25" class="edge">
<title>Node16&#45;&gt;Node17</title>
<path fill="none" stroke="midnightblue" d="M785.35,-503.68C720.48,-487.41 700.24,-491.41 641,-468 601.28,-452.31 558.39,-425.35 537.65,-411.6"/>
<polygon fill="midnightblue" stroke="midnightblue" points="784.7,-507.12 795.26,-506.23 786.45,-500.35 784.7,-507.12"/>
</g>
<!-- Node16&#45;&gt;Node21 -->
<g id="edge37" class="edge">
<title>Node16&#45;&gt;Node21</title>
<path fill="none" stroke="midnightblue" d="M785.28,-503.81C693.32,-483.92 595.41,-470.14 543.92,-463.46"/>
<polygon fill="midnightblue" stroke="midnightblue" points="784.79,-507.29 795.31,-506.01 786.29,-500.45 784.79,-507.29"/>
</g>
<!-- Node16&#45;&gt;Node22 -->
<g id="edge39" class="edge">
<title>Node16&#45;&gt;Node22</title>
<path fill="none" stroke="midnightblue" d="M785.39,-503.95C643.48,-476.69 604.31,-483.81 464,-468 449.73,-466.39 434.02,-464.61 420.39,-463.05"/>
<polygon fill="midnightblue" stroke="midnightblue" points="784.85,-507.41 795.34,-505.88 786.19,-500.54 784.85,-507.41"/>
</g>
<!-- Node17&#45;&gt;Node2 -->
<g id="edge26" class="edge">
<title>Node17&#45;&gt;Node2</title>
<path fill="none" stroke="midnightblue" d="M498.04,-387.88C451.2,-365.08 356.02,-318.75 316.65,-299.59"/>
<polygon fill="midnightblue" stroke="midnightblue" points="496.74,-391.14 507.27,-392.37 499.81,-384.85 496.74,-391.14"/>
</g>
<!-- Node17&#45;&gt;Node5 -->
<g id="edge32" class="edge">
<title>Node17&#45;&gt;Node5</title>
<path fill="none" stroke="midnightblue" d="M505.12,-385.98C495.73,-377.99 485.07,-367.45 478,-356 462.13,-330.28 458,-321.23 458,-291 458,-291 458,-291 458,-233 458,-186.08 408.46,-147.94 383.3,-131.6"/>
<polygon fill="midnightblue" stroke="midnightblue" points="502.94,-388.73 512.91,-392.31 507.36,-383.29 502.94,-388.73"/>
</g>
<!-- Node17&#45;&gt;Node7 -->
<g id="edge31" class="edge">
<title>Node17&#45;&gt;Node7</title>
<path fill="none" stroke="midnightblue" d="M552.38,-387.41C583.49,-369.81 630,-335.98 630,-291 630,-291 630,-291 630,-233 630,-154.33 681.17,-115.75 630,-56 599.78,-20.71 465.09,-12.88 390.72,-11.28"/>
<polygon fill="midnightblue" stroke="midnightblue" points="550.41,-384.5 543.29,-392.35 553.75,-390.65 550.41,-384.5"/>
</g>
<!-- Node17&#45;&gt;Node18 -->
<g id="edge27" class="edge">
<title>Node17&#45;&gt;Node18</title>
<path fill="none" stroke="midnightblue" d="M525,-381.8C525,-372.91 525,-362.78 525,-355.75"/>
<polygon fill="midnightblue" stroke="midnightblue" points="521.5,-382.08 525,-392.08 528.5,-382.08 521.5,-382.08"/>
</g>
<!-- Node17&#45;&gt;Node19 -->
<g id="edge33" class="edge">
<title>Node17&#45;&gt;Node19</title>
<path fill="none" stroke="midnightblue" d="M565.81,-389.7C602.61,-379.51 655.93,-364.74 689.25,-355.52"/>
<polygon fill="midnightblue" stroke="midnightblue" points="564.6,-386.4 555.9,-392.44 566.47,-393.15 564.6,-386.4"/>
</g>
<!-- Node18&#45;&gt;Node2 -->
<g id="edge28" class="edge">
<title>Node18&#45;&gt;Node2</title>
<path fill="none" stroke="midnightblue" d="M479.31,-334.08C432.54,-322.91 361.58,-305.95 324.15,-297.01"/>
<polygon fill="midnightblue" stroke="midnightblue" points="478.65,-337.52 489.19,-336.44 480.28,-330.72 478.65,-337.52"/>
</g>
<!-- Node18&#45;&gt;Node5 -->
<g id="edge30" class="edge">
<title>Node18&#45;&gt;Node5</title>
<path fill="none" stroke="midnightblue" d="M524.38,-326.13C522.26,-290.83 512.89,-214.17 472,-168 455.5,-149.38 429.89,-138.14 408.33,-131.55"/>
<polygon fill="midnightblue" stroke="midnightblue" points="520.9,-326.59 524.86,-336.42 527.89,-326.27 520.9,-326.59"/>
</g>
<!-- Node18&#45;&gt;Node7 -->
<g id="edge29" class="edge">
<title>Node18&#45;&gt;Node7</title>
<path fill="none" stroke="midnightblue" d="M542.16,-329.41C562.01,-309.58 592,-273.3 592,-235 592,-235 592,-235 592,-177 592,-122.56 646.19,-97.54 611,-56 583.32,-23.32 460.76,-14.35 390.66,-11.9"/>
<polygon fill="midnightblue" stroke="midnightblue" points="539.67,-326.95 534.89,-336.4 544.52,-332 539.67,-326.95"/>
</g>
<!-- Node19&#45;&gt;Node8 -->
<g id="edge34" class="edge">
<title>Node19&#45;&gt;Node8</title>
<path fill="none" stroke="midnightblue" d="M709.26,-327.74C676.15,-274.54 576.44,-114.31 552.3,-75.52"/>
<polygon fill="midnightblue" stroke="midnightblue" points="706.38,-329.73 714.63,-336.38 712.32,-326.04 706.38,-329.73"/>
</g>
<!-- Node20 -->
<g id="node20" class="node">
<title>Node20</title>
<g id="a_node20"><a xlink:href="FLMsampler_8h.html" target="_top" xlink:title=" ">
<polygon fill="white" stroke="black" points="838.5,-168.5 838.5,-187.5 923.5,-187.5 923.5,-168.5 838.5,-168.5"/>
<text text-anchor="middle" x="881" y="-175.5" font-family="Helvetica,sans-Serif" font-size="10.00">FLMsampler.h</text>
</a>
</g>
</g>
<!-- Node19&#45;&gt;Node20 -->
<g id="edge35" class="edge">
<title>Node19&#45;&gt;Node20</title>
<path fill="none" stroke="midnightblue" d="M735.86,-328.65C769.52,-293.94 847.15,-213.9 872.69,-187.57"/>
<polygon fill="midnightblue" stroke="midnightblue" points="733.11,-326.46 728.66,-336.08 738.13,-331.33 733.11,-326.46"/>
</g>
<!-- Node20&#45;&gt;Node7 -->
<g id="edge36" class="edge">
<title>Node20&#45;&gt;Node7</title>
<path fill="none" stroke="midnightblue" d="M862.6,-162.12C828.99,-135.83 754.47,-81.53 682,-56 582.73,-21.02 458.52,-12.88 390.76,-11.2"/>
<polygon fill="midnightblue" stroke="midnightblue" points="860.58,-164.99 870.6,-168.46 864.93,-159.5 860.58,-164.99"/>
</g>
<!-- Node21&#45;&gt;Node17 -->
<g id="edge38" class="edge">
<title>Node21&#45;&gt;Node17</title>
<path fill="none" stroke="midnightblue" d="M513.86,-438.4C516.7,-429.36 519.98,-418.94 522.25,-411.75"/>
<polygon fill="midnightblue" stroke="midnightblue" points="510.47,-437.49 510.81,-448.08 517.15,-439.6 510.47,-437.49"/>
</g>
<!-- Node22&#45;&gt;Node17 -->
<g id="edge40" class="edge">
<title>Node22&#45;&gt;Node17</title>
<path fill="none" stroke="midnightblue" d="M416.7,-444.77C443,-434.63 479.72,-420.47 502.92,-411.52"/>
<polygon fill="midnightblue" stroke="midnightblue" points="415.25,-441.58 407.18,-448.44 417.77,-448.11 415.25,-441.58"/>
</g>
<!-- Node25&#45;&gt;Node14 -->
<g id="edge50" class="edge">
<title>Node25&#45;&gt;Node14</title>
<path fill="none" stroke="midnightblue" d="M448.95,-608.14C441.11,-598.74 431.67,-587.4 425.29,-579.75"/>
<polygon fill="midnightblue" stroke="midnightblue" points="446.48,-610.64 455.57,-616.08 451.86,-606.16 446.48,-610.64"/>
</g>
<!-- Node27&#45;&gt;Node14 -->
<g id="edge54" class="edge">
<title>Node27&#45;&gt;Node14</title>
<path fill="none" stroke="midnightblue" d="M523.23,-662.53C523.94,-648.49 522.66,-629.38 513,-616 499.54,-597.36 476.31,-586.17 456.2,-579.61"/>
<polygon fill="midnightblue" stroke="midnightblue" points="519.75,-662.23 522.36,-672.49 526.72,-662.83 519.75,-662.23"/>
</g>
<!-- Node28&#45;&gt;Node16 -->
<g id="edge58" class="edge">
<title>Node28&#45;&gt;Node16</title>
<path fill="none" stroke="midnightblue" d="M842.7,-551.57C836.68,-542.27 829.53,-531.25 824.67,-523.75"/>
<polygon fill="midnightblue" stroke="midnightblue" points="839.84,-553.6 848.22,-560.08 845.72,-549.79 839.84,-553.6"/>
</g>
<!-- Node28&#45;&gt;Node17 -->
<g id="edge59" class="edge">
<title>Node28&#45;&gt;Node17</title>
<path fill="none" stroke="midnightblue" d="M858.78,-550.34C861.24,-536.2 861.93,-517.04 852,-504 818.34,-459.81 659.37,-426.29 576.12,-411.43"/>
<polygon fill="midnightblue" stroke="midnightblue" points="855.3,-549.87 856.6,-560.39 862.14,-551.36 855.3,-549.87"/>
</g>
<!-- Node29 -->
<g id="node29" class="node">
<title>Node29</title>
<g id="a_node29"><a xlink:href="GSLwrappers_8cpp.html" target="_top" xlink:title=" ">
<polygon fill="white" stroke="black" points="899.5,-504.5 899.5,-523.5 1000.5,-523.5 1000.5,-504.5 899.5,-504.5"/>
<text text-anchor="middle" x="950" y="-511.5" font-family="Helvetica,sans-Serif" font-size="10.00">GSLwrappers.cpp</text>
</a>
</g>
</g>
<!-- Node28&#45;&gt;Node29 -->
<g id="edge60" class="edge">
<title>Node28&#45;&gt;Node29</title>
<path fill="none" stroke="midnightblue" d="M878.57,-555.18C896.24,-545.24 919.51,-532.15 934.61,-523.65"/>
<polygon fill="midnightblue" stroke="midnightblue" points="876.42,-552.37 869.42,-560.32 879.86,-558.47 876.42,-552.37"/>
</g>
<!-- Node30&#45;&gt;Node5 -->
<g id="edge67" class="edge">
<title>Node30&#45;&gt;Node5</title>
<path fill="none" stroke="midnightblue" d="M1090.07,-390.19C999.62,-368.71 810,-320.19 810,-291 810,-291 810,-291 810,-233 810,-153.7 538.14,-131.11 421.32,-125.07"/>
<polygon fill="midnightblue" stroke="midnightblue" points="1089.27,-393.6 1099.81,-392.49 1090.88,-386.79 1089.27,-393.6"/>
</g>
<!-- Node30&#45;&gt;Node19 -->
<g id="edge68" class="edge">
<title>Node30&#45;&gt;Node19</title>
<path fill="none" stroke="midnightblue" d="M1085.44,-392.64C1083.95,-392.42 1082.46,-392.21 1081,-392 1024.8,-383.98 869.55,-365.04 782.04,-354.47"/>
<polygon fill="midnightblue" stroke="midnightblue" points="1085.02,-396.12 1095.43,-394.15 1086.07,-389.2 1085.02,-396.12"/>
</g>
</g>
</svg>
        <g id="navigator" transform="translate(0 0)" fill="#404254">
                <rect fill="#f2f5e9" fill-opacity="0.5" stroke="#606060" stroke-width=".5" x="0" y="0" width="60" height="60"/>
                <use id="zoomplus" xlink:href="#zoomPlus" x="17" y="9" onmousedown="handleZoom(evt,'in')"/>
                <use id="zoomminus" xlink:href="#zoomMin" x="42" y="9" onmousedown="handleZoom(evt,'out')"/>
                <use id="reset" xlink:href="#resetDef" x="30" y="36" onmousedown="handleReset()"/>
                <g id="arrowUp" xlink:href="#dirArrow" transform="translate(30 24)" onmousedown="handlePan(0,-1)">
                  <use xlink:href="#rim" fill="#404040">
                        <set attributeName="fill" to="#808080" begin="arrowUp.mouseover" end="arrowUp.mouseout"/>
                  </use>
                  <path fill="none" stroke="white" stroke-width="1.5" d="M0,-3.0v7 M-2.5,-0.5L0,-3.0L2.5,-0.5"/>
                </g>
                <g id="arrowRight" xlink:href="#dirArrow" transform="rotate(90) translate(36 -43)" onmousedown="handlePan(1,0)">
                  <use xlink:href="#rim" fill="#404040">
                        <set attributeName="fill" to="#808080" begin="arrowRight.mouseover" end="arrowRight.mouseout"/>
                  </use>
                  <path fill="none" stroke="white" stroke-width="1.5" d="M0,-3.0v7 M-2.5,-0.5L0,-3.0L2.5,-0.5"/>
                </g>
                <g id="arrowDown" xlink:href="#dirArrow" transform="rotate(180) translate(-30 -48)" onmousedown="handlePan(0,1)">
                  <use xlink:href="#rim" fill="#404040">
                        <set attributeName="fill" to="#808080" begin="arrowDown.mouseover" end="arrowDown.mouseout"/>
                  </use>
                  <path fill="none" stroke="white" stroke-width="1.5" d="M0,-3.0v7 M-2.5,-0.5L0,-3.0L2.5,-0.5"/>
                </g>
                <g id="arrowLeft" xlink:href="#dirArrow" transform="rotate(270) translate(-36 17)" onmousedown="handlePan(-1,0)">
                  <use xlink:href="#rim" fill="#404040">
                        <set attributeName="fill" to="#808080" begin="arrowLeft.mouseover" end="arrowLeft.mouseout"/>
                  </use>
                  <path fill="none" stroke="white" stroke-width="1.5" d="M0,-3.0v7 M-2.5,-0.5L0,-3.0L2.5,-0.5"/>
                </g>
        </g>
        <svg viewBox="0 0 15 15" width="100%" height="30px" preserveAspectRatio="xMaxYMin meet">
         <g id="arrow_out" transform="scale(0.3 0.3)">
          <a xlink:href="include__headers_8h__dep__incl_org.svg" target="_base">
           <rect id="button" ry="5" rx="5" y="6" x="6" height="38" width="38"
                fill="#f2f5e9" fill-opacity="0.5" stroke="#606060" stroke-width="1.0"/>
           <path id="arrow"
             d="M 11.500037,31.436501 C 11.940474,20.09759 22.043105,11.32322 32.158766,21.979434 L 37.068811,17.246167 C 37.068811,17.246167 37.088388,32 37.088388,32 L 22.160133,31.978069 C 22.160133,31.978069 26.997745,27.140456 26.997745,27.140456 C 18.528582,18.264221 13.291696,25.230495 11.500037,31.436501 z"
             style="fill:#404040;"/>
          </a>
         </g>
        </svg>
</svg>
