<?xml version="1.0" encoding="UTF-8" standalone="no"?>
<!DOCTYPE svg PUBLIC "-//W3C//DTD SVG 1.1//EN"
 "http://www.w3.org/Graphics/SVG/1.1/DTD/svg11.dtd">
<!-- Generated by graphviz version 2.43.0 (0)
 -->
<!-- Title: Graphical Class Hierarchy Pages: 1 -->
<svg width="752pt" height="127pt"
 viewBox="0.00 0.00 752.00 126.50" xmlns="http://www.w3.org/2000/svg" xmlns:xlink="http://www.w3.org/1999/xlink">
<g id="graph0" class="graph" transform="scale(1 1) rotate(0) translate(4 122.5)">
<title>Graphical Class Hierarchy</title>
<polygon fill="white" stroke="transparent" points="-4,4 -4,-122.5 748,-122.5 748,4 -4,4"/>
<!-- Node0 -->
<g id="node1" class="node">
<title>Node0</title>
<g id="a_node1"><a xlink:href="structGGMTraits.html" target="_top" xlink:title=" ">
<polygon fill="white" stroke="black" points="0,-71.5 0,-101.5 133,-101.5 133,-71.5 0,-71.5"/>
<text text-anchor="start" x="8" y="-89.5" font-family="Helvetica,sans-Serif" font-size="10.00">GGMTraits&lt; GraphType,</text>
<text text-anchor="middle" x="66.5" y="-78.5" font-family="Helvetica,sans-Serif" font-size="10.00"> unsigned int &gt;</text>
</a>
</g>
</g>
<!-- Node1 -->
<g id="node2" class="node">
<title>Node1</title>
<g id="a_node2"><a xlink:href="classGGM.html" target="_top" xlink:title=" ">
<polygon fill="white" stroke="black" points="171.5,-99 171.5,-118 320.5,-118 320.5,-99 171.5,-99"/>
<text text-anchor="middle" x="246" y="-106" font-family="Helvetica,sans-Serif" font-size="10.00">GGM&lt; GraphStructure, T &gt;</text>
</a>
</g>
</g>
<!-- Node0&#45;&gt;Node1 -->
<g id="edge1" class="edge">
<title>Node0&#45;&gt;Node1</title>
<path fill="none" stroke="midnightblue" d="M143.12,-95.87C152.46,-97.03 162,-98.21 171.3,-99.37"/>
<polygon fill="midnightblue" stroke="midnightblue" points="143.44,-92.39 133.09,-94.63 142.58,-99.33 143.44,-92.39"/>
</g>
<!-- Node2 -->
<g id="node3" class="node">
<title>Node2</title>
<g id="a_node3"><a xlink:href="classGGM.html" target="_top" xlink:title=" ">
<polygon fill="white" stroke="black" points="169,-49.5 169,-79.5 323,-79.5 323,-49.5 169,-49.5"/>
<text text-anchor="start" x="177" y="-67.5" font-family="Helvetica,sans-Serif" font-size="10.00">GGM&lt; GraphType, unsigned</text>
<text text-anchor="middle" x="246" y="-56.5" font-family="Helvetica,sans-Serif" font-size="10.00"> int &gt;</text>
</a>
</g>
</g>
<!-- Node0&#45;&gt;Node2 -->
<g id="edge2" class="edge">
<title>Node0&#45;&gt;Node2</title>
<path fill="none" stroke="midnightblue" d="M143.04,-77.14C151.6,-76.08 160.32,-75 168.89,-73.93"/>
<polygon fill="midnightblue" stroke="midnightblue" points="142.58,-73.67 133.09,-78.37 143.44,-80.61 142.58,-73.67"/>
</g>
<!-- Node3 -->
<g id="node4" class="node">
<title>Node3</title>
<g id="a_node4"><a xlink:href="classAddRemoveMH.html" target="_top" xlink:title=" ">
<polygon fill="white" stroke="black" points="359,-99 359,-118 559,-118 559,-99 359,-99"/>
<text text-anchor="middle" x="459" y="-106" font-family="Helvetica,sans-Serif" font-size="10.00">AddRemoveMH&lt; GraphStructure, T &gt;</text>
</a>
</g>
</g>
<!-- Node2&#45;&gt;Node3 -->
<g id="edge3" class="edge">
<title>Node2&#45;&gt;Node3</title>
<path fill="none" stroke="midnightblue" d="M322.75,-81.73C334.86,-84.39 347.27,-87.06 359,-89.5 374.51,-92.72 391.42,-96.04 406.81,-98.98"/>
<polygon fill="midnightblue" stroke="midnightblue" points="323.19,-78.24 312.67,-79.5 321.68,-85.08 323.19,-78.24"/>
</g>
<!-- Node4 -->
<g id="node5" class="node">
<title>Node4</title>
<g id="a_node5"><a xlink:href="classReversibleJumpsMH.html" target="_top" xlink:title=" ">
<polygon fill="white" stroke="black" points="397.5,-49.5 397.5,-79.5 520.5,-79.5 520.5,-49.5 397.5,-49.5"/>
<text text-anchor="start" x="405.5" y="-67.5" font-family="Helvetica,sans-Serif" font-size="10.00">ReversibleJumpsMH&lt;</text>
<text text-anchor="middle" x="459" y="-56.5" font-family="Helvetica,sans-Serif" font-size="10.00"> GraphStructure, T &gt;</text>
</a>
</g>
</g>
<!-- Node2&#45;&gt;Node4 -->
<g id="edge4" class="edge">
<title>Node2&#45;&gt;Node4</title>
<path fill="none" stroke="midnightblue" d="M333.31,-64.5C354.85,-64.5 377.49,-64.5 397.48,-64.5"/>
<polygon fill="midnightblue" stroke="midnightblue" points="333.18,-61 323.18,-64.5 333.18,-68 333.18,-61"/>
</g>
<!-- Node5 -->
<g id="node6" class="node">
<title>Node5</title>
<g id="a_node6"><a xlink:href="classReversibleJumpsMH.html" target="_top" xlink:title=" ">
<polygon fill="white" stroke="black" points="384.5,-0.5 384.5,-30.5 533.5,-30.5 533.5,-0.5 384.5,-0.5"/>
<text text-anchor="start" x="392.5" y="-18.5" font-family="Helvetica,sans-Serif" font-size="10.00">ReversibleJumpsMH&lt;</text>
<text text-anchor="middle" x="459" y="-7.5" font-family="Helvetica,sans-Serif" font-size="10.00"> GraphType, unsigned int &gt;</text>
</a>
</g>
</g>
<!-- Node2&#45;&gt;Node5 -->
<g id="edge5" class="edge">
<title>Node2&#45;&gt;Node5</title>
<path fill="none" stroke="midnightblue" d="M321.63,-47.17C345.06,-41.73 370.71,-35.77 393.38,-30.51"/>
<polygon fill="midnightblue" stroke="midnightblue" points="320.69,-43.79 311.74,-49.47 322.27,-50.61 320.69,-43.79"/>
</g>
<!-- Node6 -->
<g id="node7" class="node">
<title>Node6</title>
<g id="a_node7"><a xlink:href="classDoubleReversibleJumpsMH.html" target="_top" xlink:title=" ">
<polygon fill="white" stroke="black" points="595,-0.5 595,-30.5 744,-30.5 744,-0.5 595,-0.5"/>
<text text-anchor="start" x="603" y="-18.5" font-family="Helvetica,sans-Serif" font-size="10.00">DoubleReversibleJumpsMH</text>
<text text-anchor="middle" x="669.5" y="-7.5" font-family="Helvetica,sans-Serif" font-size="10.00">&lt; GraphStructure, T &gt;</text>
</a>
</g>
</g>
<!-- Node5&#45;&gt;Node6 -->
<g id="edge6" class="edge">
<title>Node5&#45;&gt;Node6</title>
<path fill="none" stroke="midnightblue" d="M543.92,-15.5C560.81,-15.5 578.44,-15.5 594.95,-15.5"/>
<polygon fill="midnightblue" stroke="midnightblue" points="543.51,-12 533.51,-15.5 543.51,-19 543.51,-12"/>
</g>
</g>
</svg>
