<?xml version="1.0" encoding="UTF-8" standalone="no"?>
<!DOCTYPE svg PUBLIC "-//W3C//DTD SVG 1.1//EN"
 "http://www.w3.org/Graphics/SVG/1.1/DTD/svg11.dtd">
<!-- Generated by graphviz version 2.43.0 (0)
 -->
<!-- Title: Graphical Class Hierarchy Pages: 1 -->
<svg width="335pt" height="88pt"
 viewBox="0.00 0.00 335.00 88.00" xmlns="http://www.w3.org/2000/svg" xmlns:xlink="http://www.w3.org/1999/xlink">
<g id="graph0" class="graph" transform="scale(1 1) rotate(0) translate(4 84)">
<title>Graphical Class Hierarchy</title>
<polygon fill="white" stroke="transparent" points="-4,4 -4,-84 331,-84 331,4 -4,4"/>
<!-- Node0 -->
<g id="node1" class="node">
<title>Node0</title>
<g id="a_node1"><a xlink:href="classGraphPrior.html" target="_top" xlink:title=" ">
<polygon fill="white" stroke="black" points="0,-24.5 0,-54.5 139,-54.5 139,-24.5 0,-24.5"/>
<text text-anchor="start" x="8" y="-42.5" font-family="Helvetica,sans-Serif" font-size="10.00">GraphPrior&lt; BlockGraph,</text>
<text text-anchor="middle" x="69.5" y="-31.5" font-family="Helvetica,sans-Serif" font-size="10.00"> unsigned int &gt;</text>
</a>
</g>
</g>
<!-- Node1 -->
<g id="node2" class="node">
<title>Node1</title>
<g id="a_node2"><a xlink:href="classTruncatedBernoulliPrior.html" target="_top" xlink:title=" ">
<polygon fill="white" stroke="black" points="175,-49.5 175,-79.5 327,-79.5 327,-49.5 175,-49.5"/>
<text text-anchor="start" x="183" y="-67.5" font-family="Helvetica,sans-Serif" font-size="10.00">TruncatedBernoulliPrior</text>
<text text-anchor="middle" x="251" y="-56.5" font-family="Helvetica,sans-Serif" font-size="10.00">&lt; BlockGraphStructure, T &gt;</text>
</a>
</g>
</g>
<!-- Node0&#45;&gt;Node1 -->
<g id="edge1" class="edge">
<title>Node0&#45;&gt;Node1</title>
<path fill="none" stroke="midnightblue" d="M149.08,-50.44C157.63,-51.64 166.32,-52.85 174.83,-54.03"/>
<polygon fill="midnightblue" stroke="midnightblue" points="149.52,-46.97 139.13,-49.06 148.55,-53.9 149.52,-46.97"/>
</g>
<!-- Node2 -->
<g id="node3" class="node">
<title>Node2</title>
<g id="a_node3"><a xlink:href="classTruncatedUniformPrior.html" target="_top" xlink:title=" ">
<polygon fill="white" stroke="black" points="175,-0.5 175,-30.5 327,-30.5 327,-0.5 175,-0.5"/>
<text text-anchor="start" x="183" y="-18.5" font-family="Helvetica,sans-Serif" font-size="10.00">TruncatedUniformPrior</text>
<text text-anchor="middle" x="251" y="-7.5" font-family="Helvetica,sans-Serif" font-size="10.00">&lt; BlockGraphStructure, T &gt;</text>
</a>
</g>
</g>
<!-- Node0&#45;&gt;Node2 -->
<g id="edge2" class="edge">
<title>Node0&#45;&gt;Node2</title>
<path fill="none" stroke="midnightblue" d="M149.08,-28.99C157.63,-27.85 166.32,-26.69 174.83,-25.55"/>
<polygon fill="midnightblue" stroke="midnightblue" points="148.58,-25.53 139.13,-30.32 149.51,-32.47 148.58,-25.53"/>
</g>
</g>
</svg>
