<?xml version="1.0" encoding="UTF-8" standalone="no"?>
<!DOCTYPE svg PUBLIC "-//W3C//DTD SVG 1.1//EN"
 "http://www.w3.org/Graphics/SVG/1.1/DTD/svg11.dtd">
<!-- Generated by graphviz version 2.43.0 (0)
 -->
<!-- Title: Graphical Class Hierarchy Pages: 1 -->
<svg width="325pt" height="302pt"
 viewBox="0.00 0.00 325.00 301.50" xmlns="http://www.w3.org/2000/svg" xmlns:xlink="http://www.w3.org/1999/xlink">
<g id="graph0" class="graph" transform="scale(1 1) rotate(0) translate(4 297.5)">
<title>Graphical Class Hierarchy</title>
<polygon fill="white" stroke="transparent" points="-4,4 -4,-297.5 321,-297.5 321,4 -4,4"/>
<!-- Node0 -->
<g id="node1" class="node">
<title>Node0</title>
<g id="a_node1"><a xlink:href="structSamplerTraits.html" target="_top" xlink:title=" ">
<polygon fill="white" stroke="black" points="0,-126.5 0,-145.5 83,-145.5 83,-126.5 0,-126.5"/>
<text text-anchor="middle" x="41.5" y="-133.5" font-family="Helvetica,sans-Serif" font-size="10.00">SamplerTraits</text>
</a>
</g>
</g>
<!-- Node1 -->
<g id="node2" class="node">
<title>Node1</title>
<g id="a_node2"><a xlink:href="classFGMsampler.html" target="_top" xlink:title=" ">
<polygon fill="white" stroke="black" points="134.5,-263 134.5,-293 301.5,-293 301.5,-263 134.5,-263"/>
<text text-anchor="start" x="142.5" y="-281" font-family="Helvetica,sans-Serif" font-size="10.00">FGMsampler&lt; GraphStructure,</text>
<text text-anchor="middle" x="218" y="-270" font-family="Helvetica,sans-Serif" font-size="10.00"> T, RetGraph &gt;</text>
</a>
</g>
</g>
<!-- Node0&#45;&gt;Node1 -->
<g id="edge1" class="edge">
<title>Node0&#45;&gt;Node1</title>
<path fill="none" stroke="midnightblue" d="M49.7,-155.38C60.55,-181.85 83.67,-228.89 119,-254 123.85,-257.45 129.15,-260.41 134.68,-262.94"/>
<polygon fill="midnightblue" stroke="midnightblue" points="52.82,-153.75 45.91,-145.72 46.3,-156.31 52.82,-153.75"/>
</g>
<!-- Node2 -->
<g id="node3" class="node">
<title>Node2</title>
<g id="a_node3"><a xlink:href="classFGMsamplerDegub.html" target="_top" xlink:title=" ">
<polygon fill="white" stroke="black" points="119,-214 119,-244 317,-244 317,-214 119,-214"/>
<text text-anchor="start" x="127" y="-232" font-family="Helvetica,sans-Serif" font-size="10.00">FGMsamplerDegub&lt; GraphStructure,</text>
<text text-anchor="middle" x="218" y="-221" font-family="Helvetica,sans-Serif" font-size="10.00"> T, RetGraph &gt;</text>
</a>
</g>
</g>
<!-- Node0&#45;&gt;Node2 -->
<g id="edge2" class="edge">
<title>Node0&#45;&gt;Node2</title>
<path fill="none" stroke="midnightblue" d="M57.32,-153.61C71.55,-169.39 94.46,-192 119,-205 125.5,-208.44 132.51,-211.4 139.68,-213.94"/>
<polygon fill="midnightblue" stroke="midnightblue" points="59.57,-150.87 50.35,-145.65 54.3,-155.48 59.57,-150.87"/>
</g>
<!-- Node3 -->
<g id="node4" class="node">
<title>Node3</title>
<g id="a_node4"><a xlink:href="classGGMsampler.html" target="_top" xlink:title=" ">
<polygon fill="white" stroke="black" points="134,-165 134,-195 302,-195 302,-165 134,-165"/>
<text text-anchor="start" x="142" y="-183" font-family="Helvetica,sans-Serif" font-size="10.00">GGMsampler&lt; GraphStructure,</text>
<text text-anchor="middle" x="218" y="-172" font-family="Helvetica,sans-Serif" font-size="10.00"> T, RetGraph &gt;</text>
</a>
</g>
</g>
<!-- Node0&#45;&gt;Node3 -->
<g id="edge3" class="edge">
<title>Node0&#45;&gt;Node3</title>
<path fill="none" stroke="midnightblue" d="M90.19,-148.03C110.89,-153.25 135.36,-159.41 157.25,-164.93"/>
<polygon fill="midnightblue" stroke="midnightblue" points="90.92,-144.6 80.36,-145.55 89.2,-151.39 90.92,-144.6"/>
</g>
<!-- Node4 -->
<g id="node5" class="node">
<title>Node4</title>
<g id="a_node5"><a xlink:href="classHyperparameters.html" target="_top" xlink:title=" ">
<polygon fill="white" stroke="black" points="167,-126.5 167,-145.5 269,-145.5 269,-126.5 167,-126.5"/>
<text text-anchor="middle" x="218" y="-133.5" font-family="Helvetica,sans-Serif" font-size="10.00">Hyperparameters</text>
</a>
</g>
</g>
<!-- Node0&#45;&gt;Node4 -->
<g id="edge4" class="edge">
<title>Node0&#45;&gt;Node4</title>
<path fill="none" stroke="midnightblue" d="M93.67,-136C116.69,-136 143.77,-136 166.68,-136"/>
<polygon fill="midnightblue" stroke="midnightblue" points="93.41,-132.5 83.41,-136 93.41,-139.5 93.41,-132.5"/>
</g>
<!-- Node5 -->
<g id="node6" class="node">
<title>Node5</title>
<g id="a_node6"><a xlink:href="classInit.html" target="_top" xlink:title=" ">
<polygon fill="white" stroke="black" points="148,-88.5 148,-107.5 288,-107.5 288,-88.5 148,-88.5"/>
<text text-anchor="middle" x="218" y="-95.5" font-family="Helvetica,sans-Serif" font-size="10.00">Init&lt; GraphStructure, T &gt;</text>
</a>
</g>
</g>
<!-- Node0&#45;&gt;Node5 -->
<g id="edge5" class="edge">
<title>Node0&#45;&gt;Node5</title>
<path fill="none" stroke="midnightblue" d="M89.34,-123.96C99.12,-121.56 109.38,-119.13 119,-117 133.98,-113.69 150.31,-110.4 165.27,-107.51"/>
<polygon fill="midnightblue" stroke="midnightblue" points="88.24,-120.63 79.37,-126.43 89.92,-127.42 88.24,-120.63"/>
</g>
<!-- Node6 -->
<g id="node7" class="node">
<title>Node6</title>
<g id="a_node7"><a xlink:href="classInit.html" target="_top" xlink:title=" ">
<polygon fill="white" stroke="black" points="145,-39 145,-69 291,-69 291,-39 145,-39"/>
<text text-anchor="start" x="153" y="-57" font-family="Helvetica,sans-Serif" font-size="10.00">Init&lt; GraphType, unsigned</text>
<text text-anchor="middle" x="218" y="-46" font-family="Helvetica,sans-Serif" font-size="10.00"> int &gt;</text>
</a>
</g>
</g>
<!-- Node0&#45;&gt;Node6 -->
<g id="edge6" class="edge">
<title>Node0&#45;&gt;Node6</title>
<path fill="none" stroke="midnightblue" d="M60.31,-119.53C75.03,-106.75 97.01,-89.49 119,-79 127.16,-75.11 136.01,-71.77 144.93,-68.92"/>
<polygon fill="midnightblue" stroke="midnightblue" points="57.67,-117.19 52.53,-126.46 62.33,-122.42 57.67,-117.19"/>
</g>
<!-- Node7 -->
<g id="node8" class="node">
<title>Node7</title>
<g id="a_node8"><a xlink:href="classParameters.html" target="_top" xlink:title=" ">
<polygon fill="white" stroke="black" points="182,-0.5 182,-19.5 254,-19.5 254,-0.5 182,-0.5"/>
<text text-anchor="middle" x="218" y="-7.5" font-family="Helvetica,sans-Serif" font-size="10.00">Parameters</text>
</a>
</g>
</g>
<!-- Node0&#45;&gt;Node7 -->
<g id="edge7" class="edge">
<title>Node0&#45;&gt;Node7</title>
<path fill="none" stroke="midnightblue" d="M50.78,-116.99C62.37,-92.75 85.8,-51.44 119,-30 137.52,-18.03 161.79,-13.02 181.54,-11"/>
<polygon fill="midnightblue" stroke="midnightblue" points="47.54,-115.67 46.55,-126.22 53.9,-118.59 47.54,-115.67"/>
</g>
</g>
</svg>
