<?xml version="1.0" encoding="UTF-8" standalone="no"?>
<!DOCTYPE svg PUBLIC "-//W3C//DTD SVG 1.1//EN"
 "http://www.w3.org/Graphics/SVG/1.1/DTD/svg11.dtd">
<!-- Generated by graphviz version 2.43.0 (0)
 -->
<!-- Title: Graphical Class Hierarchy Pages: 1 -->
<svg width="275pt" height="142pt"
 viewBox="0.00 0.00 275.00 142.00" xmlns="http://www.w3.org/2000/svg" xmlns:xlink="http://www.w3.org/1999/xlink">
<g id="graph0" class="graph" transform="scale(1 1) rotate(0) translate(4 138)">
<title>Graphical Class Hierarchy</title>
<polygon fill="white" stroke="transparent" points="-4,4 -4,-138 271,-138 271,4 -4,4"/>
<!-- Node0 -->
<g id="node1" class="node">
<title>Node0</title>
<g id="a_node1"><a xlink:href="structFLMsamplerTraits.html" target="_top" xlink:title=" ">
<polygon fill="white" stroke="black" points="0,-57.5 0,-76.5 103,-76.5 103,-57.5 0,-57.5"/>
<text text-anchor="middle" x="51.5" y="-64.5" font-family="Helvetica,sans-Serif" font-size="10.00">FLMsamplerTraits</text>
</a>
</g>
</g>
<!-- Node1 -->
<g id="node2" class="node">
<title>Node1</title>
<g id="a_node2"><a xlink:href="classFLMHyperparameters.html" target="_top" xlink:title=" ">
<polygon fill="white" stroke="black" points="142,-114.5 142,-133.5 264,-133.5 264,-114.5 142,-114.5"/>
<text text-anchor="middle" x="203" y="-121.5" font-family="Helvetica,sans-Serif" font-size="10.00">FLMHyperparameters</text>
</a>
</g>
</g>
<!-- Node0&#45;&gt;Node1 -->
<g id="edge1" class="edge">
<title>Node0&#45;&gt;Node1</title>
<path fill="none" stroke="midnightblue" d="M81.67,-80.87C98.28,-88.5 119.58,-97.83 139,-105 148.22,-108.4 158.35,-111.66 167.75,-114.49"/>
<polygon fill="midnightblue" stroke="midnightblue" points="83.03,-77.64 72.49,-76.61 80.09,-83.99 83.03,-77.64"/>
</g>
<!-- Node2 -->
<g id="node3" class="node">
<title>Node2</title>
<g id="a_node3"><a xlink:href="classFLMParameters.html" target="_top" xlink:title=" ">
<polygon fill="white" stroke="black" points="157,-76.5 157,-95.5 249,-95.5 249,-76.5 157,-76.5"/>
<text text-anchor="middle" x="203" y="-83.5" font-family="Helvetica,sans-Serif" font-size="10.00">FLMParameters</text>
</a>
</g>
</g>
<!-- Node0&#45;&gt;Node2 -->
<g id="edge2" class="edge">
<title>Node0&#45;&gt;Node2</title>
<path fill="none" stroke="midnightblue" d="M113.11,-74.7C127.76,-76.56 143.16,-78.52 156.96,-80.28"/>
<polygon fill="midnightblue" stroke="midnightblue" points="113.48,-71.22 103.11,-73.43 112.59,-78.17 113.48,-71.22"/>
</g>
<!-- Node3 -->
<g id="node4" class="node">
<title>Node3</title>
<g id="a_node4"><a xlink:href="classFLMsampler.html" target="_top" xlink:title=" ">
<polygon fill="white" stroke="black" points="139,-38.5 139,-57.5 267,-57.5 267,-38.5 139,-38.5"/>
<text text-anchor="middle" x="203" y="-45.5" font-family="Helvetica,sans-Serif" font-size="10.00">FLMsampler&lt; Graph &gt;</text>
</a>
</g>
</g>
<!-- Node0&#45;&gt;Node3 -->
<g id="edge3" class="edge">
<title>Node0&#45;&gt;Node3</title>
<path fill="none" stroke="midnightblue" d="M113.29,-59.27C121.76,-58.2 130.47,-57.09 138.98,-56.01"/>
<polygon fill="midnightblue" stroke="midnightblue" points="112.59,-55.83 103.11,-60.57 113.48,-62.78 112.59,-55.83"/>
</g>
<!-- Node4 -->
<g id="node5" class="node">
<title>Node4</title>
<g id="a_node5"><a xlink:href="classInitFLM.html" target="_top" xlink:title=" ">
<polygon fill="white" stroke="black" points="176.5,-0.5 176.5,-19.5 229.5,-19.5 229.5,-0.5 176.5,-0.5"/>
<text text-anchor="middle" x="203" y="-7.5" font-family="Helvetica,sans-Serif" font-size="10.00">InitFLM</text>
</a>
</g>
</g>
<!-- Node0&#45;&gt;Node4 -->
<g id="edge4" class="edge">
<title>Node0&#45;&gt;Node4</title>
<path fill="none" stroke="midnightblue" d="M81.67,-53.13C98.28,-45.5 119.58,-36.17 139,-29 151.11,-24.53 164.81,-20.31 176.33,-16.98"/>
<polygon fill="midnightblue" stroke="midnightblue" points="80.09,-50.01 72.49,-57.39 83.03,-56.36 80.09,-50.01"/>
</g>
</g>
</svg>
