<?xml version="1.0" encoding="UTF-8" standalone="no"?>
<!DOCTYPE svg PUBLIC "-//W3C//DTD SVG 1.1//EN"
 "http://www.w3.org/Graphics/SVG/1.1/DTD/svg11.dtd">
<!-- Generated by graphviz version 2.43.0 (0)
 -->
<!-- Title: Graphical Class Hierarchy Pages: 1 -->
<svg width="318pt" height="78pt"
 viewBox="0.00 0.00 318.00 77.50" xmlns="http://www.w3.org/2000/svg" xmlns:xlink="http://www.w3.org/1999/xlink">
<g id="graph0" class="graph" transform="scale(1 1) rotate(0) translate(4 73.5)">
<title>Graphical Class Hierarchy</title>
<polygon fill="white" stroke="transparent" points="-4,4 -4,-73.5 314,-73.5 314,4 -4,4"/>
<!-- Node0 -->
<g id="node1" class="node">
<title>Node0</title>
<g id="a_node1"><a xlink:href="structGraphTypeTraits.html" target="_top" xlink:title=" ">
<polygon fill="white" stroke="black" points="0,-22.5 0,-52.5 150,-52.5 150,-22.5 0,-22.5"/>
<text text-anchor="start" x="8" y="-40.5" font-family="Helvetica,sans-Serif" font-size="10.00">GraphTypeTraits&lt; unsigned</text>
<text text-anchor="middle" x="75" y="-29.5" font-family="Helvetica,sans-Serif" font-size="10.00"> int &gt;</text>
</a>
</g>
</g>
<!-- Node1 -->
<g id="node2" class="node">
<title>Node1</title>
<g id="a_node2"><a xlink:href="classGraphType.html" target="_top" xlink:title=" ">
<polygon fill="white" stroke="black" points="199.5,-50 199.5,-69 296.5,-69 296.5,-50 199.5,-50"/>
<text text-anchor="middle" x="248" y="-57" font-family="Helvetica,sans-Serif" font-size="10.00">GraphType&lt; T &gt;</text>
</a>
</g>
</g>
<!-- Node0&#45;&gt;Node1 -->
<g id="edge1" class="edge">
<title>Node0&#45;&gt;Node1</title>
<path fill="none" stroke="midnightblue" d="M160.18,-48.33C173.52,-50.05 186.91,-51.77 199.03,-53.33"/>
<polygon fill="midnightblue" stroke="midnightblue" points="160.37,-44.83 150.01,-47.02 159.48,-51.77 160.37,-44.83"/>
</g>
<!-- Node2 -->
<g id="node3" class="node">
<title>Node2</title>
<g id="a_node3"><a xlink:href="classGraphType.html" target="_top" xlink:title=" ">
<polygon fill="white" stroke="black" points="186,-0.5 186,-30.5 310,-30.5 310,-0.5 186,-0.5"/>
<text text-anchor="start" x="194" y="-18.5" font-family="Helvetica,sans-Serif" font-size="10.00">GraphType&lt; unsigned</text>
<text text-anchor="middle" x="248" y="-7.5" font-family="Helvetica,sans-Serif" font-size="10.00"> int &gt;</text>
</a>
</g>
</g>
<!-- Node0&#45;&gt;Node2 -->
<g id="edge2" class="edge">
<title>Node0&#45;&gt;Node2</title>
<path fill="none" stroke="midnightblue" d="M160.19,-26.67C168.89,-25.55 177.6,-24.43 185.98,-23.35"/>
<polygon fill="midnightblue" stroke="midnightblue" points="159.48,-23.23 150.01,-27.98 160.37,-30.17 159.48,-23.23"/>
</g>
</g>
</svg>
