<?xml version="1.0" encoding="UTF-8" standalone="no"?>
<!DOCTYPE svg PUBLIC "-//W3C//DTD SVG 1.1//EN"
 "http://www.w3.org/Graphics/SVG/1.1/DTD/svg11.dtd">
<!-- Generated by graphviz version 2.43.0 (0)
 -->
<!-- Title: PosteriorAnalysis.h Pages: 1 -->
<svg width="1624pt" height="767pt"
 viewBox="0.00 0.00 1623.50 767.00" xmlns="http://www.w3.org/2000/svg" xmlns:xlink="http://www.w3.org/1999/xlink">
<g id="graph0" class="graph" transform="scale(1 1) rotate(0) translate(4 763)">
<title>PosteriorAnalysis.h</title>
<polygon fill="white" stroke="transparent" points="-4,4 -4,-763 1619.5,-763 1619.5,4 -4,4"/>
<!-- Node1 -->
<g id="node1" class="node">
<title>Node1</title>
<g id="a_node1"><a xlink:title=" ">
<polygon fill="#bfbfbf" stroke="black" points="894,-739.5 894,-758.5 1004,-758.5 1004,-739.5 894,-739.5"/>
<text text-anchor="middle" x="949" y="-746.5" font-family="Helvetica,sans-Serif" font-size="10.00">PosteriorAnalysis.h</text>
</a>
</g>
</g>
<!-- Node2 -->
<g id="node2" class="node">
<title>Node2</title>
<g id="a_node2"><a xlink:href="SamplerOptions_8h.html" target="_top" xlink:title=" ">
<polygon fill="white" stroke="black" points="717,-678 717,-697 821,-697 821,-678 717,-678"/>
<text text-anchor="middle" x="769" y="-685" font-family="Helvetica,sans-Serif" font-size="10.00">SamplerOptions.h</text>
</a>
</g>
</g>
<!-- Node1&#45;&gt;Node2 -->
<g id="edge1" class="edge">
<title>Node1&#45;&gt;Node2</title>
<path fill="none" stroke="midnightblue" d="M923.21,-739.48C892.07,-729.18 839.52,-711.81 804.55,-700.25"/>
<polygon fill="midnightblue" stroke="midnightblue" points="805.34,-696.82 794.74,-697.01 803.14,-703.47 805.34,-696.82"/>
</g>
<!-- Node50 -->
<g id="node49" class="node">
<title>Node50</title>
<g id="a_node49"><a xlink:href="FLMSamplerOptions_8h.html" target="_top" xlink:title=" ">
<polygon fill="white" stroke="black" points="835,-448.5 835,-467.5 959,-467.5 959,-448.5 835,-448.5"/>
<text text-anchor="middle" x="897" y="-455.5" font-family="Helvetica,sans-Serif" font-size="10.00">FLMSamplerOptions.h</text>
</a>
</g>
</g>
<!-- Node1&#45;&gt;Node50 -->
<g id="edge75" class="edge">
<title>Node1&#45;&gt;Node50</title>
<path fill="none" stroke="midnightblue" d="M949,-739.49C949,-719.74 949,-669.22 949,-627 949,-627 949,-627 949,-569 949,-533.12 926.11,-496.42 910.7,-475.79"/>
<polygon fill="midnightblue" stroke="midnightblue" points="913.35,-473.5 904.45,-467.74 907.82,-477.79 913.35,-473.5"/>
</g>
<!-- Node51 -->
<g id="node50" class="node">
<title>Node51</title>
<g id="a_node50"><a xlink:title=" ">
<polygon fill="white" stroke="#bfbfbf" points="977,-672.5 977,-702.5 1075,-702.5 1075,-672.5 977,-672.5"/>
<text text-anchor="start" x="985" y="-690.5" font-family="Helvetica,sans-Serif" font-size="10.00">gsl/gsl_statistics</text>
<text text-anchor="middle" x="1026" y="-679.5" font-family="Helvetica,sans-Serif" font-size="10.00">_double.h</text>
</a>
</g>
</g>
<!-- Node1&#45;&gt;Node51 -->
<g id="edge80" class="edge">
<title>Node1&#45;&gt;Node51</title>
<path fill="none" stroke="midnightblue" d="M960.03,-739.48C970.36,-731.49 986.2,-719.25 999.77,-708.77"/>
<polygon fill="midnightblue" stroke="midnightblue" points="1002.08,-711.41 1007.85,-702.52 997.8,-705.87 1002.08,-711.41"/>
</g>
<!-- Node3 -->
<g id="node3" class="node">
<title>Node3</title>
<g id="a_node3"><a xlink:href="include__headers_8h.html" target="_top" xlink:title=" ">
<polygon fill="white" stroke="black" points="684.5,-56.5 684.5,-75.5 789.5,-75.5 789.5,-56.5 684.5,-56.5"/>
<text text-anchor="middle" x="737" y="-63.5" font-family="Helvetica,sans-Serif" font-size="10.00">include_headers.h</text>
</a>
</g>
</g>
<!-- Node2&#45;&gt;Node3 -->
<g id="edge2" class="edge">
<title>Node2&#45;&gt;Node3</title>
<path fill="none" stroke="midnightblue" d="M716.69,-681.71C612.07,-670.69 387,-639.07 387,-571 387,-571 387,-571 387,-177 387,-142.11 401.46,-130.56 431,-112 451.19,-99.32 590.63,-82.58 674.15,-73.51"/>
<polygon fill="midnightblue" stroke="midnightblue" points="674.73,-76.97 684.3,-72.42 673.98,-70.01 674.73,-76.97"/>
</g>
<!-- Node26 -->
<g id="node26" class="node">
<title>Node26</title>
<g id="a_node26"><a xlink:href="include__graphs_8h.html" target="_top" xlink:title=" ">
<polygon fill="white" stroke="black" points="637.5,-224.5 637.5,-243.5 736.5,-243.5 736.5,-224.5 637.5,-224.5"/>
<text text-anchor="middle" x="687" y="-231.5" font-family="Helvetica,sans-Serif" font-size="10.00">include_graphs.h</text>
</a>
</g>
</g>
<!-- Node2&#45;&gt;Node26 -->
<g id="edge25" class="edge">
<title>Node2&#45;&gt;Node26</title>
<path fill="none" stroke="midnightblue" d="M767.74,-677.89C764.71,-657.43 756.72,-604.25 749,-560 728.58,-442.93 700.67,-302.82 690.72,-253.37"/>
<polygon fill="midnightblue" stroke="midnightblue" points="694.14,-252.63 688.73,-243.52 687.28,-254.01 694.14,-252.63"/>
</g>
<!-- Node32 -->
<g id="node32" class="node">
<title>Node32</title>
<g id="a_node32"><a xlink:href="include__helpers_8h.html" target="_top" xlink:title=" ">
<polygon fill="white" stroke="black" points="796,-392.5 796,-411.5 898,-411.5 898,-392.5 796,-392.5"/>
<text text-anchor="middle" x="847" y="-399.5" font-family="Helvetica,sans-Serif" font-size="10.00">include_helpers.h</text>
</a>
</g>
</g>
<!-- Node2&#45;&gt;Node32 -->
<g id="edge37" class="edge">
<title>Node2&#45;&gt;Node32</title>
<path fill="none" stroke="midnightblue" d="M773.97,-677.84C784.27,-659.03 807,-612.8 807,-571 807,-571 807,-571 807,-513 807,-478.62 824.47,-441.63 836.32,-420.5"/>
<polygon fill="midnightblue" stroke="midnightblue" points="839.42,-422.13 841.44,-411.73 833.38,-418.61 839.42,-422.13"/>
</g>
<!-- Node43 -->
<g id="node42" class="node">
<title>Node43</title>
<g id="a_node42"><a xlink:href="GraphPrior_8h.html" target="_top" xlink:title=" ">
<polygon fill="white" stroke="black" points="436.5,-448.5 436.5,-467.5 513.5,-467.5 513.5,-448.5 436.5,-448.5"/>
<text text-anchor="middle" x="475" y="-455.5" font-family="Helvetica,sans-Serif" font-size="10.00">GraphPrior.h</text>
</a>
</g>
</g>
<!-- Node2&#45;&gt;Node43 -->
<g id="edge57" class="edge">
<title>Node2&#45;&gt;Node43</title>
<path fill="none" stroke="midnightblue" d="M716.83,-685.77C646.64,-681.57 524.74,-662.1 474,-580 454.47,-548.4 462.4,-502.72 469.17,-477.49"/>
<polygon fill="midnightblue" stroke="midnightblue" points="472.57,-478.33 472.01,-467.75 465.85,-476.37 472.57,-478.33"/>
</g>
<!-- Node44 -->
<g id="node43" class="node">
<title>Node44</title>
<g id="a_node43"><a xlink:href="GGMFactory_8h.html" target="_top" xlink:title=" ">
<polygon fill="white" stroke="black" points="595.5,-616.5 595.5,-635.5 678.5,-635.5 678.5,-616.5 595.5,-616.5"/>
<text text-anchor="middle" x="637" y="-623.5" font-family="Helvetica,sans-Serif" font-size="10.00">GGMFactory.h</text>
</a>
</g>
</g>
<!-- Node2&#45;&gt;Node44 -->
<g id="edge61" class="edge">
<title>Node2&#45;&gt;Node44</title>
<path fill="none" stroke="midnightblue" d="M750.09,-677.98C727.84,-667.95 690.69,-651.2 665.07,-639.65"/>
<polygon fill="midnightblue" stroke="midnightblue" points="666.43,-636.43 655.88,-635.51 663.56,-642.81 666.43,-636.43"/>
</g>
<!-- Node49 -->
<g id="node48" class="node">
<title>Node49</title>
<g id="a_node48"><a xlink:href="ProgressBar_8h.html" target="_top" xlink:title=" ">
<polygon fill="white" stroke="black" points="1398.5,-392.5 1398.5,-411.5 1481.5,-411.5 1481.5,-392.5 1398.5,-392.5"/>
<text text-anchor="middle" x="1440" y="-399.5" font-family="Helvetica,sans-Serif" font-size="10.00">ProgressBar.h</text>
</a>
</g>
</g>
<!-- Node2&#45;&gt;Node49 -->
<g id="edge73" class="edge">
<title>Node2&#45;&gt;Node49</title>
<path fill="none" stroke="midnightblue" d="M789.45,-677.86C885.92,-637.1 1295.66,-463.98 1410.17,-415.6"/>
<polygon fill="midnightblue" stroke="midnightblue" points="1411.86,-418.69 1419.71,-411.57 1409.14,-412.24 1411.86,-418.69"/>
</g>
<!-- Node4 -->
<g id="node4" class="node">
<title>Node4</title>
<g id="a_node4"><a xlink:title=" ">
<polygon fill="white" stroke="#bfbfbf" points="0,-0.5 0,-19.5 60,-19.5 60,-0.5 0,-0.5"/>
<text text-anchor="middle" x="30" y="-7.5" font-family="Helvetica,sans-Serif" font-size="10.00">iostream</text>
</a>
</g>
</g>
<!-- Node3&#45;&gt;Node4 -->
<g id="edge3" class="edge">
<title>Node3&#45;&gt;Node4</title>
<path fill="none" stroke="midnightblue" d="M684.19,-61.32C660.57,-59.68 632.39,-57.73 607,-56 371.18,-39.95 307.79,-54.64 70.13,-19.93"/>
<polygon fill="midnightblue" stroke="midnightblue" points="70.55,-16.45 60.14,-18.46 69.53,-23.38 70.55,-16.45"/>
</g>
<!-- Node5 -->
<g id="node5" class="node">
<title>Node5</title>
<g id="a_node5"><a xlink:title=" ">
<polygon fill="white" stroke="#bfbfbf" points="78,-0.5 78,-19.5 128,-19.5 128,-0.5 78,-0.5"/>
<text text-anchor="middle" x="103" y="-7.5" font-family="Helvetica,sans-Serif" font-size="10.00">stdio.h</text>
</a>
</g>
</g>
<!-- Node3&#45;&gt;Node5 -->
<g id="edge4" class="edge">
<title>Node3&#45;&gt;Node5</title>
<path fill="none" stroke="midnightblue" d="M684.45,-61.32C551.69,-52 208.85,-27.7 138.26,-19.57"/>
<polygon fill="midnightblue" stroke="midnightblue" points="138.52,-16.07 128.14,-18.21 137.58,-23.01 138.52,-16.07"/>
</g>
<!-- Node6 -->
<g id="node6" class="node">
<title>Node6</title>
<g id="a_node6"><a xlink:title=" ">
<polygon fill="white" stroke="#bfbfbf" points="146,-0.5 146,-19.5 190,-19.5 190,-0.5 146,-0.5"/>
<text text-anchor="middle" x="168" y="-7.5" font-family="Helvetica,sans-Serif" font-size="10.00">string</text>
</a>
</g>
</g>
<!-- Node3&#45;&gt;Node6 -->
<g id="edge5" class="edge">
<title>Node3&#45;&gt;Node6</title>
<path fill="none" stroke="midnightblue" d="M684.32,-61.19C564.35,-52.44 275.94,-30.92 200.16,-19.67"/>
<polygon fill="midnightblue" stroke="midnightblue" points="200.66,-16.21 190.22,-18.03 199.52,-23.12 200.66,-16.21"/>
</g>
<!-- Node7 -->
<g id="node7" class="node">
<title>Node7</title>
<g id="a_node7"><a xlink:title=" ">
<polygon fill="white" stroke="#bfbfbf" points="208.5,-0.5 208.5,-19.5 255.5,-19.5 255.5,-0.5 208.5,-0.5"/>
<text text-anchor="middle" x="232" y="-7.5" font-family="Helvetica,sans-Serif" font-size="10.00">vector</text>
</a>
</g>
</g>
<!-- Node3&#45;&gt;Node7 -->
<g id="edge6" class="edge">
<title>Node3&#45;&gt;Node7</title>
<path fill="none" stroke="midnightblue" d="M684.45,-61.13C582.59,-53.45 360.69,-35.79 265.56,-19.73"/>
<polygon fill="midnightblue" stroke="midnightblue" points="266.14,-16.28 255.68,-17.98 264.92,-23.17 266.14,-16.28"/>
</g>
<!-- Node8 -->
<g id="node8" class="node">
<title>Node8</title>
<g id="a_node8"><a xlink:title=" ">
<polygon fill="white" stroke="#bfbfbf" points="274,-0.5 274,-19.5 312,-19.5 312,-0.5 274,-0.5"/>
<text text-anchor="middle" x="293" y="-7.5" font-family="Helvetica,sans-Serif" font-size="10.00">map</text>
</a>
</g>
</g>
<!-- Node3&#45;&gt;Node8 -->
<g id="edge7" class="edge">
<title>Node3&#45;&gt;Node8</title>
<path fill="none" stroke="midnightblue" d="M684.42,-60.65C592.42,-52.84 404.93,-35.9 321.96,-19.74"/>
<polygon fill="midnightblue" stroke="midnightblue" points="322.64,-16.3 312.14,-17.72 321.23,-23.16 322.64,-16.3"/>
</g>
<!-- Node9 -->
<g id="node9" class="node">
<title>Node9</title>
<g id="a_node9"><a xlink:title=" ">
<polygon fill="white" stroke="#bfbfbf" points="330,-0.5 330,-19.5 362,-19.5 362,-0.5 330,-0.5"/>
<text text-anchor="middle" x="346" y="-7.5" font-family="Helvetica,sans-Serif" font-size="10.00">set</text>
</a>
</g>
</g>
<!-- Node3&#45;&gt;Node9 -->
<g id="edge8" class="edge">
<title>Node3&#45;&gt;Node9</title>
<path fill="none" stroke="midnightblue" d="M684.26,-59.98C601.74,-51.89 444.84,-35.51 372.32,-19.76"/>
<polygon fill="midnightblue" stroke="midnightblue" points="372.78,-16.27 362.25,-17.44 371.21,-23.09 372.78,-16.27"/>
</g>
<!-- Node10 -->
<g id="node10" class="node">
<title>Node10</title>
<g id="a_node10"><a xlink:title=" ">
<polygon fill="white" stroke="#bfbfbf" points="380.5,-0.5 380.5,-19.5 427.5,-19.5 427.5,-0.5 380.5,-0.5"/>
<text text-anchor="middle" x="404" y="-7.5" font-family="Helvetica,sans-Serif" font-size="10.00">cmath</text>
</a>
</g>
</g>
<!-- Node3&#45;&gt;Node10 -->
<g id="edge9" class="edge">
<title>Node3&#45;&gt;Node10</title>
<path fill="none" stroke="midnightblue" d="M684.37,-59C626.32,-51.97 530.01,-39.05 437.78,-19.94"/>
<polygon fill="midnightblue" stroke="midnightblue" points="438.22,-16.45 427.71,-17.82 436.78,-23.31 438.22,-16.45"/>
</g>
<!-- Node11 -->
<g id="node11" class="node">
<title>Node11</title>
<g id="a_node11"><a xlink:title=" ">
<polygon fill="white" stroke="#bfbfbf" points="446,-0.5 446,-19.5 500,-19.5 500,-0.5 446,-0.5"/>
<text text-anchor="middle" x="473" y="-7.5" font-family="Helvetica,sans-Serif" font-size="10.00">random</text>
</a>
</g>
</g>
<!-- Node3&#45;&gt;Node11 -->
<g id="edge10" class="edge">
<title>Node3&#45;&gt;Node11</title>
<path fill="none" stroke="midnightblue" d="M690.13,-56.46C646.1,-48.28 578.15,-35.24 510.13,-20.17"/>
<polygon fill="midnightblue" stroke="midnightblue" points="510.61,-16.69 500.09,-17.93 509.09,-23.52 510.61,-16.69"/>
</g>
<!-- Node12 -->
<g id="node12" class="node">
<title>Node12</title>
<g id="a_node12"><a xlink:title=" ">
<polygon fill="white" stroke="#bfbfbf" points="518,-0.5 518,-19.5 568,-19.5 568,-0.5 518,-0.5"/>
<text text-anchor="middle" x="543" y="-7.5" font-family="Helvetica,sans-Serif" font-size="10.00">chrono</text>
</a>
</g>
</g>
<!-- Node3&#45;&gt;Node12 -->
<g id="edge11" class="edge">
<title>Node3&#45;&gt;Node12</title>
<path fill="none" stroke="midnightblue" d="M706.26,-56.44C671.3,-46.71 614.34,-30.86 577.78,-20.68"/>
<polygon fill="midnightblue" stroke="midnightblue" points="578.62,-17.28 568.04,-17.97 576.74,-24.02 578.62,-17.28"/>
</g>
<!-- Node13 -->
<g id="node13" class="node">
<title>Node13</title>
<g id="a_node13"><a xlink:title=" ">
<polygon fill="white" stroke="#bfbfbf" points="586,-0.5 586,-19.5 650,-19.5 650,-0.5 586,-0.5"/>
<text text-anchor="middle" x="618" y="-7.5" font-family="Helvetica,sans-Serif" font-size="10.00">algorithm</text>
</a>
</g>
</g>
<!-- Node3&#45;&gt;Node13 -->
<g id="edge12" class="edge">
<title>Node3&#45;&gt;Node13</title>
<path fill="none" stroke="midnightblue" d="M718.14,-56.44C698.73,-47.64 668.27,-33.81 646.04,-23.72"/>
<polygon fill="midnightblue" stroke="midnightblue" points="647.32,-20.46 636.77,-19.52 644.43,-26.84 647.32,-20.46"/>
</g>
<!-- Node14 -->
<g id="node14" class="node">
<title>Node14</title>
<g id="a_node14"><a xlink:title=" ">
<polygon fill="white" stroke="#bfbfbf" points="668,-0.5 668,-19.5 726,-19.5 726,-0.5 668,-0.5"/>
<text text-anchor="middle" x="697" y="-7.5" font-family="Helvetica,sans-Serif" font-size="10.00">memory</text>
</a>
</g>
</g>
<!-- Node3&#45;&gt;Node14 -->
<g id="edge13" class="edge">
<title>Node3&#45;&gt;Node14</title>
<path fill="none" stroke="midnightblue" d="M730.39,-56.08C724.74,-48.46 716.46,-37.26 709.55,-27.94"/>
<polygon fill="midnightblue" stroke="midnightblue" points="712.25,-25.7 703.48,-19.75 706.62,-29.87 712.25,-25.7"/>
</g>
<!-- Node15 -->
<g id="node15" class="node">
<title>Node15</title>
<g id="a_node15"><a xlink:title=" ">
<polygon fill="white" stroke="#bfbfbf" points="744.5,-0.5 744.5,-19.5 809.5,-19.5 809.5,-0.5 744.5,-0.5"/>
<text text-anchor="middle" x="777" y="-7.5" font-family="Helvetica,sans-Serif" font-size="10.00">exception</text>
</a>
</g>
</g>
<!-- Node3&#45;&gt;Node15 -->
<g id="edge14" class="edge">
<title>Node3&#45;&gt;Node15</title>
<path fill="none" stroke="midnightblue" d="M743.61,-56.08C749.26,-48.46 757.54,-37.26 764.45,-27.94"/>
<polygon fill="midnightblue" stroke="midnightblue" points="767.38,-29.87 770.52,-19.75 761.75,-25.7 767.38,-29.87"/>
</g>
<!-- Node16 -->
<g id="node16" class="node">
<title>Node16</title>
<g id="a_node16"><a xlink:title=" ">
<polygon fill="white" stroke="#bfbfbf" points="828,-0.5 828,-19.5 884,-19.5 884,-0.5 828,-0.5"/>
<text text-anchor="middle" x="856" y="-7.5" font-family="Helvetica,sans-Serif" font-size="10.00">numeric</text>
</a>
</g>
</g>
<!-- Node3&#45;&gt;Node16 -->
<g id="edge15" class="edge">
<title>Node3&#45;&gt;Node16</title>
<path fill="none" stroke="midnightblue" d="M755.86,-56.44C775.27,-47.64 805.73,-33.81 827.96,-23.72"/>
<polygon fill="midnightblue" stroke="midnightblue" points="829.57,-26.84 837.23,-19.52 826.68,-20.46 829.57,-26.84"/>
</g>
<!-- Node17 -->
<g id="node17" class="node">
<title>Node17</title>
<g id="a_node17"><a xlink:title=" ">
<polygon fill="white" stroke="#bfbfbf" points="902.5,-0.5 902.5,-19.5 955.5,-19.5 955.5,-0.5 902.5,-0.5"/>
<text text-anchor="middle" x="929" y="-7.5" font-family="Helvetica,sans-Serif" font-size="10.00">iterator</text>
</a>
</g>
</g>
<!-- Node3&#45;&gt;Node17 -->
<g id="edge16" class="edge">
<title>Node3&#45;&gt;Node17</title>
<path fill="none" stroke="midnightblue" d="M767.42,-56.44C801.44,-46.87 856.51,-31.39 892.74,-21.2"/>
<polygon fill="midnightblue" stroke="midnightblue" points="893.75,-24.55 902.43,-18.47 891.86,-17.81 893.75,-24.55"/>
</g>
<!-- Node18 -->
<g id="node18" class="node">
<title>Node18</title>
<g id="a_node18"><a xlink:title=" ">
<polygon fill="white" stroke="#bfbfbf" points="973.5,-0.5 973.5,-19.5 1018.5,-19.5 1018.5,-0.5 973.5,-0.5"/>
<text text-anchor="middle" x="996" y="-7.5" font-family="Helvetica,sans-Serif" font-size="10.00">utility</text>
</a>
</g>
</g>
<!-- Node3&#45;&gt;Node18 -->
<g id="edge17" class="edge">
<title>Node3&#45;&gt;Node18</title>
<path fill="none" stroke="midnightblue" d="M785.95,-56.44C829.92,-48.5 896.45,-35.85 963.45,-19.98"/>
<polygon fill="midnightblue" stroke="midnightblue" points="964.42,-23.34 973.33,-17.61 962.79,-16.53 964.42,-23.34"/>
</g>
<!-- Node19 -->
<g id="node19" class="node">
<title>Node19</title>
<g id="a_node19"><a xlink:title=" ">
<polygon fill="white" stroke="#bfbfbf" points="1036.5,-0.5 1036.5,-19.5 1077.5,-19.5 1077.5,-0.5 1036.5,-0.5"/>
<text text-anchor="middle" x="1057" y="-7.5" font-family="Helvetica,sans-Serif" font-size="10.00">tuple</text>
</a>
</g>
</g>
<!-- Node3&#45;&gt;Node19 -->
<g id="edge18" class="edge">
<title>Node3&#45;&gt;Node19</title>
<path fill="none" stroke="midnightblue" d="M789.53,-59.05C845.83,-52.19 937.93,-39.55 1026.5,-19.82"/>
<polygon fill="midnightblue" stroke="midnightblue" points="1027.46,-23.19 1036.44,-17.57 1025.92,-16.37 1027.46,-23.19"/>
</g>
<!-- Node20 -->
<g id="node20" class="node">
<title>Node20</title>
<g id="a_node20"><a xlink:title=" ">
<polygon fill="white" stroke="#bfbfbf" points="1095.5,-0.5 1095.5,-19.5 1164.5,-19.5 1164.5,-0.5 1095.5,-0.5"/>
<text text-anchor="middle" x="1130" y="-7.5" font-family="Helvetica,sans-Serif" font-size="10.00">type_traits</text>
</a>
</g>
</g>
<!-- Node3&#45;&gt;Node20 -->
<g id="edge19" class="edge">
<title>Node3&#45;&gt;Node20</title>
<path fill="none" stroke="midnightblue" d="M789.5,-59.45C855.95,-52.15 974.11,-38.28 1085.4,-19.98"/>
<polygon fill="midnightblue" stroke="midnightblue" points="1086.17,-23.41 1095.46,-18.32 1085.02,-16.5 1086.17,-23.41"/>
</g>
<!-- Node21 -->
<g id="node21" class="node">
<title>Node21</title>
<g id="a_node21"><a xlink:title=" ">
<polygon fill="white" stroke="#bfbfbf" points="1182.5,-0.5 1182.5,-19.5 1247.5,-19.5 1247.5,-0.5 1182.5,-0.5"/>
<text text-anchor="middle" x="1215" y="-7.5" font-family="Helvetica,sans-Serif" font-size="10.00">functional</text>
</a>
</g>
</g>
<!-- Node3&#45;&gt;Node21 -->
<g id="edge20" class="edge">
<title>Node3&#45;&gt;Node21</title>
<path fill="none" stroke="midnightblue" d="M789.72,-61.51C870.25,-55.76 1028.87,-42.75 1172.51,-20.09"/>
<polygon fill="midnightblue" stroke="midnightblue" points="1173.07,-23.54 1182.39,-18.51 1171.96,-16.63 1173.07,-23.54"/>
</g>
<!-- Node22 -->
<g id="node22" class="node">
<title>Node22</title>
<g id="a_node22"><a xlink:title=" ">
<polygon fill="white" stroke="#bfbfbf" points="1265.5,-0.5 1265.5,-19.5 1342.5,-19.5 1342.5,-0.5 1265.5,-0.5"/>
<text text-anchor="middle" x="1304" y="-7.5" font-family="Helvetica,sans-Serif" font-size="10.00">Eigen/Dense</text>
</a>
</g>
</g>
<!-- Node3&#45;&gt;Node22 -->
<g id="edge21" class="edge">
<title>Node3&#45;&gt;Node22</title>
<path fill="none" stroke="midnightblue" d="M789.6,-62.24C881.96,-57.01 1079.41,-44.07 1255.37,-20.1"/>
<polygon fill="midnightblue" stroke="midnightblue" points="1255.89,-23.56 1265.32,-18.73 1254.94,-16.63 1255.89,-23.56"/>
</g>
<!-- Node23 -->
<g id="node23" class="node">
<title>Node23</title>
<g id="a_node23"><a xlink:title=" ">
<polygon fill="white" stroke="#bfbfbf" points="1360.5,-0.5 1360.5,-19.5 1451.5,-19.5 1451.5,-0.5 1360.5,-0.5"/>
<text text-anchor="middle" x="1406" y="-7.5" font-family="Helvetica,sans-Serif" font-size="10.00">Eigen/Cholesky</text>
</a>
</g>
</g>
<!-- Node3&#45;&gt;Node23 -->
<g id="edge22" class="edge">
<title>Node3&#45;&gt;Node23</title>
<path fill="none" stroke="midnightblue" d="M789.81,-62.78C894.72,-58.01 1136.99,-45.21 1350.25,-20.11"/>
<polygon fill="midnightblue" stroke="midnightblue" points="1350.86,-23.56 1360.38,-18.91 1350.03,-16.61 1350.86,-23.56"/>
</g>
<!-- Node24 -->
<g id="node24" class="node">
<title>Node24</title>
<g id="a_node24"><a xlink:title=" ">
<polygon fill="white" stroke="#bfbfbf" points="1470,-0.5 1470,-19.5 1550,-19.5 1550,-0.5 1470,-0.5"/>
<text text-anchor="middle" x="1510" y="-7.5" font-family="Helvetica,sans-Serif" font-size="10.00">Eigen/Sparse</text>
</a>
</g>
</g>
<!-- Node3&#45;&gt;Node24 -->
<g id="edge23" class="edge">
<title>Node3&#45;&gt;Node24</title>
<path fill="none" stroke="midnightblue" d="M789.89,-63.88C908.15,-60.9 1203.08,-50.89 1459.69,-20.01"/>
<polygon fill="midnightblue" stroke="midnightblue" points="1460.44,-23.44 1469.95,-18.76 1459.6,-16.49 1460.44,-23.44"/>
</g>
<!-- Node25 -->
<g id="node25" class="node">
<title>Node25</title>
<g id="a_node25"><a xlink:title=" ">
<polygon fill="white" stroke="#bfbfbf" points="1568.5,-0.5 1568.5,-19.5 1615.5,-19.5 1615.5,-0.5 1568.5,-0.5"/>
<text text-anchor="middle" x="1592" y="-7.5" font-family="Helvetica,sans-Serif" font-size="10.00">omp.h</text>
</a>
</g>
</g>
<!-- Node3&#45;&gt;Node25 -->
<g id="edge24" class="edge">
<title>Node3&#45;&gt;Node25</title>
<path fill="none" stroke="midnightblue" d="M789.63,-63.57C943.39,-59.19 1391.02,-44.74 1558.21,-19.68"/>
<polygon fill="midnightblue" stroke="midnightblue" points="1559,-23.1 1568.34,-18.1 1557.92,-16.19 1559,-23.1"/>
</g>
<!-- Node27 -->
<g id="node27" class="node">
<title>Node27</title>
<g id="a_node27"><a xlink:href="Groups_8h.html" target="_top" xlink:title=" ">
<polygon fill="white" stroke="black" points="543,-112.5 543,-131.5 603,-131.5 603,-112.5 543,-112.5"/>
<text text-anchor="middle" x="573" y="-119.5" font-family="Helvetica,sans-Serif" font-size="10.00">Groups.h</text>
</a>
</g>
</g>
<!-- Node26&#45;&gt;Node27 -->
<g id="edge26" class="edge">
<title>Node26&#45;&gt;Node27</title>
<path fill="none" stroke="midnightblue" d="M637.45,-226.08C594.44,-218.94 536.92,-206.25 523,-188 509.66,-170.51 530.64,-150.45 549.37,-137.3"/>
<polygon fill="midnightblue" stroke="midnightblue" points="551.56,-140.05 557.96,-131.6 547.69,-134.21 551.56,-140.05"/>
</g>
<!-- Node29 -->
<g id="node29" class="node">
<title>Node29</title>
<g id="a_node29"><a xlink:href="BlockGraph_8h.html" target="_top" xlink:title=" ">
<polygon fill="white" stroke="black" points="532,-168.5 532,-187.5 614,-187.5 614,-168.5 532,-168.5"/>
<text text-anchor="middle" x="573" y="-175.5" font-family="Helvetica,sans-Serif" font-size="10.00">BlockGraph.h</text>
</a>
</g>
</g>
<!-- Node26&#45;&gt;Node29 -->
<g id="edge29" class="edge">
<title>Node26&#45;&gt;Node29</title>
<path fill="none" stroke="midnightblue" d="M668.94,-224.44C650.43,-215.68 621.42,-201.94 600.14,-191.86"/>
<polygon fill="midnightblue" stroke="midnightblue" points="601.51,-188.63 590.98,-187.52 598.52,-194.96 601.51,-188.63"/>
</g>
<!-- Node30 -->
<g id="node30" class="node">
<title>Node30</title>
<g id="a_node30"><a xlink:href="GraphType_8h.html" target="_top" xlink:title=" ">
<polygon fill="white" stroke="black" points="698.5,-112.5 698.5,-131.5 775.5,-131.5 775.5,-112.5 698.5,-112.5"/>
<text text-anchor="middle" x="737" y="-119.5" font-family="Helvetica,sans-Serif" font-size="10.00">GraphType.h</text>
</a>
</g>
</g>
<!-- Node26&#45;&gt;Node30 -->
<g id="edge32" class="edge">
<title>Node26&#45;&gt;Node30</title>
<path fill="none" stroke="midnightblue" d="M705.98,-224.4C719.89,-216.95 737.71,-204.74 746,-188 753.18,-173.5 749.62,-155.08 745.03,-141.56"/>
<polygon fill="midnightblue" stroke="midnightblue" points="748.18,-139.99 741.31,-131.93 741.65,-142.52 748.18,-139.99"/>
</g>
<!-- Node31 -->
<g id="node31" class="node">
<title>Node31</title>
<g id="a_node31"><a xlink:href="BlockGraphCRTP_8h.html" target="_top" xlink:title=" ">
<polygon fill="white" stroke="black" points="632.5,-168.5 632.5,-187.5 737.5,-187.5 737.5,-168.5 632.5,-168.5"/>
<text text-anchor="middle" x="685" y="-175.5" font-family="Helvetica,sans-Serif" font-size="10.00">BlockGraphCRTP.h</text>
</a>
</g>
</g>
<!-- Node26&#45;&gt;Node31 -->
<g id="edge34" class="edge">
<title>Node26&#45;&gt;Node31</title>
<path fill="none" stroke="midnightblue" d="M681.5,-224.08C679.75,-217.01 678.94,-206.86 679.22,-197.99"/>
<polygon fill="midnightblue" stroke="midnightblue" points="682.74,-198.04 680.19,-187.75 675.77,-197.38 682.74,-198.04"/>
</g>
<!-- Node27&#45;&gt;Node3 -->
<g id="edge28" class="edge">
<title>Node27&#45;&gt;Node3</title>
<path fill="none" stroke="midnightblue" d="M598.99,-112.44C626.7,-103.32 670.75,-88.81 701.62,-78.65"/>
<polygon fill="midnightblue" stroke="midnightblue" points="702.73,-81.97 711.14,-75.52 700.54,-75.32 702.73,-81.97"/>
</g>
<!-- Node28 -->
<g id="node28" class="node">
<title>Node28</title>
<g id="a_node28"><a xlink:title=" ">
<polygon fill="white" stroke="#bfbfbf" points="548,-56.5 548,-75.5 598,-75.5 598,-56.5 548,-56.5"/>
<text text-anchor="middle" x="573" y="-63.5" font-family="Helvetica,sans-Serif" font-size="10.00">Rcpp.h</text>
</a>
</g>
</g>
<!-- Node27&#45;&gt;Node28 -->
<g id="edge27" class="edge">
<title>Node27&#45;&gt;Node28</title>
<path fill="none" stroke="midnightblue" d="M573,-112.08C573,-105.01 573,-94.86 573,-85.99"/>
<polygon fill="midnightblue" stroke="midnightblue" points="576.5,-85.75 573,-75.75 569.5,-85.75 576.5,-85.75"/>
</g>
<!-- Node29&#45;&gt;Node3 -->
<g id="edge30" class="edge">
<title>Node29&#45;&gt;Node3</title>
<path fill="none" stroke="midnightblue" d="M585.87,-168.37C614.01,-149.49 681.26,-104.38 715.77,-81.24"/>
<polygon fill="midnightblue" stroke="midnightblue" points="717.84,-84.07 724.19,-75.59 713.94,-78.26 717.84,-84.07"/>
</g>
<!-- Node29&#45;&gt;Node27 -->
<g id="edge31" class="edge">
<title>Node29&#45;&gt;Node27</title>
<path fill="none" stroke="midnightblue" d="M573,-168.08C573,-161.01 573,-150.86 573,-141.99"/>
<polygon fill="midnightblue" stroke="midnightblue" points="576.5,-141.75 573,-131.75 569.5,-141.75 576.5,-141.75"/>
</g>
<!-- Node30&#45;&gt;Node3 -->
<g id="edge33" class="edge">
<title>Node30&#45;&gt;Node3</title>
<path fill="none" stroke="midnightblue" d="M737,-112.08C737,-105.01 737,-94.86 737,-85.99"/>
<polygon fill="midnightblue" stroke="midnightblue" points="740.5,-85.75 737,-75.75 733.5,-85.75 740.5,-85.75"/>
</g>
<!-- Node31&#45;&gt;Node3 -->
<g id="edge35" class="edge">
<title>Node31&#45;&gt;Node3</title>
<path fill="none" stroke="midnightblue" d="M683.56,-168.08C681.88,-155.07 680.34,-130.42 689,-112 694.64,-100.01 705.03,-89.64 714.7,-81.89"/>
<polygon fill="midnightblue" stroke="midnightblue" points="716.96,-84.57 722.88,-75.78 712.77,-78.96 716.96,-84.57"/>
</g>
<!-- Node31&#45;&gt;Node26 -->
<g id="edge36" class="edge">
<title>Node31&#45;&gt;Node26</title>
<path fill="none" stroke="midnightblue" d="M690.46,-187.75C692.24,-194.86 693.07,-205.14 692.77,-214.1"/>
<polygon fill="midnightblue" stroke="midnightblue" points="689.29,-213.8 691.84,-224.08 696.25,-214.45 689.29,-213.8"/>
</g>
<!-- Node33 -->
<g id="node33" class="node">
<title>Node33</title>
<g id="a_node33"><a xlink:href="utils_8h.html" target="_top" xlink:title=" ">
<polygon fill="white" stroke="black" points="870.5,-280.5 870.5,-299.5 917.5,-299.5 917.5,-280.5 870.5,-280.5"/>
<text text-anchor="middle" x="894" y="-287.5" font-family="Helvetica,sans-Serif" font-size="10.00">utils.h</text>
</a>
</g>
</g>
<!-- Node32&#45;&gt;Node33 -->
<g id="edge38" class="edge">
<title>Node32&#45;&gt;Node33</title>
<path fill="none" stroke="midnightblue" d="M879.99,-392.44C898.46,-385.77 919.95,-374.45 931,-356 940.93,-339.42 926.81,-320.16 913.25,-306.93"/>
<polygon fill="midnightblue" stroke="midnightblue" points="915.27,-304.04 905.52,-299.9 910.57,-309.22 915.27,-304.04"/>
</g>
<!-- Node34 -->
<g id="node34" class="node">
<title>Node34</title>
<g id="a_node34"><a xlink:href="GSLwrappers_8h.html" target="_top" xlink:title=" ">
<polygon fill="white" stroke="red" points="1018.5,-224.5 1018.5,-243.5 1107.5,-243.5 1107.5,-224.5 1018.5,-224.5"/>
<text text-anchor="middle" x="1063" y="-231.5" font-family="Helvetica,sans-Serif" font-size="10.00">GSLwrappers.h</text>
</a>
</g>
</g>
<!-- Node32&#45;&gt;Node34 -->
<g id="edge56" class="edge">
<title>Node32&#45;&gt;Node34</title>
<path fill="none" stroke="midnightblue" d="M873.09,-392.41C894.15,-384.75 923.98,-372.25 947,-356 990.2,-325.51 1030.51,-277.35 1050.27,-251.96"/>
<polygon fill="midnightblue" stroke="midnightblue" points="1053.29,-253.78 1056.59,-243.71 1047.73,-249.52 1053.29,-253.78"/>
</g>
<!-- Node41 -->
<g id="node40" class="node">
<title>Node41</title>
<g id="a_node40"><a xlink:href="GWishart_8h.html" target="_top" xlink:title=" ">
<polygon fill="white" stroke="black" points="851.5,-336.5 851.5,-355.5 922.5,-355.5 922.5,-336.5 851.5,-336.5"/>
<text text-anchor="middle" x="887" y="-343.5" font-family="Helvetica,sans-Serif" font-size="10.00">GWishart.h</text>
</a>
</g>
</g>
<!-- Node32&#45;&gt;Node41 -->
<g id="edge48" class="edge">
<title>Node32&#45;&gt;Node41</title>
<path fill="none" stroke="midnightblue" d="M853.61,-392.08C859.26,-384.46 867.54,-373.26 874.45,-363.94"/>
<polygon fill="midnightblue" stroke="midnightblue" points="877.38,-365.87 880.52,-355.75 871.75,-361.7 877.38,-365.87"/>
</g>
<!-- Node42 -->
<g id="node41" class="node">
<title>Node42</title>
<g id="a_node41"><a xlink:href="Precision_8h.html" target="_top" xlink:title=" ">
<polygon fill="white" stroke="black" points="763,-336.5 763,-355.5 833,-355.5 833,-336.5 763,-336.5"/>
<text text-anchor="middle" x="798" y="-343.5" font-family="Helvetica,sans-Serif" font-size="10.00">Precision.h</text>
</a>
</g>
</g>
<!-- Node32&#45;&gt;Node42 -->
<g id="edge52" class="edge">
<title>Node32&#45;&gt;Node42</title>
<path fill="none" stroke="midnightblue" d="M838.91,-392.08C831.84,-384.3 821.41,-372.8 812.85,-363.37"/>
<polygon fill="midnightblue" stroke="midnightblue" points="815.25,-360.8 805.94,-355.75 810.07,-365.51 815.25,-360.8"/>
</g>
<!-- Node33&#45;&gt;Node3 -->
<g id="edge39" class="edge">
<title>Node33&#45;&gt;Node3</title>
<path fill="none" stroke="midnightblue" d="M886.27,-280.25C878.92,-271.57 867.98,-257.62 861,-244 832.85,-189.1 857.24,-159.61 818,-112 806.14,-97.61 788.41,-87.02 772.56,-79.75"/>
<polygon fill="midnightblue" stroke="midnightblue" points="773.57,-76.37 763,-75.64 770.8,-82.8 773.57,-76.37"/>
</g>
<!-- Node33&#45;&gt;Node26 -->
<g id="edge40" class="edge">
<title>Node33&#45;&gt;Node26</title>
<path fill="none" stroke="midnightblue" d="M870.25,-282.81C835.94,-273.85 771.96,-257.16 729.42,-246.07"/>
<polygon fill="midnightblue" stroke="midnightblue" points="730.18,-242.65 719.62,-243.51 728.42,-249.42 730.18,-242.65"/>
</g>
<!-- Node33&#45;&gt;Node34 -->
<g id="edge41" class="edge">
<title>Node33&#45;&gt;Node34</title>
<path fill="none" stroke="midnightblue" d="M917.86,-281.38C946.14,-272.34 993.58,-257.18 1026.49,-246.67"/>
<polygon fill="midnightblue" stroke="midnightblue" points="1027.74,-249.94 1036.2,-243.56 1025.61,-243.27 1027.74,-249.94"/>
</g>
<!-- Node40 -->
<g id="node39" class="node">
<title>Node40</title>
<g id="a_node39"><a xlink:title=" ">
<polygon fill="white" stroke="#bfbfbf" points="870,-224.5 870,-243.5 962,-243.5 962,-224.5 870,-224.5"/>
<text text-anchor="middle" x="916" y="-231.5" font-family="Helvetica,sans-Serif" font-size="10.00">gsl/gsl_sf_log.h</text>
</a>
</g>
</g>
<!-- Node33&#45;&gt;Node40 -->
<g id="edge47" class="edge">
<title>Node33&#45;&gt;Node40</title>
<path fill="none" stroke="midnightblue" d="M897.63,-280.08C900.61,-272.77 904.93,-262.18 908.62,-253.1"/>
<polygon fill="midnightblue" stroke="midnightblue" points="911.9,-254.33 912.43,-243.75 905.42,-251.69 911.9,-254.33"/>
</g>
<!-- Node34&#45;&gt;Node3 -->
<g id="edge42" class="edge">
<title>Node34&#45;&gt;Node3</title>
<path fill="none" stroke="midnightblue" d="M1018.47,-230.07C982.9,-225.7 933.47,-214.86 899,-188 868.39,-164.15 885.46,-137.26 856,-112 837.16,-95.85 811.93,-85.2 789.55,-78.35"/>
<polygon fill="midnightblue" stroke="midnightblue" points="790.41,-74.95 779.83,-75.54 788.47,-81.68 790.41,-74.95"/>
</g>
<!-- Node35 -->
<g id="node35" class="node">
<title>Node35</title>
<g id="a_node35"><a xlink:title=" ">
<polygon fill="white" stroke="#bfbfbf" points="1024,-168.5 1024,-187.5 1102,-187.5 1102,-168.5 1024,-168.5"/>
<text text-anchor="middle" x="1063" y="-175.5" font-family="Helvetica,sans-Serif" font-size="10.00">gsl/gsl_rng.h</text>
</a>
</g>
</g>
<!-- Node34&#45;&gt;Node35 -->
<g id="edge43" class="edge">
<title>Node34&#45;&gt;Node35</title>
<path fill="none" stroke="midnightblue" d="M1063,-224.08C1063,-217.01 1063,-206.86 1063,-197.99"/>
<polygon fill="midnightblue" stroke="midnightblue" points="1066.5,-197.75 1063,-187.75 1059.5,-197.75 1066.5,-197.75"/>
</g>
<!-- Node36 -->
<g id="node36" class="node">
<title>Node36</title>
<g id="a_node36"><a xlink:title=" ">
<polygon fill="white" stroke="#bfbfbf" points="1120,-168.5 1120,-187.5 1216,-187.5 1216,-168.5 1120,-168.5"/>
<text text-anchor="middle" x="1168" y="-175.5" font-family="Helvetica,sans-Serif" font-size="10.00">gsl/gsl_randist.h</text>
</a>
</g>
</g>
<!-- Node34&#45;&gt;Node36 -->
<g id="edge44" class="edge">
<title>Node34&#45;&gt;Node36</title>
<path fill="none" stroke="midnightblue" d="M1079.87,-224.32C1096.71,-215.66 1122.81,-202.24 1142.24,-192.25"/>
<polygon fill="midnightblue" stroke="midnightblue" points="1143.88,-195.34 1151.17,-187.65 1140.68,-189.12 1143.88,-195.34"/>
</g>
<!-- Node37 -->
<g id="node37" class="node">
<title>Node37</title>
<g id="a_node37"><a xlink:title=" ">
<polygon fill="white" stroke="#bfbfbf" points="1234.5,-168.5 1234.5,-187.5 1311.5,-187.5 1311.5,-168.5 1234.5,-168.5"/>
<text text-anchor="middle" x="1273" y="-175.5" font-family="Helvetica,sans-Serif" font-size="10.00">gsl/gsl_cdf.h</text>
</a>
</g>
</g>
<!-- Node34&#45;&gt;Node37 -->
<g id="edge45" class="edge">
<title>Node34&#45;&gt;Node37</title>
<path fill="none" stroke="midnightblue" d="M1096.28,-224.44C1132.45,-215.14 1190.38,-200.25 1229.98,-190.06"/>
<polygon fill="midnightblue" stroke="midnightblue" points="1231.07,-193.4 1239.88,-187.52 1229.32,-186.62 1231.07,-193.4"/>
</g>
<!-- Node38 -->
<g id="node38" class="node">
<title>Node38</title>
<g id="a_node38"><a xlink:title=" ">
<polygon fill="white" stroke="#bfbfbf" points="908,-168.5 908,-187.5 1006,-187.5 1006,-168.5 908,-168.5"/>
<text text-anchor="middle" x="957" y="-175.5" font-family="Helvetica,sans-Serif" font-size="10.00">gsl/gsl_bspline.h</text>
</a>
</g>
</g>
<!-- Node34&#45;&gt;Node38 -->
<g id="edge46" class="edge">
<title>Node34&#45;&gt;Node38</title>
<path fill="none" stroke="midnightblue" d="M1045.97,-224.32C1028.97,-215.66 1002.62,-202.24 983.01,-192.25"/>
<polygon fill="midnightblue" stroke="midnightblue" points="984.49,-189.08 973.99,-187.65 981.31,-195.31 984.49,-189.08"/>
</g>
<!-- Node41&#45;&gt;Node3 -->
<g id="edge49" class="edge">
<title>Node41&#45;&gt;Node3</title>
<path fill="none" stroke="midnightblue" d="M922.91,-343.28C1045.61,-336.18 1434.46,-302.77 1321,-168 1254.88,-89.46 936.99,-72 800.02,-68.11"/>
<polygon fill="midnightblue" stroke="midnightblue" points="799.78,-64.6 789.69,-67.83 799.59,-71.6 799.78,-64.6"/>
</g>
<!-- Node41&#45;&gt;Node26 -->
<g id="edge50" class="edge">
<title>Node41&#45;&gt;Node26</title>
<path fill="none" stroke="midnightblue" d="M871.31,-336.37C836.62,-317.29 753.22,-271.42 711.56,-248.51"/>
<polygon fill="midnightblue" stroke="midnightblue" points="713.07,-245.34 702.62,-243.59 709.7,-251.48 713.07,-245.34"/>
</g>
<!-- Node41&#45;&gt;Node33 -->
<g id="edge51" class="edge">
<title>Node41&#45;&gt;Node33</title>
<path fill="none" stroke="midnightblue" d="M888.16,-336.08C889.08,-328.93 890.42,-318.64 891.58,-309.69"/>
<polygon fill="midnightblue" stroke="midnightblue" points="895.05,-310.12 892.87,-299.75 888.11,-309.22 895.05,-310.12"/>
</g>
<!-- Node42&#45;&gt;Node3 -->
<g id="edge53" class="edge">
<title>Node42&#45;&gt;Node3</title>
<path fill="none" stroke="midnightblue" d="M798.78,-336.45C800.41,-317.96 804,-272.87 804,-235 804,-235 804,-235 804,-177 804,-146.77 799.87,-137.72 784,-112 776.93,-100.55 766.27,-90.01 756.88,-82.02"/>
<polygon fill="midnightblue" stroke="midnightblue" points="759.06,-79.27 749.09,-75.69 754.64,-84.71 759.06,-79.27"/>
</g>
<!-- Node42&#45;&gt;Node26 -->
<g id="edge54" class="edge">
<title>Node42&#45;&gt;Node26</title>
<path fill="none" stroke="midnightblue" d="M791.2,-336.16C781.08,-323.25 761.2,-298.72 742,-280 730.99,-269.26 717.66,-258.31 706.88,-249.9"/>
<polygon fill="midnightblue" stroke="midnightblue" points="708.94,-247.07 698.87,-243.75 704.67,-252.62 708.94,-247.07"/>
</g>
<!-- Node42&#45;&gt;Node33 -->
<g id="edge55" class="edge">
<title>Node42&#45;&gt;Node33</title>
<path fill="none" stroke="midnightblue" d="M813.42,-336.32C828.54,-327.82 851.82,-314.73 869.47,-304.8"/>
<polygon fill="midnightblue" stroke="midnightblue" points="871.61,-307.61 878.61,-299.65 868.18,-301.51 871.61,-307.61"/>
</g>
<!-- Node43&#45;&gt;Node3 -->
<g id="edge58" class="edge">
<title>Node43&#45;&gt;Node3</title>
<path fill="none" stroke="midnightblue" d="M468.46,-448.41C455.55,-430.56 428,-387.7 428,-347 428,-347 428,-347 428,-177 428,-146.2 428.19,-131.53 452,-112 468.91,-98.13 595.41,-82.24 674.09,-73.54"/>
<polygon fill="midnightblue" stroke="midnightblue" points="674.82,-76.98 684.38,-72.41 674.06,-70.02 674.82,-76.98"/>
</g>
<!-- Node43&#45;&gt;Node26 -->
<g id="edge59" class="edge">
<title>Node43&#45;&gt;Node26</title>
<path fill="none" stroke="midnightblue" d="M477.55,-448.28C486.23,-419.99 517.35,-329.68 574,-280 592.17,-264.06 616.69,-253.38 638.24,-246.44"/>
<polygon fill="midnightblue" stroke="midnightblue" points="639.35,-249.76 647.9,-243.51 637.31,-243.06 639.35,-249.76"/>
</g>
<!-- Node43&#45;&gt;Node32 -->
<g id="edge60" class="edge">
<title>Node43&#45;&gt;Node32</title>
<path fill="none" stroke="midnightblue" d="M513.76,-451.37C578.41,-441.99 708.75,-423.07 785.87,-411.87"/>
<polygon fill="midnightblue" stroke="midnightblue" points="786.53,-415.31 795.92,-410.41 785.52,-408.39 786.53,-415.31"/>
</g>
<!-- Node45 -->
<g id="node44" class="node">
<title>Node45</title>
<g id="a_node44"><a xlink:href="GGM_8h.html" target="_top" xlink:title=" ">
<polygon fill="white" stroke="black" points="542,-504.5 542,-523.5 592,-523.5 592,-504.5 542,-504.5"/>
<text text-anchor="middle" x="567" y="-511.5" font-family="Helvetica,sans-Serif" font-size="10.00">GGM.h</text>
</a>
</g>
</g>
<!-- Node44&#45;&gt;Node45 -->
<g id="edge62" class="edge">
<title>Node44&#45;&gt;Node45</title>
<path fill="none" stroke="midnightblue" d="M595.17,-618.59C554.08,-611.35 495.63,-598.15 482,-580 464.23,-556.34 501.47,-536.96 532.15,-525.7"/>
<polygon fill="midnightblue" stroke="midnightblue" points="533.51,-528.93 541.8,-522.33 531.21,-522.32 533.51,-528.93"/>
</g>
<!-- Node46 -->
<g id="node45" class="node">
<title>Node46</title>
<g id="a_node45"><a xlink:href="AddRemoveMH_8h.html" target="_top" xlink:title=" ">
<polygon fill="white" stroke="black" points="491.5,-560.5 491.5,-579.5 592.5,-579.5 592.5,-560.5 491.5,-560.5"/>
<text text-anchor="middle" x="542" y="-567.5" font-family="Helvetica,sans-Serif" font-size="10.00">AddRemoveMH.h</text>
</a>
</g>
</g>
<!-- Node44&#45;&gt;Node46 -->
<g id="edge67" class="edge">
<title>Node44&#45;&gt;Node46</title>
<path fill="none" stroke="midnightblue" d="M621.74,-616.32C606.78,-607.82 583.75,-594.73 566.27,-584.8"/>
<polygon fill="midnightblue" stroke="midnightblue" points="567.65,-581.55 557.23,-579.65 564.19,-587.64 567.65,-581.55"/>
</g>
<!-- Node47 -->
<g id="node46" class="node">
<title>Node47</title>
<g id="a_node46"><a xlink:href="RJMH_8h.html" target="_top" xlink:title=" ">
<polygon fill="white" stroke="black" points="611,-560.5 611,-579.5 663,-579.5 663,-560.5 611,-560.5"/>
<text text-anchor="middle" x="637" y="-567.5" font-family="Helvetica,sans-Serif" font-size="10.00">RJMH.h</text>
</a>
</g>
</g>
<!-- Node44&#45;&gt;Node47 -->
<g id="edge69" class="edge">
<title>Node44&#45;&gt;Node47</title>
<path fill="none" stroke="midnightblue" d="M637,-616.08C637,-609.01 637,-598.86 637,-589.99"/>
<polygon fill="midnightblue" stroke="midnightblue" points="640.5,-589.75 637,-579.75 633.5,-589.75 640.5,-589.75"/>
</g>
<!-- Node48 -->
<g id="node47" class="node">
<title>Node48</title>
<g id="a_node47"><a xlink:href="DRJMH_8h.html" target="_top" xlink:title=" ">
<polygon fill="white" stroke="black" points="681.5,-560.5 681.5,-579.5 740.5,-579.5 740.5,-560.5 681.5,-560.5"/>
<text text-anchor="middle" x="711" y="-567.5" font-family="Helvetica,sans-Serif" font-size="10.00">DRJMH.h</text>
</a>
</g>
</g>
<!-- Node44&#45;&gt;Node48 -->
<g id="edge71" class="edge">
<title>Node44&#45;&gt;Node48</title>
<path fill="none" stroke="midnightblue" d="M648.89,-616.32C660.15,-608.11 677.29,-595.6 690.71,-585.81"/>
<polygon fill="midnightblue" stroke="midnightblue" points="692.88,-588.56 698.89,-579.83 688.75,-582.9 692.88,-588.56"/>
</g>
<!-- Node45&#45;&gt;Node3 -->
<g id="edge63" class="edge">
<title>Node45&#45;&gt;Node3</title>
<path fill="none" stroke="midnightblue" d="M561.85,-504.31C541.27,-469.24 466,-337.79 466,-291 466,-291 466,-291 466,-177 466,-135.19 497.12,-131.69 534,-112 577.54,-88.75 632.47,-77.5 674.22,-72.06"/>
<polygon fill="midnightblue" stroke="midnightblue" points="674.76,-75.52 684.26,-70.83 673.91,-68.57 674.76,-75.52"/>
</g>
<!-- Node45&#45;&gt;Node26 -->
<g id="edge64" class="edge">
<title>Node45&#45;&gt;Node26</title>
<path fill="none" stroke="midnightblue" d="M569.83,-504.27C575.56,-485.79 588,-441.3 588,-403 588,-403 588,-403 588,-345 588,-301.18 631.94,-266.93 661.27,-248.94"/>
<polygon fill="midnightblue" stroke="midnightblue" points="663.36,-251.77 670.21,-243.68 659.81,-245.74 663.36,-251.77"/>
</g>
<!-- Node45&#45;&gt;Node32 -->
<g id="edge65" class="edge">
<title>Node45&#45;&gt;Node32</title>
<path fill="none" stroke="midnightblue" d="M588.97,-504.37C638.35,-484.97 758.24,-437.87 815.52,-415.37"/>
<polygon fill="midnightblue" stroke="midnightblue" points="817.1,-418.51 825.13,-411.59 814.54,-411.99 817.1,-418.51"/>
</g>
<!-- Node45&#45;&gt;Node43 -->
<g id="edge66" class="edge">
<title>Node45&#45;&gt;Node43</title>
<path fill="none" stroke="midnightblue" d="M552.22,-504.32C537.73,-495.82 515.43,-482.73 498.51,-472.8"/>
<polygon fill="midnightblue" stroke="midnightblue" points="500.14,-469.7 489.74,-467.65 496.6,-475.74 500.14,-469.7"/>
</g>
<!-- Node46&#45;&gt;Node45 -->
<g id="edge68" class="edge">
<title>Node46&#45;&gt;Node45</title>
<path fill="none" stroke="midnightblue" d="M546.13,-560.08C549.51,-552.77 554.42,-542.18 558.62,-533.1"/>
<polygon fill="midnightblue" stroke="midnightblue" points="561.92,-534.3 562.95,-523.75 555.57,-531.36 561.92,-534.3"/>
</g>
<!-- Node47&#45;&gt;Node45 -->
<g id="edge70" class="edge">
<title>Node47&#45;&gt;Node45</title>
<path fill="none" stroke="midnightblue" d="M625.75,-560.32C615.2,-552.18 599.2,-539.84 586.56,-530.09"/>
<polygon fill="midnightblue" stroke="midnightblue" points="588.51,-527.17 578.45,-523.83 584.23,-532.71 588.51,-527.17"/>
</g>
<!-- Node48&#45;&gt;Node45 -->
<g id="edge72" class="edge">
<title>Node48&#45;&gt;Node45</title>
<path fill="none" stroke="midnightblue" d="M688.18,-560.44C664.17,-551.44 626.17,-537.19 599.13,-527.05"/>
<polygon fill="midnightblue" stroke="midnightblue" points="600.3,-523.75 589.71,-523.52 597.84,-530.3 600.3,-523.75"/>
</g>
<!-- Node49&#45;&gt;Node3 -->
<g id="edge74" class="edge">
<title>Node49&#45;&gt;Node3</title>
<path fill="none" stroke="midnightblue" d="M1438.95,-392.46C1436.79,-373.98 1432,-328.91 1432,-291 1432,-291 1432,-291 1432,-177 1432,-143.08 1421.03,-129.55 1392,-112 1342.15,-81.86 954.24,-71.16 799.97,-68.07"/>
<polygon fill="midnightblue" stroke="midnightblue" points="799.78,-64.57 789.71,-67.87 799.64,-71.57 799.78,-64.57"/>
</g>
<!-- Node50&#45;&gt;Node3 -->
<g id="edge76" class="edge">
<title>Node50&#45;&gt;Node3</title>
<path fill="none" stroke="midnightblue" d="M959.39,-448.84C1089.54,-430.06 1378,-378.57 1378,-291 1378,-291 1378,-291 1378,-177 1378,-111.21 1308.38,-129.64 1245,-112 1162.82,-89.13 916.56,-75.19 799.77,-69.7"/>
<polygon fill="midnightblue" stroke="midnightblue" points="799.71,-66.19 789.56,-69.22 799.39,-73.18 799.71,-66.19"/>
</g>
<!-- Node50&#45;&gt;Node26 -->
<g id="edge78" class="edge">
<title>Node50&#45;&gt;Node26</title>
<path fill="none" stroke="midnightblue" d="M860.37,-448.48C837.28,-441.66 807.99,-430.16 787,-412 760.24,-388.84 714.04,-293.35 695.28,-253.06"/>
<polygon fill="midnightblue" stroke="midnightblue" points="698.41,-251.49 691.03,-243.88 692.05,-254.42 698.41,-251.49"/>
</g>
<!-- Node50&#45;&gt;Node32 -->
<g id="edge77" class="edge">
<title>Node50&#45;&gt;Node32</title>
<path fill="none" stroke="midnightblue" d="M888.74,-448.08C881.54,-440.3 870.89,-428.8 862.15,-419.37"/>
<polygon fill="midnightblue" stroke="midnightblue" points="864.47,-416.71 855.1,-411.75 859.33,-421.47 864.47,-416.71"/>
</g>
<!-- Node50&#45;&gt;Node49 -->
<g id="edge79" class="edge">
<title>Node50&#45;&gt;Node49</title>
<path fill="none" stroke="midnightblue" d="M959.2,-449.48C963.87,-448.96 968.51,-448.46 973,-448 1155.4,-429.22 1202.03,-434.56 1384,-412 1385.47,-411.82 1386.95,-411.63 1388.45,-411.43"/>
<polygon fill="midnightblue" stroke="midnightblue" points="1389.04,-414.88 1398.46,-410.02 1388.07,-407.95 1389.04,-414.88"/>
</g>
</g>
</svg>
