<?xml version="1.0" encoding="UTF-8" standalone="no"?>
<!DOCTYPE svg PUBLIC "-//W3C//DTD SVG 1.1//EN"
 "http://www.w3.org/Graphics/SVG/1.1/DTD/svg11.dtd">
<!-- Generated by graphviz version 2.43.0 (0)
 -->
<!-- Title: Precision.h Pages: 1 -->
<svg width="713pt" height="476pt"
 viewBox="0.00 0.00 712.50 476.00" xmlns="http://www.w3.org/2000/svg" xmlns:xlink="http://www.w3.org/1999/xlink">
<g id="graph0" class="graph" transform="scale(1 1) rotate(0) translate(4 472)">
<title>Precision.h</title>
<polygon fill="white" stroke="transparent" points="-4,4 -4,-472 708.5,-472 708.5,4 -4,4"/>
<!-- Node1 -->
<g id="node1" class="node">
<title>Node1</title>
<g id="a_node1"><a xlink:title=" ">
<polygon fill="#bfbfbf" stroke="black" points="316,-448.5 316,-467.5 386,-467.5 386,-448.5 316,-448.5"/>
<text text-anchor="middle" x="351" y="-455.5" font-family="Helvetica,sans-Serif" font-size="10.00">Precision.h</text>
</a>
</g>
</g>
<!-- Node2 -->
<g id="node2" class="node">
<title>Node2</title>
<g id="a_node2"><a xlink:href="include__helpers_8h.html" target="_top" xlink:title=" ">
<polygon fill="white" stroke="black" points="300,-392.5 300,-411.5 402,-411.5 402,-392.5 300,-392.5"/>
<text text-anchor="middle" x="351" y="-399.5" font-family="Helvetica,sans-Serif" font-size="10.00">include_helpers.h</text>
</a>
</g>
</g>
<!-- Node1&#45;&gt;Node2 -->
<g id="edge1" class="edge">
<title>Node1&#45;&gt;Node2</title>
<path fill="none" stroke="midnightblue" d="M351,-437.8C351,-428.91 351,-418.78 351,-411.75"/>
<polygon fill="midnightblue" stroke="midnightblue" points="347.5,-438.08 351,-448.08 354.5,-438.08 347.5,-438.08"/>
</g>
<!-- Node3 -->
<g id="node3" class="node">
<title>Node3</title>
<g id="a_node3"><a xlink:href="GGM_8h.html" target="_top" xlink:title=" ">
<polygon fill="white" stroke="black" points="208,-280.5 208,-299.5 258,-299.5 258,-280.5 208,-280.5"/>
<text text-anchor="middle" x="233" y="-287.5" font-family="Helvetica,sans-Serif" font-size="10.00">GGM.h</text>
</a>
</g>
</g>
<!-- Node2&#45;&gt;Node3 -->
<g id="edge2" class="edge">
<title>Node2&#45;&gt;Node3</title>
<path fill="none" stroke="midnightblue" d="M334.39,-385.51C309.17,-362.01 262.08,-318.11 242.22,-299.59"/>
<polygon fill="midnightblue" stroke="midnightblue" points="332.04,-388.11 341.74,-392.37 336.81,-382.99 332.04,-388.11"/>
</g>
<!-- Node6 -->
<g id="node6" class="node">
<title>Node6</title>
<g id="a_node6"><a xlink:href="SamplerOptions_8h.html" target="_top" xlink:title=" ">
<polygon fill="white" stroke="black" points="299,-112.5 299,-131.5 403,-131.5 403,-112.5 299,-112.5"/>
<text text-anchor="middle" x="351" y="-119.5" font-family="Helvetica,sans-Serif" font-size="10.00">SamplerOptions.h</text>
</a>
</g>
</g>
<!-- Node2&#45;&gt;Node6 -->
<g id="edge25" class="edge">
<title>Node2&#45;&gt;Node6</title>
<path fill="none" stroke="midnightblue" d="M351,-382.25C351,-360.36 351,-323.05 351,-291 351,-291 351,-291 351,-233 351,-195.19 351,-150.06 351,-131.56"/>
<polygon fill="midnightblue" stroke="midnightblue" points="347.5,-382.44 351,-392.44 354.5,-382.44 347.5,-382.44"/>
</g>
<!-- Node8 -->
<g id="node8" class="node">
<title>Node8</title>
<g id="a_node8"><a xlink:href="BGSL__export_8cpp.html" target="_top" xlink:title=" ">
<polygon fill="white" stroke="black" points="277.5,-0.5 277.5,-19.5 376.5,-19.5 376.5,-0.5 277.5,-0.5"/>
<text text-anchor="middle" x="327" y="-7.5" font-family="Helvetica,sans-Serif" font-size="10.00">BGSL_export.cpp</text>
</a>
</g>
</g>
<!-- Node2&#45;&gt;Node8 -->
<g id="edge24" class="edge">
<title>Node2&#45;&gt;Node8</title>
<path fill="none" stroke="midnightblue" d="M289.93,-394.55C189.38,-382.23 0,-351.04 0,-291 0,-291 0,-291 0,-121 0,-85.86 15.26,-74.72 45,-56 82.82,-32.2 207.18,-19.61 277.47,-14.24"/>
<polygon fill="midnightblue" stroke="midnightblue" points="289.62,-398.04 299.96,-395.76 290.45,-391.09 289.62,-398.04"/>
</g>
<!-- Node14 -->
<g id="node14" class="node">
<title>Node14</title>
<g id="a_node14"><a xlink:href="GraphPrior_8h.html" target="_top" xlink:title=" ">
<polygon fill="white" stroke="black" points="379.5,-336.5 379.5,-355.5 456.5,-355.5 456.5,-336.5 379.5,-336.5"/>
<text text-anchor="middle" x="418" y="-343.5" font-family="Helvetica,sans-Serif" font-size="10.00">GraphPrior.h</text>
</a>
</g>
</g>
<!-- Node2&#45;&gt;Node14 -->
<g id="edge20" class="edge">
<title>Node2&#45;&gt;Node14</title>
<path fill="none" stroke="midnightblue" d="M369.83,-385.82C381.84,-376.15 396.97,-363.95 407.04,-355.83"/>
<polygon fill="midnightblue" stroke="midnightblue" points="367.35,-383.32 361.76,-392.32 371.75,-388.77 367.35,-383.32"/>
</g>
<!-- Node15 -->
<g id="node15" class="node">
<title>Node15</title>
<g id="a_node15"><a xlink:href="FLMSamplerOptions_8h.html" target="_top" xlink:title=" ">
<polygon fill="white" stroke="black" points="491,-112.5 491,-131.5 615,-131.5 615,-112.5 491,-112.5"/>
<text text-anchor="middle" x="553" y="-119.5" font-family="Helvetica,sans-Serif" font-size="10.00">FLMSamplerOptions.h</text>
</a>
</g>
</g>
<!-- Node2&#45;&gt;Node15 -->
<g id="edge26" class="edge">
<title>Node2&#45;&gt;Node15</title>
<path fill="none" stroke="midnightblue" d="M408.8,-389.97C460.1,-376.43 527,-347.87 527,-291 527,-291 527,-291 527,-233 527,-194.34 542.4,-150.04 549.49,-131.68"/>
<polygon fill="midnightblue" stroke="midnightblue" points="407.94,-386.57 399.09,-392.4 409.64,-393.36 407.94,-386.57"/>
</g>
<!-- Node4 -->
<g id="node4" class="node">
<title>Node4</title>
<g id="a_node4"><a xlink:href="AddRemoveMH_8h.html" target="_top" xlink:title=" ">
<polygon fill="white" stroke="black" points="221.5,-224.5 221.5,-243.5 322.5,-243.5 322.5,-224.5 221.5,-224.5"/>
<text text-anchor="middle" x="272" y="-231.5" font-family="Helvetica,sans-Serif" font-size="10.00">AddRemoveMH.h</text>
</a>
</g>
</g>
<!-- Node3&#45;&gt;Node4 -->
<g id="edge3" class="edge">
<title>Node3&#45;&gt;Node4</title>
<path fill="none" stroke="midnightblue" d="M245.38,-271.86C252.14,-262.5 260.21,-251.33 265.68,-243.75"/>
<polygon fill="midnightblue" stroke="midnightblue" points="242.46,-269.93 239.44,-280.08 248.13,-274.03 242.46,-269.93"/>
</g>
<!-- Node5 -->
<g id="node5" class="node">
<title>Node5</title>
<g id="a_node5"><a xlink:href="GGMFactory_8h.html" target="_top" xlink:title=" ">
<polygon fill="white" stroke="black" points="122.5,-168.5 122.5,-187.5 205.5,-187.5 205.5,-168.5 122.5,-168.5"/>
<text text-anchor="middle" x="164" y="-175.5" font-family="Helvetica,sans-Serif" font-size="10.00">GGMFactory.h</text>
</a>
</g>
</g>
<!-- Node3&#45;&gt;Node5 -->
<g id="edge15" class="edge">
<title>Node3&#45;&gt;Node5</title>
<path fill="none" stroke="midnightblue" d="M222.11,-271.64C207.12,-247.74 180.7,-205.63 169.39,-187.59"/>
<polygon fill="midnightblue" stroke="midnightblue" points="219.31,-273.76 227.59,-280.37 225.24,-270.04 219.31,-273.76"/>
</g>
<!-- Node12 -->
<g id="node12" class="node">
<title>Node12</title>
<g id="a_node12"><a xlink:href="RJMH_8h.html" target="_top" xlink:title=" ">
<polygon fill="white" stroke="black" points="35,-224.5 35,-243.5 87,-243.5 87,-224.5 35,-224.5"/>
<text text-anchor="middle" x="61" y="-231.5" font-family="Helvetica,sans-Serif" font-size="10.00">RJMH.h</text>
</a>
</g>
</g>
<!-- Node3&#45;&gt;Node12 -->
<g id="edge16" class="edge">
<title>Node3&#45;&gt;Node12</title>
<path fill="none" stroke="midnightblue" d="M198.34,-278.12C165.49,-267.81 116.88,-252.55 87.17,-243.22"/>
<polygon fill="midnightblue" stroke="midnightblue" points="197.4,-281.49 207.99,-281.15 199.5,-274.81 197.4,-281.49"/>
</g>
<!-- Node13 -->
<g id="node13" class="node">
<title>Node13</title>
<g id="a_node13"><a xlink:href="DRJMH_8h.html" target="_top" xlink:title=" ">
<polygon fill="white" stroke="black" points="105.5,-224.5 105.5,-243.5 164.5,-243.5 164.5,-224.5 105.5,-224.5"/>
<text text-anchor="middle" x="135" y="-231.5" font-family="Helvetica,sans-Serif" font-size="10.00">DRJMH.h</text>
</a>
</g>
</g>
<!-- Node3&#45;&gt;Node13 -->
<g id="edge18" class="edge">
<title>Node3&#45;&gt;Node13</title>
<path fill="none" stroke="midnightblue" d="M208.41,-275.45C190.32,-265.48 166.27,-252.23 150.71,-243.65"/>
<polygon fill="midnightblue" stroke="midnightblue" points="206.81,-278.56 217.25,-280.32 210.19,-272.43 206.81,-278.56"/>
</g>
<!-- Node4&#45;&gt;Node5 -->
<g id="edge4" class="edge">
<title>Node4&#45;&gt;Node5</title>
<path fill="none" stroke="midnightblue" d="M245.45,-219.73C225.45,-209.73 198.61,-196.31 181.31,-187.65"/>
<polygon fill="midnightblue" stroke="midnightblue" points="244.14,-222.98 254.65,-224.32 247.27,-216.72 244.14,-222.98"/>
</g>
<!-- Node5&#45;&gt;Node6 -->
<g id="edge5" class="edge">
<title>Node5&#45;&gt;Node6</title>
<path fill="none" stroke="midnightblue" d="M203.59,-165.57C238.87,-155.38 289.69,-140.7 321.51,-131.52"/>
<polygon fill="midnightblue" stroke="midnightblue" points="202.27,-162.31 193.63,-168.44 204.21,-169.03 202.27,-162.31"/>
</g>
<!-- Node5&#45;&gt;Node8 -->
<g id="edge14" class="edge">
<title>Node5&#45;&gt;Node8</title>
<path fill="none" stroke="midnightblue" d="M136.82,-163.74C95.06,-141.64 23.28,-95.8 57,-56 84.68,-23.32 207.24,-14.35 277.34,-11.9"/>
<polygon fill="midnightblue" stroke="midnightblue" points="135.48,-166.98 145.97,-168.45 138.68,-160.76 135.48,-166.98"/>
</g>
<!-- Node7 -->
<g id="node7" class="node">
<title>Node7</title>
<g id="a_node7"><a xlink:href="GibbsSamplerBase_8h.html" target="_top" xlink:title=" ">
<polygon fill="white" stroke="black" points="66,-56.5 66,-75.5 184,-75.5 184,-56.5 66,-56.5"/>
<text text-anchor="middle" x="125" y="-63.5" font-family="Helvetica,sans-Serif" font-size="10.00">GibbsSamplerBase.h</text>
</a>
</g>
</g>
<!-- Node6&#45;&gt;Node7 -->
<g id="edge6" class="edge">
<title>Node6&#45;&gt;Node7</title>
<path fill="none" stroke="midnightblue" d="M305.33,-110.09C262.64,-99.89 199.75,-84.86 160.64,-75.52"/>
<polygon fill="midnightblue" stroke="midnightblue" points="304.65,-113.52 315.19,-112.44 306.28,-106.72 304.65,-113.52"/>
</g>
<!-- Node9 -->
<g id="node9" class="node">
<title>Node9</title>
<g id="a_node9"><a xlink:href="PosteriorAnalysis_8h.html" target="_top" xlink:title=" ">
<polygon fill="white" stroke="black" points="491,-56.5 491,-75.5 601,-75.5 601,-56.5 491,-56.5"/>
<text text-anchor="middle" x="546" y="-63.5" font-family="Helvetica,sans-Serif" font-size="10.00">PosteriorAnalysis.h</text>
</a>
</g>
</g>
<!-- Node6&#45;&gt;Node9 -->
<g id="edge8" class="edge">
<title>Node6&#45;&gt;Node9</title>
<path fill="none" stroke="midnightblue" d="M391.81,-109.7C428.61,-99.51 481.93,-84.74 515.25,-75.52"/>
<polygon fill="midnightblue" stroke="midnightblue" points="390.6,-106.4 381.9,-112.44 392.47,-113.15 390.6,-106.4"/>
</g>
<!-- Node10 -->
<g id="node10" class="node">
<title>Node10</title>
<g id="a_node10"><a xlink:href="GibbsSamplerDebug_8h.html" target="_top" xlink:title=" ">
<polygon fill="white" stroke="black" points="202.5,-56.5 202.5,-75.5 327.5,-75.5 327.5,-56.5 202.5,-56.5"/>
<text text-anchor="middle" x="265" y="-63.5" font-family="Helvetica,sans-Serif" font-size="10.00">GibbsSamplerDebug.h</text>
</a>
</g>
</g>
<!-- Node6&#45;&gt;Node10 -->
<g id="edge10" class="edge">
<title>Node6&#45;&gt;Node10</title>
<path fill="none" stroke="midnightblue" d="M328.55,-106.9C312.78,-97 292.19,-84.07 278.78,-75.65"/>
<polygon fill="midnightblue" stroke="midnightblue" points="326.85,-109.97 337.18,-112.32 330.57,-104.04 326.85,-109.97"/>
</g>
<!-- Node11 -->
<g id="node11" class="node">
<title>Node11</title>
<g id="a_node11"><a xlink:href="GGMsampler_8h.html" target="_top" xlink:title=" ">
<polygon fill="white" stroke="black" points="345.5,-56.5 345.5,-75.5 434.5,-75.5 434.5,-56.5 345.5,-56.5"/>
<text text-anchor="middle" x="390" y="-63.5" font-family="Helvetica,sans-Serif" font-size="10.00">GGMsampler.h</text>
</a>
</g>
</g>
<!-- Node6&#45;&gt;Node11 -->
<g id="edge12" class="edge">
<title>Node6&#45;&gt;Node11</title>
<path fill="none" stroke="midnightblue" d="M363.38,-103.86C370.14,-94.5 378.21,-83.33 383.68,-75.75"/>
<polygon fill="midnightblue" stroke="midnightblue" points="360.46,-101.93 357.44,-112.08 366.13,-106.03 360.46,-101.93"/>
</g>
<!-- Node7&#45;&gt;Node8 -->
<g id="edge7" class="edge">
<title>Node7&#45;&gt;Node8</title>
<path fill="none" stroke="midnightblue" d="M166.79,-53.83C204.93,-43.63 260.48,-28.78 295.14,-19.52"/>
<polygon fill="midnightblue" stroke="midnightblue" points="165.76,-50.48 157.01,-56.44 167.57,-57.24 165.76,-50.48"/>
</g>
<!-- Node9&#45;&gt;Node8 -->
<g id="edge9" class="edge">
<title>Node9&#45;&gt;Node8</title>
<path fill="none" stroke="midnightblue" d="M501.49,-54.02C460.12,-43.82 399.36,-28.84 361.54,-19.52"/>
<polygon fill="midnightblue" stroke="midnightblue" points="500.75,-57.45 511.3,-56.44 502.43,-50.65 500.75,-57.45"/>
</g>
<!-- Node10&#45;&gt;Node8 -->
<g id="edge11" class="edge">
<title>Node10&#45;&gt;Node8</title>
<path fill="none" stroke="midnightblue" d="M282.75,-49.54C293.81,-39.91 307.63,-27.87 316.86,-19.83"/>
<polygon fill="midnightblue" stroke="midnightblue" points="280.2,-47.12 274.96,-56.32 284.8,-52.4 280.2,-47.12"/>
</g>
<!-- Node11&#45;&gt;Node8 -->
<g id="edge13" class="edge">
<title>Node11&#45;&gt;Node8</title>
<path fill="none" stroke="midnightblue" d="M371.96,-49.54C360.73,-39.91 346.68,-27.87 337.31,-19.83"/>
<polygon fill="midnightblue" stroke="midnightblue" points="370.01,-52.47 379.88,-56.32 374.56,-47.16 370.01,-52.47"/>
</g>
<!-- Node12&#45;&gt;Node5 -->
<g id="edge17" class="edge">
<title>Node12&#45;&gt;Node5</title>
<path fill="none" stroke="midnightblue" d="M86.58,-219.59C105.62,-209.61 131.06,-196.27 147.49,-187.65"/>
<polygon fill="midnightblue" stroke="midnightblue" points="84.78,-216.58 77.55,-224.32 88.03,-222.78 84.78,-216.58"/>
</g>
<!-- Node13&#45;&gt;Node5 -->
<g id="edge19" class="edge">
<title>Node13&#45;&gt;Node5</title>
<path fill="none" stroke="midnightblue" d="M144.68,-214.98C149.6,-205.82 155.36,-195.09 159.3,-187.75"/>
<polygon fill="midnightblue" stroke="midnightblue" points="141.44,-213.62 139.79,-224.08 147.6,-216.93 141.44,-213.62"/>
</g>
<!-- Node14&#45;&gt;Node3 -->
<g id="edge21" class="edge">
<title>Node14&#45;&gt;Node3</title>
<path fill="none" stroke="midnightblue" d="M378.88,-333.58C342.4,-322.93 289.08,-307.37 258.02,-298.3"/>
<polygon fill="midnightblue" stroke="midnightblue" points="378.11,-337 388.69,-336.44 380.07,-330.28 378.11,-337"/>
</g>
<!-- Node14&#45;&gt;Node6 -->
<g id="edge23" class="edge">
<title>Node14&#45;&gt;Node6</title>
<path fill="none" stroke="midnightblue" d="M412.47,-326.3C402.9,-293.99 382.59,-225.63 365,-168 361.13,-155.32 356.55,-140.67 353.71,-131.62"/>
<polygon fill="midnightblue" stroke="midnightblue" points="409.19,-327.55 415.39,-336.15 415.91,-325.57 409.19,-327.55"/>
</g>
<!-- Node14&#45;&gt;Node8 -->
<g id="edge22" class="edge">
<title>Node14&#45;&gt;Node8</title>
<path fill="none" stroke="midnightblue" d="M429.83,-327.96C443.16,-307.06 463,-270.07 463,-235 463,-235 463,-235 463,-121 463,-90.9 464.38,-78.14 444,-56 426.46,-36.95 399.95,-25.88 376.59,-19.5"/>
<polygon fill="midnightblue" stroke="midnightblue" points="426.87,-326.1 424.26,-336.37 432.7,-329.97 426.87,-326.1"/>
</g>
<!-- Node15&#45;&gt;Node9 -->
<g id="edge27" class="edge">
<title>Node15&#45;&gt;Node9</title>
<path fill="none" stroke="midnightblue" d="M550.55,-102.1C549.39,-93.14 548.06,-82.86 547.13,-75.75"/>
<polygon fill="midnightblue" stroke="midnightblue" points="547.09,-102.62 551.84,-112.08 554.03,-101.72 547.09,-102.62"/>
</g>
<!-- Node16 -->
<g id="node16" class="node">
<title>Node16</title>
<g id="a_node16"><a xlink:href="FLMsampler_8h.html" target="_top" xlink:title=" ">
<polygon fill="white" stroke="black" points="619.5,-56.5 619.5,-75.5 704.5,-75.5 704.5,-56.5 619.5,-56.5"/>
<text text-anchor="middle" x="662" y="-63.5" font-family="Helvetica,sans-Serif" font-size="10.00">FLMsampler.h</text>
</a>
</g>
</g>
<!-- Node15&#45;&gt;Node16 -->
<g id="edge28" class="edge">
<title>Node15&#45;&gt;Node16</title>
<path fill="none" stroke="midnightblue" d="M579.52,-107.86C599.73,-97.85 626.99,-84.35 644.53,-75.65"/>
<polygon fill="midnightblue" stroke="midnightblue" points="577.92,-104.75 570.51,-112.32 581.03,-111.02 577.92,-104.75"/>
</g>
<!-- Node16&#45;&gt;Node8 -->
<g id="edge29" class="edge">
<title>Node16&#45;&gt;Node8</title>
<path fill="none" stroke="midnightblue" d="M609.55,-55.94C521.46,-41.36 431.11,-27.16 376.62,-18.68"/>
<polygon fill="midnightblue" stroke="midnightblue" points="609,-59.4 619.44,-57.59 610.15,-52.5 609,-59.4"/>
</g>
</g>
</svg>
