<?xml version="1.0" encoding="UTF-8" standalone="no"?>
<!DOCTYPE svg PUBLIC "-//W3C//DTD SVG 1.1//EN"
 "http://www.w3.org/Graphics/SVG/1.1/DTD/svg11.dtd">
<!-- Generated by graphviz version 2.43.0 (0)
 -->
<!-- Title: Precision.h Pages: 1 -->
<!--zoomable 364 -->
<svg id="main" version="1.1" xmlns="http://www.w3.org/2000/svg" xmlns:xlink="http://www.w3.org/1999/xlink" xml:space="preserve" onload="init(evt)">
<style type="text/css"><![CDATA[
.edge:hover path { stroke: red; }
.edge:hover polygon { stroke: red; fill: red; }
]]></style>
<script type="text/javascript"><![CDATA[
var edges = document.getElementsByTagName('g');
if (edges && edges.length) {
  for (var i=0;i<edges.length;i++) {
    if (edges[i].id.substr(0,4)=='edge') {
      edges[i].setAttribute('class','edge');
    }
  }
}
]]></script>
        <defs>
                <circle id="rim" cx="0" cy="0" r="7"/>
                <circle id="rim2" cx="0" cy="0" r="3.5"/>
                <g id="zoomPlus">
                        <use xlink:href="#rim" fill="#404040">
                                <set attributeName="fill" to="#808080" begin="zoomplus.mouseover" end="zoomplus.mouseout"/>
                        </use>
                        <path d="M-4,0h8M0,-4v8" fill="none" stroke="white" stroke-width="1.5" pointer-events="none"/>
                </g>
                <g id="zoomMin">
                        <use xlink:href="#rim" fill="#404040">
                                <set attributeName="fill" to="#808080" begin="zoomminus.mouseover" end="zoomminus.mouseout"/>
                        </use>
                        <path d="M-4,0h8" fill="none" stroke="white" stroke-width="1.5" pointer-events="none"/>
                </g>
                <g id="dirArrow">
                        <path fill="none" stroke="white" stroke-width="1.5" d="M0,-3.0v7 M-2.5,-0.5L0,-3.0L2.5,-0.5"/>
                </g>
               <g id="resetDef">
                       <use xlink:href="#rim2" fill="#404040">
                               <set attributeName="fill" to="#808080" begin="reset.mouseover" end="reset.mouseout"/>
                       </use>
               </g>
        </defs>

<script type="text/javascript">
var viewWidth = 1624;
var viewHeight = 364;
var sectionId = 'dynsection-0';
</script>
<script xlink:href="svgpan.js"/>
<svg id="graph" class="graph">
<g id="viewport">
<title>Precision.h</title>
<polygon fill="white" stroke="transparent" points="-4,4 -4,-360 1619.5,-360 1619.5,4 -4,4"/>
<!-- Node1 -->
<g id="node1" class="node">
<title>Node1</title>
<g id="a_node1"><a xlink:title=" ">
<polygon fill="#bfbfbf" stroke="black" points="799,-336.5 799,-355.5 869,-355.5 869,-336.5 799,-336.5"/>
<text text-anchor="middle" x="834" y="-343.5" font-family="Helvetica,sans-Serif" font-size="10.00">Precision.h</text>
</a>
</g>
</g>
<!-- Node2 -->
<g id="node2" class="node">
<title>Node2</title>
<g id="a_node2"><a xlink:href="include__headers_8h.html" target="_top" xlink:title=" ">
<polygon fill="white" stroke="black" points="684.5,-56.5 684.5,-75.5 789.5,-75.5 789.5,-56.5 684.5,-56.5"/>
<text text-anchor="middle" x="737" y="-63.5" font-family="Helvetica,sans-Serif" font-size="10.00">include_headers.h</text>
</a>
</g>
</g>
<!-- Node1&#45;&gt;Node2 -->
<g id="edge1" class="edge">
<title>Node1&#45;&gt;Node2</title>
<path fill="none" stroke="midnightblue" d="M869.16,-345.71C993.22,-347.31 1403,-344.29 1403,-235 1403,-235 1403,-235 1403,-177 1403,-116.2 965.32,-81.69 799.58,-70.8"/>
<polygon fill="midnightblue" stroke="midnightblue" points="799.74,-67.3 789.54,-70.14 799.29,-74.29 799.74,-67.3"/>
</g>
<!-- Node25 -->
<g id="node25" class="node">
<title>Node25</title>
<g id="a_node25"><a xlink:href="include__graphs_8h.html" target="_top" xlink:title=" ">
<polygon fill="white" stroke="black" points="666.5,-224.5 666.5,-243.5 765.5,-243.5 765.5,-224.5 666.5,-224.5"/>
<text text-anchor="middle" x="716" y="-231.5" font-family="Helvetica,sans-Serif" font-size="10.00">include_graphs.h</text>
</a>
</g>
</g>
<!-- Node1&#45;&gt;Node25 -->
<g id="edge24" class="edge">
<title>Node1&#45;&gt;Node25</title>
<path fill="none" stroke="midnightblue" d="M824.74,-336.37C804.84,-317.81 757.74,-273.91 732.56,-250.44"/>
<polygon fill="midnightblue" stroke="midnightblue" points="734.92,-247.85 725.22,-243.59 730.14,-252.97 734.92,-247.85"/>
</g>
<!-- Node31 -->
<g id="node31" class="node">
<title>Node31</title>
<g id="a_node31"><a xlink:href="utils_8h.html" target="_top" xlink:title=" ">
<polygon fill="white" stroke="black" points="810.5,-280.5 810.5,-299.5 857.5,-299.5 857.5,-280.5 810.5,-280.5"/>
<text text-anchor="middle" x="834" y="-287.5" font-family="Helvetica,sans-Serif" font-size="10.00">utils.h</text>
</a>
</g>
</g>
<!-- Node1&#45;&gt;Node31 -->
<g id="edge36" class="edge">
<title>Node1&#45;&gt;Node31</title>
<path fill="none" stroke="midnightblue" d="M834,-336.08C834,-329.01 834,-318.86 834,-309.99"/>
<polygon fill="midnightblue" stroke="midnightblue" points="837.5,-309.75 834,-299.75 830.5,-309.75 837.5,-309.75"/>
</g>
<!-- Node3 -->
<g id="node3" class="node">
<title>Node3</title>
<g id="a_node3"><a xlink:title=" ">
<polygon fill="white" stroke="#bfbfbf" points="0,-0.5 0,-19.5 60,-19.5 60,-0.5 0,-0.5"/>
<text text-anchor="middle" x="30" y="-7.5" font-family="Helvetica,sans-Serif" font-size="10.00">iostream</text>
</a>
</g>
</g>
<!-- Node2&#45;&gt;Node3 -->
<g id="edge2" class="edge">
<title>Node2&#45;&gt;Node3</title>
<path fill="none" stroke="midnightblue" d="M684.32,-61.94C543.3,-53.67 162.19,-30.88 70.3,-19.81"/>
<polygon fill="midnightblue" stroke="midnightblue" points="70.52,-16.31 60.14,-18.46 69.59,-23.25 70.52,-16.31"/>
</g>
<!-- Node4 -->
<g id="node4" class="node">
<title>Node4</title>
<g id="a_node4"><a xlink:title=" ">
<polygon fill="white" stroke="#bfbfbf" points="78,-0.5 78,-19.5 128,-19.5 128,-0.5 78,-0.5"/>
<text text-anchor="middle" x="103" y="-7.5" font-family="Helvetica,sans-Serif" font-size="10.00">stdio.h</text>
</a>
</g>
</g>
<!-- Node2&#45;&gt;Node4 -->
<g id="edge3" class="edge">
<title>Node2&#45;&gt;Node4</title>
<path fill="none" stroke="midnightblue" d="M684.34,-61.61C554.09,-53.14 221.88,-31.06 138.24,-19.73"/>
<polygon fill="midnightblue" stroke="midnightblue" points="138.55,-16.24 128.14,-18.21 137.5,-23.16 138.55,-16.24"/>
</g>
<!-- Node5 -->
<g id="node5" class="node">
<title>Node5</title>
<g id="a_node5"><a xlink:title=" ">
<polygon fill="white" stroke="#bfbfbf" points="146,-0.5 146,-19.5 190,-19.5 190,-0.5 146,-0.5"/>
<text text-anchor="middle" x="168" y="-7.5" font-family="Helvetica,sans-Serif" font-size="10.00">string</text>
</a>
</g>
</g>
<!-- Node2&#45;&gt;Node5 -->
<g id="edge4" class="edge">
<title>Node2&#45;&gt;Node5</title>
<path fill="none" stroke="midnightblue" d="M684.26,-61.93C571.33,-55.15 308.29,-38.16 200.19,-19.81"/>
<polygon fill="midnightblue" stroke="midnightblue" points="200.68,-16.34 190.22,-18.03 199.45,-23.23 200.68,-16.34"/>
</g>
<!-- Node6 -->
<g id="node6" class="node">
<title>Node6</title>
<g id="a_node6"><a xlink:title=" ">
<polygon fill="white" stroke="#bfbfbf" points="208.5,-0.5 208.5,-19.5 255.5,-19.5 255.5,-0.5 208.5,-0.5"/>
<text text-anchor="middle" x="232" y="-7.5" font-family="Helvetica,sans-Serif" font-size="10.00">vector</text>
</a>
</g>
</g>
<!-- Node2&#45;&gt;Node6 -->
<g id="edge5" class="edge">
<title>Node2&#45;&gt;Node6</title>
<path fill="none" stroke="midnightblue" d="M684.45,-61.13C582.59,-53.45 360.69,-35.79 265.56,-19.73"/>
<polygon fill="midnightblue" stroke="midnightblue" points="266.14,-16.28 255.68,-17.98 264.92,-23.17 266.14,-16.28"/>
</g>
<!-- Node7 -->
<g id="node7" class="node">
<title>Node7</title>
<g id="a_node7"><a xlink:title=" ">
<polygon fill="white" stroke="#bfbfbf" points="274,-0.5 274,-19.5 312,-19.5 312,-0.5 274,-0.5"/>
<text text-anchor="middle" x="293" y="-7.5" font-family="Helvetica,sans-Serif" font-size="10.00">map</text>
</a>
</g>
</g>
<!-- Node2&#45;&gt;Node7 -->
<g id="edge6" class="edge">
<title>Node2&#45;&gt;Node7</title>
<path fill="none" stroke="midnightblue" d="M684.25,-62.73C606.68,-58.64 457.31,-47.91 322.25,-19.86"/>
<polygon fill="midnightblue" stroke="midnightblue" points="322.65,-16.36 312.14,-17.72 321.2,-23.21 322.65,-16.36"/>
</g>
<!-- Node8 -->
<g id="node8" class="node">
<title>Node8</title>
<g id="a_node8"><a xlink:title=" ">
<polygon fill="white" stroke="#bfbfbf" points="330,-0.5 330,-19.5 362,-19.5 362,-0.5 330,-0.5"/>
<text text-anchor="middle" x="346" y="-7.5" font-family="Helvetica,sans-Serif" font-size="10.00">set</text>
</a>
</g>
</g>
<!-- Node2&#45;&gt;Node8 -->
<g id="edge7" class="edge">
<title>Node2&#45;&gt;Node8</title>
<path fill="none" stroke="midnightblue" d="M684.22,-62.22C614.46,-57.72 487.77,-46.74 371.99,-19.75"/>
<polygon fill="midnightblue" stroke="midnightblue" points="372.79,-16.35 362.25,-17.44 371.17,-23.16 372.79,-16.35"/>
</g>
<!-- Node9 -->
<g id="node9" class="node">
<title>Node9</title>
<g id="a_node9"><a xlink:title=" ">
<polygon fill="white" stroke="#bfbfbf" points="380.5,-0.5 380.5,-19.5 427.5,-19.5 427.5,-0.5 380.5,-0.5"/>
<text text-anchor="middle" x="404" y="-7.5" font-family="Helvetica,sans-Serif" font-size="10.00">cmath</text>
</a>
</g>
</g>
<!-- Node2&#45;&gt;Node9 -->
<g id="edge8" class="edge">
<title>Node2&#45;&gt;Node9</title>
<path fill="none" stroke="midnightblue" d="M684.37,-59C626.32,-51.97 530.01,-39.05 437.78,-19.94"/>
<polygon fill="midnightblue" stroke="midnightblue" points="438.22,-16.45 427.71,-17.82 436.78,-23.31 438.22,-16.45"/>
</g>
<!-- Node10 -->
<g id="node10" class="node">
<title>Node10</title>
<g id="a_node10"><a xlink:title=" ">
<polygon fill="white" stroke="#bfbfbf" points="446,-0.5 446,-19.5 500,-19.5 500,-0.5 446,-0.5"/>
<text text-anchor="middle" x="473" y="-7.5" font-family="Helvetica,sans-Serif" font-size="10.00">random</text>
</a>
</g>
</g>
<!-- Node2&#45;&gt;Node10 -->
<g id="edge9" class="edge">
<title>Node2&#45;&gt;Node10</title>
<path fill="none" stroke="midnightblue" d="M690.13,-56.46C646.1,-48.28 578.15,-35.24 510.13,-20.17"/>
<polygon fill="midnightblue" stroke="midnightblue" points="510.61,-16.69 500.09,-17.93 509.09,-23.52 510.61,-16.69"/>
</g>
<!-- Node11 -->
<g id="node11" class="node">
<title>Node11</title>
<g id="a_node11"><a xlink:title=" ">
<polygon fill="white" stroke="#bfbfbf" points="518,-0.5 518,-19.5 568,-19.5 568,-0.5 518,-0.5"/>
<text text-anchor="middle" x="543" y="-7.5" font-family="Helvetica,sans-Serif" font-size="10.00">chrono</text>
</a>
</g>
</g>
<!-- Node2&#45;&gt;Node11 -->
<g id="edge10" class="edge">
<title>Node2&#45;&gt;Node11</title>
<path fill="none" stroke="midnightblue" d="M706.26,-56.44C671.3,-46.71 614.34,-30.86 577.78,-20.68"/>
<polygon fill="midnightblue" stroke="midnightblue" points="578.62,-17.28 568.04,-17.97 576.74,-24.02 578.62,-17.28"/>
</g>
<!-- Node12 -->
<g id="node12" class="node">
<title>Node12</title>
<g id="a_node12"><a xlink:title=" ">
<polygon fill="white" stroke="#bfbfbf" points="586,-0.5 586,-19.5 650,-19.5 650,-0.5 586,-0.5"/>
<text text-anchor="middle" x="618" y="-7.5" font-family="Helvetica,sans-Serif" font-size="10.00">algorithm</text>
</a>
</g>
</g>
<!-- Node2&#45;&gt;Node12 -->
<g id="edge11" class="edge">
<title>Node2&#45;&gt;Node12</title>
<path fill="none" stroke="midnightblue" d="M718.14,-56.44C698.73,-47.64 668.27,-33.81 646.04,-23.72"/>
<polygon fill="midnightblue" stroke="midnightblue" points="647.32,-20.46 636.77,-19.52 644.43,-26.84 647.32,-20.46"/>
</g>
<!-- Node13 -->
<g id="node13" class="node">
<title>Node13</title>
<g id="a_node13"><a xlink:title=" ">
<polygon fill="white" stroke="#bfbfbf" points="668,-0.5 668,-19.5 726,-19.5 726,-0.5 668,-0.5"/>
<text text-anchor="middle" x="697" y="-7.5" font-family="Helvetica,sans-Serif" font-size="10.00">memory</text>
</a>
</g>
</g>
<!-- Node2&#45;&gt;Node13 -->
<g id="edge12" class="edge">
<title>Node2&#45;&gt;Node13</title>
<path fill="none" stroke="midnightblue" d="M730.39,-56.08C724.74,-48.46 716.46,-37.26 709.55,-27.94"/>
<polygon fill="midnightblue" stroke="midnightblue" points="712.25,-25.7 703.48,-19.75 706.62,-29.87 712.25,-25.7"/>
</g>
<!-- Node14 -->
<g id="node14" class="node">
<title>Node14</title>
<g id="a_node14"><a xlink:title=" ">
<polygon fill="white" stroke="#bfbfbf" points="744.5,-0.5 744.5,-19.5 809.5,-19.5 809.5,-0.5 744.5,-0.5"/>
<text text-anchor="middle" x="777" y="-7.5" font-family="Helvetica,sans-Serif" font-size="10.00">exception</text>
</a>
</g>
</g>
<!-- Node2&#45;&gt;Node14 -->
<g id="edge13" class="edge">
<title>Node2&#45;&gt;Node14</title>
<path fill="none" stroke="midnightblue" d="M743.61,-56.08C749.26,-48.46 757.54,-37.26 764.45,-27.94"/>
<polygon fill="midnightblue" stroke="midnightblue" points="767.38,-29.87 770.52,-19.75 761.75,-25.7 767.38,-29.87"/>
</g>
<!-- Node15 -->
<g id="node15" class="node">
<title>Node15</title>
<g id="a_node15"><a xlink:title=" ">
<polygon fill="white" stroke="#bfbfbf" points="828,-0.5 828,-19.5 884,-19.5 884,-0.5 828,-0.5"/>
<text text-anchor="middle" x="856" y="-7.5" font-family="Helvetica,sans-Serif" font-size="10.00">numeric</text>
</a>
</g>
</g>
<!-- Node2&#45;&gt;Node15 -->
<g id="edge14" class="edge">
<title>Node2&#45;&gt;Node15</title>
<path fill="none" stroke="midnightblue" d="M755.86,-56.44C775.27,-47.64 805.73,-33.81 827.96,-23.72"/>
<polygon fill="midnightblue" stroke="midnightblue" points="829.57,-26.84 837.23,-19.52 826.68,-20.46 829.57,-26.84"/>
</g>
<!-- Node16 -->
<g id="node16" class="node">
<title>Node16</title>
<g id="a_node16"><a xlink:title=" ">
<polygon fill="white" stroke="#bfbfbf" points="902.5,-0.5 902.5,-19.5 955.5,-19.5 955.5,-0.5 902.5,-0.5"/>
<text text-anchor="middle" x="929" y="-7.5" font-family="Helvetica,sans-Serif" font-size="10.00">iterator</text>
</a>
</g>
</g>
<!-- Node2&#45;&gt;Node16 -->
<g id="edge15" class="edge">
<title>Node2&#45;&gt;Node16</title>
<path fill="none" stroke="midnightblue" d="M767.42,-56.44C801.44,-46.87 856.51,-31.39 892.74,-21.2"/>
<polygon fill="midnightblue" stroke="midnightblue" points="893.75,-24.55 902.43,-18.47 891.86,-17.81 893.75,-24.55"/>
</g>
<!-- Node17 -->
<g id="node17" class="node">
<title>Node17</title>
<g id="a_node17"><a xlink:title=" ">
<polygon fill="white" stroke="#bfbfbf" points="973.5,-0.5 973.5,-19.5 1018.5,-19.5 1018.5,-0.5 973.5,-0.5"/>
<text text-anchor="middle" x="996" y="-7.5" font-family="Helvetica,sans-Serif" font-size="10.00">utility</text>
</a>
</g>
</g>
<!-- Node2&#45;&gt;Node17 -->
<g id="edge16" class="edge">
<title>Node2&#45;&gt;Node17</title>
<path fill="none" stroke="midnightblue" d="M786.64,-56.5C830.84,-48.64 897.44,-36.08 963.62,-20.19"/>
<polygon fill="midnightblue" stroke="midnightblue" points="964.48,-23.58 973.37,-17.82 962.83,-16.78 964.48,-23.58"/>
</g>
<!-- Node18 -->
<g id="node18" class="node">
<title>Node18</title>
<g id="a_node18"><a xlink:title=" ">
<polygon fill="white" stroke="#bfbfbf" points="1036.5,-0.5 1036.5,-19.5 1077.5,-19.5 1077.5,-0.5 1036.5,-0.5"/>
<text text-anchor="middle" x="1057" y="-7.5" font-family="Helvetica,sans-Serif" font-size="10.00">tuple</text>
</a>
</g>
</g>
<!-- Node2&#45;&gt;Node18 -->
<g id="edge17" class="edge">
<title>Node2&#45;&gt;Node18</title>
<path fill="none" stroke="midnightblue" d="M789.75,-59.22C846.27,-52.49 938.71,-39.97 1026.36,-20.12"/>
<polygon fill="midnightblue" stroke="midnightblue" points="1027.23,-23.51 1036.19,-17.86 1025.66,-16.69 1027.23,-23.51"/>
</g>
<!-- Node19 -->
<g id="node19" class="node">
<title>Node19</title>
<g id="a_node19"><a xlink:title=" ">
<polygon fill="white" stroke="#bfbfbf" points="1095.5,-0.5 1095.5,-19.5 1164.5,-19.5 1164.5,-0.5 1095.5,-0.5"/>
<text text-anchor="middle" x="1130" y="-7.5" font-family="Helvetica,sans-Serif" font-size="10.00">type_traits</text>
</a>
</g>
</g>
<!-- Node2&#45;&gt;Node19 -->
<g id="edge18" class="edge">
<title>Node2&#45;&gt;Node19</title>
<path fill="none" stroke="midnightblue" d="M789.67,-59.53C856.31,-52.32 974.83,-38.54 1085.33,-20.18"/>
<polygon fill="midnightblue" stroke="midnightblue" points="1086.03,-23.61 1095.31,-18.5 1084.87,-16.71 1086.03,-23.61"/>
</g>
<!-- Node20 -->
<g id="node20" class="node">
<title>Node20</title>
<g id="a_node20"><a xlink:title=" ">
<polygon fill="white" stroke="#bfbfbf" points="1182.5,-0.5 1182.5,-19.5 1247.5,-19.5 1247.5,-0.5 1182.5,-0.5"/>
<text text-anchor="middle" x="1215" y="-7.5" font-family="Helvetica,sans-Serif" font-size="10.00">functional</text>
</a>
</g>
</g>
<!-- Node2&#45;&gt;Node20 -->
<g id="edge19" class="edge">
<title>Node2&#45;&gt;Node20</title>
<path fill="none" stroke="midnightblue" d="M789.72,-61.51C870.25,-55.76 1028.87,-42.75 1172.51,-20.09"/>
<polygon fill="midnightblue" stroke="midnightblue" points="1173.07,-23.54 1182.39,-18.51 1171.96,-16.63 1173.07,-23.54"/>
</g>
<!-- Node21 -->
<g id="node21" class="node">
<title>Node21</title>
<g id="a_node21"><a xlink:title=" ">
<polygon fill="white" stroke="#bfbfbf" points="1265.5,-0.5 1265.5,-19.5 1342.5,-19.5 1342.5,-0.5 1265.5,-0.5"/>
<text text-anchor="middle" x="1304" y="-7.5" font-family="Helvetica,sans-Serif" font-size="10.00">Eigen/Dense</text>
</a>
</g>
</g>
<!-- Node2&#45;&gt;Node21 -->
<g id="edge20" class="edge">
<title>Node2&#45;&gt;Node21</title>
<path fill="none" stroke="midnightblue" d="M789.6,-62.24C881.96,-57.01 1079.41,-44.07 1255.37,-20.1"/>
<polygon fill="midnightblue" stroke="midnightblue" points="1255.89,-23.56 1265.32,-18.73 1254.94,-16.63 1255.89,-23.56"/>
</g>
<!-- Node22 -->
<g id="node22" class="node">
<title>Node22</title>
<g id="a_node22"><a xlink:title=" ">
<polygon fill="white" stroke="#bfbfbf" points="1360.5,-0.5 1360.5,-19.5 1451.5,-19.5 1451.5,-0.5 1360.5,-0.5"/>
<text text-anchor="middle" x="1406" y="-7.5" font-family="Helvetica,sans-Serif" font-size="10.00">Eigen/Cholesky</text>
</a>
</g>
</g>
<!-- Node2&#45;&gt;Node22 -->
<g id="edge21" class="edge">
<title>Node2&#45;&gt;Node22</title>
<path fill="none" stroke="midnightblue" d="M789.81,-62.78C894.72,-58.01 1136.99,-45.21 1350.25,-20.11"/>
<polygon fill="midnightblue" stroke="midnightblue" points="1350.86,-23.56 1360.38,-18.91 1350.03,-16.61 1350.86,-23.56"/>
</g>
<!-- Node23 -->
<g id="node23" class="node">
<title>Node23</title>
<g id="a_node23"><a xlink:title=" ">
<polygon fill="white" stroke="#bfbfbf" points="1470,-0.5 1470,-19.5 1550,-19.5 1550,-0.5 1470,-0.5"/>
<text text-anchor="middle" x="1510" y="-7.5" font-family="Helvetica,sans-Serif" font-size="10.00">Eigen/Sparse</text>
</a>
</g>
</g>
<!-- Node2&#45;&gt;Node23 -->
<g id="edge22" class="edge">
<title>Node2&#45;&gt;Node23</title>
<path fill="none" stroke="midnightblue" d="M789.89,-63.88C908.15,-60.9 1203.08,-50.89 1459.69,-20.01"/>
<polygon fill="midnightblue" stroke="midnightblue" points="1460.44,-23.44 1469.95,-18.76 1459.6,-16.49 1460.44,-23.44"/>
</g>
<!-- Node24 -->
<g id="node24" class="node">
<title>Node24</title>
<g id="a_node24"><a xlink:title=" ">
<polygon fill="white" stroke="#bfbfbf" points="1568.5,-0.5 1568.5,-19.5 1615.5,-19.5 1615.5,-0.5 1568.5,-0.5"/>
<text text-anchor="middle" x="1592" y="-7.5" font-family="Helvetica,sans-Serif" font-size="10.00">omp.h</text>
</a>
</g>
</g>
<!-- Node2&#45;&gt;Node24 -->
<g id="edge23" class="edge">
<title>Node2&#45;&gt;Node24</title>
<path fill="none" stroke="midnightblue" d="M789.63,-63.57C943.39,-59.19 1391.02,-44.74 1558.21,-19.68"/>
<polygon fill="midnightblue" stroke="midnightblue" points="1559,-23.1 1568.34,-18.1 1557.92,-16.19 1559,-23.1"/>
</g>
<!-- Node26 -->
<g id="node26" class="node">
<title>Node26</title>
<g id="a_node26"><a xlink:href="Groups_8h.html" target="_top" xlink:title=" ">
<polygon fill="white" stroke="black" points="515,-112.5 515,-131.5 575,-131.5 575,-112.5 515,-112.5"/>
<text text-anchor="middle" x="545" y="-119.5" font-family="Helvetica,sans-Serif" font-size="10.00">Groups.h</text>
</a>
</g>
</g>
<!-- Node25&#45;&gt;Node26 -->
<g id="edge25" class="edge">
<title>Node25&#45;&gt;Node26</title>
<path fill="none" stroke="midnightblue" d="M666.07,-228.78C613.07,-223.14 534.45,-211.07 516,-188 504.26,-173.32 516.71,-153.13 528.75,-139.17"/>
<polygon fill="midnightblue" stroke="midnightblue" points="531.39,-141.47 535.61,-131.75 526.25,-136.72 531.39,-141.47"/>
</g>
<!-- Node28 -->
<g id="node28" class="node">
<title>Node28</title>
<g id="a_node28"><a xlink:href="BlockGraph_8h.html" target="_top" xlink:title=" ">
<polygon fill="white" stroke="black" points="525,-168.5 525,-187.5 607,-187.5 607,-168.5 525,-168.5"/>
<text text-anchor="middle" x="566" y="-175.5" font-family="Helvetica,sans-Serif" font-size="10.00">BlockGraph.h</text>
</a>
</g>
</g>
<!-- Node25&#45;&gt;Node28 -->
<g id="edge28" class="edge">
<title>Node25&#45;&gt;Node28</title>
<path fill="none" stroke="midnightblue" d="M692.23,-224.44C667.11,-215.4 627.29,-201.06 599.1,-190.92"/>
<polygon fill="midnightblue" stroke="midnightblue" points="600.25,-187.61 589.66,-187.52 597.88,-194.2 600.25,-187.61"/>
</g>
<!-- Node29 -->
<g id="node29" class="node">
<title>Node29</title>
<g id="a_node29"><a xlink:href="GraphType_8h.html" target="_top" xlink:title=" ">
<polygon fill="white" stroke="black" points="631.5,-112.5 631.5,-131.5 708.5,-131.5 708.5,-112.5 631.5,-112.5"/>
<text text-anchor="middle" x="670" y="-119.5" font-family="Helvetica,sans-Serif" font-size="10.00">GraphType.h</text>
</a>
</g>
</g>
<!-- Node25&#45;&gt;Node29 -->
<g id="edge31" class="edge">
<title>Node25&#45;&gt;Node29</title>
<path fill="none" stroke="midnightblue" d="M695.78,-224.49C681.23,-217.17 662.7,-205.06 654,-188 646.35,-173 652.48,-154.17 659.25,-140.64"/>
<polygon fill="midnightblue" stroke="midnightblue" points="662.33,-142.3 664.09,-131.86 656.2,-138.92 662.33,-142.3"/>
</g>
<!-- Node30 -->
<g id="node30" class="node">
<title>Node30</title>
<g id="a_node30"><a xlink:href="BlockGraphCRTP_8h.html" target="_top" xlink:title=" ">
<polygon fill="white" stroke="black" points="663.5,-168.5 663.5,-187.5 768.5,-187.5 768.5,-168.5 663.5,-168.5"/>
<text text-anchor="middle" x="716" y="-175.5" font-family="Helvetica,sans-Serif" font-size="10.00">BlockGraphCRTP.h</text>
</a>
</g>
</g>
<!-- Node25&#45;&gt;Node30 -->
<g id="edge33" class="edge">
<title>Node25&#45;&gt;Node30</title>
<path fill="none" stroke="midnightblue" d="M710.83,-224.08C709.32,-216.93 708.89,-206.64 709.54,-197.69"/>
<polygon fill="midnightblue" stroke="midnightblue" points="713.02,-198.13 710.87,-187.75 706.08,-197.2 713.02,-198.13"/>
</g>
<!-- Node26&#45;&gt;Node2 -->
<g id="edge27" class="edge">
<title>Node26&#45;&gt;Node2</title>
<path fill="none" stroke="midnightblue" d="M575.42,-112.44C608.28,-103.2 660.78,-88.44 696.97,-78.26"/>
<polygon fill="midnightblue" stroke="midnightblue" points="698.04,-81.59 706.72,-75.52 696.15,-74.85 698.04,-81.59"/>
</g>
<!-- Node27 -->
<g id="node27" class="node">
<title>Node27</title>
<g id="a_node27"><a xlink:title=" ">
<polygon fill="white" stroke="#bfbfbf" points="520,-56.5 520,-75.5 570,-75.5 570,-56.5 520,-56.5"/>
<text text-anchor="middle" x="545" y="-63.5" font-family="Helvetica,sans-Serif" font-size="10.00">Rcpp.h</text>
</a>
</g>
</g>
<!-- Node26&#45;&gt;Node27 -->
<g id="edge26" class="edge">
<title>Node26&#45;&gt;Node27</title>
<path fill="none" stroke="midnightblue" d="M545,-112.08C545,-105.01 545,-94.86 545,-85.99"/>
<polygon fill="midnightblue" stroke="midnightblue" points="548.5,-85.75 545,-75.75 541.5,-85.75 548.5,-85.75"/>
</g>
<!-- Node28&#45;&gt;Node2 -->
<g id="edge29" class="edge">
<title>Node28&#45;&gt;Node2</title>
<path fill="none" stroke="midnightblue" d="M571.49,-168.23C580.49,-154.49 599.64,-127.84 622,-112 643.49,-96.78 670.83,-85.8 693.46,-78.51"/>
<polygon fill="midnightblue" stroke="midnightblue" points="694.64,-81.8 703.16,-75.51 692.58,-75.12 694.64,-81.8"/>
</g>
<!-- Node28&#45;&gt;Node26 -->
<g id="edge30" class="edge">
<title>Node28&#45;&gt;Node26</title>
<path fill="none" stroke="midnightblue" d="M562.53,-168.08C559.69,-160.77 555.57,-150.18 552.04,-141.1"/>
<polygon fill="midnightblue" stroke="midnightblue" points="555.29,-139.8 548.4,-131.75 548.77,-142.34 555.29,-139.8"/>
</g>
<!-- Node29&#45;&gt;Node2 -->
<g id="edge32" class="edge">
<title>Node29&#45;&gt;Node2</title>
<path fill="none" stroke="midnightblue" d="M680.76,-112.32C690.77,-104.26 705.89,-92.08 717.93,-82.37"/>
<polygon fill="midnightblue" stroke="midnightblue" points="720.45,-84.83 726.04,-75.83 716.06,-79.38 720.45,-84.83"/>
</g>
<!-- Node30&#45;&gt;Node2 -->
<g id="edge34" class="edge">
<title>Node30&#45;&gt;Node2</title>
<path fill="none" stroke="midnightblue" d="M717.65,-168.37C721.04,-150.62 728.85,-109.67 733.45,-85.6"/>
<polygon fill="midnightblue" stroke="midnightblue" points="736.92,-86.07 735.36,-75.59 730.05,-84.76 736.92,-86.07"/>
</g>
<!-- Node30&#45;&gt;Node25 -->
<g id="edge35" class="edge">
<title>Node30&#45;&gt;Node25</title>
<path fill="none" stroke="midnightblue" d="M721.13,-187.75C722.66,-194.86 723.1,-205.14 722.47,-214.1"/>
<polygon fill="midnightblue" stroke="midnightblue" points="718.99,-213.71 721.17,-224.08 725.93,-214.62 718.99,-213.71"/>
</g>
<!-- Node31&#45;&gt;Node2 -->
<g id="edge37" class="edge">
<title>Node31&#45;&gt;Node2</title>
<path fill="none" stroke="midnightblue" d="M830.2,-280.3C815.83,-247.42 764.7,-130.39 744.9,-85.09"/>
<polygon fill="midnightblue" stroke="midnightblue" points="748.09,-83.65 740.88,-75.88 741.68,-86.45 748.09,-83.65"/>
</g>
<!-- Node31&#45;&gt;Node25 -->
<g id="edge38" class="edge">
<title>Node31&#45;&gt;Node25</title>
<path fill="none" stroke="midnightblue" d="M815.3,-280.44C796.06,-271.64 765.85,-257.81 743.8,-247.72"/>
<polygon fill="midnightblue" stroke="midnightblue" points="745.16,-244.5 734.61,-243.52 742.25,-250.86 745.16,-244.5"/>
</g>
<!-- Node32 -->
<g id="node32" class="node">
<title>Node32</title>
<g id="a_node32"><a xlink:href="GSLwrappers_8h.html" target="_top" xlink:title=" ">
<polygon fill="white" stroke="black" points="962.5,-224.5 962.5,-243.5 1051.5,-243.5 1051.5,-224.5 962.5,-224.5"/>
<text text-anchor="middle" x="1007" y="-231.5" font-family="Helvetica,sans-Serif" font-size="10.00">GSLwrappers.h</text>
</a>
</g>
</g>
<!-- Node31&#45;&gt;Node32 -->
<g id="edge39" class="edge">
<title>Node31&#45;&gt;Node32</title>
<path fill="none" stroke="midnightblue" d="M857.69,-281.6C886.67,-272.56 936.04,-257.15 970.02,-246.54"/>
<polygon fill="midnightblue" stroke="midnightblue" points="971.1,-249.87 979.61,-243.55 969.02,-243.19 971.1,-249.87"/>
</g>
<!-- Node38 -->
<g id="node38" class="node">
<title>Node38</title>
<g id="a_node38"><a xlink:title=" ">
<polygon fill="white" stroke="#bfbfbf" points="825,-224.5 825,-243.5 917,-243.5 917,-224.5 825,-224.5"/>
<text text-anchor="middle" x="871" y="-231.5" font-family="Helvetica,sans-Serif" font-size="10.00">gsl/gsl_sf_log.h</text>
</a>
</g>
</g>
<!-- Node31&#45;&gt;Node38 -->
<g id="edge46" class="edge">
<title>Node31&#45;&gt;Node38</title>
<path fill="none" stroke="midnightblue" d="M840.11,-280.08C845.28,-272.53 852.85,-261.49 859.19,-252.23"/>
<polygon fill="midnightblue" stroke="midnightblue" points="862.24,-253.98 865,-243.75 856.46,-250.02 862.24,-253.98"/>
</g>
<!-- Node32&#45;&gt;Node2 -->
<g id="edge40" class="edge">
<title>Node32&#45;&gt;Node2</title>
<path fill="none" stroke="midnightblue" d="M962.36,-228.88C929.42,-223.85 885.12,-212.7 854,-188 823.6,-163.87 838.01,-139.87 811,-112 798.21,-98.8 780.77,-87.95 766.02,-80.21"/>
<polygon fill="midnightblue" stroke="midnightblue" points="767.31,-76.94 756.81,-75.58 764.17,-83.2 767.31,-76.94"/>
</g>
<!-- Node33 -->
<g id="node33" class="node">
<title>Node33</title>
<g id="a_node33"><a xlink:title=" ">
<polygon fill="white" stroke="#bfbfbf" points="863,-168.5 863,-187.5 941,-187.5 941,-168.5 863,-168.5"/>
<text text-anchor="middle" x="902" y="-175.5" font-family="Helvetica,sans-Serif" font-size="10.00">gsl/gsl_rng.h</text>
</a>
</g>
</g>
<!-- Node32&#45;&gt;Node33 -->
<g id="edge41" class="edge">
<title>Node32&#45;&gt;Node33</title>
<path fill="none" stroke="midnightblue" d="M990.13,-224.32C973.29,-215.66 947.19,-202.24 927.76,-192.25"/>
<polygon fill="midnightblue" stroke="midnightblue" points="929.32,-189.12 918.83,-187.65 926.12,-195.34 929.32,-189.12"/>
</g>
<!-- Node34 -->
<g id="node34" class="node">
<title>Node34</title>
<g id="a_node34"><a xlink:title=" ">
<polygon fill="white" stroke="#bfbfbf" points="959,-168.5 959,-187.5 1055,-187.5 1055,-168.5 959,-168.5"/>
<text text-anchor="middle" x="1007" y="-175.5" font-family="Helvetica,sans-Serif" font-size="10.00">gsl/gsl_randist.h</text>
</a>
</g>
</g>
<!-- Node32&#45;&gt;Node34 -->
<g id="edge42" class="edge">
<title>Node32&#45;&gt;Node34</title>
<path fill="none" stroke="midnightblue" d="M1007,-224.08C1007,-217.01 1007,-206.86 1007,-197.99"/>
<polygon fill="midnightblue" stroke="midnightblue" points="1010.5,-197.75 1007,-187.75 1003.5,-197.75 1010.5,-197.75"/>
</g>
<!-- Node35 -->
<g id="node35" class="node">
<title>Node35</title>
<g id="a_node35"><a xlink:title=" ">
<polygon fill="white" stroke="#bfbfbf" points="1073.5,-168.5 1073.5,-187.5 1150.5,-187.5 1150.5,-168.5 1073.5,-168.5"/>
<text text-anchor="middle" x="1112" y="-175.5" font-family="Helvetica,sans-Serif" font-size="10.00">gsl/gsl_cdf.h</text>
</a>
</g>
</g>
<!-- Node32&#45;&gt;Node35 -->
<g id="edge43" class="edge">
<title>Node32&#45;&gt;Node35</title>
<path fill="none" stroke="midnightblue" d="M1023.87,-224.32C1040.71,-215.66 1066.81,-202.24 1086.24,-192.25"/>
<polygon fill="midnightblue" stroke="midnightblue" points="1087.88,-195.34 1095.17,-187.65 1084.68,-189.12 1087.88,-195.34"/>
</g>
<!-- Node36 -->
<g id="node36" class="node">
<title>Node36</title>
<g id="a_node36"><a xlink:title=" ">
<polygon fill="white" stroke="#bfbfbf" points="1169,-168.5 1169,-187.5 1267,-187.5 1267,-168.5 1169,-168.5"/>
<text text-anchor="middle" x="1218" y="-175.5" font-family="Helvetica,sans-Serif" font-size="10.00">gsl/gsl_bspline.h</text>
</a>
</g>
</g>
<!-- Node32&#45;&gt;Node36 -->
<g id="edge44" class="edge">
<title>Node32&#45;&gt;Node36</title>
<path fill="none" stroke="midnightblue" d="M1040.43,-224.44C1076.86,-215.12 1135.23,-200.18 1175.03,-190"/>
<polygon fill="midnightblue" stroke="midnightblue" points="1175.9,-193.39 1184.72,-187.52 1174.17,-186.61 1175.9,-193.39"/>
</g>
<!-- Node37 -->
<g id="node37" class="node">
<title>Node37</title>
<g id="a_node37"><a xlink:title=" ">
<polygon fill="white" stroke="#bfbfbf" points="1285.5,-168.5 1285.5,-187.5 1374.5,-187.5 1374.5,-168.5 1285.5,-168.5"/>
<text text-anchor="middle" x="1330" y="-175.5" font-family="Helvetica,sans-Serif" font-size="10.00">gsl/gsl_linalg.h</text>
</a>
</g>
</g>
<!-- Node32&#45;&gt;Node37 -->
<g id="edge45" class="edge">
<title>Node32&#45;&gt;Node37</title>
<path fill="none" stroke="midnightblue" d="M1051.57,-225.55C1109.93,-215.79 1212.2,-198.69 1275.22,-188.16"/>
<polygon fill="midnightblue" stroke="midnightblue" points="1276.08,-191.56 1285.37,-186.46 1274.93,-184.66 1276.08,-191.56"/>
</g>
</g>
</svg>
        <g id="navigator" transform="translate(0 0)" fill="#404254">
                <rect fill="#f2f5e9" fill-opacity="0.5" stroke="#606060" stroke-width=".5" x="0" y="0" width="60" height="60"/>
                <use id="zoomplus" xlink:href="#zoomPlus" x="17" y="9" onmousedown="handleZoom(evt,'in')"/>
                <use id="zoomminus" xlink:href="#zoomMin" x="42" y="9" onmousedown="handleZoom(evt,'out')"/>
                <use id="reset" xlink:href="#resetDef" x="30" y="36" onmousedown="handleReset()"/>
                <g id="arrowUp" xlink:href="#dirArrow" transform="translate(30 24)" onmousedown="handlePan(0,-1)">
                  <use xlink:href="#rim" fill="#404040">
                        <set attributeName="fill" to="#808080" begin="arrowUp.mouseover" end="arrowUp.mouseout"/>
                  </use>
                  <path fill="none" stroke="white" stroke-width="1.5" d="M0,-3.0v7 M-2.5,-0.5L0,-3.0L2.5,-0.5"/>
                </g>
                <g id="arrowRight" xlink:href="#dirArrow" transform="rotate(90) translate(36 -43)" onmousedown="handlePan(1,0)">
                  <use xlink:href="#rim" fill="#404040">
                        <set attributeName="fill" to="#808080" begin="arrowRight.mouseover" end="arrowRight.mouseout"/>
                  </use>
                  <path fill="none" stroke="white" stroke-width="1.5" d="M0,-3.0v7 M-2.5,-0.5L0,-3.0L2.5,-0.5"/>
                </g>
                <g id="arrowDown" xlink:href="#dirArrow" transform="rotate(180) translate(-30 -48)" onmousedown="handlePan(0,1)">
                  <use xlink:href="#rim" fill="#404040">
                        <set attributeName="fill" to="#808080" begin="arrowDown.mouseover" end="arrowDown.mouseout"/>
                  </use>
                  <path fill="none" stroke="white" stroke-width="1.5" d="M0,-3.0v7 M-2.5,-0.5L0,-3.0L2.5,-0.5"/>
                </g>
                <g id="arrowLeft" xlink:href="#dirArrow" transform="rotate(270) translate(-36 17)" onmousedown="handlePan(-1,0)">
                  <use xlink:href="#rim" fill="#404040">
                        <set attributeName="fill" to="#808080" begin="arrowLeft.mouseover" end="arrowLeft.mouseout"/>
                  </use>
                  <path fill="none" stroke="white" stroke-width="1.5" d="M0,-3.0v7 M-2.5,-0.5L0,-3.0L2.5,-0.5"/>
                </g>
        </g>
        <svg viewBox="0 0 15 15" width="100%" height="30px" preserveAspectRatio="xMaxYMin meet">
         <g id="arrow_out" transform="scale(0.3 0.3)">
          <a xlink:href="Precision_8h__incl_org.svg" target="_base">
           <rect id="button" ry="5" rx="5" y="6" x="6" height="38" width="38"
                fill="#f2f5e9" fill-opacity="0.5" stroke="#606060" stroke-width="1.0"/>
           <path id="arrow"
             d="M 11.500037,31.436501 C 11.940474,20.09759 22.043105,11.32322 32.158766,21.979434 L 37.068811,17.246167 C 37.068811,17.246167 37.088388,32 37.088388,32 L 22.160133,31.978069 C 22.160133,31.978069 26.997745,27.140456 26.997745,27.140456 C 18.528582,18.264221 13.291696,25.230495 11.500037,31.436501 z"
             style="fill:#404040;"/>
          </a>
         </g>
        </svg>
</svg>
