<?xml version="1.0" encoding="UTF-8" standalone="no"?>
<!DOCTYPE svg PUBLIC "-//W3C//DTD SVG 1.1//EN"
 "http://www.w3.org/Graphics/SVG/1.1/DTD/svg11.dtd">
<!-- Generated by graphviz version 2.43.0 (0)
 -->
<!-- Title: ProgressBar.h Pages: 1 -->
<svg width="609pt" height="196pt"
 viewBox="0.00 0.00 608.50 196.00" xmlns="http://www.w3.org/2000/svg" xmlns:xlink="http://www.w3.org/1999/xlink">
<g id="graph0" class="graph" transform="scale(1 1) rotate(0) translate(4 192)">
<title>ProgressBar.h</title>
<polygon fill="white" stroke="transparent" points="-4,4 -4,-192 604.5,-192 604.5,4 -4,4"/>
<!-- Node1 -->
<g id="node1" class="node">
<title>Node1</title>
<g id="a_node1"><a xlink:title=" ">
<polygon fill="#bfbfbf" stroke="black" points="341.5,-168.5 341.5,-187.5 424.5,-187.5 424.5,-168.5 341.5,-168.5"/>
<text text-anchor="middle" x="383" y="-175.5" font-family="Helvetica,sans-Serif" font-size="10.00">ProgressBar.h</text>
</a>
</g>
</g>
<!-- Node2 -->
<g id="node2" class="node">
<title>Node2</title>
<g id="a_node2"><a xlink:href="SamplerOptions_8h.html" target="_top" xlink:title=" ">
<polygon fill="white" stroke="black" points="265,-112.5 265,-131.5 369,-131.5 369,-112.5 265,-112.5"/>
<text text-anchor="middle" x="317" y="-119.5" font-family="Helvetica,sans-Serif" font-size="10.00">SamplerOptions.h</text>
</a>
</g>
</g>
<!-- Node1&#45;&gt;Node2 -->
<g id="edge1" class="edge">
<title>Node1&#45;&gt;Node2</title>
<path fill="none" stroke="midnightblue" d="M364.45,-161.82C352.62,-152.15 337.71,-139.95 327.8,-131.83"/>
<polygon fill="midnightblue" stroke="midnightblue" points="362.44,-164.7 372.4,-168.32 366.87,-159.28 362.44,-164.7"/>
</g>
<!-- Node8 -->
<g id="node8" class="node">
<title>Node8</title>
<g id="a_node8"><a xlink:href="FLMSamplerOptions_8h.html" target="_top" xlink:title=" ">
<polygon fill="white" stroke="black" points="387,-112.5 387,-131.5 511,-131.5 511,-112.5 387,-112.5"/>
<text text-anchor="middle" x="449" y="-119.5" font-family="Helvetica,sans-Serif" font-size="10.00">FLMSamplerOptions.h</text>
</a>
</g>
</g>
<!-- Node1&#45;&gt;Node8 -->
<g id="edge10" class="edge">
<title>Node1&#45;&gt;Node8</title>
<path fill="none" stroke="midnightblue" d="M401.55,-161.82C413.38,-152.15 428.29,-139.95 438.2,-131.83"/>
<polygon fill="midnightblue" stroke="midnightblue" points="399.13,-159.28 393.6,-168.32 403.56,-164.7 399.13,-159.28"/>
</g>
<!-- Node3 -->
<g id="node3" class="node">
<title>Node3</title>
<g id="a_node3"><a xlink:href="GibbsSamplerBase_8h.html" target="_top" xlink:title=" ">
<polygon fill="white" stroke="black" points="0,-56.5 0,-75.5 118,-75.5 118,-56.5 0,-56.5"/>
<text text-anchor="middle" x="59" y="-63.5" font-family="Helvetica,sans-Serif" font-size="10.00">GibbsSamplerBase.h</text>
</a>
</g>
</g>
<!-- Node2&#45;&gt;Node3 -->
<g id="edge2" class="edge">
<title>Node2&#45;&gt;Node3</title>
<path fill="none" stroke="midnightblue" d="M266.1,-110.35C217.34,-100.14 144.71,-84.94 99.69,-75.52"/>
<polygon fill="midnightblue" stroke="midnightblue" points="265.61,-113.82 276.12,-112.44 267.05,-106.97 265.61,-113.82"/>
</g>
<!-- Node5 -->
<g id="node5" class="node">
<title>Node5</title>
<g id="a_node5"><a xlink:href="PosteriorAnalysis_8h.html" target="_top" xlink:title=" ">
<polygon fill="white" stroke="black" points="387,-56.5 387,-75.5 497,-75.5 497,-56.5 387,-56.5"/>
<text text-anchor="middle" x="442" y="-63.5" font-family="Helvetica,sans-Serif" font-size="10.00">PosteriorAnalysis.h</text>
</a>
</g>
</g>
<!-- Node2&#45;&gt;Node5 -->
<g id="edge4" class="edge">
<title>Node2&#45;&gt;Node5</title>
<path fill="none" stroke="midnightblue" d="M346.24,-108.37C369.65,-98.26 401.84,-84.35 422.29,-75.52"/>
<polygon fill="midnightblue" stroke="midnightblue" points="344.6,-105.26 336.81,-112.44 347.37,-111.69 344.6,-105.26"/>
</g>
<!-- Node6 -->
<g id="node6" class="node">
<title>Node6</title>
<g id="a_node6"><a xlink:href="GibbsSamplerDebug_8h.html" target="_top" xlink:title=" ">
<polygon fill="white" stroke="black" points="136.5,-56.5 136.5,-75.5 261.5,-75.5 261.5,-56.5 136.5,-56.5"/>
<text text-anchor="middle" x="199" y="-63.5" font-family="Helvetica,sans-Serif" font-size="10.00">GibbsSamplerDebug.h</text>
</a>
</g>
</g>
<!-- Node2&#45;&gt;Node6 -->
<g id="edge6" class="edge">
<title>Node2&#45;&gt;Node6</title>
<path fill="none" stroke="midnightblue" d="M289.1,-108.23C267.03,-98.13 236.82,-84.31 217.61,-75.52"/>
<polygon fill="midnightblue" stroke="midnightblue" points="287.75,-111.46 298.3,-112.44 290.67,-105.1 287.75,-111.46"/>
</g>
<!-- Node7 -->
<g id="node7" class="node">
<title>Node7</title>
<g id="a_node7"><a xlink:href="GGMsampler_8h.html" target="_top" xlink:title=" ">
<polygon fill="white" stroke="black" points="279.5,-56.5 279.5,-75.5 368.5,-75.5 368.5,-56.5 279.5,-56.5"/>
<text text-anchor="middle" x="324" y="-63.5" font-family="Helvetica,sans-Serif" font-size="10.00">GGMsampler.h</text>
</a>
</g>
</g>
<!-- Node2&#45;&gt;Node7 -->
<g id="edge8" class="edge">
<title>Node2&#45;&gt;Node7</title>
<path fill="none" stroke="midnightblue" d="M319.45,-102.1C320.61,-93.14 321.94,-82.86 322.87,-75.75"/>
<polygon fill="midnightblue" stroke="midnightblue" points="315.97,-101.72 318.16,-112.08 322.91,-102.62 315.97,-101.72"/>
</g>
<!-- Node4 -->
<g id="node4" class="node">
<title>Node4</title>
<g id="a_node4"><a xlink:href="BGSL__export_8cpp.html" target="_top" xlink:title=" ">
<polygon fill="white" stroke="black" points="274.5,-0.5 274.5,-19.5 373.5,-19.5 373.5,-0.5 274.5,-0.5"/>
<text text-anchor="middle" x="324" y="-7.5" font-family="Helvetica,sans-Serif" font-size="10.00">BGSL_export.cpp</text>
</a>
</g>
</g>
<!-- Node3&#45;&gt;Node4 -->
<g id="edge3" class="edge">
<title>Node3&#45;&gt;Node4</title>
<path fill="none" stroke="midnightblue" d="M110.97,-54.41C161.05,-44.2 235.86,-28.96 282.21,-19.52"/>
<polygon fill="midnightblue" stroke="midnightblue" points="110.09,-51.02 100.99,-56.44 111.49,-57.88 110.09,-51.02"/>
</g>
<!-- Node5&#45;&gt;Node4 -->
<g id="edge5" class="edge">
<title>Node5&#45;&gt;Node4</title>
<path fill="none" stroke="midnightblue" d="M414.1,-52.23C392.03,-42.13 361.82,-28.31 342.61,-19.52"/>
<polygon fill="midnightblue" stroke="midnightblue" points="412.75,-55.46 423.3,-56.44 415.67,-49.1 412.75,-55.46"/>
</g>
<!-- Node6&#45;&gt;Node4 -->
<g id="edge7" class="edge">
<title>Node6&#45;&gt;Node4</title>
<path fill="none" stroke="midnightblue" d="M228.24,-52.37C251.65,-42.26 283.84,-28.35 304.29,-19.52"/>
<polygon fill="midnightblue" stroke="midnightblue" points="226.6,-49.26 218.81,-56.44 229.37,-55.69 226.6,-49.26"/>
</g>
<!-- Node7&#45;&gt;Node4 -->
<g id="edge9" class="edge">
<title>Node7&#45;&gt;Node4</title>
<path fill="none" stroke="midnightblue" d="M324,-45.8C324,-36.91 324,-26.78 324,-19.75"/>
<polygon fill="midnightblue" stroke="midnightblue" points="320.5,-46.08 324,-56.08 327.5,-46.08 320.5,-46.08"/>
</g>
<!-- Node8&#45;&gt;Node5 -->
<g id="edge11" class="edge">
<title>Node8&#45;&gt;Node5</title>
<path fill="none" stroke="midnightblue" d="M446.55,-102.1C445.39,-93.14 444.06,-82.86 443.13,-75.75"/>
<polygon fill="midnightblue" stroke="midnightblue" points="443.09,-102.62 447.84,-112.08 450.03,-101.72 443.09,-102.62"/>
</g>
<!-- Node9 -->
<g id="node9" class="node">
<title>Node9</title>
<g id="a_node9"><a xlink:href="FLMsampler_8h.html" target="_top" xlink:title=" ">
<polygon fill="white" stroke="black" points="515.5,-56.5 515.5,-75.5 600.5,-75.5 600.5,-56.5 515.5,-56.5"/>
<text text-anchor="middle" x="558" y="-63.5" font-family="Helvetica,sans-Serif" font-size="10.00">FLMsampler.h</text>
</a>
</g>
</g>
<!-- Node8&#45;&gt;Node9 -->
<g id="edge12" class="edge">
<title>Node8&#45;&gt;Node9</title>
<path fill="none" stroke="midnightblue" d="M475.52,-107.86C495.73,-97.85 522.99,-84.35 540.53,-75.65"/>
<polygon fill="midnightblue" stroke="midnightblue" points="473.92,-104.75 466.51,-112.32 477.03,-111.02 473.92,-104.75"/>
</g>
<!-- Node9&#45;&gt;Node4 -->
<g id="edge13" class="edge">
<title>Node9&#45;&gt;Node4</title>
<path fill="none" stroke="midnightblue" d="M511,-54.15C466.78,-43.95 401.48,-28.88 360.9,-19.52"/>
<polygon fill="midnightblue" stroke="midnightblue" points="510.39,-57.61 520.92,-56.44 511.97,-50.78 510.39,-57.61"/>
</g>
</g>
</svg>
