<?xml version="1.0" encoding="UTF-8" standalone="no"?>
<!DOCTYPE svg PUBLIC "-//W3C//DTD SVG 1.1//EN"
 "http://www.w3.org/Graphics/SVG/1.1/DTD/svg11.dtd">
<!-- Generated by graphviz version 2.43.0 (0)
 -->
<!-- Title: SamplerOptions.h Pages: 1 -->
<svg width="505pt" height="140pt"
 viewBox="0.00 0.00 504.50 140.00" xmlns="http://www.w3.org/2000/svg" xmlns:xlink="http://www.w3.org/1999/xlink">
<g id="graph0" class="graph" transform="scale(1 1) rotate(0) translate(4 136)">
<title>SamplerOptions.h</title>
<polygon fill="white" stroke="transparent" points="-4,4 -4,-136 500.5,-136 500.5,4 -4,4"/>
<!-- Node1 -->
<g id="node1" class="node">
<title>Node1</title>
<g id="a_node1"><a xlink:title=" ">
<polygon fill="#bfbfbf" stroke="black" points="207,-112.5 207,-131.5 311,-131.5 311,-112.5 207,-112.5"/>
<text text-anchor="middle" x="259" y="-119.5" font-family="Helvetica,sans-Serif" font-size="10.00">SamplerOptions.h</text>
</a>
</g>
</g>
<!-- Node2 -->
<g id="node2" class="node">
<title>Node2</title>
<g id="a_node2"><a xlink:href="GibbsSamplerBase_8h.html" target="_top" xlink:title=" ">
<polygon fill="white" stroke="black" points="0,-56.5 0,-75.5 118,-75.5 118,-56.5 0,-56.5"/>
<text text-anchor="middle" x="59" y="-63.5" font-family="Helvetica,sans-Serif" font-size="10.00">GibbsSamplerBase.h</text>
</a>
</g>
</g>
<!-- Node1&#45;&gt;Node2 -->
<g id="edge1" class="edge">
<title>Node1&#45;&gt;Node2</title>
<path fill="none" stroke="midnightblue" d="M217.63,-109.83C179.86,-99.63 124.86,-84.78 90.54,-75.52"/>
<polygon fill="midnightblue" stroke="midnightblue" points="216.74,-113.22 227.31,-112.44 218.57,-106.46 216.74,-113.22"/>
</g>
<!-- Node4 -->
<g id="node4" class="node">
<title>Node4</title>
<g id="a_node4"><a xlink:href="PosteriorAnalysis_8h.html" target="_top" xlink:title=" ">
<polygon fill="white" stroke="black" points="136,-56.5 136,-75.5 246,-75.5 246,-56.5 136,-56.5"/>
<text text-anchor="middle" x="191" y="-63.5" font-family="Helvetica,sans-Serif" font-size="10.00">PosteriorAnalysis.h</text>
</a>
</g>
</g>
<!-- Node1&#45;&gt;Node4 -->
<g id="edge3" class="edge">
<title>Node1&#45;&gt;Node4</title>
<path fill="none" stroke="midnightblue" d="M240.24,-106.1C228,-96.38 212.44,-84.03 202.12,-75.83"/>
<polygon fill="midnightblue" stroke="midnightblue" points="238.07,-108.85 248.07,-112.32 242.42,-103.36 238.07,-108.85"/>
</g>
<!-- Node5 -->
<g id="node5" class="node">
<title>Node5</title>
<g id="a_node5"><a xlink:href="GibbsSamplerDebug_8h.html" target="_top" xlink:title=" ">
<polygon fill="white" stroke="black" points="264.5,-56.5 264.5,-75.5 389.5,-75.5 389.5,-56.5 264.5,-56.5"/>
<text text-anchor="middle" x="327" y="-63.5" font-family="Helvetica,sans-Serif" font-size="10.00">GibbsSamplerDebug.h</text>
</a>
</g>
</g>
<!-- Node1&#45;&gt;Node5 -->
<g id="edge5" class="edge">
<title>Node1&#45;&gt;Node5</title>
<path fill="none" stroke="midnightblue" d="M277.76,-106.1C290,-96.38 305.56,-84.03 315.88,-75.83"/>
<polygon fill="midnightblue" stroke="midnightblue" points="275.58,-103.36 269.93,-112.32 279.93,-108.85 275.58,-103.36"/>
</g>
<!-- Node6 -->
<g id="node6" class="node">
<title>Node6</title>
<g id="a_node6"><a xlink:href="GGMsampler_8h.html" target="_top" xlink:title=" ">
<polygon fill="white" stroke="black" points="407.5,-56.5 407.5,-75.5 496.5,-75.5 496.5,-56.5 407.5,-56.5"/>
<text text-anchor="middle" x="452" y="-63.5" font-family="Helvetica,sans-Serif" font-size="10.00">GGMsampler.h</text>
</a>
</g>
</g>
<!-- Node1&#45;&gt;Node6 -->
<g id="edge7" class="edge">
<title>Node1&#45;&gt;Node6</title>
<path fill="none" stroke="midnightblue" d="M299.39,-109.7C335.82,-99.51 388.59,-84.74 421.56,-75.52"/>
<polygon fill="midnightblue" stroke="midnightblue" points="298.27,-106.38 289.58,-112.44 300.15,-113.12 298.27,-106.38"/>
</g>
<!-- Node3 -->
<g id="node3" class="node">
<title>Node3</title>
<g id="a_node3"><a xlink:href="BGSL__export_8cpp.html" target="_top" xlink:title=" ">
<polygon fill="white" stroke="black" points="209.5,-0.5 209.5,-19.5 308.5,-19.5 308.5,-0.5 209.5,-0.5"/>
<text text-anchor="middle" x="259" y="-7.5" font-family="Helvetica,sans-Serif" font-size="10.00">BGSL_export.cpp</text>
</a>
</g>
</g>
<!-- Node2&#45;&gt;Node3 -->
<g id="edge2" class="edge">
<title>Node2&#45;&gt;Node3</title>
<path fill="none" stroke="midnightblue" d="M100.37,-53.83C138.14,-43.63 193.14,-28.78 227.46,-19.52"/>
<polygon fill="midnightblue" stroke="midnightblue" points="99.43,-50.46 90.69,-56.44 101.26,-57.22 99.43,-50.46"/>
</g>
<!-- Node4&#45;&gt;Node3 -->
<g id="edge4" class="edge">
<title>Node4&#45;&gt;Node3</title>
<path fill="none" stroke="midnightblue" d="M209.76,-50.1C222,-40.38 237.56,-28.03 247.88,-19.83"/>
<polygon fill="midnightblue" stroke="midnightblue" points="207.58,-47.36 201.93,-56.32 211.93,-52.85 207.58,-47.36"/>
</g>
<!-- Node5&#45;&gt;Node3 -->
<g id="edge6" class="edge">
<title>Node5&#45;&gt;Node3</title>
<path fill="none" stroke="midnightblue" d="M308.24,-50.1C296,-40.38 280.44,-28.03 270.12,-19.83"/>
<polygon fill="midnightblue" stroke="midnightblue" points="306.07,-52.85 316.07,-56.32 310.42,-47.36 306.07,-52.85"/>
</g>
<!-- Node6&#45;&gt;Node3 -->
<g id="edge8" class="edge">
<title>Node6&#45;&gt;Node3</title>
<path fill="none" stroke="midnightblue" d="M411.61,-53.7C375.18,-43.51 322.41,-28.74 289.44,-19.52"/>
<polygon fill="midnightblue" stroke="midnightblue" points="410.85,-57.12 421.42,-56.44 412.73,-50.38 410.85,-57.12"/>
</g>
</g>
</svg>
