<?xml version="1.0" encoding="UTF-8" standalone="no"?>
<!DOCTYPE svg PUBLIC "-//W3C//DTD SVG 1.1//EN"
 "http://www.w3.org/Graphics/SVG/1.1/DTD/svg11.dtd">
<!-- Generated by graphviz version 2.43.0 (0)
 -->
<!-- Title: SamplerOptions.h Pages: 1 -->
<!--zoomable 700 -->
<svg id="main" version="1.1" xmlns="http://www.w3.org/2000/svg" xmlns:xlink="http://www.w3.org/1999/xlink" xml:space="preserve" onload="init(evt)">
<style type="text/css"><![CDATA[
.edge:hover path { stroke: red; }
.edge:hover polygon { stroke: red; fill: red; }
]]></style>
<script type="text/javascript"><![CDATA[
var edges = document.getElementsByTagName('g');
if (edges && edges.length) {
  for (var i=0;i<edges.length;i++) {
    if (edges[i].id.substr(0,4)=='edge') {
      edges[i].setAttribute('class','edge');
    }
  }
}
]]></script>
        <defs>
                <circle id="rim" cx="0" cy="0" r="7"/>
                <circle id="rim2" cx="0" cy="0" r="3.5"/>
                <g id="zoomPlus">
                        <use xlink:href="#rim" fill="#404040">
                                <set attributeName="fill" to="#808080" begin="zoomplus.mouseover" end="zoomplus.mouseout"/>
                        </use>
                        <path d="M-4,0h8M0,-4v8" fill="none" stroke="white" stroke-width="1.5" pointer-events="none"/>
                </g>
                <g id="zoomMin">
                        <use xlink:href="#rim" fill="#404040">
                                <set attributeName="fill" to="#808080" begin="zoomminus.mouseover" end="zoomminus.mouseout"/>
                        </use>
                        <path d="M-4,0h8" fill="none" stroke="white" stroke-width="1.5" pointer-events="none"/>
                </g>
                <g id="dirArrow">
                        <path fill="none" stroke="white" stroke-width="1.5" d="M0,-3.0v7 M-2.5,-0.5L0,-3.0L2.5,-0.5"/>
                </g>
               <g id="resetDef">
                       <use xlink:href="#rim2" fill="#404040">
                               <set attributeName="fill" to="#808080" begin="reset.mouseover" end="reset.mouseout"/>
                       </use>
               </g>
        </defs>

<script type="text/javascript">
var viewWidth = 1624;
var viewHeight = 700;
var sectionId = 'dynsection-0';
</script>
<script xlink:href="svgpan.js"/>
<svg id="graph" class="graph">
<g id="viewport">
<title>SamplerOptions.h</title>
<polygon fill="white" stroke="transparent" points="-4,4 -4,-696 1619.5,-696 1619.5,4 -4,4"/>
<!-- Node1 -->
<g id="node1" class="node">
<title>Node1</title>
<g id="a_node1"><a xlink:title=" ">
<polygon fill="#bfbfbf" stroke="black" points="1093,-672.5 1093,-691.5 1197,-691.5 1197,-672.5 1093,-672.5"/>
<text text-anchor="middle" x="1145" y="-679.5" font-family="Helvetica,sans-Serif" font-size="10.00">SamplerOptions.h</text>
</a>
</g>
</g>
<!-- Node2 -->
<g id="node2" class="node">
<title>Node2</title>
<g id="a_node2"><a xlink:href="include__headers_8h.html" target="_top" xlink:title=" ">
<polygon fill="white" stroke="black" points="684.5,-56.5 684.5,-75.5 789.5,-75.5 789.5,-56.5 684.5,-56.5"/>
<text text-anchor="middle" x="737" y="-63.5" font-family="Helvetica,sans-Serif" font-size="10.00">include_headers.h</text>
</a>
</g>
</g>
<!-- Node1&#45;&gt;Node2 -->
<g id="edge1" class="edge">
<title>Node1&#45;&gt;Node2</title>
<path fill="none" stroke="midnightblue" d="M1197.24,-674.69C1290.74,-661.94 1477,-629.22 1477,-571 1477,-571 1477,-571 1477,-177 1477,-123.62 1426.65,-128.85 1376,-112 1270.34,-76.86 939.03,-69.16 799.71,-67.47"/>
<polygon fill="midnightblue" stroke="midnightblue" points="799.65,-63.97 789.61,-67.36 799.57,-70.97 799.65,-63.97"/>
</g>
<!-- Node25 -->
<g id="node25" class="node">
<title>Node25</title>
<g id="a_node25"><a xlink:href="include__graphs_8h.html" target="_top" xlink:title=" ">
<polygon fill="white" stroke="black" points="593.5,-224.5 593.5,-243.5 692.5,-243.5 692.5,-224.5 593.5,-224.5"/>
<text text-anchor="middle" x="643" y="-231.5" font-family="Helvetica,sans-Serif" font-size="10.00">include_graphs.h</text>
</a>
</g>
</g>
<!-- Node1&#45;&gt;Node25 -->
<g id="edge24" class="edge">
<title>Node1&#45;&gt;Node25</title>
<path fill="none" stroke="midnightblue" d="M1092.79,-678.6C926.32,-670.25 419,-639.2 419,-571 419,-571 419,-571 419,-345 419,-271.65 516.98,-247.21 583.34,-239.06"/>
<polygon fill="midnightblue" stroke="midnightblue" points="583.75,-242.54 593.29,-237.93 582.96,-235.58 583.75,-242.54"/>
</g>
<!-- Node31 -->
<g id="node31" class="node">
<title>Node31</title>
<g id="a_node31"><a xlink:href="include__helpers_8h.html" target="_top" xlink:title=" ">
<polygon fill="white" stroke="black" points="776,-392.5 776,-411.5 878,-411.5 878,-392.5 776,-392.5"/>
<text text-anchor="middle" x="827" y="-399.5" font-family="Helvetica,sans-Serif" font-size="10.00">include_helpers.h</text>
</a>
</g>
</g>
<!-- Node1&#45;&gt;Node31 -->
<g id="edge36" class="edge">
<title>Node1&#45;&gt;Node31</title>
<path fill="none" stroke="midnightblue" d="M1197.21,-673.87C1254.07,-662.82 1337,-635.64 1337,-571 1337,-571 1337,-571 1337,-513 1337,-422.18 1024.08,-406.15 888.47,-403.46"/>
<polygon fill="midnightblue" stroke="midnightblue" points="888.3,-399.96 878.24,-403.28 888.17,-406.96 888.3,-399.96"/>
</g>
<!-- Node42 -->
<g id="node42" class="node">
<title>Node42</title>
<g id="a_node42"><a xlink:href="GraphPrior_8h.html" target="_top" xlink:title=" ">
<polygon fill="white" stroke="black" points="548.5,-448.5 548.5,-467.5 625.5,-467.5 625.5,-448.5 548.5,-448.5"/>
<text text-anchor="middle" x="587" y="-455.5" font-family="Helvetica,sans-Serif" font-size="10.00">GraphPrior.h</text>
</a>
</g>
</g>
<!-- Node1&#45;&gt;Node42 -->
<g id="edge57" class="edge">
<title>Node1&#45;&gt;Node42</title>
<path fill="none" stroke="midnightblue" d="M1092.9,-677.13C1036.95,-671.91 945.98,-660.29 871,-636 818.05,-618.85 806.78,-608.53 759,-580 701.09,-545.41 637.17,-497.72 606.09,-473.86"/>
<polygon fill="midnightblue" stroke="midnightblue" points="607.94,-470.86 597.88,-467.53 603.66,-476.41 607.94,-470.86"/>
</g>
<!-- Node43 -->
<g id="node43" class="node">
<title>Node43</title>
<g id="a_node43"><a xlink:href="GGMFactory_8h.html" target="_top" xlink:title=" ">
<polygon fill="white" stroke="black" points="880.5,-616.5 880.5,-635.5 963.5,-635.5 963.5,-616.5 880.5,-616.5"/>
<text text-anchor="middle" x="922" y="-623.5" font-family="Helvetica,sans-Serif" font-size="10.00">GGMFactory.h</text>
</a>
</g>
</g>
<!-- Node1&#45;&gt;Node43 -->
<g id="edge61" class="edge">
<title>Node1&#45;&gt;Node43</title>
<path fill="none" stroke="midnightblue" d="M1109.66,-672.44C1071.09,-663.1 1009.22,-648.12 967.15,-637.93"/>
<polygon fill="midnightblue" stroke="midnightblue" points="967.71,-634.47 957.17,-635.52 966.07,-641.27 967.71,-634.47"/>
</g>
<!-- Node48 -->
<g id="node48" class="node">
<title>Node48</title>
<g id="a_node48"><a xlink:href="ProgressBar_8h.html" target="_top" xlink:title=" ">
<polygon fill="white" stroke="black" points="1365.5,-504.5 1365.5,-523.5 1448.5,-523.5 1448.5,-504.5 1365.5,-504.5"/>
<text text-anchor="middle" x="1407" y="-511.5" font-family="Helvetica,sans-Serif" font-size="10.00">ProgressBar.h</text>
</a>
</g>
</g>
<!-- Node1&#45;&gt;Node48 -->
<g id="edge73" class="edge">
<title>Node1&#45;&gt;Node48</title>
<path fill="none" stroke="midnightblue" d="M1197.11,-674.96C1250.1,-667.89 1327.66,-654.73 1351,-636 1383.54,-609.89 1398.02,-560.56 1403.74,-533.65"/>
<polygon fill="midnightblue" stroke="midnightblue" points="1407.22,-534.11 1405.68,-523.63 1400.34,-532.78 1407.22,-534.11"/>
</g>
<!-- Node3 -->
<g id="node3" class="node">
<title>Node3</title>
<g id="a_node3"><a xlink:title=" ">
<polygon fill="white" stroke="#bfbfbf" points="0,-0.5 0,-19.5 60,-19.5 60,-0.5 0,-0.5"/>
<text text-anchor="middle" x="30" y="-7.5" font-family="Helvetica,sans-Serif" font-size="10.00">iostream</text>
</a>
</g>
</g>
<!-- Node2&#45;&gt;Node3 -->
<g id="edge2" class="edge">
<title>Node2&#45;&gt;Node3</title>
<path fill="none" stroke="midnightblue" d="M684.32,-61.94C543.3,-53.67 162.19,-30.88 70.3,-19.81"/>
<polygon fill="midnightblue" stroke="midnightblue" points="70.52,-16.31 60.14,-18.46 69.59,-23.25 70.52,-16.31"/>
</g>
<!-- Node4 -->
<g id="node4" class="node">
<title>Node4</title>
<g id="a_node4"><a xlink:title=" ">
<polygon fill="white" stroke="#bfbfbf" points="78,-0.5 78,-19.5 128,-19.5 128,-0.5 78,-0.5"/>
<text text-anchor="middle" x="103" y="-7.5" font-family="Helvetica,sans-Serif" font-size="10.00">stdio.h</text>
</a>
</g>
</g>
<!-- Node2&#45;&gt;Node4 -->
<g id="edge3" class="edge">
<title>Node2&#45;&gt;Node4</title>
<path fill="none" stroke="midnightblue" d="M684.41,-62.3C561.92,-55.82 259.47,-38.64 138.26,-19.85"/>
<polygon fill="midnightblue" stroke="midnightblue" points="138.57,-16.36 128.14,-18.21 137.45,-23.27 138.57,-16.36"/>
</g>
<!-- Node5 -->
<g id="node5" class="node">
<title>Node5</title>
<g id="a_node5"><a xlink:title=" ">
<polygon fill="white" stroke="#bfbfbf" points="146,-0.5 146,-19.5 190,-19.5 190,-0.5 146,-0.5"/>
<text text-anchor="middle" x="168" y="-7.5" font-family="Helvetica,sans-Serif" font-size="10.00">string</text>
</a>
</g>
</g>
<!-- Node2&#45;&gt;Node5 -->
<g id="edge4" class="edge">
<title>Node2&#45;&gt;Node5</title>
<path fill="none" stroke="midnightblue" d="M684.26,-61.93C571.33,-55.15 308.29,-38.16 200.19,-19.81"/>
<polygon fill="midnightblue" stroke="midnightblue" points="200.68,-16.34 190.22,-18.03 199.45,-23.23 200.68,-16.34"/>
</g>
<!-- Node6 -->
<g id="node6" class="node">
<title>Node6</title>
<g id="a_node6"><a xlink:title=" ">
<polygon fill="white" stroke="#bfbfbf" points="208.5,-0.5 208.5,-19.5 255.5,-19.5 255.5,-0.5 208.5,-0.5"/>
<text text-anchor="middle" x="232" y="-7.5" font-family="Helvetica,sans-Serif" font-size="10.00">vector</text>
</a>
</g>
</g>
<!-- Node2&#45;&gt;Node6 -->
<g id="edge5" class="edge">
<title>Node2&#45;&gt;Node6</title>
<path fill="none" stroke="midnightblue" d="M684.21,-62.92C598.33,-58.88 423,-47.97 265.55,-19.77"/>
<polygon fill="midnightblue" stroke="midnightblue" points="266.15,-16.33 255.68,-17.98 264.89,-23.21 266.15,-16.33"/>
</g>
<!-- Node7 -->
<g id="node7" class="node">
<title>Node7</title>
<g id="a_node7"><a xlink:title=" ">
<polygon fill="white" stroke="#bfbfbf" points="274,-0.5 274,-19.5 312,-19.5 312,-0.5 274,-0.5"/>
<text text-anchor="middle" x="293" y="-7.5" font-family="Helvetica,sans-Serif" font-size="10.00">map</text>
</a>
</g>
</g>
<!-- Node2&#45;&gt;Node7 -->
<g id="edge6" class="edge">
<title>Node2&#45;&gt;Node7</title>
<path fill="none" stroke="midnightblue" d="M684.25,-62.73C606.68,-58.64 457.31,-47.91 322.25,-19.86"/>
<polygon fill="midnightblue" stroke="midnightblue" points="322.65,-16.36 312.14,-17.72 321.2,-23.21 322.65,-16.36"/>
</g>
<!-- Node8 -->
<g id="node8" class="node">
<title>Node8</title>
<g id="a_node8"><a xlink:title=" ">
<polygon fill="white" stroke="#bfbfbf" points="330,-0.5 330,-19.5 362,-19.5 362,-0.5 330,-0.5"/>
<text text-anchor="middle" x="346" y="-7.5" font-family="Helvetica,sans-Serif" font-size="10.00">set</text>
</a>
</g>
</g>
<!-- Node2&#45;&gt;Node8 -->
<g id="edge7" class="edge">
<title>Node2&#45;&gt;Node8</title>
<path fill="none" stroke="midnightblue" d="M684.22,-62.22C614.46,-57.72 487.77,-46.74 371.99,-19.75"/>
<polygon fill="midnightblue" stroke="midnightblue" points="372.79,-16.35 362.25,-17.44 371.17,-23.16 372.79,-16.35"/>
</g>
<!-- Node9 -->
<g id="node9" class="node">
<title>Node9</title>
<g id="a_node9"><a xlink:title=" ">
<polygon fill="white" stroke="#bfbfbf" points="380.5,-0.5 380.5,-19.5 427.5,-19.5 427.5,-0.5 380.5,-0.5"/>
<text text-anchor="middle" x="404" y="-7.5" font-family="Helvetica,sans-Serif" font-size="10.00">cmath</text>
</a>
</g>
</g>
<!-- Node2&#45;&gt;Node9 -->
<g id="edge8" class="edge">
<title>Node2&#45;&gt;Node9</title>
<path fill="none" stroke="midnightblue" d="M684.37,-59C626.32,-51.97 530.01,-39.05 437.78,-19.94"/>
<polygon fill="midnightblue" stroke="midnightblue" points="438.22,-16.45 427.71,-17.82 436.78,-23.31 438.22,-16.45"/>
</g>
<!-- Node10 -->
<g id="node10" class="node">
<title>Node10</title>
<g id="a_node10"><a xlink:title=" ">
<polygon fill="white" stroke="#bfbfbf" points="446,-0.5 446,-19.5 500,-19.5 500,-0.5 446,-0.5"/>
<text text-anchor="middle" x="473" y="-7.5" font-family="Helvetica,sans-Serif" font-size="10.00">random</text>
</a>
</g>
</g>
<!-- Node2&#45;&gt;Node10 -->
<g id="edge9" class="edge">
<title>Node2&#45;&gt;Node10</title>
<path fill="none" stroke="midnightblue" d="M690.13,-56.46C646.1,-48.28 578.15,-35.24 510.13,-20.17"/>
<polygon fill="midnightblue" stroke="midnightblue" points="510.61,-16.69 500.09,-17.93 509.09,-23.52 510.61,-16.69"/>
</g>
<!-- Node11 -->
<g id="node11" class="node">
<title>Node11</title>
<g id="a_node11"><a xlink:title=" ">
<polygon fill="white" stroke="#bfbfbf" points="518,-0.5 518,-19.5 568,-19.5 568,-0.5 518,-0.5"/>
<text text-anchor="middle" x="543" y="-7.5" font-family="Helvetica,sans-Serif" font-size="10.00">chrono</text>
</a>
</g>
</g>
<!-- Node2&#45;&gt;Node11 -->
<g id="edge10" class="edge">
<title>Node2&#45;&gt;Node11</title>
<path fill="none" stroke="midnightblue" d="M706.26,-56.44C671.3,-46.71 614.34,-30.86 577.78,-20.68"/>
<polygon fill="midnightblue" stroke="midnightblue" points="578.62,-17.28 568.04,-17.97 576.74,-24.02 578.62,-17.28"/>
</g>
<!-- Node12 -->
<g id="node12" class="node">
<title>Node12</title>
<g id="a_node12"><a xlink:title=" ">
<polygon fill="white" stroke="#bfbfbf" points="586,-0.5 586,-19.5 650,-19.5 650,-0.5 586,-0.5"/>
<text text-anchor="middle" x="618" y="-7.5" font-family="Helvetica,sans-Serif" font-size="10.00">algorithm</text>
</a>
</g>
</g>
<!-- Node2&#45;&gt;Node12 -->
<g id="edge11" class="edge">
<title>Node2&#45;&gt;Node12</title>
<path fill="none" stroke="midnightblue" d="M718.14,-56.44C698.73,-47.64 668.27,-33.81 646.04,-23.72"/>
<polygon fill="midnightblue" stroke="midnightblue" points="647.32,-20.46 636.77,-19.52 644.43,-26.84 647.32,-20.46"/>
</g>
<!-- Node13 -->
<g id="node13" class="node">
<title>Node13</title>
<g id="a_node13"><a xlink:title=" ">
<polygon fill="white" stroke="#bfbfbf" points="668,-0.5 668,-19.5 726,-19.5 726,-0.5 668,-0.5"/>
<text text-anchor="middle" x="697" y="-7.5" font-family="Helvetica,sans-Serif" font-size="10.00">memory</text>
</a>
</g>
</g>
<!-- Node2&#45;&gt;Node13 -->
<g id="edge12" class="edge">
<title>Node2&#45;&gt;Node13</title>
<path fill="none" stroke="midnightblue" d="M730.39,-56.08C724.74,-48.46 716.46,-37.26 709.55,-27.94"/>
<polygon fill="midnightblue" stroke="midnightblue" points="712.25,-25.7 703.48,-19.75 706.62,-29.87 712.25,-25.7"/>
</g>
<!-- Node14 -->
<g id="node14" class="node">
<title>Node14</title>
<g id="a_node14"><a xlink:title=" ">
<polygon fill="white" stroke="#bfbfbf" points="744.5,-0.5 744.5,-19.5 809.5,-19.5 809.5,-0.5 744.5,-0.5"/>
<text text-anchor="middle" x="777" y="-7.5" font-family="Helvetica,sans-Serif" font-size="10.00">exception</text>
</a>
</g>
</g>
<!-- Node2&#45;&gt;Node14 -->
<g id="edge13" class="edge">
<title>Node2&#45;&gt;Node14</title>
<path fill="none" stroke="midnightblue" d="M743.61,-56.08C749.26,-48.46 757.54,-37.26 764.45,-27.94"/>
<polygon fill="midnightblue" stroke="midnightblue" points="767.38,-29.87 770.52,-19.75 761.75,-25.7 767.38,-29.87"/>
</g>
<!-- Node15 -->
<g id="node15" class="node">
<title>Node15</title>
<g id="a_node15"><a xlink:title=" ">
<polygon fill="white" stroke="#bfbfbf" points="828,-0.5 828,-19.5 884,-19.5 884,-0.5 828,-0.5"/>
<text text-anchor="middle" x="856" y="-7.5" font-family="Helvetica,sans-Serif" font-size="10.00">numeric</text>
</a>
</g>
</g>
<!-- Node2&#45;&gt;Node15 -->
<g id="edge14" class="edge">
<title>Node2&#45;&gt;Node15</title>
<path fill="none" stroke="midnightblue" d="M755.86,-56.44C775.27,-47.64 805.73,-33.81 827.96,-23.72"/>
<polygon fill="midnightblue" stroke="midnightblue" points="829.57,-26.84 837.23,-19.52 826.68,-20.46 829.57,-26.84"/>
</g>
<!-- Node16 -->
<g id="node16" class="node">
<title>Node16</title>
<g id="a_node16"><a xlink:title=" ">
<polygon fill="white" stroke="#bfbfbf" points="902.5,-0.5 902.5,-19.5 955.5,-19.5 955.5,-0.5 902.5,-0.5"/>
<text text-anchor="middle" x="929" y="-7.5" font-family="Helvetica,sans-Serif" font-size="10.00">iterator</text>
</a>
</g>
</g>
<!-- Node2&#45;&gt;Node16 -->
<g id="edge15" class="edge">
<title>Node2&#45;&gt;Node16</title>
<path fill="none" stroke="midnightblue" d="M767.42,-56.44C801.44,-46.87 856.51,-31.39 892.74,-21.2"/>
<polygon fill="midnightblue" stroke="midnightblue" points="893.75,-24.55 902.43,-18.47 891.86,-17.81 893.75,-24.55"/>
</g>
<!-- Node17 -->
<g id="node17" class="node">
<title>Node17</title>
<g id="a_node17"><a xlink:title=" ">
<polygon fill="white" stroke="#bfbfbf" points="973.5,-0.5 973.5,-19.5 1018.5,-19.5 1018.5,-0.5 973.5,-0.5"/>
<text text-anchor="middle" x="996" y="-7.5" font-family="Helvetica,sans-Serif" font-size="10.00">utility</text>
</a>
</g>
</g>
<!-- Node2&#45;&gt;Node17 -->
<g id="edge16" class="edge">
<title>Node2&#45;&gt;Node17</title>
<path fill="none" stroke="midnightblue" d="M785.95,-56.44C829.92,-48.5 896.45,-35.85 963.45,-19.98"/>
<polygon fill="midnightblue" stroke="midnightblue" points="964.42,-23.34 973.33,-17.61 962.79,-16.53 964.42,-23.34"/>
</g>
<!-- Node18 -->
<g id="node18" class="node">
<title>Node18</title>
<g id="a_node18"><a xlink:title=" ">
<polygon fill="white" stroke="#bfbfbf" points="1036.5,-0.5 1036.5,-19.5 1077.5,-19.5 1077.5,-0.5 1036.5,-0.5"/>
<text text-anchor="middle" x="1057" y="-7.5" font-family="Helvetica,sans-Serif" font-size="10.00">tuple</text>
</a>
</g>
</g>
<!-- Node2&#45;&gt;Node18 -->
<g id="edge17" class="edge">
<title>Node2&#45;&gt;Node18</title>
<path fill="none" stroke="midnightblue" d="M789.53,-59.05C845.83,-52.19 937.93,-39.55 1026.5,-19.82"/>
<polygon fill="midnightblue" stroke="midnightblue" points="1027.46,-23.19 1036.44,-17.57 1025.92,-16.37 1027.46,-23.19"/>
</g>
<!-- Node19 -->
<g id="node19" class="node">
<title>Node19</title>
<g id="a_node19"><a xlink:title=" ">
<polygon fill="white" stroke="#bfbfbf" points="1095.5,-0.5 1095.5,-19.5 1164.5,-19.5 1164.5,-0.5 1095.5,-0.5"/>
<text text-anchor="middle" x="1130" y="-7.5" font-family="Helvetica,sans-Serif" font-size="10.00">type_traits</text>
</a>
</g>
</g>
<!-- Node2&#45;&gt;Node19 -->
<g id="edge18" class="edge">
<title>Node2&#45;&gt;Node19</title>
<path fill="none" stroke="midnightblue" d="M789.5,-59.45C855.95,-52.15 974.11,-38.28 1085.4,-19.98"/>
<polygon fill="midnightblue" stroke="midnightblue" points="1086.17,-23.41 1095.46,-18.32 1085.02,-16.5 1086.17,-23.41"/>
</g>
<!-- Node20 -->
<g id="node20" class="node">
<title>Node20</title>
<g id="a_node20"><a xlink:title=" ">
<polygon fill="white" stroke="#bfbfbf" points="1182.5,-0.5 1182.5,-19.5 1247.5,-19.5 1247.5,-0.5 1182.5,-0.5"/>
<text text-anchor="middle" x="1215" y="-7.5" font-family="Helvetica,sans-Serif" font-size="10.00">functional</text>
</a>
</g>
</g>
<!-- Node2&#45;&gt;Node20 -->
<g id="edge19" class="edge">
<title>Node2&#45;&gt;Node20</title>
<path fill="none" stroke="midnightblue" d="M789.59,-61.42C869.91,-55.55 1028.14,-42.38 1172.15,-19.97"/>
<polygon fill="midnightblue" stroke="midnightblue" points="1172.71,-23.43 1182.05,-18.41 1171.63,-16.51 1172.71,-23.43"/>
</g>
<!-- Node21 -->
<g id="node21" class="node">
<title>Node21</title>
<g id="a_node21"><a xlink:title=" ">
<polygon fill="white" stroke="#bfbfbf" points="1265.5,-0.5 1265.5,-19.5 1342.5,-19.5 1342.5,-0.5 1265.5,-0.5"/>
<text text-anchor="middle" x="1304" y="-7.5" font-family="Helvetica,sans-Serif" font-size="10.00">Eigen/Dense</text>
</a>
</g>
</g>
<!-- Node2&#45;&gt;Node21 -->
<g id="edge20" class="edge">
<title>Node2&#45;&gt;Node21</title>
<path fill="none" stroke="midnightblue" d="M789.87,-62.15C882.19,-56.79 1078.94,-43.69 1255.3,-19.96"/>
<polygon fill="midnightblue" stroke="midnightblue" points="1255.84,-23.42 1265.28,-18.6 1254.9,-16.48 1255.84,-23.42"/>
</g>
<!-- Node22 -->
<g id="node22" class="node">
<title>Node22</title>
<g id="a_node22"><a xlink:title=" ">
<polygon fill="white" stroke="#bfbfbf" points="1360.5,-0.5 1360.5,-19.5 1451.5,-19.5 1451.5,-0.5 1360.5,-0.5"/>
<text text-anchor="middle" x="1406" y="-7.5" font-family="Helvetica,sans-Serif" font-size="10.00">Eigen/Cholesky</text>
</a>
</g>
</g>
<!-- Node2&#45;&gt;Node22 -->
<g id="edge21" class="edge">
<title>Node2&#45;&gt;Node22</title>
<path fill="none" stroke="midnightblue" d="M789.72,-62.72C894.45,-57.85 1136.31,-44.88 1350.26,-19.97"/>
<polygon fill="midnightblue" stroke="midnightblue" points="1350.9,-23.42 1360.43,-18.78 1350.09,-16.47 1350.9,-23.42"/>
</g>
<!-- Node23 -->
<g id="node23" class="node">
<title>Node23</title>
<g id="a_node23"><a xlink:title=" ">
<polygon fill="white" stroke="#bfbfbf" points="1470,-0.5 1470,-19.5 1550,-19.5 1550,-0.5 1470,-0.5"/>
<text text-anchor="middle" x="1510" y="-7.5" font-family="Helvetica,sans-Serif" font-size="10.00">Eigen/Sparse</text>
</a>
</g>
</g>
<!-- Node2&#45;&gt;Node23 -->
<g id="edge22" class="edge">
<title>Node2&#45;&gt;Node23</title>
<path fill="none" stroke="midnightblue" d="M789.89,-63.88C908.15,-60.9 1203.08,-50.89 1459.69,-20.01"/>
<polygon fill="midnightblue" stroke="midnightblue" points="1460.44,-23.44 1469.95,-18.76 1459.6,-16.49 1460.44,-23.44"/>
</g>
<!-- Node24 -->
<g id="node24" class="node">
<title>Node24</title>
<g id="a_node24"><a xlink:title=" ">
<polygon fill="white" stroke="#bfbfbf" points="1568.5,-0.5 1568.5,-19.5 1615.5,-19.5 1615.5,-0.5 1568.5,-0.5"/>
<text text-anchor="middle" x="1592" y="-7.5" font-family="Helvetica,sans-Serif" font-size="10.00">omp.h</text>
</a>
</g>
</g>
<!-- Node2&#45;&gt;Node24 -->
<g id="edge23" class="edge">
<title>Node2&#45;&gt;Node24</title>
<path fill="none" stroke="midnightblue" d="M789.63,-63.57C943.39,-59.19 1391.02,-44.74 1558.21,-19.68"/>
<polygon fill="midnightblue" stroke="midnightblue" points="1559,-23.1 1568.34,-18.1 1557.92,-16.19 1559,-23.1"/>
</g>
<!-- Node26 -->
<g id="node26" class="node">
<title>Node26</title>
<g id="a_node26"><a xlink:href="Groups_8h.html" target="_top" xlink:title=" ">
<polygon fill="white" stroke="black" points="496,-112.5 496,-131.5 556,-131.5 556,-112.5 496,-112.5"/>
<text text-anchor="middle" x="526" y="-119.5" font-family="Helvetica,sans-Serif" font-size="10.00">Groups.h</text>
</a>
</g>
</g>
<!-- Node25&#45;&gt;Node26 -->
<g id="edge25" class="edge">
<title>Node25&#45;&gt;Node26</title>
<path fill="none" stroke="midnightblue" d="M593.4,-226.34C549.52,-219.32 490.29,-206.65 476,-188 462.62,-170.54 483.61,-150.47 502.35,-137.31"/>
<polygon fill="midnightblue" stroke="midnightblue" points="504.54,-140.06 510.94,-131.61 500.68,-134.22 504.54,-140.06"/>
</g>
<!-- Node28 -->
<g id="node28" class="node">
<title>Node28</title>
<g id="a_node28"><a xlink:href="BlockGraph_8h.html" target="_top" xlink:title=" ">
<polygon fill="white" stroke="black" points="485,-168.5 485,-187.5 567,-187.5 567,-168.5 485,-168.5"/>
<text text-anchor="middle" x="526" y="-175.5" font-family="Helvetica,sans-Serif" font-size="10.00">BlockGraph.h</text>
</a>
</g>
</g>
<!-- Node25&#45;&gt;Node28 -->
<g id="edge28" class="edge">
<title>Node25&#45;&gt;Node28</title>
<path fill="none" stroke="midnightblue" d="M624.46,-224.44C605.38,-215.64 575.43,-201.81 553.56,-191.72"/>
<polygon fill="midnightblue" stroke="midnightblue" points="555,-188.53 544.45,-187.52 552.07,-194.88 555,-188.53"/>
</g>
<!-- Node29 -->
<g id="node29" class="node">
<title>Node29</title>
<g id="a_node29"><a xlink:href="GraphType_8h.html" target="_top" xlink:title=" ">
<polygon fill="white" stroke="black" points="612.5,-112.5 612.5,-131.5 689.5,-131.5 689.5,-112.5 612.5,-112.5"/>
<text text-anchor="middle" x="651" y="-119.5" font-family="Helvetica,sans-Serif" font-size="10.00">GraphType.h</text>
</a>
</g>
</g>
<!-- Node25&#45;&gt;Node29 -->
<g id="edge31" class="edge">
<title>Node25&#45;&gt;Node29</title>
<path fill="none" stroke="midnightblue" d="M634.5,-224.34C623.5,-212.04 606.58,-188.71 614,-168 617.94,-157 625.86,-146.77 633.36,-138.85"/>
<polygon fill="midnightblue" stroke="midnightblue" points="635.89,-141.27 640.56,-131.76 630.98,-136.28 635.89,-141.27"/>
</g>
<!-- Node30 -->
<g id="node30" class="node">
<title>Node30</title>
<g id="a_node30"><a xlink:href="BlockGraphCRTP_8h.html" target="_top" xlink:title=" ">
<polygon fill="white" stroke="black" points="623.5,-168.5 623.5,-187.5 728.5,-187.5 728.5,-168.5 623.5,-168.5"/>
<text text-anchor="middle" x="676" y="-175.5" font-family="Helvetica,sans-Serif" font-size="10.00">BlockGraphCRTP.h</text>
</a>
</g>
</g>
<!-- Node25&#45;&gt;Node30 -->
<g id="edge33" class="edge">
<title>Node25&#45;&gt;Node30</title>
<path fill="none" stroke="midnightblue" d="M643.28,-224.08C646.34,-216.46 652.79,-205.26 659.33,-195.94"/>
<polygon fill="midnightblue" stroke="midnightblue" points="662.28,-197.84 665.52,-187.75 656.7,-193.62 662.28,-197.84"/>
</g>
<!-- Node26&#45;&gt;Node2 -->
<g id="edge27" class="edge">
<title>Node26&#45;&gt;Node2</title>
<path fill="none" stroke="midnightblue" d="M556.23,-113.26C592.34,-104.02 652.99,-88.5 693.98,-78.01"/>
<polygon fill="midnightblue" stroke="midnightblue" points="694.87,-81.39 703.69,-75.52 693.14,-74.61 694.87,-81.39"/>
</g>
<!-- Node27 -->
<g id="node27" class="node">
<title>Node27</title>
<g id="a_node27"><a xlink:title=" ">
<polygon fill="white" stroke="#bfbfbf" points="501,-56.5 501,-75.5 551,-75.5 551,-56.5 501,-56.5"/>
<text text-anchor="middle" x="526" y="-63.5" font-family="Helvetica,sans-Serif" font-size="10.00">Rcpp.h</text>
</a>
</g>
</g>
<!-- Node26&#45;&gt;Node27 -->
<g id="edge26" class="edge">
<title>Node26&#45;&gt;Node27</title>
<path fill="none" stroke="midnightblue" d="M526,-112.08C526,-105.01 526,-94.86 526,-85.99"/>
<polygon fill="midnightblue" stroke="midnightblue" points="529.5,-85.75 526,-75.75 522.5,-85.75 529.5,-85.75"/>
</g>
<!-- Node28&#45;&gt;Node2 -->
<g id="edge29" class="edge">
<title>Node28&#45;&gt;Node2</title>
<path fill="none" stroke="midnightblue" d="M534.19,-168.21C547.44,-154.46 574.95,-127.79 603,-112 630.12,-96.74 663.25,-85.56 689.78,-78.16"/>
<polygon fill="midnightblue" stroke="midnightblue" points="690.86,-81.49 699.6,-75.5 689.03,-74.73 690.86,-81.49"/>
</g>
<!-- Node28&#45;&gt;Node26 -->
<g id="edge30" class="edge">
<title>Node28&#45;&gt;Node26</title>
<path fill="none" stroke="midnightblue" d="M526,-168.08C526,-161.01 526,-150.86 526,-141.99"/>
<polygon fill="midnightblue" stroke="midnightblue" points="529.5,-141.75 526,-131.75 522.5,-141.75 529.5,-141.75"/>
</g>
<!-- Node29&#45;&gt;Node2 -->
<g id="edge32" class="edge">
<title>Node29&#45;&gt;Node2</title>
<path fill="none" stroke="midnightblue" d="M664.82,-112.32C678.23,-103.9 698.82,-90.97 714.59,-81.07"/>
<polygon fill="midnightblue" stroke="midnightblue" points="716.61,-83.94 723.22,-75.65 712.89,-78.01 716.61,-83.94"/>
</g>
<!-- Node30&#45;&gt;Node2 -->
<g id="edge34" class="edge">
<title>Node30&#45;&gt;Node2</title>
<path fill="none" stroke="midnightblue" d="M680.79,-168.37C690.76,-150.38 713.96,-108.55 727.23,-84.63"/>
<polygon fill="midnightblue" stroke="midnightblue" points="730.45,-86.03 732.24,-75.59 724.33,-82.64 730.45,-86.03"/>
</g>
<!-- Node30&#45;&gt;Node25 -->
<g id="edge35" class="edge">
<title>Node30&#45;&gt;Node25</title>
<path fill="none" stroke="midnightblue" d="M675.78,-187.75C672.78,-195.33 666.35,-206.5 659.81,-215.86"/>
<polygon fill="midnightblue" stroke="midnightblue" points="656.83,-213.99 653.62,-224.08 662.43,-218.2 656.83,-213.99"/>
</g>
<!-- Node32 -->
<g id="node32" class="node">
<title>Node32</title>
<g id="a_node32"><a xlink:href="utils_8h.html" target="_top" xlink:title=" ">
<polygon fill="white" stroke="black" points="785.5,-280.5 785.5,-299.5 832.5,-299.5 832.5,-280.5 785.5,-280.5"/>
<text text-anchor="middle" x="809" y="-287.5" font-family="Helvetica,sans-Serif" font-size="10.00">utils.h</text>
</a>
</g>
</g>
<!-- Node31&#45;&gt;Node32 -->
<g id="edge37" class="edge">
<title>Node31&#45;&gt;Node32</title>
<path fill="none" stroke="midnightblue" d="M831.13,-392.44C836.62,-379.87 844.99,-355.77 839,-336 835.88,-325.7 829.55,-315.61 823.5,-307.6"/>
<polygon fill="midnightblue" stroke="midnightblue" points="826.22,-305.4 817.21,-299.82 820.77,-309.8 826.22,-305.4"/>
</g>
<!-- Node33 -->
<g id="node33" class="node">
<title>Node33</title>
<g id="a_node33"><a xlink:href="GSLwrappers_8h.html" target="_top" xlink:title=" ">
<polygon fill="white" stroke="black" points="948.5,-224.5 948.5,-243.5 1037.5,-243.5 1037.5,-224.5 948.5,-224.5"/>
<text text-anchor="middle" x="993" y="-231.5" font-family="Helvetica,sans-Serif" font-size="10.00">GSLwrappers.h</text>
</a>
</g>
</g>
<!-- Node31&#45;&gt;Node33 -->
<g id="edge56" class="edge">
<title>Node31&#45;&gt;Node33</title>
<path fill="none" stroke="midnightblue" d="M835.92,-392.08C862.73,-365.27 942.81,-285.19 977.11,-250.89"/>
<polygon fill="midnightblue" stroke="midnightblue" points="979.84,-253.11 984.43,-243.57 974.89,-248.16 979.84,-253.11"/>
</g>
<!-- Node40 -->
<g id="node40" class="node">
<title>Node40</title>
<g id="a_node40"><a xlink:href="GWishart_8h.html" target="_top" xlink:title=" ">
<polygon fill="white" stroke="black" points="759.5,-336.5 759.5,-355.5 830.5,-355.5 830.5,-336.5 759.5,-336.5"/>
<text text-anchor="middle" x="795" y="-343.5" font-family="Helvetica,sans-Serif" font-size="10.00">GWishart.h</text>
</a>
</g>
</g>
<!-- Node31&#45;&gt;Node40 -->
<g id="edge48" class="edge">
<title>Node31&#45;&gt;Node40</title>
<path fill="none" stroke="midnightblue" d="M821.72,-392.08C817.29,-384.61 810.84,-373.72 805.38,-364.52"/>
<polygon fill="midnightblue" stroke="midnightblue" points="808.29,-362.57 800.19,-355.75 802.27,-366.14 808.29,-362.57"/>
</g>
<!-- Node41 -->
<g id="node41" class="node">
<title>Node41</title>
<g id="a_node41"><a xlink:href="Precision_8h.html" target="_top" xlink:title=" ">
<polygon fill="white" stroke="black" points="671,-336.5 671,-355.5 741,-355.5 741,-336.5 671,-336.5"/>
<text text-anchor="middle" x="706" y="-343.5" font-family="Helvetica,sans-Serif" font-size="10.00">Precision.h</text>
</a>
</g>
</g>
<!-- Node31&#45;&gt;Node41 -->
<g id="edge52" class="edge">
<title>Node31&#45;&gt;Node41</title>
<path fill="none" stroke="midnightblue" d="M807.83,-392.44C788.09,-383.64 757.11,-369.81 734.51,-359.72"/>
<polygon fill="midnightblue" stroke="midnightblue" points="735.64,-356.4 725.08,-355.52 732.79,-362.79 735.64,-356.4"/>
</g>
<!-- Node32&#45;&gt;Node2 -->
<g id="edge38" class="edge">
<title>Node32&#45;&gt;Node2</title>
<path fill="none" stroke="midnightblue" d="M808.48,-280.48C806.59,-254.21 798.73,-172.59 771,-112 766.22,-101.56 758.69,-91.24 751.92,-83.12"/>
<polygon fill="midnightblue" stroke="midnightblue" points="754.52,-80.78 745.3,-75.55 749.25,-85.38 754.52,-80.78"/>
</g>
<!-- Node32&#45;&gt;Node25 -->
<g id="edge39" class="edge">
<title>Node32&#45;&gt;Node25</title>
<path fill="none" stroke="midnightblue" d="M785.22,-281.26C757.47,-272.24 711.3,-257.22 679.12,-246.75"/>
<polygon fill="midnightblue" stroke="midnightblue" points="679.8,-243.29 669.2,-243.52 677.63,-249.95 679.8,-243.29"/>
</g>
<!-- Node32&#45;&gt;Node33 -->
<g id="edge40" class="edge">
<title>Node32&#45;&gt;Node33</title>
<path fill="none" stroke="midnightblue" d="M832.68,-282.05C863.38,-273.04 917.32,-257.21 954.08,-246.42"/>
<polygon fill="midnightblue" stroke="midnightblue" points="955.35,-249.7 963.96,-243.52 953.38,-242.98 955.35,-249.7"/>
</g>
<!-- Node39 -->
<g id="node39" class="node">
<title>Node39</title>
<g id="a_node39"><a xlink:title=" ">
<polygon fill="white" stroke="#bfbfbf" points="823,-224.5 823,-243.5 915,-243.5 915,-224.5 823,-224.5"/>
<text text-anchor="middle" x="869" y="-231.5" font-family="Helvetica,sans-Serif" font-size="10.00">gsl/gsl_sf_log.h</text>
</a>
</g>
</g>
<!-- Node32&#45;&gt;Node39 -->
<g id="edge47" class="edge">
<title>Node32&#45;&gt;Node39</title>
<path fill="none" stroke="midnightblue" d="M818.64,-280.32C827.51,-272.34 840.87,-260.31 851.61,-250.65"/>
<polygon fill="midnightblue" stroke="midnightblue" points="854.09,-253.13 859.18,-243.83 849.41,-247.92 854.09,-253.13"/>
</g>
<!-- Node33&#45;&gt;Node2 -->
<g id="edge41" class="edge">
<title>Node33&#45;&gt;Node2</title>
<path fill="none" stroke="midnightblue" d="M948.29,-227.39C918.34,-221.69 879.52,-210.36 852,-188 821.88,-163.52 835.84,-140.04 809,-112 796.46,-98.9 779.34,-87.99 764.94,-80.2"/>
<polygon fill="midnightblue" stroke="midnightblue" points="766.44,-77.04 755.95,-75.54 763.21,-83.25 766.44,-77.04"/>
</g>
<!-- Node34 -->
<g id="node34" class="node">
<title>Node34</title>
<g id="a_node34"><a xlink:title=" ">
<polygon fill="white" stroke="#bfbfbf" points="969,-168.5 969,-187.5 1047,-187.5 1047,-168.5 969,-168.5"/>
<text text-anchor="middle" x="1008" y="-175.5" font-family="Helvetica,sans-Serif" font-size="10.00">gsl/gsl_rng.h</text>
</a>
</g>
</g>
<!-- Node33&#45;&gt;Node34 -->
<g id="edge42" class="edge">
<title>Node33&#45;&gt;Node34</title>
<path fill="none" stroke="midnightblue" d="M995.48,-224.08C997.49,-216.85 1000.39,-206.41 1002.89,-197.4"/>
<polygon fill="midnightblue" stroke="midnightblue" points="1006.26,-198.32 1005.57,-187.75 999.52,-196.45 1006.26,-198.32"/>
</g>
<!-- Node35 -->
<g id="node35" class="node">
<title>Node35</title>
<g id="a_node35"><a xlink:title=" ">
<polygon fill="white" stroke="#bfbfbf" points="1065,-168.5 1065,-187.5 1161,-187.5 1161,-168.5 1065,-168.5"/>
<text text-anchor="middle" x="1113" y="-175.5" font-family="Helvetica,sans-Serif" font-size="10.00">gsl/gsl_randist.h</text>
</a>
</g>
</g>
<!-- Node33&#45;&gt;Node35 -->
<g id="edge43" class="edge">
<title>Node33&#45;&gt;Node35</title>
<path fill="none" stroke="midnightblue" d="M1012.01,-224.44C1031.59,-215.64 1062.31,-201.81 1084.73,-191.72"/>
<polygon fill="midnightblue" stroke="midnightblue" points="1086.39,-194.81 1094.07,-187.52 1083.52,-188.43 1086.39,-194.81"/>
</g>
<!-- Node36 -->
<g id="node36" class="node">
<title>Node36</title>
<g id="a_node36"><a xlink:title=" ">
<polygon fill="white" stroke="#bfbfbf" points="1179.5,-168.5 1179.5,-187.5 1256.5,-187.5 1256.5,-168.5 1179.5,-168.5"/>
<text text-anchor="middle" x="1218" y="-175.5" font-family="Helvetica,sans-Serif" font-size="10.00">gsl/gsl_cdf.h</text>
</a>
</g>
</g>
<!-- Node33&#45;&gt;Node36 -->
<g id="edge44" class="edge">
<title>Node33&#45;&gt;Node36</title>
<path fill="none" stroke="midnightblue" d="M1028.65,-224.44C1067.66,-215.08 1130.27,-200.06 1172.72,-189.87"/>
<polygon fill="midnightblue" stroke="midnightblue" points="1173.61,-193.25 1182.51,-187.52 1171.97,-186.45 1173.61,-193.25"/>
</g>
<!-- Node37 -->
<g id="node37" class="node">
<title>Node37</title>
<g id="a_node37"><a xlink:title=" ">
<polygon fill="white" stroke="#bfbfbf" points="1275,-168.5 1275,-187.5 1373,-187.5 1373,-168.5 1275,-168.5"/>
<text text-anchor="middle" x="1324" y="-175.5" font-family="Helvetica,sans-Serif" font-size="10.00">gsl/gsl_bspline.h</text>
</a>
</g>
</g>
<!-- Node33&#45;&gt;Node37 -->
<g id="edge45" class="edge">
<title>Node33&#45;&gt;Node37</title>
<path fill="none" stroke="midnightblue" d="M1037.64,-225.72C1096.35,-216.14 1199.67,-199.28 1264.84,-188.65"/>
<polygon fill="midnightblue" stroke="midnightblue" points="1265.65,-192.06 1274.96,-187 1264.53,-185.16 1265.65,-192.06"/>
</g>
<!-- Node38 -->
<g id="node38" class="node">
<title>Node38</title>
<g id="a_node38"><a xlink:title=" ">
<polygon fill="white" stroke="#bfbfbf" points="861.5,-168.5 861.5,-187.5 950.5,-187.5 950.5,-168.5 861.5,-168.5"/>
<text text-anchor="middle" x="906" y="-175.5" font-family="Helvetica,sans-Serif" font-size="10.00">gsl/gsl_linalg.h</text>
</a>
</g>
</g>
<!-- Node33&#45;&gt;Node38 -->
<g id="edge46" class="edge">
<title>Node33&#45;&gt;Node38</title>
<path fill="none" stroke="midnightblue" d="M979.02,-224.32C965.45,-215.9 944.62,-202.97 928.68,-193.07"/>
<polygon fill="midnightblue" stroke="midnightblue" points="930.29,-189.95 919.94,-187.65 926.59,-195.9 930.29,-189.95"/>
</g>
<!-- Node40&#45;&gt;Node2 -->
<g id="edge49" class="edge">
<title>Node40&#45;&gt;Node2</title>
<path fill="none" stroke="midnightblue" d="M789.72,-336.23C779.27,-318.04 757,-274.6 757,-235 757,-235 757,-235 757,-177 757,-144.44 748.41,-107.32 742.49,-85.59"/>
<polygon fill="midnightblue" stroke="midnightblue" points="745.79,-84.41 739.7,-75.74 739.06,-86.32 745.79,-84.41"/>
</g>
<!-- Node40&#45;&gt;Node25 -->
<g id="edge50" class="edge">
<title>Node40&#45;&gt;Node25</title>
<path fill="none" stroke="midnightblue" d="M783.07,-336.37C757.1,-317.57 695.19,-272.77 663.08,-249.53"/>
<polygon fill="midnightblue" stroke="midnightblue" points="665.02,-246.62 654.87,-243.59 660.92,-252.29 665.02,-246.62"/>
</g>
<!-- Node40&#45;&gt;Node32 -->
<g id="edge51" class="edge">
<title>Node40&#45;&gt;Node32</title>
<path fill="none" stroke="midnightblue" d="M797.31,-336.08C799.17,-328.93 801.84,-318.64 804.15,-309.69"/>
<polygon fill="midnightblue" stroke="midnightblue" points="807.61,-310.31 806.73,-299.75 800.83,-308.55 807.61,-310.31"/>
</g>
<!-- Node41&#45;&gt;Node2 -->
<g id="edge53" class="edge">
<title>Node41&#45;&gt;Node2</title>
<path fill="none" stroke="midnightblue" d="M670.74,-336.94C600.57,-318.69 451.53,-267.83 468,-168 472.28,-142.07 467.08,-129.15 487,-112 514.44,-88.37 609.54,-76.54 674.22,-71.09"/>
<polygon fill="midnightblue" stroke="midnightblue" points="674.63,-74.57 684.32,-70.27 674.07,-67.59 674.63,-74.57"/>
</g>
<!-- Node41&#45;&gt;Node25 -->
<g id="edge54" class="edge">
<title>Node41&#45;&gt;Node25</title>
<path fill="none" stroke="midnightblue" d="M701.06,-336.37C690.71,-318.3 666.58,-276.18 652.91,-252.31"/>
<polygon fill="midnightblue" stroke="midnightblue" points="655.93,-250.53 647.92,-243.59 649.85,-254.01 655.93,-250.53"/>
</g>
<!-- Node41&#45;&gt;Node32 -->
<g id="edge55" class="edge">
<title>Node41&#45;&gt;Node32</title>
<path fill="none" stroke="midnightblue" d="M722.55,-336.32C738.99,-327.7 764.43,-314.36 783.47,-304.39"/>
<polygon fill="midnightblue" stroke="midnightblue" points="785.26,-307.4 792.49,-299.65 782.01,-301.2 785.26,-307.4"/>
</g>
<!-- Node42&#45;&gt;Node2 -->
<g id="edge58" class="edge">
<title>Node42&#45;&gt;Node2</title>
<path fill="none" stroke="midnightblue" d="M548.25,-453.62C488.58,-446.05 381,-422.01 381,-347 381,-347 381,-347 381,-177 381,-128.38 424.24,-130.99 469,-112 535.54,-83.77 618.43,-73.21 674.26,-69.28"/>
<polygon fill="midnightblue" stroke="midnightblue" points="674.61,-72.77 684.36,-68.62 674.16,-65.78 674.61,-72.77"/>
</g>
<!-- Node42&#45;&gt;Node25 -->
<g id="edge59" class="edge">
<title>Node42&#45;&gt;Node25</title>
<path fill="none" stroke="midnightblue" d="M588.81,-448.47C594.28,-422.84 611.4,-344.27 629,-280 631.43,-271.11 634.44,-261.33 637.04,-253.17"/>
<polygon fill="midnightblue" stroke="midnightblue" points="640.39,-254.17 640.14,-243.58 633.73,-252.01 640.39,-254.17"/>
</g>
<!-- Node42&#45;&gt;Node31 -->
<g id="edge60" class="edge">
<title>Node42&#45;&gt;Node31</title>
<path fill="none" stroke="midnightblue" d="M625.03,-448.44C666.81,-439.04 733.98,-423.93 779.27,-413.74"/>
<polygon fill="midnightblue" stroke="midnightblue" points="780.16,-417.13 789.15,-411.52 778.62,-410.3 780.16,-417.13"/>
</g>
<!-- Node44 -->
<g id="node44" class="node">
<title>Node44</title>
<g id="a_node44"><a xlink:href="GGM_8h.html" target="_top" xlink:title=" ">
<polygon fill="white" stroke="black" points="802,-504.5 802,-523.5 852,-523.5 852,-504.5 802,-504.5"/>
<text text-anchor="middle" x="827" y="-511.5" font-family="Helvetica,sans-Serif" font-size="10.00">GGM.h</text>
</a>
</g>
</g>
<!-- Node43&#45;&gt;Node44 -->
<g id="edge62" class="edge">
<title>Node43&#45;&gt;Node44</title>
<path fill="none" stroke="midnightblue" d="M880.17,-618.59C839.08,-611.35 780.63,-598.15 767,-580 752.65,-560.9 777.9,-541.01 799.92,-528.34"/>
<polygon fill="midnightblue" stroke="midnightblue" points="801.62,-531.4 808.72,-523.54 798.27,-525.26 801.62,-531.4"/>
</g>
<!-- Node45 -->
<g id="node45" class="node">
<title>Node45</title>
<g id="a_node45"><a xlink:href="AddRemoveMH_8h.html" target="_top" xlink:title=" ">
<polygon fill="white" stroke="black" points="776.5,-560.5 776.5,-579.5 877.5,-579.5 877.5,-560.5 776.5,-560.5"/>
<text text-anchor="middle" x="827" y="-567.5" font-family="Helvetica,sans-Serif" font-size="10.00">AddRemoveMH.h</text>
</a>
</g>
</g>
<!-- Node43&#45;&gt;Node45 -->
<g id="edge67" class="edge">
<title>Node43&#45;&gt;Node45</title>
<path fill="none" stroke="midnightblue" d="M906.74,-616.32C891.78,-607.82 868.75,-594.73 851.27,-584.8"/>
<polygon fill="midnightblue" stroke="midnightblue" points="852.65,-581.55 842.23,-579.65 849.19,-587.64 852.65,-581.55"/>
</g>
<!-- Node46 -->
<g id="node46" class="node">
<title>Node46</title>
<g id="a_node46"><a xlink:href="RJMH_8h.html" target="_top" xlink:title=" ">
<polygon fill="white" stroke="black" points="896,-560.5 896,-579.5 948,-579.5 948,-560.5 896,-560.5"/>
<text text-anchor="middle" x="922" y="-567.5" font-family="Helvetica,sans-Serif" font-size="10.00">RJMH.h</text>
</a>
</g>
</g>
<!-- Node43&#45;&gt;Node46 -->
<g id="edge69" class="edge">
<title>Node43&#45;&gt;Node46</title>
<path fill="none" stroke="midnightblue" d="M922,-616.08C922,-609.01 922,-598.86 922,-589.99"/>
<polygon fill="midnightblue" stroke="midnightblue" points="925.5,-589.75 922,-579.75 918.5,-589.75 925.5,-589.75"/>
</g>
<!-- Node47 -->
<g id="node47" class="node">
<title>Node47</title>
<g id="a_node47"><a xlink:href="DRJMH_8h.html" target="_top" xlink:title=" ">
<polygon fill="white" stroke="black" points="966.5,-560.5 966.5,-579.5 1025.5,-579.5 1025.5,-560.5 966.5,-560.5"/>
<text text-anchor="middle" x="996" y="-567.5" font-family="Helvetica,sans-Serif" font-size="10.00">DRJMH.h</text>
</a>
</g>
</g>
<!-- Node43&#45;&gt;Node47 -->
<g id="edge71" class="edge">
<title>Node43&#45;&gt;Node47</title>
<path fill="none" stroke="midnightblue" d="M933.89,-616.32C945.15,-608.11 962.29,-595.6 975.71,-585.81"/>
<polygon fill="midnightblue" stroke="midnightblue" points="977.88,-588.56 983.89,-579.83 973.75,-582.9 977.88,-588.56"/>
</g>
<!-- Node44&#45;&gt;Node2 -->
<g id="edge63" class="edge">
<title>Node44&#45;&gt;Node2</title>
<path fill="none" stroke="midnightblue" d="M852.34,-508.42C981.06,-484.13 1549.8,-364.12 1382,-168 1307.39,-80.79 947.18,-68.36 799.93,-66.96"/>
<polygon fill="midnightblue" stroke="midnightblue" points="799.73,-63.46 789.7,-66.88 799.67,-70.46 799.73,-63.46"/>
</g>
<!-- Node44&#45;&gt;Node25 -->
<g id="edge64" class="edge">
<title>Node44&#45;&gt;Node25</title>
<path fill="none" stroke="midnightblue" d="M813.02,-504.43C780.38,-483.59 699.1,-426.74 662,-356 644.78,-323.16 642.2,-278.92 642.31,-254.04"/>
<polygon fill="midnightblue" stroke="midnightblue" points="645.81,-253.87 642.52,-243.8 638.82,-253.73 645.81,-253.87"/>
</g>
<!-- Node44&#45;&gt;Node31 -->
<g id="edge65" class="edge">
<title>Node44&#45;&gt;Node31</title>
<path fill="none" stroke="midnightblue" d="M827,-504.37C827,-486.62 827,-445.67 827,-421.6"/>
<polygon fill="midnightblue" stroke="midnightblue" points="830.5,-421.59 827,-411.59 823.5,-421.59 830.5,-421.59"/>
</g>
<!-- Node44&#45;&gt;Node42 -->
<g id="edge66" class="edge">
<title>Node44&#45;&gt;Node42</title>
<path fill="none" stroke="midnightblue" d="M801.77,-507.32C762.25,-498.43 685.08,-481.07 634.81,-469.76"/>
<polygon fill="midnightblue" stroke="midnightblue" points="635.35,-466.29 624.82,-467.51 633.81,-473.12 635.35,-466.29"/>
</g>
<!-- Node45&#45;&gt;Node44 -->
<g id="edge68" class="edge">
<title>Node45&#45;&gt;Node44</title>
<path fill="none" stroke="midnightblue" d="M827,-560.08C827,-553.01 827,-542.86 827,-533.99"/>
<polygon fill="midnightblue" stroke="midnightblue" points="830.5,-533.75 827,-523.75 823.5,-533.75 830.5,-533.75"/>
</g>
<!-- Node46&#45;&gt;Node44 -->
<g id="edge70" class="edge">
<title>Node46&#45;&gt;Node44</title>
<path fill="none" stroke="midnightblue" d="M906.74,-560.32C891.78,-551.82 868.75,-538.73 851.27,-528.8"/>
<polygon fill="midnightblue" stroke="midnightblue" points="852.65,-525.55 842.23,-523.65 849.19,-531.64 852.65,-525.55"/>
</g>
<!-- Node47&#45;&gt;Node44 -->
<g id="edge72" class="edge">
<title>Node47&#45;&gt;Node44</title>
<path fill="none" stroke="midnightblue" d="M969.22,-560.44C940.16,-551.16 893.66,-536.3 861.79,-526.12"/>
<polygon fill="midnightblue" stroke="midnightblue" points="862.59,-522.7 852,-522.99 860.46,-529.37 862.59,-522.7"/>
</g>
<!-- Node48&#45;&gt;Node2 -->
<g id="edge74" class="edge">
<title>Node48&#45;&gt;Node2</title>
<path fill="none" stroke="midnightblue" d="M1411.32,-504.41C1420.05,-486.2 1439,-442.18 1439,-403 1439,-403 1439,-403 1439,-177 1439,-113.59 1373.02,-129.25 1312,-112 1217.13,-85.17 927.99,-72.99 799.59,-68.8"/>
<polygon fill="midnightblue" stroke="midnightblue" points="799.62,-65.3 789.51,-68.47 799.4,-72.29 799.62,-65.3"/>
</g>
</g>
</svg>
        <g id="navigator" transform="translate(0 0)" fill="#404254">
                <rect fill="#f2f5e9" fill-opacity="0.5" stroke="#606060" stroke-width=".5" x="0" y="0" width="60" height="60"/>
                <use id="zoomplus" xlink:href="#zoomPlus" x="17" y="9" onmousedown="handleZoom(evt,'in')"/>
                <use id="zoomminus" xlink:href="#zoomMin" x="42" y="9" onmousedown="handleZoom(evt,'out')"/>
                <use id="reset" xlink:href="#resetDef" x="30" y="36" onmousedown="handleReset()"/>
                <g id="arrowUp" xlink:href="#dirArrow" transform="translate(30 24)" onmousedown="handlePan(0,-1)">
                  <use xlink:href="#rim" fill="#404040">
                        <set attributeName="fill" to="#808080" begin="arrowUp.mouseover" end="arrowUp.mouseout"/>
                  </use>
                  <path fill="none" stroke="white" stroke-width="1.5" d="M0,-3.0v7 M-2.5,-0.5L0,-3.0L2.5,-0.5"/>
                </g>
                <g id="arrowRight" xlink:href="#dirArrow" transform="rotate(90) translate(36 -43)" onmousedown="handlePan(1,0)">
                  <use xlink:href="#rim" fill="#404040">
                        <set attributeName="fill" to="#808080" begin="arrowRight.mouseover" end="arrowRight.mouseout"/>
                  </use>
                  <path fill="none" stroke="white" stroke-width="1.5" d="M0,-3.0v7 M-2.5,-0.5L0,-3.0L2.5,-0.5"/>
                </g>
                <g id="arrowDown" xlink:href="#dirArrow" transform="rotate(180) translate(-30 -48)" onmousedown="handlePan(0,1)">
                  <use xlink:href="#rim" fill="#404040">
                        <set attributeName="fill" to="#808080" begin="arrowDown.mouseover" end="arrowDown.mouseout"/>
                  </use>
                  <path fill="none" stroke="white" stroke-width="1.5" d="M0,-3.0v7 M-2.5,-0.5L0,-3.0L2.5,-0.5"/>
                </g>
                <g id="arrowLeft" xlink:href="#dirArrow" transform="rotate(270) translate(-36 17)" onmousedown="handlePan(-1,0)">
                  <use xlink:href="#rim" fill="#404040">
                        <set attributeName="fill" to="#808080" begin="arrowLeft.mouseover" end="arrowLeft.mouseout"/>
                  </use>
                  <path fill="none" stroke="white" stroke-width="1.5" d="M0,-3.0v7 M-2.5,-0.5L0,-3.0L2.5,-0.5"/>
                </g>
        </g>
        <svg viewBox="0 0 15 15" width="100%" height="30px" preserveAspectRatio="xMaxYMin meet">
         <g id="arrow_out" transform="scale(0.3 0.3)">
          <a xlink:href="SamplerOptions_8h__incl_org.svg" target="_base">
           <rect id="button" ry="5" rx="5" y="6" x="6" height="38" width="38"
                fill="#f2f5e9" fill-opacity="0.5" stroke="#606060" stroke-width="1.0"/>
           <path id="arrow"
             d="M 11.500037,31.436501 C 11.940474,20.09759 22.043105,11.32322 32.158766,21.979434 L 37.068811,17.246167 C 37.068811,17.246167 37.088388,32 37.088388,32 L 22.160133,31.978069 C 22.160133,31.978069 26.997745,27.140456 26.997745,27.140456 C 18.528582,18.264221 13.291696,25.230495 11.500037,31.436501 z"
             style="fill:#404040;"/>
          </a>
         </g>
        </svg>
</svg>
