<?xml version="1.0" encoding="UTF-8" standalone="no"?>
<!DOCTYPE svg PUBLIC "-//W3C//DTD SVG 1.1//EN"
 "http://www.w3.org/Graphics/SVG/1.1/DTD/svg11.dtd">
<!-- Generated by graphviz version 2.43.0 (0)
 -->
<!-- Title: FLMsamplerTraits Pages: 1 -->
<svg width="515pt" height="259pt"
 viewBox="0.00 0.00 514.50 259.00" xmlns="http://www.w3.org/2000/svg" xmlns:xlink="http://www.w3.org/1999/xlink">
<g id="graph0" class="graph" transform="scale(1 1) rotate(0) translate(4 255)">
<title>FLMsamplerTraits</title>
<polygon fill="white" stroke="transparent" points="-4,4 -4,-255 510.5,-255 510.5,4 -4,4"/>
<!-- Node1 -->
<g id="node1" class="node">
<title>Node1</title>
<g id="a_node1"><a xlink:title=" ">
<polygon fill="#bfbfbf" stroke="black" points="232,-193.5 232,-250.5 335,-250.5 335,-193.5 232,-193.5"/>
<text text-anchor="middle" x="283.5" y="-238.5" font-family="Helvetica,sans-Serif" font-size="10.00">FLMsamplerTraits</text>
<polyline fill="none" stroke="black" points="232,-231.5 335,-231.5 "/>
<text text-anchor="middle" x="283.5" y="-219.5" font-family="Helvetica,sans-Serif" font-size="10.00"> </text>
<polyline fill="none" stroke="black" points="232,-212.5 335,-212.5 "/>
<text text-anchor="middle" x="283.5" y="-200.5" font-family="Helvetica,sans-Serif" font-size="10.00"> </text>
</a>
</g>
</g>
<!-- Node2 -->
<g id="node2" class="node">
<title>Node2</title>
<g id="a_node2"><a xlink:href="classFLMHyperparameters.html" target="_top" xlink:title=" ">
<polygon fill="white" stroke="black" points="0,-0.5 0,-156.5 141,-156.5 141,-0.5 0,-0.5"/>
<text text-anchor="middle" x="70.5" y="-144.5" font-family="Helvetica,sans-Serif" font-size="10.00">FLMHyperparameters</text>
<polyline fill="none" stroke="black" points="0,-137.5 141,-137.5 "/>
<text text-anchor="start" x="8" y="-125.5" font-family="Helvetica,sans-Serif" font-size="10.00">+ a_tau_eps</text>
<text text-anchor="start" x="8" y="-114.5" font-family="Helvetica,sans-Serif" font-size="10.00">+ b_tau_eps</text>
<text text-anchor="start" x="8" y="-103.5" font-family="Helvetica,sans-Serif" font-size="10.00">+ sigma_mu</text>
<text text-anchor="start" x="8" y="-92.5" font-family="Helvetica,sans-Serif" font-size="10.00">+ a_tauK</text>
<text text-anchor="start" x="8" y="-81.5" font-family="Helvetica,sans-Serif" font-size="10.00">+ b_tauK</text>
<text text-anchor="start" x="8" y="-70.5" font-family="Helvetica,sans-Serif" font-size="10.00">+ bK</text>
<text text-anchor="start" x="8" y="-59.5" font-family="Helvetica,sans-Serif" font-size="10.00">+ DK</text>
<polyline fill="none" stroke="black" points="0,-52.5 141,-52.5 "/>
<text text-anchor="start" x="8" y="-40.5" font-family="Helvetica,sans-Serif" font-size="10.00">+ FLMHyperparameters()</text>
<text text-anchor="start" x="8" y="-29.5" font-family="Helvetica,sans-Serif" font-size="10.00">+ FLMHyperparameters()</text>
<text text-anchor="start" x="8" y="-18.5" font-family="Helvetica,sans-Serif" font-size="10.00">+ FLMHyperparameters()</text>
<text text-anchor="start" x="8" y="-7.5" font-family="Helvetica,sans-Serif" font-size="10.00">+ FLMHyperparameters()</text>
</a>
</g>
</g>
<!-- Node1&#45;&gt;Node2 -->
<g id="edge1" class="edge">
<title>Node1&#45;&gt;Node2</title>
<path fill="none" stroke="midnightblue" d="M222.41,-196.95C198.68,-186.32 171.88,-172.66 149.5,-157 146.67,-155.02 143.84,-152.93 141.04,-150.76"/>
<polygon fill="none" stroke="midnightblue" points="221.12,-200.21 231.69,-201.02 223.94,-193.8 221.12,-200.21"/>
</g>
<!-- Node3 -->
<g id="node3" class="node">
<title>Node3</title>
<g id="a_node3"><a xlink:href="classFLMParameters.html" target="_top" xlink:title=" ">
<polygon fill="white" stroke="black" points="159,-17 159,-140 270,-140 270,-17 159,-17"/>
<text text-anchor="middle" x="214.5" y="-128" font-family="Helvetica,sans-Serif" font-size="10.00">FLMParameters</text>
<polyline fill="none" stroke="black" points="159,-121 270,-121 "/>
<text text-anchor="start" x="167" y="-109" font-family="Helvetica,sans-Serif" font-size="10.00">+ niter</text>
<text text-anchor="start" x="167" y="-98" font-family="Helvetica,sans-Serif" font-size="10.00">+ nburn</text>
<text text-anchor="start" x="167" y="-87" font-family="Helvetica,sans-Serif" font-size="10.00">+ thin</text>
<text text-anchor="start" x="167" y="-76" font-family="Helvetica,sans-Serif" font-size="10.00">+ Basemat</text>
<text text-anchor="start" x="167" y="-65" font-family="Helvetica,sans-Serif" font-size="10.00">+ iter_to_store</text>
<text text-anchor="start" x="167" y="-54" font-family="Helvetica,sans-Serif" font-size="10.00">+ trGwishSampler</text>
<polyline fill="none" stroke="black" points="159,-47 270,-47 "/>
<text text-anchor="start" x="167" y="-35" font-family="Helvetica,sans-Serif" font-size="10.00">+ FLMParameters()</text>
<text text-anchor="start" x="167" y="-24" font-family="Helvetica,sans-Serif" font-size="10.00">+ FLMParameters()</text>
</a>
</g>
</g>
<!-- Node1&#45;&gt;Node3 -->
<g id="edge2" class="edge">
<title>Node1&#45;&gt;Node3</title>
<path fill="none" stroke="midnightblue" d="M265.47,-184.02C258.92,-170.6 251.35,-155.06 244.07,-140.13"/>
<polygon fill="none" stroke="midnightblue" points="262.5,-185.93 270.03,-193.38 268.8,-182.86 262.5,-185.93"/>
</g>
<!-- Node4 -->
<g id="node4" class="node">
<title>Node4</title>
<g id="a_node4"><a xlink:href="classFLMsampler.html" target="_top" xlink:title=" ">
<polygon fill="white" stroke="black" points="288.5,-44.5 288.5,-112.5 416.5,-112.5 416.5,-44.5 288.5,-44.5"/>
<text text-anchor="middle" x="352.5" y="-100.5" font-family="Helvetica,sans-Serif" font-size="10.00">FLMsampler&lt; Graph &gt;</text>
<polyline fill="none" stroke="black" points="288.5,-93.5 416.5,-93.5 "/>
<text text-anchor="middle" x="352.5" y="-81.5" font-family="Helvetica,sans-Serif" font-size="10.00"> </text>
<polyline fill="none" stroke="black" points="288.5,-74.5 416.5,-74.5 "/>
<text text-anchor="start" x="296.5" y="-62.5" font-family="Helvetica,sans-Serif" font-size="10.00">+ FLMsampler()</text>
<text text-anchor="start" x="296.5" y="-51.5" font-family="Helvetica,sans-Serif" font-size="10.00">+ run()</text>
</a>
</g>
</g>
<!-- Node1&#45;&gt;Node4 -->
<g id="edge3" class="edge">
<title>Node1&#45;&gt;Node4</title>
<path fill="none" stroke="midnightblue" d="M301.41,-184.26C312.24,-162.07 325.92,-134.01 336.4,-112.52"/>
<polygon fill="none" stroke="midnightblue" points="298.2,-182.86 296.97,-193.38 304.5,-185.93 298.2,-182.86"/>
</g>
<!-- Node5 -->
<g id="node5" class="node">
<title>Node5</title>
<g id="a_node5"><a xlink:href="classInitFLM.html" target="_top" xlink:title=" ">
<polygon fill="white" stroke="black" points="434.5,-0.5 434.5,-156.5 506.5,-156.5 506.5,-0.5 434.5,-0.5"/>
<text text-anchor="middle" x="470.5" y="-144.5" font-family="Helvetica,sans-Serif" font-size="10.00">InitFLM</text>
<polyline fill="none" stroke="black" points="434.5,-137.5 506.5,-137.5 "/>
<text text-anchor="start" x="442.5" y="-125.5" font-family="Helvetica,sans-Serif" font-size="10.00">+ Beta0</text>
<text text-anchor="start" x="442.5" y="-114.5" font-family="Helvetica,sans-Serif" font-size="10.00">+ mu0</text>
<text text-anchor="start" x="442.5" y="-103.5" font-family="Helvetica,sans-Serif" font-size="10.00">+ tau_eps0</text>
<text text-anchor="start" x="442.5" y="-92.5" font-family="Helvetica,sans-Serif" font-size="10.00">+ tauK0</text>
<text text-anchor="start" x="442.5" y="-81.5" font-family="Helvetica,sans-Serif" font-size="10.00">+ K0</text>
<text text-anchor="start" x="442.5" y="-70.5" font-family="Helvetica,sans-Serif" font-size="10.00">+ G</text>
<polyline fill="none" stroke="black" points="434.5,-63.5 506.5,-63.5 "/>
<text text-anchor="start" x="442.5" y="-51.5" font-family="Helvetica,sans-Serif" font-size="10.00">+ InitFLM()</text>
<text text-anchor="start" x="442.5" y="-40.5" font-family="Helvetica,sans-Serif" font-size="10.00">+ InitFLM()</text>
<text text-anchor="start" x="442.5" y="-29.5" font-family="Helvetica,sans-Serif" font-size="10.00">+ InitFLM()</text>
<text text-anchor="start" x="442.5" y="-18.5" font-family="Helvetica,sans-Serif" font-size="10.00">+ set_init()</text>
<text text-anchor="start" x="442.5" y="-7.5" font-family="Helvetica,sans-Serif" font-size="10.00">+ set_init()</text>
</a>
</g>
</g>
<!-- Node1&#45;&gt;Node5 -->
<g id="edge4" class="edge">
<title>Node1&#45;&gt;Node5</title>
<path fill="none" stroke="midnightblue" d="M344.98,-202.83C371.95,-192.6 402.61,-177.65 425.5,-157 428.62,-154.19 431.58,-151.1 434.38,-147.84"/>
<polygon fill="none" stroke="midnightblue" points="343.42,-199.67 335.23,-206.39 345.82,-206.25 343.42,-199.67"/>
</g>
</g>
</svg>
