<?xml version="1.0" encoding="UTF-8" standalone="no"?>
<!DOCTYPE svg PUBLIC "-//W3C//DTD SVG 1.1//EN"
 "http://www.w3.org/Graphics/SVG/1.1/DTD/svg11.dtd">
<!-- Generated by graphviz version 2.43.0 (0)
 -->
<!-- Title: GraphTypeTraits&lt; T &gt; Pages: 1 -->
<!--zoomable 613 -->
<svg id="main" version="1.1" xmlns="http://www.w3.org/2000/svg" xmlns:xlink="http://www.w3.org/1999/xlink" xml:space="preserve" onload="init(evt)">
<style type="text/css"><![CDATA[
.edge:hover path { stroke: red; }
.edge:hover polygon { stroke: red; fill: red; }
]]></style>
<script type="text/javascript"><![CDATA[
var edges = document.getElementsByTagName('g');
if (edges && edges.length) {
  for (var i=0;i<edges.length;i++) {
    if (edges[i].id.substr(0,4)=='edge') {
      edges[i].setAttribute('class','edge');
    }
  }
}
]]></script>
        <defs>
                <circle id="rim" cx="0" cy="0" r="7"/>
                <circle id="rim2" cx="0" cy="0" r="3.5"/>
                <g id="zoomPlus">
                        <use xlink:href="#rim" fill="#404040">
                                <set attributeName="fill" to="#808080" begin="zoomplus.mouseover" end="zoomplus.mouseout"/>
                        </use>
                        <path d="M-4,0h8M0,-4v8" fill="none" stroke="white" stroke-width="1.5" pointer-events="none"/>
                </g>
                <g id="zoomMin">
                        <use xlink:href="#rim" fill="#404040">
                                <set attributeName="fill" to="#808080" begin="zoomminus.mouseover" end="zoomminus.mouseout"/>
                        </use>
                        <path d="M-4,0h8" fill="none" stroke="white" stroke-width="1.5" pointer-events="none"/>
                </g>
                <g id="dirArrow">
                        <path fill="none" stroke="white" stroke-width="1.5" d="M0,-3.0v7 M-2.5,-0.5L0,-3.0L2.5,-0.5"/>
                </g>
               <g id="resetDef">
                       <use xlink:href="#rim2" fill="#404040">
                               <set attributeName="fill" to="#808080" begin="reset.mouseover" end="reset.mouseout"/>
                       </use>
               </g>
        </defs>

<script type="text/javascript">
var viewWidth = 208;
var viewHeight = 613;
var sectionId = 'dynsection-0';
</script>
<script xlink:href="svgpan.js"/>
<svg id="graph" class="graph">
<g id="viewport">
<title>GraphTypeTraits&lt; T &gt;</title>
<polygon fill="white" stroke="transparent" points="-4,4 -4,-609 203.5,-609 203.5,4 -4,4"/>
<!-- Node1 -->
<g id="node1" class="node">
<title>Node1</title>
<g id="a_node1"><a xlink:title=" ">
<polygon fill="#bfbfbf" stroke="black" points="52,-547.5 52,-604.5 175,-604.5 175,-547.5 52,-547.5"/>
<text text-anchor="middle" x="113.5" y="-592.5" font-family="Helvetica,sans-Serif" font-size="10.00">GraphTypeTraits&lt; T &gt;</text>
<polyline fill="none" stroke="black" points="52,-585.5 175,-585.5 "/>
<text text-anchor="middle" x="113.5" y="-573.5" font-family="Helvetica,sans-Serif" font-size="10.00"> </text>
<polyline fill="none" stroke="black" points="52,-566.5 175,-566.5 "/>
<text text-anchor="middle" x="113.5" y="-554.5" font-family="Helvetica,sans-Serif" font-size="10.00"> </text>
</a>
</g>
</g>
<!-- Node2 -->
<g id="node2" class="node">
<title>Node2</title>
<g id="a_node2"><a xlink:href="structGraphTypeTraits.html" target="_top" xlink:title=" ">
<polygon fill="white" stroke="black" points="38.5,-431.5 38.5,-499.5 188.5,-499.5 188.5,-431.5 38.5,-431.5"/>
<text text-anchor="start" x="46.5" y="-487.5" font-family="Helvetica,sans-Serif" font-size="10.00">GraphTypeTraits&lt; unsigned</text>
<text text-anchor="middle" x="113.5" y="-476.5" font-family="Helvetica,sans-Serif" font-size="10.00"> int &gt;</text>
<polyline fill="none" stroke="black" points="38.5,-469.5 188.5,-469.5 "/>
<text text-anchor="middle" x="113.5" y="-457.5" font-family="Helvetica,sans-Serif" font-size="10.00"> </text>
<polyline fill="none" stroke="black" points="38.5,-450.5 188.5,-450.5 "/>
<text text-anchor="middle" x="113.5" y="-438.5" font-family="Helvetica,sans-Serif" font-size="10.00"> </text>
</a>
</g>
</g>
<!-- Node1&#45;&gt;Node2 -->
<g id="edge1" class="edge">
<title>Node1&#45;&gt;Node2</title>
<path fill="none" stroke="orange" d="M113.5,-536.99C113.5,-524.77 113.5,-511.35 113.5,-499.52"/>
<polygon fill="orange" stroke="orange" points="110,-537.34 113.5,-547.34 117,-537.34 110,-537.34"/>
<text text-anchor="middle" x="156.5" y="-521" font-family="Helvetica,sans-Serif" font-size="10.00"> &lt; unsigned int &gt;</text>
</g>
<!-- Node3 -->
<g id="node3" class="node">
<title>Node3</title>
<g id="a_node3"><a xlink:href="classGraphType.html" target="_top" xlink:title=" ">
<polygon fill="white" stroke="black" points="0,-226.5 0,-393.5 127,-393.5 127,-226.5 0,-226.5"/>
<text text-anchor="middle" x="63.5" y="-381.5" font-family="Helvetica,sans-Serif" font-size="10.00">GraphType&lt; T &gt;</text>
<polyline fill="none" stroke="black" points="0,-374.5 127,-374.5 "/>
<text text-anchor="middle" x="63.5" y="-362.5" font-family="Helvetica,sans-Serif" font-size="10.00"> </text>
<polyline fill="none" stroke="black" points="0,-355.5 127,-355.5 "/>
<text text-anchor="start" x="8" y="-343.5" font-family="Helvetica,sans-Serif" font-size="10.00">+ GraphType()</text>
<text text-anchor="start" x="8" y="-332.5" font-family="Helvetica,sans-Serif" font-size="10.00">+ GraphType()</text>
<text text-anchor="start" x="8" y="-321.5" font-family="Helvetica,sans-Serif" font-size="10.00">+ GraphType()</text>
<text text-anchor="start" x="8" y="-310.5" font-family="Helvetica,sans-Serif" font-size="10.00">+ GraphType()</text>
<text text-anchor="start" x="8" y="-299.5" font-family="Helvetica,sans-Serif" font-size="10.00">+ get_graph()</text>
<text text-anchor="start" x="8" y="-288.5" font-family="Helvetica,sans-Serif" font-size="10.00">+ get_adj_list()</text>
<text text-anchor="start" x="8" y="-277.5" font-family="Helvetica,sans-Serif" font-size="10.00">+ get_size()</text>
<text text-anchor="start" x="8" y="-266.5" font-family="Helvetica,sans-Serif" font-size="10.00">+ get_complete_size()</text>
<text text-anchor="start" x="8" y="-255.5" font-family="Helvetica,sans-Serif" font-size="10.00">+ get_nbd()</text>
<text text-anchor="start" x="8" y="-244.5" font-family="Helvetica,sans-Serif" font-size="10.00">+ get_nbd()</text>
<text text-anchor="start" x="8" y="-233.5" font-family="Helvetica,sans-Serif" font-size="10.00">and 13 more...</text>
</a>
</g>
</g>
<!-- Node2&#45;&gt;Node3 -->
<g id="edge2" class="edge">
<title>Node2&#45;&gt;Node3</title>
<path fill="none" stroke="midnightblue" d="M99.53,-421.63C96.67,-412.85 93.57,-403.33 90.43,-393.68"/>
<polygon fill="none" stroke="midnightblue" points="96.23,-422.77 102.65,-431.19 102.88,-420.6 96.23,-422.77"/>
</g>
<!-- Node4 -->
<g id="node4" class="node">
<title>Node4</title>
<g id="a_node4"><a xlink:href="classGraphType.html" target="_top" xlink:title=" ">
<polygon fill="white" stroke="black" points="45,-0.5 45,-178.5 172,-178.5 172,-0.5 45,-0.5"/>
<text text-anchor="start" x="53" y="-166.5" font-family="Helvetica,sans-Serif" font-size="10.00">GraphType&lt; unsigned</text>
<text text-anchor="middle" x="108.5" y="-155.5" font-family="Helvetica,sans-Serif" font-size="10.00"> int &gt;</text>
<polyline fill="none" stroke="black" points="45,-148.5 172,-148.5 "/>
<text text-anchor="middle" x="108.5" y="-136.5" font-family="Helvetica,sans-Serif" font-size="10.00"> </text>
<polyline fill="none" stroke="black" points="45,-129.5 172,-129.5 "/>
<text text-anchor="start" x="53" y="-117.5" font-family="Helvetica,sans-Serif" font-size="10.00">+ GraphType()</text>
<text text-anchor="start" x="53" y="-106.5" font-family="Helvetica,sans-Serif" font-size="10.00">+ GraphType()</text>
<text text-anchor="start" x="53" y="-95.5" font-family="Helvetica,sans-Serif" font-size="10.00">+ GraphType()</text>
<text text-anchor="start" x="53" y="-84.5" font-family="Helvetica,sans-Serif" font-size="10.00">+ GraphType()</text>
<text text-anchor="start" x="53" y="-73.5" font-family="Helvetica,sans-Serif" font-size="10.00">+ get_graph()</text>
<text text-anchor="start" x="53" y="-62.5" font-family="Helvetica,sans-Serif" font-size="10.00">+ get_adj_list()</text>
<text text-anchor="start" x="53" y="-51.5" font-family="Helvetica,sans-Serif" font-size="10.00">+ get_size()</text>
<text text-anchor="start" x="53" y="-40.5" font-family="Helvetica,sans-Serif" font-size="10.00">+ get_complete_size()</text>
<text text-anchor="start" x="53" y="-29.5" font-family="Helvetica,sans-Serif" font-size="10.00">+ get_nbd()</text>
<text text-anchor="start" x="53" y="-18.5" font-family="Helvetica,sans-Serif" font-size="10.00">+ get_nbd()</text>
<text text-anchor="start" x="53" y="-7.5" font-family="Helvetica,sans-Serif" font-size="10.00">and 13 more...</text>
</a>
</g>
</g>
<!-- Node2&#45;&gt;Node4 -->
<g id="edge4" class="edge">
<title>Node2&#45;&gt;Node4</title>
<path fill="none" stroke="midnightblue" d="M128.73,-421.66C131.41,-412.63 133.87,-403.08 135.5,-394 151.03,-307.72 160.09,-283.45 145.5,-197 144.47,-190.92 143.14,-184.72 141.59,-178.53"/>
<polygon fill="none" stroke="midnightblue" points="125.38,-420.63 125.75,-431.22 132.07,-422.71 125.38,-420.63"/>
</g>
<!-- Node3&#45;&gt;Node4 -->
<g id="edge3" class="edge">
<title>Node3&#45;&gt;Node4</title>
<path fill="none" stroke="orange" d="M56.58,-216.07C57.2,-209.58 58.15,-203.17 59.5,-197 60.83,-190.94 62.54,-184.81 64.51,-178.71"/>
<polygon fill="orange" stroke="orange" points="53.07,-216.09 55.87,-226.31 60.06,-216.58 53.07,-216.09"/>
<text text-anchor="middle" x="102.5" y="-200" font-family="Helvetica,sans-Serif" font-size="10.00"> &lt; unsigned int &gt;</text>
</g>
</g>
</svg>
        <g id="navigator" transform="translate(0 0)" fill="#404254">
                <rect fill="#f2f5e9" fill-opacity="0.5" stroke="#606060" stroke-width=".5" x="0" y="0" width="60" height="60"/>
                <use id="zoomplus" xlink:href="#zoomPlus" x="17" y="9" onmousedown="handleZoom(evt,'in')"/>
                <use id="zoomminus" xlink:href="#zoomMin" x="42" y="9" onmousedown="handleZoom(evt,'out')"/>
                <use id="reset" xlink:href="#resetDef" x="30" y="36" onmousedown="handleReset()"/>
                <g id="arrowUp" xlink:href="#dirArrow" transform="translate(30 24)" onmousedown="handlePan(0,-1)">
                  <use xlink:href="#rim" fill="#404040">
                        <set attributeName="fill" to="#808080" begin="arrowUp.mouseover" end="arrowUp.mouseout"/>
                  </use>
                  <path fill="none" stroke="white" stroke-width="1.5" d="M0,-3.0v7 M-2.5,-0.5L0,-3.0L2.5,-0.5"/>
                </g>
                <g id="arrowRight" xlink:href="#dirArrow" transform="rotate(90) translate(36 -43)" onmousedown="handlePan(1,0)">
                  <use xlink:href="#rim" fill="#404040">
                        <set attributeName="fill" to="#808080" begin="arrowRight.mouseover" end="arrowRight.mouseout"/>
                  </use>
                  <path fill="none" stroke="white" stroke-width="1.5" d="M0,-3.0v7 M-2.5,-0.5L0,-3.0L2.5,-0.5"/>
                </g>
                <g id="arrowDown" xlink:href="#dirArrow" transform="rotate(180) translate(-30 -48)" onmousedown="handlePan(0,1)">
                  <use xlink:href="#rim" fill="#404040">
                        <set attributeName="fill" to="#808080" begin="arrowDown.mouseover" end="arrowDown.mouseout"/>
                  </use>
                  <path fill="none" stroke="white" stroke-width="1.5" d="M0,-3.0v7 M-2.5,-0.5L0,-3.0L2.5,-0.5"/>
                </g>
                <g id="arrowLeft" xlink:href="#dirArrow" transform="rotate(270) translate(-36 17)" onmousedown="handlePan(-1,0)">
                  <use xlink:href="#rim" fill="#404040">
                        <set attributeName="fill" to="#808080" begin="arrowLeft.mouseover" end="arrowLeft.mouseout"/>
                  </use>
                  <path fill="none" stroke="white" stroke-width="1.5" d="M0,-3.0v7 M-2.5,-0.5L0,-3.0L2.5,-0.5"/>
                </g>
        </g>
        <svg viewBox="0 0 15 15" width="100%" height="30px" preserveAspectRatio="xMaxYMin meet">
         <g id="arrow_out" transform="scale(0.3 0.3)">
          <a xlink:href="structGraphTypeTraits__inherit__graph_org.svg" target="_base">
           <rect id="button" ry="5" rx="5" y="6" x="6" height="38" width="38"
                fill="#f2f5e9" fill-opacity="0.5" stroke="#606060" stroke-width="1.0"/>
           <path id="arrow"
             d="M 11.500037,31.436501 C 11.940474,20.09759 22.043105,11.32322 32.158766,21.979434 L 37.068811,17.246167 C 37.068811,17.246167 37.088388,32 37.088388,32 L 22.160133,31.978069 C 22.160133,31.978069 26.997745,27.140456 26.997745,27.140456 C 18.528582,18.264221 13.291696,25.230495 11.500037,31.436501 z"
             style="fill:#404040;"/>
          </a>
         </g>
        </svg>
</svg>
