<?xml version="1.0" encoding="UTF-8" standalone="no"?>
<!DOCTYPE svg PUBLIC "-//W3C//DTD SVG 1.1//EN"
 "http://www.w3.org/Graphics/SVG/1.1/DTD/svg11.dtd">
<!-- Generated by graphviz version 2.43.0 (0)
 -->
<!-- Title: SamplerTraits Pages: 1 -->
<!--zoomable 530 -->
<svg id="main" version="1.1" xmlns="http://www.w3.org/2000/svg" xmlns:xlink="http://www.w3.org/1999/xlink" xml:space="preserve" onload="init(evt)">
<style type="text/css"><![CDATA[
.edge:hover path { stroke: red; }
.edge:hover polygon { stroke: red; fill: red; }
]]></style>
<script type="text/javascript"><![CDATA[
var edges = document.getElementsByTagName('g');
if (edges && edges.length) {
  for (var i=0;i<edges.length;i++) {
    if (edges[i].id.substr(0,4)=='edge') {
      edges[i].setAttribute('class','edge');
    }
  }
}
]]></script>
        <defs>
                <circle id="rim" cx="0" cy="0" r="7"/>
                <circle id="rim2" cx="0" cy="0" r="3.5"/>
                <g id="zoomPlus">
                        <use xlink:href="#rim" fill="#404040">
                                <set attributeName="fill" to="#808080" begin="zoomplus.mouseover" end="zoomplus.mouseout"/>
                        </use>
                        <path d="M-4,0h8M0,-4v8" fill="none" stroke="white" stroke-width="1.5" pointer-events="none"/>
                </g>
                <g id="zoomMin">
                        <use xlink:href="#rim" fill="#404040">
                                <set attributeName="fill" to="#808080" begin="zoomminus.mouseover" end="zoomminus.mouseout"/>
                        </use>
                        <path d="M-4,0h8" fill="none" stroke="white" stroke-width="1.5" pointer-events="none"/>
                </g>
                <g id="dirArrow">
                        <path fill="none" stroke="white" stroke-width="1.5" d="M0,-3.0v7 M-2.5,-0.5L0,-3.0L2.5,-0.5"/>
                </g>
               <g id="resetDef">
                       <use xlink:href="#rim2" fill="#404040">
                               <set attributeName="fill" to="#808080" begin="reset.mouseover" end="reset.mouseout"/>
                       </use>
               </g>
        </defs>

<script type="text/javascript">
var viewWidth = 1037;
var viewHeight = 530;
var sectionId = 'dynsection-0';
</script>
<script xlink:href="svgpan.js"/>
<svg id="graph" class="graph">
<g id="viewport">
<title>SamplerTraits</title>
<polygon fill="white" stroke="transparent" points="-4,4 -4,-526 1032.5,-526 1032.5,4 -4,4"/>
<!-- Node1 -->
<g id="node1" class="node">
<title>Node1</title>
<g id="a_node1"><a xlink:title=" ">
<polygon fill="#bfbfbf" stroke="black" points="606,-464.5 606,-521.5 689,-521.5 689,-464.5 606,-464.5"/>
<text text-anchor="middle" x="647.5" y="-509.5" font-family="Helvetica,sans-Serif" font-size="10.00">SamplerTraits</text>
<polyline fill="none" stroke="black" points="606,-502.5 689,-502.5 "/>
<text text-anchor="middle" x="647.5" y="-490.5" font-family="Helvetica,sans-Serif" font-size="10.00"> </text>
<polyline fill="none" stroke="black" points="606,-483.5 689,-483.5 "/>
<text text-anchor="middle" x="647.5" y="-471.5" font-family="Helvetica,sans-Serif" font-size="10.00"> </text>
</a>
</g>
</g>
<!-- Node2 -->
<g id="node2" class="node">
<title>Node2</title>
<g id="a_node2"><a xlink:href="classFGMsampler.html" target="_top" xlink:title=" ">
<polygon fill="white" stroke="black" points="0,-270.5 0,-349.5 167,-349.5 167,-270.5 0,-270.5"/>
<text text-anchor="start" x="8" y="-337.5" font-family="Helvetica,sans-Serif" font-size="10.00">FGMsampler&lt; GraphStructure,</text>
<text text-anchor="middle" x="83.5" y="-326.5" font-family="Helvetica,sans-Serif" font-size="10.00"> T, RetGraph &gt;</text>
<polyline fill="none" stroke="black" points="0,-319.5 167,-319.5 "/>
<text text-anchor="middle" x="83.5" y="-307.5" font-family="Helvetica,sans-Serif" font-size="10.00"> </text>
<polyline fill="none" stroke="black" points="0,-300.5 167,-300.5 "/>
<text text-anchor="start" x="8" y="-288.5" font-family="Helvetica,sans-Serif" font-size="10.00">+ FGMsampler()</text>
<text text-anchor="start" x="8" y="-277.5" font-family="Helvetica,sans-Serif" font-size="10.00">+ run()</text>
</a>
</g>
</g>
<!-- Node1&#45;&gt;Node2 -->
<g id="edge1" class="edge">
<title>Node1&#45;&gt;Node2</title>
<path fill="none" stroke="midnightblue" d="M595.55,-489.64C488.46,-484.02 247.28,-467.16 176.5,-427 144.96,-409.1 120.02,-375.91 103.95,-349.6"/>
<polygon fill="none" stroke="midnightblue" points="595.62,-493.15 605.79,-490.17 595.98,-486.16 595.62,-493.15"/>
</g>
<!-- Node3 -->
<g id="node3" class="node">
<title>Node3</title>
<g id="a_node3"><a xlink:href="classFGMsamplerDegub.html" target="_top" xlink:title=" ">
<polygon fill="white" stroke="black" points="185.5,-265 185.5,-355 383.5,-355 383.5,-265 185.5,-265"/>
<text text-anchor="start" x="193.5" y="-343" font-family="Helvetica,sans-Serif" font-size="10.00">FGMsamplerDegub&lt; GraphStructure,</text>
<text text-anchor="middle" x="284.5" y="-332" font-family="Helvetica,sans-Serif" font-size="10.00"> T, RetGraph &gt;</text>
<polyline fill="none" stroke="black" points="185.5,-325 383.5,-325 "/>
<text text-anchor="middle" x="284.5" y="-313" font-family="Helvetica,sans-Serif" font-size="10.00"> </text>
<polyline fill="none" stroke="black" points="185.5,-306 383.5,-306 "/>
<text text-anchor="start" x="193.5" y="-294" font-family="Helvetica,sans-Serif" font-size="10.00">+ FGMsamplerDegub()</text>
<text text-anchor="start" x="193.5" y="-283" font-family="Helvetica,sans-Serif" font-size="10.00">+ run()</text>
<text text-anchor="start" x="193.5" y="-272" font-family="Helvetica,sans-Serif" font-size="10.00">+ PointwiseEstimate()</text>
</a>
</g>
</g>
<!-- Node1&#45;&gt;Node3 -->
<g id="edge2" class="edge">
<title>Node1&#45;&gt;Node3</title>
<path fill="none" stroke="midnightblue" d="M595.88,-487.48C541.92,-480.86 456.36,-464.88 392.5,-427 362.09,-408.96 335,-379.81 315.55,-355.24"/>
<polygon fill="none" stroke="midnightblue" points="595.57,-490.97 605.9,-488.65 596.38,-484.01 595.57,-490.97"/>
</g>
<!-- Node4 -->
<g id="node4" class="node">
<title>Node4</title>
<g id="a_node4"><a xlink:href="classGGMsampler.html" target="_top" xlink:title=" ">
<polygon fill="white" stroke="black" points="401.5,-270.5 401.5,-349.5 569.5,-349.5 569.5,-270.5 401.5,-270.5"/>
<text text-anchor="start" x="409.5" y="-337.5" font-family="Helvetica,sans-Serif" font-size="10.00">GGMsampler&lt; GraphStructure,</text>
<text text-anchor="middle" x="485.5" y="-326.5" font-family="Helvetica,sans-Serif" font-size="10.00"> T, RetGraph &gt;</text>
<polyline fill="none" stroke="black" points="401.5,-319.5 569.5,-319.5 "/>
<text text-anchor="middle" x="485.5" y="-307.5" font-family="Helvetica,sans-Serif" font-size="10.00"> </text>
<polyline fill="none" stroke="black" points="401.5,-300.5 569.5,-300.5 "/>
<text text-anchor="start" x="409.5" y="-288.5" font-family="Helvetica,sans-Serif" font-size="10.00">+ GGMsampler()</text>
<text text-anchor="start" x="409.5" y="-277.5" font-family="Helvetica,sans-Serif" font-size="10.00">+ run()</text>
</a>
</g>
</g>
<!-- Node1&#45;&gt;Node4 -->
<g id="edge3" class="edge">
<title>Node1&#45;&gt;Node4</title>
<path fill="none" stroke="midnightblue" d="M608.45,-457.69C598.08,-448.06 587.11,-437.38 577.5,-427 554.72,-402.38 531.26,-372.71 513.73,-349.55"/>
<polygon fill="none" stroke="midnightblue" points="606.13,-460.31 615.86,-464.5 610.86,-455.15 606.13,-460.31"/>
</g>
<!-- Node5 -->
<g id="node5" class="node">
<title>Node5</title>
<g id="a_node5"><a xlink:href="classHyperparameters.html" target="_top" xlink:title=" ">
<polygon fill="white" stroke="black" points="587,-226.5 587,-393.5 708,-393.5 708,-226.5 587,-226.5"/>
<text text-anchor="middle" x="647.5" y="-381.5" font-family="Helvetica,sans-Serif" font-size="10.00">Hyperparameters</text>
<polyline fill="none" stroke="black" points="587,-374.5 708,-374.5 "/>
<text text-anchor="start" x="595" y="-362.5" font-family="Helvetica,sans-Serif" font-size="10.00">+ a_tau_eps</text>
<text text-anchor="start" x="595" y="-351.5" font-family="Helvetica,sans-Serif" font-size="10.00">+ b_tau_eps</text>
<text text-anchor="start" x="595" y="-340.5" font-family="Helvetica,sans-Serif" font-size="10.00">+ sigma_mu</text>
<text text-anchor="start" x="595" y="-329.5" font-family="Helvetica,sans-Serif" font-size="10.00">+ b_K</text>
<text text-anchor="start" x="595" y="-318.5" font-family="Helvetica,sans-Serif" font-size="10.00">+ D_K</text>
<text text-anchor="start" x="595" y="-307.5" font-family="Helvetica,sans-Serif" font-size="10.00">+ p_addrm</text>
<text text-anchor="start" x="595" y="-296.5" font-family="Helvetica,sans-Serif" font-size="10.00">+ sigmaG</text>
<text text-anchor="start" x="595" y="-285.5" font-family="Helvetica,sans-Serif" font-size="10.00">+ Gprior</text>
<polyline fill="none" stroke="black" points="587,-278.5 708,-278.5 "/>
<text text-anchor="start" x="595" y="-266.5" font-family="Helvetica,sans-Serif" font-size="10.00">+ Hyperparameters()</text>
<text text-anchor="start" x="595" y="-255.5" font-family="Helvetica,sans-Serif" font-size="10.00">+ Hyperparameters()</text>
<text text-anchor="start" x="595" y="-244.5" font-family="Helvetica,sans-Serif" font-size="10.00">+ Hyperparameters()</text>
<text text-anchor="start" x="595" y="-233.5" font-family="Helvetica,sans-Serif" font-size="10.00">+ Hyperparameters()</text>
</a>
</g>
</g>
<!-- Node1&#45;&gt;Node5 -->
<g id="edge4" class="edge">
<title>Node1&#45;&gt;Node5</title>
<path fill="none" stroke="midnightblue" d="M647.5,-453.75C647.5,-436.22 647.5,-414.71 647.5,-393.75"/>
<polygon fill="none" stroke="midnightblue" points="644,-454.12 647.5,-464.12 651,-454.12 644,-454.12"/>
</g>
<!-- Node6 -->
<g id="node6" class="node">
<title>Node6</title>
<g id="a_node6"><a xlink:href="classInit.html" target="_top" xlink:title=" ">
<polygon fill="white" stroke="black" points="726.5,-248.5 726.5,-371.5 866.5,-371.5 866.5,-248.5 726.5,-248.5"/>
<text text-anchor="middle" x="796.5" y="-359.5" font-family="Helvetica,sans-Serif" font-size="10.00">Init&lt; GraphStructure, T &gt;</text>
<polyline fill="none" stroke="black" points="726.5,-352.5 866.5,-352.5 "/>
<text text-anchor="start" x="734.5" y="-340.5" font-family="Helvetica,sans-Serif" font-size="10.00">+ Beta0</text>
<text text-anchor="start" x="734.5" y="-329.5" font-family="Helvetica,sans-Serif" font-size="10.00">+ mu0</text>
<text text-anchor="start" x="734.5" y="-318.5" font-family="Helvetica,sans-Serif" font-size="10.00">+ tau_eps0</text>
<text text-anchor="start" x="734.5" y="-307.5" font-family="Helvetica,sans-Serif" font-size="10.00">+ K0</text>
<text text-anchor="start" x="734.5" y="-296.5" font-family="Helvetica,sans-Serif" font-size="10.00">+ G0</text>
<polyline fill="none" stroke="black" points="726.5,-289.5 866.5,-289.5 "/>
<text text-anchor="start" x="734.5" y="-277.5" font-family="Helvetica,sans-Serif" font-size="10.00">+ Init()</text>
<text text-anchor="start" x="734.5" y="-266.5" font-family="Helvetica,sans-Serif" font-size="10.00">+ Init()</text>
<text text-anchor="start" x="734.5" y="-255.5" font-family="Helvetica,sans-Serif" font-size="10.00">+ set_init()</text>
</a>
</g>
</g>
<!-- Node1&#45;&gt;Node6 -->
<g id="edge5" class="edge">
<title>Node1&#45;&gt;Node6</title>
<path fill="none" stroke="midnightblue" d="M687.3,-457.22C697.25,-447.81 707.61,-437.35 716.5,-427 731.24,-409.83 745.77,-389.93 758.33,-371.5"/>
<polygon fill="none" stroke="midnightblue" points="684.74,-454.83 679.8,-464.2 689.5,-459.95 684.74,-454.83"/>
</g>
<!-- Node7 -->
<g id="node7" class="node">
<title>Node7</title>
<g id="a_node7"><a xlink:href="classInit.html" target="_top" xlink:title=" ">
<polygon fill="white" stroke="black" points="755.5,-0.5 755.5,-134.5 901.5,-134.5 901.5,-0.5 755.5,-0.5"/>
<text text-anchor="start" x="763.5" y="-122.5" font-family="Helvetica,sans-Serif" font-size="10.00">Init&lt; GraphType, unsigned</text>
<text text-anchor="middle" x="828.5" y="-111.5" font-family="Helvetica,sans-Serif" font-size="10.00"> int &gt;</text>
<polyline fill="none" stroke="black" points="755.5,-104.5 901.5,-104.5 "/>
<text text-anchor="start" x="763.5" y="-92.5" font-family="Helvetica,sans-Serif" font-size="10.00">+ Beta0</text>
<text text-anchor="start" x="763.5" y="-81.5" font-family="Helvetica,sans-Serif" font-size="10.00">+ mu0</text>
<text text-anchor="start" x="763.5" y="-70.5" font-family="Helvetica,sans-Serif" font-size="10.00">+ tau_eps0</text>
<text text-anchor="start" x="763.5" y="-59.5" font-family="Helvetica,sans-Serif" font-size="10.00">+ K0</text>
<text text-anchor="start" x="763.5" y="-48.5" font-family="Helvetica,sans-Serif" font-size="10.00">+ G0</text>
<polyline fill="none" stroke="black" points="755.5,-41.5 901.5,-41.5 "/>
<text text-anchor="start" x="763.5" y="-29.5" font-family="Helvetica,sans-Serif" font-size="10.00">+ Init()</text>
<text text-anchor="start" x="763.5" y="-18.5" font-family="Helvetica,sans-Serif" font-size="10.00">+ Init()</text>
<text text-anchor="start" x="763.5" y="-7.5" font-family="Helvetica,sans-Serif" font-size="10.00">+ set_init()</text>
</a>
</g>
</g>
<!-- Node1&#45;&gt;Node7 -->
<g id="edge7" class="edge">
<title>Node1&#45;&gt;Node7</title>
<path fill="none" stroke="midnightblue" d="M699.51,-484.42C759.92,-474.43 854.07,-454.82 875.5,-427 912.67,-378.76 897.09,-211.6 880.5,-153 878.76,-146.87 876.44,-140.74 873.74,-134.75"/>
<polygon fill="none" stroke="midnightblue" points="698.69,-481 689.38,-486.05 699.81,-487.91 698.69,-481"/>
</g>
<!-- Node8 -->
<g id="node8" class="node">
<title>Node8</title>
<g id="a_node8"><a xlink:href="classParameters.html" target="_top" xlink:title=" ">
<polygon fill="white" stroke="black" points="922.5,-193.5 922.5,-426.5 1028.5,-426.5 1028.5,-193.5 922.5,-193.5"/>
<text text-anchor="middle" x="975.5" y="-414.5" font-family="Helvetica,sans-Serif" font-size="10.00">Parameters</text>
<polyline fill="none" stroke="black" points="922.5,-407.5 1028.5,-407.5 "/>
<text text-anchor="start" x="930.5" y="-395.5" font-family="Helvetica,sans-Serif" font-size="10.00">+ niter</text>
<text text-anchor="start" x="930.5" y="-384.5" font-family="Helvetica,sans-Serif" font-size="10.00">+ nburn</text>
<text text-anchor="start" x="930.5" y="-373.5" font-family="Helvetica,sans-Serif" font-size="10.00">+ thin</text>
<text text-anchor="start" x="930.5" y="-362.5" font-family="Helvetica,sans-Serif" font-size="10.00">+ thinG</text>
<text text-anchor="start" x="930.5" y="-351.5" font-family="Helvetica,sans-Serif" font-size="10.00">+ MCiterPrior</text>
<text text-anchor="start" x="930.5" y="-340.5" font-family="Helvetica,sans-Serif" font-size="10.00">+ MCiterPost</text>
<text text-anchor="start" x="930.5" y="-329.5" font-family="Helvetica,sans-Serif" font-size="10.00">+ Basemat</text>
<text text-anchor="start" x="930.5" y="-318.5" font-family="Helvetica,sans-Serif" font-size="10.00">+ ptr_groups</text>
<text text-anchor="start" x="930.5" y="-307.5" font-family="Helvetica,sans-Serif" font-size="10.00">+ iter_to_store</text>
<text text-anchor="start" x="930.5" y="-296.5" font-family="Helvetica,sans-Serif" font-size="10.00">+ iter_to_storeG</text>
<text text-anchor="start" x="930.5" y="-285.5" font-family="Helvetica,sans-Serif" font-size="10.00">+ trGwishSampler</text>
<polyline fill="none" stroke="black" points="922.5,-278.5 1028.5,-278.5 "/>
<text text-anchor="start" x="930.5" y="-266.5" font-family="Helvetica,sans-Serif" font-size="10.00">+ Parameters()</text>
<text text-anchor="start" x="930.5" y="-255.5" font-family="Helvetica,sans-Serif" font-size="10.00">+ Parameters()</text>
<text text-anchor="start" x="930.5" y="-244.5" font-family="Helvetica,sans-Serif" font-size="10.00">+ Parameters()</text>
<text text-anchor="start" x="930.5" y="-233.5" font-family="Helvetica,sans-Serif" font-size="10.00">+ Parameters()</text>
<text text-anchor="start" x="930.5" y="-222.5" font-family="Helvetica,sans-Serif" font-size="10.00">+ Parameters()</text>
<text text-anchor="start" x="930.5" y="-211.5" font-family="Helvetica,sans-Serif" font-size="10.00">+ Parameters()</text>
<text text-anchor="start" x="930.5" y="-200.5" font-family="Helvetica,sans-Serif" font-size="10.00">+ Parameters()</text>
</a>
</g>
</g>
<!-- Node1&#45;&gt;Node8 -->
<g id="edge8" class="edge">
<title>Node1&#45;&gt;Node8</title>
<path fill="none" stroke="midnightblue" d="M699.52,-488.35C765.97,-482.78 876.24,-470.13 908.5,-446 915.94,-440.44 922.6,-433.82 928.56,-426.55"/>
<polygon fill="none" stroke="midnightblue" points="698.94,-484.89 689.25,-489.19 699.5,-491.87 698.94,-484.89"/>
</g>
<!-- Node6&#45;&gt;Node7 -->
<g id="edge6" class="edge">
<title>Node6&#45;&gt;Node7</title>
<path fill="none" stroke="orange" d="M765.75,-238.65C757.98,-211.5 754.17,-180.43 763.5,-153 765.62,-146.78 768.39,-140.66 771.61,-134.73"/>
<polygon fill="orange" stroke="orange" points="762.49,-239.94 768.78,-248.46 769.18,-237.88 762.49,-239.94"/>
<text text-anchor="start" x="763.5" y="-167" font-family="Helvetica,sans-Serif" font-size="10.00"> &lt; GraphType, unsigned</text>
<text text-anchor="middle" x="822" y="-156" font-family="Helvetica,sans-Serif" font-size="10.00"> int &gt;</text>
</g>
</g>
</svg>
        <g id="navigator" transform="translate(0 0)" fill="#404254">
                <rect fill="#f2f5e9" fill-opacity="0.5" stroke="#606060" stroke-width=".5" x="0" y="0" width="60" height="60"/>
                <use id="zoomplus" xlink:href="#zoomPlus" x="17" y="9" onmousedown="handleZoom(evt,'in')"/>
                <use id="zoomminus" xlink:href="#zoomMin" x="42" y="9" onmousedown="handleZoom(evt,'out')"/>
                <use id="reset" xlink:href="#resetDef" x="30" y="36" onmousedown="handleReset()"/>
                <g id="arrowUp" xlink:href="#dirArrow" transform="translate(30 24)" onmousedown="handlePan(0,-1)">
                  <use xlink:href="#rim" fill="#404040">
                        <set attributeName="fill" to="#808080" begin="arrowUp.mouseover" end="arrowUp.mouseout"/>
                  </use>
                  <path fill="none" stroke="white" stroke-width="1.5" d="M0,-3.0v7 M-2.5,-0.5L0,-3.0L2.5,-0.5"/>
                </g>
                <g id="arrowRight" xlink:href="#dirArrow" transform="rotate(90) translate(36 -43)" onmousedown="handlePan(1,0)">
                  <use xlink:href="#rim" fill="#404040">
                        <set attributeName="fill" to="#808080" begin="arrowRight.mouseover" end="arrowRight.mouseout"/>
                  </use>
                  <path fill="none" stroke="white" stroke-width="1.5" d="M0,-3.0v7 M-2.5,-0.5L0,-3.0L2.5,-0.5"/>
                </g>
                <g id="arrowDown" xlink:href="#dirArrow" transform="rotate(180) translate(-30 -48)" onmousedown="handlePan(0,1)">
                  <use xlink:href="#rim" fill="#404040">
                        <set attributeName="fill" to="#808080" begin="arrowDown.mouseover" end="arrowDown.mouseout"/>
                  </use>
                  <path fill="none" stroke="white" stroke-width="1.5" d="M0,-3.0v7 M-2.5,-0.5L0,-3.0L2.5,-0.5"/>
                </g>
                <g id="arrowLeft" xlink:href="#dirArrow" transform="rotate(270) translate(-36 17)" onmousedown="handlePan(-1,0)">
                  <use xlink:href="#rim" fill="#404040">
                        <set attributeName="fill" to="#808080" begin="arrowLeft.mouseover" end="arrowLeft.mouseout"/>
                  </use>
                  <path fill="none" stroke="white" stroke-width="1.5" d="M0,-3.0v7 M-2.5,-0.5L0,-3.0L2.5,-0.5"/>
                </g>
        </g>
        <svg viewBox="0 0 15 15" width="100%" height="30px" preserveAspectRatio="xMaxYMin meet">
         <g id="arrow_out" transform="scale(0.3 0.3)">
          <a xlink:href="structSamplerTraits__inherit__graph_org.svg" target="_base">
           <rect id="button" ry="5" rx="5" y="6" x="6" height="38" width="38"
                fill="#f2f5e9" fill-opacity="0.5" stroke="#606060" stroke-width="1.0"/>
           <path id="arrow"
             d="M 11.500037,31.436501 C 11.940474,20.09759 22.043105,11.32322 32.158766,21.979434 L 37.068811,17.246167 C 37.068811,17.246167 37.088388,32 37.088388,32 L 22.160133,31.978069 C 22.160133,31.978069 26.997745,27.140456 26.997745,27.140456 C 18.528582,18.264221 13.291696,25.230495 11.500037,31.436501 z"
             style="fill:#404040;"/>
          </a>
         </g>
        </svg>
</svg>
