<?xml version="1.0" encoding="UTF-8" standalone="no"?>
<!DOCTYPE svg PUBLIC "-//W3C//DTD SVG 1.1//EN"
 "http://www.w3.org/Graphics/SVG/1.1/DTD/svg11.dtd">
<!-- Generated by graphviz version 2.43.0 (0)
 -->
<!-- Title: GGMTraits&lt; GraphStructure, T &gt; Pages: 1 -->
<!--zoomable 1229 -->
<svg id="main" version="1.1" xmlns="http://www.w3.org/2000/svg" xmlns:xlink="http://www.w3.org/1999/xlink" xml:space="preserve" onload="init(evt)">
<style type="text/css"><![CDATA[
.edge:hover path { stroke: red; }
.edge:hover polygon { stroke: red; fill: red; }
]]></style>
<script type="text/javascript"><![CDATA[
var edges = document.getElementsByTagName('g');
if (edges && edges.length) {
  for (var i=0;i<edges.length;i++) {
    if (edges[i].id.substr(0,4)=='edge') {
      edges[i].setAttribute('class','edge');
    }
  }
}
]]></script>
        <defs>
                <circle id="rim" cx="0" cy="0" r="7"/>
                <circle id="rim2" cx="0" cy="0" r="3.5"/>
                <g id="zoomPlus">
                        <use xlink:href="#rim" fill="#404040">
                                <set attributeName="fill" to="#808080" begin="zoomplus.mouseover" end="zoomplus.mouseout"/>
                        </use>
                        <path d="M-4,0h8M0,-4v8" fill="none" stroke="white" stroke-width="1.5" pointer-events="none"/>
                </g>
                <g id="zoomMin">
                        <use xlink:href="#rim" fill="#404040">
                                <set attributeName="fill" to="#808080" begin="zoomminus.mouseover" end="zoomminus.mouseout"/>
                        </use>
                        <path d="M-4,0h8" fill="none" stroke="white" stroke-width="1.5" pointer-events="none"/>
                </g>
                <g id="dirArrow">
                        <path fill="none" stroke="white" stroke-width="1.5" d="M0,-3.0v7 M-2.5,-0.5L0,-3.0L2.5,-0.5"/>
                </g>
               <g id="resetDef">
                       <use xlink:href="#rim2" fill="#404040">
                               <set attributeName="fill" to="#808080" begin="reset.mouseover" end="reset.mouseout"/>
                       </use>
               </g>
        </defs>

<script type="text/javascript">
var viewWidth = 568;
var viewHeight = 1229;
var sectionId = 'dynsection-0';
</script>
<script xlink:href="svgpan.js"/>
<svg id="graph" class="graph">
<g id="viewport">
<title>GGMTraits&lt; GraphStructure, T &gt;</title>
<polygon fill="white" stroke="transparent" points="-4,4 -4,-1225 564,-1225 564,4 -4,4"/>
<!-- Node1 -->
<g id="node1" class="node">
<title>Node1</title>
<g id="a_node1"><a xlink:title=" ">
<polygon fill="#bfbfbf" stroke="black" points="302.5,-1163.5 302.5,-1220.5 477.5,-1220.5 477.5,-1163.5 302.5,-1163.5"/>
<text text-anchor="middle" x="390" y="-1208.5" font-family="Helvetica,sans-Serif" font-size="10.00">GGMTraits&lt; GraphStructure, T &gt;</text>
<polyline fill="none" stroke="black" points="302.5,-1201.5 477.5,-1201.5 "/>
<text text-anchor="middle" x="390" y="-1189.5" font-family="Helvetica,sans-Serif" font-size="10.00"> </text>
<polyline fill="none" stroke="black" points="302.5,-1182.5 477.5,-1182.5 "/>
<text text-anchor="middle" x="390" y="-1170.5" font-family="Helvetica,sans-Serif" font-size="10.00"> </text>
</a>
</g>
</g>
<!-- Node2 -->
<g id="node2" class="node">
<title>Node2</title>
<g id="a_node2"><a xlink:href="structGGMTraits.html" target="_top" xlink:title=" ">
<polygon fill="white" stroke="black" points="235.5,-1036.5 235.5,-1104.5 368.5,-1104.5 368.5,-1036.5 235.5,-1036.5"/>
<text text-anchor="start" x="243.5" y="-1092.5" font-family="Helvetica,sans-Serif" font-size="10.00">GGMTraits&lt; GraphType,</text>
<text text-anchor="middle" x="302" y="-1081.5" font-family="Helvetica,sans-Serif" font-size="10.00"> unsigned int &gt;</text>
<polyline fill="none" stroke="black" points="235.5,-1074.5 368.5,-1074.5 "/>
<text text-anchor="middle" x="302" y="-1062.5" font-family="Helvetica,sans-Serif" font-size="10.00"> </text>
<polyline fill="none" stroke="black" points="235.5,-1055.5 368.5,-1055.5 "/>
<text text-anchor="middle" x="302" y="-1043.5" font-family="Helvetica,sans-Serif" font-size="10.00"> </text>
</a>
</g>
</g>
<!-- Node1&#45;&gt;Node2 -->
<g id="edge1" class="edge">
<title>Node1&#45;&gt;Node2</title>
<path fill="none" stroke="orange" d="M339.89,-1156.27C336.29,-1152.71 332.93,-1148.94 330,-1145 321.11,-1133.06 314.71,-1117.97 310.3,-1104.57"/>
<polygon fill="orange" stroke="orange" points="337.8,-1159.11 347.54,-1163.29 342.54,-1153.95 337.8,-1159.11"/>
<text text-anchor="start" x="330" y="-1137" font-family="Helvetica,sans-Serif" font-size="10.00"> &lt; GraphType, unsigned</text>
<text text-anchor="middle" x="388.5" y="-1126" font-family="Helvetica,sans-Serif" font-size="10.00"> int &gt;</text>
</g>
<!-- Node11 -->
<g id="node11" class="node">
<title>Node11</title>
<g id="a_node11"><a xlink:href="structGGMTraits.html" target="_top" xlink:title=" ">
<polygon fill="white" stroke="black" points="396.5,-960.5 396.5,-1017.5 549.5,-1017.5 549.5,-960.5 396.5,-960.5"/>
<text text-anchor="middle" x="473" y="-1005.5" font-family="Helvetica,sans-Serif" font-size="10.00">GGMTraits&lt; GraphType, T &gt;</text>
<polyline fill="none" stroke="black" points="396.5,-998.5 549.5,-998.5 "/>
<text text-anchor="middle" x="473" y="-986.5" font-family="Helvetica,sans-Serif" font-size="10.00"> </text>
<polyline fill="none" stroke="black" points="396.5,-979.5 549.5,-979.5 "/>
<text text-anchor="middle" x="473" y="-967.5" font-family="Helvetica,sans-Serif" font-size="10.00"> </text>
</a>
</g>
</g>
<!-- Node1&#45;&gt;Node11 -->
<g id="edge12" class="edge">
<title>Node1&#45;&gt;Node11</title>
<path fill="none" stroke="orange" d="M439.01,-1156.01C442.02,-1152.55 444.74,-1148.87 447,-1145 470.27,-1105.19 474.15,-1050.39 474.1,-1017.74"/>
<polygon fill="orange" stroke="orange" points="436.45,-1153.62 432.02,-1163.25 441.48,-1158.49 436.45,-1153.62"/>
<text text-anchor="middle" x="503" y="-1131.5" font-family="Helvetica,sans-Serif" font-size="10.00"> &lt; GraphType, T &gt;</text>
</g>
<!-- Node3 -->
<g id="node3" class="node">
<title>Node3</title>
<g id="a_node3"><a xlink:href="classGGM.html" target="_top" xlink:title=" ">
<polygon fill="white" stroke="black" points="227.5,-730.5 227.5,-941.5 376.5,-941.5 376.5,-730.5 227.5,-730.5"/>
<text text-anchor="middle" x="302" y="-929.5" font-family="Helvetica,sans-Serif" font-size="10.00">GGM&lt; GraphStructure, T &gt;</text>
<polyline fill="none" stroke="black" points="227.5,-922.5 376.5,-922.5 "/>
<text text-anchor="start" x="235.5" y="-910.5" font-family="Helvetica,sans-Serif" font-size="10.00"># ptr_prior</text>
<text text-anchor="start" x="235.5" y="-899.5" font-family="Helvetica,sans-Serif" font-size="10.00"># Kprior</text>
<text text-anchor="start" x="235.5" y="-888.5" font-family="Helvetica,sans-Serif" font-size="10.00"># trGwishSampler</text>
<text text-anchor="start" x="235.5" y="-877.5" font-family="Helvetica,sans-Serif" font-size="10.00"># selected_link</text>
<polyline fill="none" stroke="black" points="227.5,-870.5 376.5,-870.5 "/>
<text text-anchor="start" x="235.5" y="-858.5" font-family="Helvetica,sans-Serif" font-size="10.00">+ GGM()</text>
<text text-anchor="start" x="235.5" y="-847.5" font-family="Helvetica,sans-Serif" font-size="10.00">+ GGM()</text>
<text text-anchor="start" x="235.5" y="-836.5" font-family="Helvetica,sans-Serif" font-size="10.00">+ GGM()</text>
<text text-anchor="start" x="235.5" y="-825.5" font-family="Helvetica,sans-Serif" font-size="10.00">+ GGM()</text>
<text text-anchor="start" x="235.5" y="-814.5" font-family="Helvetica,sans-Serif" font-size="10.00">+ operator=()</text>
<text text-anchor="start" x="235.5" y="-803.5" font-family="Helvetica,sans-Serif" font-size="10.00">+ operator=()</text>
<text text-anchor="start" x="235.5" y="-792.5" font-family="Helvetica,sans-Serif" font-size="10.00">+ get_shape()</text>
<text text-anchor="start" x="235.5" y="-781.5" font-family="Helvetica,sans-Serif" font-size="10.00">+ get_inv_scale()</text>
<text text-anchor="start" x="235.5" y="-770.5" font-family="Helvetica,sans-Serif" font-size="10.00">+ init_precision()</text>
<text text-anchor="start" x="235.5" y="-759.5" font-family="Helvetica,sans-Serif" font-size="10.00">+ propose_new_graph()</text>
<text text-anchor="start" x="235.5" y="-748.5" font-family="Helvetica,sans-Serif" font-size="10.00">+ operator()()</text>
<text text-anchor="start" x="235.5" y="-737.5" font-family="Helvetica,sans-Serif" font-size="10.00">+ ~GGM()</text>
</a>
</g>
</g>
<!-- Node2&#45;&gt;Node3 -->
<g id="edge2" class="edge">
<title>Node2&#45;&gt;Node3</title>
<path fill="none" stroke="midnightblue" d="M302,-1026.05C302,-1002.12 302,-971.32 302,-941.55"/>
<polygon fill="none" stroke="midnightblue" points="298.5,-1026.19 302,-1036.19 305.5,-1026.19 298.5,-1026.19"/>
</g>
<!-- Node4 -->
<g id="node4" class="node">
<title>Node4</title>
<g id="a_node4"><a xlink:href="classGGM.html" target="_top" xlink:title=" ">
<polygon fill="white" stroke="black" points="121,-449.5 121,-671.5 275,-671.5 275,-449.5 121,-449.5"/>
<text text-anchor="start" x="129" y="-659.5" font-family="Helvetica,sans-Serif" font-size="10.00">GGM&lt; GraphType, unsigned</text>
<text text-anchor="middle" x="198" y="-648.5" font-family="Helvetica,sans-Serif" font-size="10.00"> int &gt;</text>
<polyline fill="none" stroke="black" points="121,-641.5 275,-641.5 "/>
<text text-anchor="start" x="129" y="-629.5" font-family="Helvetica,sans-Serif" font-size="10.00"># ptr_prior</text>
<text text-anchor="start" x="129" y="-618.5" font-family="Helvetica,sans-Serif" font-size="10.00"># Kprior</text>
<text text-anchor="start" x="129" y="-607.5" font-family="Helvetica,sans-Serif" font-size="10.00"># trGwishSampler</text>
<text text-anchor="start" x="129" y="-596.5" font-family="Helvetica,sans-Serif" font-size="10.00"># selected_link</text>
<polyline fill="none" stroke="black" points="121,-589.5 275,-589.5 "/>
<text text-anchor="start" x="129" y="-577.5" font-family="Helvetica,sans-Serif" font-size="10.00">+ GGM()</text>
<text text-anchor="start" x="129" y="-566.5" font-family="Helvetica,sans-Serif" font-size="10.00">+ GGM()</text>
<text text-anchor="start" x="129" y="-555.5" font-family="Helvetica,sans-Serif" font-size="10.00">+ GGM()</text>
<text text-anchor="start" x="129" y="-544.5" font-family="Helvetica,sans-Serif" font-size="10.00">+ GGM()</text>
<text text-anchor="start" x="129" y="-533.5" font-family="Helvetica,sans-Serif" font-size="10.00">+ operator=()</text>
<text text-anchor="start" x="129" y="-522.5" font-family="Helvetica,sans-Serif" font-size="10.00">+ operator=()</text>
<text text-anchor="start" x="129" y="-511.5" font-family="Helvetica,sans-Serif" font-size="10.00">+ get_shape()</text>
<text text-anchor="start" x="129" y="-500.5" font-family="Helvetica,sans-Serif" font-size="10.00">+ get_inv_scale()</text>
<text text-anchor="start" x="129" y="-489.5" font-family="Helvetica,sans-Serif" font-size="10.00">+ init_precision()</text>
<text text-anchor="start" x="129" y="-478.5" font-family="Helvetica,sans-Serif" font-size="10.00">+ propose_new_graph()</text>
<text text-anchor="start" x="129" y="-467.5" font-family="Helvetica,sans-Serif" font-size="10.00">+ operator()()</text>
<text text-anchor="start" x="129" y="-456.5" font-family="Helvetica,sans-Serif" font-size="10.00">+ ~GGM()</text>
</a>
</g>
</g>
<!-- Node2&#45;&gt;Node4 -->
<g id="edge11" class="edge">
<title>Node2&#45;&gt;Node4</title>
<path fill="none" stroke="midnightblue" d="M266.75,-1028.37C248.69,-1004.73 228.36,-973.54 218,-942 189.19,-854.33 185.84,-749.22 188.76,-671.71"/>
<polygon fill="none" stroke="midnightblue" points="264.11,-1030.68 273.03,-1036.4 269.63,-1026.37 264.11,-1030.68"/>
</g>
<!-- Node3&#45;&gt;Node4 -->
<g id="edge3" class="edge">
<title>Node3&#45;&gt;Node4</title>
<path fill="none" stroke="orange" d="M235.72,-721.14C234.42,-718.09 233.18,-715.04 232,-712 227.01,-699.14 222.66,-685.36 218.88,-671.55"/>
<polygon fill="orange" stroke="orange" points="232.53,-722.58 239.77,-730.32 238.93,-719.76 232.53,-722.58"/>
<text text-anchor="start" x="232" y="-704" font-family="Helvetica,sans-Serif" font-size="10.00"> &lt; GraphType, unsigned</text>
<text text-anchor="middle" x="290.5" y="-693" font-family="Helvetica,sans-Serif" font-size="10.00"> int &gt;</text>
</g>
<!-- Node9 -->
<g id="node9" class="node">
<title>Node9</title>
<g id="a_node9"><a xlink:href="classGGM.html" target="_top" xlink:title=" ">
<polygon fill="white" stroke="black" points="409.5,-455 409.5,-666 542.5,-666 542.5,-455 409.5,-455"/>
<text text-anchor="middle" x="476" y="-654" font-family="Helvetica,sans-Serif" font-size="10.00">GGM&lt; GraphType, T &gt;</text>
<polyline fill="none" stroke="black" points="409.5,-647 542.5,-647 "/>
<text text-anchor="start" x="417.5" y="-635" font-family="Helvetica,sans-Serif" font-size="10.00"># ptr_prior</text>
<text text-anchor="start" x="417.5" y="-624" font-family="Helvetica,sans-Serif" font-size="10.00"># Kprior</text>
<text text-anchor="start" x="417.5" y="-613" font-family="Helvetica,sans-Serif" font-size="10.00"># trGwishSampler</text>
<text text-anchor="start" x="417.5" y="-602" font-family="Helvetica,sans-Serif" font-size="10.00"># selected_link</text>
<polyline fill="none" stroke="black" points="409.5,-595 542.5,-595 "/>
<text text-anchor="start" x="417.5" y="-583" font-family="Helvetica,sans-Serif" font-size="10.00">+ GGM()</text>
<text text-anchor="start" x="417.5" y="-572" font-family="Helvetica,sans-Serif" font-size="10.00">+ GGM()</text>
<text text-anchor="start" x="417.5" y="-561" font-family="Helvetica,sans-Serif" font-size="10.00">+ GGM()</text>
<text text-anchor="start" x="417.5" y="-550" font-family="Helvetica,sans-Serif" font-size="10.00">+ GGM()</text>
<text text-anchor="start" x="417.5" y="-539" font-family="Helvetica,sans-Serif" font-size="10.00">+ operator=()</text>
<text text-anchor="start" x="417.5" y="-528" font-family="Helvetica,sans-Serif" font-size="10.00">+ operator=()</text>
<text text-anchor="start" x="417.5" y="-517" font-family="Helvetica,sans-Serif" font-size="10.00">+ get_shape()</text>
<text text-anchor="start" x="417.5" y="-506" font-family="Helvetica,sans-Serif" font-size="10.00">+ get_inv_scale()</text>
<text text-anchor="start" x="417.5" y="-495" font-family="Helvetica,sans-Serif" font-size="10.00">+ init_precision()</text>
<text text-anchor="start" x="417.5" y="-484" font-family="Helvetica,sans-Serif" font-size="10.00">+ propose_new_graph()</text>
<text text-anchor="start" x="417.5" y="-473" font-family="Helvetica,sans-Serif" font-size="10.00">+ operator()()</text>
<text text-anchor="start" x="417.5" y="-462" font-family="Helvetica,sans-Serif" font-size="10.00">+ ~GGM()</text>
</a>
</g>
</g>
<!-- Node3&#45;&gt;Node9 -->
<g id="edge9" class="edge">
<title>Node3&#45;&gt;Node9</title>
<path fill="none" stroke="orange" d="M353.71,-721.36C359.55,-710.57 365.69,-699.96 372,-690 383.14,-672.43 396.31,-654.5 409.47,-637.83"/>
<polygon fill="orange" stroke="orange" points="350.48,-719.97 348.87,-730.45 356.66,-723.26 350.48,-719.97"/>
<text text-anchor="middle" x="417" y="-698.5" font-family="Helvetica,sans-Serif" font-size="10.00"> &lt; GraphType, T &gt;</text>
</g>
<!-- Node5 -->
<g id="node5" class="node">
<title>Node5</title>
<g id="a_node5"><a xlink:href="classAddRemoveMH.html" target="_top" xlink:title=" ">
<polygon fill="white" stroke="black" points="208,-299.5 208,-411.5 408,-411.5 408,-299.5 208,-299.5"/>
<text text-anchor="middle" x="308" y="-399.5" font-family="Helvetica,sans-Serif" font-size="10.00">AddRemoveMH&lt; GraphStructure, T &gt;</text>
<polyline fill="none" stroke="black" points="208,-392.5 408,-392.5 "/>
<text text-anchor="start" x="216" y="-380.5" font-family="Helvetica,sans-Serif" font-size="10.00"># MCiterPrior</text>
<text text-anchor="start" x="216" y="-369.5" font-family="Helvetica,sans-Serif" font-size="10.00"># MCiterPost</text>
<text text-anchor="start" x="216" y="-358.5" font-family="Helvetica,sans-Serif" font-size="10.00"># negative_infinity</text>
<text text-anchor="start" x="216" y="-347.5" font-family="Helvetica,sans-Serif" font-size="10.00"># infinity</text>
<polyline fill="none" stroke="black" points="208,-340.5 408,-340.5 "/>
<text text-anchor="start" x="216" y="-328.5" font-family="Helvetica,sans-Serif" font-size="10.00">+ AddRemoveMH()</text>
<text text-anchor="start" x="216" y="-317.5" font-family="Helvetica,sans-Serif" font-size="10.00">+ AddRemoveMH()</text>
<text text-anchor="start" x="216" y="-306.5" font-family="Helvetica,sans-Serif" font-size="10.00">+ operator()()</text>
</a>
</g>
</g>
<!-- Node4&#45;&gt;Node5 -->
<g id="edge4" class="edge">
<title>Node4&#45;&gt;Node5</title>
<path fill="none" stroke="midnightblue" d="M262.45,-440.56C267.87,-430.57 273.15,-420.81 278.1,-411.68"/>
<polygon fill="none" stroke="midnightblue" points="259.35,-438.93 257.67,-449.39 265.51,-442.26 259.35,-438.93"/>
</g>
<!-- Node6 -->
<g id="node6" class="node">
<title>Node6</title>
<g id="a_node6"><a xlink:href="classReversibleJumpsMH.html" target="_top" xlink:title=" ">
<polygon fill="white" stroke="black" points="0,-299.5 0,-411.5 134,-411.5 134,-299.5 0,-299.5"/>
<text text-anchor="start" x="8" y="-399.5" font-family="Helvetica,sans-Serif" font-size="10.00">ReversibleJumpsMH&lt;</text>
<text text-anchor="middle" x="67" y="-388.5" font-family="Helvetica,sans-Serif" font-size="10.00"> GraphStructure, T &gt;</text>
<polyline fill="none" stroke="black" points="0,-381.5 134,-381.5 "/>
<text text-anchor="start" x="8" y="-369.5" font-family="Helvetica,sans-Serif" font-size="10.00"># sigma</text>
<text text-anchor="start" x="8" y="-358.5" font-family="Helvetica,sans-Serif" font-size="10.00"># MCiterPrior</text>
<polyline fill="none" stroke="black" points="0,-351.5 134,-351.5 "/>
<text text-anchor="start" x="8" y="-339.5" font-family="Helvetica,sans-Serif" font-size="10.00">+ ReversibleJumpsMH()</text>
<text text-anchor="start" x="8" y="-328.5" font-family="Helvetica,sans-Serif" font-size="10.00">+ ReversibleJumpsMH()</text>
<text text-anchor="start" x="8" y="-317.5" font-family="Helvetica,sans-Serif" font-size="10.00">+ RJ()</text>
<text text-anchor="start" x="8" y="-306.5" font-family="Helvetica,sans-Serif" font-size="10.00">+ operator()()</text>
</a>
</g>
</g>
<!-- Node4&#45;&gt;Node6 -->
<g id="edge5" class="edge">
<title>Node4&#45;&gt;Node6</title>
<path fill="none" stroke="midnightblue" d="M121.44,-440.86C114.92,-430.76 108.56,-420.9 102.61,-411.68"/>
<polygon fill="none" stroke="midnightblue" points="118.58,-442.88 126.94,-449.39 124.46,-439.09 118.58,-442.88"/>
</g>
<!-- Node7 -->
<g id="node7" class="node">
<title>Node7</title>
<g id="a_node7"><a xlink:href="classReversibleJumpsMH.html" target="_top" xlink:title=" ">
<polygon fill="white" stroke="black" points="39.5,-128.5 39.5,-240.5 188.5,-240.5 188.5,-128.5 39.5,-128.5"/>
<text text-anchor="start" x="47.5" y="-228.5" font-family="Helvetica,sans-Serif" font-size="10.00">ReversibleJumpsMH&lt;</text>
<text text-anchor="middle" x="114" y="-217.5" font-family="Helvetica,sans-Serif" font-size="10.00"> GraphType, unsigned int &gt;</text>
<polyline fill="none" stroke="black" points="39.5,-210.5 188.5,-210.5 "/>
<text text-anchor="start" x="47.5" y="-198.5" font-family="Helvetica,sans-Serif" font-size="10.00"># sigma</text>
<text text-anchor="start" x="47.5" y="-187.5" font-family="Helvetica,sans-Serif" font-size="10.00"># MCiterPrior</text>
<polyline fill="none" stroke="black" points="39.5,-180.5 188.5,-180.5 "/>
<text text-anchor="start" x="47.5" y="-168.5" font-family="Helvetica,sans-Serif" font-size="10.00">+ ReversibleJumpsMH()</text>
<text text-anchor="start" x="47.5" y="-157.5" font-family="Helvetica,sans-Serif" font-size="10.00">+ ReversibleJumpsMH()</text>
<text text-anchor="start" x="47.5" y="-146.5" font-family="Helvetica,sans-Serif" font-size="10.00">+ RJ()</text>
<text text-anchor="start" x="47.5" y="-135.5" font-family="Helvetica,sans-Serif" font-size="10.00">+ operator()()</text>
</a>
</g>
</g>
<!-- Node4&#45;&gt;Node7 -->
<g id="edge8" class="edge">
<title>Node4&#45;&gt;Node7</title>
<path fill="none" stroke="midnightblue" d="M199.04,-439.32C196.08,-383.01 187.5,-315.96 166,-259 163.68,-252.86 160.72,-246.75 157.4,-240.84"/>
<polygon fill="none" stroke="midnightblue" points="195.55,-439.51 199.52,-449.34 202.54,-439.18 195.55,-439.51"/>
</g>
<!-- Node6&#45;&gt;Node7 -->
<g id="edge6" class="edge">
<title>Node6&#45;&gt;Node7</title>
<path fill="none" stroke="orange" d="M45.21,-289.12C44.49,-278.87 45.39,-268.53 49,-259 51.41,-252.63 54.66,-246.45 58.42,-240.57"/>
<polygon fill="orange" stroke="orange" points="41.77,-289.79 46.44,-299.3 48.72,-288.95 41.77,-289.79"/>
<text text-anchor="start" x="49" y="-273" font-family="Helvetica,sans-Serif" font-size="10.00"> &lt; GraphType, unsigned</text>
<text text-anchor="middle" x="107.5" y="-262" font-family="Helvetica,sans-Serif" font-size="10.00"> int &gt;</text>
</g>
<!-- Node8 -->
<g id="node8" class="node">
<title>Node8</title>
<g id="a_node8"><a xlink:href="classDoubleReversibleJumpsMH.html" target="_top" xlink:title=" ">
<polygon fill="white" stroke="black" points="30,-0.5 30,-90.5 198,-90.5 198,-0.5 30,-0.5"/>
<text text-anchor="start" x="38" y="-78.5" font-family="Helvetica,sans-Serif" font-size="10.00">DoubleReversibleJumpsMH</text>
<text text-anchor="middle" x="114" y="-67.5" font-family="Helvetica,sans-Serif" font-size="10.00">&lt; GraphStructure, T &gt;</text>
<polyline fill="none" stroke="black" points="30,-60.5 198,-60.5 "/>
<text text-anchor="start" x="38" y="-48.5" font-family="Helvetica,sans-Serif" font-size="10.00"># Waux</text>
<polyline fill="none" stroke="black" points="30,-41.5 198,-41.5 "/>
<text text-anchor="start" x="38" y="-29.5" font-family="Helvetica,sans-Serif" font-size="10.00">+ DoubleReversibleJumpsMH()</text>
<text text-anchor="start" x="38" y="-18.5" font-family="Helvetica,sans-Serif" font-size="10.00">+ DoubleReversibleJumpsMH()</text>
<text text-anchor="start" x="38" y="-7.5" font-family="Helvetica,sans-Serif" font-size="10.00">+ operator()()</text>
</a>
</g>
</g>
<!-- Node7&#45;&gt;Node8 -->
<g id="edge7" class="edge">
<title>Node7&#45;&gt;Node8</title>
<path fill="none" stroke="midnightblue" d="M114,-118.13C114,-108.83 114,-99.44 114,-90.67"/>
<polygon fill="none" stroke="midnightblue" points="110.5,-118.17 114,-128.17 117.5,-118.17 110.5,-118.17"/>
</g>
<!-- Node10 -->
<g id="node10" class="node">
<title>Node10</title>
<g id="a_node10"><a xlink:href="classReversibleJumpsMH_3_01GraphType_00_01T_01_4.html" target="_top" xlink:title=" ">
<polygon fill="white" stroke="black" points="426,-299.5 426,-411.5 560,-411.5 560,-299.5 426,-299.5"/>
<text text-anchor="start" x="434" y="-399.5" font-family="Helvetica,sans-Serif" font-size="10.00">ReversibleJumpsMH&lt;</text>
<text text-anchor="middle" x="493" y="-388.5" font-family="Helvetica,sans-Serif" font-size="10.00"> GraphType, T &gt;</text>
<polyline fill="none" stroke="black" points="426,-381.5 560,-381.5 "/>
<text text-anchor="start" x="434" y="-369.5" font-family="Helvetica,sans-Serif" font-size="10.00"># sigma</text>
<text text-anchor="start" x="434" y="-358.5" font-family="Helvetica,sans-Serif" font-size="10.00"># MCiterPrior</text>
<polyline fill="none" stroke="black" points="426,-351.5 560,-351.5 "/>
<text text-anchor="start" x="434" y="-339.5" font-family="Helvetica,sans-Serif" font-size="10.00">+ ReversibleJumpsMH()</text>
<text text-anchor="start" x="434" y="-328.5" font-family="Helvetica,sans-Serif" font-size="10.00">+ ReversibleJumpsMH()</text>
<text text-anchor="start" x="434" y="-317.5" font-family="Helvetica,sans-Serif" font-size="10.00">+ RJ()</text>
<text text-anchor="start" x="434" y="-306.5" font-family="Helvetica,sans-Serif" font-size="10.00">+ operator()()</text>
</a>
</g>
</g>
<!-- Node9&#45;&gt;Node10 -->
<g id="edge10" class="edge">
<title>Node9&#45;&gt;Node10</title>
<path fill="none" stroke="midnightblue" d="M485.62,-444.61C486.58,-433.15 487.52,-421.92 488.39,-411.52"/>
<polygon fill="none" stroke="midnightblue" points="482.12,-444.47 484.77,-454.73 489.1,-445.06 482.12,-444.47"/>
</g>
<!-- Node11&#45;&gt;Node9 -->
<g id="edge13" class="edge">
<title>Node11&#45;&gt;Node9</title>
<path fill="none" stroke="midnightblue" d="M473.27,-950.08C473.71,-887.01 474.61,-758.44 475.26,-666.45"/>
<polygon fill="none" stroke="midnightblue" points="469.77,-950.32 473.19,-960.34 476.76,-950.37 469.77,-950.32"/>
</g>
</g>
</svg>
        <g id="navigator" transform="translate(0 0)" fill="#404254">
                <rect fill="#f2f5e9" fill-opacity="0.5" stroke="#606060" stroke-width=".5" x="0" y="0" width="60" height="60"/>
                <use id="zoomplus" xlink:href="#zoomPlus" x="17" y="9" onmousedown="handleZoom(evt,'in')"/>
                <use id="zoomminus" xlink:href="#zoomMin" x="42" y="9" onmousedown="handleZoom(evt,'out')"/>
                <use id="reset" xlink:href="#resetDef" x="30" y="36" onmousedown="handleReset()"/>
                <g id="arrowUp" xlink:href="#dirArrow" transform="translate(30 24)" onmousedown="handlePan(0,-1)">
                  <use xlink:href="#rim" fill="#404040">
                        <set attributeName="fill" to="#808080" begin="arrowUp.mouseover" end="arrowUp.mouseout"/>
                  </use>
                  <path fill="none" stroke="white" stroke-width="1.5" d="M0,-3.0v7 M-2.5,-0.5L0,-3.0L2.5,-0.5"/>
                </g>
                <g id="arrowRight" xlink:href="#dirArrow" transform="rotate(90) translate(36 -43)" onmousedown="handlePan(1,0)">
                  <use xlink:href="#rim" fill="#404040">
                        <set attributeName="fill" to="#808080" begin="arrowRight.mouseover" end="arrowRight.mouseout"/>
                  </use>
                  <path fill="none" stroke="white" stroke-width="1.5" d="M0,-3.0v7 M-2.5,-0.5L0,-3.0L2.5,-0.5"/>
                </g>
                <g id="arrowDown" xlink:href="#dirArrow" transform="rotate(180) translate(-30 -48)" onmousedown="handlePan(0,1)">
                  <use xlink:href="#rim" fill="#404040">
                        <set attributeName="fill" to="#808080" begin="arrowDown.mouseover" end="arrowDown.mouseout"/>
                  </use>
                  <path fill="none" stroke="white" stroke-width="1.5" d="M0,-3.0v7 M-2.5,-0.5L0,-3.0L2.5,-0.5"/>
                </g>
                <g id="arrowLeft" xlink:href="#dirArrow" transform="rotate(270) translate(-36 17)" onmousedown="handlePan(-1,0)">
                  <use xlink:href="#rim" fill="#404040">
                        <set attributeName="fill" to="#808080" begin="arrowLeft.mouseover" end="arrowLeft.mouseout"/>
                  </use>
                  <path fill="none" stroke="white" stroke-width="1.5" d="M0,-3.0v7 M-2.5,-0.5L0,-3.0L2.5,-0.5"/>
                </g>
        </g>
        <svg viewBox="0 0 15 15" width="100%" height="30px" preserveAspectRatio="xMaxYMin meet">
         <g id="arrow_out" transform="scale(0.3 0.3)">
          <a xlink:href="structGGMTraits__inherit__graph_org.svg" target="_base">
           <rect id="button" ry="5" rx="5" y="6" x="6" height="38" width="38"
                fill="#f2f5e9" fill-opacity="0.5" stroke="#606060" stroke-width="1.0"/>
           <path id="arrow"
             d="M 11.500037,31.436501 C 11.940474,20.09759 22.043105,11.32322 32.158766,21.979434 L 37.068811,17.246167 C 37.068811,17.246167 37.088388,32 37.088388,32 L 22.160133,31.978069 C 22.160133,31.978069 26.997745,27.140456 26.997745,27.140456 C 18.528582,18.264221 13.291696,25.230495 11.500037,31.436501 z"
             style="fill:#404040;"/>
          </a>
         </g>
        </svg>
</svg>
