<?xml version="1.0" encoding="UTF-8" standalone="no"?>
<!DOCTYPE svg PUBLIC "-//W3C//DTD SVG 1.1//EN"
 "http://www.w3.org/Graphics/SVG/1.1/DTD/svg11.dtd">
<!-- Generated by graphviz version 2.43.0 (0)
 -->
<!-- Title: GraphTypeTraits&lt; T &gt; Pages: 1 -->
<svg width="208pt" height="613pt"
 viewBox="0.00 0.00 207.50 613.00" xmlns="http://www.w3.org/2000/svg" xmlns:xlink="http://www.w3.org/1999/xlink">
<g id="graph0" class="graph" transform="scale(1 1) rotate(0) translate(4 609)">
<title>GraphTypeTraits&lt; T &gt;</title>
<polygon fill="white" stroke="transparent" points="-4,4 -4,-609 203.5,-609 203.5,4 -4,4"/>
<!-- Node1 -->
<g id="node1" class="node">
<title>Node1</title>
<g id="a_node1"><a xlink:title=" ">
<polygon fill="#bfbfbf" stroke="black" points="52,-547.5 52,-604.5 175,-604.5 175,-547.5 52,-547.5"/>
<text text-anchor="middle" x="113.5" y="-592.5" font-family="Helvetica,sans-Serif" font-size="10.00">GraphTypeTraits&lt; T &gt;</text>
<polyline fill="none" stroke="black" points="52,-585.5 175,-585.5 "/>
<text text-anchor="middle" x="113.5" y="-573.5" font-family="Helvetica,sans-Serif" font-size="10.00"> </text>
<polyline fill="none" stroke="black" points="52,-566.5 175,-566.5 "/>
<text text-anchor="middle" x="113.5" y="-554.5" font-family="Helvetica,sans-Serif" font-size="10.00"> </text>
</a>
</g>
</g>
<!-- Node2 -->
<g id="node2" class="node">
<title>Node2</title>
<g id="a_node2"><a xlink:href="structGraphTypeTraits.html" target="_top" xlink:title=" ">
<polygon fill="white" stroke="black" points="38.5,-431.5 38.5,-499.5 188.5,-499.5 188.5,-431.5 38.5,-431.5"/>
<text text-anchor="start" x="46.5" y="-487.5" font-family="Helvetica,sans-Serif" font-size="10.00">GraphTypeTraits&lt; unsigned</text>
<text text-anchor="middle" x="113.5" y="-476.5" font-family="Helvetica,sans-Serif" font-size="10.00"> int &gt;</text>
<polyline fill="none" stroke="black" points="38.5,-469.5 188.5,-469.5 "/>
<text text-anchor="middle" x="113.5" y="-457.5" font-family="Helvetica,sans-Serif" font-size="10.00"> </text>
<polyline fill="none" stroke="black" points="38.5,-450.5 188.5,-450.5 "/>
<text text-anchor="middle" x="113.5" y="-438.5" font-family="Helvetica,sans-Serif" font-size="10.00"> </text>
</a>
</g>
</g>
<!-- Node1&#45;&gt;Node2 -->
<g id="edge1" class="edge">
<title>Node1&#45;&gt;Node2</title>
<path fill="none" stroke="orange" d="M113.5,-536.99C113.5,-524.77 113.5,-511.35 113.5,-499.52"/>
<polygon fill="orange" stroke="orange" points="110,-537.34 113.5,-547.34 117,-537.34 110,-537.34"/>
<text text-anchor="middle" x="156.5" y="-521" font-family="Helvetica,sans-Serif" font-size="10.00"> &lt; unsigned int &gt;</text>
</g>
<!-- Node3 -->
<g id="node3" class="node">
<title>Node3</title>
<g id="a_node3"><a xlink:href="classGraphType.html" target="_top" xlink:title=" ">
<polygon fill="white" stroke="black" points="0,-226.5 0,-393.5 127,-393.5 127,-226.5 0,-226.5"/>
<text text-anchor="middle" x="63.5" y="-381.5" font-family="Helvetica,sans-Serif" font-size="10.00">GraphType&lt; T &gt;</text>
<polyline fill="none" stroke="black" points="0,-374.5 127,-374.5 "/>
<text text-anchor="middle" x="63.5" y="-362.5" font-family="Helvetica,sans-Serif" font-size="10.00"> </text>
<polyline fill="none" stroke="black" points="0,-355.5 127,-355.5 "/>
<text text-anchor="start" x="8" y="-343.5" font-family="Helvetica,sans-Serif" font-size="10.00">+ GraphType()</text>
<text text-anchor="start" x="8" y="-332.5" font-family="Helvetica,sans-Serif" font-size="10.00">+ GraphType()</text>
<text text-anchor="start" x="8" y="-321.5" font-family="Helvetica,sans-Serif" font-size="10.00">+ GraphType()</text>
<text text-anchor="start" x="8" y="-310.5" font-family="Helvetica,sans-Serif" font-size="10.00">+ GraphType()</text>
<text text-anchor="start" x="8" y="-299.5" font-family="Helvetica,sans-Serif" font-size="10.00">+ get_graph()</text>
<text text-anchor="start" x="8" y="-288.5" font-family="Helvetica,sans-Serif" font-size="10.00">+ get_adj_list()</text>
<text text-anchor="start" x="8" y="-277.5" font-family="Helvetica,sans-Serif" font-size="10.00">+ get_size()</text>
<text text-anchor="start" x="8" y="-266.5" font-family="Helvetica,sans-Serif" font-size="10.00">+ get_complete_size()</text>
<text text-anchor="start" x="8" y="-255.5" font-family="Helvetica,sans-Serif" font-size="10.00">+ get_nbd()</text>
<text text-anchor="start" x="8" y="-244.5" font-family="Helvetica,sans-Serif" font-size="10.00">+ get_nbd()</text>
<text text-anchor="start" x="8" y="-233.5" font-family="Helvetica,sans-Serif" font-size="10.00">and 13 more...</text>
</a>
</g>
</g>
<!-- Node2&#45;&gt;Node3 -->
<g id="edge2" class="edge">
<title>Node2&#45;&gt;Node3</title>
<path fill="none" stroke="midnightblue" d="M99.53,-421.63C96.67,-412.85 93.57,-403.33 90.43,-393.68"/>
<polygon fill="none" stroke="midnightblue" points="96.23,-422.77 102.65,-431.19 102.88,-420.6 96.23,-422.77"/>
</g>
<!-- Node4 -->
<g id="node4" class="node">
<title>Node4</title>
<g id="a_node4"><a xlink:href="classGraphType.html" target="_top" xlink:title=" ">
<polygon fill="white" stroke="black" points="45,-0.5 45,-178.5 172,-178.5 172,-0.5 45,-0.5"/>
<text text-anchor="start" x="53" y="-166.5" font-family="Helvetica,sans-Serif" font-size="10.00">GraphType&lt; unsigned</text>
<text text-anchor="middle" x="108.5" y="-155.5" font-family="Helvetica,sans-Serif" font-size="10.00"> int &gt;</text>
<polyline fill="none" stroke="black" points="45,-148.5 172,-148.5 "/>
<text text-anchor="middle" x="108.5" y="-136.5" font-family="Helvetica,sans-Serif" font-size="10.00"> </text>
<polyline fill="none" stroke="black" points="45,-129.5 172,-129.5 "/>
<text text-anchor="start" x="53" y="-117.5" font-family="Helvetica,sans-Serif" font-size="10.00">+ GraphType()</text>
<text text-anchor="start" x="53" y="-106.5" font-family="Helvetica,sans-Serif" font-size="10.00">+ GraphType()</text>
<text text-anchor="start" x="53" y="-95.5" font-family="Helvetica,sans-Serif" font-size="10.00">+ GraphType()</text>
<text text-anchor="start" x="53" y="-84.5" font-family="Helvetica,sans-Serif" font-size="10.00">+ GraphType()</text>
<text text-anchor="start" x="53" y="-73.5" font-family="Helvetica,sans-Serif" font-size="10.00">+ get_graph()</text>
<text text-anchor="start" x="53" y="-62.5" font-family="Helvetica,sans-Serif" font-size="10.00">+ get_adj_list()</text>
<text text-anchor="start" x="53" y="-51.5" font-family="Helvetica,sans-Serif" font-size="10.00">+ get_size()</text>
<text text-anchor="start" x="53" y="-40.5" font-family="Helvetica,sans-Serif" font-size="10.00">+ get_complete_size()</text>
<text text-anchor="start" x="53" y="-29.5" font-family="Helvetica,sans-Serif" font-size="10.00">+ get_nbd()</text>
<text text-anchor="start" x="53" y="-18.5" font-family="Helvetica,sans-Serif" font-size="10.00">+ get_nbd()</text>
<text text-anchor="start" x="53" y="-7.5" font-family="Helvetica,sans-Serif" font-size="10.00">and 13 more...</text>
</a>
</g>
</g>
<!-- Node2&#45;&gt;Node4 -->
<g id="edge4" class="edge">
<title>Node2&#45;&gt;Node4</title>
<path fill="none" stroke="midnightblue" d="M128.73,-421.66C131.41,-412.63 133.87,-403.08 135.5,-394 151.03,-307.72 160.09,-283.45 145.5,-197 144.47,-190.92 143.14,-184.72 141.59,-178.53"/>
<polygon fill="none" stroke="midnightblue" points="125.38,-420.63 125.75,-431.22 132.07,-422.71 125.38,-420.63"/>
</g>
<!-- Node3&#45;&gt;Node4 -->
<g id="edge3" class="edge">
<title>Node3&#45;&gt;Node4</title>
<path fill="none" stroke="orange" d="M56.58,-216.07C57.2,-209.58 58.15,-203.17 59.5,-197 60.83,-190.94 62.54,-184.81 64.51,-178.71"/>
<polygon fill="orange" stroke="orange" points="53.07,-216.09 55.87,-226.31 60.06,-216.58 53.07,-216.09"/>
<text text-anchor="middle" x="102.5" y="-200" font-family="Helvetica,sans-Serif" font-size="10.00"> &lt; unsigned int &gt;</text>
</g>
</g>
</svg>
