<?xml version="1.0" encoding="UTF-8" standalone="no"?>
<!DOCTYPE svg PUBLIC "-//W3C//DTD SVG 1.1//EN"
 "http://www.w3.org/Graphics/SVG/1.1/DTD/svg11.dtd">
<!-- Generated by graphviz version 2.43.0 (0)
 -->
<!-- Title: utils.h Pages: 1 -->
<svg width="1624pt" height="308pt"
 viewBox="0.00 0.00 1623.50 308.00" xmlns="http://www.w3.org/2000/svg" xmlns:xlink="http://www.w3.org/1999/xlink">
<g id="graph0" class="graph" transform="scale(1 1) rotate(0) translate(4 304)">
<title>utils.h</title>
<polygon fill="white" stroke="transparent" points="-4,4 -4,-304 1619.5,-304 1619.5,4 -4,4"/>
<!-- Node1 -->
<g id="node1" class="node">
<title>Node1</title>
<g id="a_node1"><a xlink:title=" ">
<polygon fill="#bfbfbf" stroke="black" points="869.5,-280.5 869.5,-299.5 916.5,-299.5 916.5,-280.5 869.5,-280.5"/>
<text text-anchor="middle" x="893" y="-287.5" font-family="Helvetica,sans-Serif" font-size="10.00">utils.h</text>
</a>
</g>
</g>
<!-- Node2 -->
<g id="node2" class="node">
<title>Node2</title>
<g id="a_node2"><a xlink:href="include__headers_8h.html" target="_top" xlink:title=" ">
<polygon fill="white" stroke="black" points="684.5,-56.5 684.5,-75.5 789.5,-75.5 789.5,-56.5 684.5,-56.5"/>
<text text-anchor="middle" x="737" y="-63.5" font-family="Helvetica,sans-Serif" font-size="10.00">include_headers.h</text>
</a>
</g>
</g>
<!-- Node1&#45;&gt;Node2 -->
<g id="edge1" class="edge">
<title>Node1&#45;&gt;Node2</title>
<path fill="none" stroke="midnightblue" d="M891.39,-280.17C885.89,-252.29 865.52,-164.87 818,-112 805.26,-97.83 786.98,-87.14 771,-79.75"/>
<polygon fill="midnightblue" stroke="midnightblue" points="771.99,-76.36 761.42,-75.56 769.19,-82.77 771.99,-76.36"/>
</g>
<!-- Node25 -->
<g id="node25" class="node">
<title>Node25</title>
<g id="a_node25"><a xlink:href="include__graphs_8h.html" target="_top" xlink:title=" ">
<polygon fill="white" stroke="black" points="669.5,-224.5 669.5,-243.5 768.5,-243.5 768.5,-224.5 669.5,-224.5"/>
<text text-anchor="middle" x="719" y="-231.5" font-family="Helvetica,sans-Serif" font-size="10.00">include_graphs.h</text>
</a>
</g>
</g>
<!-- Node1&#45;&gt;Node25 -->
<g id="edge24" class="edge">
<title>Node1&#45;&gt;Node25</title>
<path fill="none" stroke="midnightblue" d="M869.17,-281.6C840.03,-272.56 790.37,-257.15 756.19,-246.54"/>
<polygon fill="midnightblue" stroke="midnightblue" points="757.14,-243.17 746.55,-243.55 755.07,-249.86 757.14,-243.17"/>
</g>
<!-- Node31 -->
<g id="node31" class="node">
<title>Node31</title>
<g id="a_node31"><a xlink:href="GSLwrappers_8h.html" target="_top" xlink:title=" ">
<polygon fill="white" stroke="black" points="955.5,-224.5 955.5,-243.5 1044.5,-243.5 1044.5,-224.5 955.5,-224.5"/>
<text text-anchor="middle" x="1000" y="-231.5" font-family="Helvetica,sans-Serif" font-size="10.00">GSLwrappers.h</text>
</a>
</g>
</g>
<!-- Node1&#45;&gt;Node31 -->
<g id="edge36" class="edge">
<title>Node1&#45;&gt;Node31</title>
<path fill="none" stroke="midnightblue" d="M910.19,-280.32C927.35,-271.66 953.95,-258.24 973.75,-248.25"/>
<polygon fill="midnightblue" stroke="midnightblue" points="975.5,-251.28 982.85,-243.65 972.35,-245.04 975.5,-251.28"/>
</g>
<!-- Node37 -->
<g id="node37" class="node">
<title>Node37</title>
<g id="a_node37"><a xlink:title=" ">
<polygon fill="white" stroke="#bfbfbf" points="1063,-224.5 1063,-243.5 1155,-243.5 1155,-224.5 1063,-224.5"/>
<text text-anchor="middle" x="1109" y="-231.5" font-family="Helvetica,sans-Serif" font-size="10.00">gsl/gsl_sf_log.h</text>
</a>
</g>
</g>
<!-- Node1&#45;&gt;Node37 -->
<g id="edge43" class="edge">
<title>Node1&#45;&gt;Node37</title>
<path fill="none" stroke="midnightblue" d="M916.53,-283.12C952.11,-274.22 1020.2,-257.2 1065.11,-245.97"/>
<polygon fill="midnightblue" stroke="midnightblue" points="1066.03,-249.35 1074.88,-243.53 1064.33,-242.56 1066.03,-249.35"/>
</g>
<!-- Node3 -->
<g id="node3" class="node">
<title>Node3</title>
<g id="a_node3"><a xlink:title=" ">
<polygon fill="white" stroke="#bfbfbf" points="0,-0.5 0,-19.5 60,-19.5 60,-0.5 0,-0.5"/>
<text text-anchor="middle" x="30" y="-7.5" font-family="Helvetica,sans-Serif" font-size="10.00">iostream</text>
</a>
</g>
</g>
<!-- Node2&#45;&gt;Node3 -->
<g id="edge2" class="edge">
<title>Node2&#45;&gt;Node3</title>
<path fill="none" stroke="midnightblue" d="M684.21,-59.76C670.17,-58.44 655.02,-57.1 641,-56 390.4,-36.37 322.83,-56.22 70.36,-19.95"/>
<polygon fill="midnightblue" stroke="midnightblue" points="70.54,-16.44 60.14,-18.47 69.53,-23.37 70.54,-16.44"/>
</g>
<!-- Node4 -->
<g id="node4" class="node">
<title>Node4</title>
<g id="a_node4"><a xlink:title=" ">
<polygon fill="white" stroke="#bfbfbf" points="78,-0.5 78,-19.5 128,-19.5 128,-0.5 78,-0.5"/>
<text text-anchor="middle" x="103" y="-7.5" font-family="Helvetica,sans-Serif" font-size="10.00">stdio.h</text>
</a>
</g>
</g>
<!-- Node2&#45;&gt;Node4 -->
<g id="edge3" class="edge">
<title>Node2&#45;&gt;Node4</title>
<path fill="none" stroke="midnightblue" d="M684.2,-59.84C670.17,-58.52 655.01,-57.16 641,-56 420.47,-37.79 360.27,-56.34 138.15,-19.88"/>
<polygon fill="midnightblue" stroke="midnightblue" points="138.57,-16.4 128.14,-18.22 137.43,-23.31 138.57,-16.4"/>
</g>
<!-- Node5 -->
<g id="node5" class="node">
<title>Node5</title>
<g id="a_node5"><a xlink:title=" ">
<polygon fill="white" stroke="#bfbfbf" points="146,-0.5 146,-19.5 190,-19.5 190,-0.5 146,-0.5"/>
<text text-anchor="middle" x="168" y="-7.5" font-family="Helvetica,sans-Serif" font-size="10.00">string</text>
</a>
</g>
</g>
<!-- Node2&#45;&gt;Node5 -->
<g id="edge4" class="edge">
<title>Node2&#45;&gt;Node5</title>
<path fill="none" stroke="midnightblue" d="M684.19,-59.93C670.16,-58.62 655.01,-57.23 641,-56 447.92,-39.09 394.6,-55.11 200.19,-19.86"/>
<polygon fill="midnightblue" stroke="midnightblue" points="200.69,-16.39 190.22,-18.03 199.43,-23.28 200.69,-16.39"/>
</g>
<!-- Node6 -->
<g id="node6" class="node">
<title>Node6</title>
<g id="a_node6"><a xlink:title=" ">
<polygon fill="white" stroke="#bfbfbf" points="208.5,-0.5 208.5,-19.5 255.5,-19.5 255.5,-0.5 208.5,-0.5"/>
<text text-anchor="middle" x="232" y="-7.5" font-family="Helvetica,sans-Serif" font-size="10.00">vector</text>
</a>
</g>
</g>
<!-- Node2&#45;&gt;Node6 -->
<g id="edge5" class="edge">
<title>Node2&#45;&gt;Node6</title>
<path fill="none" stroke="midnightblue" d="M684.44,-60.05C573.19,-49.56 320.2,-25.67 265.63,-19.3"/>
<polygon fill="midnightblue" stroke="midnightblue" points="266.06,-15.83 255.68,-17.98 265.13,-22.77 266.06,-15.83"/>
</g>
<!-- Node7 -->
<g id="node7" class="node">
<title>Node7</title>
<g id="a_node7"><a xlink:title=" ">
<polygon fill="white" stroke="#bfbfbf" points="274,-0.5 274,-19.5 312,-19.5 312,-0.5 274,-0.5"/>
<text text-anchor="middle" x="293" y="-7.5" font-family="Helvetica,sans-Serif" font-size="10.00">map</text>
</a>
</g>
</g>
<!-- Node2&#45;&gt;Node7 -->
<g id="edge6" class="edge">
<title>Node2&#45;&gt;Node7</title>
<path fill="none" stroke="midnightblue" d="M684.5,-59.92C586.89,-50.4 382.56,-30.06 321.99,-19.61"/>
<polygon fill="midnightblue" stroke="midnightblue" points="322.62,-16.17 312.14,-17.72 321.3,-23.04 322.62,-16.17"/>
</g>
<!-- Node8 -->
<g id="node8" class="node">
<title>Node8</title>
<g id="a_node8"><a xlink:title=" ">
<polygon fill="white" stroke="#bfbfbf" points="330,-0.5 330,-19.5 362,-19.5 362,-0.5 330,-0.5"/>
<text text-anchor="middle" x="346" y="-7.5" font-family="Helvetica,sans-Serif" font-size="10.00">set</text>
</a>
</g>
</g>
<!-- Node2&#45;&gt;Node8 -->
<g id="edge7" class="edge">
<title>Node2&#45;&gt;Node8</title>
<path fill="none" stroke="midnightblue" d="M684.26,-59.98C601.74,-51.89 444.84,-35.51 372.32,-19.76"/>
<polygon fill="midnightblue" stroke="midnightblue" points="372.78,-16.27 362.25,-17.44 371.21,-23.09 372.78,-16.27"/>
</g>
<!-- Node9 -->
<g id="node9" class="node">
<title>Node9</title>
<g id="a_node9"><a xlink:title=" ">
<polygon fill="white" stroke="#bfbfbf" points="380.5,-0.5 380.5,-19.5 427.5,-19.5 427.5,-0.5 380.5,-0.5"/>
<text text-anchor="middle" x="404" y="-7.5" font-family="Helvetica,sans-Serif" font-size="10.00">cmath</text>
</a>
</g>
</g>
<!-- Node2&#45;&gt;Node9 -->
<g id="edge8" class="edge">
<title>Node2&#45;&gt;Node9</title>
<path fill="none" stroke="midnightblue" d="M684.37,-59C626.32,-51.97 530.01,-39.05 437.78,-19.94"/>
<polygon fill="midnightblue" stroke="midnightblue" points="438.22,-16.45 427.71,-17.82 436.78,-23.31 438.22,-16.45"/>
</g>
<!-- Node10 -->
<g id="node10" class="node">
<title>Node10</title>
<g id="a_node10"><a xlink:title=" ">
<polygon fill="white" stroke="#bfbfbf" points="446,-0.5 446,-19.5 500,-19.5 500,-0.5 446,-0.5"/>
<text text-anchor="middle" x="473" y="-7.5" font-family="Helvetica,sans-Serif" font-size="10.00">random</text>
</a>
</g>
</g>
<!-- Node2&#45;&gt;Node10 -->
<g id="edge9" class="edge">
<title>Node2&#45;&gt;Node10</title>
<path fill="none" stroke="midnightblue" d="M690.13,-56.46C646.1,-48.28 578.15,-35.24 510.13,-20.17"/>
<polygon fill="midnightblue" stroke="midnightblue" points="510.61,-16.69 500.09,-17.93 509.09,-23.52 510.61,-16.69"/>
</g>
<!-- Node11 -->
<g id="node11" class="node">
<title>Node11</title>
<g id="a_node11"><a xlink:title=" ">
<polygon fill="white" stroke="#bfbfbf" points="518,-0.5 518,-19.5 568,-19.5 568,-0.5 518,-0.5"/>
<text text-anchor="middle" x="543" y="-7.5" font-family="Helvetica,sans-Serif" font-size="10.00">chrono</text>
</a>
</g>
</g>
<!-- Node2&#45;&gt;Node11 -->
<g id="edge10" class="edge">
<title>Node2&#45;&gt;Node11</title>
<path fill="none" stroke="midnightblue" d="M706.26,-56.44C671.3,-46.71 614.34,-30.86 577.78,-20.68"/>
<polygon fill="midnightblue" stroke="midnightblue" points="578.62,-17.28 568.04,-17.97 576.74,-24.02 578.62,-17.28"/>
</g>
<!-- Node12 -->
<g id="node12" class="node">
<title>Node12</title>
<g id="a_node12"><a xlink:title=" ">
<polygon fill="white" stroke="#bfbfbf" points="586,-0.5 586,-19.5 650,-19.5 650,-0.5 586,-0.5"/>
<text text-anchor="middle" x="618" y="-7.5" font-family="Helvetica,sans-Serif" font-size="10.00">algorithm</text>
</a>
</g>
</g>
<!-- Node2&#45;&gt;Node12 -->
<g id="edge11" class="edge">
<title>Node2&#45;&gt;Node12</title>
<path fill="none" stroke="midnightblue" d="M718.14,-56.44C698.73,-47.64 668.27,-33.81 646.04,-23.72"/>
<polygon fill="midnightblue" stroke="midnightblue" points="647.32,-20.46 636.77,-19.52 644.43,-26.84 647.32,-20.46"/>
</g>
<!-- Node13 -->
<g id="node13" class="node">
<title>Node13</title>
<g id="a_node13"><a xlink:title=" ">
<polygon fill="white" stroke="#bfbfbf" points="668,-0.5 668,-19.5 726,-19.5 726,-0.5 668,-0.5"/>
<text text-anchor="middle" x="697" y="-7.5" font-family="Helvetica,sans-Serif" font-size="10.00">memory</text>
</a>
</g>
</g>
<!-- Node2&#45;&gt;Node13 -->
<g id="edge12" class="edge">
<title>Node2&#45;&gt;Node13</title>
<path fill="none" stroke="midnightblue" d="M730.39,-56.08C724.74,-48.46 716.46,-37.26 709.55,-27.94"/>
<polygon fill="midnightblue" stroke="midnightblue" points="712.25,-25.7 703.48,-19.75 706.62,-29.87 712.25,-25.7"/>
</g>
<!-- Node14 -->
<g id="node14" class="node">
<title>Node14</title>
<g id="a_node14"><a xlink:title=" ">
<polygon fill="white" stroke="#bfbfbf" points="744.5,-0.5 744.5,-19.5 809.5,-19.5 809.5,-0.5 744.5,-0.5"/>
<text text-anchor="middle" x="777" y="-7.5" font-family="Helvetica,sans-Serif" font-size="10.00">exception</text>
</a>
</g>
</g>
<!-- Node2&#45;&gt;Node14 -->
<g id="edge13" class="edge">
<title>Node2&#45;&gt;Node14</title>
<path fill="none" stroke="midnightblue" d="M743.61,-56.08C749.26,-48.46 757.54,-37.26 764.45,-27.94"/>
<polygon fill="midnightblue" stroke="midnightblue" points="767.38,-29.87 770.52,-19.75 761.75,-25.7 767.38,-29.87"/>
</g>
<!-- Node15 -->
<g id="node15" class="node">
<title>Node15</title>
<g id="a_node15"><a xlink:title=" ">
<polygon fill="white" stroke="#bfbfbf" points="828,-0.5 828,-19.5 884,-19.5 884,-0.5 828,-0.5"/>
<text text-anchor="middle" x="856" y="-7.5" font-family="Helvetica,sans-Serif" font-size="10.00">numeric</text>
</a>
</g>
</g>
<!-- Node2&#45;&gt;Node15 -->
<g id="edge14" class="edge">
<title>Node2&#45;&gt;Node15</title>
<path fill="none" stroke="midnightblue" d="M755.86,-56.44C775.27,-47.64 805.73,-33.81 827.96,-23.72"/>
<polygon fill="midnightblue" stroke="midnightblue" points="829.57,-26.84 837.23,-19.52 826.68,-20.46 829.57,-26.84"/>
</g>
<!-- Node16 -->
<g id="node16" class="node">
<title>Node16</title>
<g id="a_node16"><a xlink:title=" ">
<polygon fill="white" stroke="#bfbfbf" points="902.5,-0.5 902.5,-19.5 955.5,-19.5 955.5,-0.5 902.5,-0.5"/>
<text text-anchor="middle" x="929" y="-7.5" font-family="Helvetica,sans-Serif" font-size="10.00">iterator</text>
</a>
</g>
</g>
<!-- Node2&#45;&gt;Node16 -->
<g id="edge15" class="edge">
<title>Node2&#45;&gt;Node16</title>
<path fill="none" stroke="midnightblue" d="M767.42,-56.44C801.44,-46.87 856.51,-31.39 892.74,-21.2"/>
<polygon fill="midnightblue" stroke="midnightblue" points="893.75,-24.55 902.43,-18.47 891.86,-17.81 893.75,-24.55"/>
</g>
<!-- Node17 -->
<g id="node17" class="node">
<title>Node17</title>
<g id="a_node17"><a xlink:title=" ">
<polygon fill="white" stroke="#bfbfbf" points="973.5,-0.5 973.5,-19.5 1018.5,-19.5 1018.5,-0.5 973.5,-0.5"/>
<text text-anchor="middle" x="996" y="-7.5" font-family="Helvetica,sans-Serif" font-size="10.00">utility</text>
</a>
</g>
</g>
<!-- Node2&#45;&gt;Node17 -->
<g id="edge16" class="edge">
<title>Node2&#45;&gt;Node17</title>
<path fill="none" stroke="midnightblue" d="M785.95,-56.44C829.92,-48.5 896.45,-35.85 963.45,-19.98"/>
<polygon fill="midnightblue" stroke="midnightblue" points="964.42,-23.34 973.33,-17.61 962.79,-16.53 964.42,-23.34"/>
</g>
<!-- Node18 -->
<g id="node18" class="node">
<title>Node18</title>
<g id="a_node18"><a xlink:title=" ">
<polygon fill="white" stroke="#bfbfbf" points="1036.5,-0.5 1036.5,-19.5 1077.5,-19.5 1077.5,-0.5 1036.5,-0.5"/>
<text text-anchor="middle" x="1057" y="-7.5" font-family="Helvetica,sans-Serif" font-size="10.00">tuple</text>
</a>
</g>
</g>
<!-- Node2&#45;&gt;Node18 -->
<g id="edge17" class="edge">
<title>Node2&#45;&gt;Node18</title>
<path fill="none" stroke="midnightblue" d="M789.75,-59.22C846.27,-52.49 938.71,-39.97 1026.36,-20.12"/>
<polygon fill="midnightblue" stroke="midnightblue" points="1027.23,-23.51 1036.19,-17.86 1025.66,-16.69 1027.23,-23.51"/>
</g>
<!-- Node19 -->
<g id="node19" class="node">
<title>Node19</title>
<g id="a_node19"><a xlink:title=" ">
<polygon fill="white" stroke="#bfbfbf" points="1095.5,-0.5 1095.5,-19.5 1164.5,-19.5 1164.5,-0.5 1095.5,-0.5"/>
<text text-anchor="middle" x="1130" y="-7.5" font-family="Helvetica,sans-Serif" font-size="10.00">type_traits</text>
</a>
</g>
</g>
<!-- Node2&#45;&gt;Node19 -->
<g id="edge18" class="edge">
<title>Node2&#45;&gt;Node19</title>
<path fill="none" stroke="midnightblue" d="M789.67,-59.53C856.31,-52.32 974.83,-38.54 1085.33,-20.18"/>
<polygon fill="midnightblue" stroke="midnightblue" points="1086.03,-23.61 1095.31,-18.5 1084.87,-16.71 1086.03,-23.61"/>
</g>
<!-- Node20 -->
<g id="node20" class="node">
<title>Node20</title>
<g id="a_node20"><a xlink:title=" ">
<polygon fill="white" stroke="#bfbfbf" points="1182.5,-0.5 1182.5,-19.5 1247.5,-19.5 1247.5,-0.5 1182.5,-0.5"/>
<text text-anchor="middle" x="1215" y="-7.5" font-family="Helvetica,sans-Serif" font-size="10.00">functional</text>
</a>
</g>
</g>
<!-- Node2&#45;&gt;Node20 -->
<g id="edge19" class="edge">
<title>Node2&#45;&gt;Node20</title>
<path fill="none" stroke="midnightblue" d="M789.72,-61.51C870.25,-55.76 1028.87,-42.75 1172.51,-20.09"/>
<polygon fill="midnightblue" stroke="midnightblue" points="1173.07,-23.54 1182.39,-18.51 1171.96,-16.63 1173.07,-23.54"/>
</g>
<!-- Node21 -->
<g id="node21" class="node">
<title>Node21</title>
<g id="a_node21"><a xlink:title=" ">
<polygon fill="white" stroke="#bfbfbf" points="1265.5,-0.5 1265.5,-19.5 1342.5,-19.5 1342.5,-0.5 1265.5,-0.5"/>
<text text-anchor="middle" x="1304" y="-7.5" font-family="Helvetica,sans-Serif" font-size="10.00">Eigen/Dense</text>
</a>
</g>
</g>
<!-- Node2&#45;&gt;Node21 -->
<g id="edge20" class="edge">
<title>Node2&#45;&gt;Node21</title>
<path fill="none" stroke="midnightblue" d="M789.6,-62.24C881.96,-57.01 1079.41,-44.07 1255.37,-20.1"/>
<polygon fill="midnightblue" stroke="midnightblue" points="1255.89,-23.56 1265.32,-18.73 1254.94,-16.63 1255.89,-23.56"/>
</g>
<!-- Node22 -->
<g id="node22" class="node">
<title>Node22</title>
<g id="a_node22"><a xlink:title=" ">
<polygon fill="white" stroke="#bfbfbf" points="1360.5,-0.5 1360.5,-19.5 1451.5,-19.5 1451.5,-0.5 1360.5,-0.5"/>
<text text-anchor="middle" x="1406" y="-7.5" font-family="Helvetica,sans-Serif" font-size="10.00">Eigen/Cholesky</text>
</a>
</g>
</g>
<!-- Node2&#45;&gt;Node22 -->
<g id="edge21" class="edge">
<title>Node2&#45;&gt;Node22</title>
<path fill="none" stroke="midnightblue" d="M789.81,-62.78C894.72,-58.01 1136.99,-45.21 1350.25,-20.11"/>
<polygon fill="midnightblue" stroke="midnightblue" points="1350.86,-23.56 1360.38,-18.91 1350.03,-16.61 1350.86,-23.56"/>
</g>
<!-- Node23 -->
<g id="node23" class="node">
<title>Node23</title>
<g id="a_node23"><a xlink:title=" ">
<polygon fill="white" stroke="#bfbfbf" points="1470,-0.5 1470,-19.5 1550,-19.5 1550,-0.5 1470,-0.5"/>
<text text-anchor="middle" x="1510" y="-7.5" font-family="Helvetica,sans-Serif" font-size="10.00">Eigen/Sparse</text>
</a>
</g>
</g>
<!-- Node2&#45;&gt;Node23 -->
<g id="edge22" class="edge">
<title>Node2&#45;&gt;Node23</title>
<path fill="none" stroke="midnightblue" d="M789.89,-63.88C908.15,-60.9 1203.08,-50.89 1459.69,-20.01"/>
<polygon fill="midnightblue" stroke="midnightblue" points="1460.44,-23.44 1469.95,-18.76 1459.6,-16.49 1460.44,-23.44"/>
</g>
<!-- Node24 -->
<g id="node24" class="node">
<title>Node24</title>
<g id="a_node24"><a xlink:title=" ">
<polygon fill="white" stroke="#bfbfbf" points="1568.5,-0.5 1568.5,-19.5 1615.5,-19.5 1615.5,-0.5 1568.5,-0.5"/>
<text text-anchor="middle" x="1592" y="-7.5" font-family="Helvetica,sans-Serif" font-size="10.00">omp.h</text>
</a>
</g>
</g>
<!-- Node2&#45;&gt;Node24 -->
<g id="edge23" class="edge">
<title>Node2&#45;&gt;Node24</title>
<path fill="none" stroke="midnightblue" d="M789.63,-63.57C943.39,-59.19 1391.02,-44.74 1558.21,-19.68"/>
<polygon fill="midnightblue" stroke="midnightblue" points="1559,-23.1 1568.34,-18.1 1557.92,-16.19 1559,-23.1"/>
</g>
<!-- Node26 -->
<g id="node26" class="node">
<title>Node26</title>
<g id="a_node26"><a xlink:href="Groups_8h.html" target="_top" xlink:title=" ">
<polygon fill="white" stroke="black" points="577,-112.5 577,-131.5 637,-131.5 637,-112.5 577,-112.5"/>
<text text-anchor="middle" x="607" y="-119.5" font-family="Helvetica,sans-Serif" font-size="10.00">Groups.h</text>
</a>
</g>
</g>
<!-- Node25&#45;&gt;Node26 -->
<g id="edge25" class="edge">
<title>Node25&#45;&gt;Node26</title>
<path fill="none" stroke="midnightblue" d="M669.23,-225.85C626.83,-218.63 570.65,-205.95 557,-188 543.69,-170.48 564.66,-150.43 583.39,-137.29"/>
<polygon fill="midnightblue" stroke="midnightblue" points="585.56,-140.04 591.97,-131.6 581.7,-134.21 585.56,-140.04"/>
</g>
<!-- Node28 -->
<g id="node28" class="node">
<title>Node28</title>
<g id="a_node28"><a xlink:href="BlockGraph_8h.html" target="_top" xlink:title=" ">
<polygon fill="white" stroke="black" points="566,-168.5 566,-187.5 648,-187.5 648,-168.5 566,-168.5"/>
<text text-anchor="middle" x="607" y="-175.5" font-family="Helvetica,sans-Serif" font-size="10.00">BlockGraph.h</text>
</a>
</g>
</g>
<!-- Node25&#45;&gt;Node28 -->
<g id="edge28" class="edge">
<title>Node25&#45;&gt;Node28</title>
<path fill="none" stroke="midnightblue" d="M701.01,-224.32C682.96,-215.62 654.95,-202.12 634.2,-192.11"/>
<polygon fill="midnightblue" stroke="midnightblue" points="635.48,-188.84 624.95,-187.65 632.44,-195.15 635.48,-188.84"/>
</g>
<!-- Node29 -->
<g id="node29" class="node">
<title>Node29</title>
<g id="a_node29"><a xlink:href="GraphType_8h.html" target="_top" xlink:title=" ">
<polygon fill="white" stroke="black" points="732.5,-112.5 732.5,-131.5 809.5,-131.5 809.5,-112.5 732.5,-112.5"/>
<text text-anchor="middle" x="771" y="-119.5" font-family="Helvetica,sans-Serif" font-size="10.00">GraphType.h</text>
</a>
</g>
</g>
<!-- Node25&#45;&gt;Node29 -->
<g id="edge31" class="edge">
<title>Node25&#45;&gt;Node29</title>
<path fill="none" stroke="midnightblue" d="M738.91,-224.41C753.22,-217.04 771.46,-204.92 780,-188 787.37,-173.4 783.64,-154.72 778.95,-141.14"/>
<polygon fill="midnightblue" stroke="midnightblue" points="782.08,-139.54 775.16,-131.51 775.56,-142.1 782.08,-139.54"/>
</g>
<!-- Node30 -->
<g id="node30" class="node">
<title>Node30</title>
<g id="a_node30"><a xlink:href="BlockGraphCRTP_8h.html" target="_top" xlink:title=" ">
<polygon fill="white" stroke="black" points="666.5,-168.5 666.5,-187.5 771.5,-187.5 771.5,-168.5 666.5,-168.5"/>
<text text-anchor="middle" x="719" y="-175.5" font-family="Helvetica,sans-Serif" font-size="10.00">BlockGraphCRTP.h</text>
</a>
</g>
</g>
<!-- Node25&#45;&gt;Node30 -->
<g id="edge33" class="edge">
<title>Node25&#45;&gt;Node30</title>
<path fill="none" stroke="midnightblue" d="M713.83,-224.08C712.32,-216.93 711.89,-206.64 712.54,-197.69"/>
<polygon fill="midnightblue" stroke="midnightblue" points="716.02,-198.13 713.87,-187.75 709.08,-197.2 716.02,-198.13"/>
</g>
<!-- Node26&#45;&gt;Node2 -->
<g id="edge27" class="edge">
<title>Node26&#45;&gt;Node2</title>
<path fill="none" stroke="midnightblue" d="M627.6,-112.44C648.99,-103.56 682.68,-89.56 707.02,-79.45"/>
<polygon fill="midnightblue" stroke="midnightblue" points="708.61,-82.58 716.5,-75.52 705.92,-76.12 708.61,-82.58"/>
</g>
<!-- Node27 -->
<g id="node27" class="node">
<title>Node27</title>
<g id="a_node27"><a xlink:title=" ">
<polygon fill="white" stroke="#bfbfbf" points="582,-56.5 582,-75.5 632,-75.5 632,-56.5 582,-56.5"/>
<text text-anchor="middle" x="607" y="-63.5" font-family="Helvetica,sans-Serif" font-size="10.00">Rcpp.h</text>
</a>
</g>
</g>
<!-- Node26&#45;&gt;Node27 -->
<g id="edge26" class="edge">
<title>Node26&#45;&gt;Node27</title>
<path fill="none" stroke="midnightblue" d="M607,-112.08C607,-105.01 607,-94.86 607,-85.99"/>
<polygon fill="midnightblue" stroke="midnightblue" points="610.5,-85.75 607,-75.75 603.5,-85.75 610.5,-85.75"/>
</g>
<!-- Node28&#45;&gt;Node2 -->
<g id="edge29" class="edge">
<title>Node28&#45;&gt;Node2</title>
<path fill="none" stroke="midnightblue" d="M617.2,-168.37C639.22,-149.73 691.46,-105.53 719.11,-82.13"/>
<polygon fill="midnightblue" stroke="midnightblue" points="721.47,-84.72 726.85,-75.59 716.95,-79.38 721.47,-84.72"/>
</g>
<!-- Node28&#45;&gt;Node26 -->
<g id="edge30" class="edge">
<title>Node28&#45;&gt;Node26</title>
<path fill="none" stroke="midnightblue" d="M607,-168.08C607,-161.01 607,-150.86 607,-141.99"/>
<polygon fill="midnightblue" stroke="midnightblue" points="610.5,-141.75 607,-131.75 603.5,-141.75 610.5,-141.75"/>
</g>
<!-- Node29&#45;&gt;Node2 -->
<g id="edge32" class="edge">
<title>Node29&#45;&gt;Node2</title>
<path fill="none" stroke="midnightblue" d="M765.39,-112.08C760.63,-104.53 753.68,-93.49 747.85,-84.23"/>
<polygon fill="midnightblue" stroke="midnightblue" points="750.8,-82.35 742.51,-75.75 744.88,-86.08 750.8,-82.35"/>
</g>
<!-- Node30&#45;&gt;Node2 -->
<g id="edge34" class="edge">
<title>Node30&#45;&gt;Node2</title>
<path fill="none" stroke="midnightblue" d="M718.88,-168.09C718.85,-155.49 719.37,-131.79 723,-112 724.64,-103.05 727.5,-93.38 730.21,-85.3"/>
<polygon fill="midnightblue" stroke="midnightblue" points="733.53,-86.4 733.57,-75.81 726.93,-84.07 733.53,-86.4"/>
</g>
<!-- Node30&#45;&gt;Node25 -->
<g id="edge35" class="edge">
<title>Node30&#45;&gt;Node25</title>
<path fill="none" stroke="midnightblue" d="M724.13,-187.75C725.66,-194.86 726.1,-205.14 725.47,-214.1"/>
<polygon fill="midnightblue" stroke="midnightblue" points="721.99,-213.71 724.17,-224.08 728.93,-214.62 721.99,-213.71"/>
</g>
<!-- Node31&#45;&gt;Node2 -->
<g id="edge37" class="edge">
<title>Node31&#45;&gt;Node2</title>
<path fill="none" stroke="midnightblue" d="M966.53,-224.48C944.5,-217.54 916.13,-205.92 896,-188 866.84,-162.05 881.61,-137.43 852,-112 833.45,-96.07 808.61,-85.41 786.76,-78.47"/>
<polygon fill="midnightblue" stroke="midnightblue" points="787.55,-75.06 776.97,-75.55 785.54,-81.76 787.55,-75.06"/>
</g>
<!-- Node32 -->
<g id="node32" class="node">
<title>Node32</title>
<g id="a_node32"><a xlink:title=" ">
<polygon fill="white" stroke="#bfbfbf" points="1012,-168.5 1012,-187.5 1090,-187.5 1090,-168.5 1012,-168.5"/>
<text text-anchor="middle" x="1051" y="-175.5" font-family="Helvetica,sans-Serif" font-size="10.00">gsl/gsl_rng.h</text>
</a>
</g>
</g>
<!-- Node31&#45;&gt;Node32 -->
<g id="edge38" class="edge">
<title>Node31&#45;&gt;Node32</title>
<path fill="none" stroke="midnightblue" d="M1008.42,-224.08C1015.85,-216.22 1026.85,-204.57 1035.81,-195.08"/>
<polygon fill="midnightblue" stroke="midnightblue" points="1038.41,-197.42 1042.74,-187.75 1033.32,-192.62 1038.41,-197.42"/>
</g>
<!-- Node33 -->
<g id="node33" class="node">
<title>Node33</title>
<g id="a_node33"><a xlink:title=" ">
<polygon fill="white" stroke="#bfbfbf" points="1108,-168.5 1108,-187.5 1204,-187.5 1204,-168.5 1108,-168.5"/>
<text text-anchor="middle" x="1156" y="-175.5" font-family="Helvetica,sans-Serif" font-size="10.00">gsl/gsl_randist.h</text>
</a>
</g>
</g>
<!-- Node31&#45;&gt;Node33 -->
<g id="edge39" class="edge">
<title>Node31&#45;&gt;Node33</title>
<path fill="none" stroke="midnightblue" d="M1024.72,-224.44C1050.85,-215.4 1092.26,-201.06 1121.58,-190.92"/>
<polygon fill="midnightblue" stroke="midnightblue" points="1123.09,-194.1 1131.4,-187.52 1120.8,-187.48 1123.09,-194.1"/>
</g>
<!-- Node34 -->
<g id="node34" class="node">
<title>Node34</title>
<g id="a_node34"><a xlink:title=" ">
<polygon fill="white" stroke="#bfbfbf" points="1222.5,-168.5 1222.5,-187.5 1299.5,-187.5 1299.5,-168.5 1222.5,-168.5"/>
<text text-anchor="middle" x="1261" y="-175.5" font-family="Helvetica,sans-Serif" font-size="10.00">gsl/gsl_cdf.h</text>
</a>
</g>
</g>
<!-- Node31&#45;&gt;Node34 -->
<g id="edge40" class="edge">
<title>Node31&#45;&gt;Node34</title>
<path fill="none" stroke="midnightblue" d="M1041.36,-224.44C1087.79,-214.84 1163.06,-199.26 1212.3,-189.08"/>
<polygon fill="midnightblue" stroke="midnightblue" points="1213.31,-192.44 1222.39,-186.99 1211.89,-185.59 1213.31,-192.44"/>
</g>
<!-- Node35 -->
<g id="node35" class="node">
<title>Node35</title>
<g id="a_node35"><a xlink:title=" ">
<polygon fill="white" stroke="#bfbfbf" points="1318,-168.5 1318,-187.5 1416,-187.5 1416,-168.5 1318,-168.5"/>
<text text-anchor="middle" x="1367" y="-175.5" font-family="Helvetica,sans-Serif" font-size="10.00">gsl/gsl_bspline.h</text>
</a>
</g>
</g>
<!-- Node31&#45;&gt;Node35 -->
<g id="edge41" class="edge">
<title>Node31&#45;&gt;Node35</title>
<path fill="none" stroke="midnightblue" d="M1044.78,-225.45C1047.9,-224.95 1050.99,-224.46 1054,-224 1163.92,-207.08 1194.09,-204.89 1307.8,-188.16"/>
<polygon fill="midnightblue" stroke="midnightblue" points="1308.58,-191.58 1317.96,-186.66 1307.56,-184.66 1308.58,-191.58"/>
</g>
<!-- Node36 -->
<g id="node36" class="node">
<title>Node36</title>
<g id="a_node36"><a xlink:title=" ">
<polygon fill="white" stroke="#bfbfbf" points="904.5,-168.5 904.5,-187.5 993.5,-187.5 993.5,-168.5 904.5,-168.5"/>
<text text-anchor="middle" x="949" y="-175.5" font-family="Helvetica,sans-Serif" font-size="10.00">gsl/gsl_linalg.h</text>
</a>
</g>
</g>
<!-- Node31&#45;&gt;Node36 -->
<g id="edge42" class="edge">
<title>Node31&#45;&gt;Node36</title>
<path fill="none" stroke="midnightblue" d="M991.58,-224.08C984.15,-216.22 973.15,-204.57 964.19,-195.08"/>
<polygon fill="midnightblue" stroke="midnightblue" points="966.68,-192.62 957.26,-187.75 961.59,-197.42 966.68,-192.62"/>
</g>
</g>
</svg>
